# g: 5, v: 50, vt: 37, vn: 50, f: 50
o Platonic Solids

# v: 4, vt: 3, vn: 4, f: 4
g Tetrahedron

v 2.500000 0.471404 -0.166666
v 2.091751 -0.235702 -0.166666
v 2.908248 -0.235702 -0.166666
v 2.500000 0.0 0.500000

vt 0.500000 1.000000
vt 1.000000 0.0
vt 0.0 0.0

vn 0.0 0.0 -1.000000
vn -0.816496 0.471404 0.333333
vn 0.0 -0.942809 0.333333
vn 0.816496 0.471404 0.333333

s off

f 1/1/1 3/3/1 2/2/1 
f 1/3/2 2/2/2 4/1/2 
f 1/2/4 4/1/4 3/3/4 
f 2/3/3 3/2/3 4/1/3 

# v: 8, vt: 4, vn: 6, f: 6
g Cube

v 0.896446 -0.353553 -0.353553
v 0.896446 -0.353553 0.353553
v 0.896446 0.353553 -0.353553
v 0.896446 0.353553 0.353553
v 1.603553 -0.353553 -0.353553
v 1.603553 -0.353553 0.353553
v 1.603553 0.353553 -0.353553
v 1.603553 0.353553 0.353553

vt 0.0 1.000000
vt 0.0 0.0
vt 1.000000 0.0
vt 1.000000 1.000000

vn 1.000000 0.0 0.0
vn 0.0 0.0 1.000000
vn 0.0 0.0 -1.000000
vn 0.0 -1.000000 0.0
vn -1.000000 0.0 0.0
vn 0.0 1.000000 0.0

s off

f 11/6/5 12/7/5 10/4/5 9/5/5 
f 12/5/6 8/6/6 6/7/6 10/4/6 
f 7/5/7 11/6/7 9/7/7 5/4/7 
f 9/6/8 10/7/8 6/4/8 5/5/8 
f 5/6/9 6/7/9 8/4/9 7/5/9 
f 7/6/10 8/7/10 12/4/10 11/5/10 

# v: 6, vt: 3, vn: 8, f: 8
g Octahedron

v 0.0 -0.500000 0.0
v 0.500000 0.0 0.0
v -0.500000 0.0 0.0
v 0.0 0.500000 0.0
v 0.0 0.0 0.500000
v 0.0 0.0 -0.500000

vt 0.500000 1.000000
vt 1.000000 0.0
vt 0.0 0.0

vn 0.577350 -0.577350 0.577350
vn -0.577350 0.577350 0.577350
vn -0.577350 -0.577350 0.577350
vn 0.577350 0.577350 0.577350
vn -0.577350 0.577350 -0.577350
vn 0.577350 0.577350 -0.577350
vn 0.577350 -0.577350 -0.577350
vn -0.577350 -0.577350 -0.577350

s off

f 13/10/11 14/9/11 17/8/11 
f 14/10/14 16/9/14 17/8/14 
f 16/10/12 15/9/12 17/8/12 
f 15/10/13 13/9/13 17/8/13 
f 15/10/15 16/9/15 18/8/15 
f 16/10/16 14/9/16 18/8/16 
f 14/10/17 13/9/17 18/8/17 
f 13/10/18 15/9/18 18/8/18 

# v: 20, vt: 5, vn: 12, f: 12
g Dodecahedron

v -1.250000 0.336144 -0.416511
v -1.440983 0.475528 0.154508
v -1.059016 0.475528 0.154508
v -0.940983 0.198401 0.389384
v -1.559016 0.198401 0.389384
v -1.440983 -0.475528 -0.154508
v -1.559016 -0.389384 0.198401
v -1.059016 -0.475528 -0.154508
v -0.940983 -0.198401 -0.389384
v -1.250000 -0.027127 -0.534545
v -0.940983 0.389384 -0.198401
v -0.750000 0.059016 -0.181635
v -1.559016 -0.198401 -0.389384
v -1.750000 0.059016 -0.181635
v -1.559016 0.389384 -0.198401
v -1.250000 0.027127 0.534545
v -1.250000 -0.336144 0.416511
v -0.940983 -0.389384 0.198401
v -0.750000 -0.059016 0.181635
v -1.750000 -0.059016 0.181635

vt 0.500000 1.000000
vt 0.793892 0.095491
vt 0.024471 0.654508
vt 0.206107 0.095491
vt 0.975528 0.654508

vn -0.850650 0.500000 0.162459
vn 0.0 -0.971476 0.237134
vn 0.0 0.971476 -0.237134
vn 0.0 -0.646557 -0.762865
vn 0.525731 0.262865 -0.809016
vn 0.0 0.646557 0.762865
vn -0.525731 0.262865 -0.809016
vn -0.525731 -0.262865 0.809016
vn 0.525731 -0.262865 0.809016
vn 0.850650 0.500000 0.162459
vn 0.850650 -0.500000 -0.162459
vn -0.850650 -0.500000 -0.162459

s off

f 21/11/21 29/13/21 19/14/21 33/12/21 20/15/21 
f 20/11/24 23/13/24 34/14/24 22/12/24 21/15/24 
f 26/11/20 36/13/20 35/14/20 25/12/20 24/15/20 
f 24/11/22 31/13/22 28/14/22 27/12/22 26/15/22 
f 28/11/23 19/13/23 29/14/23 30/12/23 27/15/23 
f 19/11/25 28/13/25 31/14/25 32/12/25 33/15/25 
f 35/11/26 34/13/26 23/14/26 38/12/26 25/15/26 
f 34/11/27 35/13/27 36/14/27 37/12/27 22/15/27 
f 30/11/28 29/13/28 21/14/28 22/12/28 37/15/28 
f 37/11/29 36/13/29 26/14/29 27/12/29 30/15/29 
f 32/11/30 31/13/30 24/14/30 25/12/30 38/15/30 
f 38/11/19 23/13/19 20/14/19 33/12/19 32/15/19 

# v: 12, vt: 22, vn: 20, f: 20
g Icosahedron

v -2.500000 0.0 -0.500000
v -2.500000 -0.447212 -0.223609
v -2.925325 -0.138194 -0.223609
v -2.074674 -0.138194 -0.223609
v -2.762865 0.361801 -0.223609
v -2.237134 0.361801 -0.223609
v -2.762865 -0.361801 0.223609
v -2.237134 -0.361801 0.223609
v -2.925325 0.138194 0.223609
v -2.074674 0.138194 0.223609
v -2.500000 0.447212 0.223609
v -2.500000 0.0 0.500000

vt 0.0 0.421387
vt 0.090908 0.578613
vt 0.090908 0.264160
vt 0.181817 0.735838
vt 0.181817 0.421387
vt 0.272727 0.578613
vt 0.272727 0.264160
vt 0.363635 0.735838
vt 0.363635 0.421387
vt 0.454544 0.578613
vt 0.454544 0.264160
vt 0.545454 0.735838
vt 0.545454 0.421387
vt 0.636363 0.578613
vt 0.636363 0.264160
vt 0.727272 0.735838
vt 0.727272 0.421387
vt 0.818181 0.578613
vt 0.818181 0.264160
vt 0.909090 0.735838
vt 0.909090 0.421387
vt 1.000000 0.578613

vn 0.0 -0.607061 0.794654
vn 0.577352 -0.794653 -0.187589
vn 0.934171 -0.303534 0.187589
vn 0.934171 0.303534 -0.187589
vn 0.577352 0.794653 0.187589
vn 0.356822 0.491121 0.794655
vn -0.356822 0.491121 0.794655
vn 0.0 0.607061 -0.794654
vn -0.356822 -0.491121 -0.794655
vn 0.356822 -0.491121 -0.794655
vn -0.577347 0.187593 -0.794656
vn 0.577347 0.187593 -0.794656
vn 0.0 0.982246 -0.187592
vn -0.577352 0.794653 0.187589
vn -0.934171 0.303534 -0.187589
vn -0.934171 -0.303534 0.187589
vn -0.577352 -0.794653 -0.187589
vn 0.0 -0.982246 0.187592
vn -0.577347 -0.187593 0.794656
vn 0.577347 -0.187593 0.794656

s off

f 39/18/38 43/20/38 44/16/38 
f 39/22/41 41/24/41 43/20/41 
f 39/26/39 40/28/39 41/24/39 
f 39/30/40 42/32/40 40/28/40 
f 39/34/42 44/36/42 42/32/42 
f 49/17/43 44/16/43 43/20/43 
f 47/21/44 49/17/44 43/20/44 
f 47/21/45 43/20/45 41/24/45 
f 45/25/46 47/21/46 41/24/46 
f 45/25/47 41/24/47 40/28/47 
f 46/29/48 45/25/48 40/28/48 
f 46/29/32 40/28/32 42/32/32 
f 48/33/33 46/29/33 42/32/33 
f 48/33/34 42/32/34 44/36/34 
f 49/37/35 48/33/35 44/36/35 
f 50/35/36 48/33/36 49/37/36 
f 50/19/37 49/17/37 47/21/37 
f 50/23/49 47/21/49 45/25/49 
f 50/27/31 45/25/31 46/29/31 
f 50/31/50 46/29/50 48/33/50 
