<svg xmlns="http://www.w3.org/2000/svg" xmlns:xlink="http://www.w3.org/1999/xlink" width="720" height="405" viewBox="0 0 720 405">
<path id="background" d="M 0.0 0.0 L 720.0 0.0 L 720.0 405.0 L 0.0 405.0 Z" stroke="none" fill-opacity="1.000000" fill="#202020"></path>
<g transform="translate(360.000000, 202.500000) scale(1.000000, -1.000000) rotate(0.0) translate(0.0, 0.0)">
<g id="ea1a8d5" class="meshentity2" transform="translate(0.0, 0.0) rotate(0.0) scale(1.000000, 1.000000)">
<g id="0xffff0000" class="materialsolid" stroke="none" fill-opacity="1.000000" fill="#ff0000">
<path id="arc" class="mesh2" fill-rule="evenodd" d="M 24.996093 0.0 L 24.878648 2.420227 L 24.527421 4.817711 L 23.945707 7.169924 L 23.138975 9.454760 L 22.114807 11.650751 L 20.882825 13.737258 L 19.454608 15.694678 L 17.843576 17.504613 L 16.064867 19.150058 L 14.135197 20.615550 L 12.072697 21.887315 L 9.896752 22.953409 L 7.627806 23.803808 L 5.287181 24.430522 L 2.896873 24.827661 L 0.479343 24.991497 L -1.942691 24.920486 L -4.346469 24.615297 L -6.709404 24.078800 L -9.009292 23.316032 L -11.224518 22.334163 L -13.334267 21.142421 L -15.318716 19.752004 L -17.159212 18.175975 L -18.838466 16.429147 L -20.340692 14.527936 L -21.651777 12.490205 L -22.759401 10.335103 L -23.653154 8.082882 L -24.324638 5.754707 L -24.767543 3.372454 L -24.977708 0.958510 L -24.953157 -1.464440 L -24.694122 -3.873629 L -24.203037 -6.246418 L -23.484514 -8.560509 L -22.545307 -10.794157 L -21.394241 -12.926373 L -20.042135 -14.937119 L -18.501691 -16.807500 L -16.787387 -18.519943 L -14.915333 -20.058353 L -12.903119 -21.408273 L -10.769654 -22.557022 L -8.534987 -23.493801 L -6.220116 -24.209810 L -3.846794 -24.698316 L -1.437325 -24.954734 L 0.985650 -24.976654 L 3.399364 -24.763866 L 5.781134 -24.318370 L 8.108579 -23.644357 L 10.359827 -22.748157 L 12.513725 -21.638193 L 14.550030 -20.324893 L 16.449609 -18.820602 L 18.194610 -17.139453 L 19.768636 -15.297244 L 21.156898 -13.311287 L 20.627977 -12.978506 L 19.274421 -14.914813 L 17.739746 -16.710968 L 16.038368 -18.350088 L 14.186280 -19.816772 L 12.200881 -21.097238 L 10.100831 -22.179454 L 7.905865 -23.053249 L 5.636606 -23.710412 L 3.314380 -24.144769 L 0.961009 -24.352237 L -1.401392 -24.330867 L -3.750625 -24.080860 L -6.064613 -23.604564 L -8.321612 -22.906455 L -10.500412 -21.993097 L -12.580541 -20.873067 L -14.542449 -19.556894 L -16.367704 -18.056945 L -18.039150 -16.387313 L -19.541080 -14.563693 L -20.859386 -12.603215 L -21.981674 -10.524304 L -22.897401 -8.346497 L -23.597959 -6.090258 L -24.076770 -3.776788 L -24.329330 -1.427829 L -24.353267 0.934547 L -24.148355 3.288142 L -23.716524 5.610839 L -23.061826 7.880810 L -22.190416 10.076726 L -21.110483 12.177950 L -19.832174 14.164738 L -18.367504 16.018421 L -16.730232 17.721578 L -14.935748 19.258205 L -13.000912 20.613861 L -10.943905 21.775810 L -8.784059 22.733133 L -6.541669 23.476829 L -4.237808 23.999916 L -1.894123 24.297475 L 0.467359 24.366710 L 2.824451 24.206970 L 5.155002 23.819759 L 7.437111 23.208713 L 9.649333 22.379573 L 11.770880 21.340135 L 13.781818 20.100160 L 15.663246 18.671306 L 17.397487 17.066999 L 18.968242 15.302310 L 20.360755 13.393827 L 21.561937 11.359482 L 22.560503 9.218392 L 23.347064 6.990675 L 23.914236 4.697268 L 24.256683 2.359721 L 24.371192 0.0 Z "></path>
</g>
<g id="0xffdc0023" class="materialsolid" stroke="none" fill-opacity="1.000000" fill="#dc0023">
<path id="arc" class="mesh2" fill-rule="evenodd" d="M 28.009979 13.352122 L 26.570598 16.026271 L 24.876701 18.546911 L 22.944509 20.889890 L 20.792539 23.032768 L 18.441398 24.955017 L 15.913609 26.638227 L 13.233386 28.066270 L 10.426402 29.225471 L 7.519545 30.104724 L 4.540658 30.695611 L 1.518278 30.992464 L -1.518645 30.992448 L -4.541021 30.695556 L -7.519900 30.104637 L -10.426748 29.225347 L -13.233717 28.066114 L -15.913924 26.638038 L -18.441694 24.954799 L -20.792812 23.032522 L -22.944757 20.889617 L -24.876918 18.546617 L -26.570787 16.025959 L -28.010137 13.351790 L -29.181182 10.549726 L -30.072704 7.646608 L -30.676160 4.670244 L -30.985776 1.649144 L -30.998584 -1.387752 L -30.714458 -4.411356 L -30.136125 -7.392704 L -29.269119 -10.303238 L -28.121749 -13.115079 L -26.705003 -15.801292 L -25.032455 -18.336145 L -23.120124 -20.695360 L -20.986328 -22.856338 L -18.651506 -24.798376 L -16.138023 -26.502872 L -13.469956 -27.953502 L -10.672862 -29.136369 L -7.773534 -30.040143 L -4.799746 -30.656166 L -1.779980 -30.978538 L 1.256835 -31.004169 L 4.281611 -30.732814 L 7.265375 -30.167074 L 10.179545 -29.312368 L 12.996206 -28.176883 L 15.688378 -26.771493 L 18.230272 -25.109664 L 20.597541 -23.207311 L 22.767509 -21.082660 L 24.719390 -18.756061 L 26.434488 -16.249797 L 27.896371 -13.587882 L 27.198963 -13.248185 L 25.773626 -15.843553 L 24.101406 -18.287160 L 22.198322 -20.555595 L 20.082603 -22.627130 L 17.774517 -24.481924 L 15.296169 -26.102207 L 12.671301 -27.472461 L 9.925057 -28.579561 L 7.083741 -29.412897 L 4.174571 -29.964494 L 1.225414 -30.229064 L -1.735480 -30.204074 L -4.679752 -29.889762 L -7.579196 -29.289142 L -10.406042 -28.407962 L -13.133207 -27.254667 L -15.734573 -25.840303 L -18.185218 -24.178417 L -20.461669 -22.284929 L -22.542121 -20.177976 L -24.406644 -17.877742 L -26.037378 -15.406260 L -27.418706 -12.787202 L -28.537391 -10.045657 L -29.382722 -7.207886 L -29.946598 -4.301072 L -30.223619 -1.353058 L -30.211133 1.607915 L -29.909257 4.553488 L -29.320886 7.455443 L -28.451652 10.285984 L -27.309885 13.017995 L -25.906518 15.625309 L -24.254997 18.082952 L -22.371139 20.367380 L -20.272991 22.456710 L -17.980651 24.330930 L -15.516077 25.972087 L -12.902875 27.364461 L -10.166079 28.494716 L -7.331903 29.352022 L -4.427496 29.928167 L -1.480679 30.217636 L 1.480321 30.217655 L 4.427143 29.928220 L 7.331556 29.352108 L 10.165741 28.494836 L 12.902552 27.364614 L 15.515770 25.972270 L 17.980363 24.331142 L 20.272726 22.456949 L 22.370899 20.367645 L 24.254781 18.083238 L 25.906333 15.625617 L 27.309730 13.018319 Z "></path>
</g>
<g id="0xffb90046" class="materialsolid" stroke="none" fill-opacity="1.000000" fill="#b90046">
<path id="arc" class="mesh2" fill-rule="evenodd" d="M 23.337936 28.792701 L 20.436979 30.919391 L 17.343532 32.754859 L 14.086730 34.281814 L 10.697249 35.485881 L 7.207012 36.355712 L 3.648895 36.883117 L 0.056409 37.063133 L -3.536607 36.894058 L -7.096314 36.377483 L -10.589181 35.518280 L -13.982313 34.324539 L -17.243747 32.807502 L -20.342769 30.981456 L -23.250183 28.863607 L -25.938613 26.473897 L -28.382732 23.834838 L -30.559520 20.971281 L -32.448474 17.910203 L -34.031806 14.680432 L -35.294597 11.312389 L -36.224960 7.837798 L -36.814128 4.289384 L -37.056552 0.700570 L -36.949951 -2.894842 L -36.495326 -6.462989 L -35.696956 -9.970263 L -34.562370 -13.383628 L -33.102245 -16.670938 L -31.330341 -19.801227 L -29.263345 -22.745014 L -26.920722 -25.474571 L -24.324539 -27.964187 L -21.499250 -30.190416 L -18.471464 -32.132286 L -15.269699 -33.771514 L -11.924113 -35.092655 L -8.466217 -36.083267 L -4.928578 -36.734016 L -1.344520 -37.038780 L 2.252202 -36.994682 L 5.827712 -36.602142 L 9.348331 -35.864852 L 12.780900 -34.789760 L 16.093091 -33.386993 L 19.253704 -31.669763 L 22.232971 -29.654241 L 25.002830 -27.359411 L 27.537193 -24.806892 L 29.812192 -22.020721 L 31.806396 -19.027143 L 33.501022 -15.854352 L 34.880111 -12.532234 L 34.008110 -12.218929 L 32.663497 -15.457994 L 31.011236 -18.551465 L 29.066886 -21.470203 L 26.848764 -24.186721 L 24.377759 -26.675426 L 21.677146 -28.912885 L 18.772361 -30.878019 L 15.690765 -32.552318 L 12.461379 -33.920017 L 9.114624 -34.968231 L 5.682019 -35.687088 L 2.195897 -36.069816 L -1.310907 -36.112812 L -4.805364 -35.815670 L -8.254561 -35.181186 L -11.626010 -34.215339 L -14.887956 -32.927227 L -18.009677 -31.328981 L -20.961769 -29.435655 L -23.716426 -27.265083 L -26.247705 -24.837705 L -28.531761 -22.176387 L -30.547082 -19.306198 L -32.274692 -16.254163 L -33.698310 -13.049038 L -34.804534 -9.721006 L -35.582942 -6.301414 L -36.026203 -2.822471 L -36.130142 0.683056 L -35.893775 4.182150 L -35.319339 7.641854 L -34.412235 11.029580 L -33.181011 14.313422 L -31.637264 17.462448 L -29.795532 20.447000 L -27.673164 23.238967 L -25.290147 25.812051 L -22.668930 28.142017 L -19.834197 30.206922 L -16.812654 31.987312 L -13.632756 33.466426 L -10.324453 34.630321 L -6.918906 35.468048 L -3.448192 35.971702 L 0.054999 36.136554 L 3.557672 35.961044 L 7.026837 35.446823 L 10.429818 34.598735 L 13.734562 33.424774 L 16.909944 31.935987 L 19.926057 30.146408 L 22.754487 28.072885 Z "></path>
</g>
<g id="0xff9a0361" class="materialsolid" stroke="none" fill-opacity="1.000000" fill="#9a0361">
<path id="arc" class="mesh2" fill-rule="evenodd" d="M 10.089812 41.898956 L 5.934666 42.686138 L 1.722372 43.062282 L -2.506505 43.023765 L -6.711247 42.570953 L -10.851366 41.708206 L -14.886991 40.443840 L -18.779264 38.790023 L -22.490703 36.762683 L -25.985572 34.381343 L -29.230218 31.668931 L -32.193393 28.651565 L -34.846565 25.358304 L -37.164188 21.820859 L -39.123943 18.073291 L -40.706958 14.151690 L -41.897991 10.093815 L -42.685573 5.938745 L -43.062118 1.726488 L -43.024002 -2.502394 L -42.571590 -6.707180 L -41.709243 -10.847379 L -40.445262 -14.883126 L -38.791820 -18.775556 L -36.764831 -22.487192 L -34.383823 -25.982288 L -31.671724 -29.227190 L -28.654644 -32.190654 L -25.361633 -34.844142 L -21.824409 -37.162101 L -18.077030 -39.122215 L -14.155579 -40.705604 L -10.097819 -41.897026 L -5.942823 -42.685005 L -1.730603 -43.061954 L 2.498282 -43.024242 L 6.703111 -42.572235 L 10.843394 -41.710281 L 14.879260 -40.446685 L 18.771850 -38.793613 L 22.483676 -36.766983 L 25.979001 -34.386310 L 29.224163 -31.674516 L 32.187915 -28.657718 L 34.841716 -25.364963 L 37.160018 -21.827960 L 39.120487 -18.080768 L 40.704250 -14.159469 L 41.896060 -10.101823 L 40.848659 -9.849278 L 39.686649 -13.805483 L 38.142475 -17.628749 L 36.231018 -21.282262 L 33.970676 -24.730840 L 31.383218 -27.941276 L 28.493560 -30.882652 L 25.329526 -33.526653 L 21.921585 -35.847808 L 18.302553 -37.823772 L 14.507280 -39.435520 L 10.572308 -40.667526 L 6.535533 -41.507926 L 2.435825 -41.948635 L -1.687338 -41.985404 L -5.794253 -41.617881 L -9.845374 -40.849601 L -13.801691 -39.687965 L -17.625104 -38.144161 L -21.278799 -36.233051 L -24.727592 -33.973037 L -27.938276 -31.385889 L -30.879930 -28.496513 L -33.524230 -25.332729 L -35.845714 -21.925012 L -37.822025 -18.306167 L -39.434135 -14.511048 L -40.666515 -10.576195 L -41.507305 -6.539500 L -41.948406 -2.439834 L -41.985565 1.683325 L -41.618434 5.790276 L -40.850543 9.841470 L -39.689285 13.797898 L -38.145843 17.621459 L -36.235084 21.275337 L -33.975402 24.724346 L -31.388559 27.935276 L -28.499462 30.877206 L -25.335935 33.521808 L -21.928436 35.843616 L -18.309782 37.820274 L -14.514817 39.432746 L -10.580080 40.665504 L -6.543467 41.506679 L -2.443843 41.948169 L 1.679313 41.985725 L 5.786299 41.618984 L 9.837567 40.851482 Z "></path>
</g>
<g id="0xff7f0874" class="materialsolid" stroke="none" fill-opacity="1.000000" fill="#7f0874">
<path id="arc" class="mesh2" fill-rule="evenodd" d="M -10.170279 48.066070 L -14.788613 46.851665 L -19.267234 45.194637 L -23.563833 43.110641 L -27.637813 40.619365 L -31.450693 37.744346 L -34.966445 34.512741 L -38.151863 30.955083 L -40.976844 27.104982 L -43.414699 22.998811 L -45.442409 18.675365 L -47.040805 14.175485 L -48.194793 9.541685 L -48.893466 4.817741 L -49.130229 0.048282 L -48.902843 -4.721632 L -48.213451 -9.446939 L -47.068576 -14.082999 L -45.479026 -18.586011 L -43.459819 -22.913436 L -41.030036 -27.024389 L -38.212631 -30.880035 L -35.034217 -34.443950 L -31.524820 -37.682456 L -27.717597 -40.564964 L -23.648521 -43.064247 L -19.356027 -45.156681 L -14.880671 -46.822505 L -10.264733 -48.045989 L -5.551820 -48.815563 L -0.786457 -49.123958 L 3.986335 -48.968261 L 8.721467 -48.349948 L 13.374205 -47.274860 L 17.900592 -45.753147 L 22.257867 -43.799190 L 26.404865 -41.431446 L 30.302406 -38.672286 L 33.913673 -35.547779 L 37.204544 -32.087440 L 40.143932 -28.323957 L 42.704063 -24.292890 L 44.860759 -20.032320 L 46.593643 -15.582498 L 47.886337 -10.985464 L 48.726634 -6.284646 L 47.508472 -6.127530 L 46.689182 -10.710827 L 45.428802 -15.192937 L 43.739242 -19.531513 L 41.636463 -23.685569 L 39.140331 -27.615859 L 36.274429 -31.285253 L 33.065830 -34.659084 L 29.544847 -37.705482 L 25.744743 -40.395660 L 21.701421 -42.704212 L 17.453079 -44.609321 L 13.039851 -46.092990 L 8.503431 -47.141204 L 3.886676 -47.744056 L -0.766796 -47.895858 L -5.413024 -47.595172 L -10.008115 -46.844841 L -14.508655 -45.651947 L -18.872127 -44.027767 L -23.057308 -41.987640 L -27.024658 -39.550842 L -30.736700 -36.740394 L -34.158359 -33.582851 L -37.257316 -30.108036 L -40.004287 -26.348779 L -42.373325 -22.340600 L -44.342052 -18.121362 L -45.891860 -13.730924 L -47.008117 -9.210766 L -47.680271 -4.603591 L -47.901973 0.047075 L -47.671131 4.697297 L -46.989925 9.303143 L -45.864788 13.821099 L -44.306350 18.208480 L -42.329338 22.423843 L -39.952423 26.427358 L -37.198066 30.181207 L -34.092288 33.649925 L -30.664426 36.800739 L -26.946872 39.603881 L -22.974737 42.032878 L -18.785554 44.064773 L -14.418899 45.680377 L -9.916022 46.864418 Z "></path>
</g>
<g id="0xff660e86" class="materialsolid" stroke="none" fill-opacity="1.000000" fill="#660e86">
<path id="arc" class="mesh2" fill-rule="evenodd" d="M -33.530941 43.803199 L -37.582038 40.381122 L -41.285820 36.585865 L -44.608066 32.452503 L -47.518066 28.019233 L -49.988941 23.327030 L -51.997840 18.419248 L -53.526210 13.341250 L -54.559925 8.139960 L -55.089427 2.863444 L -55.109825 -2.439532 L -54.620933 -7.719965 L -53.627269 -12.929055 L -52.138008 -18.018661 L -50.166923 -22.941751 L -47.732227 -27.652826 L -44.856414 -32.108352 L -41.566070 -36.267150 L -37.891593 -40.090789 L -33.866947 -43.543933 L -29.529321 -46.594669 L -24.918806 -49.214809 L -20.078004 -51.380134 L -15.051653 -53.070632 L -9.886204 -54.270683 L -4.629394 -54.969200 L 0.670198 -55.159725 L 5.963598 -54.840496 L 11.201886 -54.014461 L 16.336652 -52.689258 L 21.320446 -50.877136 L 26.107208 -48.594833 L 30.652702 -45.863452 L 34.914924 -42.708221 L 38.854480 -39.158313 L 42.434970 -35.246524 L 45.623302 -31.009008 L 48.390007 -26.484928 L 50.709522 -21.716087 L 52.560413 -16.746561 L 53.925571 -11.622272 L 54.792381 -6.390577 L 55.152828 -1.099825 L 53.774013 -1.072329 L 53.422573 -6.230813 L 52.577434 -11.331715 L 51.246402 -16.327896 L 49.441787 -21.173187 L 47.180259 -25.822805 L 44.482719 -30.233785 L 41.374099 -34.365364 L 37.883121 -38.179355 L 34.042053 -41.640522 L 29.886384 -44.716865 L 25.454528 -47.379962 L 20.787433 -49.605209 L 15.928236 -51.372028 L 10.921838 -52.664100 L 5.814508 -53.469482 L 0.653443 -53.780735 L -4.513659 -53.594974 L -9.639050 -52.913921 L -14.675363 -51.743869 L -19.576053 -50.095630 L -24.295835 -47.984439 L -28.791090 -45.429805 L -33.020275 -42.455337 L -36.944305 -39.088523 L -40.526916 -35.360469 L -43.735008 -31.305644 L -46.538921 -26.961507 L -48.912754 -22.368207 L -50.834560 -17.568197 L -52.286586 -12.605829 L -53.255413 -7.526967 L -53.732082 -2.378544 L -53.712196 2.791858 L -53.195926 7.936460 L -52.188056 13.007719 L -50.697898 17.958768 L -48.739219 22.743852 L -46.330120 27.318752 L -43.492866 31.641189 L -40.253677 35.671215 L -36.642486 39.371593 L -32.692668 42.708122 Z "></path>
</g>
<g id="0xff531a8b" class="materialsolid" stroke="none" fill-opacity="1.000000" fill="#531a8b">
<path id="arc" class="mesh2" fill-rule="evenodd" d="M -54.488601 27.858675 L -56.940326 22.425716 L -58.851886 16.780017 L -60.205150 10.975135 L -60.987277 5.066137 L -61.190849 -0.890920 L -60.813934 -6.839526 L -59.860107 -12.723249 L -58.338424 -18.486274 L -56.263305 -24.073928 L -53.654453 -29.433206 L -50.536602 -34.513263 L -46.939342 -39.265914 L -42.896785 -43.646068 L -38.447296 -47.612174 L -33.633075 -51.126609 L -28.499790 -54.156028 L -23.096145 -56.671699 L -17.473400 -58.649757 L -11.684891 -60.071434 L -5.785535 -60.923240 L 0.168704 -61.197101 L 6.121345 -60.890419 L 12.015915 -60.006095 L 17.796497 -58.552528 L 23.408250 -56.543498 L 28.797945 -53.998073 L 33.914447 -50.940395 L 38.709217 -47.399475 L 43.136775 -43.408893 L 47.155117 -39.006519 L 50.726123 -34.234111 L 53.815914 -29.136936 L 56.395183 -23.763357 L 58.439460 -18.164346 L 59.929347 -12.393020 L 60.850719 -6.504128 L 61.194831 -0.553534 L 60.958415 5.402310 L 59.434459 5.267253 L 59.664962 -0.539695 L 59.329452 -6.341525 L 58.431118 -12.083195 L 56.978469 -17.710239 L 54.985301 -23.169275 L 52.470516 -28.408515 L 49.457969 -33.378257 L 45.976238 -38.031356 L 42.058357 -42.323677 L 37.741489 -46.214488 L 33.066585 -49.666889 L 28.077997 -52.648124 L 22.823045 -55.129913 L 17.351585 -57.088714 L 11.715517 -58.505943 L 5.968311 -59.368156 L 0.164487 -59.667175 L -5.640897 -59.400161 L -11.392769 -58.569648 L -17.036563 -57.183517 L -22.518741 -55.254913 L -27.787298 -52.802131 L -32.792247 -49.848445 L -37.486114 -46.421871 L -41.824367 -42.554920 L -45.765857 -38.284267 L -49.273189 -33.650432 L -52.313091 -28.697376 L -54.856727 -23.472080 L -56.879962 -18.024116 L -58.363605 -12.405168 L -59.293586 -6.668538 L -59.661075 -0.868647 L -59.462596 4.939484 L -58.700019 10.700757 L -57.380592 16.360517 L -55.516819 21.865076 L -53.126388 27.162208 Z "></path>
</g>
<g id="0xff412791" class="materialsolid" stroke="none" fill-opacity="1.000000" fill="#412791">
<path id="arc" class="mesh2" fill-rule="evenodd" d="M -67.204895 1.868745 L -67.073776 -4.593342 L -66.322731 -11.012976 L -64.958702 -17.330823 L -62.994293 -23.488492 L -60.447662 -29.429069 L -57.342350 -35.097648 L -53.707054 -40.441841 L -49.575370 -45.412254 L -44.985496 -49.962944 L -39.979839 -54.051853 L -34.604671 -57.641189 L -28.909671 -60.697784 L -22.947479 -63.193382 L -16.773193 -65.104919 L -10.443881 -66.414726 L -4.018043 -67.110694 L 2.444931 -67.186401 L 8.885309 -66.641136 L 15.243564 -65.479949 L 21.460933 -63.713565 L 27.479948 -61.358314 L 33.244983 -58.435958 L 38.702751 -54.973514 L 43.802810 -51.002979 L 48.498027 -46.561050 L 52.745002 -41.688785 L 56.504486 -36.431213 L 59.741729 -30.836927 L 62.426811 -24.957632 L 64.534919 -18.847667 L 66.046562 -12.563506 L 66.947776 -6.163226 L 67.230232 0.294017 L 66.891311 6.748543 L 65.934150 13.140696 L 64.285797 12.812179 L 65.219032 6.579829 L 65.549476 0.286666 L 65.274085 -6.009145 L 64.395401 -12.249419 L 62.921546 -18.376476 L 60.866142 -24.333692 L 58.248188 -30.066005 L 55.091876 -35.520435 L 51.426380 -40.646568 L 47.285579 -45.397026 L 42.707744 -49.727905 L 37.735183 -53.599178 L 32.413860 -56.975059 L 26.792951 -59.824356 L 20.924409 -62.120731 L 14.862476 -63.842952 L 8.663176 -64.975112 L 2.383808 -65.506744 L -3.917591 -65.432929 L -10.182784 -64.754356 L -16.353862 -63.477298 L -22.373790 -61.613552 L -28.186931 -59.180343 L -33.739555 -56.200160 L -38.980342 -52.700561 L -43.860858 -48.713867 L -48.335990 -44.276947 L -52.364376 -39.430797 L -55.908794 -34.220211 L -58.936473 -28.693344 L -61.419437 -22.901281 L -63.334735 -16.897552 L -64.664665 -10.737652 L -65.396934 -4.478509 L -65.524780 1.822026 Z "></path>
</g>
<g id="0xff2f3998" class="materialsolid" stroke="none" fill-opacity="1.000000" fill="#2f3998">
<path id="arc" class="mesh2" fill-rule="evenodd" d="M -66.985412 -29.675399 L -63.770217 -36.069835 L -59.946441 -42.120044 L -55.550571 -47.768280 L -50.624546 -52.960636 L -45.215393 -57.647567 L -39.374729 -61.784339 L -33.158290 -65.331474 L -26.625406 -68.255126 L -19.838422 -70.527381 L -12.862112 -72.126556 L -5.763054 -73.037391 L 1.391003 -73.251205 L 8.531787 -72.765945 L 15.591148 -71.586242 L 22.501714 -69.723358 L 29.197538 -67.195075 L 35.614715 -64.025512 L 41.692001 -60.244926 L 47.371402 -55.889392 L 52.598716 -51.000480 L 57.324054 -45.624843 L 61.502326 -39.813793 L 65.093643 -33.622776 L 68.063751 -27.110883 L 70.384292 -20.340257 L 72.033119 -13.375514 L 72.994491 -6.283122 L 73.259254 0.869231 L 72.824867 8.013290 L 71.695480 15.080874 L 69.881858 22.004533 L 68.134819 21.454423 L 69.903091 14.703852 L 71.004249 7.812958 L 71.427780 0.847501 L 71.169639 -6.126044 L 70.232292 -13.041126 L 68.624679 -19.831750 L 66.362159 -26.433111 L 63.466308 -32.782207 L 59.964767 -38.818447 L 55.890956 -44.484226 L 51.283752 -49.725467 L 46.187122 -54.492160 L 40.649703 -58.738803 L 34.724346 -62.424877 L 28.467599 -65.515197 L 21.939172 -67.980278 L 15.201370 -69.796585 L 8.318492 -70.946800 L 1.356228 -71.419921 L -5.618978 -71.211463 L -12.540560 -70.323394 L -19.342464 -68.764198 L -25.959770 -66.548744 L -32.329330 -63.698192 L -38.390357 -60.239734 L -44.085010 -56.206382 L -49.358936 -51.636623 L -54.161804 -46.574073 L -58.447784 -41.067047 L -62.175964 -35.168090 L -65.310775 -28.933515 Z "></path>
</g>
<g id="0xff1d4ca0" class="materialsolid" stroke="none" fill-opacity="1.000000" fill="#1d4ca0">
<path id="arc" class="mesh2" fill-rule="evenodd" d="M -51.625339 -60.191276 L -45.606273 -64.870887 L -39.165630 -68.950836 L -32.362934 -72.393409 L -25.261077 -75.166770 L -17.925706 -77.245285 L -10.424629 -78.609741 L -2.827185 -79.247535 L 4.796391 -79.152763 L 12.375631 -78.326293 L 19.840471 -76.775779 L 27.121904 -74.515548 L 34.152622 -71.566497 L 40.867630 -67.955879 L 47.204860 -63.717079 L 53.105728 -58.889274 L 58.515686 -53.517101 L 63.384719 -47.650207 L 67.667823 -41.342838 L 71.325408 -34.653293 L 74.323661 -27.643415 L 76.634857 -20.378000 L 78.237648 -12.924208 L 79.117210 -5.350946 L 79.265403 2.271779 L 78.680870 9.873505 L 77.369003 17.383960 L 75.341941 24.733716 L 72.618415 31.854833 L 70.802955 31.058464 L 73.458396 24.115375 L 75.434783 16.949359 L 76.713844 9.626667 L 77.283767 2.214984 L 77.139282 -5.217173 L 76.281707 -12.601104 L 74.718994 -19.868547 L 72.465576 -26.952329 L 69.542274 -33.786964 L 65.976135 -40.309265 L 61.800106 -46.458953 L 57.052791 -52.179172 L 51.778087 -57.417045 L 46.024742 -62.124149 L 39.845943 -66.256980 L 33.298805 -69.777336 L 26.443855 -72.652664 L 19.344459 -74.856391 L 12.066241 -76.368141 L 4.676482 -77.173942 L -2.756506 -77.266349 L -10.164012 -76.644500 L -17.477563 -75.314155 L -24.629552 -73.287597 L -31.553863 -70.583572 L -38.186492 -67.227066 L -44.466121 -63.249122 L -50.334705 -58.686492 Z "></path>
</g>
<g id="0xff125f9d" class="materialsolid" stroke="none" fill-opacity="1.000000" fill="#125f9d">
<path id="arc" class="mesh2" fill-rule="evenodd" d="M -22.276048 -82.372581 L -14.423796 -84.103614 L -6.443468 -85.087867 L 1.594071 -85.316604 L 9.617457 -84.787788 L 17.555448 -83.506111 L 25.337556 -81.482955 L 32.894683 -78.736289 L 40.159732 -75.290504 L 47.068191 -71.176185 L 53.558712 -66.429878 L 59.573673 -61.093711 L 65.059661 -55.215080 L 69.967964 -48.846172 L 74.254997 -42.043548 L 77.882698 -34.867607 L 80.818855 -27.382062 L 83.037391 -19.653385 L 84.518615 -11.750201 L 85.249382 -3.742681 L 85.223182 4.298070 L 84.440269 12.300657 L 82.907577 20.194025 L 80.638725 27.908082 L 77.653854 35.374336 L 73.979469 42.526489 L 72.129989 41.463329 L 75.712509 34.489978 L 78.622756 27.210380 L 80.834884 19.689174 L 82.329254 11.993142 L 83.092605 4.190618 L 83.118148 -3.649114 L 82.405654 -11.456446 L 80.961456 -19.162052 L 78.798385 -26.697511 L 75.935630 -33.995918 L 72.398620 -40.992462 L 68.218765 -47.625022 L 63.433170 -53.834701 L 58.084331 -59.566371 L 52.219745 -64.769126 L 45.891487 -69.396789 L 39.155738 -73.408248 L 32.072319 -76.767890 L 24.704118 -79.445884 L 17.116561 -81.418457 L 9.377021 -82.668098 L 1.554219 -83.183692 L -6.282382 -82.960678 L -14.063200 -82.001029 L -21.719146 -80.313270 Z "></path>
</g>
<g id="0xff137183" class="materialsolid" stroke="none" fill-opacity="1.000000" fill="#137183">
<path id="arc" class="mesh2" fill-rule="evenodd" d="M 16.421274 -89.877189 L 24.977901 -87.884429 L 33.303565 -85.079032 L 41.321281 -81.486930 L 48.956920 -77.141349 L 56.139865 -72.082481 L 62.803710 -66.357086 L 68.886833 -60.018104 L 74.332977 -53.124168 L 79.091789 -45.739002 L 83.119277 -37.930912 L 86.378189 -29.772081 L 88.838394 -21.337965 L 90.477134 -12.706541 L 91.279273 -3.957623 L 91.237380 4.827887 L 90.351852 13.568756 L 88.630874 22.184160 L 86.090354 30.594436 L 82.753791 38.721813 L 78.652030 46.491146 L 73.822998 53.830593 L 71.977432 52.484828 L 76.685729 45.328868 L 80.684944 37.753772 L 83.938095 29.829576 L 86.415100 21.629556 L 88.093055 13.229537 L 88.956451 4.707190 L 88.997291 -3.858683 L 88.215209 -12.388876 L 86.617431 -20.804515 L 84.218734 -29.027782 L 81.041297 -36.982639 L 77.114501 -44.595531 L 72.474655 -51.796062 L 67.164657 -58.517658 L 61.233619 -64.698158 L 54.736370 -70.280418 L 47.732997 -75.212821 L 40.288249 -79.449760 L 32.470973 -82.952056 L 24.353452 -85.687316 L 16.010742 -87.630271 Z "></path>
</g>
<g id="0xff158368" class="materialsolid" stroke="none" fill-opacity="1.000000" fill="#158368">
<path id="arc" class="mesh2" fill-rule="evenodd" d="M 57.030460 -78.955741 L 64.155525 -73.284034 L 70.719726 -66.971656 L 76.665664 -60.073776 L 81.941360 -52.650703 L 86.500679 -44.767337 L 90.303779 -36.492595 L 93.317405 -27.898820 L 95.515205 -19.061141 L 96.877983 -10.056823 L 97.393798 -0.964583 L 97.058158 8.136090 L 95.874000 17.165634 L 93.851661 26.045106 L 91.008834 34.696884 L 87.370368 43.045326 L 82.968078 51.017452 L 77.840446 58.543552 L 72.032295 65.557846 L 70.231483 63.918899 L 75.894432 57.079967 L 80.893882 49.742015 L 85.186119 41.969196 L 88.733619 33.829463 L 91.505371 25.393981 L 93.477149 16.736494 L 94.631706 7.932687 L 94.958953 -0.940468 L 94.456031 -9.805403 L 93.127334 -18.584613 L 90.984474 -27.201353 L 88.046188 -35.580284 L 84.338165 -43.648155 L 79.892822 -51.334438 L 74.749031 -58.571929 L 68.951736 -65.297363 L 62.551647 -71.451942 L 55.604698 -76.981849 Z "></path>
</g>
<g id="0xff0d9253" class="materialsolid" stroke="none" fill-opacity="1.000000" fill="#0d9253">
<path id="arc" class="mesh2" fill-rule="evenodd" d="M 90.749061 -49.626712 L 95.097167 -40.678390 L 98.565444 -31.353710 L 101.121810 -21.738950 L 102.742607 -11.923064 L 103.412834 -1.996867 L 103.126304 7.947804 L 101.885658 17.818943 L 99.702377 27.525222 L 96.596664 36.976844 L 92.597244 46.086357 L 87.741127 54.769489 L 82.073242 62.945896 L 75.646018 70.539932 L 68.518928 77.481346 L 66.805961 75.544311 L 73.754867 68.776435 L 80.021415 61.372245 L 85.547599 53.400253 L 90.282318 44.934200 L 94.181747 36.052425 L 97.209815 26.837095 L 99.338516 17.373470 L 100.548149 7.749109 L 100.827514 -1.946945 L 100.174041 -11.624987 L 98.593765 -21.195476 L 96.101310 -30.569868 L 92.719734 -39.661430 L 88.480331 -48.386047 Z "></path>
</g>
<g id="0xff04a13e" class="materialsolid" stroke="none" fill-opacity="1.000000" fill="#04a13e">
<path id="arc" class="mesh2" fill-rule="evenodd" d="M 109.296501 -6.083049 L 109.393630 3.970222 L 108.567993 13.990005 L 106.826553 23.891778 L 104.183998 33.592018 L 100.662628 43.008899 L 96.292129 52.062988 L 91.109382 60.677909 L 85.158103 68.780998 L 78.488494 76.303901 L 71.156814 83.183158 L 63.224903 89.360740 L 61.644283 87.126716 L 69.377891 81.103576 L 76.526283 74.396301 L 83.029159 67.061477 L 88.831649 59.160964 L 93.884826 50.761413 L 98.146057 41.933677 L 101.579399 32.752216 L 104.155891 23.294486 L 105.853797 13.640255 L 106.658798 3.870967 L 106.564086 -5.930974 Z "></path>
</g>
<g id="0xff1bb22e" class="materialsolid" stroke="none" fill-opacity="1.000000" fill="#1bb22e">
<path id="arc" class="mesh2" fill-rule="evenodd" d="M 106.860084 43.829025 L 102.150444 53.901271 L 96.494125 63.473979 L 89.943519 72.458435 L 82.559356 80.771369 L 74.410057 88.335754 L 65.571151 95.081466 L 56.124561 100.945999 L 54.721446 98.422348 L 63.931873 92.704429 L 72.549804 86.127365 L 80.495368 78.752098 L 87.694931 70.646980 L 94.081771 61.887130 L 99.596694 52.553741 L 104.188591 42.733299 Z "></path>
</g>
<g id="0xff50c423" class="materialsolid" stroke="none" fill-opacity="1.000000" fill="#50c423">
<path id="arc" class="mesh2" fill-rule="evenodd" d="M 81.655021 90.014785 L 73.775077 96.578689 L 65.369789 102.454849 L 56.498996 107.601425 L 47.225879 111.981788 L 46.045234 109.182243 L 55.086521 104.911399 L 63.735538 99.893478 L 71.930702 94.164215 L 79.613639 87.764419 Z "></path>
</g>
<g id="0xff85d519" class="materialsolid" stroke="none" fill-opacity="1.000000" fill="#85d519">
<path id="polygon" class="mesh2" fill-rule="evenodd" d="M 127.566268 0.0 L 126.952003 12.503675 L 123.778205 12.191083 L 124.377113 0.000000 Z M 126.952003 12.503675 L 125.115112 24.886947 L 121.987236 24.264776 L 123.778205 12.191083 Z M 125.115112 24.886947 L 122.073310 37.030536 L 119.021484 36.104774 L 121.987236 24.264776 Z M 122.073310 37.030536 L 117.855857 48.817493 L 114.909469 47.597057 L 119.021484 36.104774 Z M 117.855857 48.817493 L 112.503410 60.134323 L 109.690826 58.630966 L 114.909469 47.597057 Z M 112.503410 60.134323 L 106.067474 70.872024 L 103.415794 69.100219 L 109.690826 58.630966 Z M 106.067474 70.872024 L 98.610061 80.927185 L 96.144813 78.903999 L 103.415794 69.100219 Z M 98.610061 80.927185 L 90.202980 90.202980 L 87.947906 87.947906 L 96.144813 78.903999 Z M 90.202980 90.202980 L 80.927185 98.610061 L 78.903999 96.144813 L 87.947906 87.947906 Z M 80.927185 98.610061 L 70.872024 106.067474 L 69.100219 103.415794 L 78.903999 96.144813 Z M 70.872024 106.067474 L 60.134323 112.503410 L 58.630966 109.690826 L 69.100219 103.415794 Z M 60.134323 112.503410 L 48.817493 117.855857 L 47.597057 114.909469 L 58.630966 109.690826 Z M 48.817493 117.855857 L 37.030536 122.073310 L 36.104774 119.021484 L 47.597057 114.909469 Z M 37.030536 122.073310 L 24.886947 125.115112 L 24.264776 121.987236 L 36.104774 119.021484 Z M 24.886947 125.115112 L 12.503675 126.952003 L 12.191083 123.778205 L 24.264776 121.987236 Z M 12.503675 126.952003 L 0.0 127.566268 L -0.000000 124.377113 L 12.191083 123.778205 Z M 0.0 127.566268 L -12.503675 126.952003 L -12.191083 123.778205 L -0.000000 124.377113 Z M -12.503675 126.952003 L -24.886947 125.115112 L -24.264776 121.987236 L -12.191083 123.778205 Z M -24.886947 125.115112 L -37.030536 122.073310 L -36.104774 119.021484 L -24.264776 121.987236 Z M -37.030536 122.073310 L -48.817493 117.855857 L -47.597057 114.909469 L -36.104774 119.021484 Z M -48.817493 117.855857 L -60.134323 112.503410 L -58.630966 109.690826 L -47.597057 114.909469 Z M -60.134323 112.503410 L -70.872024 106.067474 L -69.100219 103.415794 L -58.630966 109.690826 Z M -70.872024 106.067474 L -80.927185 98.610061 L -78.903999 96.144813 L -69.100219 103.415794 Z M -80.927185 98.610061 L -90.202980 90.202980 L -87.947906 87.947906 L -78.903999 96.144813 Z M -90.202980 90.202980 L -98.610061 80.927185 L -96.144813 78.903999 L -87.947906 87.947906 Z M -98.610061 80.927185 L -106.067474 70.872024 L -103.415794 69.100219 L -96.144813 78.903999 Z M -106.067474 70.872024 L -112.503410 60.134323 L -109.690826 58.630966 L -103.415794 69.100219 Z M -112.503410 60.134323 L -117.855857 48.817493 L -114.909469 47.597057 L -109.690826 58.630966 Z M -117.855857 48.817493 L -122.073310 37.030536 L -119.021484 36.104774 L -114.909469 47.597057 Z M -122.073310 37.030536 L -125.115112 24.886947 L -121.987236 24.264776 L -119.021484 36.104774 Z M -125.115112 24.886947 L -126.952003 12.503675 L -123.778205 12.191083 L -121.987236 24.264776 Z M -126.952003 12.503675 L -127.566268 0.0 L -124.377113 0.000000 L -123.778205 12.191083 Z M -127.566268 0.0 L -126.952003 -12.503675 L -123.778205 -12.191083 L -124.377113 0.000000 Z M -126.952003 -12.503675 L -125.115112 -24.886947 L -121.987236 -24.264776 L -123.778205 -12.191083 Z M -125.115112 -24.886947 L -122.073310 -37.030536 L -119.021484 -36.104774 L -121.987236 -24.264776 Z M -122.073310 -37.030536 L -117.855857 -48.817493 L -114.909469 -47.597057 L -119.021484 -36.104774 Z M -117.855857 -48.817493 L -112.503410 -60.134323 L -109.690826 -58.630966 L -114.909469 -47.597057 Z M -112.503410 -60.134323 L -106.067474 -70.872024 L -103.415794 -69.100219 L -109.690826 -58.630966 Z M -106.067474 -70.872024 L -98.610061 -80.927185 L -96.144813 -78.903999 L -103.415794 -69.100219 Z M -98.610061 -80.927185 L -90.202980 -90.202980 L -87.947906 -87.947906 L -96.144813 -78.903999 Z M -90.202980 -90.202980 L -80.927185 -98.610061 L -78.903999 -96.144813 L -87.947906 -87.947906 Z M -80.927185 -98.610061 L -70.872024 -106.067474 L -69.100219 -103.415794 L -78.903999 -96.144813 Z M -70.872024 -106.067474 L -60.134323 -112.503410 L -58.630966 -109.690826 L -69.100219 -103.415794 Z M -60.134323 -112.503410 L -48.817493 -117.855857 L -47.597057 -114.909469 L -58.630966 -109.690826 Z M -48.817493 -117.855857 L -37.030536 -122.073310 L -36.104774 -119.021484 L -47.597057 -114.909469 Z M -37.030536 -122.073310 L -24.886947 -125.115112 L -24.264776 -121.987236 L -36.104774 -119.021484 Z M -24.886947 -125.115112 L -12.503675 -126.952003 L -12.191083 -123.778205 L -24.264776 -121.987236 Z M -12.503675 -126.952003 L 0.0 -127.566268 L -0.000000 -124.377113 L -12.191083 -123.778205 Z M 0.0 -127.566268 L 12.503675 -126.952003 L 12.191083 -123.778205 L -0.000000 -124.377113 Z M 12.503675 -126.952003 L 24.886947 -125.115112 L 24.264776 -121.987236 L 12.191083 -123.778205 Z M 24.886947 -125.115112 L 37.030536 -122.073310 L 36.104774 -119.021484 L 24.264776 -121.987236 Z M 37.030536 -122.073310 L 48.817493 -117.855857 L 47.597057 -114.909469 L 36.104774 -119.021484 Z M 48.817493 -117.855857 L 60.134323 -112.503410 L 58.630966 -109.690826 L 47.597057 -114.909469 Z M 60.134323 -112.503410 L 70.872024 -106.067474 L 69.100219 -103.415794 L 58.630966 -109.690826 Z M 70.872024 -106.067474 L 80.927185 -98.610061 L 78.903999 -96.144813 L 69.100219 -103.415794 Z M 80.927185 -98.610061 L 90.202980 -90.202980 L 87.947906 -87.947906 L 78.903999 -96.144813 Z M 90.202980 -90.202980 L 98.610061 -80.927185 L 96.144813 -78.903999 L 87.947906 -87.947906 Z M 98.610061 -80.927185 L 106.067474 -70.872024 L 103.415794 -69.100219 L 96.144813 -78.903999 Z M 106.067474 -70.872024 L 112.503410 -60.134323 L 109.690826 -58.630966 L 103.415794 -69.100219 Z M 112.503410 -60.134323 L 117.855857 -48.817493 L 114.909469 -47.597057 L 109.690826 -58.630966 Z M 117.855857 -48.817493 L 122.073310 -37.030536 L 119.021484 -36.104774 L 114.909469 -47.597057 Z M 122.073310 -37.030536 L 125.115112 -24.886947 L 121.987236 -24.264776 L 119.021484 -36.104774 Z M 125.115112 -24.886947 L 126.952003 -12.503675 L 123.778205 -12.191083 L 121.987236 -24.264776 Z M 126.952003 -12.503675 L 127.566268 0.0 L 124.377113 0.000000 L 123.778205 -12.191083 Z "></path>
</g>
<g id="0xffb9e70e" class="materialsolid" stroke="none" fill-opacity="1.000000" fill="#b9e70e">
<path id="arc" class="mesh2" fill-rule="evenodd" d="M -20.349935 132.040863 L -33.107593 129.432586 L -45.550735 125.594741 L -57.561157 120.563766 L -69.024757 114.387458 L -79.832641 107.124496 L -89.882125 98.843872 L -99.077758 89.624259 L -107.332160 79.553222 L -114.566932 68.726455 L -120.713348 57.246795 L -125.713012 45.223308 L -129.518417 32.770206 L -132.093444 20.005794 L -133.413589 7.051331 L -133.466354 -5.970117 L -132.251190 -18.934850 L -129.779693 -31.719707 L -126.075302 -44.203231 L -121.173225 -56.266841 L -115.120033 -67.795921 L -107.973213 -78.680953 L -99.800689 -88.818534 L -90.680061 -98.112358 L -80.697998 -106.474143 L -69.949317 -113.824432 L -58.536136 -120.093421 L -46.566871 -125.221542 L -34.155235 -129.160079 L -21.419128 -131.871643 L -8.479544 -133.330444 L 4.540593 -133.522628 L 17.517597 -132.446380 L 30.328186 -130.111923 L 42.850662 -126.541412 L 54.966068 -121.768798 L 66.559310 -115.839401 L 77.520248 -108.809555 L 87.744758 -100.746040 L 97.135719 -91.725463 L 105.603904 -81.833511 L 113.068878 -71.164161 L 119.459716 -59.818759 L 124.715713 -47.905097 L 128.786941 -35.536346 L 131.634719 -22.830005 L 133.231994 -9.906785 L 133.563598 3.110548 L 132.626373 16.098331 L 130.429214 28.933183 L 126.993011 41.493175 L 122.350402 53.658992 L 116.545486 65.315063 L 109.633422 76.350646 L 101.679855 86.660926 L 92.760353 96.147933 L 82.959648 104.721557 L 72.370841 112.300354 L 61.094528 118.812324 L 49.237831 124.195594 L 36.913383 128.399032 L 24.238265 131.382705 L 23.632308 128.098144 L 35.990550 125.189064 L 48.006885 121.090705 L 59.567169 115.842010 L 70.561569 109.492851 L 80.885658 102.103523 L 90.441352 93.744239 L 99.137863 84.494400 L 106.892585 74.441886 L 113.631858 63.682186 L 119.291648 52.317520 L 123.818183 40.455848 L 127.168479 28.209854 L 129.310714 15.695873 L 130.224502 3.032784 L 129.901199 -9.659115 L 128.343856 -22.259256 L 125.567268 -34.647941 L 121.597831 -46.707469 L 116.473228 -58.323291 L 110.242156 -69.385055 L 102.963806 -79.787681 L 94.707321 -89.432327 L 85.551147 -98.227394 L 75.582244 -106.089317 L 64.895324 -112.943420 L 53.591915 -118.724586 L 41.779396 -123.377876 L 29.569980 -126.859123 L 17.079656 -129.135223 L 4.427078 -130.184570 L -8.267556 -129.997177 L -20.883649 -128.574844 L -33.301353 -125.931091 L -45.402702 -122.091003 L -57.072734 -117.091079 L -68.200584 -110.978828 L -78.680549 -103.812286 L -88.413063 -95.659553 L -97.305664 -86.598075 L -105.273895 -76.713928 L -112.242027 -66.101020 L -118.143898 -54.860172 L -122.923431 -43.098155 L -126.535202 -30.926717 L -128.944915 -18.461481 L -130.129684 -5.820864 L -130.078262 6.875048 L -128.791107 19.505649 L -126.280471 31.950952 L -122.570190 44.092727 L -117.695518 55.815628 L -111.702766 67.008293 L -104.648864 77.564399 L -96.600814 87.383651 L -87.635070 96.372779 L -77.836822 104.446388 L -67.299140 111.527770 L -56.122131 117.549674 L -44.411972 122.454872 L -32.279903 126.196784 L -19.841186 128.739837 Z "></path>
</g>
<g id="0xffeef904" class="materialsolid" stroke="none" fill-opacity="1.000000" fill="#eef904">
<path id="arc" class="mesh2" fill-rule="evenodd" d="M -78.582542 115.422073 L -89.364418 107.291526 L -99.310493 98.157516 L -108.327728 88.105468 L -116.331825 77.229385 L -123.247894 65.631004 L -129.011245 53.418788 L -133.568023 40.706966 L -136.875549 27.614419 L -138.902923 14.263603 L -139.631179 0.779384 L -139.053482 -12.712123 L -137.175277 -26.084739 L -134.014114 -39.213390 L -129.599548 -51.975292 L -123.972854 -64.251083 L -117.186698 -75.925949 L -109.304519 -86.890701 L -100.400047 -97.042785 L -90.556556 -106.287254 L -79.866119 -114.537651 L -68.428710 -121.716812 L -56.351318 -127.757583 L -43.746875 -132.603485 L -30.733287 -136.209167 L -17.432256 -138.540924 L -3.968186 -139.576950 L 9.532996 -139.307556 L 22.945020 -137.735244 L 36.142444 -134.874740 L 49.001838 -130.752792 L 61.402935 -125.407943 L 73.229743 -118.890182 L 84.371650 -111.260482 L 94.724464 -102.590194 L 104.191337 -92.960403 L 112.683731 -82.461189 L 120.122230 -71.190727 L 126.437271 -59.254440 L 131.569763 -46.763969 L 135.471725 -33.836120 L 138.106658 -20.591814 L 139.449905 -7.154918 L 139.488937 6.348895 L 138.223358 19.793329 L 135.665008 33.052642 L 131.837829 46.002822 L 126.777595 58.522750 L 120.531654 70.495330 L 113.158409 81.808593 L 104.726821 92.356719 L 95.315765 102.041061 L 85.013236 110.771026 L 73.915611 118.464996 L 62.126659 125.050987 L 49.756664 130.467407 L 36.921306 134.663619 L 23.740629 137.600341 L 10.337917 139.250137 L 10.079469 135.768875 L 23.147115 134.160339 L 35.998271 131.297027 L 48.512744 127.205734 L 60.573497 121.924720 L 72.067718 115.503372 L 82.887908 108.001754 L 92.932876 99.490028 L 102.108657 90.047798 L 110.329452 79.763381 L 117.518363 68.732955 L 123.608161 57.059688 L 128.541885 44.852752 L 132.273376 32.226329 L 134.767776 19.298498 L 136.001708 6.190173 L 135.963668 -6.976046 L 134.653991 -20.077020 L 132.084930 -32.990219 L 128.280517 -45.594867 L 123.276336 -57.773082 L 117.119186 -69.410964 L 109.866638 -80.399658 L 101.586547 -90.636398 L 92.356353 -100.025444 L 82.262367 -108.478973 L 71.399002 -115.917930 L 59.867862 -122.272743 L 47.776794 -127.483970 L 35.238883 -131.502868 L 22.371395 -134.291870 L 9.294672 -135.824874 L -3.868982 -136.087524 L -16.996450 -135.077407 L -29.964956 -132.803939 L -42.653205 -129.288391 L -54.942535 -124.563652 L -66.717994 -118.673889 L -77.869468 -111.674217 L -88.292648 -103.630081 L -97.890045 -94.616714 L -106.571907 -84.718429 L -114.257034 -74.027801 L -120.873542 -62.644802 L -126.359550 -50.675910 L -130.663757 -38.233055 L -133.745895 -25.432621 L -135.577163 -12.394321 L -136.140396 0.759900 L -135.430343 13.907014 L -133.453659 26.924060 L -130.228820 39.689292 L -125.785980 52.083320 L -120.166702 63.990230 L -113.423530 75.298660 L -105.619544 85.902832 L -96.827728 95.703582 L -87.130310 104.609245 L -76.617980 112.536529 Z "></path>
</g>
<g id="0xfffff200" class="materialsolid" stroke="none" fill-opacity="1.000000" fill="#fff200">
<path id="arc" class="mesh2" fill-rule="evenodd" d="M -125.812881 73.416381 L -132.373184 60.796245 L -137.671432 47.596466 L -141.657073 33.942890 L -144.292129 19.965694 L -145.551452 5.798139 L -145.423065 -8.424695 L -143.908187 -22.567209 L -141.021255 -36.494560 L -136.789779 -50.073959 L -131.254135 -63.175945 L -124.467063 -75.675598 L -116.493293 -87.453742 L -107.408866 -98.398071 L -97.300361 -108.404266 L -86.264175 -117.376899 L -74.405532 -125.230438 L -61.837490 -131.889999 L -48.679866 -137.292083 L -35.058124 -141.385192 L -21.102125 -144.130310 L -6.944935 -145.501251 L 7.278469 -145.484939 L 21.432481 -144.081558 L 35.382148 -141.304458 L 48.994476 -137.180130 L 62.139675 -131.747894 L 74.692420 -125.059539 L 86.533027 -117.178833 L 97.548622 -108.180923 L 107.634147 -98.151588 L 116.693481 -87.186462 L 124.640213 -75.390068 L 131.398605 -62.874889 L 136.904220 -49.760246 L 141.104537 -36.171180 L 143.959548 -22.237247 L 145.442001 -8.091300 L 145.537780 6.131791 L 144.245971 20.296421 L 141.578887 34.267539 L 137.561950 47.911945 L 132.233474 61.099544 L 125.644248 73.704612 L 117.857093 85.606956 L 108.946273 96.693099 L 98.996726 106.857353 L 88.103324 116.002807 L 76.369911 124.042259 L 63.908386 130.899063 L 50.837535 136.507843 L 37.281990 140.815124 L 23.370990 143.779846 L 9.237163 145.373733 L -4.984732 145.581588 L -4.860113 141.942047 L 9.006235 141.739395 L 22.786714 140.185348 L 36.349941 137.294754 L 49.566600 133.095153 L 62.310676 127.626586 L 74.460678 120.941207 L 85.900741 113.102737 L 96.521812 104.185928 L 106.222610 94.275772 L 114.910675 83.466781 L 122.503143 71.861991 L 128.927642 59.572059 L 134.122909 46.714145 L 138.039413 33.410854 L 140.639831 19.789011 L 141.899337 5.978496 L 141.805953 -7.889018 L 140.360565 -21.681316 L 137.576934 -35.266902 L 133.481613 -48.516242 L 128.113647 -61.303016 L 121.524215 -73.505310 L 113.776138 -85.006797 L 104.943305 -95.697807 L 95.109901 -105.476402 L 84.369705 -114.249366 L 72.825111 -121.933052 L 60.586185 -128.454193 L 47.769615 -133.750625 L 34.497592 -137.771850 L 20.896669 -140.479522 L 7.096507 -141.847824 L -6.771312 -141.863723 L -20.574573 -140.527053 L -34.181671 -137.850570 L -47.462875 -133.859786 L -60.291553 -128.592742 L -72.545394 -122.099678 L -84.107574 -114.442481 L -94.867858 -105.694160 L -104.723648 -95.938125 L -113.580970 -85.267402 L -121.355392 -73.783706 L -127.972770 -61.596549 L -133.370040 -48.822113 L -137.495727 -35.582195 L -140.310485 -22.003028 L -141.787490 -8.214077 L -141.912673 5.653185 L -140.684814 19.466552 L -138.115646 33.094318 L -134.229644 46.406558 L -129.063873 59.276344 L -122.667556 71.580978 Z "></path>
</g>
<g id="0xffffde00" class="materialsolid" stroke="none" fill-opacity="1.000000" fill="#ffde00">
<path id="arc" class="mesh2" fill-rule="evenodd" d="M -151.173156 12.636971 L -151.686737 -2.037503 L -150.779190 -16.692890 L -148.459045 -31.191884 L -144.747985 -45.398651 L -139.680831 -59.180080 L -133.305038 -72.407073 L -125.680343 -84.955688 L -116.878166 -96.708389 L -106.980995 -107.555038 L -96.081535 -117.394027 L -84.281906 -126.133178 L -71.692657 -133.690612 L -58.431743 -139.995529 L -44.623390 -144.988876 L -30.396966 -148.623825 L -15.885765 -150.866363 L -1.225731 -151.695465 L 13.445784 -151.103378 L 27.991331 -149.095611 L 42.274631 -145.691024 L 56.161872 -140.921478 L 69.522941 -134.831665 L 82.232666 -127.478652 L 94.171974 -118.931312 L 105.229003 -109.269737 L 115.300163 -98.584442 L 124.291107 -86.975517 L 132.117584 -74.551742 L 138.706283 -61.429508 L 143.995483 -47.731754 L 147.935607 -33.586814 L 150.489761 -19.127206 L 151.634017 -4.488399 L 151.357635 10.192458 L 149.663208 24.777824 L 146.566635 39.131053 L 142.096908 53.117675 L 136.295913 66.606643 L 129.217971 79.471588 L 120.929420 91.591987 L 111.507919 102.854278 L 101.041717 113.152946 L 89.628875 122.391517 L 77.376327 130.483413 L 64.398857 137.352859 L 50.818038 142.935455 L 36.761123 147.178939 L 22.359798 150.043518 L 7.748990 151.502380 L -6.934415 151.541854 L -21.552856 150.161560 L -21.014034 146.407531 L -6.761055 147.753311 L 7.555266 147.714828 L 21.800804 146.292434 L 35.842094 143.499465 L 49.547588 139.362075 L 62.788879 133.919036 L 75.441925 127.221336 L 87.388160 119.331733 L 98.515670 110.324127 L 108.720222 100.282928 L 117.906196 89.302185 L 125.987525 77.484809 L 132.888519 64.941482 L 138.544479 51.789733 L 142.902481 38.152778 L 145.921646 24.158382 L 147.573699 9.937646 L 147.843170 -4.376189 L 146.727523 -18.649026 L 144.237228 -32.747146 L 140.395599 -46.538463 L 135.238632 -59.893775 L 128.814651 -72.687950 L 121.183830 -84.801124 L 112.417663 -96.119827 L 102.598274 -106.537994 L 91.817672 -115.958030 L 80.176849 -124.291694 L 67.784873 -131.460876 L 54.757827 -137.398437 L 41.217769 -142.048751 L 27.291549 -145.368225 L 13.109641 -147.325790 L -1.195088 -147.903091 L -15.488620 -147.094711 L -29.637042 -144.908233 L -43.507804 -141.364151 L -56.970951 -136.495651 L -69.900344 -130.348358 L -82.174865 -122.979850 L -93.679496 -114.459175 L -104.306472 -104.866157 L -113.956222 -94.290679 L -122.538337 -82.831802 L -129.972427 -70.596893 L -136.188827 -57.700580 L -141.129302 -44.263683 L -144.747573 -30.412086 L -147.009719 -16.275568 L -147.894577 -1.986566 L -147.393844 12.321047 Z "></path>
</g>
<g id="0xffffcb00" class="materialsolid" stroke="none" fill-opacity="1.000000" fill="#ffcb00">
<path id="arc" class="mesh2" fill-rule="evenodd" d="M -147.543151 -55.776542 L -141.384033 -69.932518 L -133.870605 -83.418617 L -125.074813 -96.105644 L -115.080932 -107.872070 L -103.984680 -118.605178 L -91.892364 -128.202178 L -78.919799 -136.571105 L -65.191261 -143.631835 L -50.838256 -149.316696 L -35.998268 -153.571243 L -20.813453 -156.354736 L -5.429264 -157.640502 L 10.006932 -157.416213 L 25.347270 -155.684036 L 40.444808 -152.460556 L 55.154922 -147.776641 L 69.336708 -141.677185 L 82.854316 -134.220581 L 95.578254 -125.478286 L 107.386650 -115.534027 L 118.166374 -104.483062 L 127.814186 -92.431251 L 136.237670 -79.494033 L 143.356124 -65.795349 L 149.101348 -51.466396 L 153.418334 -36.644451 L 156.265731 -21.471488 L 157.616241 -6.092847 L 157.456939 9.344156 L 155.789352 24.691652 L 152.629470 39.802623 L 148.007522 54.532329 L 141.967819 68.739662 L 134.568191 82.288543 L 125.879539 95.049163 L 115.985076 106.899322 L 104.979591 117.725486 L 92.968498 127.423942 L 80.066864 135.901809 L 66.398254 143.077865 L 52.093624 148.883361 L 37.289981 153.262710 L 22.129140 156.173950 L 6.756322 157.589202 L -8.681215 157.494888 L -24.035593 155.891937 L -39.159736 152.795669 L -38.180744 148.975784 L -23.434705 151.994628 L -8.464184 153.557525 L 6.587414 153.649475 L 21.575912 152.269607 L 36.357734 149.431152 L 50.791286 145.161285 L 64.738304 139.500915 L 78.065193 132.504257 L 90.644294 124.238342 L 102.355102 114.782348 L 113.085456 104.226837 L 122.732551 92.672943 L 131.203994 80.231323 L 138.418624 67.021171 L 144.307342 53.169021 L 148.813735 38.807559 L 151.894622 24.074361 L 153.520523 9.110552 L 153.675842 -5.940526 L 152.359085 -20.934700 L 149.582885 -35.728340 L 145.373825 -50.179737 L 139.772216 -64.150459 L 132.831726 -77.506683 L 124.618843 -90.120468 L 115.212219 -101.870986 L 104.701980 -112.645683 L 93.188796 -122.341331 L 80.782958 -130.865081 L 67.603294 -138.135253 L 53.776054 -144.082229 L 39.433689 -148.649047 L 24.713590 -151.791931 L 9.756759 -153.480819 L -5.293532 -153.699493 L -20.293117 -152.445861 L -35.098312 -149.731964 L -49.567298 -145.583786 L -63.561485 -140.041030 L -76.946807 -133.156829 L -89.595054 -124.997116 L -101.385070 -115.640052 L -112.203910 -105.175270 L -121.947944 -93.703002 L -130.523834 -81.333152 L -137.849441 -68.184211 L -143.854568 -54.382129 Z "></path>
</g>
<g id="0xffffb800" class="materialsolid" stroke="none" fill-opacity="1.000000" fill="#ffb800">
<path id="arc" class="mesh2" fill-rule="evenodd" d="M -113.360588 -118.191253 L -101.388854 -128.608306 L -88.465095 -137.817703 L -74.710639 -145.733016 L -60.254665 -152.279907 L -45.232891 -157.396881 L -29.786386 -161.035919 L -14.060188 -163.162811 L 1.798035 -163.757629 L 17.639375 -162.814758 L 33.315082 -160.343063 L 48.677963 -156.365753 L 63.583755 -150.920181 L 77.892501 -144.057464 L 91.469841 -135.842056 L 104.188278 -126.351089 L 115.928390 -115.673698 L 126.579940 -103.910125 L 136.042907 -91.170837 L 144.228439 -77.575469 L 151.059661 -63.251663 L 156.472442 -48.333927 L 160.415954 -32.962337 L 162.853164 -17.281230 L 163.761184 -1.437854 L 163.131500 14.419022 L 160.970016 30.140504 L 157.297012 45.578968 L 152.147018 60.589447 L 145.568344 75.030990 L 137.622802 88.767997 L 128.384979 101.671485 L 117.941635 113.620269 L 106.390815 124.502159 L 93.840988 134.214996 L 80.410003 142.667541 L 66.223960 149.780441 L 51.416088 155.486907 L 36.125415 159.733367 L 20.495527 162.479934 L 4.673183 163.700805 L -11.193040 163.384552 L -26.954160 161.534103 L -42.462184 158.166870 L -57.571487 153.314437 L -56.132202 149.481582 L -41.400627 154.212692 L -26.280307 157.495758 L -10.913214 159.299942 L 4.556353 159.608291 L 19.983137 158.417938 L 35.222282 155.740036 L 50.130687 151.599746 L 64.568367 146.035934 L 78.399757 139.100860 L 91.494964 130.859619 L 103.731048 121.389610 L 114.993095 110.779769 L 125.175369 99.129699 L 134.182235 86.548805 L 141.929138 73.155220 L 148.343338 59.074710 L 153.364593 44.439498 L 156.945770 29.386993 L 159.053222 14.058547 L 159.667175 -1.401908 L 158.781845 -16.849199 L 156.405563 -32.138278 L 152.560638 -47.125579 L 147.283172 -61.670368 L 140.622726 -75.636085 L 132.641830 -88.891563 L 123.415443 -101.312377 L 113.030189 -112.781852 L 101.583572 -123.192306 L 89.183097 -132.445999 L 75.945190 -140.456039 L 61.994163 -147.147171 L 47.461017 -152.456619 L 32.482208 -156.334487 L 17.198392 -158.744400 L 1.753084 -159.663696 L -13.708683 -159.083755 L -29.041728 -157.010025 L -44.102073 -153.461959 L -58.748298 -148.472915 L -72.842880 -142.089706 L -86.253463 -134.372268 L -98.854141 -125.393096 L -110.526580 -115.236473 Z "></path>
</g>
<g id="0xffffa500" class="materialsolid" stroke="none" fill-opacity="1.000000" fill="#ffa500">
<path id="arc" class="mesh2" fill-rule="evenodd" d="M -53.367309 -161.196548 L -37.699325 -165.563156 L -21.685428 -168.410629 L -5.472560 -169.712844 L 10.790523 -169.457855 L 26.954599 -167.647994 L 42.871349 -164.299865 L 58.394733 -159.444198 L 73.382316 -153.125549 L 87.696563 -145.401885 L 101.206169 -136.344085 L 113.787132 -126.035255 L 125.324058 -114.569976 L 135.711044 -102.053459 L 144.852828 -88.600547 L 152.665496 -74.334678 L 159.077377 -59.386745 L 164.029647 -43.893909 L 167.476837 -27.998323 L 169.387359 -11.845834 L 169.743637 4.415346 L 168.542434 20.636013 L 165.794769 36.667331 L 161.525833 52.362209 L 155.774826 67.576637 L 148.594497 82.171005 L 140.050735 96.011421 L 130.221923 108.970878 L 119.198249 120.930458 L 107.080871 131.780441 L 93.980979 141.421264 L 80.018745 149.764480 L 65.322303 156.733520 L 50.026493 162.264450 L 34.271667 166.306503 L 18.202375 168.822601 L 1.966067 169.789672 L -14.288280 169.198837 L -30.411523 167.055496 L -46.255729 163.379333 L -61.675510 158.204071 L -76.529380 151.577209 L -74.616149 147.787780 L -60.133621 154.248977 L -45.099338 159.294845 L -29.651237 162.879104 L -13.931074 164.968856 L 1.916915 165.544937 L 17.747316 164.602050 L 33.414875 162.148849 L 48.775836 158.207839 L 63.689250 152.815170 L 78.018280 146.020370 L 91.631454 137.885742 L 104.403854 128.485931 L 116.218292 117.907203 L 126.966369 106.246604 L 136.549468 93.611137 L 144.879638 80.116737 L 151.880462 65.887222 L 157.487701 51.053157 L 161.649902 35.750648 L 164.328887 20.120113 L 165.500061 4.304962 L 165.152679 -11.549688 L 163.289932 -27.298364 L 159.928909 -42.796562 L 155.100448 -57.902084 L 148.848861 -72.476318 L 141.231506 -86.385543 L 132.318283 -99.502128 L 122.190956 -111.705734 L 110.942466 -122.884376 L 98.676017 -132.935485 L 85.504158 -141.766845 L 71.547760 -149.297409 L 56.934864 -155.458099 L 41.799568 -160.192367 L 26.280735 -163.456787 L 10.520760 -165.221405 L -5.335746 -165.470031 L -21.143295 -164.200363 L -36.756843 -161.424087 L -52.033126 -157.166641 Z "></path>
</g>
<g id="0xffff8f00" class="materialsolid" stroke="none" fill-opacity="1.000000" fill="#ff8f00">
<path id="arc" class="mesh2" fill-rule="evenodd" d="M 21.942378 -174.460128 L 38.750907 -171.511444 L 55.194427 -166.947235 L 71.118064 -160.810531 L 86.371826 -153.159103 L 100.812034 -144.065048 L 114.302658 -133.614013 L 126.716659 -121.904449 L 137.937072 -109.046630 L 147.858245 -95.161682 L 156.386703 -80.380378 L 163.442108 -64.841957 L 168.958038 -48.692779 L 172.882507 -32.084953 L 175.178558 -15.174913 L 175.824569 1.878063 L 174.814453 18.913351 L 172.157714 35.770488 L 167.879379 52.290699 L 162.019775 68.318367 L 154.634048 83.702537 L 145.791809 98.298294 L 135.576324 111.968154 L 124.083808 124.583366 L 111.422515 136.025100 L 97.711723 146.185577 L 83.080558 154.969116 L 67.666847 162.292953 L 51.615760 168.088119 L 35.078495 172.300033 L 18.210817 174.889022 L 1.171610 175.830688 L -15.878633 175.116180 L -32.779312 172.752197 L -49.371238 168.761032 L -65.498123 163.180267 L -81.008064 156.062469 L -95.754981 147.474700 L -93.361106 143.787841 L -78.982864 152.160919 L -63.860675 159.100769 L -48.136959 164.542007 L -31.959831 168.433395 L -15.481667 170.738281 L 1.142320 171.434936 L 17.755548 170.516799 L 34.201534 167.992553 L 50.325366 163.885925 L 65.975173 158.235626 L 81.003547 151.094894 L 95.268936 142.530944 L 108.636962 132.624465 L 120.981712 121.468780 L 132.186920 109.168945 L 142.147018 95.840827 L 150.768203 81.609977 L 157.969284 66.610412 L 163.682403 50.983432 L 167.853775 34.876228 L 170.444091 18.440517 L 171.428955 1.831112 L 170.799087 -14.795540 L 168.560455 -31.282833 L 164.734085 -47.475463 L 159.356063 -63.220912 L 152.477035 -78.370872 L 144.161788 -92.782630 L 134.488647 -106.320465 L 123.548744 -118.856842 L 111.445106 -130.273666 L 98.291732 -140.463439 L 84.212532 -149.330139 L 69.340110 -156.790267 L 53.814571 -162.773559 L 37.782135 -167.223648 L 21.393819 -170.098632 Z "></path>
</g>
<g id="0xffff7800" class="materialsolid" stroke="none" fill-opacity="1.000000" fill="#ff7800">
<path id="arc" class="mesh2" fill-rule="evenodd" d="M 98.133163 -153.120529 L 112.324081 -143.036071 L 125.485755 -131.640960 L 137.497604 -119.039596 L 148.249542 -105.347480 L 157.643066 -90.690048 L 165.592071 -75.201614 L 172.023757 -59.024101 L 176.879180 -42.305744 L 180.113830 -25.199737 L 181.698089 -7.862821 L 181.617416 9.546140 L 179.872589 26.867630 L 176.479568 43.942932 L 171.469451 60.615581 L 164.888137 76.732803 L 156.795928 92.146911 L 147.266998 106.716674 L 136.388656 120.308570 L 124.260559 132.798080 L 110.993850 144.070755 L 96.710105 154.023284 L 81.540191 162.564498 L 65.623115 169.616104 L 49.104732 175.113510 L 32.136398 179.006332 L 14.873593 181.258911 L -2.525497 181.850601 L -19.901447 180.775970 L -37.095039 178.044876 L -53.948726 173.682327 L -70.308074 167.728332 L -86.023185 160.237426 L -100.950065 151.278228 L -114.951919 140.932876 L -112.078117 137.409545 L -98.426307 147.496276 L -83.872604 156.231491 L -68.550376 163.535125 L -52.600009 169.340286 L -36.167663 173.593750 L -19.403911 176.256576 L -2.462360 177.304336 L 14.501754 176.727447 L 31.332990 174.531188 L 47.877117 170.735687 L 63.982540 165.375717 L 79.501686 158.500396 L 94.292358 150.172714 L 108.219017 140.468994 L 121.154045 129.478134 L 132.978942 117.300865 L 143.585342 104.048759 L 152.876037 89.843238 L 160.765930 74.814476 L 167.182708 59.100185 L 172.067581 42.844360 L 175.375778 26.195940 L 177.076995 9.307487 L 177.155639 -7.666251 L 175.610977 -24.569744 L 172.457199 -41.248100 L 167.723159 -57.548496 L 161.452285 -73.321571 L 153.701980 -88.422798 L 144.543304 -102.713790 L 134.060165 -116.063621 L 122.348617 -128.349945 L 109.515975 -139.460174 L 95.679832 -149.292526 Z "></path>
</g>
<g id="0xffff5800" class="materialsolid" stroke="none" fill-opacity="1.000000" fill="#ff5800">
<path id="arc" class="mesh2" fill-rule="evenodd" d="M 159.596130 -99.177192 L 168.476989 -83.201835 L 175.763671 -66.439201 L 181.387268 -49.047916 L 185.294540 -31.192527 L 187.448516 -13.041989 L 187.828811 5.231953 L 186.431854 23.456392 L 183.270843 41.458881 L 178.375686 59.069076 L 171.792694 76.120353 L 163.584182 92.451362 L 153.827804 107.907585 L 142.615875 122.342765 L 130.054489 135.620315 L 116.262512 147.614593 L 101.370429 158.212127 L 85.519165 167.312622 L 68.858695 174.829971 L 51.546684 180.693054 L 33.746917 184.846374 L 15.627839 187.250656 L -2.639115 187.883132 L -20.881097 186.737838 L -38.925498 183.825576 L -56.601577 179.173934 L -73.742088 172.826919 L -90.184829 164.844573 L -105.774230 155.302444 L -120.362785 144.290817 L -133.812423 131.913879 L -130.467117 128.616043 L -117.353721 140.683547 L -103.129875 151.419891 L -87.930213 160.723464 L -71.898536 168.506256 L -55.186542 174.694595 L -37.952362 179.229949 L -20.359071 182.069396 L -2.573137 183.186065 L 15.237143 182.569396 L 32.903247 180.225219 L 50.258014 176.175720 L 67.137229 170.459213 L 83.381187 163.129806 L 98.836174 154.256820 L 113.355941 143.924224 L 126.803131 132.229797 L 139.050476 119.284194 L 149.982101 105.209892 L 159.494583 90.140083 L 167.497894 74.217346 L 173.916290 57.592353 L 178.689071 40.422409 L 181.771057 22.869981 L 183.133102 5.101154 L 182.762298 -12.715940 L 180.662185 -30.412715 L 176.852584 -47.821720 L 171.369598 -64.778228 L 164.265060 -81.121788 L 155.606231 -96.697761 Z "></path>
</g>
<g id="0xffff2c00" class="materialsolid" stroke="none" fill-opacity="1.000000" fill="#ff2c00">
<path id="arc" class="mesh2" fill-rule="evenodd" d="M 192.737442 -21.520807 L 193.911804 -3.012921 L 193.313003 15.522515 L 190.946502 33.916011 L 186.833969 51.999374 L 181.012985 69.607238 L 173.536758 86.578613 L 164.473709 102.758285 L 153.906661 117.998321 L 141.932281 132.159362 L 128.660034 145.111892 L 114.211280 156.737518 L 98.718177 166.929885 L 82.322372 175.595825 L 65.173789 182.656082 L 47.429248 188.046096 L 29.251008 191.716567 L 10.805287 193.633956 L -7.739239 193.780731 L -26.212997 192.155517 L -44.447055 188.773223 L -62.274681 183.664718 L -79.532859 176.876754 L -96.063774 168.471420 L -111.716262 158.525527 L -126.347190 147.130065 L -139.822784 134.389190 L -152.019805 120.419456 L -148.219299 117.408973 L -136.327209 131.029464 L -123.188514 143.451812 L -108.923362 154.562393 L -93.662178 164.259628 L -77.544540 172.454849 L -60.717815 179.073120 L -43.335880 184.053894 L -25.557672 187.351638 L -7.545758 188.936218 L 10.535154 188.793121 L 28.519731 186.923660 L 46.243518 183.344940 L 63.544445 178.089675 L 80.264312 171.205932 L 96.250228 162.756637 L 111.356010 152.819076 L 125.443534 141.484100 L 138.383972 128.855377 L 150.059005 115.048362 L 160.361877 100.189323 L 169.198364 84.414146 L 176.487655 67.867065 L 182.163131 50.699390 L 186.172851 33.068111 L 188.480178 15.134452 L 189.064010 -2.937598 L 187.919006 -20.982788 Z "></path>
</g>
<g id="0xffff0000" class="materialsolid" stroke="none" fill-opacity="1.000000" fill="#ff0000">
<path id="arc" class="mesh2" fill-rule="evenodd" d="M 188.942443 65.484764 L 181.656372 83.597038 L 172.638824 100.912513 L 161.975784 117.266128 L 149.768875 132.502014 L 136.134429 146.474975 L 121.202407 159.051803 L 105.115165 170.112625 L 88.026008 179.552001 L 70.097824 187.279998 L 51.501502 193.222915 L 32.414299 197.324142 L 13.018134 199.544555 L -6.502111 199.863021 L -25.960382 198.276473 L -45.171211 194.800064 L -63.951492 189.466903 L -82.122215 182.327835 L -99.510192 173.450927 L -115.949691 162.920745 L -131.283996 150.837707 L -145.366989 137.316940 L -158.064407 122.487335 L -169.255218 106.490242 L -165.023849 103.827987 L -154.112792 119.425155 L -141.732818 133.884017 L -128.001907 147.066757 L -113.050949 158.847732 L -97.022438 169.114654 L -80.069168 177.769653 L -62.352706 184.730239 L -44.041934 189.930053 L -25.311374 193.319564 L -6.339559 194.866439 L 12.692680 194.555938 L 31.603940 192.391036 L 50.213966 188.392349 L 68.345382 182.597991 L 85.825355 175.063217 L 102.487281 165.859802 L 118.172355 155.075515 L 132.731063 142.813110 L 146.024658 129.189468 L 157.926406 114.334480 L 168.322860 98.389701 L 177.114959 81.507118 L 184.218887 63.847644 Z "></path>
</g>
</g>

</g>
</svg>
