<svg xmlns="http://www.w3.org/2000/svg" xmlns:xlink="http://www.w3.org/1999/xlink" width="720" height="405" viewBox="0 0 720 405">
<path id="background" d="M 0.0 0.0 L 720.0 0.0 L 720.0 405.0 L 0.0 405.0 Z" stroke="none" fill-opacity="1.000000" fill="#202020"></path>
<g transform="translate(360.000000, 202.500000) scale(1.000000, -1.000000) rotate(0.0) translate(0.0, 0.0)">
<g id="32d2fa64" transform="translate(0.0, 0.0) rotate(0.0) scale(1.000000, 1.000000)">
<g id="86254af" stroke="none" fill-opacity="1.000000" fill="#ff0000">
<path id="face.000" d="M 24.996093 0.0 L 24.880773 2.398293 L 24.535877 4.774457 L 23.964586 7.106567 L 23.172172 9.373105 L 22.165948 11.553155 L 20.955198 13.626605 L 19.551094 15.574320 L 17.966588 17.378330 L 16.216304 19.021991 L 14.316392 20.490133 L 12.284382 21.769212 L 10.139023 22.847425 L 7.900111 23.714824 L 5.588304 24.363405 L 3.224933 24.787183 L 0.831806 24.982250 L -1.568996 24.946802 L -3.955321 24.681169 L -6.305150 24.187801 L -8.596802 23.471252 L -10.809129 22.538131 L -12.921722 21.397050 L -14.915084 20.058538 L -16.770824 18.534944 L -18.471818 16.840326 L -20.002372 14.990324 L -21.348363 13.002002 L -22.497371 10.893712 L -23.438795 8.684905 L -24.163948 6.395961 L -24.666137 4.048002 L -24.940732 1.662691 L -24.985198 -0.737961 L -24.799123 -3.131804 L -24.384225 -5.496750 L -23.744333 -7.810977 L -22.885349 -10.053132 L -21.815202 -12.202526 L -21.269823 -11.897462 L -22.313217 -9.801804 L -23.150724 -7.615703 L -23.774620 -5.359331 L -24.179145 -3.053509 L -24.360569 -0.719512 L -24.317214 1.621123 L -24.049486 3.946802 L -23.559848 6.236062 L -22.852827 8.467782 L -21.934938 10.621369 L -20.814655 12.676953 L -19.502313 14.615566 L -18.010023 16.419319 L -16.351554 18.071571 L -14.542206 19.557075 L -12.598679 20.862125 L -10.538902 21.974678 L -8.381882 22.884471 L -6.147521 23.583106 L -3.856438 24.064140 L -1.529771 24.323133 L 0.811011 24.357692 L 3.144310 24.167505 L 5.448596 23.754322 L 7.702608 23.121953 L 9.885548 22.276241 L 11.977273 21.224983 L 13.958483 19.977880 L 15.810897 18.546442 L 17.517425 16.943874 L 19.062316 15.184963 L 20.431320 13.285940 L 21.611801 11.264327 L 22.592870 9.138776 L 23.365472 6.928903 L 23.922481 4.655096 L 24.258754 2.338335 L 24.371192 0.0 Z"></path>
</g>
<g id="676b38ed" stroke="none" fill-opacity="1.000000" fill="#e5001a">
<path id="face.000" d="M 30.909751 2.724952 L 30.502645 5.694446 L 29.810937 8.610809 L 28.841085 11.446828 L 27.602134 14.176046 L 26.105644 16.772994 L 24.365581 19.213447 L 22.398178 21.474630 L 20.221790 23.535448 L 17.856727 25.376670 L 15.325054 26.981119 L 12.650391 28.333826 L 9.857697 29.422166 L 6.973027 30.235986 L 4.023296 30.767698 L 1.036026 31.012332 L -1.960909 30.967611 L -4.939549 30.633949 L -7.872102 30.014463 L -10.731204 29.114933 L -13.490182 27.943748 L -16.123291 26.511838 L -18.605964 24.832563 L -20.915035 22.921592 L -23.028963 20.796752 L -24.928022 18.477874 L -26.594491 15.986589 L -28.012828 13.346143 L -29.169792 10.581173 L -30.054594 7.717477 L -30.658973 4.781774 L -30.977294 1.801456 L -31.006587 -1.195670 L -30.746576 -4.181641 L -30.199687 -7.128595 L -29.371026 -10.009037 L -28.268323 -12.796092 L -26.901866 -15.463753 L -25.284404 -17.987134 L -24.652296 -17.537454 L -26.229318 -15.077160 L -27.561614 -12.476190 L -28.636753 -9.758811 L -29.444696 -6.950381 L -29.977912 -4.077100 L -30.231422 -1.165778 L -30.202863 1.756419 L -29.892501 4.662230 L -29.303230 7.524540 L -28.440549 10.316644 L -27.312509 13.012490 L -25.929632 15.586924 L -24.304822 18.015928 L -22.453239 20.276834 L -20.392160 22.348552 L -18.140815 24.211750 L -15.720210 25.849042 L -13.152928 27.245155 L -10.462924 28.387060 L -7.675300 29.264102 L -4.816061 29.868103 L -1.911886 30.193420 L 1.010126 30.237024 L 3.922714 29.998504 L 6.798702 29.480089 L 9.611255 28.686613 L 12.334132 27.625480 L 14.941927 26.306591 L 17.410308 24.742254 L 19.716245 22.947061 L 21.838222 20.937765 L 23.756441 18.733112 L 25.453004 16.353670 L 26.912080 13.821644 L 28.120058 11.160658 L 29.065666 8.395539 L 29.740079 5.552085 L 30.137008 2.656829 Z"></path>
</g>
<g id="762a4034" stroke="none" fill-opacity="1.000000" fill="#ca0035">
<path id="face.000" d="M 36.491516 6.484460 L 35.690288 9.994111 L 34.552352 13.409475 L 33.088436 16.698329 L 31.312358 19.829650 L 29.240875 22.773891 L 26.893524 25.503280 L 24.292453 27.992063 L 21.462202 30.216764 L 18.429471 32.156391 L 15.222872 33.792648 L 11.872658 35.110095 L 8.410433 36.096309 L 4.868863 36.741981 L 1.281359 37.041019 L -2.318233 36.990604 L -5.895956 36.591209 L -9.418055 35.846607 L -12.851301 34.763816 L -16.163305 33.353057 L -19.322820 31.627639 L -22.300039 29.603837 L -25.066877 27.300745 L -27.597225 24.740091 L -29.867214 21.946035 L -31.855432 18.944932 L -33.543117 15.765099 L -34.914344 12.436535 L -35.956184 8.990642 L -36.658809 5.459928 L -37.015579 1.877705 L -37.023139 -1.722232 L -36.681415 -5.305922 L -35.993629 -8.839555 L -34.966270 -12.289794 L -33.609031 -15.624087 L -31.934713 -18.810979 L -29.959119 -21.820405 L -27.700883 -24.623971 L -27.008363 -24.008373 L -29.210142 -21.274896 L -31.136346 -18.340705 L -32.768802 -15.233486 L -34.092113 -11.982549 L -35.093788 -8.618567 L -35.764377 -5.173274 L -36.097560 -1.679176 L -36.090190 1.830762 L -35.742340 5.323430 L -35.057281 8.765876 L -34.041488 12.125622 L -32.704536 15.370972 L -31.059047 18.471309 L -29.120534 21.397384 L -26.907295 24.121589 L -24.440206 26.618227 L -21.742540 28.863740 L -18.839750 30.836948 L -15.759222 32.519233 L -12.530018 33.894721 L -9.182603 34.950443 L -5.748557 35.676429 L -2.260278 36.065841 L 1.249325 36.114994 L 4.747141 35.823432 L 8.200173 35.193901 L 11.575841 34.232345 L 14.842301 32.947834 L 17.968736 31.352481 L 20.925647 29.461345 L 23.685142 27.292263 L 26.221185 24.865699 L 28.509855 22.204545 L 30.529552 19.333908 L 32.261226 16.280872 L 33.688541 13.074238 L 34.798030 9.744258 L 35.579227 6.322349 Z"></path>
</g>
<g id="496277d0" stroke="none" fill-opacity="1.000000" fill="#b0004f">
<path id="face.000" d="M 41.605907 11.237222 L 40.311286 15.242270 L 38.632148 19.101926 L 36.584514 22.779378 L 34.187911 26.239542 L 31.465198 29.449417 L 28.442348 32.378379 L 25.148197 34.998500 L 21.614164 37.284778 L 17.873960 39.215408 L 13.963263 40.771976 L 9.919375 41.939632 L 5.780869 42.707241 L 1.587221 43.067478 L -2.621566 43.016906 L -6.805348 42.556011 L -10.924216 41.689186 L -14.938881 40.424701 L -18.811048 38.774620 L -22.503782 36.754680 L -25.981861 34.384147 L -29.212108 31.685636 L -32.163707 28.684885 L -34.808509 25.410516 L -37.121284 21.893766 L -39.079971 18.168178 L -40.665885 14.269290 L -41.863899 10.234292 L -42.662586 6.101672 L -43.054332 1.910849 L -43.035392 -2.298199 L -42.605953 -6.485327 L -41.770107 -10.610592 L -40.535831 -14.634648 L -38.914897 -18.519107 L -36.922767 -22.226919 L -34.578441 -25.722715 L -31.904283 -28.973150 L -28.925798 -31.947221 L -28.202655 -31.148540 L -31.106678 -28.248821 L -33.713981 -25.079647 L -35.999702 -21.671247 L -37.942028 -18.056131 L -39.522441 -14.268781 L -40.725856 -10.345328 L -41.540805 -6.323194 L -41.959510 -2.240744 L -41.977973 1.863078 L -41.596023 5.949130 L -40.817302 9.978434 L -39.649238 13.912558 L -38.102970 17.713975 L -36.193252 21.346424 L -33.938297 24.775253 L -31.359615 27.967763 L -28.481805 30.893495 L -25.332317 33.524543 L -21.941190 35.835815 L -18.340772 37.805255 L -14.565409 39.414085 L -10.651110 40.646957 L -6.635214 41.492111 L -2.556027 41.941482 L 1.547540 41.990787 L 5.636348 41.639560 L 9.671391 40.891143 L 13.614182 39.752677 L 17.427112 38.235023 L 21.073810 36.352661 L 24.519493 34.123538 L 27.731290 31.568922 L 30.678567 28.713182 L 33.333213 25.583555 L 35.669902 22.209894 L 37.666347 18.624380 L 39.303508 14.861213 L 40.565761 10.956292 Z"></path>
</g>
<g id="3c7a8ee1" stroke="none" fill-opacity="1.000000" fill="#95006a">
<path id="face.000" d="M 46.122505 16.926200 L 44.293605 21.256954 L 42.059162 25.393079 L 39.439632 29.296709 L 36.458995 32.932106 L 33.144542 36.265975 L 29.526626 39.267799 L 25.638364 41.910095 L 21.515363 44.168663 L 17.195369 46.022830 L 12.717937 47.455619 L 8.124062 48.453907 L 3.455802 49.008563 L -1.244096 49.114498 L -5.932605 48.770748 L -10.566797 47.980461 L -15.104239 46.750865 L -19.503389 45.093231 L -23.723968 43.022727 L -27.727334 40.558311 L -31.476833 37.722549 L -34.938133 34.541404 L -38.079544 31.044002 L -40.872303 27.262365 L -43.290840 23.231119 L -45.313011 18.987171 L -46.920303 14.569377 L -48.097999 10.018189 L -48.835315 5.375275 L -49.125503 0.683146 L -48.965904 -4.015236 L -48.357978 -8.676857 L -47.307292 -13.259034 L -45.823467 -17.719812 L -43.920085 -22.018350 L -41.614582 -26.115291 L -38.928058 -29.973123 L -35.885112 -33.556526 L -32.513610 -36.832687 L -28.844413 -39.771614 L -28.123306 -38.777328 L -31.700769 -35.911872 L -34.987983 -32.717613 L -37.954856 -29.223794 L -40.574218 -25.462408 L -42.822086 -21.467891 L -44.677879 -17.276817 L -46.124610 -12.927558 L -47.149028 -8.459936 L -47.741756 -3.914856 L -47.897369 0.666068 L -47.614437 5.240893 L -46.895549 9.767734 L -45.747299 14.205142 L -44.180187 18.512491 L -42.208568 22.650341 L -39.850498 26.580808 L -37.127555 30.267904 L -34.064682 33.677871 L -30.689912 36.779487 L -27.034152 39.544353 L -23.130870 41.947162 L -19.015804 43.965904 L -14.726634 45.582096 L -10.302626 46.780952 L -5.784290 47.551479 L -1.212994 47.886638 L 3.369408 47.783348 L 7.920960 47.242561 L 12.399990 46.269229 L 16.765485 44.872261 L 20.977479 43.064449 L 24.997406 40.862342 L 28.788461 38.286106 L 32.315929 35.359325 L 35.547519 32.108802 L 38.453639 28.564292 L 41.007686 24.758253 L 43.186267 20.725530 L 44.969440 16.503047 Z"></path>
</g>
<g id="15d37aad" stroke="none" fill-opacity="1.000000" fill="#7d0380">
<path id="face.000" d="M 49.917633 23.479227 L 47.430320 28.167520 L 44.503982 32.595088 L 41.165710 36.720954 L 37.446407 40.506927 L 33.380489 43.917961 L 29.005599 46.922481 L 24.362230 49.492687 L 19.493362 51.604778 L 14.444059 53.239208 L 9.261060 54.380851 L 3.992340 55.019138 L -1.313333 55.148162 L -6.606851 54.766719 L -11.839215 53.878356 L -16.961992 52.491287 L -21.927768 50.618350 L -26.690578 48.276882 L -31.206336 45.488559 L -35.433246 42.279186 L -39.332176 38.678474 L -42.867046 34.719745 L -46.005130 30.439645 L -48.717388 25.877796 L -50.978710 21.076416 L -52.768169 16.079950 L -54.069194 10.934647 L -54.869750 5.688131 L -55.162425 0.388965 L -54.944507 -4.913801 L -54.218017 -10.171085 L -52.989677 -15.334224 L -51.270858 -20.355428 L -49.077468 -25.188219 L -46.429813 -29.787862 L -43.352394 -34.111785 L -39.873703 -38.119972 L -36.025932 -41.775306 L -31.844705 -45.043968 L -27.368715 -47.895694 L -26.684499 -46.698307 L -31.048587 -43.917873 L -35.125286 -40.730926 L -38.876861 -37.166973 L -42.268589 -33.258995 L -45.269069 -29.043169 L -47.850532 -24.558513 L -49.989089 -19.846542 L -51.664936 -14.950869 L -52.862567 -9.916808 L -53.570896 -4.790956 L -53.783363 0.379240 L -53.498004 5.545928 L -52.717468 10.661281 L -51.448966 15.677952 L -49.704246 20.549507 L -47.499454 25.230850 L -44.855007 29.678657 L -41.795372 33.851749 L -38.348873 37.711509 L -34.547412 41.222206 L -30.426177 44.351345 L -26.023315 47.069961 L -21.379575 49.352890 L -16.537942 51.179004 L -11.543233 52.531398 L -6.441679 53.397552 L -1.280500 53.769454 L 3.892532 53.643661 L 9.029534 53.021331 L 14.082958 51.908229 L 19.006029 50.314662 L 23.753175 48.255371 L 28.280460 45.749423 L 32.545978 42.820011 L 36.510246 39.494255 L 40.136569 35.802928 L 43.391384 31.780214 L 46.244560 27.463331 L 48.669696 22.892246 Z"></path>
</g>
<g id="4fc03d31" stroke="none" fill-opacity="1.000000" fill="#6b1786">
<path id="face.000" d="M 52.876014 30.809749 L 49.651859 35.774383 L 45.963115 40.404281 L 41.844291 44.656116 L 37.333938 48.490108 L 32.474254 51.870380 L 27.310708 54.765304 L 21.891618 57.147800 L 16.267690 58.995555 L 10.491547 60.291301 L 4.617234 61.022903 L -1.300281 61.183521 L -7.205630 60.771644 L -13.043557 59.791130 L -18.759435 58.251155 L -24.299783 56.166130 L -29.612760 53.555561 L -34.648651 50.443874 L -39.360336 46.860191 L -43.703735 42.838039 L -47.638195 38.415054 L -51.126907 33.632617 L -54.137229 28.535488 L -56.640995 23.171352 L -58.614772 17.590400 L -60.040092 11.844861 L -60.903625 5.988488 L -61.197288 0.076081 L -60.918331 -5.837037 L -60.069362 -11.695539 L -58.658329 -17.444606 L -56.698432 -23.030447 L -54.208015 -28.400791 L -51.210372 -33.505390 L -47.733562 -38.296482 L -43.810111 -42.729240 L -39.476730 -46.762180 L -34.773971 -50.357566 L -29.745828 -53.481765 L -24.439361 -56.105537 L -23.828378 -54.702903 L -29.002185 -52.144725 L -33.904621 -49.098628 L -38.489810 -45.593128 L -42.714859 -41.661010 L -46.540222 -37.339073 L -49.930114 -32.667758 L -52.852817 -27.690771 L -55.280975 -22.454685 L -57.191867 -17.008493 L -58.567626 -11.403151 L -59.395370 -5.691112 L -59.667354 0.074179 L -59.381034 5.838776 L -58.539093 11.548739 L -57.149402 17.150642 L -55.224971 22.592067 L -52.783798 27.822101 L -49.848735 32.791801 L -46.447242 37.454673 L -42.611141 41.767086 L -38.376331 45.688686 L -33.782436 49.182781 L -28.872442 52.216674 L -23.692289 54.761978 L -18.290451 56.794879 L -12.717468 58.296356 L -7.025489 59.252353 L -1.267774 59.653930 L 4.501803 59.497333 L 10.229258 58.784023 L 15.861000 57.520671 L 21.344329 55.719104 L 26.627943 53.396175 L 31.662397 50.573623 L 36.400592 47.277858 L 40.798187 43.539714 L 44.814037 39.394176 L 48.410564 34.880023 L 51.554115 30.039505 Z"></path>
</g>
<g id="24bb7b88" stroke="none" fill-opacity="1.000000" fill="#592b8c">
<path id="face.000" d="M 54.892322 38.817821 L 50.862018 43.966411 L 46.350643 48.699157 L 41.400878 52.971290 L 36.059524 56.742408 L 30.377113 59.976840 L 24.407386 62.643993 L 18.206806 64.718643 L 11.834021 66.181167 L 5.349306 67.017723 L -1.186003 67.220413 L -7.710094 66.787307 L -14.161262 65.722518 L -20.478490 64.036102 L -26.602024 61.744007 L -32.473949 58.867927 L -38.038726 55.435058 L -43.243724 51.477863 L -48.039710 47.033779 L -52.381320 42.144840 L -56.227497 36.857280 L -59.541854 31.221111 L -62.293052 25.289646 L -64.455062 19.118984 L -66.007438 12.767490 L -66.935493 6.295236 L -67.230453 -0.236558 L -66.889533 -6.766116 L -65.915954 -13.231678 L -64.318923 -19.572090 L -62.113540 -25.727384 L -59.320674 -31.639345 L -55.966735 -37.252048 L -52.083442 -42.512409 L -47.707534 -47.370677 L -42.880393 -51.780902 L -37.647682 -55.701370 L -32.058883 -59.094993 L -26.166862 -61.929679 L -20.027349 -64.178619 L -19.526666 -62.574157 L -25.512691 -60.381443 L -31.257411 -57.617618 L -36.706489 -54.308834 L -41.808383 -50.486381 L -46.514850 -46.186412 L -50.781360 -41.449600 L -54.567569 -36.320747 L -57.837657 -30.848360 L -60.560703 -25.084201 L -62.710948 -19.082788 L -64.268058 -12.900887 L -65.217300 -6.596963 L -65.549697 -0.230644 L -65.262107 6.137856 L -64.357246 12.448303 L -62.843685 18.641012 L -60.735725 24.657405 L -58.053310 30.440584 L -54.821807 35.935848 L -51.071788 41.091220 L -46.838718 45.857936 L -42.162631 50.190921 L -37.087760 54.049182 L -31.662101 57.396228 L -25.936973 60.200408 L -19.966526 62.435199 L -13.807231 64.079452 L -7.517343 65.117630 L -1.156352 65.539901 L 5.215574 65.342285 L 11.538169 64.526634 L 17.751634 63.100677 L 23.797201 61.077896 L 29.617685 58.477420 L 35.158035 55.323848 L 40.365856 51.647010 L 45.191883 47.481681 L 49.590469 42.867256 L 53.520015 37.847377 Z"></path>
</g>
<g id="6066f4db" stroke="none" fill-opacity="1.000000" fill="#483f91">
<path id="face.000" d="M 55.872627 47.391170 L 50.977363 52.621116 L 45.594753 57.347995 L 39.776241 61.526615 L 33.577465 65.117034 L 27.057683 68.084915 L 20.279224 70.401893 L 13.306891 72.045822 L 6.207342 73.000976 L -0.951549 73.258232 L -8.101344 72.815124 L -15.173688 71.675888 L -22.100971 69.851425 L -28.816963 67.359161 L -35.257461 64.222938 L -41.360889 60.472728 L -47.068904 56.144390 L -52.326930 51.279300 L -57.084697 45.923973 L -61.296726 40.129604 L -64.922752 33.951587 L -67.928100 27.448989 L -70.284049 20.683975 L -71.968063 13.721218 L -72.964050 6.627281 L -73.262496 -0.530011 L -72.860534 -7.682237 L -71.762008 -14.761019 L -69.977432 -21.698686 L -67.523857 -28.428907 L -64.424743 -34.887344 L -60.709716 -41.012248 L -56.414291 -46.745071 L -51.579540 -52.031002 L -46.251674 -56.819507 L -40.481636 -61.064811 L -34.324588 -64.726318 L -27.839387 -67.769035 L -21.088043 -70.163871 L -14.135087 -71.887924 L -13.781711 -70.090721 L -20.560842 -68.409774 L -27.143405 -66.074813 L -33.466476 -63.108165 L -39.469596 -59.538188 L -45.095382 -55.399024 L -50.290050 -50.730228 L -55.003932 -45.576446 L -59.191974 -39.986946 L -62.814125 -34.015159 L -65.835762 -27.718185 L -68.227996 -21.156219 L -69.967964 -14.391995 L -71.039024 -7.490181 L -71.430931 -0.516761 L -71.139953 6.461599 L -70.168869 13.378187 L -68.526947 20.166875 L -66.229904 26.762767 L -63.299686 33.102798 L -59.764312 39.126365 L -55.657581 44.775875 L -51.018753 49.997318 L -45.892181 54.740779 L -40.326869 58.960914 L -34.376026 62.617366 L -28.096540 65.675186 L -21.548446 68.105140 L -14.794346 69.883995 L -7.898810 70.994743 L -0.927760 71.426780 L 6.052159 71.175956 L 12.974219 70.244682 L 19.772243 68.641853 L 26.381242 66.382797 L 32.738029 63.489109 L 38.781837 59.988452 L 44.454887 55.914299 L 49.702934 51.305591 L 54.475814 46.206398 Z"></path>
</g>
<g id="2eaf3cc1" stroke="none" fill-opacity="1.000000" fill="#365396">
<path id="face.000" d="M 55.735744 56.406486 L 50.079795 61.483161 L 43.963817 65.995056 L 37.443992 69.900733 L 30.580215 73.164306 L 23.435529 75.755798 L 16.075567 77.651405 L 8.567935 78.833717 L 0.981600 79.291877 L -6.613750 79.021659 L -14.148348 78.025566 L -21.552982 76.312736 L -28.759634 73.898902 L -35.702098 70.806251 L -42.316612 67.063171 L -48.542407 62.704063 L -54.322299 57.768959 L -59.603191 52.303199 L -64.336578 46.356983 L -68.478973 39.984943 L -71.992324 33.245601 L -74.844367 26.200868 L -77.008895 18.915460 L -78.466033 11.456295 L -79.202384 3.891893 L -79.211196 -3.708258 L -78.492378 -11.274346 L -77.052543 -18.736869 L -74.904914 -26.027278 L -72.069213 -33.078601 L -68.571487 -39.826068 L -64.443878 -46.207702 L -59.724288 -52.164875 L -54.456085 -57.642864 L -48.687652 -62.591354 L -42.471977 -66.964881 L -35.866165 -70.723281 L -28.930885 -73.832031 L -21.729848 -76.262557 L -14.329207 -77.992553 L -6.796938 -79.006118 L -6.627015 -77.030967 L -13.970977 -76.042747 L -21.186603 -74.355995 L -28.207612 -71.986228 L -34.969509 -68.955207 L -41.410182 -65.290763 L -47.470462 -61.026569 L -53.094684 -56.201793 L -58.231185 -50.860752 L -62.832778 -45.052509 L -66.857208 -38.830417 L -70.267486 -32.251636 L -73.032295 -25.376596 L -75.126235 -18.268447 L -76.530075 -10.992487 L -77.230918 -3.615551 L -77.222328 3.794596 L -76.504386 11.169887 L -75.083679 18.442573 L -72.973266 25.545848 L -70.192520 32.414463 L -66.766998 38.985317 L -62.728164 45.198062 L -58.113113 50.995620 L -52.964241 56.324737 L -47.328845 61.136463 L -41.258697 65.386596 L -34.809547 69.036094 L -28.040643 72.051437 L -21.014158 74.404922 L -13.794640 76.074935 L -6.448407 77.046127 L 0.957061 77.309577 L 8.353737 76.862876 L 15.673677 75.710128 L 22.849641 73.861907 L 29.815710 71.335197 L 36.507896 68.153213 L 42.864723 64.345184 L 48.827800 59.946083 L 54.342350 54.996326 Z"></path>
</g>
<g id="5c702c95" stroke="none" fill-opacity="1.000000" fill="#276592">
<path id="face.000" d="M 54.414402 65.730796 L 47.835849 70.662544 L 40.813194 74.938285 L 33.411643 78.518318 L 25.699901 81.369400 L 17.749568 83.465065 L 9.634452 84.785858 L 1.429891 85.319511 L -6.787943 85.061088 L -14.942762 84.012962 L -22.958854 82.184890 L -30.761802 79.593818 L -38.279163 76.263824 L -45.441146 72.225799 L -52.181266 67.517257 L -58.436943 62.181896 L -64.150108 56.269245 L -69.267707 49.834209 L -73.742256 42.936519 L -77.532180 35.640216 L -80.602317 28.013038 L -82.924163 20.125793 L -84.476150 12.051701 L -85.243888 3.865726 L -85.220237 -4.356136 L -84.405418 -12.537559 L -82.806991 -20.602586 L -80.439804 -28.476341 L -77.325836 -36.085731 L -73.493980 -43.360103 L -68.979827 -50.231937 L -63.825283 -56.637424 L -58.078197 -62.517097 L -51.791919 -67.816375 L -45.024822 -72.486068 L -37.839725 -76.482803 L -30.303325 -79.769500 L -22.485599 -82.315628 L -14.459121 -84.097549 L -6.298408 -85.098731 L 1.920777 -85.309875 L 1.872757 -83.177131 L -6.140949 -82.971267 L -14.097645 -81.995109 L -21.923460 -80.257736 L -29.545743 -77.775260 L -36.893733 -74.570739 L -43.899200 -70.673912 L -50.497127 -66.120971 L -56.626243 -60.954174 L -62.229652 -55.221488 L -67.255340 -48.976139 L -71.656639 -42.276103 L -75.392692 -35.183586 L -78.428810 -27.764434 L -80.736816 -20.087522 L -82.295280 -12.224121 L -83.089729 -4.247233 L -83.112792 3.769083 L -82.364257 11.750410 L -80.851066 19.622648 L -78.587265 27.312713 L -75.593879 34.749214 L -71.898696 41.863109 L -67.536026 48.588356 L -62.546352 54.862518 L -56.976024 60.627346 L -50.876731 65.829330 L -44.305118 70.420158 L -37.322185 74.357223 L -29.992757 77.603973 L -22.384883 80.130264 L -14.569192 81.912643 L -6.618245 82.934562 L 1.394144 83.186531 L 9.393591 82.666213 L 17.305830 81.378440 L 25.057405 79.335166 L 32.576354 76.555366 L 39.792869 73.064834 L 46.639953 68.895988 L 53.054042 64.087524 Z"></path>
</g>
<g id="61e1633f" stroke="none" fill-opacity="1.000000" fill="#1e747d">
<path id="face.000" d="M 51.856319 75.222938 L 44.335372 79.887069 L 36.398464 83.801673 L 28.120056 86.930030 L 19.577819 89.242805 L 10.851898 90.718269 L 2.024163 91.342605 L -6.822561 91.109939 L -15.605278 90.022460 L -24.241579 88.090377 L -32.650444 85.331809 L -40.752971 81.772636 L -48.473148 77.446250 L -55.738540 72.393257 L -62.480979 66.661048 L -68.637214 60.303413 L -74.149467 53.379997 L -78.966041 45.955760 L -83.041740 38.100357 L -86.338325 29.887487 L -88.824867 21.394205 L -90.478027 12.700200 L -91.282310 3.887037 L -91.230155 -4.962593 L -90.322067 -13.765664 L -88.566551 -22.439582 L -85.980079 -30.902969 L -82.586936 -39.076416 L -78.418937 -46.883239 L -73.515197 -54.250198 L -67.921722 -61.108165 L -61.690994 -67.392799 L -54.881465 -73.045143 L -47.557022 -78.012168 L -39.786396 -82.247253 L -31.642480 -85.710685 L -23.201688 -88.369956 L -14.543215 -90.200126 L -5.748293 -91.184020 L 3.100559 -91.312400 L 11.920323 -90.584068 L 11.622315 -88.319473 L 3.023045 -89.029594 L -5.604586 -88.904426 L -14.179635 -87.945129 L -22.621648 -86.160713 L -30.851419 -83.567924 L -38.791736 -80.191078 L -46.368099 -76.061866 L -53.509429 -71.219017 L -60.148723 -65.707984 L -66.223686 -59.580459 L -71.677322 -52.893939 L -76.458465 -45.711158 L -80.522270 -38.099506 L -83.830581 -30.130395 L -86.352386 -21.878593 L -88.064010 -13.421524 L -88.949401 -4.838529 L -89.000251 3.789861 L -88.216079 12.382695 L -86.604248 20.859352 L -84.179870 29.140300 L -80.965698 37.147850 L -76.991897 44.806869 L -72.295738 52.045497 L -66.921279 58.795825 L -60.918956 64.994522 L -54.345077 70.583427 L -47.261322 75.510093 L -39.734149 79.728324 L -31.834184 83.198509 L -23.635540 85.888122 L -15.215146 87.771903 L -6.651998 88.832191 L 1.973559 89.059036 L 10.580601 88.450317 L 19.088373 87.011734 L 27.417055 84.756790 L 35.488502 81.706634 L 43.226989 77.889892 L 50.559913 73.342369 Z"></path>
</g>
<g id="972abaa" stroke="none" fill-opacity="1.000000" fill="#168368">
<path id="face.000" d="M 48.025077 84.735321 L 39.556411 89.004341 L 30.712707 92.429496 L 21.577808 94.978317 L 12.238328 96.626632 L 2.782814 97.358810 L -6.699083 97.167922 L -16.117465 96.055763 L -25.383035 94.032890 L -34.407947 91.118469 L -43.106632 87.340141 L -51.396614 82.733734 L -59.199295 77.342910 L -66.440696 71.218788 L -73.052169 64.419433 L -78.971023 57.009300 L -84.141136 49.058654 L -88.513496 40.642875 L -92.046646 31.841760 L -94.707084 22.738742 L -96.469596 13.420140 L -97.317459 3.974295 L -97.242645 -5.509228 L -96.245849 -14.940518 L -94.336532 -24.230155 L -91.532806 -33.290061 L -87.861236 -42.034339 L -83.356643 -50.380084 L -78.061729 -58.248165 L -72.026695 -65.563987 L -65.308769 -72.258193 L -57.971649 -78.267303 L -50.084880 -83.534347 L -41.723255 -88.009391 L -32.966041 -91.650001 L -23.896272 -94.421669 L -14.599939 -96.298103 L -5.165181 -97.261520 L 4.318548 -97.302787 L 13.761332 -96.421516 L 23.073644 -94.626052 L 22.496805 -92.260398 L 13.417299 -94.010971 L 4.210584 -94.870223 L -5.036052 -94.829986 L -14.234940 -93.890647 L -23.298866 -92.061126 L -32.141891 -89.358749 L -40.680171 -85.809158 L -48.832759 -81.445991 L -56.522357 -76.310615 L -63.676055 -70.451736 L -70.226036 -63.924892 L -76.110183 -56.791965 L -81.272727 -49.120586 L -85.664710 -40.983482 L -89.244483 -32.457813 L -91.978126 -23.624401 L -93.839706 -14.567005 L -94.811576 -5.371498 L -94.884521 3.874938 L -94.057853 13.084636 L -92.339408 22.170276 L -89.745483 31.045717 L -86.300659 39.626804 L -82.037612 47.832187 L -76.996749 55.584064 L -71.225868 62.808948 L -64.779685 69.438323 L -57.719310 75.409339 L -50.111698 80.665390 L -42.028964 85.156639 L -33.547748 88.840507 L -24.748460 91.682067 L -15.714529 93.654373 L -6.531605 94.738723 L 2.713244 94.924842 L 11.932370 94.210968 L 21.038364 92.603858 L 29.944889 90.118759 L 38.567501 86.779235 L 46.824451 82.616935 Z"></path>
</g>
<g id="2d91dee5" stroke="none" fill-opacity="1.000000" fill="#0d9253">
<path id="face.000" d="M 42.900802 94.115478 L 33.494251 97.858764 L 23.766809 100.664497 L 13.811661 102.505805 L 3.724191 103.365043 L -6.398958 103.233978 L -16.460803 102.113876 L -26.364942 100.015457 L -36.016490 96.958824 L -45.322978 92.973274 L -54.195243 88.096977 L -62.548286 82.376655 L -70.302078 75.867126 L -77.382324 68.630729 L -83.721206 60.736816 L -89.257995 52.261001 L -93.939628 43.284500 L -97.721267 33.893302 L -100.566673 24.177385 L -102.448593 14.229836 L -103.348983 4.145956 L -103.259231 -5.977644 L -102.180198 -16.043975 L -100.122215 -25.956594 L -97.104995 -35.620536 L -93.157447 -44.943206 L -88.317398 -53.835300 L -82.631210 -62.211616 L -76.153373 -69.991897 L -68.945930 -77.101631 L -61.077945 -83.472671 L -52.624794 -89.043998 L -43.667472 -93.762222 L -34.291786 -97.582145 L -24.587562 -100.467178 L -14.647774 -102.389671 L -4.567652 -103.331207 L 5.556230 -103.282768 L 15.626880 -102.244819 L 25.547815 -100.227302 L 35.223987 -97.249542 L 34.343391 -94.818305 L 24.909122 -97.721618 L 15.236208 -99.688697 L 5.417324 -100.700698 L -4.453461 -100.747932 L -14.281580 -99.829933 L -23.972873 -97.955505 L -33.434490 -95.142593 L -42.575786 -91.418167 L -51.309181 -86.817893 L -59.551002 -81.385856 L -67.222282 -75.174087 L -74.249534 -68.242111 L -80.565437 -60.656326 L -86.109466 -52.489418 L -90.828514 -43.819629 L -94.677368 -34.730026 L -97.619155 -25.307682 L -99.625701 -15.642876 L -100.677757 -5.828203 L -100.765266 4.042307 L -99.887382 13.874091 L -98.052513 23.572952 L -95.278236 33.045970 L -91.591140 42.202388 L -87.026550 50.954479 L -81.628189 59.218399 L -75.447769 66.914962 L -68.544525 73.970443 L -60.984580 80.317245 L -52.840362 85.894554 L -44.189907 90.648948 L -35.116077 94.534858 L -25.705820 97.515075 L -16.049282 99.561035 L -6.238985 100.653137 L 3.631087 100.780921 L 13.466370 99.943161 L 23.172637 98.147888 L 32.656898 95.412292 L 41.828285 91.762588 Z"></path>
</g>
<g id="3c9df8ee" stroke="none" fill-opacity="1.000000" fill="#04a13e">
<path id="face.000" d="M 36.480812 103.207939 L 26.417005 106.230278 L 16.109781 108.273750 L 5.654112 109.319534 L -4.853655 109.357994 L -15.316699 108.388786 L -25.638607 106.420822 L -35.724269 103.472251 L -45.480751 99.570228 L -54.818149 94.750717 L -63.650432 89.058135 L -71.896202 82.544929 L -79.479492 75.271110 L -86.330413 67.303710 L -92.385841 58.716133 L -97.589988 49.587520 L -101.894897 40.001987 L -105.260894 30.047857 L -107.656967 19.816848 L -109.061035 9.403238 L -109.460151 -1.097017 L -108.850662 -11.587164 L -107.238166 -21.970542 L -104.637527 -32.151473 L -101.072708 -42.036144 L -96.576545 -51.533473 L -91.190490 -60.555950 L -84.964164 -69.020431 L -77.954933 -76.848930 L -70.227386 -83.969299 L -61.852733 -90.315940 L -52.908134 -95.830360 L -43.476016 -100.461753 L -33.643291 -104.167449 L -23.500556 -106.913299 L -13.141281 -108.673988 L -2.660913 -109.433311 L 7.843973 -109.184249 L 18.276580 -107.929122 L 28.540781 -105.679481 L 38.541988 -102.456062 L 48.188060 -98.288558 L 46.983360 -95.831344 L 37.578445 -99.894660 L 27.827262 -103.037498 L 17.819667 -105.230895 L 7.647874 -106.454650 L -2.594390 -106.697471 L -12.812748 -105.957138 L -22.913043 -104.240470 L -32.802207 -101.563270 L -42.389118 -97.950218 L -51.585430 -93.434608 L -60.306415 -88.058044 L -68.471702 -81.870063 L -76.006057 -74.927703 L -82.840065 -67.294921 L -88.910728 -59.042053 L -94.162139 -50.245136 L -98.545890 -40.985240 L -102.021591 -31.347686 L -104.557212 -21.421277 L -106.129394 -11.297486 L -106.723655 -1.069592 L -106.334503 9.168157 L -104.965538 19.321428 L -102.629371 29.296659 L -99.347526 39.001937 L -95.150245 48.347835 L -90.076202 57.248233 L -84.172157 65.621116 L -77.492500 73.389335 L -70.098800 80.481307 L -62.059173 86.831687 L -53.447700 92.381958 L -44.343734 97.080978 L -34.831165 100.885444 L -24.997642 103.760299 L -14.933781 105.679061 L -4.732314 106.624046 L 5.512760 106.586547 L 15.707036 105.566909 L 25.756582 103.574516 L 35.568794 100.627746 Z"></path>
</g>
<g id="452cf0af" stroke="none" fill-opacity="1.000000" fill="#1bb22e">
<path id="face.000" d="M 28.779800 111.856086 L 17.865505 114.109092 L 6.784877 115.299728 L -4.358916 115.416900 L -15.462129 114.459533 L -26.421384 112.436523 L -37.134658 109.366714 L -47.502197 105.278686 L -57.427486 100.210502 L -66.818122 94.209342 L -75.586662 87.331077 L -83.651481 79.639755 L -90.937507 71.206970 L -97.376876 62.111236 L -102.909660 52.437236 L -107.484336 42.275039 L -111.058319 31.719263 L -113.598327 20.868169 L -115.080726 9.822791 L -115.491706 -1.314039 L -114.827445 -12.438634 L -113.094116 -23.447423 L -110.307876 -34.237918 L -106.494636 -44.709648 L -101.689926 -54.765125 L -95.938468 -64.310729 L -89.293815 -73.257598 L -81.817817 -81.522430 L -73.580085 -89.028266 L -64.657310 -95.705238 L -55.132572 -101.491188 L -45.094535 -106.332237 L -34.636665 -110.183319 L -23.856321 -113.008575 L -12.853872 -114.781700 L -1.731751 -115.486198 L 9.406491 -115.115501 L 20.457159 -113.673065 L 31.317369 -111.172317 L 41.886005 -107.636535 L 52.064682 -103.098648 L 61.758628 -97.600891 L 60.214660 -95.160873 L 50.763065 -100.521186 L 40.838859 -104.945625 L 30.534435 -108.393005 L 19.945730 -110.831245 L 9.171329 -112.237625 L -1.688458 -112.599044 L -12.532526 -111.912162 L -23.259914 -110.183364 L -33.770748 -107.428733 L -43.967174 -103.673934 L -53.754257 -98.953910 L -63.040882 -93.312614 L -71.740585 -86.802558 L -79.772377 -79.484367 L -87.061470 -71.426162 L -93.540016 -62.702968 L -99.147682 -53.395999 L -103.832275 -43.591907 L -107.550178 -33.381969 L -110.266769 -22.861240 L -111.956764 -12.127669 L -112.604415 -1.281188 L -112.203720 9.577220 L -110.758377 20.346464 L -108.281860 30.926279 L -104.797225 41.218170 L -100.336921 51.126308 L -94.942459 60.558456 L -88.664062 69.426795 L -81.560203 77.648765 L -73.696998 85.147804 L -65.147666 91.854110 L -55.991802 97.705238 L -46.314643 102.646728 L -36.206291 106.632553 L -25.760850 109.625610 L -15.075576 111.598045 L -4.249943 112.531486 L 6.615256 112.417236 L 17.418867 111.256370 L 28.060304 109.059692 Z"></path>
</g>
<g id="479f3b3c" stroke="none" fill-opacity="1.000000" fill="#50c423">
<path id="face.000" d="M 19.830135 119.903999 L 8.121532 121.261062 L -3.663462 121.477500 L -15.413999 120.551284 L -27.019546 118.491134 L -38.370937 115.316413 L -49.361404 111.056991 L -59.887557 105.752937 L -69.850395 99.454147 L -79.156196 92.219848 L -87.717430 84.118110 L -95.453567 75.225128 L -102.291847 65.624557 L -108.167930 55.406700 L -113.026565 44.667671 L -116.822029 33.508487 L -119.518623 22.034112 L -121.091003 10.352477 L -121.524353 -1.426537 L -120.814620 -13.192131 L -118.968460 -24.833639 L -116.003257 -36.241550 L -111.946876 -47.308563 L -106.837509 -57.930583 L -100.723175 -68.007690 L -93.661422 -77.445091 L -85.718658 -86.154022 L -76.969604 -94.052558 L -67.496551 -101.066413 L -57.388595 -107.129608 L -46.740833 -112.185111 L -35.653408 -116.185363 L -24.230623 -119.092742 L -12.579912 -120.879898 L -0.810872 -121.530029 L 10.965794 -121.037002 L 22.639314 -119.405464 L 34.099884 -116.650772 L 45.239696 -112.798820 L 55.953971 -107.885856 L 66.141929 -101.958076 L 75.707733 -95.071258 L 73.815040 -92.694480 L 64.488380 -99.409133 L 54.555126 -105.188713 L 44.108703 -109.978851 L 33.247386 -113.734504 L 22.073331 -116.420333 L 10.691650 -118.011077 L -0.790600 -118.491775 L -12.265415 -117.857910 L -23.624856 -116.115425 L -34.762073 -113.280731 L -45.572315 -109.380485 L -55.953884 -104.451377 L -65.809135 -98.539764 L -75.045364 -91.701248 L -83.575698 -84.000175 L -91.319885 -75.508964 L -98.205108 -66.307495 L -104.166564 -56.482322 L -109.148216 -46.125854 L -113.103172 -35.335514 L -115.994247 -24.212797 L -117.794250 -12.862329 L -118.486251 -1.390873 L -118.063728 10.093665 L -116.530662 21.483259 L -113.901473 32.670780 L -110.200897 43.550983 L -105.463745 54.021533 L -99.734550 63.983943 L -93.067237 73.344505 L -85.524505 82.015159 L -77.177291 89.914360 L -68.104141 96.967796 L -58.390373 103.109123 L -48.127368 108.280570 L -37.411666 112.433509 L -26.344057 115.528854 L -15.028649 117.537506 L -3.571876 118.440567 L 7.918494 118.229537 L 19.334381 116.906402 Z"></path>
</g>
<g id="4833f12a" stroke="none" fill-opacity="1.000000" fill="#85d519">
<path id="face.000" d="M 9.681724 127.198341 L -2.749220 127.536636 L -15.154040 126.662971 L -27.414850 124.585624 L -39.415142 121.324356 L -51.040870 116.910148 L -62.181560 111.384941 L -72.731346 104.801261 L -82.589973 97.221656 L -91.663742 88.718162 L -99.866439 79.371574 L -107.120117 69.270729 L -113.355834 58.511611 L -118.514335 47.196456 L -122.546600 35.432800 L -125.414314 23.332426 L -127.090225 11.010323 L -127.558410 -1.416407 L -126.814399 -13.829678 L -124.865295 -26.111528 L -121.729591 -38.145240 L -117.437103 -49.816463 L -112.028610 -61.014278 L -105.555526 -71.632278 L -98.079353 -81.569564 L -89.671134 -90.731697 L -80.410774 -99.031608 L -70.386268 -106.390434 L -59.692901 -112.738235 L -48.432266 -118.014701 L -36.711383 -122.169662 L -24.641637 -125.163665 L -12.337719 -126.968238 L 0.083440 -127.566238 L 12.503808 -126.951988 L 24.805353 -125.131317 L 36.871173 -122.121528 L 48.586612 -117.951240 L 59.840332 -112.660057 L 70.525390 -106.298271 L 80.540252 -98.926330 L 89.789749 -90.614318 L 87.545013 -88.348960 L 78.526748 -96.453186 L 68.762260 -103.640808 L 58.344326 -109.843551 L 47.371944 -115.002456 L 35.949394 -119.068496 L 24.185218 -122.003036 L 12.191213 -123.778190 L 0.081354 -124.377090 L -12.029277 -123.794036 L -24.025596 -122.034576 L -35.793601 -119.115425 L -47.221458 -115.064331 L -58.200580 -109.919784 L -68.626617 -103.730674 L -78.400505 -96.555824 L -87.429351 -88.463409 L -95.627372 -79.530326 L -102.916641 -69.841476 L -109.227905 -59.488922 L -114.501174 -48.571052 L -118.686355 -37.191608 L -121.743659 -25.458740 L -123.644050 -13.483937 L -124.369453 -1.380997 L -123.912971 10.735065 L -122.278961 22.749113 L -119.482940 34.546977 L -115.551475 46.016544 L -110.521942 57.048820 L -104.442108 67.538963 L -97.369781 77.387283 L -89.372146 86.500205 L -80.525222 94.791114 L -70.913070 102.181236 L -60.627025 108.600326 L -49.764850 113.987396 L -38.429759 118.291244 L -26.729480 121.470985 L -14.775189 123.496398 L -2.680490 124.348228 L 9.439682 124.018379 Z"></path>
</g>
<g id="55209bd3" stroke="none" fill-opacity="1.000000" fill="#b9e70e">
<path id="face.000" d="M -1.598112 133.590255 L -14.663897 132.792617 L -27.588909 130.720153 L -40.249061 127.392791 L -52.522823 122.842430 L -64.292358 117.112770 L -75.444686 110.258819 L -85.872734 102.346382 L -95.476402 93.451400 L -104.163482 83.659286 L -111.850593 73.064033 L -118.463928 61.767364 L -123.939987 49.877719 L -128.226226 37.509246 L -131.281478 24.780681 L -133.076416 11.814218 L -133.593811 -1.265662 L -132.828689 -14.333392 L -130.788406 -27.263519 L -127.492553 -39.931915 L -122.972747 -52.216964 L -117.272407 -64.000724 L -110.446228 -75.170066 L -102.559761 -85.617782 L -93.688713 -95.243545 L -83.918251 -103.954978 L -73.342155 -111.668418 L -62.061977 -118.309844 L -50.185997 -123.815483 L -37.828227 -128.132492 L -25.107303 -131.219406 L -12.145347 -133.046600 L 0.933204 -133.596557 L 14.002798 -132.863952 L 26.937963 -130.855850 L 39.614521 -127.591522 L 51.910778 -123.102310 L 63.708686 -117.431312 L 74.894981 -110.632949 L 85.362289 -102.772506 L 95.010108 -93.925445 L 103.745811 -84.176689 L 101.152168 -82.072265 L 92.634849 -91.577301 L 83.228233 -100.203201 L 73.022613 -107.867126 L 62.115970 -114.495529 L 50.613010 -120.024765 L 38.624160 -124.401741 L 26.264514 -127.584465 L 13.652729 -129.542358 L 0.909874 -130.256637 L -11.841713 -129.720443 L -24.479621 -127.938919 L -36.882518 -124.929176 L -48.931346 -120.720100 L -60.510429 -115.352104 L -71.508605 -108.876716 L -81.820289 -101.356101 L -91.346496 -92.862464 L -99.995765 -83.477333 L -107.685073 -73.290817 L -114.340599 -62.400707 L -119.898437 -50.911537 L -124.305244 -38.933616 L -127.518707 -26.581932 L -129.507980 -13.975057 L -130.253967 -1.234020 L -129.749511 11.518862 L -127.999443 24.161165 L -125.020576 36.571514 L -120.841499 48.630779 L -115.502326 60.223182 L -109.054328 71.237434 L -101.559402 81.567810 L -93.089492 91.115119 L -83.725921 99.787719 L -73.558570 107.502349 L -62.685050 114.184959 L -51.209754 119.771369 L -39.242835 124.207969 L -26.899185 127.452163 L -14.297300 129.472793 L -1.558159 130.250503 Z"></path>
</g>
<g id="2e334a80" stroke="none" fill-opacity="1.000000" fill="#eef904">
<path id="face.000" d="M -13.925243 138.937240 L -27.202064 136.958099 L -40.227489 133.713195 L -52.881145 129.232559 L -65.046081 123.557594 L -76.609878 116.740730 L -87.465660 108.844978 L -97.513114 99.943305 L -106.659370 90.117980 L -114.819900 79.459808 L -121.919303 68.067276 L -127.891952 56.045696 L -132.682647 43.506145 L -136.247131 30.564527 L -138.552444 17.340438 L -139.577285 3.956091 L -139.312194 -9.464816 L -137.759613 -22.798252 L -134.933883 -35.920993 L -130.861129 -48.711757 L -125.578987 -61.052341 L -119.136283 -72.828689 L -111.592529 -83.931983 L -103.017478 -94.259582 L -93.490364 -103.716072 L -83.099227 -112.214035 L -71.940109 -119.674942 L -60.116142 -126.029846 L -47.736591 -131.220001 L -34.915874 -135.197463 L -21.772468 -137.925460 L -8.427846 -139.378784 L 4.994661 -139.543991 L 18.371011 -138.419570 L 31.577579 -136.015914 L 44.492313 -132.355224 L 56.995864 -127.471343 L 68.972671 -121.409400 L 80.312042 -114.225425 L 90.909202 -105.985794 L 100.666191 -96.766677 L 109.492851 -86.653266 L 117.307594 -75.739013 L 114.374908 -73.845550 L 106.755531 -84.486930 L 98.149536 -94.347518 L 88.636474 -103.336151 L 78.304244 -111.369789 L 67.248352 -118.374168 L 55.570968 -124.284561 L 43.380004 -129.046356 L 30.788141 -132.615509 L 17.911737 -134.959075 L 4.869795 -136.055389 L -8.217150 -135.894302 L -21.228157 -134.477325 L -34.042976 -131.817520 L -46.543178 -127.939506 L -58.613239 -122.879096 L -70.141609 -116.683067 L -81.021751 -109.408691 L -91.153106 -101.123168 L -100.442047 -91.903099 L -108.802719 -81.833686 L -116.157875 -71.007980 L -122.439514 -59.526035 L -127.589614 -47.493965 L -131.560546 -35.022968 L -134.315628 -22.228296 L -135.829391 -9.228195 L -136.087860 3.857189 L -135.088638 16.906927 L -132.840957 29.800416 L -129.365585 42.418495 L -124.694656 54.644554 L -118.871322 66.365600 L -111.949409 77.473312 L -103.992889 87.865028 L -95.075286 97.444717 L -85.279022 106.123855 L -74.694633 113.822219 L -63.419929 120.468650 L -51.559116 126.001754 L -39.221805 130.370376 L -26.522012 133.534149 L -13.577112 135.463821 Z"></path>
</g>
<g id="54b5d399" stroke="none" fill-opacity="1.000000" fill="#ffed00">
<path id="face.000" d="M -27.199216 143.105026 L -40.882816 139.812164 L -54.184757 135.214126 L -66.980873 129.353805 L -79.151710 122.285949 L -90.583633 114.076507 L -101.169937 104.802146 L -110.811798 94.549415 L -119.419197 83.414039 L -126.911781 71.499977 L -133.219604 58.918437 L -138.283798 45.786884 L -142.057067 32.227893 L -144.504196 18.368045 L -145.602325 4.336726 L -145.341232 -9.735075 L -143.723342 -23.715999 L -140.763748 -37.475524 L -136.490081 -50.885208 L -130.942245 -63.819866 L -124.172019 -76.158737 L -116.242630 -87.786659 L -107.228073 -98.595062 L -97.212516 -108.483055 L -86.289443 -117.358329 L -74.560844 -125.138031 L -62.136199 -131.749526 L -49.131496 -137.131118 L -35.668136 -141.232528 L -21.871803 -144.015518 L -7.871289 -145.454071 L 6.202703 -145.534774 L 20.218793 -144.256881 L 34.046131 -141.632293 L 47.555644 -137.685531 L 60.621208 -132.453445 L 73.120864 -125.984863 L 84.937904 -118.340179 L 95.962036 -109.590751 L 106.090332 -99.818275 L 115.228240 -89.113960 L 123.290473 -77.577743 L 130.201736 -65.317314 L 126.946701 -63.684383 L 120.208213 -75.638298 L 112.347541 -86.886108 L 103.438072 -97.322814 L 93.562988 -106.850990 L 82.814460 -115.381675 L 71.292839 -122.835243 L 59.105682 -129.142105 L 46.366752 -134.243408 L 33.194980 -138.091491 L 19.713323 -140.650451 L 6.047636 -141.896408 L -7.674508 -141.817733 L -21.325008 -140.415130 L -34.776432 -137.701736 L -47.903213 -133.702835 L -60.582798 -128.455795 L -72.696830 -122.009582 L -84.132217 -114.424369 L -94.782203 -105.770980 L -104.547378 -96.130187 L -113.336570 -85.591995 L -121.067726 -74.254783 L -127.668685 -62.224369 L -133.077835 -49.613079 L -137.244659 -36.538639 L -140.130264 -23.123098 L -141.707702 -9.491699 L -141.962280 4.228308 L -140.891586 17.908843 L -138.505630 31.422195 L -134.826705 44.642211 L -129.889114 57.445480 L -123.738990 69.712478 L -116.433715 81.328689 L -108.041503 92.185676 L -98.640693 102.182090 L -88.319046 111.224601 L -77.172920 119.228797 L -65.306358 126.119972 L -52.830142 131.833770 L -39.860748 136.316864 L -26.519237 139.527404 Z"></path>
</g>
<g id="6b429ed9" stroke="none" fill-opacity="1.000000" fill="#ffd300">
<path id="face.000" d="M -41.304050 145.969161 L -55.266845 141.274887 L -68.708518 135.248504 L -81.502319 127.946830 L -93.527603 119.438713 L -104.670997 109.804374 L -114.827423 99.134666 L -123.901115 87.530181 L -131.806503 75.100364 L -138.469055 61.962394 L -143.825942 48.240173 L -147.826675 34.063079 L -150.433502 19.564798 L -151.621841 4.882035 L -151.380523 -9.846761 L -149.711776 -24.482713 L -146.631362 -38.887809 L -142.168334 -52.926219 L -136.364761 -66.465583 L -129.275360 -79.378211 L -120.966987 -91.542373 L -111.517990 -102.843353 L -101.017463 -113.174598 L -89.564414 -122.438697 L -77.266838 -130.548278 L -64.240699 -137.426895 L -50.608814 -143.009674 L -36.499725 -147.243972 L -22.046468 -150.089874 L -7.385332 -151.520538 L 7.345441 -151.522491 L 22.006954 -150.095672 L 36.460960 -147.253585 L 50.571163 -143.022994 L 64.204521 -137.443801 L 77.232467 -130.568618 L 89.532180 -122.462265 L 100.987663 -113.201194 L 111.490913 -102.872711 L 120.942886 -91.574218 L 129.254455 -79.412246 L 136.347244 -66.501480 L 142.154388 -52.963649 L 138.600540 -51.639556 L 132.938568 -64.838943 L 126.023094 -77.426948 L 117.919319 -89.284866 L 108.703643 -100.300903 L 98.462974 -110.371170 L 87.293876 -119.400711 L 75.301658 -127.304405 L 62.599403 -134.007705 L 49.306884 -139.447418 L 35.549434 -143.572250 L 21.456781 -146.343292 L 7.161806 -147.734420 L -7.200699 -147.732543 L -21.495307 -146.337631 L -35.587230 -143.562881 L -49.343593 -139.434432 L -62.634681 -133.991226 L -75.335174 -127.284576 L -87.325302 -119.377723 L -98.492027 -110.345245 L -108.730041 -100.272270 L -117.942817 -89.253822 L -126.043472 -77.393760 L -132.955642 -64.803939 L -138.614120 -51.603069 L -142.965591 -37.915615 L -145.968978 -23.870645 L -147.596008 -9.600593 L -147.831298 4.759984 L -146.672668 19.075679 L -144.131011 33.211505 L -140.230300 47.034172 L -135.007339 60.413341 L -128.511352 73.222854 L -120.803588 85.341934 L -111.956741 96.656303 L -102.054229 107.059272 L -91.189414 116.452751 L -79.464752 124.748161 L -66.990798 131.867309 L -53.885173 137.743011 L -40.271450 142.319931 Z"></path>
</g>
<g id="45a825c8" stroke="none" fill-opacity="1.000000" fill="#ffb900">
<path id="face.000" d="M -56.109424 147.416870 L -70.211441 141.245727 L -83.644790 133.729400 L -96.281517 124.939468 L -108.001304 114.959655 L -118.692504 103.884994 L -128.253326 91.820960 L -136.592681 78.882453 L -143.631179 65.192695 L -149.301773 50.882057 L -153.550460 36.086833 L -156.336776 20.947927 L -157.634185 5.609522 L -157.430328 -9.782307 L -155.727157 -25.080972 L -152.540878 -40.140773 L -147.901855 -54.818286 L -141.854248 -68.973731 L -134.455657 -82.472282 L -125.776565 -95.185386 L -115.899604 -106.991981 L -104.918846 -117.779617 L -92.938873 -127.445549 L -80.073783 -135.897720 L -66.446090 -143.055648 L -52.185581 -148.851165 L -37.428073 -153.229049 L -22.314113 -156.147644 L -6.987637 -157.579101 L 8.405385 -157.509841 L 23.718358 -155.940505 L 38.805442 -152.886032 L 53.522960 -148.375518 L 67.730735 -142.451919 L 81.293472 -135.171646 L 94.081977 -126.604042 L 105.974487 -116.830696 L 116.857719 -105.944686 L 126.628036 -94.049690 L 135.192382 -81.258995 L 142.469192 -67.694412 L 148.389160 -53.485118 L 152.895919 -38.766456 L 149.073532 -37.797294 L 144.679443 -52.147994 L 138.907455 -66.002052 L 131.812576 -79.227516 L 123.462333 -91.698455 L 113.936279 -103.296073 L 103.325126 -113.909934 L 91.729934 -123.438949 L 79.261131 -131.792373 L 66.037475 -138.890625 L 52.184886 -144.666137 L 37.835308 -149.063888 L 23.125400 -152.042007 L 8.195251 -153.572097 L -6.812946 -153.639633 L -21.756259 -152.243942 L -36.492374 -149.398330 L -50.880943 -145.129882 L -64.784934 -139.479263 L -78.071945 -132.500289 L -90.615409 -124.259414 L -102.295883 -114.835128 L -113.002120 -104.317192 L -122.632156 -92.805755 L -131.094268 -80.410476 L -138.307891 -67.249389 L -144.204315 -53.447834 L -148.727355 -39.137256 L -151.833984 -24.453948 L -153.494583 -9.537749 L -153.693344 5.469284 L -152.428359 20.424230 L -149.711700 35.184661 L -145.569244 49.610008 L -140.040405 63.562873 L -133.177871 76.910392 L -125.046997 89.525436 L -115.725196 101.287872 L -105.301269 112.085662 L -93.874481 121.815986 L -81.553672 130.386169 L -68.456153 137.714584 L -54.706687 143.731460 Z"></path>
</g>
<g id="68673bc6" stroke="none" fill-opacity="1.000000" fill="#ff9e00">
<path id="face.000" d="M -71.471633 147.348571 L -85.561676 139.638793 L -98.828727 130.585906 L -111.145195 120.276939 L -122.392578 108.811080 L -132.462722 96.298606 L -141.258758 82.859870 L -148.696075 68.624137 L -154.703140 53.728332 L -159.222167 38.315742 L -162.209701 22.534599 L -163.636993 6.536704 L -163.490325 -9.524063 L -161.771102 -25.493221 L -158.495864 -41.217174 L -153.696105 -56.544666 L -147.418014 -71.328285 L -139.721954 -85.425819 L -130.681961 -98.701667 L -120.384986 -111.028144 L -108.930068 -122.286682 L -96.427398 -132.369003 L -82.997230 -141.178100 L -68.768737 -148.629257 L -53.878784 -154.650802 L -38.470588 -159.184829 L -22.692361 -162.187698 L -6.695863 -163.630554 L 9.365039 -163.499511 L 25.335861 -161.795822 L 41.062988 -158.535888 L 56.395145 -153.751037 L 71.184860 -147.487319 L 85.289871 -139.804977 L 98.574516 -130.777908 L 110.910995 -120.492919 L 122.180679 -109.048957 L 132.275146 -96.556106 L 141.097305 -83.134506 L 148.562301 -68.913269 L 154.598327 -54.029178 L 159.147323 -38.625404 L 162.165557 -22.850101 L 158.111419 -22.278850 L 155.168655 -37.659767 L 150.733367 -52.678451 L 144.848236 -67.190437 L 137.569869 -81.056144 L 128.968261 -94.142204 L 119.126159 -106.322746 L 108.138229 -117.480598 L 96.110160 -127.508453 L 83.157630 -136.309860 L 69.405242 -143.800140 L 54.985271 -149.907272 L 40.036415 -154.572494 L 24.702466 -157.750930 L 9.130913 -159.412033 L -6.528467 -159.539810 L -22.125051 -158.133010 L -37.508823 -155.205215 L -52.531814 -150.784545 L -67.049522 -144.913528 L -80.922302 -137.648651 L -94.016716 -129.059768 L -106.206817 -119.229522 L -117.375366 -108.252449 L -127.414909 -96.234123 L -136.228912 -83.290168 L -143.732559 -69.545074 L -149.853713 -55.131053 L -154.533477 -40.186744 L -157.726821 -24.855890 L -159.403076 -9.285962 L -159.546066 6.373287 L -158.154464 21.971233 L -155.241622 37.357845 L -150.835556 52.385131 L -144.978668 66.908538 L -137.727294 80.788375 L -129.151153 93.891143 L -119.332771 106.090805 L -108.366561 117.270019 L -96.358016 127.321250 L -83.422637 136.147827 L -69.684844 143.664855 Z"></path>
</g>
<g id="b7c0215" stroke="none" fill-opacity="1.000000" fill="#ff8400">
<path id="face.000" d="M -87.235038 145.679244 L -100.839012 136.615859 L -113.508422 126.286331 L -125.125854 114.786407 L -135.583648 102.222656 L -144.784881 88.711532 L -152.644271 74.378242 L -159.088989 59.355636 L -164.059295 43.782928 L -167.509140 27.804449 L -169.406524 11.568284 L -169.733901 -4.775093 L -168.488204 -21.074216 L -165.680999 -37.178028 L -161.338287 -52.937278 L -155.500320 -68.205917 L -148.221221 -82.842437 L -139.568420 -96.711189 L -129.622131 -109.683639 L -118.474533 -121.639572 L -106.228935 -132.468154 L -92.998825 -142.069061 L -78.906814 -150.353286 L -64.083511 -157.244079 L -48.666301 -162.677566 L -32.798057 -166.603378 L -16.625848 -168.985153 L -0.299554 -169.800796 L 16.029514 -169.042755 L 32.210025 -166.718063 L 48.092021 -162.848266 L 63.528308 -157.469207 L 78.375831 -150.630767 L 92.496978 -142.396301 L 105.760879 -132.842147 L 118.044616 -122.056823 L 129.234329 -110.140312 L 139.226333 -97.203025 L 147.928009 -83.364891 L 155.258697 -68.754142 L 161.150497 -53.506198 L 165.548782 -37.762367 L 168.412796 -21.668560 L 169.716003 -5.373935 L 165.473098 -5.239586 L 164.202484 -21.126848 L 161.410079 -36.818309 L 157.121749 -52.168544 L 151.377243 -67.035293 L 144.229797 -81.280769 L 135.745666 -94.772949 L 126.003471 -107.386802 L 115.093505 -119.005409 L 103.116859 -129.521087 L 90.184555 -138.836395 L 76.416435 -146.865005 L 61.940105 -153.532485 L 46.889724 -158.777053 L 31.404777 -162.550109 L 15.628778 -164.816696 L -0.292065 -165.555786 L -16.210203 -164.760513 L -31.978107 -162.438293 L -47.449645 -158.610626 L -62.481430 -153.312988 L -76.934143 -146.594467 L -90.673851 -138.517333 L -103.573211 -129.156463 L -115.512672 -118.598587 L -126.381584 -106.941558 L -136.079208 -94.293411 L -144.515686 -80.771377 L -151.612823 -66.500770 L -157.304840 -51.613845 L -161.538970 -36.248577 L -164.276016 -20.547361 L -165.490554 -4.655715 L -165.171371 11.279077 L -163.321411 27.109338 L -159.957824 42.688354 L -155.111770 57.871746 L -148.828170 72.518791 L -141.165267 86.493743 L -132.194061 99.667091 L -121.997718 111.916748 L -110.670715 123.129165 L -98.318038 133.200469 L -85.054176 142.037277 Z"></path>
</g>
<g id="2b94f47f" stroke="none" fill-opacity="1.000000" fill="#ff6a00">
<path id="face.000" d="M -103.233589 142.339843 L -116.504798 131.698272 L -128.685607 119.824111 L -139.662033 106.828483 L -149.331298 92.833007 L -157.602935 77.968688 L -164.399536 62.374641 L -169.657485 46.196815 L -173.327545 29.586614 L -175.375381 12.699507 L -175.781845 -4.306456 L -174.543121 -21.272115 L -171.670791 -38.038684 L -167.191757 -54.449237 L -161.147933 -70.350189 L -153.595870 -85.592712 L -144.606277 -100.034141 L -134.263259 -113.539337 L -122.663650 -125.981880 L -109.915992 -137.245330 L -96.139587 -147.224258 L -81.463409 -155.825286 L -66.024780 -162.967880 L -49.968204 -168.585235 L -33.443973 -172.624755 L -16.606725 -175.048629 L 0.385948 -175.834182 L 17.375011 -174.974029 L 34.201454 -172.476272 L 50.707798 -168.364257 L 66.739555 -162.676467 L 82.146675 -155.466171 L 96.784973 -146.800796 L 110.517417 -136.761489 L 123.215515 -125.442192 L 134.760391 -112.948844 L 145.044021 -99.398368 L 153.970138 -84.917617 L 161.455200 -69.642082 L 167.429168 -53.714759 L 171.836120 -37.284702 L 174.634826 -20.505685 L 175.799072 -3.534751 L 175.317947 13.469264 L 170.935012 13.132534 L 171.404083 -3.446382 L 170.268951 -19.993043 L 167.540222 -36.352584 L 163.243453 -52.371891 L 157.418823 -67.901031 L 150.120895 -82.794677 L 141.417922 -96.913421 L 131.391387 -110.125122 L 120.135124 -122.306137 L 107.754486 -133.342453 L 94.365348 -143.130783 L 80.093009 -151.579513 L 65.071067 -158.609573 L 49.440105 -164.155151 L 33.346420 -168.164367 L 16.940635 -170.599685 L 0.376299 -171.438323 L -16.191556 -170.672409 L -32.607872 -168.309127 L -48.719001 -164.370620 L -64.374160 -158.893692 L -79.426826 -151.929656 L -93.736106 -143.543655 L -107.168090 -133.814193 L -119.597061 -122.832336 L -130.906677 -110.700859 L -140.991119 -97.533294 L -149.755981 -83.452896 L -157.119247 -68.591438 L -163.011962 -53.088005 L -167.379043 -37.087718 L -170.179550 -20.740314 L -171.387298 -4.198795 L -170.990997 12.382020 L -168.994354 28.846950 L -165.416046 45.041893 L -160.289550 60.815273 L -153.662872 76.019470 L -145.598022 90.512191 L -136.170486 104.157768 L -125.468475 116.828514 L -113.592178 128.405822 L -100.652748 138.781356 Z"></path>
</g>
<g id="389789cf" stroke="none" fill-opacity="1.000000" fill="#ff4f00">
<path id="face.000" d="M -119.292297 137.278427 L -132.058624 125.046157 L -143.576828 111.632049 L -153.738052 97.162895 L -162.446289 81.775428 L -169.619216 65.615089 L -175.189041 48.834613 L -179.103118 31.592594 L -181.324447 14.051983 L -181.832077 -3.621432 L -180.621170 -21.260622 L -177.703155 -38.698875 L -173.105667 -55.771373 L -166.872116 -72.316772 L -159.061416 -88.178688 L -149.747421 -103.207214 L -139.018112 -117.260314 L -126.974937 -130.205154 L -113.731689 -141.919418 L -99.413551 -152.292373 L -84.155838 -161.225967 L -68.102745 -168.635803 L -51.406002 -174.451828 L -34.223415 -178.619079 L -16.717374 -181.098159 L 0.946663 -181.865676 L 18.601755 -180.914321 L 36.081035 -178.253128 L 53.219310 -173.907226 L 69.854598 -167.917694 L 85.829681 -160.341156 L 100.993576 -151.249191 L 115.202957 -140.727737 L 128.323532 -128.876251 L 140.231307 -115.806732 L 150.813720 -101.642707 L 159.970779 -86.518035 L 167.615905 -70.575660 L 173.676895 -53.966270 L 178.096405 -36.846832 L 180.832702 -19.379148 L 181.859909 -1.728309 L 181.168350 15.938863 L 178.764526 33.455398 L 174.295425 32.619010 L 176.639144 15.540393 L 177.313430 -1.685101 L 176.311889 -18.894670 L 173.643997 -35.925662 L 169.334960 -52.617115 L 163.425521 -68.811271 L 155.971511 -84.355079 L 147.043380 -99.101638 L 136.725524 -112.911567 L 125.115447 -125.654342 L 112.322883 -137.209548 L 98.468734 -147.467971 L 83.683944 -156.332626 L 68.108238 -163.719757 L 51.888828 -169.559539 L 35.179012 -173.796798 L 18.136711 -176.391464 L 0.922997 -177.319030 L -16.299440 -176.570724 L -33.367832 -174.153610 L -50.120853 -170.090545 L -66.400177 -164.419906 L -82.051940 -157.195327 L -96.928215 -148.485061 L -110.888412 -138.371429 L -123.800567 -126.950027 L -135.542663 -114.328804 L -146.003738 -100.627037 L -155.084899 -85.974220 L -162.700317 -70.508850 L -168.778030 -54.377090 L -173.260589 -37.731399 L -176.105636 -20.729106 L -177.286285 -3.530896 L -176.791351 13.700684 L -174.625549 30.802778 L -170.809310 47.613746 L -165.378738 63.974716 L -158.385131 79.731040 L -149.894622 94.733825 L -139.987396 108.841247 L -128.757156 121.919998 L -116.309997 133.846466 Z"></path>
</g>
<g id="2c8733f5" stroke="none" fill-opacity="1.000000" fill="#ff3500">
<path id="face.000" d="M -135.229110 130.461212 L -147.313491 116.643783 L -157.992004 101.713157 L -167.162704 85.811828 L -174.738067 69.091552 L -180.645843 51.711898 L -184.829589 33.838733 L -187.249435 15.642622 L -187.882232 -2.702771 L -186.721984 -21.022371 L -183.779739 -39.141345 L -179.083587 -56.886772 L -172.678359 -74.089294 L -164.625152 -90.584747 L -155.000839 -106.215698 L -143.897277 -120.832984 L -131.420440 -134.297088 L -117.689376 -146.479522 L -102.835128 -157.264022 L -86.999481 -166.547668 L -70.333549 -174.241882 L -52.996387 -180.273193 L -35.153453 -184.584045 L -16.975028 -187.133346 L 1.365396 -187.896713 L 19.692790 -186.866882 L 37.832248 -184.053680 L 55.610652 -179.483963 L 72.858329 -173.201339 L 89.410682 -165.265747 L 105.109748 -155.752944 L 119.805694 -144.753707 L 133.358261 -132.373001 L 145.638122 -118.728996 L 156.528091 -103.951896 L 165.924209 -88.182731 L 173.736846 -71.571983 L 179.891403 -54.278194 L 184.329162 -36.466392 L 187.007766 -18.306575 L 187.901672 0.027952 L 187.002319 18.362213 L 184.318298 36.521232 L 179.875244 54.331710 L 175.378372 52.973423 L 179.710357 35.608203 L 182.327270 17.903158 L 183.204132 0.027253 L 182.332580 -17.848911 L 179.720932 -35.554733 L 175.394119 -52.921241 L 169.393417 -69.782684 L 161.776123 -85.978164 L 152.614883 -101.353103 L 141.997161 -115.760780 L 130.024307 -129.063674 L 116.810546 -141.134872 L 102.482002 -151.859130 L 87.175422 -161.134109 L 71.036872 -168.871307 L 54.220386 -174.996871 L 36.886444 -179.452346 L 19.200471 -182.195205 L 1.331261 -183.199295 L -16.550655 -182.455017 L -34.274616 -179.969467 L -51.671482 -175.766357 L -68.575210 -169.885833 L -84.824501 -162.383987 L -100.264259 -153.332427 L -114.747138 -142.817535 L -128.134933 -130.939666 L -140.299865 -117.812156 L -151.125839 -103.560310 L -160.509536 -88.320129 L -168.361404 -72.237068 L -174.606506 -55.464603 L -179.185256 -38.162811 L -182.053939 -20.496812 L -183.185180 -2.635202 L -182.568191 15.251557 L -180.208862 32.992763 L -176.129699 50.419101 L -170.369628 67.364265 L -162.983642 83.666534 L -154.042205 99.170326 L -143.630661 113.727691 L -131.848373 127.199684 Z"></path>
</g>
<g id="79b3ec31" stroke="none" fill-opacity="1.000000" fill="#ff1a00">
<path id="face.000" d="M -150.856781 121.873298 L -161.841079 106.856575 L -171.335876 90.856399 L -179.253738 74.020011 L -185.521820 56.502372 L -190.082443 38.464702 L -192.893600 20.073019 L -193.929428 1.496590 L -193.180419 -17.093612 L -190.653442 -35.526493 L -186.371749 -53.632400 L -180.374771 -71.244689 L -172.717681 -88.201271 L -163.470977 -104.346084 L -152.719741 -119.530532 L -140.562927 -133.614868 L -127.112403 -146.469467 L -112.492004 -157.975997 L -96.836257 -168.028579 L -80.289276 -176.534698 L -63.003341 -183.416046 L -45.137542 -188.609298 L -26.856313 -192.066665 L -8.327911 -193.756317 L 10.277139 -193.662704 L 28.787601 -191.786697 L 47.033115 -188.145568 L 64.845748 -182.772796 L 82.061576 -175.717864 L 98.522132 -167.045669 L 114.075920 -156.836059 L 128.579803 -145.182983 L 141.900283 -132.193695 L 153.914764 -117.987762 L 164.512664 -102.695899 L 173.596466 -86.458854 L 181.082534 -69.426086 L 186.901992 -51.754337 L 191.001281 -33.606262 L 193.342636 -15.148890 L 193.904556 3.447906 L 192.681838 22.012971 L 189.685760 40.375438 L 184.943893 58.366302 L 178.499847 75.819984 L 174.037353 73.924484 L 180.320297 56.907150 L 184.943634 39.366050 L 187.864807 21.462648 L 189.056961 3.361709 L 188.509078 -14.770169 L 186.226242 -32.766109 L 182.229446 -50.460483 L 176.555480 -67.690437 L 169.256561 -84.297393 L 160.399856 -100.128501 L 150.066894 -115.038070 L 138.352783 -128.888870 L 125.365310 -141.553421 L 111.224021 -152.915161 L 96.059082 -162.869537 L 80.010032 -171.324920 L 63.224609 -178.203491 L 45.857288 -183.441925 L 28.067913 -186.992050 L 10.020211 -188.821151 L -8.119713 -188.912414 L -26.184907 -187.265014 L -44.009101 -183.894073 L -61.428260 -178.830642 L -78.282051 -172.121337 L -94.415359 -163.827865 L -109.679702 -154.026611 L -123.934600 -142.807723 L -137.048858 -130.274505 L -148.901748 -116.542266 L -159.384216 -101.737434 L -168.399749 -85.996246 L -175.865417 -69.463577 L -181.712463 -52.291591 L -185.887115 -34.638332 L -188.350921 -16.666273 L -189.081207 1.459176 L -188.071258 19.571193 L -185.330383 37.503086 L -180.883789 55.089813 L -174.772399 72.169517 L -167.052474 88.584991 L -157.795059 104.185173 L -147.085357 118.826461 Z"></path>
</g>
<g id="2ca62bc9" stroke="none" fill-opacity="1.000000" fill="#ff0000">
<path id="face.000" d="M -165.984756 111.519325 L -175.951354 95.019050 L -184.282882 77.635795 L -190.901947 59.531101 L -195.746994 40.873191 L -198.773010 21.835466 L -199.951904 2.594826 L -199.272705 -16.669923 L -196.741729 -35.779766 L -192.382492 -54.557117 L -186.235488 -72.827484 L -178.357864 -90.421096 L -168.822814 -107.174446 L -157.718933 -122.931846 L -145.149429 -137.546890 L -131.231079 -150.883743 L -116.093246 -162.818481 L -99.876594 -173.240188 L -82.731819 -182.052047 L -64.818244 -189.172134 L -46.302326 -194.534301 L -27.356140 -198.088714 L -8.155739 -199.802352 L 11.120450 -199.659301 L 30.293298 -197.660858 L 49.184642 -193.825622 L 67.618934 -188.189224 L 85.424850 -180.804016 L 102.436950 -171.738677 L 118.497131 -161.077407 L 133.456146 -148.919296 L 147.175003 -135.377334 L 159.526199 -120.577323 L 170.394973 -104.656852 L 179.680313 -87.763816 L 187.295928 -70.055221 L 193.171066 -51.695629 L 197.251129 -32.855644 L 199.498184 -13.710341 L 199.891372 5.562369 L 198.427032 24.783390 L 195.118743 43.774105 L 189.997299 62.358039 L 183.110275 80.362503 L 174.521636 97.620178 L 170.158599 95.179679 L 178.532516 78.353446 L 185.247375 60.799091 L 190.240783 42.679752 L 193.466354 24.163806 L 194.894088 5.423310 L 194.510742 -13.367583 L 192.319854 -32.034255 L 188.341796 -50.403240 L 182.613540 -68.303848 L 175.188308 -85.569725 L 166.135101 -102.040428 L 155.538040 -117.562896 L 143.495635 -131.992889 L 130.119750 -145.196319 L 115.534706 -157.050476 L 99.876022 -167.445220 L 83.289230 -176.283935 L 65.928459 -183.484497 L 47.955028 -188.979995 L 29.535966 -192.719345 L 10.842438 -194.667831 L -7.951846 -194.807312 L -26.672235 -193.136520 L -45.144771 -189.670944 L -63.197784 -184.442825 L -80.663528 -177.500747 L -97.379684 -168.909194 L -113.190917 -158.748031 L -127.950309 -147.111663 L -141.520690 -134.108215 L -153.775970 -119.858558 L -164.602249 -104.495086 L -173.898910 -88.160568 L -181.579605 -71.006797 L -187.572937 -53.193191 L -191.823181 -34.885272 L -194.290893 -16.253177 L -194.953125 2.529956 L -193.803695 21.289579 L -190.853317 39.851364 L -186.129394 58.042819 L -179.675827 75.694900 L -171.552581 92.643577 L -161.835144 108.731346 Z"></path>
</g>
</g>

</g>
</svg>
