<svg xmlns="http://www.w3.org/2000/svg" xmlns:xlink="http://www.w3.org/1999/xlink" width="720" height="405" viewBox="0 0 720 405">
<path id="background" d="M 0.0 0.0 L 720.0 0.0 L 720.0 405.0 L 0.0 405.0 Z" stroke="none" fill-opacity="1.000000" fill="#202020"></path>
<g transform="translate(360.000000, 202.500000) scale(1.000000, -1.000000) rotate(0.0) translate(0.0, 0.0)">
<g id="32d2fa64" class="meshentity2" transform="translate(0.0, 0.0) rotate(0.0) scale(1.000000, 1.000000)">
<g id="86b2fb1" class="materialsolid" stroke="none" fill-opacity="1.000000" fill="#ff0000">
<g id="arc" class="mesh2"><path id="face.000" fill-rule="evenodd" d="M 24.996093 0.0 L 24.876976 2.437372 L 24.520757 4.851513 L 23.930831 7.219416 L 23.112825 9.518510 L 22.074529 11.726885 L 20.825843 13.823492 L 19.378669 15.788347 L 17.746797 17.602725 L 15.945781 19.249332 L 13.992787 20.712474 L 11.906428 21.978208 L 9.706590 23.034469 L 7.414240 23.871191 L 5.051225 24.480398 L 2.640067 24.856281 L 0.203746 24.995264 L -2.234515 24.896017 L -4.651480 24.559488 L -7.024113 23.988883 L -9.329798 23.189643 L -11.546563 22.169384 L -13.653278 20.937828 L -15.629864 19.506717 L -17.457483 17.889688 L -19.118715 16.102155 L -20.597730 14.161152 L -21.880428 12.085180 L -22.954584 9.894025 L -23.809963 7.608571 L -24.438409 5.250600 L -24.833936 2.842586 L -24.992773 0.407479 L -24.913404 -2.031510 L -24.596586 -4.451138 L -24.045341 -6.828342 L -23.264921 -9.140467 L -22.262763 -11.365473 L -21.048423 -13.482157 L -19.633470 -15.470343 L -18.031393 -17.311082 L -16.257459 -18.986829 L -14.328577 -20.481616 L -12.263129 -21.781192 L -10.080802 -22.873174 L -7.802397 -23.747152 L -5.449626 -24.394800 L -3.044916 -24.809942 L -0.611185 -24.988620 L 1.828370 -24.929136 L 4.250500 -24.632051 L 6.632119 -24.100200 L 8.950528 -23.338653 L 11.183629 -22.354665 L 13.310140 -21.157619 L 15.309793 -19.758920 L 14.927049 -19.264947 L 12.977387 -20.628679 L 10.904039 -21.795801 L 8.726764 -22.755187 L 6.466316 -23.497697 L 4.144237 -24.016250 L 1.782661 -24.305906 L -0.595906 -24.363904 L -2.968793 -24.189693 L -5.313386 -23.784931 L -7.607337 -23.153474 L -9.828783 -22.301345 L -11.956551 -21.236663 L -13.970362 -19.969575 L -15.851023 -18.512161 L -17.580610 -16.878305 L -19.142633 -15.083584 L -20.522214 -13.145103 L -21.706195 -11.081337 L -22.683298 -8.911955 L -23.444208 -6.657635 L -23.981672 -4.339859 L -24.290569 -1.980722 L -24.367952 0.397292 L -24.213088 2.771521 L -23.827449 5.119335 L -23.214714 7.418357 L -22.380722 9.646675 L -21.333415 11.783051 L -20.082786 13.807124 L -18.640748 15.699602 L -17.021045 17.442447 L -15.239117 19.019050 L -13.311945 20.414382 L -11.257899 21.615148 L -9.096554 22.609903 L -6.848510 23.389162 L -4.535193 23.945501 L -2.178652 24.273616 L 0.198652 24.370382 L 2.574065 24.234874 L 4.924944 23.868387 L 7.228884 23.274412 L 9.463926 22.458608 L 11.608768 21.428754 L 13.642967 20.194664 L 15.547136 18.768098 L 17.303127 17.162656 L 18.894203 15.393637 L 20.305196 13.477904 L 21.522666 11.433713 L 22.535005 9.280548 L 23.332561 7.038931 L 23.907737 4.730226 L 24.255052 2.376438 L 24.371192 0.0 Z"></path>
</g>
</g>
<g id="7c945f2" class="materialsolid" stroke="none" fill-opacity="1.000000" fill="#e5001a">
<g id="arc" class="mesh2"><path id="face.000" fill-rule="evenodd" d="M 28.764238 11.638586 L 27.487621 14.396831 L 25.947282 17.016950 L 24.157999 19.473808 L 22.136940 21.743827 L 19.903493 23.805233 L 17.479087 25.638244 L 14.886984 27.225278 L 12.152053 28.551107 L 9.300532 29.603008 L 6.359779 30.370895 L 3.358010 30.847396 L 0.324023 31.027940 L -2.713072 30.910795 L -5.724138 30.497085 L -8.680286 29.790782 L -11.553152 28.798658 L -14.315176 27.530235 L -16.939855 25.997678 L -19.402013 24.215696 L -21.678022 22.201383 L -23.746046 19.974067 L -25.586248 17.555114 L -27.180967 14.967733 L -28.514909 12.236748 L -29.575271 9.388362 L -30.351882 6.449902 L -30.837293 3.449560 L -31.026842 0.416123 L -30.918714 -2.621306 L -30.513944 -5.633587 L -29.816417 -8.591818 L -28.832824 -11.467617 L -27.572605 -14.233394 L -26.047849 -16.862611 L -24.273183 -19.330047 L -22.265634 -21.612024 L -20.044464 -23.686653 L -17.630985 -25.534025 L -15.048349 -27.136419 L -12.321337 -28.478460 L -9.476110 -29.547273 L -6.539968 -30.332603 L -3.541080 -30.826917 L -0.508219 -31.025470 L 2.529518 -30.926357 L 5.542987 -30.530532 L 8.503275 -29.841789 L 11.381980 -28.866737 L 14.151486 -27.614734 L 16.785219 -26.097787 L 19.257909 -24.330453 L 21.545837 -22.329689 L 21.007192 -21.771446 L 18.776462 -23.722192 L 16.365589 -25.445343 L 13.797699 -26.924365 L 11.097432 -28.145069 L 8.290694 -29.095745 L 5.404412 -29.767269 L 2.466280 -30.153200 L -0.495513 -30.249834 L -3.452553 -30.056243 L -6.376470 -29.574289 L -9.239208 -28.808591 L -12.013303 -27.766500 L -14.672141 -26.458009 L -17.190210 -24.895675 L -19.543354 -23.094486 L -21.708993 -21.071725 L -23.666353 -18.846796 L -25.396654 -16.441047 L -26.883291 -13.877559 L -28.112005 -11.180927 L -29.071008 -8.377023 L -29.751094 -5.492748 L -30.145746 -2.555774 L -30.251171 0.405719 L -30.066360 3.363321 L -29.593088 6.288655 L -28.835891 9.153654 L -27.802038 11.930830 L -26.501445 14.593540 L -24.946592 17.116237 L -23.152397 19.474716 L -21.136072 21.646348 L -18.916961 23.610305 L -16.516361 25.347740 L -13.957297 26.841978 L -11.264323 28.078693 L -8.463279 29.046014 L -5.581035 29.734661 L -2.645245 30.138027 L 0.315922 30.252243 L 3.274059 30.076211 L 6.200785 29.611623 L 9.068018 28.862934 L 11.848252 27.837329 L 14.514811 26.544645 L 17.042110 24.997287 L 19.405906 23.210102 L 21.583517 21.200233 L 23.554048 18.986963 L 25.298601 16.591529 L 26.800432 14.036911 L 28.045133 11.347621 Z"></path>
</g>
</g>
<g id="3f41d159" class="materialsolid" stroke="none" fill-opacity="1.000000" fill="#ca0035">
<g id="arc" class="mesh2"><path id="face.000" fill-rule="evenodd" d="M 26.634725 25.773443 L 24.030752 28.217050 L 21.203699 30.398719 L 18.179811 32.298194 L 14.987160 33.897846 L 11.655383 35.182823 L 8.215409 36.141197 L 4.699172 36.764068 L 1.139311 37.045658 L -2.431125 36.983356 L -5.978993 36.577732 L -9.471359 35.832561 L -12.875801 34.754749 L -16.160718 33.354312 L -19.295614 31.644245 L -22.251388 29.640422 L -25.000600 27.361450 L -27.517732 24.828477 L -29.779417 22.065023 L -31.764657 19.096738 L -33.455028 15.951176 L -34.834835 12.657541 L -35.891265 9.246404 L -36.614521 5.749433 L -36.997879 2.199090 L -37.037784 -1.371666 L -36.733867 -4.929691 L -36.088951 -8.441952 L -35.109020 -11.875847 L -33.803169 -15.199498 L -32.183521 -18.382051 L -30.265115 -21.393964 L -28.065757 -24.207277 L -25.605863 -26.795871 L -22.908271 -29.135719 L -19.998018 -31.205099 L -16.902124 -32.984802 L -13.649327 -34.458305 L -10.269823 -35.611930 L -6.794984 -36.434970 L -3.257067 -36.919784 L 0.311084 -37.061870 L 3.876349 -36.859909 L 7.405630 -36.315776 L 10.866163 -35.434524 L 14.225826 -34.224330 L 17.453430 -32.696434 L 20.519014 -30.865013 L 23.394119 -28.747072 L 26.052055 -26.362272 L 28.468151 -23.732749 L 27.756446 -23.139430 L 25.400754 -25.703216 L 22.809267 -28.028394 L 20.006038 -30.093389 L 17.017095 -31.879022 L 13.870181 -33.368724 L 10.594510 -34.548660 L 7.220489 -35.407882 L 3.779440 -35.938411 L 0.303307 -36.135322 L -3.175641 -35.996791 L -6.625110 -35.524097 L -10.013078 -34.721633 L -13.308094 -33.596847 L -16.479572 -32.160182 L -19.498067 -30.424974 L -22.335563 -28.407325 L -24.965717 -26.125974 L -27.364114 -23.602094 L -29.508487 -20.859115 L -31.378934 -17.922500 L -32.958087 -14.819511 L -34.231296 -11.578951 L -35.186725 -8.230903 L -35.815521 -4.806448 L -36.111839 -1.337375 L -36.072933 2.144113 L -35.699157 5.605697 L -34.993984 9.015244 L -33.963962 12.341102 L -32.618652 15.552397 L -30.970544 18.619319 L -29.034933 21.513397 L -26.829790 24.207767 L -24.375587 26.677412 L -21.695102 28.899414 L -18.813224 30.853139 L -15.756700 32.520454 L -12.553907 33.885883 L -9.234575 34.936744 L -5.829519 35.663291 L -2.370347 36.058773 L 1.110828 36.119518 L 4.581692 35.844966 L 8.010025 35.237667 L 11.363999 34.303253 L 14.612482 33.050399 L 17.725317 31.490741 L 20.673606 29.638751 L 23.429983 27.511625 L 25.968856 25.129108 Z"></path>
</g>
</g>
<g id="726c43b0" class="materialsolid" stroke="none" fill-opacity="1.000000" fill="#b0004f">
<g id="arc" class="mesh2"><path id="face.000" fill-rule="evenodd" d="M 17.468713 39.397598 L 13.584825 40.899623 L 9.574103 42.019794 L 5.473995 42.747657 L 1.322778 43.076408 L -2.840787 43.002983 L -6.977830 42.528068 L -11.049727 41.656093 L -15.018458 40.395206 L -18.846973 38.757171 L -22.499525 36.757286 L -25.942012 34.414222 L -29.142297 31.749855 L -32.070495 28.789058 L -34.699275 25.559480 L -37.004089 22.091264 L -38.963420 18.416799 L -40.558975 14.570388 L -41.775859 10.587943 L -42.602703 6.506644 L -43.031795 2.364597 L -43.059127 -1.799526 L -42.684444 -5.946849 L -41.911243 -10.038650 L -40.746746 -14.036725 L -39.201816 -17.903751 L -37.290889 -21.603618 L -35.031799 -25.101787 L -32.445640 -28.365598 L -29.556556 -31.364576 L -26.391523 -34.070724 L -22.980089 -36.458774 L -19.354104 -38.506431 L -15.547421 -40.194583 L -11.595582 -41.507461 L -7.535484 -42.432807 L -3.405031 -42.961990 L 0.757211 -43.090061 L 4.912385 -42.815830 L 9.021695 -42.141853 L 13.046775 -41.074424 L 16.950046 -39.623512 L 20.695066 -37.802658 L 24.246870 -35.628868 L 27.572294 -33.122428 L 30.640293 -30.306751 L 33.422225 -27.208118 L 35.892112 -23.855459 L 34.994812 -23.259071 L 32.586669 -26.527914 L 29.874286 -29.549083 L 26.882986 -32.294372 L 23.640697 -34.738143 L 20.177690 -36.857593 L 16.526294 -38.632923 L 12.720606 -40.047565 L 8.796154 -41.088306 L 4.789576 -41.745433 L 0.738281 -42.012809 L -3.319905 -41.887939 L -7.347097 -41.371990 L -11.305694 -40.469776 L -15.158737 -39.189720 L -18.870252 -37.543773 L -22.405586 -35.547306 L -25.731735 -33.218955 L -28.817644 -30.580463 L -31.634500 -27.656459 L -34.156005 -24.474243 L -36.358615 -21.063528 L -38.221771 -17.456157 L -39.728073 -13.685808 L -40.863464 -9.787683 L -41.617336 -5.798178 L -41.982650 -1.754538 L -41.956001 2.305482 L -41.537635 6.343978 L -40.731464 10.323245 L -39.545001 14.206130 L -37.989337 17.956380 L -36.078987 21.538984 L -33.831794 24.920492 L -31.268735 28.069334 L -28.413740 30.956110 L -25.293460 33.553867 L -21.937036 35.838356 L -18.375797 37.788246 L -14.642996 39.385326 L -10.773483 40.614692 L -6.803385 41.464866 L -2.769767 41.927909 L 1.289709 41.999500 L 5.337144 41.678966 L 9.334751 40.969303 L 13.245204 39.877136 L 17.031995 38.412658 Z"></path>
</g>
</g>
<g id="1e21655c" class="materialsolid" stroke="none" fill-opacity="1.000000" fill="#95006a">
<g id="arc" class="mesh2"><path id="face.000" fill-rule="evenodd" d="M 1.614386 49.103721 L -3.147665 49.029315 L -7.880139 48.494178 L -12.538562 47.503330 L -17.079158 46.066082 L -21.459260 44.195949 L -25.637704 41.910495 L -29.575225 39.231204 L -33.234828 36.183254 L -36.582115 32.795284 L -39.585632 29.099130 L -42.217163 25.129526 L -44.451965 20.923776 L -46.269050 16.521404 L -47.651336 11.963775 L -48.585834 7.293723 L -49.063766 2.555129 L -49.080638 -2.207474 L -48.636287 -6.949335 L -47.734897 -11.625891 L -46.384933 -16.193197 L -44.599086 -20.608333 L -42.394130 -24.829809 L -39.790794 -28.817955 L -36.813533 -32.535297 L -33.490333 -35.946895 L -29.852415 -39.020698 L -25.933973 -41.727817 L -21.771825 -44.042812 L -17.405084 -45.943931 L -12.874783 -47.413307 L -8.223497 -48.437133 L -3.494933 -49.005786 L 1.266472 -49.113925 L 6.015977 -48.760536 L 10.708950 -47.948932 L 15.301287 -46.686748 L 19.749837 -44.985839 L 24.012794 -42.862190 L 28.050102 -40.335762 L 31.823814 -37.430290 L 35.298477 -34.173080 L 38.441432 -30.594739 L 41.223148 -26.728897 L 43.617481 -22.611877 L 42.527046 -22.046581 L 40.192569 -26.060672 L 37.480396 -29.829870 L 34.416015 -33.318752 L 31.028221 -36.494529 L 27.348850 -39.327365 L 23.412475 -41.790637 L 19.256092 -43.861190 L 14.918756 -45.519577 L 10.441226 -46.750209 L 5.865578 -47.541522 L 1.234811 -47.886077 L -3.407560 -47.780643 L -8.017910 -47.226207 L -12.552913 -46.227977 L -16.969957 -44.795333 L -21.227531 -42.941741 L -25.285625 -40.684623 L -29.106105 -38.045181 L -32.653072 -35.048225 L -35.893196 -31.721916 L -38.796024 -28.097507 L -41.334278 -24.209064 L -43.484107 -20.093126 L -45.225311 -15.788367 L -46.541526 -11.335245 L -47.420383 -6.775601 L -47.853622 -2.152288 L -47.837173 2.491251 L -47.371192 7.111380 L -46.460056 11.664682 L -45.112323 16.108367 L -43.340667 20.400682 L -41.161731 24.501289 L -38.595993 28.371650 L -35.667564 31.975402 L -32.403957 35.278675 L -28.835847 38.250431 L -24.996763 40.862735 L -20.922779 43.091053 L -16.652179 44.914432 L -12.225099 46.315746 L -7.683136 47.281822 L -3.068974 47.803585 L 1.574027 47.876132 Z"></path>
</g>
</g>
<g id="ab824d0" class="materialsolid" stroke="none" fill-opacity="1.000000" fill="#7d0380">
<g id="arc" class="mesh2"><path id="face.000" fill-rule="evenodd" d="M -18.999343 51.788696 L -23.942430 49.697124 L -28.658847 47.135070 L -33.103954 44.126777 L -37.235660 40.700736 L -41.014854 36.889373 L -44.405757 32.728782 L -47.376266 28.258338 L -49.898262 23.520374 L -51.947864 18.559740 L -53.505672 13.423398 L -54.556934 8.159976 L -55.091705 2.819302 L -55.104915 -2.548061 L -54.596443 -7.891301 L -53.571102 -13.159835 L -52.038600 -18.303783 L -50.013442 -23.274446 L -47.514801 -28.024770 L -44.566337 -32.509780 L -41.195957 -36.687019 L -37.435573 -40.516937 L -33.320781 -43.963279 L -28.890542 -46.993415 L -24.186790 -49.578659 L -19.254060 -51.694541 L -14.139051 -53.321022 L -8.890186 -54.442714 L -3.557157 -55.048988 L 1.809547 -55.134109 L 7.159121 -54.697269 L 12.440918 -53.742607 L 17.604938 -52.279159 L 22.602289 -50.320781 L 27.385662 -47.886009 L 31.909770 -44.997898 L 36.131790 -41.683784 L 40.011745 -37.975051 L 43.512905 -33.906803 L 46.602127 -29.517557 L 49.250160 -24.848863 L 51.431938 -19.944925 L 50.146141 -19.446302 L 48.018909 -24.227643 L 45.437072 -28.779617 L 42.425083 -33.059135 L 39.011455 -37.025676 L 35.228496 -40.641693 L 31.112030 -43.872951 L 26.701021 -46.688858 L 22.037231 -49.062763 L 17.164813 -50.972179 L 12.129896 -52.399044 L 6.980143 -53.329841 L 1.764308 -53.755756 L -3.468228 -53.672763 L -8.667931 -53.081645 L -13.785575 -51.987998 L -18.772708 -50.402179 L -23.582120 -48.339195 L -28.168275 -45.818580 L -32.487762 -42.864196 L -36.499683 -39.504016 L -40.166061 -35.769844 L -43.452178 -31.697036 L -46.326934 -27.324153 L -48.763107 -22.692588 L -50.737636 -17.846189 L -52.231826 -12.830840 L -53.231536 -7.694019 L -53.727294 -2.484359 L -53.714412 2.748820 L -53.193012 7.955976 L -52.168029 13.087812 L -50.649169 18.095745 L -48.650802 22.932365 L -46.191860 27.551881 L -43.295612 31.910560 L -39.989486 35.967140 L -36.304771 39.683216 L -32.276355 43.023609 L -27.942378 45.956691 L -23.343868 48.454700 L -18.524360 50.493980 Z"></path>
</g>
</g>
<g id="6d187233" class="materialsolid" stroke="none" fill-opacity="1.000000" fill="#6b1786">
<g id="arc" class="mesh2"><path id="face.000" fill-rule="evenodd" d="M -41.088077 45.352882 L -45.318317 41.126194 L -49.115837 36.506824 L -52.444385 31.538869 L -55.272171 26.269769 L -57.572196 20.749835 L -59.322502 15.031776 L -60.506374 9.170186 L -61.112506 3.221035 L -61.135116 -2.758870 L -60.573982 -8.712432 L -59.434463 -14.582806 L -57.727443 -20.313938 L -55.469219 -25.851102 L -52.681350 -31.141433 L -49.390464 -36.134414 L -45.627975 -40.782367 L -41.429817 -45.040916 L -36.836067 -48.869396 L -31.890594 -52.231254 L -26.640615 -55.094387 L -21.136264 -57.431453 L -15.430096 -59.220146 L -9.576594 -60.443386 L -3.631651 -61.089481 L 2.347967 -61.152275 L 8.305167 -60.631160 L 14.183065 -59.531124 L 19.925540 -57.862651 L 25.477756 -55.641689 L 30.786699 -52.889438 L 35.801681 -49.632179 L 40.474815 -45.901012 L 44.761482 -41.731563 L 48.620746 -37.163646 L 52.015762 -32.240879 L 54.914112 -27.010261 L 57.288120 -21.521738 L 59.115116 -15.827718 L 57.637241 -15.432025 L 55.855915 -20.983695 L 53.541259 -26.335004 L 50.715370 -31.434856 L 47.405231 -36.234558 L 43.642444 -40.688278 L 39.462947 -44.753486 L 34.906642 -48.391372 L 30.017034 -51.567203 L 24.840812 -54.250648 L 19.427400 -56.416088 L 13.828490 -58.042842 L 8.097537 -59.115386 L 2.289268 -59.623470 L -3.540860 -59.562248 L -9.337180 -58.932300 L -15.044343 -57.739643 L -20.607858 -55.995670 L -25.974601 -53.717029 L -31.093332 -50.925472 L -35.915164 -47.647663 L -40.394073 -43.914894 L -44.487277 -39.762809 L -48.155704 -35.231052 L -51.364318 -30.362897 L -54.082489 -25.204826 L -56.284259 -19.806091 L -57.948604 -14.218236 L -59.059631 -8.494623 L -59.606739 -2.689898 L -59.584693 3.140510 L -58.993717 8.940931 L -57.839443 14.655982 L -56.132896 20.231090 L -53.890365 25.613027 L -51.133277 30.750398 L -47.887943 35.594154 L -44.185359 40.098045 L -40.060874 44.219058 Z"></path>
</g>
</g>
<g id="706df1ae" class="materialsolid" stroke="none" fill-opacity="1.000000" fill="#592b8c">
<g id="arc" class="mesh2"><path id="face.000" fill-rule="evenodd" d="M -60.531604 29.256027 L -63.045829 23.349805 L -64.985328 17.230726 L -66.332405 10.954566 L -67.074790 4.578546 L -67.205711 -1.839213 L -66.723976 -8.240206 L -65.633979 -14.566082 L -63.945659 -20.759168 L -61.674396 -26.763015 L -58.840908 -32.522884 L -55.471012 -37.986270 L -51.595439 -43.103374 L -47.249515 -47.827541 L -42.472862 -52.115703 L -37.309017 -55.928771 L -31.805061 -59.231990 L -26.011163 -61.995239 L -19.980148 -64.193328 L -13.766988 -65.806228 L -7.428329 -66.819236 L -1.021951 -67.223106 L 5.393742 -67.014160 L 11.760265 -66.194305 L 18.019580 -64.771018 L 24.114627 -62.757270 L 29.989843 -60.171417 L 35.591667 -57.037036 L 40.869033 -53.382698 L 45.773834 -49.241714 L 50.261348 -44.651840 L 54.290679 -39.654911 L 57.825092 -34.296489 L 60.832363 -28.625410 L 63.285076 -22.693382 L 65.160873 -16.554475 L 66.442657 -10.264657 L 64.781593 -10.008042 L 63.531856 -16.140615 L 61.702949 -22.126047 L 59.311553 -27.909776 L 56.379463 -33.439075 L 52.933414 -38.663539 L 49.004817 -43.535549 L 44.629489 -48.010673 L 39.847309 -52.048130 L 34.701877 -55.611114 L 29.240098 -58.667137 L 23.511762 -61.188339 L 17.569091 -63.151744 L 11.466259 -64.539451 L 5.258898 -65.338806 L -0.996403 -65.542526 L -7.242621 -65.148757 L -13.422814 -64.161079 L -19.480644 -62.588500 L -25.360885 -60.445358 L -31.009933 -57.751190 L -36.376289 -54.530551 L -41.411041 -50.812808 L -46.068279 -46.631851 L -50.305553 -42.025791 L -54.084239 -37.036617 L -57.369884 -31.709814 L -60.132537 -26.093940 L -62.347019 -20.240190 L -63.993133 -14.201930 L -65.055885 -8.034202 L -65.525573 -1.793233 L -65.397918 4.464082 L -64.674095 10.680703 L -63.360694 16.799957 L -61.469684 22.766061 L -59.018318 28.524627 Z"></path>
</g>
</g>
<g id="111c21d4" class="materialsolid" stroke="none" fill-opacity="1.000000" fill="#483f91">
<g id="arc" class="mesh2"><path id="face.000" fill-rule="evenodd" d="M -73.106201 4.812238 L -73.231224 -2.204860 L -72.684265 -9.201726 L -71.470329 -16.114156 L -69.600563 -22.878717 L -67.092124 -29.433336 L -63.968025 -35.717864 L -60.256938 -41.674636 L -55.992916 -47.248992 L -51.215087 -52.389778 L -45.967296 -57.049819 L -40.297695 -61.186355 L -34.258308 -64.761428 L -27.904558 -67.742225 L -21.294750 -70.101409 L -14.489533 -71.817321 L -7.551356 -72.874214 L -0.543887 -73.262397 L 6.468572 -72.978294 L 13.421675 -72.024528 L 20.251617 -70.409843 L 26.895723 -68.149055 L 33.293029 -65.262916 L 39.384826 -61.777904 L 45.115219 -57.726001 L 50.431621 -53.144386 L 55.285243 -48.075107 L 59.631561 -42.564674 L 63.430675 -36.663650 L 66.647735 -30.426198 L 69.253211 -23.909543 L 71.223213 -17.173488 L 72.539634 -10.279844 L 73.190422 -3.291869 L 71.360664 -3.209573 L 70.726150 -10.022849 L 69.442626 -16.744152 L 67.521888 -23.311805 L 64.981544 -29.665542 L 61.844909 -35.747062 L 58.140769 -41.500556 L 53.903118 -46.873226 L 49.170829 -51.815780 L 43.987339 -56.282852 L 38.400207 -60.233459 L 32.460704 -63.631347 L 26.223333 -66.445335 L 19.745328 -68.649597 L 13.086133 -70.223915 L 6.306858 -71.153839 L -0.530290 -71.430831 L -7.362573 -71.052360 L -14.127294 -70.021888 L -20.762380 -68.348876 L -27.206943 -66.048675 L -33.401851 -63.142395 L -39.290248 -59.656700 L -44.818111 -55.623577 L -49.934711 -51.080036 L -54.593093 -46.067768 L -58.750514 -40.632774 L -62.368824 -34.824920 L -65.414817 -28.697504 L -67.860549 -22.306749 L -69.683570 -15.711301 L -70.867156 -8.971684 L -71.400451 -2.149739 L -71.278549 4.691932 Z"></path>
</g>
</g>
<g id="7343a6c6" class="materialsolid" stroke="none" fill-opacity="1.000000" fill="#365396">
<g id="arc" class="mesh2"><path id="face.000" fill-rule="evenodd" d="M -75.303489 -24.850534 L -72.568138 -31.969203 L -69.161621 -38.792201 L -65.115447 -45.256416 L -60.467037 -51.302070 L -55.259380 -56.873241 L -49.540645 -61.918411 L -43.363723 -66.390907 L -36.785739 -70.249374 L -29.867532 -73.458122 L -22.673091 -75.987472 L -15.268950 -77.814033 L -7.723590 -78.920913 L -0.106798 -79.297882 L 7.510982 -78.941436 L 15.059294 -77.854881 L 22.468328 -76.048271 L 29.669557 -73.538307 L 36.596382 -70.348205 L 43.184734 -66.507469 L 49.373683 -62.051628 L 55.105987 -57.021881 L 60.328628 -51.464756 L 64.993309 -45.431648 L 69.056884 -38.978355 L 72.481765 -32.164558 L 75.236282 -25.053279 L 77.294960 -17.710292 L 78.638748 -10.203506 L 79.255233 -2.602349 L 79.138717 5.022874 L 77.160247 4.897303 L 77.273857 -2.537291 L 76.672782 -9.948418 L 75.362586 -17.267536 L 73.355377 -24.426950 L 70.669723 -31.360445 L 67.330459 -38.003894 L 63.368480 -44.295860 L 58.820419 -50.178138 L 53.728336 -55.596336 L 48.139343 -60.500339 L 42.105117 -64.844787 L 35.681476 -68.589500 L 28.927820 -71.699844 L 21.906621 -74.147064 L 14.682812 -75.908508 L 7.323207 -76.967903 L -0.104128 -77.315429 L -7.530501 -76.947891 L -14.887227 -75.868682 L -22.106262 -74.087783 L -29.120845 -71.621673 L -35.866096 -68.493141 L -42.279632 -64.731140 L -48.302135 -60.370449 L -53.877899 -55.451412 L -58.955364 -50.019523 L -63.487564 -44.125011 L -67.432586 -37.822399 L -70.753936 -31.169977 L -73.420906 -24.229272 Z"></path>
</g>
</g>
<g id="6650a842" class="materialsolid" stroke="none" fill-opacity="1.000000" fill="#276592">
<g id="arc" class="mesh2"><path id="face.000" fill-rule="evenodd" d="M -65.086936 -55.182918 L -59.456867 -61.207397 L -53.271598 -66.660339 L -46.588901 -71.490829 L -39.471172 -75.653755 L -31.984874 -79.110252 L -24.199909 -81.828041 L -16.188972 -83.781753 L -8.026868 -84.953125 L 0.210187 -85.331237 L 8.445281 -84.912551 L 16.601514 -83.700981 L 24.602729 -81.707832 L 32.374210 -78.951728 L 39.843395 -75.458389 L 46.940528 -71.260444 L 53.599349 -66.397094 L 59.757675 -60.913749 L 65.358001 -54.861606 L 70.348037 -48.297187 L 74.681182 -41.281780 L 78.316978 -33.880901 L 81.221473 -26.163650 L 83.367553 -18.202089 L 84.735168 -10.070565 L 85.311546 -1.845004 L 85.091316 6.397784 L 84.076538 14.580832 L 81.974624 14.216311 L 82.964042 6.237840 L 83.178764 -1.798879 L 82.616790 -9.818800 L 81.283363 -17.747037 L 79.190940 -25.509557 L 76.359054 -33.033878 L 72.814155 -40.249740 L 68.589332 -47.089756 L 63.724052 -53.490070 L 58.263736 -59.390907 L 52.259368 -64.737167 L 45.767017 -69.478935 L 38.847309 -73.571929 L 31.564857 -76.977935 L 23.987663 -79.665138 L 16.186477 -81.608459 L 8.234149 -82.789741 L 0.204933 -83.197959 L -7.826196 -82.829299 L -15.784248 -81.687210 L -23.594909 -79.782348 L -31.185253 -77.132499 L -38.484397 -73.762413 L -45.424182 -69.703559 L -51.939815 -64.993827 L -57.970447 -59.677211 L -63.459770 -53.803348 Z"></path>
</g>
</g>
<g id="2ae0f0a" class="materialsolid" stroke="none" fill-opacity="1.000000" fill="#1e747d">
<g id="arc" class="mesh2"><path id="face.000" fill-rule="evenodd" d="M -42.439746 -80.910049 L -34.383392 -84.648391 L -26.002132 -87.586853 L -17.375165 -89.697669 L -8.584013 -90.960884 L 0.288253 -91.364578 L 9.157795 -90.904914 L 17.940801 -89.586250 L 26.554277 -87.421043 L 34.916831 -84.429756 L 42.949436 -80.640647 L 50.576190 -76.089530 L 57.725028 -70.819412 L 64.328399 -64.880088 L 70.323898 -58.327674 L 75.654876 -51.224102 L 80.270950 -43.636486 L 84.128509 -35.636528 L 87.191101 -27.299823 L 89.429786 -18.705152 L 90.823394 -9.933727 L 91.358779 -1.068432 L 91.030876 7.806958 L 89.842765 16.608577 L 87.805702 25.253253 L 85.610565 24.621921 L 87.596710 16.193361 L 88.755104 7.611783 L 89.074813 -1.041721 L 88.552818 -9.685383 L 87.194038 -18.237524 L 85.011322 -26.617330 L 82.025299 -34.745616 L 78.264183 -42.545574 L 73.763504 -49.943500 L 68.565803 -56.869487 L 62.720191 -63.258083 L 56.281909 -69.048927 L 49.311790 -74.187294 L 41.875701 -78.624633 L 34.043910 -82.319007 L 25.890420 -85.235519 L 17.492282 -87.346595 L 8.928851 -88.632293 L 0.281046 -89.080467 L -8.369413 -88.686866 L -16.940786 -87.455230 L -25.352079 -85.397186 L -33.523807 -82.532188 L -41.378753 -78.887306 Z"></path>
</g>
</g>
<g id="66a4786f" class="materialsolid" stroke="none" fill-opacity="1.000000" fill="#168368">
<g id="arc" class="mesh2"><path id="face.000" fill-rule="evenodd" d="M -9.587519 -96.925552 L -0.059083 -97.398559 L 9.469920 -96.937110 L 18.908067 -95.545631 L 28.164810 -93.237464 L 37.151332 -90.034774 L 45.781421 -85.968276 L 53.972270 -81.076980 L 61.645305 -75.407814 L 68.726905 -69.015174 L 75.149124 -61.960399 L 80.850357 -54.311161 L 85.775894 -46.140853 L 89.878479 -37.527862 L 93.118766 -28.554824 L 95.465644 -19.307825 L 96.896621 -9.875585 L 97.397956 -0.348596 L 96.964828 9.181736 L 95.601409 18.623979 L 93.320777 27.887540 L 90.144813 36.883544 L 87.891189 35.961452 L 90.987762 27.190351 L 93.211380 18.158380 L 94.540710 8.952193 L 94.963005 -0.339881 L 94.474205 -9.628695 L 93.079010 -18.825130 L 90.790794 -27.840955 L 87.631523 -36.589668 L 83.631500 -44.987331 L 78.829093 -52.953384 L 73.270401 -60.411388 L 67.008735 -67.289794 L 60.104171 -73.522621 L 52.622966 -79.050056 L 44.636882 -83.819068 L 36.222549 -87.783905 L 27.460689 -90.906539 L 18.435367 -93.156990 L 9.233172 -94.513679 L -0.057606 -94.963592 L -9.347832 -94.502410 Z"></path>
</g>
</g>
<g id="57f85388" class="materialsolid" stroke="none" fill-opacity="1.000000" fill="#0d9253">
<g id="arc" class="mesh2"><path id="face.000" fill-rule="evenodd" d="M 29.168766 -99.233993 L 38.332096 -96.066917 L 47.158630 -92.055778 L 55.570819 -87.235809 L 63.494750 -81.649360 L 70.860794 -75.345535 L 77.604248 -68.379699 L 83.665847 -60.813056 L 88.992340 -52.712104 L 93.536918 -44.148010 L 97.259666 -35.196018 L 100.127861 -25.934785 L 102.116317 -16.445686 L 103.207542 -6.812088 L 103.391975 2.881361 L 102.667968 12.549494 L 101.041908 22.107364 L 98.528053 31.470996 L 95.148529 40.558113 L 90.932991 49.288875 L 88.659667 48.056655 L 92.769813 39.544162 L 96.064857 30.684221 L 98.515861 21.554681 L 100.101272 12.235757 L 100.807174 2.809327 L 100.627365 -6.641786 L 99.563407 -16.034543 L 97.624671 -25.286417 L 94.828170 -34.316120 L 91.198493 -43.044311 L 86.767532 -51.394302 L 81.574203 -59.292736 L 75.664138 -66.670204 L 69.089279 -73.461898 L 61.907382 -79.608131 L 54.181552 -85.054916 L 45.979667 -89.754379 L 37.373794 -93.665245 L 28.439546 -96.753143 Z"></path>
</g>
</g>
<g id="3935cf1f" class="materialsolid" stroke="none" fill-opacity="1.000000" fill="#04a13e">
<g id="arc" class="mesh2"><path id="face.000" fill-rule="evenodd" d="M 68.008346 -85.776412 L 75.766456 -79.007423 L 82.854286 -71.539482 L 89.209121 -63.438644 L 94.774757 -54.776588 L 99.501945 -45.629936 L 103.348876 -36.079616 L 106.281517 -26.210105 L 108.273902 -16.108724 L 109.308425 -5.864835 L 109.375938 4.430939 L 108.475830 14.687513 L 106.616073 24.814153 L 103.813117 34.721267 L 100.091751 44.321216 L 95.484909 53.529067 L 90.033340 62.263362 L 87.782516 60.706779 L 93.097785 52.190841 L 97.589462 43.213188 L 101.217788 33.853237 L 103.950675 24.193799 L 105.763938 14.320326 L 106.641540 4.320165 L 106.575721 -5.718214 L 105.567054 -15.706007 L 103.624473 -25.554853 L 100.765159 -35.177623 L 97.014404 -44.489189 L 92.405395 -53.407173 L 86.978897 -61.852680 L 80.782928 -69.750991 L 73.872291 -77.032241 L 66.308143 -83.632003 Z"></path>
</g>
</g>
<g id="6fa861f1" class="materialsolid" stroke="none" fill-opacity="1.000000" fill="#1bb22e">
<g id="arc" class="mesh2"><path id="face.000" fill-rule="evenodd" d="M 100.464363 -56.982219 L 105.395874 -47.241626 L 109.385627 -37.078910 L 112.397979 -26.584882 L 114.406005 -15.853304 L 115.391769 -4.980071 L 115.346458 5.937660 L 114.270484 16.802337 L 112.173454 27.516878 L 109.074104 37.985546 L 105.000137 48.114791 L 99.987945 57.814117 L 94.082321 66.996849 L 87.336036 75.580940 L 85.152633 73.691413 L 91.730262 65.321929 L 97.488250 56.368770 L 102.375137 46.911926 L 106.347251 37.035903 L 109.369117 26.828958 L 111.413726 16.382280 L 112.462799 5.789219 L 112.506973 -4.855569 L 111.545860 -15.456973 L 109.588027 -25.920261 L 106.650985 -36.151939 L 102.760978 -46.060588 L 97.952758 -55.557666 Z"></path>
</g>
</g>
<g id="391b9c31" class="materialsolid" stroke="none" fill-opacity="1.000000" fill="#50c423">
<g id="arc" class="mesh2"><path id="face.000" fill-rule="evenodd" d="M 120.484077 -15.930830 L 121.453353 -4.391825 L 121.320037 7.187051 L 120.085334 18.700681 L 117.760475 30.044542 L 114.366546 41.115650 L 109.934371 51.813499 L 104.504173 62.040969 L 98.125267 71.705215 L 90.855537 80.718498 L 82.761001 88.998992 L 80.691978 86.774017 L 88.584152 78.700531 L 95.672134 69.912582 L 101.891571 60.489944 L 107.186012 50.518161 L 111.507392 40.087757 L 114.816467 29.293430 L 117.083213 18.233163 L 118.287033 7.007375 L 118.417022 -4.282029 L 117.471977 -15.532560 Z"></path>
</g>
</g>
<g id="2732455d" class="materialsolid" stroke="none" fill-opacity="1.000000" fill="#85d519">
<g id="arc" class="mesh2"><path id="face.000" fill-rule="evenodd" d="M 123.504608 31.933763 L 119.843757 43.710735 L 115.062759 55.079158 L 109.206329 65.932777 L 102.329185 76.170150 L 94.495605 85.695587 L 85.778816 94.420066 L 76.260284 102.262031 L 74.353775 99.705482 L 83.634346 92.059562 L 92.133216 83.553199 L 99.770957 74.265892 L 106.476173 64.284461 L 112.186195 53.702178 L 116.847663 42.617969 L 120.416992 31.135419 Z"></path>
</g>
</g>
<g id="63d31bfd" class="materialsolid" stroke="none" fill-opacity="1.000000" fill="#b9e70e">
<g id="arc" class="mesh2"><path id="face.000" fill-rule="evenodd" d="M 107.358627 79.517509 L 100.645576 87.859977 L 93.285987 95.638038 L 85.327117 102.801712 L 76.820106 109.304992 L 67.819595 115.106086 L 66.124107 112.228439 L 74.899604 106.572364 L 83.193931 100.231674 L 90.953834 93.247085 L 98.129440 85.663482 L 104.674659 77.529571 Z"></path>
</g>
</g>
<g id="1555c440" class="materialsolid" stroke="none" fill-opacity="1.000000" fill="#eef904">
<g id="arc" class="mesh2"><path id="face.000" fill-rule="evenodd" d="M 72.842697 119.127716 L 65.278060 123.435188 L 57.459709 127.262924 L 56.023220 124.081359 L 63.646110 120.349311 L 71.021636 116.149520 Z"></path>
</g>
</g>
<g id="f27ae12" class="materialsolid" stroke="none" fill-opacity="1.000000" fill="#ffed00">
<g id="arc" class="mesh2"><path id="face.000" fill-rule="evenodd" d="M 23.829256 143.704605 L 9.751899 145.340103 L -4.417763 145.599899 L -18.545610 144.481506 L -32.497913 141.995544 L -46.142608 138.165496 L -59.350540 133.027664 L -71.996688 126.630653 L -83.961357 119.035026 L -95.131286 110.312667 L -105.400741 100.546150 L -114.672538 89.827911 L -122.858909 78.259407 L -129.882354 65.950134 L -135.676391 53.016620 L -140.186187 39.581272 L -143.369064 25.771270 L -145.194869 11.717329 L -145.646347 -2.447520 L -144.719192 -16.589204 L -142.422210 -30.573863 L -138.777130 -44.269126 L -133.818450 -57.545360 L -127.593116 -70.276901 L -120.160049 -82.343231 L -111.589614 -93.630149 L -101.962921 -104.030807 L -91.371109 -113.446754 L -79.914421 -121.788879 L -67.701293 -128.978210 L -54.847347 -134.946716 L -41.474246 -139.637863 L -27.708568 -143.007278 L -13.680616 -145.023056 L 0.476830 -145.666122 L 14.629763 -144.930374 L 28.644218 -142.822814 L 42.387542 -139.363342 L 55.729648 -134.584747 L 68.544242 -128.532226 L 80.710029 -121.263092 L 92.111869 -112.846130 L 102.641807 -103.361038 L 112.200202 -92.897575 L 120.696563 -81.554794 L 128.050476 -69.440063 L 134.192321 -56.668041 L 139.063964 -43.359630 L 142.619323 -29.640794 L 144.824691 -15.641398 L 145.659240 -1.493947 L 145.115051 12.667644 L 143.197265 26.709329 L 139.924057 40.498199 L 135.326400 53.903736 L 129.447799 66.799041 L 122.343925 79.062065 L 114.081993 90.576728 L 104.740226 101.234031 L 94.407051 110.933113 L 83.180252 119.582153 L 71.166114 127.099296 L 58.478355 133.413375 L 45.237071 138.464630 L 44.106147 135.003021 L 57.016399 130.078048 L 69.386962 123.921813 L 81.100753 116.592605 L 92.046875 108.159782 L 102.121734 98.703186 L 111.229949 88.312309 L 119.285331 77.085510 L 126.211608 65.129066 L 131.943237 52.556140 L 136.425964 39.485744 L 139.617340 26.041597 L 141.487167 12.350954 L 142.017761 -1.456598 L 141.204086 -15.250364 L 139.053833 -28.899776 L 135.587371 -42.275638 L 130.837524 -55.251342 L 124.849220 -67.704063 L 117.679153 -79.515930 L 109.395195 -90.575141 L 100.075767 -100.777015 L 89.809074 -110.024986 L 78.692291 -118.231506 L 66.830642 -125.318916 L 54.336406 -131.220123 L 41.327854 -135.879272 L 27.928113 -139.252243 L 14.264019 -141.307128 L 0.464909 -142.024475 L -13.338601 -141.397476 L -27.015853 -139.432098 L -40.437389 -136.146911 L -53.476169 -131.573043 L -66.008766 -125.753761 L -77.916557 -118.744163 L -89.086837 -110.610588 L -99.413856 -101.430038 L -108.799880 -91.289390 L -117.156051 -80.284652 L -124.403289 -68.519981 L -130.472991 -56.106727 L -135.307693 -43.162399 L -138.861648 -29.809516 L -141.101211 -16.174474 L -142.005187 -2.386332 L -141.565002 11.424397 L -139.784835 25.126989 L -136.681533 38.591743 L -132.284484 51.691204 L -126.635299 64.301391 L -119.787437 76.302917 L -111.805732 87.582214 L -102.765731 98.032501 L -92.753005 107.554855 L -81.862319 116.059150 L -70.196769 123.464889 L -57.866775 129.701965 L -44.989044 134.711364 L -31.685466 138.445648 L -18.081970 140.869476 L -4.307319 141.959899 L 9.508101 141.706604 L 23.233524 140.111984 Z"></path>
</g>
</g>
<g id="575dd9d2" class="materialsolid" stroke="none" fill-opacity="1.000000" fill="#ffd300">
<g id="arc" class="mesh2"><path id="face.000" fill-rule="evenodd" d="M -33.128627 148.038894 L -47.395641 144.106460 L -61.211593 138.802597 L -74.445007 132.177749 L -86.969947 124.294998 L -98.667190 115.229354 L -109.425437 105.067085 L -119.142295 93.904907 L -127.725303 81.849044 L -135.092758 69.014244 L -141.174560 55.522640 L -145.912811 41.502632 L -149.262435 27.087654 L -151.191558 12.414884 L -151.681808 -2.376035 L -150.728530 -17.144342 L -148.340789 -31.749490 L -144.541305 -46.052478 L -139.366241 -59.917198 L -132.864852 -73.211692 L -125.098991 -85.809440 L -116.142601 -97.590545 L -106.080886 -108.442901 L -95.009620 -118.263221 L -83.034156 -126.958045 L -70.268478 -134.444641 L -56.834056 -140.651733 L -42.858757 -145.520248 L -28.475572 -149.003890 L -13.821391 -151.069473 L 0.964325 -151.697357 L 15.740863 -150.881561 L 30.367599 -148.629837 L 44.705333 -144.963623 L 58.617607 -139.917816 L 71.972030 -133.540420 L 84.641510 -125.892150 L 96.505455 -117.045783 L 107.450981 -107.085502 L 117.373908 -96.106109 L 126.179809 -84.212081 L 133.784866 -71.516624 L 140.116714 -58.140552 L 145.115097 -44.211162 L 148.732437 -29.861024 L 150.934310 -15.226701 L 151.699768 -0.447468 L 151.021514 14.336023 L 148.906005 28.983081 L 145.373382 43.354309 L 140.457275 57.312942 L 134.204452 70.726135 L 126.674407 83.466239 L 117.938827 95.412010 L 108.080841 106.449745 L 97.194267 116.474426 L 85.382713 125.390632 L 72.758575 133.113510 L 59.442012 139.569580 L 45.559741 144.697372 L 31.243890 148.448104 L 30.462795 144.736892 L 44.420753 141.079940 L 57.955963 136.080337 L 70.939613 129.785675 L 83.248146 122.255874 L 94.764419 113.562568 L 105.378822 103.788513 L 114.990364 93.026710 L 123.507545 81.379585 L 130.849334 68.957984 L 136.945846 55.880123 L 141.739059 42.270454 L 145.183364 28.258502 L 147.245971 13.977622 L 147.907272 -0.436281 L 147.160949 -14.846034 L 145.014129 -29.114498 L 141.487228 -43.105884 L 136.613800 -56.687038 L 130.440246 -69.728713 L 123.025314 -82.106788 L 114.439567 -93.703460 L 104.764709 -104.408370 L 94.092819 -114.119636 L 82.525466 -122.744850 L 70.172729 -130.201919 L 57.152172 -136.419876 L 43.587699 -141.339538 L 29.608411 -144.914093 L 15.347343 -147.109527 L 0.940217 -147.904922 L -13.475857 -147.292755 L -27.763685 -145.278793 L -41.787284 -141.882263 L -55.413208 -137.135437 L -68.511764 -131.083526 L -80.958312 -123.784095 L -92.634384 -115.306640 L -103.428871 -105.731834 L -113.239036 -95.150787 L -121.971519 -83.664207 L -129.543228 -71.381401 L -135.882080 -58.419269 L -140.927764 -44.901168 L -144.632278 -30.955753 L -146.960311 -16.715734 L -147.889770 -2.316634 L -147.411773 12.104513 L -145.530883 26.410463 L -142.264999 40.465068 L -137.645202 54.134571 L -131.715438 67.288887 L -124.532173 79.802818 L -116.163749 91.557281 L -106.689804 102.440414 L -96.200508 112.348625 L -84.795692 121.187629 L -72.583885 128.873321 L -59.681308 135.332534 L -46.210750 140.503799 L -32.300411 144.337921 Z"></path>
</g>
</g>
<g id="13e26ddc" class="materialsolid" stroke="none" fill-opacity="1.000000" fill="#ffb900">
<g id="arc" class="mesh2"><path id="face.000" fill-rule="evenodd" d="M -89.666305 129.768859 L -101.919204 120.384712 L -113.196357 109.848014 L -123.389785 98.259666 L -132.401916 85.730598 L -140.146453 72.380767 L -146.549255 58.337978 L -151.549026 43.736671 L -155.097885 28.716638 L -157.161895 13.421681 L -157.721267 -2.001775 L -156.770645 -17.406066 L -154.319122 -32.643718 L -150.390197 -47.568840 L -145.021453 -62.038555 L -138.264312 -75.914321 L -130.183456 -89.063301 L -120.856254 -101.359611 L -110.371994 -112.685516 L -98.831054 -122.932601 L -86.343940 -132.002761 L -73.030181 -139.809143 L -59.017246 -146.277023 L -44.439292 -151.344482 L -29.435880 -154.962997 L -14.150663 -157.097946 L 1.270031 -157.728851 L 16.678567 -156.849700 L 31.927427 -154.468902 L 46.870616 -150.609252 L 61.365081 -145.307708 L 75.272048 -138.615020 L 88.458374 -130.595245 L 100.797821 -121.325187 L 112.172248 -110.893592 L 122.472770 -99.400321 L 131.600753 -86.955413 L 139.468826 -73.678009 L 146.001647 -59.695236 L 151.136688 -45.140949 L 154.824768 -30.154491 L 157.030593 -14.879340 L 157.733047 0.538260 L 156.925384 15.950709 L 154.615356 31.210451 L 150.825088 46.171386 L 145.590835 60.690292 L 138.962738 74.628158 L 131.004226 87.851554 L 121.791519 100.233871 L 111.412803 111.656570 L 99.967445 122.010299 L 87.565017 131.195922 L 74.324264 139.125503 L 60.371948 145.723129 L 45.841636 150.925628 L 30.872449 154.683197 L 15.607699 156.959869 L 15.217506 153.035873 L 30.100641 150.816131 L 44.695594 147.152496 L 58.862648 142.080062 L 72.466163 135.647369 L 85.375892 127.916030 L 97.468261 118.960044 L 108.627494 108.865158 L 118.746734 97.728027 L 127.729133 85.655265 L 135.488662 72.762451 L 141.951065 59.173034 L 147.054458 45.017105 L 150.749984 30.430189 L 153.002258 15.551942 L 153.789718 0.524804 L 153.104827 -14.507357 L 150.954162 -29.400629 L 147.358276 -44.012428 L 142.351623 -58.202857 L 135.982116 -71.836067 L 128.310745 -84.781532 L 119.410949 -96.915313 L 109.367950 -108.121261 L 98.277877 -118.292068 L 86.246925 -127.330368 L 73.390251 -135.149642 L 59.830955 -141.675018 L 45.698852 -146.844024 L 31.129241 -150.607177 L 16.261604 -152.928466 L 1.238281 -153.785629 L -13.796896 -153.170486 L -28.699987 -151.088928 L -43.328308 -147.560882 L -57.541812 -142.620101 L -71.204429 -136.313919 L -84.185340 -128.702682 L -96.360290 -119.859291 L -107.612693 -109.868377 L -117.834846 -98.825622 L -126.928871 -86.836715 L -134.807708 -74.016464 L -141.395919 -60.487590 L -146.630432 -46.379623 L -150.461151 -31.827623 L -152.851364 -16.970914 L -153.778228 -1.951730 L -153.232849 13.086138 L -151.220458 27.998723 L -147.760299 42.643257 L -142.885528 56.879531 L -136.642791 70.571250 L -129.091873 83.587341 L -120.305053 95.803184 L -110.366455 107.101821 L -99.371231 117.375091 L -87.424652 126.524635 Z"></path>
</g>
</g>
<g id="4d0043ad" class="materialsolid" stroke="none" fill-opacity="1.000000" fill="#ff9e00">
<g id="arc" class="mesh2"><path id="face.000" fill-rule="evenodd" d="M -136.835006 89.977645 L -144.861892 76.386039 L -151.542984 62.084785 L -156.816192 47.206752 L -160.632537 31.890151 L -162.956573 16.277288 L -163.766708 0.513203 L -163.055389 -15.255650 L -160.829254 -30.882774 L -157.108978 -46.222988 L -151.929107 -61.133781 L -145.337783 -75.476623 L -137.396240 -89.118270 L -128.178253 -101.931983 L -117.769447 -113.798736 L -106.266540 -124.608253 L -93.776390 -134.260131 L -80.415031 -142.664703 L -66.306602 -149.743881 L -51.582157 -155.431900 L -36.378505 -159.675918 L -20.836889 -162.436508 L -5.101693 -163.688018 L 10.680898 -163.418823 L 26.364263 -161.631439 L 41.802696 -158.342437 L 56.852771 -153.582412 L 71.374671 -147.395553 L 85.233482 -139.839370 L 98.300445 -130.984024 L 110.454185 -120.911811 L 121.581771 -109.716300 L 131.579833 -97.501495 L 140.355484 -84.380874 L 147.827194 -70.476341 L 153.925552 -55.917057 L 158.593917 -40.838294 L 161.788879 -25.380128 L 163.480804 -9.686177 L 163.653945 6.097760 L 162.306686 21.825050 L 159.451568 37.349578 L 155.115112 52.527118 L 149.337585 67.216667 L 142.172683 81.281761 L 133.686950 94.591728 L 123.959236 107.022903 L 113.079910 118.459815 L 101.150047 128.796203 L 88.280471 137.936050 L 74.590736 145.794433 L 60.208049 152.298339 L 45.266010 157.387374 L 29.903438 161.014221 L 14.263055 163.145202 L -1.509834 163.760543 L -1.472088 159.666534 L 13.906478 159.066589 L 29.155853 156.988876 L 44.134365 153.452682 L 58.702850 148.490890 L 72.725975 142.149566 L 86.073455 134.487655 L 98.621292 125.576301 L 110.252914 115.498321 L 120.860252 104.347343 L 130.344772 92.226936 L 138.618362 79.249725 L 145.604141 65.536254 L 151.237228 51.213943 L 155.465286 36.415840 L 158.249023 21.279424 L 159.562591 5.945317 L 159.393783 -9.444023 L 157.744171 -24.745626 L 154.629074 -39.817337 L 150.077423 -54.519130 L 144.131515 -68.714431 L 136.846603 -82.271362 L 128.290328 -95.063964 L 118.542228 -106.973396 L 107.692832 -117.889022 L 95.842941 -127.709434 L 83.102645 -136.343383 L 69.590309 -143.710678 L 55.431457 -149.742843 L 40.757629 -154.383880 L 25.705158 -157.590652 L 10.413877 -159.333358 L -4.974151 -159.595825 L -20.315967 -158.375595 L -35.469043 -155.684020 L -50.292602 -151.546112 L -64.648933 -146.000289 L -78.404655 -139.098083 L -91.431983 -130.903625 L -103.609886 -121.493049 L -114.825210 -110.953765 L -124.973793 -99.383689 L -133.961334 -86.890312 L -141.704345 -73.589714 L -148.130889 -59.605438 L -153.181243 -45.067417 L -156.808517 -30.110706 L -158.979003 -14.874258 L -159.672531 0.500372 L -158.882659 15.870357 L -156.616729 31.092901 L -152.895797 46.026580 L -147.754409 60.532665 L -141.240341 74.476387 L -133.414138 87.728202 Z"></path>
</g>
</g>
<g id="5414c00f" class="materialsolid" stroke="none" fill-opacity="1.000000" fill="#ff8400">
<g id="arc" class="mesh2"><path id="face.000" fill-rule="evenodd" d="M -166.510437 33.266704 L -168.944000 17.038936 L -169.799804 0.652045 L -169.069869 -15.740935 L -166.761016 -31.986913 L -162.894790 -47.934169 L -157.507324 -63.433769 L -150.648910 -78.340972 L -142.383590 -92.516555 L -132.788558 -105.828132 L -121.953453 -118.151397 L -109.979423 -129.371261 L -96.978309 -139.382934 L -83.071533 -148.092941 L -68.388954 -155.419906 L -53.067703 -161.295440 L -37.250854 -165.664642 L -21.086124 -168.486724 L -4.724473 -169.735321 L 11.681298 -169.398773 L 27.977979 -167.480239 L 44.013374 -163.997619 L 59.637741 -158.983444 L 74.705154 -152.484558 L 89.074897 -144.561614 L 102.612785 -135.288635 L 115.192382 -124.752204 L 126.696212 -113.050735 L 137.016845 -100.293495 L 146.057891 -86.599617 L 153.734909 -72.097000 L 159.976211 -56.921077 L 164.723526 -41.213573 L 167.932495 -25.121179 L 169.573165 -8.794183 L 169.630218 7.614939 L 168.103103 23.952947 L 165.006103 40.067264 L 160.368118 55.807392 L 154.232467 71.026344 L 146.656478 85.581993 L 137.710861 99.338394 L 127.479187 112.167083 L 116.056999 123.948265 L 103.550956 134.571899 L 90.077873 143.938781 L 75.763557 151.961441 L 60.741695 158.564956 L 45.152576 163.687637 L 29.141782 167.281661 L 12.858834 169.313461 L -3.544200 169.764068 L -19.914136 168.629257 L -19.416284 164.413528 L -3.455595 165.519958 L 12.537363 165.080627 L 28.413238 163.099624 L 44.023765 159.595458 L 59.223155 154.600830 L 73.869468 148.162414 L 87.825935 140.340316 L 100.962181 131.207611 L 113.155570 120.849563 L 124.292205 109.362907 L 134.268096 96.854934 L 142.990066 83.442443 L 150.376663 69.250686 L 156.358917 54.412212 L 160.880950 39.065582 L 163.900527 23.354125 L 165.389465 7.424566 L 165.333847 -8.574329 L 163.734191 -24.493150 L 160.605438 -40.183235 L 155.976821 -55.498046 L 149.891540 -70.294578 L 142.406433 -84.434623 L 133.591415 -97.786155 L 123.528816 -110.224464 L 112.312576 -121.633407 L 100.047470 -131.906433 L 86.848030 -140.947570 L 72.837524 -148.672454 L 58.146797 -155.008865 L 42.913043 -159.897689 L 27.278530 -163.293243 L 11.389265 -165.163818 L -4.606361 -165.491943 L -20.558971 -164.274551 L -36.319583 -161.523025 L -51.741012 -157.263046 L -66.679229 -151.534423 L -80.994743 -144.390625 L -94.553863 -135.898376 L -107.229942 -126.136985 L -118.904624 -115.197616 L -129.468856 -103.182441 L -138.824005 -90.203643 L -146.882675 -76.382446 L -153.569641 -61.847930 L -158.822433 -46.735816 L -162.591995 -31.187240 L -164.843124 -15.347412 L -165.554809 0.635743 L -164.720397 16.612962 L -162.347671 32.435035 Z"></path>
</g>
</g>
<g id="3bf1ea33" class="materialsolid" stroke="none" fill-opacity="1.000000" fill="#ff6a00">
<g id="arc" class="mesh2"><path id="face.000" fill-rule="evenodd" d="M -172.759643 -32.740070 L -168.778747 -49.310623 L -163.212417 -65.417968 L -156.112930 -80.910804 L -147.546966 -95.643585 L -137.595001 -109.477935 L -126.350532 -122.283874 L -113.919166 -133.941146 L -100.417678 -144.340194 L -85.972908 -153.383392 L -70.720535 -160.985748 L -54.803840 -167.075866 L -38.372344 -171.596527 L -21.580387 -174.505279 L -4.585712 -175.774795 L 12.452037 -175.393127 L 29.372821 -173.363891 L 46.017684 -169.706146 L 62.230278 -164.454238 L 77.858291 -157.657516 L 92.754943 -149.379806 L 106.780288 -139.698883 L 119.802574 -128.705657 L 131.699478 -116.503440 L 142.359252 -103.206825 L 151.681747 -88.940727 L 159.579406 -73.839141 L 165.978027 -58.043949 L 170.817504 -41.703506 L 174.052398 -24.971319 L 175.652313 -8.004559 L 175.602188 9.037392 L 173.902542 25.994449 L 170.569305 42.707324 L 165.633819 59.019023 L 159.142410 74.776313 L 151.156082 89.831192 L 141.749847 104.042221 L 131.012069 117.275917 L 119.043609 129.407974 L 105.956909 140.324401 L 91.874870 149.922698 L 76.929801 158.112655 L 61.262077 164.817352 L 45.018882 169.973831 L 28.352798 173.533645 L 11.420376 175.463333 L -5.619325 175.744781 L -22.606239 174.375350 L -39.380802 171.367889 L -38.396282 167.083709 L -22.041084 170.015960 L -5.478841 171.351165 L 11.134866 171.076751 L 27.643980 169.195297 L 43.893413 165.724487 L 59.730525 160.696929 L 75.006561 154.159835 L 89.578002 146.174621 L 103.307983 136.816299 L 116.067520 126.172775 L 127.736778 114.344024 L 138.206115 101.441169 L 147.377182 87.585411 L 155.163848 72.906913 L 161.492965 57.543548 L 166.305084 41.639644 L 169.554977 25.344589 L 171.212142 8.811457 L 171.261001 -7.804445 L 169.701095 -24.347036 L 166.547073 -40.660919 L 161.828582 -56.592853 L 155.589920 -71.993171 L 147.889709 -86.717208 L 138.800277 -100.626663 L 128.406997 -113.590858 L 116.807510 -125.488021 L 104.110786 -136.206405 L 90.436065 -145.645309 L 75.911834 -153.716079 L 60.674514 -160.342895 L 44.867244 -165.463500 L 28.638500 -169.029815 L 12.140737 -171.008300 L -4.471069 -171.380416 L -21.040878 -170.142639 L -37.413036 -167.306610 L -53.433750 -162.898971 L -68.952529 -156.961105 L -83.823585 -149.548812 L -97.907241 -140.731704 L -111.071189 -130.592605 L -123.191772 -119.226783 L -134.155136 -106.740989 L -143.858306 -93.252502 L -152.210098 -78.888031 L -159.132110 -63.782520 L -164.559280 -48.077857 L -168.440658 -31.921569 Z"></path>
</g>
</g>
<g id="5b4331a0" class="materialsolid" stroke="none" fill-opacity="1.000000" fill="#ff4f00">
<g id="arc" class="mesh2"><path id="face.000" fill-rule="evenodd" d="M -152.940567 -98.413429 L -142.659027 -112.802558 L -131.028564 -126.125068 L -118.159126 -138.254974 L -104.172401 -149.077590 L -89.200675 -158.490554 L -73.385475 -166.404907 L -56.876365 -172.745758 L -39.829452 -177.453186 L -22.405925 -180.482666 L -4.770532 -181.805557 L 12.909968 -181.409347 L 30.468399 -179.297790 L 47.738723 -175.490829 L 64.557655 -170.024490 L 80.766136 -162.950454 L 96.210929 -154.335586 L 110.745971 -144.261398 L 124.233825 -132.823089 L 136.546981 -120.128852 L 147.568969 -106.298721 L 157.195602 -91.463447 L 165.335830 -75.763328 L 171.912689 -59.346817 L 176.863998 -42.369132 L 180.142929 -24.990821 L 181.718490 -7.376205 L 181.575775 10.308158 L 179.716125 27.895051 L 176.157135 45.218177 L 170.932449 62.113739 L 164.091476 78.421958 L 155.698913 93.988655 L 145.834106 108.666618 L 134.590316 122.317062 L 122.073898 134.810913 L 108.403175 146.030029 L 93.707427 155.868331 L 78.125617 164.232772 L 61.805068 171.044296 L 44.900108 176.238464 L 27.570587 179.766189 L 9.980362 181.594085 L -7.704230 181.704879 L -25.315973 180.097534 L -42.688339 176.787231 L -59.657054 171.805282 L -58.165626 167.510162 L -41.621131 172.367538 L -24.683074 175.595092 L -7.511624 177.162261 L 9.730854 177.054229 L 26.881320 175.272033 L 43.777606 171.832519 L 60.259941 166.768188 L 76.172477 160.126953 L 91.364746 151.971618 L 105.693107 142.379272 L 119.022048 131.440643 L 131.225570 119.259132 L 142.188247 105.949958 L 151.806442 91.638938 L 159.989196 76.461418 L 166.659133 60.560890 L 171.753204 44.087726 L 175.223220 27.197675 L 177.036376 10.050455 L 177.175537 -7.191801 L 175.639358 -24.366054 L 172.442413 -41.309906 L 167.614883 -57.863147 L 161.202438 -73.869255 L 153.265701 -89.176864 L 143.879745 -103.641258 L 133.133300 -117.125633 L 121.127983 -129.502517 L 107.977317 -140.654861 L 93.805656 -150.477218 L 78.746986 -158.876693 L 62.943710 -165.773880 L 46.545257 -171.103576 L 29.706687 -174.815353 L 12.587219 -176.874114 L -4.651269 -177.260421 L -21.845777 -175.970611 L -38.833717 -173.016860 L -55.454460 -168.427124 L -71.550842 -162.244781 L -86.970657 -154.528305 L -101.568107 -145.350646 L -115.205154 -134.798599 L -127.752853 -122.971939 L -139.092559 -109.982498 L -149.117050 -95.953094 Z"></path>
</g>
</g>
<g id="58f8641" class="materialsolid" stroke="none" fill-opacity="1.000000" fill="#ff3500">
<g id="arc" class="mesh2"><path id="face.000" fill-rule="evenodd" d="M -108.340782 -153.523010 L -92.857978 -163.353713 L -76.490554 -171.628189 L -59.394432 -178.267608 L -41.732471 -183.208724 L -23.672939 -186.404479 L -5.387882 -187.824417 L 12.948503 -187.454986 L 31.161531 -185.299758 L 49.077693 -181.379211 L 66.526306 -175.730728 L 83.341148 -168.408111 L 99.362014 -159.481124 L 114.436302 -149.034790 L 128.420379 -137.168670 L 141.181045 -123.995780 L 152.596710 -109.641616 L 162.558639 -94.242927 L 170.971908 -77.946418 L 177.756393 -60.907333 L 182.847442 -43.288005 L 186.196563 -25.256288 L 187.771835 -6.983958 L 187.558273 11.354905 L 185.557891 29.585592 L 181.789749 47.534427 L 176.289779 65.030418 L 169.110321 81.906883 L 160.319808 98.003044 L 150.001983 113.165557 L 138.255126 127.249984 L 125.191154 140.122131 L 110.934532 151.659378 L 95.621063 161.751815 L 79.396644 170.303298 L 62.415836 177.232345 L 44.840415 182.472946 L 26.837810 185.975189 L 8.579528 187.705703 L -9.760487 187.647994 L -28.007516 185.802627 L -45.987728 182.187179 L -63.529827 176.836074 L -80.466697 169.800323 L -78.455032 165.555313 L -61.941589 172.415191 L -44.838035 177.632492 L -27.307329 181.157577 L -9.516474 182.956802 L 8.365040 183.013061 L 26.166866 181.325820 L 43.719406 177.911132 L 60.855445 172.801528 L 77.411727 166.045715 L 93.230545 157.708023 L 108.161170 147.867904 L 122.061378 136.619079 L 134.798751 124.068733 L 146.251937 110.336418 L 156.311813 95.552970 L 164.882568 79.859207 L 171.882537 63.404659 L 177.245010 46.346069 L 180.918945 28.845954 L 182.869323 11.071032 L 183.077545 -6.809359 L 181.541641 -24.624879 L 178.276260 -42.205806 L 173.312484 -59.384654 L 166.697616 -75.997764 L 158.494674 -91.886856 L 148.781784 -106.900573 L 137.651519 -120.895881 L 125.209869 -133.739456 L 111.575401 -145.308929 L 96.877975 -155.494094 L 81.257621 -164.197906 L 64.863151 -171.337463 L 47.850757 -176.844741 L 30.382495 -180.667266 L 12.624791 -182.768615 L -5.253185 -183.128799 L -23.081115 -181.744369 L -40.689163 -178.628524 L -57.909572 -173.810913 L -74.578292 -167.337478 L -90.536537 -159.269866 L -105.632263 -149.684951 Z"></path>
</g>
</g>
<g id="42e29ddf" class="materialsolid" stroke="none" fill-opacity="1.000000" fill="#ff1a00">
<g id="arc" class="mesh2"><path id="face.000" fill-rule="evenodd" d="M -44.223644 -188.825668 L -25.524013 -192.248245 L -6.579135 -193.823577 L 12.428960 -193.536529 L 31.317630 -191.389846 L 49.905384 -187.404159 L 68.013603 -181.617767 L 85.468307 -174.086273 L 102.101776 -164.882049 L 117.754196 -154.093536 L 132.275131 -141.824386 L 145.525100 -128.192489 L 157.376754 -113.328826 L 167.716247 -97.376228 L 176.444183 -80.487976 L 183.476745 -62.826343 L 188.746337 -44.561038 L 192.202331 -25.867557 L 193.811508 -6.925523 L 193.558425 12.083054 L 191.445510 30.975532 L 187.493057 49.570373 L 181.739028 67.688911 L 174.238754 85.157051 L 165.064270 101.806938 L 154.303726 117.478607 L 142.060546 132.021453 L 128.452346 145.295761 L 113.609901 157.173965 L 97.675819 167.541931 L 80.803192 176.300064 L 63.154151 183.364166 L 44.898292 188.666397 L 26.211017 192.155792 L 7.271890 193.798828 L -11.737110 193.579711 L -30.633331 191.500564 L -49.235206 187.581344 L -67.364006 181.859725 L -84.845520 174.390655 L -101.511779 165.245956 L -98.973991 161.114807 L -82.724380 170.030899 L -65.679901 177.313232 L -48.004333 182.891815 L -29.867498 186.713043 L -11.443682 188.740219 L 7.090093 188.953872 L 25.555744 187.351898 L 43.775836 183.949737 L 61.575302 178.780075 L 78.783111 171.892562 L 95.233917 163.353393 L 110.769653 153.244613 L 125.241043 141.663375 L 138.509033 128.720916 L 150.446151 114.541641 L 160.937667 99.261772 L 169.882797 83.028121 L 177.195556 65.996688 L 182.805725 48.331115 L 186.659378 30.201141 L 188.719482 11.780978 L 188.966232 -6.752386 L 187.397277 -25.220870 L 184.027679 -43.447013 L 178.889831 -61.255687 L 172.033096 -78.475776 L 163.523330 -94.941825 L 153.442352 -110.495605 L 141.886978 -124.987678 L 128.968261 -138.278778 L 114.810340 -150.241195 L 99.549247 -160.760009 L 83.331604 -169.734130 L 66.313270 -177.077331 L 48.657749 -182.719070 L 30.534688 -186.605102 L 12.118236 -188.698120 L -6.414657 -188.977996 L -24.885915 -187.442047 L -43.118053 -184.105041 Z"></path>
</g>
</g>
<g id="50477315" class="materialsolid" stroke="none" fill-opacity="1.000000" fill="#ff0000">
<g id="arc" class="mesh2"><path id="face.000" fill-rule="evenodd" d="M 30.757841 -197.589111 L 49.547340 -193.733215 L 67.880973 -188.094863 L 85.590049 -180.725875 L 102.511634 -171.694107 L 118.490051 -161.082611 L 133.378265 -148.989059 L 147.039306 -135.524688 L 159.347488 -120.813407 L 170.189544 -104.990562 L 179.465759 -88.201713 L 187.090744 -70.601364 L 192.994384 -52.351417 L 197.122314 -33.619808 L 199.436599 -14.578869 L 199.915924 4.596202 L 198.555877 23.728986 L 195.368972 42.643447 L 190.384552 61.165561 L 183.648437 79.124908 L 175.222640 96.356246 L 165.184677 112.701042 L 153.626876 128.008895 L 140.655624 142.139007 L 126.390228 154.961318 L 110.961967 166.357879 L 94.512763 176.223831 L 77.193984 184.468399 L 59.164958 191.015731 L 40.591579 195.805572 L 21.644725 198.793869 L 2.498727 199.953140 L -16.670263 199.272689 L -35.685871 196.758789 L -54.373146 192.434570 L -72.560150 186.339813 L -90.079551 178.530609 L -106.770164 169.078781 L -122.478408 158.071319 L -119.416442 154.119537 L -104.100914 164.851821 L -87.827568 174.067337 L -70.746154 181.681320 L -53.013820 187.623703 L -34.793727 191.839813 L -16.253505 194.290878 L 2.436259 194.954315 L 21.103609 193.824035 L 39.576793 190.910430 L 57.685836 186.240341 L 75.264137 179.856689 L 92.149948 171.818237 L 108.187919 162.198928 L 123.230484 151.087295 L 137.139236 138.585540 L 149.786209 124.808692 L 161.055053 109.883514 L 170.842086 93.947341 L 179.057235 77.146781 L 185.624938 59.636421 L 190.484756 41.577362 L 193.591995 23.135763 L 194.918029 4.481297 L 194.450683 -14.214398 L 192.194259 -32.779312 L 188.169525 -51.042633 L 182.413497 -68.836326 L 174.979110 -85.996673 L 165.934814 -102.365791 L 155.363800 -117.793083 L 143.363327 -132.136581 L 130.043807 -145.264343 L 115.527793 -157.055557 L 99.948844 -167.401763 L 83.450302 -176.207748 L 66.183944 -183.392486 L 48.308658 -188.889892 L 29.988895 -192.649383 Z"></path>
</g>
</g>
</g>

</g>
</svg>
