<svg xmlns="http://www.w3.org/2000/svg" xmlns:xlink="http://www.w3.org/1999/xlink" width="720" height="405" viewBox="0 0 720 405">
<path id="background" d="M 0.0 0.0 L 720.0 0.0 L 720.0 405.0 L 0.0 405.0 Z" stroke="none" fill-opacity="1.000000" fill="#202020"></path>
<g transform="translate(360.000000, 202.500000) scale(1.000000, -1.000000) rotate(0.0) translate(0.0, 0.0)">
<g id="9a7504c" class="meshentity2" transform="translate(0.0, 0.0) rotate(0.0) scale(1.000000, 1.000000)">
<g id="0xffff0000" class="materialsolid" stroke="none" fill-opacity="1.000000" fill="#ff0000">
<g id="arc" class="mesh2"><path id="face.000" fill-rule="evenodd" d="M 24.996093 0.0 L 24.881404 2.391745 L 24.538387 4.761542 L 23.970190 7.087645 L 23.182025 9.348708 L 22.181131 11.523980 L 20.976688 13.593500 L 19.579750 15.538278 L 18.003133 17.340469 L 16.261312 18.983531 L 14.370265 20.452386 L 12.347347 21.733562 L 10.211122 22.815294 L 7.981194 23.687660 L 5.678026 24.342651 L 3.322752 24.774261 L 0.936986 24.978527 L -1.457376 24.953573 L -3.838366 24.699626 L -6.184133 24.219026 L -8.473151 23.516172 L -10.684413 22.597520 L -12.797628 21.471502 L -14.793404 20.148445 L -16.653429 18.640495 L -18.360628 16.961486 L -19.899339 15.126830 L -21.255441 13.153358 L -22.416492 11.059185 L -23.371833 8.863525 L -24.112701 6.586528 L -24.632295 4.249088 L -24.925848 1.872656 L -24.990665 -0.520959 L -24.826150 -2.909795 L -24.433816 -5.271928 L -23.817264 -7.585684 L -22.982149 -9.829828 L -21.936134 -11.983767 L -21.387731 -11.684173 L -22.407596 -9.584082 L -23.221834 -7.396042 L -23.822973 -5.140130 L -24.205497 -2.837050 L -24.365898 -0.507935 L -24.302701 1.825840 L -24.016487 4.142861 L -23.509883 6.421864 L -22.787538 8.641937 L -21.856079 10.782706 L -20.724058 12.824524 L -19.401855 14.748660 L -17.901611 16.537448 L -16.237092 18.174482 L -14.423570 19.644735 L -12.477688 20.934715 L -10.417303 22.032585 L -8.261322 22.928270 L -6.029530 23.613550 L -3.742407 24.082138 L -1.420942 24.329732 L 0.913562 24.354063 L 3.239683 24.154905 L 5.536075 23.734086 L 7.781664 23.095468 L 9.955844 22.244913 L 12.038664 21.190221 L 14.011008 19.941080 L 15.854779 18.508941 L 17.553056 16.906957 L 19.090255 15.149823 L 20.452272 13.253663 L 21.626604 11.235879 L 22.602476 9.114989 L 23.370935 6.910454 L 23.924926 4.642504 L 24.259368 2.331952 L 24.371192 0.0 Z"></path>
</g>
</g>
<g id="0xffe5001a" class="materialsolid" stroke="none" fill-opacity="1.000000" fill="#e5001a">
<g id="arc" class="mesh2"><path id="face.000" fill-rule="evenodd" d="M 30.914403 2.671656 L 30.513647 5.635201 L 29.829467 8.546405 L 28.868219 11.378227 L 27.638832 14.104363 L 26.152725 16.699491 L 24.423702 19.139511 L 22.467823 21.401754 L 20.303251 23.465209 L 17.950098 25.310710 L 15.430215 26.921115 L 12.767012 28.281469 L 9.985224 29.379131 L 7.110690 30.203908 L 4.170108 30.748142 L 1.190793 31.006774 L -1.799582 30.977403 L -4.773243 30.660303 L -7.702568 30.058420 L -10.560348 29.177339 L -13.320040 28.025249 L -15.956011 26.612850 L -18.443775 24.953260 L -20.760227 23.061895 L -22.883850 20.956323 L -24.794918 18.656101 L -26.475683 16.182592 L -27.910530 13.558774 L -29.086133 10.809018 L -29.991577 7.958862 L -30.618444 5.034781 L -30.960916 2.063936 L -31.015810 -0.926079 L -30.782617 -3.907494 L -30.263505 -6.852614 L -29.463293 -9.734084 L -28.389415 -12.525141 L -27.051847 -15.199859 L -25.463008 -17.733394 L -24.826435 -17.290061 L -26.375551 -14.819862 L -27.679681 -12.212012 L -28.726713 -9.490733 L -29.506917 -6.681299 L -30.013053 -3.809807 L -30.240415 -0.902927 L -30.186891 2.012337 L -29.852983 4.908912 L -29.241786 7.759891 L -28.358982 10.538792 L -27.212768 13.219806 L -25.813791 15.778029 L -24.175046 18.189697 L -22.311754 20.432416 L -20.241220 22.485349 L -17.982681 24.329429 L -15.557110 25.947530 L -12.987039 27.324619 L -10.296339 28.447906 L -7.510003 29.306959 L -4.653912 29.893796 L -1.754592 30.202970 L 1.161023 30.231605 L 4.065855 29.979440 L 6.932922 29.448814 L 9.735594 28.644653 L 12.447837 27.574432 L 15.044462 26.248090 L 17.501344 24.677942 L 19.795669 22.878580 L 21.906126 20.866710 L 23.813110 18.661024 L 25.498907 16.282005 L 26.947860 13.751754 L 28.146514 11.093771 L 29.083728 8.332746 L 29.750804 5.494321 L 30.141544 2.604865 Z"></path>
</g>
</g>
<g id="0xffca0035" class="materialsolid" stroke="none" fill-opacity="1.000000" fill="#ca0035">
<g id="arc" class="mesh2"><path id="face.000" fill-rule="evenodd" d="M 36.513660 6.358590 L 35.726242 9.864823 L 34.602966 13.278318 L 33.154392 16.566987 L 31.394145 19.699911 L 29.338768 22.647644 L 27.007579 25.382467 L 24.422496 27.878675 L 21.607826 30.112802 L 18.590023 32.063842 L 15.397458 33.713459 L 12.060145 35.046138 L 8.609456 36.049358 L 5.077832 36.713684 L 1.498472 37.032871 L -2.094974 37.003917 L -5.668726 36.627101 L -9.189188 35.905960 L -12.623264 34.847267 L -15.938671 33.460987 L -19.104242 31.760145 L -22.090215 29.760734 L -24.868526 27.481544 L -27.413051 24.944007 L -29.699871 22.171977 L -31.707489 19.191514 L -33.417030 16.030632 L -34.812423 12.719050 L -35.880550 9.287899 L -36.611373 5.769433 L -36.998020 2.196731 L -37.036849 -1.396622 L -36.727508 -4.976846 L -36.072898 -8.510284 L -35.079174 -11.963718 L -33.755676 -15.304683 L -32.114845 -18.501773 L -30.172111 -21.524930 L -27.945734 -24.345737 L -27.247091 -23.737092 L -29.417810 -20.986806 L -31.311975 -18.039230 L -32.911785 -14.922067 L -34.202194 -11.664626 L -35.171077 -8.297527 L -35.809322 -4.852425 L -36.110931 -1.361706 L -36.073066 2.141813 L -35.696086 5.625198 L -34.983535 9.055701 L -33.942111 12.401074 L -32.581604 15.629866 L -30.914800 18.711725 L -28.957374 21.617679 L -26.727725 24.320409 L -24.246814 26.794507 L -21.537961 29.016717 L -18.626636 30.966144 L -15.540205 32.624462 L -12.307682 33.976089 L -8.959459 35.008308 L -5.527009 35.711425 L -2.042600 36.078819 L 1.461010 36.107048 L 4.950886 35.795841 L 8.394220 35.148124 L 11.758642 34.169986 L 15.012522 32.870620 L 18.125272 31.262247 L 21.067630 29.359981 L 23.811935 27.181711 L 26.332389 24.747905 L 28.605298 22.081453 L 30.609292 19.207416 L 32.325534 16.152812 L 33.737892 12.946361 L 34.833084 9.618203 L 35.600818 6.199625 Z"></path>
</g>
</g>
<g id="0xffb0004f" class="materialsolid" stroke="none" fill-opacity="1.000000" fill="#b0004f">
<g id="arc" class="mesh2"><path id="face.000" fill-rule="evenodd" d="M 41.663475 11.021870 L 40.391498 15.028429 L 38.735237 18.892009 L 36.710456 22.575855 L 34.336414 26.044912 L 31.635696 29.266183 L 28.634000 32.209014 L 25.359884 34.845417 L 21.844493 37.150299 L 18.121278 39.101737 L 14.225658 40.681167 L 10.194696 41.873558 L 6.066743 42.667568 L 1.881072 43.055641 L -2.322495 43.034088 L -6.503968 42.603111 L -10.623561 41.766815 L -14.642084 40.533149 L -18.521301 38.913856 L -22.224311 36.924339 L -25.715879 34.583526 L -28.962789 31.913690 L -31.934148 28.940231 L -34.601688 25.691434 L -36.940032 22.198213 L -38.926933 18.493799 L -40.543483 14.613436 L -41.774307 10.594044 L -42.607696 6.473860 L -43.035717 2.292085 L -43.054302 -1.911497 L -42.663272 -6.096893 L -41.866344 -10.224284 L -40.671104 -14.254402 L -39.088924 -18.148904 L -37.134853 -21.870742 L -34.827487 -25.384500 L -32.188774 -28.656755 L -29.243820 -31.656370 L -28.512725 -30.864961 L -31.384056 -27.940336 L -33.956802 -24.749887 L -36.206485 -21.323972 L -38.111701 -17.695182 L -39.654327 -13.898042 L -40.819686 -9.968677 L -41.596691 -5.944471 L -41.977943 -1.863709 L -41.959827 2.234783 L -41.542507 6.312014 L -40.729953 10.329193 L -39.529899 14.248102 L -37.953758 18.031454 L -36.016532 21.643257 L -33.736648 25.049148 L -31.135795 28.216726 L -28.238719 31.115848 L -25.072980 33.718940 L -21.668703 36.001232 L -18.058271 37.941009 L -14.276032 39.519821 L -10.357972 40.722644 L -6.341368 41.538032 L -2.264433 41.958236 L 1.834045 41.979251 L 5.915075 41.600879 L 9.939829 40.826721 L 13.870017 39.664138 L 17.668247 38.124198 L 21.298383 36.221546 L 24.725887 33.974281 L 27.918149 31.403791 L 30.844804 28.534530 L 33.478004 25.393791 L 35.792694 22.011459 L 37.766860 18.419712 L 39.381710 14.652719 L 40.621891 10.746323 Z"></path>
</g>
</g>
<g id="0xff95006a" class="materialsolid" stroke="none" fill-opacity="1.000000" fill="#95006a">
<g id="arc" class="mesh2"><path id="face.000" fill-rule="evenodd" d="M 46.238140 16.607717 L 44.387954 21.059230 L 42.110420 25.307991 L 39.427452 29.313097 L 36.364894 33.035980 L 32.952224 36.440811 L 29.222301 39.494792 L 25.211036 42.168537 L 20.957044 44.436290 L 16.501287 46.276229 L 11.886659 47.670631 L 7.157589 48.606075 L 2.359609 49.073554 L -2.461088 49.068572 L -7.258090 48.591171 L -11.985216 47.645946 L -16.596950 46.242004 L -21.048894 44.392856 L -25.298187 42.116310 L -29.303916 39.434280 L -33.027515 36.372589 L -36.433135 32.960708 L -39.487987 29.231496 L -42.162662 25.220853 L -44.431411 20.967391 L -46.272384 16.512060 L -47.667861 11.897757 L -48.604408 7.168906 L -49.073005 2.371035 L -49.069141 -2.449663 L -48.592857 -7.246777 L -47.648735 -11.974122 L -46.245864 -16.586183 L -44.397754 -21.038558 L -42.122200 -25.288379 L -39.441101 -29.294733 L -36.380275 -33.019042 L -32.969192 -36.425460 L -29.240692 -39.481182 L -28.509675 -38.494155 L -32.144962 -35.514823 L -35.470767 -32.193569 L -38.455074 -28.562366 L -41.069145 -24.656169 L -43.287815 -20.512594 L -45.089721 -16.171527 L -46.457519 -11.674769 L -47.378036 -7.065608 L -47.842414 -2.388421 L -47.846183 2.311759 L -47.389301 6.989684 L -46.476165 11.600315 L -45.115573 16.099260 L -43.320625 20.443208 L -41.108596 24.590333 L -38.500789 28.500711 L -35.522308 32.136692 L -32.201828 35.463272 L -28.571317 38.448421 L -24.665731 41.063400 L -20.522672 43.283039 L -16.182025 45.085952 L -11.685585 46.454799 L -7.076639 47.376392 L -2.399560 47.841861 L 2.300619 47.846717 L 6.978650 47.390926 L 11.589492 46.478866 L 16.088756 45.119323 L 20.433118 43.325386 L 24.580760 41.114322 L 28.491744 38.507427 L 32.128421 35.529788 L 35.455772 32.210083 L 38.441768 28.580270 L 41.057659 24.675292 L 43.278259 20.532751 L 45.082183 16.192523 Z"></path>
</g>
</g>
<g id="0xff7d0380" class="materialsolid" stroke="none" fill-opacity="1.000000" fill="#7d0380">
<g id="arc" class="mesh2"><path id="face.000" fill-rule="evenodd" d="M 50.118183 23.048036 L 47.672359 27.755908 L 44.785594 32.207061 L 41.484596 36.360313 L 37.799892 40.177265 L 33.765563 43.622596 L 29.418926 46.664451 L 24.800182 49.274692 L 19.952054 51.429172 L 14.919384 53.107967 L 9.748717 54.295551 L 4.487882 54.980934 L -0.814462 55.157783 L -6.109274 54.824455 L -11.347579 53.984043 L -16.480928 52.644309 L -21.461835 50.817653 L -26.244237 48.520965 L -30.783897 45.775493 L -35.038825 42.606628 L -38.969673 39.043678 L -42.540073 35.119606 L -45.717006 30.870691 L -48.471088 26.336250 L -50.776844 21.558214 L -52.612949 16.580778 L -53.962417 11.449982 L -54.812767 6.213281 L -55.156139 0.919111 L -54.989349 -4.383559 L -54.313949 -9.645685 L -53.136180 -14.818593 L -51.466934 -19.854442 L -49.321659 -24.706649 L -46.720184 -29.330337 L -43.686580 -33.682735 L -40.248908 -37.723598 L -36.438957 -41.415534 L -32.291973 -44.724411 L -27.846307 -47.619609 L -27.150152 -46.429122 L -31.484674 -43.606300 L -35.527984 -40.380146 L -39.242687 -36.780506 L -42.594417 -32.840667 L -45.552181 -28.597080 L -48.088619 -24.088983 L -50.180263 -19.358081 L -51.807777 -14.448129 L -52.956100 -9.404542 L -53.614620 -4.273970 L -53.777233 0.896134 L -53.442447 6.057949 L -52.613353 11.163733 L -51.297626 16.166259 L -49.507423 21.019260 L -47.259311 25.677845 L -44.574081 30.098924 L -41.476573 34.241615 L -37.995429 38.067588 L -34.162860 41.541461 L -30.014301 44.631107 L -25.588132 47.307945 L -20.925291 49.547210 L -16.068904 51.328205 L -11.063890 52.634441 L -5.956542 53.453849 L -0.794101 53.778839 L 4.375685 53.606410 L 9.504999 52.938163 L 14.546399 51.780269 L 19.453252 50.143444 L 24.180179 48.042823 L 28.683452 45.497844 L 32.921424 42.532035 L 36.854896 39.172832 L 40.447483 35.451309 L 43.665958 31.401884 L 46.480548 27.062013 L 48.865230 22.471836 Z"></path>
</g>
</g>
<g id="0xff6b1786" class="materialsolid" stroke="none" fill-opacity="1.000000" fill="#6b1786">
<g id="arc" class="mesh2"><path id="face.000" fill-rule="evenodd" d="M 53.191902 30.261117 L 50.018962 35.259281 L 46.377914 39.927467 L 42.302833 44.221984 L 37.831851 48.102645 L 33.006820 51.533130 L 27.872886 54.481338 L 22.478099 56.919666 L 16.872949 58.825309 L 11.109890 60.180427 L 5.242859 60.972339 L -0.673238 61.193630 L -6.583035 60.842231 L -12.431224 59.921436 L -18.163074 58.439853 L -23.724941 56.411354 L -29.064777 53.854919 L -34.132602 50.794479 L -38.880996 47.258666 L -43.265518 43.280582 L -47.245132 38.897445 L -50.782592 34.150283 L -53.844799 29.083524 L -56.403091 23.744579 L -58.433528 18.183418 L -59.917102 12.452084 L -60.839939 6.604216 L -61.193389 0.694541 L -60.974159 -5.221632 L -60.184291 -11.088939 L -58.831184 -16.852470 L -56.927490 -22.458282 L -54.491035 -27.853918 L -51.544616 -32.988876 L -48.115814 -37.815105 L -44.236709 -42.287437 L -39.943611 -46.364013 L -35.276691 -50.006687 L -30.279632 -53.181362 L -24.999197 -55.858337 L -24.374219 -54.461879 L -29.522642 -51.851829 L -34.394775 -48.756523 L -38.945018 -45.204914 L -43.130794 -41.230251 L -46.912918 -36.869728 L -50.256004 -32.164157 L -53.128761 -27.157569 L -55.504302 -21.896825 L -57.360404 -16.431158 L -58.679687 -10.811717 L -59.449810 -5.091092 L -59.663558 0.677178 L -59.318939 6.439111 L -58.419178 12.140782 L -56.972690 17.728832 L -54.993015 23.150964 L -52.498680 28.356435 L -49.513027 33.296527 L -46.064002 37.925014 L -42.183879 42.198570 L -37.908973 46.077201 L -33.279289 49.524616 L -28.338159 52.508548 L -23.131820 55.001071 L -17.708999 56.978858 L -12.120444 58.423400 L -6.418460 59.321178 L -0.656407 59.663791 L 5.111787 59.448032 L 10.832144 58.675922 L 16.451126 57.354682 L 21.916147 55.496677 L 27.176065 53.119300 L 32.181652 50.244804 L 36.886058 46.900081 L 41.245265 43.116436 L 45.218471 38.929279 L 48.768489 34.377799 L 51.862106 29.504590 Z"></path>
</g>
</g>
<g id="0xff592b8c" class="materialsolid" stroke="none" fill-opacity="1.000000" fill="#592b8c">
<g id="arc" class="mesh2"><path id="face.000" fill-rule="evenodd" d="M 55.356803 38.152519 L 51.386627 43.352104 L 46.929893 48.141201 L 42.028800 52.474468 L 36.729755 56.310878 L 31.082927 59.614105 L 25.141792 62.352870 L 18.962596 64.501243 L 12.603853 66.038879 L 6.125767 66.951210 L -0.410319 67.229621 L -6.942521 66.871459 L -13.408987 65.880111 L -19.748489 64.264976 L -25.901000 62.041343 L -31.808267 59.230266 L -37.414352 55.858364 L -42.666175 51.957553 L -47.514011 47.564788 L -51.911956 42.721641 L -55.818370 37.473987 L -59.196258 31.871507 L -62.013645 25.967247 L -64.243850 19.817113 L -65.865753 13.479339 L -66.864006 7.013936 L -67.229148 0.482120 L -66.957717 -6.054259 L -66.052299 -12.533315 L -64.521453 -18.893697 L -62.379688 -25.075183 L -59.647270 -31.019243 L -56.350078 -36.669593 L -52.519325 -41.972736 L -48.191295 -46.878452 L -43.406959 -51.340297 L -38.211616 -55.316020 L -32.654468 -58.767982 L -26.788125 -61.663494 L -20.668138 -63.975135 L -20.151435 -62.375762 L -26.118423 -60.121906 L -31.838106 -57.298786 L -37.256328 -53.933124 L -42.321784 -50.056793 L -46.986515 -45.706493 L -51.206344 -40.923419 L -54.941326 -35.752857 L -58.156089 -30.243762 L -60.820194 -24.448305 L -62.908420 -18.421356 L -64.400993 -12.219982 L -65.283782 -5.902903 L -65.548416 0.470067 L -65.192405 6.838588 L -64.219108 13.142357 L -62.637752 19.321685 L -60.463306 25.318067 L -57.716354 31.074720 L -54.422912 36.537139 L -50.614162 41.653602 L -46.326164 46.375663 L -41.599521 50.658618 L -36.478992 54.461902 L -31.013059 57.749511 L -25.253475 60.490310 L -19.254777 62.658355 L -13.073762 64.233116 L -6.768958 65.199668 L -0.400061 65.548881 L 5.972623 65.277435 L 12.288756 64.387908 L 18.488533 62.888713 L 24.513248 60.794052 L 30.305856 58.123756 L 35.811515 54.903110 L 40.978080 51.162609 L 45.756649 46.937671 L 50.101963 42.268299 L 53.972885 37.198707 Z"></path>
</g>
</g>
<g id="0xff483f91" class="materialsolid" stroke="none" fill-opacity="1.000000" fill="#483f91">
<g id="arc" class="mesh2"><path id="face.000" fill-rule="evenodd" d="M 56.520965 46.616035 L 51.693252 51.918029 L 46.370361 56.722690 L 40.603279 60.983993 L 34.447257 64.661125 L 27.961254 67.718849 L 21.207405 70.127883 L 14.250406 71.865150 L 7.156900 72.914009 L -0.005162 73.264411 L -7.167175 72.913002 L -14.260533 71.863143 L -21.217287 70.124893 L -27.970794 67.714904 L -34.456367 64.656265 L -40.611873 60.978271 L -46.378356 56.716156 L -51.700569 51.910743 L -56.527530 46.608070 L -60.813007 40.858928 L -64.515945 34.718395 L -67.600868 28.245283 L -70.038238 21.501607 L -71.804695 14.551963 L -72.883323 7.462924 L -73.263786 0.302395 L -72.942443 -6.861030 L -71.922370 -13.958732 L -70.213348 -20.922719 L -67.831726 -27.686286 L -64.800346 -34.184642 L -61.148220 -40.355537 L -56.910346 -46.139858 L -52.127323 -51.482196 L -46.844955 -56.331375 L -41.113857 -60.640949 L -34.988918 -64.369628 L -28.528818 -67.481704 L -21.795433 -69.947357 L -14.853265 -71.742973 L -14.481933 -69.949401 L -21.250547 -68.198677 L -27.815597 -65.794662 L -34.114196 -62.760395 L -40.086013 -59.124927 L -45.673835 -54.923095 L -50.824138 -50.195140 L -55.487590 -44.986362 L -59.619514 -39.346649 L -63.180332 -33.330024 L -66.135940 -26.994131 L -68.458015 -20.399652 L -70.124313 -13.609765 L -71.118881 -6.689504 L -71.432197 0.294835 L -71.061241 7.276351 L -70.009574 14.188164 L -68.287284 20.964067 L -65.910850 27.539154 L -62.903049 33.850433 L -59.292682 39.837455 L -55.114341 45.442871 L -50.408058 50.612979 L -45.218894 55.298252 L -39.596580 59.453819 L -33.594959 63.039863 L -27.271526 66.022033 L -20.686855 68.371772 L -13.904020 70.066566 L -6.987996 71.090179 L -0.005033 71.432800 L 6.977978 71.091163 L 13.894145 70.068519 L 20.677219 68.374687 L 27.262222 66.025878 L 33.586074 63.044597 L 39.588199 59.459396 L 45.211105 55.304626 L 50.400920 50.620079 L 55.107940 45.450634 Z"></path>
</g>
</g>
<g id="0xff365396" class="materialsolid" stroke="none" fill-opacity="1.000000" fill="#365396">
<g id="arc" class="mesh2"><path id="face.000" fill-rule="evenodd" d="M 56.604270 55.534866 L 51.019405 60.705730 L 44.964530 65.317352 L 38.495426 69.327247 L 31.671693 72.698478 L 24.556188 75.399986 L 17.214466 77.406890 L 9.714157 78.700698 L 2.124359 79.269493 L -5.485009 79.108024 L -13.043847 78.217796 L -20.482521 76.606994 L -27.732503 74.290466 L -34.727008 71.289550 L -41.401596 67.631889 L -47.694774 63.351188 L -53.548576 58.486877 L -58.909076 53.083763 L -63.726882 47.191623 L -67.957618 40.864742 L -71.562301 34.161399 L -74.507736 27.143352 L -76.766784 19.875253 L -78.318626 12.424057 L -79.148979 4.858405 L -79.250183 -2.752002 L -78.621307 -10.337059 L -77.268150 -17.826887 L -75.203170 -25.152488 L -72.445396 -32.246376 L -69.020240 -39.043201 L -64.959236 -45.480346 L -60.299816 -51.498512 L -55.084892 -57.042259 L -49.362510 -62.060512 L -43.185386 -66.507049 L -36.610420 -70.340896 L -29.698188 -73.526748 L -22.512369 -76.035240 L -15.119158 -77.843276 L -7.586665 -78.934196 L -7.396998 -76.960845 L -14.741179 -75.897193 L -21.949560 -74.134361 L -28.955734 -71.688575 L -35.695159 -68.582374 L -42.105747 -64.844375 L -48.128448 -60.509002 L -53.707771 -55.616207 L -58.792324 -50.211051 L -63.335262 -44.343338 L -67.294731 -38.067119 L -70.634269 -31.440216 L -73.323097 -24.523675 L -75.336448 -17.381216 L -76.655776 -10.078633 L -77.268928 -2.683202 L -77.170257 4.736945 L -76.360664 12.113455 L -74.847618 19.378374 L -72.645050 26.464769 L -69.773246 33.307365 L -66.258682 39.843120 L -62.133712 46.011833 L -57.436347 51.756668 L -52.209865 57.024707 L -46.502410 61.767410 L -40.366558 65.941093 L -33.858833 69.507308 L -27.039194 72.433204 L -19.970458 74.691818 L -12.717751 76.262351 L -5.347884 77.130325 L 2.071250 77.287757 L 9.471303 76.733184 L 16.784105 75.471725 L 23.942283 73.514991 L 30.879901 70.881019 L 37.533042 67.594062 L 43.840415 63.684413 L 49.743919 59.188083 L 55.189163 54.146499 Z"></path>
</g>
</g>
<g id="0xff276592" class="materialsolid" stroke="none" fill-opacity="1.000000" fill="#276592">
<g id="arc" class="mesh2"><path id="face.000" fill-rule="evenodd" d="M 55.539550 64.782890 L 49.034355 69.836212 L 42.072227 74.238746 L 34.718040 77.949485 L 27.040328 80.933830 L 19.110637 83.163978 L 11.002861 84.619155 L 2.792551 85.285789 L -5.443779 85.157669 L -13.629383 84.236007 L -21.687978 82.529365 L -29.544471 80.053665 L -37.125648 76.831962 L -44.360866 72.894294 L -51.182697 68.277343 L -57.527572 63.024147 L -63.336368 57.183639 L -68.554954 50.810260 L -73.134696 43.963397 L -77.032920 36.706855 L -80.213302 29.108255 L -82.646202 21.238401 L -84.308944 13.170635 L -85.186050 4.980136 L -85.269325 -3.256771 L -84.558006 -11.463330 L -83.058715 -19.563066 L -80.785438 -27.480501 L -77.759338 -35.141853 L -74.008628 -42.475730 L -69.568252 -49.413787 L -64.479591 -55.891376 L -58.790077 -61.848129 L -52.552707 -67.228546 L -45.825618 -71.982475 L -38.671497 -76.065628 L -31.157009 -79.439949 L -23.352178 -82.073997 L -15.329735 -83.943214 L -7.164440 -85.030204 L 1.067617 -85.324821 L 1.040927 -83.191703 L -6.985329 -82.904449 L -14.946492 -81.844642 L -22.768375 -80.022140 L -30.378084 -77.453948 L -37.704711 -74.163986 L -44.679981 -70.182914 L -51.238891 -65.547836 L -57.320323 -60.301929 L -62.867610 -54.494091 L -67.829048 -48.178447 L -72.158416 -41.413837 L -75.815353 -34.263305 L -78.765800 -26.793487 L -80.982254 -19.073989 L -82.444053 -11.176747 L -83.137596 -3.175352 L -83.056396 4.855632 L -82.201225 12.841370 L -80.580047 20.707443 L -78.207969 28.380548 L -75.107101 35.789188 L -71.306335 42.864318 L -66.841079 49.540004 L -61.752960 55.754055 L -56.089385 61.448543 L -49.903133 66.570419 L -43.251846 71.071937 L -36.197509 74.911163 L -28.805860 78.052322 L -21.145780 80.466133 L -13.288649 82.130104 L -5.307685 83.028732 L 2.722738 83.153648 L 10.727789 82.503677 L 18.632873 81.084884 L 26.364324 78.910484 L 33.850090 76.000747 L 41.020423 72.382789 L 47.808494 68.090309 L 54.151062 63.163318 Z"></path>
</g>
</g>
<g id="0xff1e747d" class="materialsolid" stroke="none" fill-opacity="1.000000" fill="#1e747d">
<g id="arc" class="mesh2"><path id="face.000" fill-rule="evenodd" d="M 53.273544 74.225990 L 45.824691 79.042182 L 37.943908 83.113349 L 29.705480 86.401115 L 21.187059 88.874496 L 12.468936 90.510185 L 3.633286 91.292755 L -5.236609 91.214836 L -14.057147 90.277160 L -22.745187 88.488555 L -31.218841 85.865898 L -39.398235 82.433898 L -47.206275 78.224906 L -54.569366 73.278594 L -61.418113 67.641578 L -67.687950 61.367008 L -73.319786 54.514011 L -78.260528 47.147190 L -82.463630 39.335968 L -85.889450 31.153984 L -88.505714 22.678354 L -90.287742 13.988965 L -91.218765 5.167723 L -91.289985 -3.702229 L -90.500747 -12.537286 L -88.858474 -21.254171 L -86.378662 -29.770721 L -83.084663 -38.006664 L -79.007553 -45.884372 L -74.185737 -53.329586 L -68.664672 -60.272140 L -62.496410 -66.646591 L -55.739067 -72.392852 L -48.456356 -77.456764 L -40.716911 -81.790596 L -32.593681 -85.353500 L -24.163238 -88.111900 L -15.505041 -90.039779 L -6.700697 -91.118980 L 2.166803 -91.339332 L 11.013880 -90.698745 L 10.738533 -88.431282 L 2.112632 -89.055847 L -6.533181 -88.841011 L -15.117416 -87.788787 L -23.559158 -85.909103 L -31.778841 -83.219665 L -39.698989 -79.745826 L -47.244945 -75.520347 L -54.345596 -70.583030 L -60.933998 -64.980422 L -66.948059 -58.765335 L -72.331092 -51.996345 L -77.032363 -44.737262 L -81.007553 -37.056499 L -84.219192 -29.026454 L -86.637016 -20.722816 L -88.238227 -12.223855 L -89.007743 -3.609673 L -88.938293 5.038529 L -88.030555 13.639242 L -86.293067 22.111396 L -83.742218 30.375137 L -80.402038 38.352573 L -76.304023 45.968509 L -71.486793 53.151168 L -65.995750 59.832836 L -59.882656 65.950546 L -53.205135 71.446632 L -46.026119 76.269279 L -38.413280 80.373054 L -30.438371 83.719253 L -22.176559 86.276344 L -13.705718 88.020233 L -5.105694 88.934471 L 3.542454 89.010444 L 12.157214 88.247436 L 20.657382 86.652641 L 28.962844 84.241088 L 36.995311 81.035514 L 44.679073 77.066123 L 51.941707 72.370346 Z"></path>
</g>
</g>
<g id="0xff168368" class="materialsolid" stroke="none" fill-opacity="1.000000" fill="#168368">
<g id="arc" class="mesh2"><path id="face.000" fill-rule="evenodd" d="M 49.767814 83.723632 L 41.365715 88.178001 L 32.569271 91.791748 L 23.462333 94.530426 L 14.131726 96.367919 L 4.666397 97.286727 L -4.843415 97.278068 L -14.307056 96.342048 L -23.634304 94.487571 L -32.736244 91.732337 L -41.526100 88.102584 L -49.920078 83.632934 L -57.838161 78.365997 L -65.204856 72.351982 L -71.949935 65.648216 L -78.009109 58.318614 L -83.324607 50.433048 L -87.845748 42.066692 L -91.529441 33.299308 L -94.340568 24.214471 L -96.252311 14.898796 L -97.246475 5.441085 L -97.313568 -4.068495 L -96.452941 -13.539290 L -94.672813 -22.881013 L -91.990150 -32.004604 L -88.430526 -40.823089 L -84.027870 -49.252403 L -78.824165 -57.212181 L -72.869010 -64.626541 L -66.219177 -71.424804 L -58.938064 -77.542160 L -51.095085 -82.920288 L -42.765003 -87.507926 L -34.027233 -91.261322 L -24.965074 -94.144714 L -15.664920 -96.130607 L -6.215428 -97.200050 L 3.293316 -97.342880 L 12.770666 -96.557716 L 22.126270 -94.852043 L 21.573112 -92.480743 L 12.451398 -94.143775 L 3.210983 -94.909309 L -6.060043 -94.770057 L -15.273298 -93.727340 L -24.340950 -91.791099 L -33.176555 -88.979789 L -41.695877 -85.320228 L -49.817710 -80.847290 L -57.464614 -75.603607 L -64.563697 -69.639190 L -71.047286 -63.010883 L -76.853561 -55.781879 L -81.927177 -48.021095 L -86.219764 -39.802513 L -89.690399 -31.204492 L -92.305992 -22.308988 L -94.041618 -13.200808 L -94.880729 -3.966783 L -94.815315 5.305058 L -93.846008 14.526327 L -91.982048 23.609111 L -89.241203 32.466823 L -85.649612 41.015026 L -81.241493 49.172225 L -76.058883 56.860652 L -70.151191 64.007011 L -63.574733 70.543182 L -56.392208 76.406852 L -48.672077 81.542114 L -40.487949 85.900024 L -31.917837 89.439025 L -23.043447 92.125389 L -13.949380 93.933502 L -4.722330 94.846122 L 4.549737 94.854560 L 13.778433 93.958724 L 22.875776 92.167167 L 31.755039 89.496955 L 40.331573 85.973556 L 48.523616 81.630546 Z"></path>
</g>
</g>
<g id="0xff0d9253" class="materialsolid" stroke="none" fill-opacity="1.000000" fill="#0d9253">
<g id="arc" class="mesh2"><path id="face.000" fill-rule="evenodd" d="M 44.999340 93.130348 L 35.881439 97.008888 L 26.434246 99.997169 L 16.744461 102.067749 L 6.901010 103.201637 L -3.005772 103.388427 L -12.884971 102.626403 L -22.645921 100.922569 L -32.199047 98.292541 L -41.456676 94.760467 L -50.333850 90.358757 L -58.749103 85.127815 L -66.625205 79.115638 L -73.889869 72.377403 L -80.476440 64.974952 L -86.324470 56.976207 L -91.380279 48.454586 L -95.597480 39.488288 L -98.937362 30.159601 L -101.369277 20.554134 L -102.870910 10.760036 L -103.428474 0.867193 L -103.036865 -9.033608 L -101.699668 -18.851509 L -99.429153 -28.496404 L -96.246162 -37.879783 L -92.179901 -46.915531 L -87.267692 -55.520729 L -81.554611 -63.616405 L -75.093093 -71.128257 L -67.942428 -77.987358 L -60.168243 -84.130760 L -51.841892 -89.502067 L -43.039768 -94.052009 L -33.842666 -97.738815 L -24.334983 -100.528656 L -14.603975 -102.395927 L -4.738943 -103.323493 L 5.169579 -103.302848 L 15.030658 -102.334167 L 24.753801 -100.426353 L 34.249771 -97.596900 L 33.393527 -95.156982 L 24.134956 -97.915687 L 14.654893 -99.775817 L 5.040340 -100.720275 L -4.620469 -100.740409 L -14.238876 -99.836029 L -23.726610 -98.015441 L -32.996601 -95.295349 L -41.963775 -91.700714 L -50.545845 -87.264518 L -58.664039 -82.027488 L -66.243865 -76.037681 L -73.215766 -69.350059 L -79.515747 -62.025997 L -85.086006 -54.132713 L -89.875411 -45.742645 L -93.840011 -36.932788 L -96.943428 -27.783994 L -99.157180 -18.380220 L -100.460952 -8.807768 L -100.842765 0.845513 L -100.299133 10.491036 L -98.835044 20.040281 L -96.463920 29.405611 L -93.207542 38.501083 L -89.095771 47.243221 L -84.166358 55.551807 L -78.464530 63.350582 L -72.042633 70.567970 L -64.959571 77.137748 L -57.280376 82.999626 L -49.075504 88.099800 L -40.420261 92.391456 L -31.394071 95.835227 L -22.079774 98.399505 L -12.562847 100.060752 L -2.930628 100.803718 L 6.728485 100.621597 L 16.325851 99.516059 L 25.773389 97.497238 L 34.984401 94.583671 L 43.874359 90.802093 Z"></path>
</g>
</g>
<g id="0xff04a13e" class="materialsolid" stroke="none" fill-opacity="1.000000" fill="#04a13e">
<g id="arc" class="mesh2"><path id="face.000" fill-rule="evenodd" d="M 38.961158 102.297393 L 28.936830 105.571723 L 18.643943 107.866271 L 8.178028 109.159736 L -2.363786 109.440124 L -12.883662 108.704833 L -23.283967 106.960670 L -33.468185 104.223846 L -43.341789 100.519744 L -52.813148 95.882743 L -61.794368 90.355880 L -70.202087 83.990447 L -77.958282 76.845527 L -84.990966 68.987426 L -91.234870 60.489063 L -96.632057 51.429325 L -101.132423 41.892284 L -104.694198 31.966449 L -107.284339 21.743942 L -108.878814 11.319638 L -109.462799 0.790278 L -109.030891 -9.746415 L -107.587104 -20.192655 L -105.144828 -30.451492 L -101.726730 -40.427719 L -97.364540 -50.028743 L -92.098731 -59.165466 L -85.978179 -67.753097 L -79.059684 -75.711921 L -71.407463 -82.968086 L -63.092529 -89.454246 L -54.192047 -95.110206 L -44.788623 -99.883476 L -34.969524 -103.729751 L -24.825889 -106.613334 L -14.451850 -108.507476 L -3.943687 -109.394592 L 6.601076 -109.266441 L 17.084575 -108.124214 L 27.409521 -105.978523 L 37.480083 -102.849266 L 47.202804 -98.765502 L 46.022735 -96.296363 L 36.543083 -100.278045 L 26.724281 -103.329063 L 16.657461 -105.421112 L 6.436049 -106.534782 L -3.845095 -106.659729 L -14.090554 -105.794792 L -24.205244 -103.948005 L -34.095291 -101.136512 L -43.668907 -97.386390 L -52.837245 -92.732452 L -61.515213 -87.217895 L -69.622276 -80.893882 L -77.083198 -73.819122 L -83.828727 -66.059265 L -89.796264 -57.686332 L -94.930427 -48.778030 L -99.183570 -39.417026 L -102.516212 -29.690206 L -104.897430 -19.687839 L -106.305122 -9.502755 L -106.726234 0.770521 L -106.156837 11.036647 L -104.602233 21.200345 L -102.076843 31.167289 L -98.604110 40.844978 L -94.216255 50.143592 L -88.954002 58.976837 L -82.866195 67.262741 L -76.009330 74.924392 L -68.447036 81.890693 L -60.249511 88.096984 L -51.492824 93.485671 L -42.258243 98.006752 L -32.631477 101.618255 L -22.701869 104.286659 L -12.561572 105.987213 L -2.304691 106.704132 L 7.973577 106.430755 L 18.177845 105.169616 L 28.213409 102.932434 L 37.987133 99.739959 Z"></path>
</g>
</g>
<g id="0xff1bb22e" class="materialsolid" stroke="none" fill-opacity="1.000000" fill="#1bb22e">
<g id="arc" class="mesh2"><path id="face.000" fill-rule="evenodd" d="M 31.662673 111.074462 L 20.766332 113.616989 L 9.675103 115.093238 L -1.506925 115.489349 L -12.674813 114.801612 L -23.723747 113.036476 L -34.550037 110.210510 L -45.052085 106.350227 L -55.131317 101.491867 L -64.693153 95.681022 L -73.647857 88.972213 L -81.911376 81.428413 L -89.406173 73.120429 L -96.061904 64.126213 L -101.816108 54.530181 L -106.614784 44.422393 L -110.412895 33.897705 L -113.174797 23.054891 L -114.874557 11.995711 L -115.496246 0.823952 L -115.034011 -10.355538 L -113.492202 -21.437845 L -110.885284 -32.318958 L -107.237724 -42.896766 L -102.583747 -53.071990 L -96.967041 -62.749141 L -90.440307 -71.837402 L -83.064804 -80.251480 L -74.909751 -87.912406 L -66.051681 -94.748283 L -56.573722 -100.694961 L -46.564830 -105.696632 L -36.118930 -109.706352 L -25.334060 -112.686500 L -14.311433 -114.609092 L -3.154495 -115.456092 L 8.032046 -115.219566 L 19.143209 -113.901702 L 30.074716 -111.514900 L 40.723972 -108.081542 L 50.991046 -103.633850 L 60.779571 -98.213569 L 59.260078 -95.758232 L 49.716266 -101.043006 L 39.705875 -105.379501 L 29.322849 -108.727027 L 18.664628 -111.054161 L 7.831245 -112.339073 L -3.075633 -112.569702 L -13.953648 -111.743865 L -24.700710 -109.869338 L -35.215957 -106.963699 L -45.400711 -103.054214 L -55.159381 -98.177589 L -64.400390 -92.379577 L -73.037010 -85.714591 L -80.988189 -78.245193 L -88.179298 -70.041465 L -94.542869 -61.180412 L -100.019157 -51.745193 L -104.556777 -41.824344 L -108.113151 -31.510986 L -110.654899 -20.901899 L -112.158164 -10.096650 L -112.608840 0.803354 L -112.002693 11.695818 L -110.345428 22.478519 L -107.652572 33.050266 L -103.949417 43.311832 L -99.270713 53.166927 L -93.660362 62.523059 L -87.171020 71.292419 L -79.863594 79.392715 L -71.806663 86.747909 L -63.075828 93.288993 L -53.753040 98.954574 L -43.925785 103.691474 L -33.686290 107.455253 L -23.130655 110.210571 L -12.357942 111.931571 L -1.469252 112.602127 L 9.433225 112.215911 L 20.247175 110.776565 L 30.871109 108.297607 Z"></path>
</g>
</g>
<g id="0xff50c423" class="materialsolid" stroke="none" fill-opacity="1.000000" fill="#50c423">
<g id="arc" class="mesh2"><path id="face.000" fill-rule="evenodd" d="M 23.129854 119.311416 L 11.411241 120.995819 L -0.415659 121.532020 L -12.238615 120.914932 L -23.945432 119.150405 L -35.425014 116.255203 L -46.568431 112.256782 L -57.269931 107.193092 L -67.427970 101.112182 L -76.946136 94.071762 L -85.734123 86.138641 L -93.708526 77.388092 L -100.793670 67.903175 L -106.922325 57.773876 L -112.036331 47.096328 L -116.087165 35.971855 L -119.036376 24.506027 L -120.855979 12.807644 L -121.528717 0.987724 L -121.048194 -10.841568 L -119.418968 -22.567981 L -116.656517 -34.080230 L -112.787033 -45.269077 L -107.847259 -56.028335 L -101.884048 -66.255905 L -94.954002 -75.854736 L -87.122886 -84.733741 L -78.465011 -92.808654 L -69.062530 -100.002861 L -59.004676 -106.248069 L -48.386894 -111.485038 L -37.309940 -115.664047 L -25.878932 -118.745468 L -14.202341 -120.700035 L -2.390977 -121.509208 L 9.443076 -121.165313 L 21.187519 -119.671607 L 32.730903 -117.042266 L 43.963680 -113.302246 L 54.779262 -108.487030 L 65.075019 -102.642326 L 74.753227 -95.823585 L 72.884399 -93.428001 L 63.448143 -100.076271 L 53.409782 -105.774856 L 42.864589 -110.469696 L 31.912630 -114.116210 L 20.657831 -116.679824 L 9.206999 -118.136184 L -2.331202 -118.471481 L -13.847283 -117.682540 L -25.231958 -115.776832 L -36.377193 -112.772453 L -47.177227 -108.697914 L -57.529563 -103.591873 L -67.335968 -97.502784 L -76.503387 -90.488449 L -84.944816 -82.615402 L -92.580154 -73.958374 L -99.336944 -64.599510 L -105.151069 -54.627628 L -109.967361 -44.137348 L -113.740104 -33.228225 L -116.433502 -22.003782 L -118.021987 -10.570529 L -118.490501 0.963031 L -117.834587 12.487455 L -116.060470 23.893377 L -113.184989 35.072559 L -109.235427 45.918922 L -104.249267 56.329528 L -98.273826 66.205596 L -91.365814 75.453399 L -83.590766 83.985176 L -75.022483 91.719970 L -65.742271 98.584381 L -55.838188 104.513267 L -45.404224 109.450363 L -34.539394 113.348831 L -23.346796 116.171653 L -11.932650 117.892059 L -0.405267 118.493721 L 11.125961 117.970924 L 22.551609 116.328636 Z"></path>
</g>
</g>
<g id="0xff85d519" class="materialsolid" stroke="none" fill-opacity="1.000000" fill="#85d519">
<g id="arc" class="mesh2"><path id="face.000" fill-rule="evenodd" d="M 13.405259 126.859970 L 0.929488 127.562889 L -11.555199 127.041847 L -23.929018 125.301856 L -36.073242 122.359611 L -47.871345 118.243339 L -59.210128 112.992538 L -69.980796 106.657585 L -80.080009 99.299270 L -89.410865 90.988182 L -97.883834 81.804084 L -105.417625 71.835083 L -111.939933 61.176826 L -117.388198 49.931591 L -121.710136 38.207267 L -124.864280 26.116346 L -126.820365 13.774845 L -127.559631 1.301175 L -127.074974 -11.184978 L -125.371047 -23.563814 L -122.464202 -35.716560 L -118.382324 -47.526603 L -113.164581 -58.880641 L -106.861038 -69.669723 L -99.532180 -79.790328 L -91.248321 -89.145362 L -82.088951 -97.645057 L -72.141937 -105.207862 L -61.502738 -111.761207 L -50.273422 -117.242210 L -38.561740 -121.598297 L -26.480064 -124.787651 L -14.144314 -126.779701 L -1.672851 -127.555297 L 10.814662 -127.107025 L 23.198410 -125.439178 L 35.359573 -122.567756 L 47.181461 -118.520301 L 58.550655 -113.335670 L 69.358062 -107.063591 L 79.499984 -99.764251 L 88.879112 -91.507690 L 86.657135 -89.219993 L 77.512489 -97.270141 L 67.624107 -104.387008 L 57.086887 -110.502281 L 46.001926 -115.557304 L 34.475585 -119.503562 L 22.618450 -122.303192 L 10.544295 -123.929351 L -1.631030 -124.366416 L -13.790706 -123.610206 L -25.818063 -121.667968 L -37.597698 -118.558334 L -49.016586 -114.311157 L -59.965167 -108.967178 L -70.338394 -102.577667 L -80.036727 -95.203933 L -88.967117 -86.916732 L -97.043876 -77.795578 L -104.189521 -67.927986 L -110.335472 -57.408626 L -115.422767 -46.338439 L -119.402595 -34.823646 L -122.236770 -22.974720 L -123.898101 -10.905354 L -124.370643 1.268646 L -123.649864 13.430475 L -121.742675 25.463439 L -118.667388 37.252082 L -114.453498 48.683303 L -109.141441 59.647407 L -102.782180 70.039207 L -95.436744 79.758979 L -87.175598 88.713485 L -78.078010 96.816795 L -68.231285 103.991149 L -57.729877 110.167732 L -46.674564 115.287254 L -35.171413 119.300628 L -23.330793 122.169311 L -11.266320 123.865798 L 0.906251 124.373817 L 13.070128 123.688468 Z"></path>
</g>
</g>
<g id="0xffb9e70e" class="materialsolid" stroke="none" fill-opacity="1.000000" fill="#b9e70e">
<g id="arc" class="mesh2"><path id="face.000" fill-rule="evenodd" d="M 2.547894 133.575515 L -10.292208 133.202774 L -23.037164 131.598617 L -35.569152 128.777893 L -47.772308 124.766639 L -59.533828 119.601974 L -70.744979 113.331626 L -81.302116 106.013557 L -91.107643 97.715431 L -100.070907 88.513961 L -108.109046 78.494209 L -115.147766 67.748802 L -121.121978 56.377082 L -125.976448 44.484176 L -129.666320 32.180027 L -132.157455 19.578386 L -133.426849 6.795748 L -133.462768 -6.049714 L -132.264846 -18.839248 L -129.844192 -31.454622 L -126.223175 -43.779205 L -121.435264 -55.699066 L -115.524719 -67.104011 L -108.546188 -77.888595 L -100.564186 -87.953132 L -91.652503 -97.204566 L -81.893516 -105.557380 L -71.377456 -112.934349 L -60.201538 -119.267272 L -48.469074 -124.497619 L -36.288532 -128.577026 L -23.772512 -131.467773 L -11.036722 -133.143157 L 1.801096 -133.587661 L 14.622265 -132.797210 L 27.308256 -130.779083 L 39.741790 -127.551948 L 51.807929 -123.145629 L 63.395114 -117.600883 L 74.396232 -110.968948 L 84.709587 -103.311157 L 94.239830 -94.698272 L 102.898857 -85.209938 L 100.326393 -83.079696 L 91.883842 -92.330818 L 82.591857 -100.728370 L 72.536331 -108.194732 L 61.810237 -114.660865 L 50.512729 -120.067001 L 38.748249 -124.363151 L 26.625551 -127.509605 L 14.256708 -129.477279 L 1.756069 -130.247970 L -10.760805 -129.814575 L -23.178199 -128.181091 L -35.381320 -125.362602 L -47.257350 -121.385185 L -58.696502 -116.285598 L -69.593025 -110.110992 L -79.846183 -102.918449 L -89.361190 -94.774452 L -98.050086 -85.754302 L -105.832542 -75.941383 L -112.636604 -65.426406 L -118.399383 -54.306591 L -123.067604 -42.684726 L -126.598098 -30.668256 L -128.958236 -18.368267 L -130.126205 -5.898471 L -130.091186 6.625854 L -128.853530 19.088926 L -126.424667 31.375528 L -122.827041 43.372074 L -118.093933 54.967658 L -112.269073 66.055084 L -105.406326 76.531860 L -97.569145 86.301116 L -88.829956 95.272552 L -79.269569 103.363220 L -68.976356 110.498336 L -58.045486 116.611923 L -46.578002 121.647483 L -34.679924 125.558441 L -22.461236 128.308670 L -10.034903 129.872711 L 2.484197 130.236129 Z"></path>
</g>
</g>
<g id="0xffeef904" class="materialsolid" stroke="none" fill-opacity="1.000000" fill="#eef904">
<g id="arc" class="mesh2"><path id="face.000" fill-rule="evenodd" d="M -9.367197 139.318801 L -22.776369 137.763229 L -35.972671 134.920120 L -48.832771 130.816024 L -61.236469 125.489303 L -73.067848 118.989746 L -84.216323 111.378105 L -94.577705 102.725509 L -104.055152 93.112823 L -112.560081 82.629890 L -120.013023 71.374694 L -126.344299 59.452419 L -131.494735 46.974494 L -135.416229 34.057544 L -138.072097 20.822282 L -139.437530 7.392417 L -139.499755 -6.106538 L -138.258209 -19.548423 L -135.724472 -32.807605 L -131.922241 -45.760162 L -126.887062 -58.285045 L -120.665969 -70.265182 L -113.317123 -81.588607 L -104.909194 -92.149505 L -95.520782 -101.849166 L -85.239616 -110.596923 L -74.161788 -118.311035 L -62.390834 -124.919395 L -50.036769 -130.360244 L -37.215057 -134.582717 L -24.045532 -137.547393 L -10.651268 -139.226516 L 2.842540 -139.604400 L 16.309782 -138.677551 L 29.624593 -136.454589 L 42.662528 -132.956314 L 55.301734 -128.215408 L 67.424079 -122.276184 L 78.916275 -115.194152 L 89.670913 -107.035499 L 99.587471 -97.876487 L 108.573272 -87.802711 L 116.544334 -76.908309 L 113.630737 -74.985610 L 105.858940 -85.607650 L 97.097785 -95.429580 L 87.429138 -104.359619 L 76.943374 -112.314300 L 65.738479 -119.219284 L 53.919193 -125.010017 L 41.595966 -129.632415 L 28.883977 -133.043228 L 15.902038 -135.210617 L 2.771476 -136.114303 L -10.384986 -135.745849 L -23.444393 -134.108703 L -36.284687 -131.218170 L -48.785854 -127.101234 L -60.831066 -121.796409 L -72.307746 -115.353263 L -83.108619 -107.832008 L -93.132759 -99.302940 L -102.286468 -89.845771 L -110.484191 -79.548904 L -117.649322 -68.508552 L -123.714881 -56.827919 L -128.624191 -44.616161 L -132.331359 -31.987415 L -134.801742 -19.059713 L -136.012268 -5.953875 L -135.951583 7.207607 L -134.620300 20.301727 L -132.030822 33.206104 L -128.207382 45.800132 L -123.185691 57.966110 L -117.012695 69.590324 L -109.746086 80.564140 L -101.453773 90.785003 L -92.213264 100.157371 L -82.110916 108.593650 L -71.241149 116.015007 L -59.705562 122.352073 L -47.611953 127.545623 L -35.073356 131.547119 L -22.206960 134.319152 L -9.133018 135.835830 Z"></path>
</g>
</g>
<g id="0xffffed00" class="materialsolid" stroke="none" fill-opacity="1.000000" fill="#ffed00">
<g id="arc" class="mesh2"><path id="face.000" fill-rule="evenodd" d="M -22.249376 143.957672 L -36.120628 141.117492 L -49.650611 136.944015 L -62.711486 131.476669 L -75.179855 124.767127 L -86.937919 116.878761 L -97.874580 107.886108 L -107.886512 97.874130 L -116.879119 86.937438 L -124.767433 75.179344 L -131.476928 62.710945 L -136.944213 49.650051 L -141.117645 36.120048 L -143.957763 22.248785 L -145.437759 8.167309 L -145.543640 -5.991330 L -144.274398 -20.093364 L -141.642044 -34.005554 L -137.671432 -47.596454 L -132.400085 -60.737655 L -125.877807 -73.305000 L -118.166213 -85.179756 L -109.338180 -96.249710 L -99.477096 -106.410301 L -88.676155 -115.565498 L -77.037376 -123.628829 L -64.670745 -130.524108 L -51.693099 -136.186157 L -38.227046 -140.561508 L -24.399818 -143.608825 L -10.342059 -145.299301 L 3.813413 -145.616973 L 17.932855 -144.558837 L 31.882867 -142.134902 L 45.531642 -138.368041 L 58.750232 -133.293869 L 71.413742 -126.960319 L 83.402519 -119.427238 L 94.603309 -110.765785 L 104.910278 -101.057807 L 114.226028 -90.395027 L 122.462570 -78.878173 L 129.542053 -66.616073 L 126.303504 -64.950675 L 119.401008 -76.906219 L 111.370376 -88.135147 L 102.287521 -98.531364 L 92.238235 -107.996643 L 81.317466 -116.441558 L 69.628395 -123.786315 L 57.281478 -129.961517 L 44.393356 -134.908843 L 31.085794 -138.581527 L 17.484535 -140.944869 L 3.718078 -141.976562 L -10.083507 -141.666824 L -23.789823 -140.018615 L -37.271369 -137.047470 L -50.400772 -132.781509 L -63.053981 -127.260993 L -75.111450 -120.538116 L -86.459259 -112.676376 L -96.990173 -103.750045 L -106.604728 -93.843475 L -115.212066 -83.050254 L -122.730865 -71.472381 L -129.090087 -59.219215 L -134.229644 -46.406543 L -138.100997 -33.155414 L -140.667541 -19.591030 L -141.905044 -5.841547 L -141.801818 7.963127 L -140.358825 21.692565 L -137.589706 35.217048 L -133.520614 48.408798 L -128.190002 61.143173 L -121.648254 73.299858 L -113.957145 84.763999 L -105.189353 95.427284 L -95.427719 105.188957 L -84.764472 113.956794 L -73.300361 121.647949 L -61.143699 128.189758 L -48.409343 133.520416 L -35.217617 137.589553 L -21.693141 140.358734 Z"></path>
</g>
</g>
<g id="0xffffd300" class="materialsolid" stroke="none" fill-opacity="1.000000" fill="#ffd300">
<g id="arc" class="mesh2"><path id="face.000" fill-rule="evenodd" d="M -35.993038 147.368652 L -50.205940 143.151611 L -63.939342 137.567367 L -77.062072 130.669265 L -89.448822 122.523178 L -100.981262 113.206909 L -111.549263 102.809432 L -121.051895 91.430061 L -129.398391 79.177474 L -136.509063 66.168685 L -142.315963 52.527938 L -146.763656 38.385517 L -149.809646 23.876485 L -151.424865 9.139417 L -151.593856 -5.684937 L -150.315032 -20.454998 L -147.600601 -35.029697 L -143.476486 -49.269844 L -137.982055 -63.039424 L -131.169815 -76.206939 L -123.104812 -88.646621 L -113.864074 -100.239677 L -103.535850 -110.875358 L -92.218788 -120.452117 L -80.020973 -128.878479 L -67.058914 -136.073959 L -53.456386 -141.969833 L -39.343315 -146.509796 L -24.854490 -149.650497 L -10.128286 -151.361938 L 4.694649 -151.627761 L 19.472747 -150.445434 L 34.064868 -147.826263 L 48.331645 -143.795242 L 62.136821 -138.390869 L 75.348548 -131.664779 L 87.840644 -123.681198 L 99.493804 -114.516380 L 110.196739 -104.257843 L 119.847206 -93.003578 L 128.353057 -80.861068 L 135.633041 -67.946273 L 141.617645 -54.382549 L 138.077194 -53.022987 L 132.242218 -66.247619 L 125.144233 -78.839538 L 116.851028 -90.678497 L 107.441810 -101.651405 L 97.006462 -111.653472 L 85.644630 -120.589172 L 73.464836 -128.373168 L 60.583400 -134.931106 L 47.123355 -140.200363 L 33.213245 -144.130615 L 18.985929 -146.684310 L 4.577282 -147.837066 L -9.875079 -147.577896 L -24.233127 -145.909240 L -38.359733 -142.847061 L -52.119976 -138.420593 L -65.382438 -132.672103 L -78.020454 -125.656517 L -89.913322 -117.440818 L -100.947448 -108.103485 L -111.017471 -97.733680 L -120.027191 -86.430458 L -127.890571 -74.301773 L -134.532516 -61.463443 L -139.889572 -48.038097 L -143.910598 -34.153957 L -146.557174 -19.943624 L -147.804031 -5.542814 L -147.639251 8.910932 L -146.064422 23.279573 L -143.094573 37.425880 L -138.758071 51.214744 L -133.096328 64.514472 L -126.163444 77.198036 L -118.025604 89.144309 L -108.760536 100.239196 L -98.456726 110.376739 L -87.212593 119.460090 L -75.135528 127.402526 L -62.340862 134.128189 L -48.950790 139.572814 L -35.093212 143.684432 Z"></path>
</g>
</g>
<g id="0xffffb900" class="materialsolid" stroke="none" fill-opacity="1.000000" fill="#ffb900">
<g id="arc" class="mesh2"><path id="face.000" fill-rule="evenodd" d="M -50.478740 149.438613 L -64.571456 143.911529 L -78.069450 137.058975 L -90.848403 128.944061 L -102.790603 119.641525 L -113.786071 109.237045 L -123.733520 97.826469 L -132.541351 85.514869 L -140.128433 72.415641 L -146.424880 58.649452 L -151.372711 44.343074 L -154.926330 29.628282 L -157.053039 14.640604 L -157.733230 -0.481919 L -156.960632 -15.600004 L -154.742401 -30.574405 L -151.098922 -45.267208 L -146.063766 -59.543087 L -139.683319 -73.270545 L -132.016342 -86.323158 L -123.133453 -98.580718 L -113.116455 -109.930297 L -102.057617 -120.267395 L -90.058792 -129.496795 L -77.230499 -137.533462 L -63.690883 -144.303421 L -49.564651 -149.744277 L -34.981918 -153.805938 L -20.076984 -156.451004 L -4.987135 -157.655105 L 10.148644 -157.407135 L 25.190954 -155.709411 L 40.001243 -152.577529 L 54.443111 -148.040359 L 68.383537 -142.139709 L 81.694129 -134.929870 L 94.252288 -126.477310 L 105.942352 -116.859832 L 116.656654 -106.166046 L 126.296501 -94.494430 L 134.773117 -81.952476 L 142.008422 -68.655731 L 147.935791 -54.726634 L 152.500610 -40.293483 L 148.688095 -39.286151 L 144.237411 -53.358470 L 138.458221 -66.939338 L 131.403793 -79.903678 L 123.139091 -92.132072 L 113.740234 -103.511894 L 103.293800 -113.938339 L 91.895988 -123.315376 L 79.651779 -131.556640 L 66.673950 -138.586212 L 53.082035 -144.339370 L 39.001216 -148.763092 L 24.561180 -151.816665 L 9.894929 -153.471969 L -4.862457 -153.713729 L -19.575059 -152.539733 L -34.107368 -149.960800 L -48.325534 -146.000671 L -62.098609 -140.695831 L -75.299736 -134.095123 L -87.807327 -126.259368 L -99.506172 -117.260711 L -110.288543 -107.182052 L -120.055114 -96.116203 L -128.715927 -84.165092 L -136.191238 -71.438789 L -142.412170 -58.054508 L -147.321441 -44.135528 L -150.873840 -29.810047 L -153.036636 -15.210003 L -153.789901 -0.469871 L -153.126708 14.274588 L -151.053176 28.887575 L -147.588394 43.234493 L -142.764251 57.183212 L -136.625228 70.605255 L -129.227828 83.376991 L -120.640190 95.380813 L -110.941421 106.506126 L -100.220840 116.650489 L -88.577194 125.720466 L -76.117721 133.632507 L -62.957176 140.313751 L -49.216773 145.702651 Z"></path>
</g>
</g>
<g id="0xffff9e00" class="materialsolid" stroke="none" fill-opacity="1.000000" fill="#ff9e00">
<g id="arc" class="mesh2"><path id="face.000" fill-rule="evenodd" d="M -65.573860 150.066192 L -79.730834 143.048202 L -93.145568 134.698547 L -105.693199 125.094932 L -117.256896 114.326789 L -127.729019 102.494346 L -137.012084 89.707756 L -145.019683 76.086051 L -151.677246 61.756050 L -156.922790 46.851139 L -160.707534 31.510084 L -162.996185 15.875693 L -163.767471 0.093510 L -163.014205 -15.689542 L -160.743408 -31.326538 L -156.976196 -46.671905 L -151.747665 -61.582798 L -145.106475 -75.920394 L -137.114440 -89.551223 L -127.845993 -102.348411 L -117.387382 -114.192810 L -105.835990 -124.974151 L -93.299331 -134.592071 L -79.894142 -142.957061 L -65.745185 -149.991210 L -50.984195 -155.629058 L -35.748584 -159.818130 L -20.180175 -162.519409 L -4.423907 -163.707748 L 11.373543 -163.372085 L 27.065118 -161.515548 L 42.504734 -158.155441 L 57.548664 -153.323013 L 72.056861 -147.063262 L 85.894264 -139.434463 L 98.932052 -130.507629 L 111.048858 -120.365882 L 122.131881 -109.103614 L 132.077941 -96.825668 L 140.794464 -83.646347 L 148.200302 -69.688346 L 154.226486 -55.081604 L 158.816955 -39.962081 L 161.928955 -24.470548 L 157.880737 -23.858785 L 154.846542 -38.963031 L 150.370834 -53.704559 L 144.495285 -67.946144 L 137.274612 -81.555198 L 128.776000 -94.405036 L 119.078582 -106.376022 L 108.272636 -117.356735 L 96.458755 -127.244949 L 83.746910 -135.948608 L 70.255439 -143.386688 L 56.109951 -149.489929 L 41.442119 -154.201553 L 26.388490 -157.477676 L 11.089205 -159.287780 L -4.313310 -159.615051 L -19.675672 -158.456420 L -34.854869 -155.822677 L -49.709594 -151.738342 L -64.101562 -146.241439 L -77.896789 -139.383132 L -90.966857 -131.227279 L -103.190093 -121.849800 L -114.452705 -111.337989 L -124.649848 -99.789703 L -133.686584 -87.312454 L -141.478820 -74.022384 L -147.953979 -60.043224 L -153.051803 -45.505107 L -156.724822 -30.543375 L -158.938858 -15.297304 L -159.673294 0.091172 L -158.921295 15.478800 L -156.689849 30.722332 L -152.999725 45.679866 L -147.885314 60.212146 L -141.394195 74.183898 L -133.586791 87.465057 L -124.535804 99.931991 L -114.325485 111.468620 L -103.050872 121.967559 L -90.816932 131.331085 L -77.737564 139.472000 L -63.934513 146.314544 Z"></path>
</g>
</g>
<g id="0xffff8400" class="materialsolid" stroke="none" fill-opacity="1.000000" fill="#ff8400">
<g id="arc" class="mesh2"><path id="face.000" fill-rule="evenodd" d="M -81.133995 149.163238 L -95.203880 140.600921 L -108.378013 130.715744 L -120.532463 119.600685 L -131.552856 107.360351 L -141.335494 94.109909 L -149.788375 79.973999 L -156.831939 65.085647 L -162.399917 49.584922 L -166.439941 33.617671 L -168.913970 17.334123 L -169.798736 0.887483 L -169.085937 -15.567506 L -166.782241 -31.876028 L -162.909362 -47.884635 L -157.503723 -63.442714 L -150.616165 -78.403884 L -142.311523 -92.627372 L -132.667907 -105.979362 L -121.776069 -118.334228 L -109.738479 -129.575714 L -96.668388 -139.598068 L -82.688781 -148.306991 L -67.931175 -155.620544 L -52.534431 -161.469909 L -36.643409 -165.800064 L -20.407619 -168.570251 L -3.979820 -169.754409 L 12.485423 -169.341415 L 28.833196 -167.335128 L 44.909687 -163.754440 L 60.563632 -158.633056 L 75.647758 -152.019119 L 90.020141 -143.974914 L 103.545547 -134.576065 L 116.096733 -123.911048 L 127.555595 -112.080184 L 137.814331 -99.194808 L 146.776412 -85.376129 L 154.357528 -70.754173 L 160.486343 -55.466510 L 165.105194 -39.656986 L 168.170608 -23.474344 L 169.653762 -7.070837 L 165.412429 -6.894066 L 163.966354 -22.887485 L 160.977554 -38.665565 L 156.474182 -54.079853 L 150.498580 -68.985321 L 143.107009 -83.241722 L 134.368972 -96.714935 L 124.366706 -109.278190 L 113.194313 -120.813278 L 100.956909 -131.211669 L 87.769638 -140.375534 L 73.756568 -148.218658 L 59.049541 -154.667221 L 43.786945 -159.660583 L 28.112365 -163.151748 L 12.173288 -165.107879 L -3.880324 -165.510543 L -19.897428 -164.355987 L -35.727325 -161.655059 L -51.221073 -157.433166 L -66.232902 -151.730026 L -80.621559 -144.599319 L -94.251678 -136.108123 L -106.995018 -126.336318 L -118.731666 -115.375869 L -129.351211 -103.329872 L -138.753738 -90.311691 L -146.850769 -76.443786 L -153.566131 -61.856647 L -158.836639 -46.687522 L -162.612701 -31.079128 L -164.858779 -15.178320 L -165.553771 0.865296 L -164.691116 16.900772 L -162.278930 32.777233 L -158.339920 48.345302 L -152.911148 63.458511 L -146.043670 77.974655 L -137.802124 91.757156 L -128.264038 104.676353 L -117.519149 116.610671 L -105.668571 127.447853 L -92.823783 137.085906 L -79.105644 145.434158 Z"></path>
</g>
</g>
<g id="0xffff6a00" class="materialsolid" stroke="none" fill-opacity="1.000000" fill="#ff6a00">
<g id="arc" class="mesh2"><path id="face.000" fill-rule="evenodd" d="M -97.004264 146.655990 L -110.826820 136.510879 L -123.595573 125.067741 L -135.189086 112.435379 L -145.497146 98.733901 L -154.421722 84.093612 L -161.877960 68.653701 L -167.794952 52.560985 L -172.116455 35.968490 L -174.801345 19.033981 L -175.824127 1.918484 L -175.175048 -15.215254 L -172.860305 -32.204319 L -168.901901 -48.887161 L -163.337448 -65.105148 L -156.219894 -80.704086 L -147.616897 -95.535629 L -137.610260 -109.458763 L -126.295143 -122.341087 L -113.779121 -134.060119 L -100.181228 -144.504425 L -85.630737 -153.574676 L -70.266021 -161.184646 L -54.233165 -167.261978 L -37.684627 -171.748870 L -20.777757 -174.602661 L -3.673323 -175.796218 L 13.466039 -175.318191 L 30.477359 -173.173141 L 47.198879 -169.381439 L 63.471611 -163.979141 L 79.140800 -157.017639 L 94.057479 -148.563095 L 108.079795 -138.695938 L 121.074417 -127.509963 L 132.917785 -115.111541 L 143.497299 -101.618560 L 152.712341 -87.159332 L 160.475280 -71.871330 L 166.712341 -55.899936 L 171.364181 -39.397006 L 174.386581 -22.519466 L 175.750808 -5.427796 L 175.443862 11.715485 L 171.057769 11.422597 L 171.357040 -5.292101 L 170.026916 -21.956480 L 167.080078 -38.412082 L 162.544525 -54.502441 L 156.463394 -70.074546 L 148.894531 -84.980354 L 139.909866 -99.078094 L 129.594848 -112.233757 L 118.047561 -124.322219 L 105.377799 -135.228546 L 91.706039 -144.849029 L 77.162284 -153.092208 L 61.884815 -159.879669 L 46.018913 -165.146896 L 29.715427 -168.843811 L 13.129389 -170.935241 L -3.581490 -171.401321 L -20.258316 -170.237594 L -36.742511 -167.455154 L -52.877338 -163.080429 L -68.509368 -157.155029 L -83.489974 -149.735305 L -97.676696 -140.891815 L -110.934646 -130.708618 L -123.137771 -119.282562 L -134.170013 -106.722290 L -143.926483 -93.147239 L -152.314392 -78.686485 L -159.254028 -63.477523 L -164.679351 -47.664981 L -168.538803 -31.399211 L -170.795684 -14.834873 L -171.428527 1.870522 L -170.431320 18.558132 L -167.813537 35.069278 L -163.600082 51.246963 L -157.831024 66.937362 L -150.561187 81.991271 L -141.859725 96.265563 L -131.809356 109.624496 L -120.505683 121.941047 L -108.056152 133.098114 L -94.579162 142.989578 Z"></path>
</g>
</g>
<g id="0xffff4f00" class="materialsolid" stroke="none" fill-opacity="1.000000" fill="#ff4f00">
<g id="arc" class="mesh2"><path id="face.000" fill-rule="evenodd" d="M -113.020637 142.486328 L -126.428230 130.736068 L -138.620941 117.729576 L -149.481643 103.591781 L -158.905944 88.458580 L -166.803298 72.475364 L -173.097824 55.795715 L -177.729019 38.579921 L -180.652420 20.993410 L -181.839889 3.205170 L -181.280044 -14.613867 L -178.978240 -32.292480 L -174.956634 -49.660793 L -169.253845 -66.551902 L -161.924667 -82.803512 L -153.039520 -98.259452 L -142.683822 -112.771194 L -130.957046 -126.199317 L -117.971893 -138.414779 L -103.853141 -149.300186 L -88.736434 -158.750946 L -72.767051 -166.676254 L -56.098445 -172.999954 L -38.890785 -177.661270 L -21.309413 -180.615402 L -3.523279 -181.833999 L 14.296710 -181.305328 L 31.979322 -179.034469 L 49.354644 -175.043243 L 66.255706 -169.370010 L 82.520111 -162.069274 L 97.991569 -153.211196 L 112.521415 -142.880889 L 125.970024 -131.177627 L 138.208175 -118.213859 L 149.118270 -104.114158 L 158.595474 -89.014022 L 166.548690 -73.058532 L 172.901550 -56.401012 L 177.592956 -39.201526 L 180.577865 -21.625354 L 181.827560 -3.841377 L 181.330062 13.979511 L 179.090133 31.666067 L 174.612899 30.874418 L 176.796813 13.630023 L 177.281875 -3.745343 L 176.063415 -21.084720 L 173.153137 -38.221492 L 168.579010 -54.990985 L 162.384979 -71.232070 L 154.630584 -86.788673 L 145.390319 -101.511314 L 134.752975 -115.258522 L 122.820777 -127.898185 L 109.708381 -139.308868 L 95.541786 -149.380920 L 80.457107 -158.017547 L 64.599319 -165.135772 L 48.120777 -170.667160 L 31.179841 -174.558609 L 13.939293 -176.772705 L -3.435197 -177.288162 L -20.776679 -176.100021 L -37.918518 -173.219741 L -54.695987 -168.674957 L -70.947883 -162.509353 L -86.518028 -154.782180 L -101.256805 -145.567672 L -115.022605 -134.954406 L -127.683128 -123.044342 L -139.116729 -109.951927 L -149.213546 -95.802970 L -157.876541 -80.733421 L -165.022491 -64.888107 L -170.582717 -48.419269 L -174.503799 -31.485170 L -176.748046 -14.248522 L -177.293899 3.125041 L -176.136108 20.468574 L -173.285812 37.615425 L -168.770385 54.400821 L -162.633224 70.663475 L -154.933303 86.247116 L -145.744598 101.001998 L -135.155426 114.786331 L -123.267524 127.467681 L -110.195121 138.924163 Z"></path>
</g>
</g>
<g id="0xffff3500" class="materialsolid" stroke="none" fill-opacity="1.000000" fill="#ff3500">
<g id="arc" class="mesh2"><path id="face.000" fill-rule="evenodd" d="M -129.011611 136.612747 L -141.554229 123.569572 L -152.784057 109.380393 L -162.596954 94.176803 L -170.901885 78.099815 L -177.621871 61.298515 L -182.694564 43.928730 L -186.072937 26.151538 L -187.725631 8.131817 L -187.637329 -9.963319 L -185.808868 -27.966054 L -182.257202 -45.709430 L -177.015243 -63.028892 L -170.131637 -79.763816 L -161.670196 -95.759002 L -151.709411 -110.866104 L -140.341659 -124.945014 L -127.672348 -137.865173 L -113.819000 -149.506759 L -98.910079 -159.761810 L -83.083854 -168.535186 L -66.487098 -175.745559 L -49.273731 -181.326049 L -31.603395 -185.224899 L -13.639966 -187.405944 L 4.449962 -187.848983 L 22.498620 -186.549865 L 40.338623 -183.520660 L 57.804523 -178.789474 L 74.734336 -172.400161 L 90.971054 -164.412002 L 106.364089 -154.899063 L 120.770698 -143.949569 L 134.057266 -131.665069 L 146.100570 -118.159477 L 156.788925 -103.558067 L 166.023193 -87.996261 L 173.717727 -71.618354 L 179.801193 -54.576255 L 184.217163 -37.028003 L 186.924697 -19.136354 L 187.898635 -1.067232 L 187.130004 17.011789 L 184.625900 34.933036 L 180.409545 52.530319 L 175.899322 51.217060 L 180.010253 34.059711 L 182.451751 16.586494 L 183.201171 -1.040551 L 182.251571 -18.657947 L 179.611740 -36.102306 L 175.306167 -53.211849 L 169.374786 -69.827896 L 161.872604 -85.796356 L 152.869201 -100.969123 L 142.448059 -115.205490 L 130.705841 -128.373443 L 117.751434 -140.350814 L 103.705001 -151.026580 L 88.696777 -160.301712 L 72.865982 -168.090164 L 56.359409 -174.319732 L 39.330158 -178.932647 L 21.936155 -181.886123 L 4.338713 -183.152755 L -13.298968 -182.720809 L -30.813312 -180.594284 L -48.041893 -176.792907 L -64.824920 -171.351928 L -81.006759 -164.321823 L -96.437332 -155.767761 L -110.973533 -145.769104 L -124.480552 -134.418563 L -136.833114 -121.821403 L -147.916687 -108.094451 L -157.628448 -93.365020 L -165.878356 -77.769721 L -172.589874 -61.453170 L -177.700775 -44.566696 L -181.163665 -27.266902 L -182.946411 -9.714236 L -183.032501 7.928523 L -181.421112 25.497753 L -178.127197 42.830513 L -173.181335 59.766056 L -166.629348 76.147323 L -158.532028 91.822387 L -148.964462 106.645889 L -138.015380 120.480339 L -125.786323 133.197433 Z"></path>
</g>
</g>
<g id="0xffff1a00" class="materialsolid" stroke="none" fill-opacity="1.000000" fill="#ff1a00">
<g id="arc" class="mesh2"><path id="face.000" fill-rule="evenodd" d="M -144.799789 129.011184 L -156.595535 114.405860 L -166.923812 98.728431 L -175.687850 82.125801 L -182.805480 64.753562 L -188.210021 46.774509 L -191.850830 28.357128 L -193.693786 9.674008 L -193.721603 -9.099766 L -191.934051 -27.788267 L -188.347854 -46.216361 L -182.996627 -64.211357 L -175.930526 -81.604621 L -167.215759 -98.233154 L -156.934005 -113.941139 L -145.181594 -128.581375 L -132.068679 -142.016647 L -117.718132 -154.121078 L -102.264427 -164.781219 L -85.852409 -173.897186 L -68.635848 -181.383529 L -50.776092 -187.170120 L -32.440509 -191.202728 L -13.800924 -193.443527 L 4.967991 -193.871566 L 23.690351 -192.482818 L 42.190708 -189.290283 L 60.295688 -184.323883 L 77.835632 -177.630187 L 94.646171 -169.271881 L 110.569770 -159.327316 L 125.457206 -147.889678 L 139.168975 -135.066146 L 151.576568 -120.976898 L 162.563720 -105.753959 L 172.027481 -89.539993 L 179.879150 -72.486938 L 186.045150 -54.754596 L 190.467712 -36.509147 L 193.105377 -17.921566 L 193.933425 0.833958 L 192.944091 19.581668 L 190.146667 38.145877 L 185.567367 56.352619 L 179.249099 74.031272 L 174.767868 72.180488 L 180.928192 54.943801 L 185.393020 37.192234 L 188.120498 19.092128 L 189.085083 0.813109 L 188.277740 -17.473529 L 185.706024 -35.596420 L 181.394027 -53.385734 L 175.382186 -70.674766 L 167.726806 -87.301490 L 158.499649 -103.110107 L 147.787170 -117.952476 L 135.689758 -131.689483 L 122.320785 -144.192428 L 107.805526 -155.344131 L 92.280021 -165.040084 L 75.889739 -173.189422 L 58.788295 -179.715789 L 41.135940 -184.558029 L 23.098093 -187.670745 L 4.843791 -189.024780 L -13.455901 -188.607452 L -31.629499 -186.422653 L -49.506690 -182.490875 L -66.919952 -176.848953 L -83.706092 -169.549758 L -99.707824 -160.661697 L -114.775177 -150.268051 L -128.766967 -138.466232 L -141.552062 -125.366836 L -153.010650 -111.092613 L -163.035369 -95.777328 L -171.532272 -79.564506 L -178.421722 -62.606075 L -183.639160 -45.060951 L -187.135696 -27.093559 L -188.878570 -8.872272 L -188.851440 9.432158 L -187.054565 27.648199 L -183.504776 45.605148 L -178.235336 63.134719 L -171.295654 80.072654 L -162.750732 96.260223 L -152.680664 111.545722 L -141.179794 125.785911 Z"></path>
</g>
</g>
<g id="0xffff0000" class="materialsolid" stroke="none" fill-opacity="1.000000" fill="#ff0000">
<g id="arc" class="mesh2"><path id="face.000" fill-rule="evenodd" d="M -160.203674 119.675720 L -171.076690 103.538711 L -180.329849 86.421340 L -187.875518 68.485671 L -193.642288 49.901550 L -197.575531 30.844924 L -199.638015 11.496241 L -199.810195 -7.961295 L -198.090469 -27.343448 L -194.495101 -46.466697 L -189.058151 -65.149971 L -181.831069 -83.216369 L -172.882308 -100.494819 L -162.296585 -116.821739 L -150.174163 -132.042510 L -136.629776 -146.013015 L -121.791709 -158.601013 L -105.800460 -169.687255 L -88.807411 -179.166809 L -70.973495 -186.949905 L -52.467552 -192.962844 L -33.464813 -197.148696 L -14.145213 -199.467834 L 5.308323 -199.898284 L 24.711597 -198.435989 L 43.880886 -195.094772 L 62.634689 -189.906280 L 80.795425 -182.919662 L 98.191139 -174.201034 L 114.657127 -163.832977 L 130.037475 -151.913650 L 144.186538 -138.555908 L 156.970367 -123.886253 L 168.267913 -108.043556 L 177.972198 -91.177841 L 185.991333 -73.448799 L 192.249389 -55.024303 L 196.687103 -36.078804 L 199.262481 -16.791690 L 199.951126 2.654417 L 198.746520 22.075391 L 195.660049 41.287345 L 190.720962 60.108364 L 183.976013 78.360237 L 175.489074 95.870155 L 171.101837 93.473403 L 179.376617 76.401237 L 185.952941 58.605655 L 190.768554 40.255161 L 193.777862 21.523508 L 194.952362 2.588057 L 194.280929 -16.371898 L 191.769943 -35.176834 L 187.443161 -53.648700 L 181.341552 -71.612579 L 173.522888 -88.898399 L 164.061218 -105.342468 L 153.046112 -120.789093 L 140.581878 -135.092025 L 126.786544 -148.115798 L 111.790695 -159.737152 L 95.736366 -169.846008 L 78.775543 -178.346664 L 61.068820 -185.158630 L 42.783866 -190.217407 L 24.093809 -193.475082 L 5.175615 -194.900833 L -13.791583 -194.481140 L -32.628192 -192.219985 L -51.155864 -188.138763 L -69.199157 -182.276153 L -86.587234 -174.687637 L -103.155441 -165.445083 L -118.746925 -154.635986 L -133.214035 -142.362701 L -146.419799 -128.741439 L -158.239181 -113.901199 L -168.560241 -97.982452 L -177.285293 -81.135963 L -184.331695 -63.521228 L -189.632736 -45.305030 L -193.138214 -26.659860 L -194.814956 -7.762262 L -194.647064 11.208835 L -192.636154 30.073801 L -188.801239 48.654010 L -183.178649 66.773536 L -175.821609 84.260810 L -166.799774 100.950248 L -156.198608 116.683830 Z"></path>
</g>
</g>
</g>

</g>
</svg>
