<svg xmlns="http://www.w3.org/2000/svg" xmlns:xlink="http://www.w3.org/1999/xlink" width="720" height="405" viewBox="0 0 720 405">
<path id="background" d="M 0.0 0.0 L 720.0 0.0 L 720.0 405.0 L 0.0 405.0 Z" stroke="none" fill-opacity="1.000000" fill="#202020"></path>
<g transform="translate(360.000000, 202.500000) scale(1.000000, -1.000000) rotate(0.0) translate(0.0, 0.0)">
<g id="32d2fa64" transform="translate(0.0, 0.0) rotate(0.0) scale(1.000000, 1.000000)">
<g id="37054959" stroke="none" fill-opacity="1.000000" fill="#ff0000">
<path id="face.000" d="M 24.996093 0.0 L 24.879482 2.411661 L 24.530731 4.800821 L 23.953100 7.145186 L 23.151973 9.422884 L 22.134830 11.612663 L 20.911159 13.694089 L 19.492378 15.647745 L 17.891721 17.455398 L 16.124130 19.100185 L 14.206091 20.566761 L 12.155505 21.841436 L 9.991501 22.912322 L 7.734272 23.769428 L 5.404879 24.404752 L 3.025056 24.812370 L 0.617008 24.988477 L -1.796796 24.931428 L -4.193836 24.641761 L -6.551746 24.122175 L -8.848526 23.377517 L -11.062744 22.414737 L -13.173741 21.242815 L -15.161822 19.872690 L -17.008438 18.317144 L -18.696353 16.590690 L -20.209827 14.709437 L -21.534732 12.690940 L -22.658710 10.554029 L -23.571271 8.318645 L -24.263902 6.005644 L -24.730138 3.636608 L -24.965633 1.233641 L -24.968187 -1.180836 L -24.737773 -3.584296 L -24.276550 -5.954313 L -23.588811 -8.268774 L -22.680982 -10.506083 L -21.561527 -12.645366 L -20.240892 -14.666661 L -18.731403 -16.551111 L -17.047140 -18.281129 L -15.203819 -19.840579 L -13.218641 -21.214904 L -11.110125 -22.391288 L -8.897949 -23.358751 L -6.602749 -24.108263 L -4.245944 -24.632837 L -1.849521 -24.927574 L 0.564157 -24.989725 L 2.972572 -24.818712 L 2.898258 -24.198246 L 0.550053 -24.364984 L -1.803283 -24.304386 L -4.139795 -24.017017 L -6.437681 -23.505558 L -8.675499 -22.774782 L -10.832372 -21.831506 L -12.888174 -20.684534 L -14.823724 -19.344566 L -16.620962 -17.824102 L -18.263116 -16.137332 L -19.734870 -14.299995 L -21.022489 -12.329232 L -22.113958 -10.243432 L -22.999092 -8.062054 L -23.669635 -5.805456 L -24.119331 -3.494689 L -24.343982 -1.151315 L -24.341493 1.202800 L -24.111886 3.545693 L -23.657304 5.855504 L -22.981990 8.110679 L -22.092243 10.290179 L -20.996364 12.373666 L -19.704582 14.341703 L -18.228946 16.175924 L -16.583227 17.859216 L -14.782778 19.375873 L -12.844398 20.711746 L -10.786175 21.854368 L -8.627312 22.793079 L -6.387952 23.519121 L -4.088991 24.025718 L -1.751876 24.308145 L 0.601583 24.363765 L 2.949430 24.192062 L 5.269757 23.794635 L 7.540915 23.175191 L 9.741714 22.339517 L 11.851617 21.295402 L 13.850939 20.052593 L 15.721028 18.622680 L 17.444431 17.019014 L 19.005069 15.256550 L 20.388380 13.351737 L 21.581460 11.322346 L 22.573175 9.187313 L 23.354272 6.966557 L 23.917465 4.680800 L 24.257493 2.351369 L 24.371192 0.0 Z"></path>
</g>
<g id="77a3d344" stroke="none" fill-opacity="1.000000" fill="#e5001a">
<path id="face.000" d="M 29.721689 8.913996 L 28.720495 11.746117 L 27.450145 14.468158 L 25.922544 17.054611 L 24.152009 19.481235 L 22.155132 21.725288 L 19.950628 23.765743 L 17.559154 25.583475 L 15.003122 27.161449 L 12.306488 28.484880 L 9.494524 29.541362 L 6.593581 30.320997 L 3.630846 30.816473 L 0.634084 31.023153 L -2.368619 30.939096 L -5.349126 30.565092 L -8.279502 29.904647 L -11.132287 28.963947 L -13.880745 27.751810 L -16.499120 26.279594 L -18.962871 24.561100 L -21.248910 22.612428 L -23.335813 20.451841 L -25.204025 18.099590 L -26.836034 15.577717 L -28.216548 12.909857 L -29.332630 10.121011 L -30.173820 7.237316 L -30.732231 4.285796 L -31.002635 1.294110 L -30.982496 -1.709702 L -30.672002 -4.697493 L -30.074062 -7.641260 L -29.194282 -10.513417 L -28.040906 -13.287047 L -26.624744 -15.936157 L -24.959066 -18.435920 L -23.059482 -20.762908 L -20.943794 -22.895317 L -18.631830 -24.813159 L -16.145257 -26.498466 L -13.507380 -27.935438 L -10.742915 -29.110614 L -7.877773 -30.012977 L -4.938804 -30.634071 L -1.953550 -30.968074 L 1.050010 -31.011861 L 4.043731 -30.765018 L 6.999557 -30.229858 L 6.824568 -29.474111 L 3.942638 -29.995893 L 1.023760 -30.236566 L -1.904711 -30.193874 L -4.815333 -29.868219 L -7.680829 -29.262653 L -10.474343 -28.382850 L -13.169695 -27.237054 L -15.741627 -25.836004 L -18.166034 -24.192832 L -20.420200 -22.322935 L -22.482995 -20.243835 L -24.335090 -17.975021 L -25.959125 -15.537754 L -27.339885 -12.954871 L -28.464426 -10.250581 L -29.322210 -7.450229 L -29.905202 -4.580055 L -30.207933 -1.666959 L -30.227569 1.261757 L -29.963926 4.178651 L -29.419475 7.056383 L -28.599315 9.867986 L -27.511137 12.587111 L -26.165136 15.188276 L -24.573926 17.647102 L -22.752420 19.940546 L -20.717687 22.047117 L -18.488800 23.947071 L -16.086643 25.622606 L -13.533728 27.058015 L -10.853981 28.239849 L -8.072515 29.157032 L -5.215398 29.800968 L -2.309404 30.165620 L 0.618232 30.247573 L 3.540075 30.046062 L 6.428742 29.562971 L 9.257162 28.802829 L 11.998826 27.772760 L 14.628044 26.482416 L 17.120174 24.943889 L 19.451860 23.171600 L 21.601255 21.182157 L 23.548210 18.994203 L 25.274482 16.628246 L 26.763893 14.106454 L 28.002483 11.452464 L 28.978647 8.691145 Z"></path>
</g>
<g id="497aaf40" stroke="none" fill-opacity="1.000000" fill="#ca0035">
<path id="face.000" d="M 30.945812 20.396951 L 28.823167 23.300300 L 26.429115 25.984243 L 23.786195 28.423507 L 20.919296 30.595130 L 17.855415 32.478656 L 14.623400 34.056350 L 11.253686 35.313362 L 7.778004 36.237846 L 4.229081 36.821105 L 0.640336 37.057643 L -2.954438 36.945232 L -6.521393 36.484931 L -10.026941 35.681079 L -13.438071 34.541240 L -16.722663 33.076145 L -19.849788 31.299596 L -22.790002 29.228321 L -25.515615 26.881820 L -28.000968 24.282188 L -30.222652 21.453908 L -32.159748 18.423614 L -33.794017 15.219833 L -35.110069 11.872736 L -36.095516 8.413844 L -36.741069 4.875722 L -37.040660 1.291690 L -36.991462 -2.304504 L -36.593940 -5.879000 L -35.851833 -9.398138 L -34.772136 -12.828778 L -33.365009 -16.138618 L -31.643711 -19.296493 L -29.624439 -22.272663 L -27.326215 -25.039106 L -24.770679 -27.569774 L -21.981893 -29.840833 L -18.986118 -31.830902 L -15.811561 -33.521240 L -12.488119 -34.895931 L -9.047083 -35.942028 L -5.520857 -36.649681 L -1.942646 -37.012229 L 1.653858 -37.026256 L 5.234790 -36.691635 L 8.766428 -36.011505 L 12.215519 -34.992286 L 11.910132 -34.117477 L 8.547268 -35.111221 L 5.103920 -35.774341 L 1.612512 -36.100601 L -1.894079 -36.086925 L -5.382836 -35.733440 L -8.820907 -35.043476 L -12.175916 -34.023529 L -15.416273 -32.683208 L -18.511465 -31.035131 L -21.432346 -29.094812 L -24.151412 -26.880529 L -26.643060 -24.413127 L -28.883831 -21.715847 L -30.852619 -18.814081 L -32.530887 -15.735153 L -33.902835 -12.508058 L -34.955539 -9.163184 L -35.679092 -5.732025 L -36.066677 -2.246892 L -36.114643 1.259398 L -35.822544 4.753830 L -35.193126 8.203498 L -34.232318 11.575920 L -32.949165 14.839338 L -31.355756 17.963022 L -29.467086 20.917562 L -27.300943 23.675134 L -24.877727 26.209774 L -22.220252 28.497613 L -19.353546 30.517107 L -16.304597 32.249244 L -13.102120 33.677711 L -9.776268 34.789054 L -6.358359 35.572811 L -2.880577 36.021602 L 0.624327 36.131202 L 4.123354 35.900577 L 7.583554 35.331901 L 10.972344 34.430526 L 14.257815 33.204944 L 17.409029 31.666690 L 20.396316 29.830251 L 23.191541 27.712921 L 25.768388 25.334636 L 28.102588 22.717792 L 30.172168 19.887027 Z"></path>
</g>
<g id="554c0a86" stroke="none" fill-opacity="1.000000" fill="#b0004f">
<path id="face.000" d="M 27.653364 33.054775 L 24.310403 35.585548 L 20.737333 37.779491 L 16.967977 39.615837 L 13.038015 41.077209 L 8.984642 42.149768 L 4.846228 42.823368 L 0.661943 43.091629 L -3.528607 42.952014 L -7.685759 42.405845 L -11.770162 41.458290 L -15.743157 40.118320 L -19.567138 38.398620 L -23.205907 36.315460 L -26.625028 33.888561 L -29.792135 31.140895 L -32.677249 28.098474 L -35.253059 24.790090 L -37.495189 21.247060 L -39.382415 17.502920 L -40.896873 13.593107 L -42.024230 9.554632 L -42.753810 5.425720 L -43.078716 1.245451 L -42.995864 -2.946606 L -42.506042 -7.110773 L -41.613887 -11.207633 L -40.327846 -15.198410 L -38.660083 -19.045331 L -36.626396 -22.711978 L -34.246025 -26.163650 L -31.541501 -29.367675 L -28.538429 -32.293727 L -25.265233 -34.914104 L -21.752889 -37.204013 L -18.034650 -39.141769 L -14.145707 -40.709037 L -10.122870 -41.890979 L -6.004216 -42.676414 L -1.828730 -43.057895 L 2.364064 -43.031826 L 6.534482 -42.598442 L 10.643050 -41.761852 L 14.650877 -40.529972 L 18.520029 -38.914459 L 18.057027 -37.941600 L 14.284605 -39.516723 L 10.376974 -40.717807 L 6.371120 -41.533481 L 2.304962 -41.956031 L -1.783012 -41.981452 L -5.854111 -41.609500 L -9.869798 -40.843708 L -13.792065 -39.691314 L -17.583786 -38.163227 L -21.209070 -36.273910 L -24.633602 -34.041255 L -27.824970 -31.486385 L -30.752964 -28.633487 L -33.389873 -25.509561 L -35.710735 -22.144178 L -37.693584 -18.569198 L -39.319648 -14.818450 L -40.573543 -10.927443 L -41.443393 -6.933004 L -41.920967 -2.872941 L -42.001747 1.214314 L -41.684967 5.290077 L -40.973621 9.315767 L -39.874450 13.253279 L -38.397857 17.065347 L -36.557811 20.715885 L -34.371734 24.170337 L -31.860317 27.396013 L -29.047332 30.362375 L -25.959405 33.041347 L -22.625762 35.407573 L -19.077960 37.438652 L -15.349578 39.115364 L -11.475909 40.421836 L -7.493616 41.345703 L -3.440392 41.878215 L 0.645394 42.014339 L 4.725072 41.752784 L 8.760026 41.096023 L 12.712064 40.050277 L 16.543779 38.625442 L 20.218898 36.835002 L 23.702644 34.695907 L 26.962032 32.228404 Z"></path>
</g>
<g id="5eb7549b" stroke="none" fill-opacity="1.000000" fill="#95006a">
<path id="face.000" d="M 19.370843 45.150329 L 14.878756 46.823116 L 10.245034 48.050189 L 5.513789 48.819873 L 0.730057 49.124828 L -4.060623 48.962162 L -8.812649 48.333415 L -13.480789 47.244575 L -18.020603 45.706012 L -22.388874 43.732368 L -26.544025 41.342426 L -30.446500 38.558944 L -34.059150 35.408416 L -37.347587 31.920829 L -40.280509 28.129383 L -42.829998 24.070171 L -44.971778 19.781831 L -46.685466 15.305187 L -47.954753 10.682849 L -48.767555 5.958821 L -49.116127 1.178070 L -48.997158 -3.613895 L -48.411781 -8.371459 L -47.365562 -13.049334 L -45.868469 -17.602991 L -43.934749 -21.989084 L -41.582805 -26.165859 L -38.835029 -30.093557 L -35.717578 -33.734790 L -32.260131 -37.054901 L -28.495592 -40.022281 L -24.459800 -42.608684 L -20.191173 -44.789485 L -15.730343 -46.543933 L -11.119776 -47.855327 L -6.403357 -48.711177 L -1.625984 -49.103336 L 3.166866 -49.028079 L 7.929571 -48.486118 L 12.616795 -47.482612 L 17.183917 -46.027111 L 21.587461 -44.133472 L 25.785516 -41.819721 L 25.140876 -40.774227 L 21.047777 -43.030136 L 16.754318 -44.876434 L 12.301375 -46.295547 L 7.731332 -47.273967 L 3.087695 -47.802379 L -1.585334 -47.875755 L -6.243273 -47.493400 L -10.841782 -46.658946 L -15.337085 -45.380340 L -19.686393 -43.669750 L -23.848306 -41.543468 L -27.783203 -39.021724 L -31.453628 -36.128528 L -34.824638 -32.891426 L -37.864154 -29.341218 L -40.543235 -25.511714 L -42.836380 -21.439357 L -44.721759 -17.162918 L -46.181423 -12.723101 L -47.201484 -8.162173 L -47.772228 -3.523547 L -47.888225 1.148618 L -47.548366 5.809851 L -46.755886 10.415779 L -45.518333 14.922557 L -43.847484 19.287286 L -41.759250 23.468418 L -39.273498 27.426149 L -36.413902 31.122808 L -33.207672 34.523204 L -29.685338 37.594974 L -25.880424 40.308868 L -21.829153 42.639060 L -17.570089 44.563365 L -13.143769 46.063461 L -8.592333 47.125080 L -3.959107 47.738105 L 0.711806 47.896709 L 5.375944 47.599376 L 9.988908 46.848937 L 14.506787 45.652542 L 18.886573 44.021572 Z"></path>
</g>
<g id="31611b1d" stroke="none" fill-opacity="1.000000" fill="#7d0380">
<path id="face.000" d="M 6.269567 54.806358 L 0.882088 55.156742 L -4.513840 54.978813 L -9.866533 54.274265 L -15.124720 53.049854 L -20.238035 51.317310 L -25.157501 49.093223 L -29.835994 46.398899 L -34.228706 43.260143 L -38.293560 39.707019 L -41.991622 35.773567 L -45.287464 31.497457 L -48.149524 26.919651 L -50.550388 22.083993 L -52.467052 17.036806 L -53.881160 11.826434 L -54.779174 6.502781 L -55.152488 1.116841 L -54.997524 -4.279795 L -54.315769 -9.635437 L -53.113750 -14.898789 L -51.402984 -20.019430 L -49.199855 -24.948318 L -46.525466 -29.638236 L -43.405437 -34.044269 L -39.869651 -38.124210 L -35.951969 -41.838977 L -31.689928 -45.152992 L -27.124343 -48.034511 L -22.298950 -50.455932 L -17.259965 -52.394065 L -12.055659 -53.830341 L -6.735877 -54.750999 L -1.351575 -55.147235 L 4.045672 -55.015243 L 9.404168 -54.356288 L 14.672586 -53.176681 L 19.800464 -51.487724 L 24.738685 -49.305595 L 29.439947 -46.651195 L 33.859218 -43.549945 L 33.012737 -42.461196 L 28.703947 -45.484916 L 24.120218 -48.072956 L 19.305454 -50.200534 L 14.305773 -51.847267 L 9.169064 -52.997383 L 3.944530 -53.639862 L -1.317785 -53.768554 L -6.567480 -53.382228 L -11.754267 -52.484584 L -16.828468 -51.084213 L -21.741477 -49.194534 L -26.446235 -46.833648 L -30.897680 -44.024169 L -35.053173 -40.793003 L -38.872909 -37.171108 L -42.320301 -33.193164 L -45.362331 -28.897283 L -47.969860 -24.324611 L -50.117908 -19.518945 L -51.785907 -14.526319 L -52.957874 -9.394552 L -53.622585 -4.172800 L -53.773677 1.088920 L -53.409698 6.340211 L -52.534137 11.530773 L -51.155376 16.610887 L -49.286628 21.531894 L -46.945789 26.246660 L -44.155281 30.710023 L -40.941829 34.879230 L -37.336223 38.714344 L -33.372989 42.178642 L -29.090095 45.238925 L -24.528562 47.865894 L -19.732084 50.034378 L -14.746601 51.723609 L -9.619870 52.917411 L -4.400994 53.604339 L 0.860036 53.777828 L 6.112828 53.436203 Z"></path>
</g>
<g id="4839ce65" stroke="none" fill-opacity="1.000000" fill="#6b1786">
<path id="face.000" d="M -10.804338 60.236038 L -16.512207 58.927589 L -22.068883 57.079578 L -27.423488 54.708919 L -32.526992 51.837326 L -37.332664 48.491088 L -41.796504 44.700847 L -45.877639 40.501304 L -49.538700 35.930919 L -52.746162 31.031532 L -55.470657 25.848011 L -57.687244 20.427812 L -59.375621 14.820568 L -60.520332 9.077620 L -61.110893 3.251555 L -61.141899 -2.604282 L -60.613059 -8.436275 L -59.529224 -14.191020 L -57.900314 -19.815828 L -55.741249 -25.259195 L -53.071792 -30.471277 L -49.916385 -35.404354 L -46.303928 -40.013248 L -42.267486 -44.255767 L -37.844032 -48.093063 L -33.074062 -51.490001 L -28.001251 -54.415470 L -22.672048 -56.842693 L -17.135253 -58.749439 L -11.441558 -60.118255 L -5.643101 -60.936599 L 0.207027 -61.196983 L 6.055260 -60.897022 L 11.848048 -60.039466 L 17.532350 -58.632160 L 23.056119 -56.687999 L 28.368778 -54.224777 L 33.421676 -51.265048 L 38.168560 -47.835914 L 42.565948 -43.968780 L 41.501804 -42.869560 L 37.214347 -46.640018 L 32.586139 -49.983421 L 27.659559 -52.869159 L 22.479717 -55.270801 L 17.094041 -57.166358 L 11.551847 -58.538482 L 5.903878 -59.374599 L 0.201851 -59.667060 L -5.502023 -59.413188 L -11.155520 -58.615299 L -16.706872 -57.280708 L -22.105249 -55.421627 L -27.301221 -53.055084 L -32.247211 -50.202751 L -36.897933 -46.890739 L -41.210803 -43.149375 L -45.146331 -39.012916 L -48.668479 -34.519245 L -51.744998 -29.709495 L -54.347721 -24.627714 L -56.452808 -19.320434 L -58.040996 -13.836245 L -59.097736 -8.225368 L -59.613349 -2.539175 L -59.583118 3.170266 L -59.007324 8.850680 L -57.891231 14.450054 L -56.245063 19.917118 L -54.083892 25.201808 L -51.427509 30.255746 L -48.300235 35.032646 L -44.730697 39.488773 L -40.751590 43.583328 L -36.399349 47.278812 L -31.713817 50.541393 L -26.737901 53.341197 L -21.517160 55.652587 L -16.099403 57.454402 L -10.534230 58.730136 Z"></path>
</g>
<g id="145974e6" stroke="none" fill-opacity="1.000000" fill="#592b8c">
<path id="face.000" d="M -30.379505 59.975627 L -35.985767 56.789215 L -41.260959 53.080348 L -46.156555 48.883152 L -50.627517 44.236236 L -54.632713 39.182350 L -58.135299 33.767993 L -61.103042 28.042976 L -63.508647 22.059963 L -65.329978 15.874004 L -66.550285 9.542006 L -67.158340 3.122222 L -67.148536 -3.326285 L -66.520980 -9.744191 L -65.281440 -16.072452 L -63.441318 -22.252849 L -61.017543 -28.228523 L -58.032417 -33.944496 L -54.513397 -39.348182 L -50.492862 -44.389877 L -46.007797 -49.023185 L -41.099472 -53.205486 L -35.813030 -56.898303 L -30.197114 -60.067665 L -24.303390 -62.684410 L -18.186077 -64.724472 L -11.901455 -66.169067 L -5.507340 -67.004920 L 0.937440 -67.224334 L 7.373597 -66.825294 L 13.741918 -65.811470 L 19.983814 -64.192192 L 26.041862 -61.982349 L 31.860328 -59.202278 L 37.385681 -55.877552 L 42.567096 -52.038757 L 47.356895 -47.721218 L 51.711017 -42.964649 L 50.418243 -41.890533 L 46.172973 -46.528190 L 41.502918 -50.737792 L 36.451042 -54.480613 L 31.063821 -57.722221 L 25.390817 -60.432792 L 19.484218 -62.587387 L 13.398369 -64.166191 L 7.189257 -65.154663 L 0.914004 -65.543731 L -5.369657 -65.329795 L -11.603919 -64.514846 L -17.731426 -63.106361 L -23.695806 -61.117301 L -29.442188 -58.565975 L -34.917705 -55.475849 L -40.071987 -51.875350 L -44.857604 -47.797607 L -49.230541 -43.280132 L -53.150566 -38.364482 L -56.581607 -33.095886 L -59.492107 -27.522809 L -61.855289 -21.696527 L -63.649406 -15.670641 L -64.857955 -9.500587 L -65.469825 -3.243128 L -65.479377 3.044167 L -64.886528 9.303456 L -63.696731 15.477154 L -61.920932 21.508464 L -59.575469 27.341901 L -56.681915 32.923793 L -53.266899 38.202793 L -49.361831 43.130332 L -45.002643 47.661075 L -40.229434 51.753345 L -35.086120 55.369487 L -29.620019 58.476238 Z"></path>
</g>
<g id="4c22b6c4" stroke="none" fill-opacity="1.000000" fill="#483f91">
<path id="face.000" d="M -50.486068 53.092666 L -55.352558 47.997589 L -59.707122 42.458610 L -63.509490 36.526954 L -66.724502 30.257480 L -69.322410 23.708175 L -71.279197 16.939605 L -72.576759 10.014371 L -73.203109 2.996521 L -73.152442 -4.049043 L -72.425224 -11.057160 L -71.028190 -17.963014 L -68.974258 -24.702741 L -66.282424 -31.214006 L -62.977581 -37.436588 L -59.090293 -43.312946 L -54.656517 -48.788722 L -49.717247 -53.813282 L -44.318176 -58.340152 L -38.509231 -62.327468 L -32.344135 -65.738349 L -25.879905 -68.541259 L -19.176330 -70.710266 L -12.295402 -72.225318 L -5.300761 -73.072402 L 1.742902 -73.243675 L 8.770448 -72.737564 L 15.716880 -71.558746 L 22.517957 -69.718116 L 29.110776 -67.232704 L 35.434368 -64.125503 L 41.430248 -60.425231 L 47.042964 -56.166126 L 52.220603 -51.387573 L 56.915287 -46.133766 L 61.083591 -40.453289 L 59.556507 -39.441959 L 55.492408 -44.980419 L 50.915088 -50.102886 L 45.866886 -54.761974 L 40.394489 -58.914600 L 34.548507 -62.522365 L 28.383008 -65.551895 L 21.955007 -67.975166 L 15.323959 -69.769775 L 8.551187 -70.919128 L 1.699330 -71.412590 L -5.168242 -71.245597 L -11.988017 -70.419692 L -18.696922 -68.942520 L -25.232908 -66.827735 L -31.535531 -64.094894 L -37.546501 -60.769279 L -43.210224 -56.881649 L -48.474319 -52.467948 L -53.290103 -47.569004 L -57.613037 -42.230121 L -61.403144 -36.500679 L -64.625366 -30.433656 L -67.249908 -24.085174 L -69.252487 -17.513940 L -70.614593 -10.780731 L -71.323631 -3.947816 L -71.373031 2.921608 L -70.762344 9.764013 L -69.497215 16.516117 L -67.589347 23.115470 L -65.056388 29.501043 L -61.921756 35.613780 L -58.214447 41.397144 L -53.968742 46.797649 L -49.223915 51.765350 Z"></path>
</g>
<g id="77e3b76a" stroke="none" fill-opacity="1.000000" fill="#365396">
<path id="face.000" d="M -68.848609 39.345066 L -72.318855 32.529182 L -75.116325 25.410680 L -77.214981 18.055782 L -78.595306 10.532910 L -79.244468 2.912050 L -79.156402 -4.735900 L -78.331954 -12.339793 L -76.778770 -19.828887 L -74.511322 -27.133514 L -71.550689 -34.185718 L -67.924423 -40.919891 L -63.666255 -47.273387 L -58.815795 -53.187091 L -53.418174 -58.606002 L -47.523597 -63.479698 L -41.186916 -67.762847 L -34.467067 -71.415588 L -27.426570 -74.403953 L -20.130924 -76.700134 L -12.648000 -78.282775 L -5.047412 -79.137145 L 2.600132 -79.255310 L 10.223487 -78.636154 L 17.751733 -77.285453 L 25.114835 -75.215751 L 32.244297 -72.446327 L 39.073783 -69.002929 L 45.539768 -64.917602 L 51.582096 -60.228336 L 57.144554 -54.978767 L 62.175395 -49.217731 L 66.627822 -42.998821 L 70.460403 -36.379894 L 68.698898 -35.470397 L 64.962127 -41.923851 L 60.621009 -47.987289 L 55.715942 -53.604297 L 50.292545 -58.722625 L 44.401275 -63.294662 L 38.096939 -67.277862 L 31.438188 -70.635169 L 24.486967 -73.335365 L 17.307941 -75.353317 L 9.967901 -76.670257 L 2.535129 -77.273925 L -4.921226 -77.158721 L -12.331801 -76.325706 L -19.627653 -74.782630 L -26.740907 -72.543853 L -33.605392 -69.630203 L -40.157241 -66.068771 L -46.335510 -61.892707 L -52.082721 -57.140857 L -57.345401 -51.857418 L -62.074596 -46.091552 L -66.226318 -39.896896 L -69.761932 -33.331077 L -72.648544 -26.455177 L -74.859306 -19.333166 L -76.373657 -12.031299 L -77.177490 -4.617503 L -77.263351 2.839248 L -76.630432 10.269586 L -75.284606 17.604387 L -73.238418 24.775415 L -70.510887 31.715955 L -67.127388 38.361442 Z"></path>
</g>
<g id="146287b8" stroke="none" fill-opacity="1.000000" fill="#276592">
<path id="face.000" d="M -83.127014 19.270795 L -84.600471 11.145605 L -85.281654 2.916038 L -85.164192 -5.340836 L -84.249176 -13.547695 L -82.545188 -21.627683 L -80.068168 -29.505126 L -76.841331 -37.106266 L -72.894874 -44.359905 L -68.265777 -51.198123 L -62.997383 -57.556877 L -57.139022 -63.376621 L -50.745567 -68.602851 L -43.876888 -73.186630 L -36.597305 -77.085029 L -28.974998 -80.261535 L -21.081344 -82.686401 L -12.990264 -84.336929 L -4.777534 -85.197647 L 3.479936 -85.260513 L 11.704818 -84.524917 L 19.820087 -82.997764 L 27.749744 -80.693344 L 35.419525 -77.633247 L 42.757614 -73.846130 L 49.695281 -69.367454 L 56.167560 -64.239158 L 62.113838 -58.509281 L 67.478431 -52.231464 L 72.211097 -45.464511 L 76.267517 -38.271793 L 79.609703 -30.720663 L 77.619461 -29.952648 L 74.360832 -37.314998 L 70.405815 -44.327903 L 65.791473 -50.925682 L 60.560993 -57.046546 L 54.763374 -62.633182 L 48.452899 -67.633270 L 41.688674 -71.999977 L 34.534038 -75.692420 L 27.055999 -78.676017 L 19.324584 -80.922821 L 11.412198 -82.411796 L 3.392937 -83.128997 L -4.658096 -83.067710 L -12.665509 -82.228507 L -20.554309 -80.619247 L -28.250623 -78.254997 L -35.682376 -75.157905 L -42.779968 -71.356971 L -49.476928 -66.887786 L -55.710548 -61.792209 L -61.422451 -56.117958 L -66.559135 -49.918170 L -71.072509 -43.250911 L -74.920295 -36.178607 L -78.066467 -28.767499 L -80.481559 -21.086990 L -82.142951 -13.209002 L -83.035087 -5.207315 L -83.149620 2.843137 L -82.485466 10.866965 L -81.048843 18.789026 Z"></path>
</g>
<g id="46ecb3ea" stroke="none" fill-opacity="1.000000" fill="#1e747d">
<path id="face.000" d="M -91.180427 -5.805043 L -90.187049 -14.624125 L -88.342712 -23.305221 L -85.664825 -31.766424 L -82.178657 -39.927894 L -77.917091 -47.712631 L -72.920349 -55.047176 L -67.235565 -61.862323 L -60.916385 -68.093780 L -54.022430 -73.682731 L -46.618759 -78.576461 L -38.775211 -82.728782 L -30.565801 -86.100524 L -22.067995 -88.659866 L -13.361963 -90.382667 L -4.529856 -91.252662 L 4.344991 -91.261650 L 13.178842 -90.409553 L 21.888345 -88.704391 L 30.391321 -86.162269 L 38.607543 -82.807159 L 46.459484 -78.670738 L 53.873058 -73.792022 L 60.778320 -68.217041 L 67.110115 -61.998397 L 72.808685 -55.194778 L 77.820281 -47.870372 L 82.097602 -40.094287 L 85.600303 -31.939895 L 88.295326 -23.484134 L 86.087944 -22.897033 L 83.460296 -31.141399 L 80.045166 -39.091930 L 75.874771 -46.673614 L 70.988471 -53.814910 L 65.432357 -60.448440 L 59.258865 -66.511611 L 52.526237 -71.947219 L 45.298000 -76.703971 L 37.642356 -80.736984 L 29.631540 -84.008209 L 21.341138 -86.486778 L 12.849372 -88.149314 L 4.236366 -88.980117 L -4.416609 -88.971351 L -13.027914 -88.123100 L -21.516294 -86.443374 L -29.801658 -83.948013 L -37.805831 -80.660560 L -45.453289 -76.612052 L -52.671875 -71.840667 L -59.393478 -66.391433 L -65.554679 -60.315765 L -71.097335 -53.670993 L -75.969161 -46.519813 L -80.124191 -38.929698 L -83.523208 -30.972263 L -86.134147 -22.722591 L -87.932373 -14.258522 L -88.900917 -5.659917 Z"></path>
</g>
<g id="774f1401" stroke="none" fill-opacity="1.000000" fill="#168368">
<path id="face.000" d="M -91.326828 -33.851047 L -87.593872 -42.588687 L -83.027297 -50.921016 L -77.670570 -58.768737 L -71.574668 -66.057174 L -64.797592 -72.716941 L -57.403858 -78.684684 L -49.463813 -83.903594 L -41.053035 -88.324005 L -32.251560 -91.903861 L -23.143152 -94.609077 L -13.814495 -96.413909 L -4.354367 -97.301185 L 5.147200 -97.262474 L 14.599782 -96.298126 L 23.913421 -94.417320 L 32.999481 -91.637969 L 41.771488 -87.986503 L 50.145965 -83.497695 L 58.043205 -78.214248 L 65.388061 -72.186447 L 72.110641 -65.471664 L 78.146934 -58.133792 L 83.439529 -50.242679 L 87.938049 -41.873409 L 91.599670 -33.105636 L 94.389549 -24.022804 L 96.281143 -14.711352 L 93.874114 -14.343567 L 92.029815 -23.422235 L 89.309677 -32.277996 L 85.739601 -40.826576 L 81.353546 -48.986614 L 76.193267 -56.680450 L 70.307876 -63.834873 L 63.753364 -70.381790 L 56.592128 -76.258888 L 48.892318 -81.410247 L 40.727199 -85.786842 L 32.174495 -89.347023 L 23.315586 -92.056892 L 14.234787 -93.890678 L 5.018519 -94.830909 L -4.245508 -94.868667 L -13.469133 -94.003570 L -22.564573 -92.243850 L -31.445270 -89.606269 L -40.026710 -86.115913 L -48.227222 -81.806007 L -55.968761 -76.717575 L -63.177654 -70.899017 L -69.785301 -64.405738 L -75.728805 -57.299522 L -80.951614 -49.647994 L -85.404022 -41.523971 L -89.043655 -33.004776 Z"></path>
</g>
<g id="8d26704" stroke="none" fill-opacity="1.000000" fill="#0d9253">
<path id="face.000" d="M -82.569282 -62.293781 L -76.072578 -70.079704 L -68.844696 -77.192039 L -60.955089 -83.562431 L -52.479602 -89.129638 L -43.499706 -93.840171 L -34.101699 -97.648735 L -24.375919 -100.518737 L -14.415845 -102.422584 L -4.317211 -103.341972 L 5.822917 -103.268074 L 15.907080 -102.201599 L 25.838348 -100.152786 L 35.521266 -97.141349 L 44.862762 -93.196212 L 53.773056 -88.355308 L 62.166500 -82.665161 L 69.962417 -76.180458 L 77.085884 -68.963539 L 83.468421 -61.083759 L 89.048683 -52.616859 L 93.773040 -43.644226 L 97.596084 -34.252101 L 100.481063 -24.530755 L 102.400253 -14.573626 L 103.335197 -4.476420 L 100.751823 -4.364510 L 99.840248 -14.209285 L 97.969039 -23.917486 L 95.156181 -33.395801 L 91.428718 -42.553123 L 86.822471 -51.301441 L 81.381706 -59.556659 L 75.158737 -67.239448 L 68.213363 -74.275947 L 60.612335 -80.598533 L 52.428733 -86.146430 L 43.741195 -90.866310 L 34.633232 -94.712821 L 25.192390 -97.648979 L 15.509403 -99.646560 L 5.677345 -100.686378 L -4.209281 -100.758430 L -14.055449 -99.862022 L -23.766521 -98.005775 L -33.249156 -95.207519 L -42.412212 -91.494171 L -51.167613 -86.901405 L -59.431213 -81.473373 L -67.123573 -75.262237 L -74.170761 -68.327713 L -80.505050 -60.736438 Z"></path>
</g>
<g id="70c56819" stroke="none" fill-opacity="1.000000" fill="#04a13e">
<path id="face.000" d="M -64.763153 -88.252265 L -56.143184 -93.971656 L -47.021812 -98.851806 L -37.480495 -102.849121 L -27.604448 -105.927917 L -17.481874 -108.060691 L -7.203170 -109.228401 L 3.139861 -109.420616 L 13.454853 -108.635612 L 23.649682 -106.880409 L 33.633300 -104.170684 L 43.316543 -100.530624 L 52.612941 -95.992752 L 61.439460 -90.597579 L 69.717277 -84.393302 L 77.372459 -77.435333 L 84.336647 -69.785797 L 90.547653 -61.513027 L 95.949981 -52.690891 L 100.495407 -43.398185 L 104.143325 -33.717899 L 106.861167 -23.736484 L 108.624649 -13.543085 L 109.418022 -3.228734 L 109.234214 7.114450 L 106.503364 6.936589 L 106.682579 -3.148016 L 105.909034 -13.204508 L 104.189636 -23.143074 L 101.539749 -32.874954 L 97.983024 -42.313232 L 93.551231 -51.373619 L 88.283958 -59.975200 L 82.228240 -68.041160 L 75.438156 -75.499450 L 67.974342 -82.283477 L 59.903476 -88.332649 L 51.297618 -93.592933 L 42.233634 -98.017356 L 32.792469 -101.566413 L 23.058441 -104.208396 L 13.118481 -105.919723 L 3.061365 -106.685096 L -7.023091 -106.497695 L -17.044826 -105.359176 L -26.914339 -103.279716 L -36.543483 -100.277893 L -45.846267 -96.380508 L -54.739604 -91.622367 L -63.144073 -86.045959 Z"></path>
</g>
<g id="5799c9b8" stroke="none" fill-opacity="1.000000" fill="#1bb22e">
<path id="face.000" d="M -38.702495 -108.821777 L -28.226505 -111.996986 L -17.496971 -114.166183 L -6.610267 -115.309867 L 4.335813 -115.417770 L 15.242947 -114.488929 L 26.013160 -112.531669 L 36.549705 -109.563591 L 46.757946 -105.611343 L 56.546173 -100.710433 L 65.826469 -94.904884 L 74.515472 -88.246841 L 82.535140 -80.796112 L 89.813423 -72.619636 L 96.284950 -63.790828 L 101.891586 -54.389026 L 106.582969 -44.498664 L 110.316970 -34.208595 L 113.060035 -23.611238 L 114.787521 -12.801794 L 115.483924 -1.877355 L 115.142982 9.063946 L 113.767761 19.923831 L 110.923561 19.425735 L 112.264411 8.837347 L 112.596832 -1.830421 L 111.917839 -12.481749 L 110.233535 -23.020957 L 107.559043 -33.353378 L 103.918403 -43.386199 L 99.344299 -53.029300 L 93.877822 -62.196063 L 87.568084 -70.804145 L 80.471763 -78.776214 L 72.652587 -86.040672 L 64.180809 -92.532264 L 55.132518 -98.192672 L 45.588996 -102.971061 L 35.635963 -106.824508 L 25.362831 -109.718376 L 14.861874 -111.626701 L 4.227418 -112.532333 L -6.445010 -112.427124 L -17.059547 -111.312026 L -27.520843 -109.197067 L -37.734931 -106.101226 Z"></path>
</g>
<g id="5f16701f" stroke="none" fill-opacity="1.000000" fill="#50c423">
<path id="face.000" d="M -6.112963 -121.378898 L 5.445358 -121.410675 L 16.954427 -120.344306 L 28.310144 -118.189422 L 39.409797 -114.965530 L 50.152988 -110.701774 L 60.442550 -105.436721 L 70.185409 -99.218002 L 79.293457 -92.101860 L 87.684280 -84.152664 L 95.282012 -75.442314 L 102.017929 -66.049583 L 107.831092 -56.059444 L 112.668922 -45.562244 L 116.487678 -34.652938 L 119.252799 -23.430196 L 120.939285 -11.995532 L 121.531890 -0.452368 L 121.025238 11.094886 L 119.423919 22.541790 L 116.742416 33.784801 L 113.823860 32.940181 L 116.438323 21.978244 L 117.999610 10.817515 L 118.493598 -0.441059 L 117.915809 -11.695645 L 116.271484 -22.844444 L 113.575485 -33.786617 L 109.852203 -44.423191 L 105.135314 -54.657955 L 99.467483 -64.398345 L 92.899971 -73.556259 L 85.492179 -82.048851 L 77.311111 -89.799316 L 68.430778 -96.737556 L 58.931488 -102.800804 L 48.899166 -107.934226 L 38.424552 -112.091392 L 27.602392 -115.234687 L 16.530567 -117.335700 L 5.309224 -118.375411 L -5.960139 -118.344421 Z"></path>
</g>
<g id="49d7f274" stroke="none" fill-opacity="1.000000" fill="#85d519">
<path id="face.000" d="M 30.454078 -123.877769 L 42.132801 -120.407554 L 53.427207 -115.839050 L 64.234283 -110.213928 L 74.455451 -103.583488 L 83.997467 -96.008216 L 92.773315 -87.557212 L 100.702926 -78.307556 L 107.713981 -68.343620 L 113.742538 -57.756294 L 118.733581 -46.642143 L 122.641609 -35.102546 L 125.430969 -23.242767 L 127.076202 -11.170978 L 127.562332 1.002706 L 126.884895 13.167244 L 125.050086 25.211679 L 122.074638 37.026145 L 117.985694 48.502880 L 115.036048 47.290309 L 119.022773 36.100494 L 121.923843 24.581386 L 123.712776 12.838064 L 124.373275 0.977638 L 123.899299 -10.891704 L 122.295188 -22.661697 L 119.575569 -34.224983 L 115.765243 -45.476089 L 110.898971 -56.312389 L 105.021133 -66.635032 L 98.185356 -76.349868 L 90.453979 -85.368286 L 81.897537 -93.608016 L 72.594062 -100.993904 L 62.628429 -107.458580 L 52.091533 -112.943077 L 41.079483 -117.397377 L 29.692729 -120.780830 Z"></path>
</g>
<g id="630aa825" stroke="none" fill-opacity="1.000000" fill="#b9e70e">
<path id="face.000" d="M 67.820014 -115.105834 L 78.545799 -108.071578 L 88.547584 -100.041160 L 97.733177 -91.088615 L 106.017906 -81.296447 L 113.325408 -70.754928 L 119.588333 -59.561222 L 124.748947 -47.818511 L 128.759674 -35.635028 L 131.583557 -23.123077 L 133.194564 -10.397989 L 133.577835 2.422943 L 132.729843 15.221543 L 130.658416 27.879837 L 127.382644 40.281147 L 122.932701 52.311164 L 117.349632 63.858997 L 114.415893 62.262527 L 119.859390 51.003383 L 124.198081 39.274120 L 127.391967 27.182840 L 129.411605 14.841005 L 130.238388 2.362370 L 129.864700 -10.138039 L 128.293975 -22.545001 L 125.540679 -34.744155 L 121.630226 -46.623050 L 116.598625 -58.072193 L 110.492279 -68.986053 L 103.367462 -79.264038 L 95.289848 -88.811401 L 86.333900 -97.540130 L 76.582153 -105.369789 L 66.124519 -112.228187 Z"></path>
</g>
<g id="148d0f76" stroke="none" fill-opacity="1.000000" fill="#eef904">
<path id="face.000" d="M 102.455276 -94.870376 L 111.135520 -84.536186 L 118.777557 -73.412284 L 125.309997 -61.602573 L 130.671813 -49.217384 L 134.812911 -36.372409 L 137.694595 -23.187650 L 139.289993 -9.786279 L 139.584136 3.706514 L 138.574325 17.164682 L 136.269973 30.462501 L 132.692611 43.475742 L 127.875663 56.082843 L 121.864120 68.166030 L 114.714134 79.612419 L 111.846290 77.622108 L 118.817520 66.461875 L 124.678779 54.680774 L 129.375305 42.388854 L 132.863235 29.700939 L 135.109970 16.735567 L 136.094543 3.613852 L 135.807739 -9.541623 L 134.252243 -22.607959 L 131.442581 -35.463100 L 127.405014 -47.986949 L 122.177246 -60.062511 L 115.808120 -71.576980 L 108.357139 -82.422790 L 99.893890 -92.498611 Z"></path>
</g>
<g id="28b0c880" stroke="none" fill-opacity="1.000000" fill="#ffed00">
<path id="face.000" d="M 130.808517 -64.093498 L 136.429138 -51.048385 L 140.752471 -37.517860 L 143.737411 -23.630588 L 145.355560 -9.518617 L 145.591583 4.683866 L 144.443176 18.841810 L 141.921295 32.820594 L 138.049911 46.487289 L 132.865829 59.711944 L 126.418357 72.368812 L 118.768791 84.337539 L 109.989875 95.504310 L 107.240135 93.116706 L 115.799568 82.229103 L 123.257904 70.559593 L 129.544189 58.219146 L 134.598663 45.325107 L 138.373260 32.000076 L 140.832107 18.370765 L 141.951782 4.566769 L 141.721679 -9.280651 L 140.143981 -23.039825 L 137.233657 -36.579914 L 133.018402 -49.772178 L 127.538314 -62.491161 Z"></path>
</g>
<g id="4eb7a8b2" stroke="none" fill-opacity="1.000000" fill="#ffd300">
<path id="face.000" d="M 149.659469 -24.800443 L 151.280303 -11.282258 L 151.682571 2.326806 L 150.863067 15.917129 L 148.828353 29.379240 L 145.594848 42.604701 L 141.188568 55.486988 L 135.645034 67.922325 L 129.008895 79.810554 L 121.333587 91.055923 L 112.680938 101.567825 L 103.120666 111.261619 L 100.542648 108.480079 L 109.863914 99.028640 L 118.300247 88.779518 L 125.783668 77.815292 L 132.253906 66.224273 L 137.658859 54.099815 L 141.954971 41.539588 L 145.107650 28.644760 L 147.091491 15.519201 L 147.890518 2.268636 L 147.498291 -11.000202 L 145.917984 -24.180435 Z"></path>
</g>
<g id="16d13021" stroke="none" fill-opacity="1.000000" fill="#ffb900">
<path id="face.000" d="M 156.460433 20.003330 L 154.049987 33.891109 L 150.409347 47.508247 L 145.567596 60.746006 L 139.563415 73.498672 L 132.444747 85.664413 L 124.268432 97.146072 L 115.099761 107.851966 L 105.011962 117.696609 L 94.085578 126.601371 L 91.733436 123.436347 L 102.386657 114.754196 L 112.222267 105.155677 L 121.161720 94.717430 L 129.133636 83.522804 L 136.074340 71.661209 L 141.928405 59.227359 L 146.649108 46.320545 L 150.198730 33.043830 L 152.548934 19.503248 Z"></path>
</g>
<g id="3809e2ab" stroke="none" fill-opacity="1.000000" fill="#ff9e00">
<path id="face.000" d="M 149.631713 66.559333 L 143.140838 79.564407 L 135.522415 91.942741 L 126.836479 103.596832 L 117.151420 114.434867 L 106.543548 124.371498 L 95.096405 133.328414 L 82.900184 141.235107 L 80.827682 137.704223 L 92.719001 129.995208 L 103.879959 121.262207 L 114.222640 111.574005 L 123.665565 101.006919 L 132.134368 89.644172 L 139.562316 77.575294 L 145.890930 64.895347 Z"></path>
</g>
<g id="47f69d97" stroke="none" fill-opacity="1.000000" fill="#ff8400">
<path id="face.000" d="M 128.779754 110.671463 L 118.593116 121.523948 L 107.495231 131.442657 L 95.571372 140.351394 L 82.913146 148.181671 L 69.617835 154.873352 L 67.877388 151.001525 L 80.840324 144.477142 L 93.182090 136.842605 L 104.807853 128.156600 L 115.628295 118.485855 L 125.560264 107.904685 Z"></path>
</g>
<g id="3a959936" stroke="none" fill-opacity="1.000000" fill="#ff6a00">
<path id="face.000" d="M 94.811828 148.082824 L 81.877922 155.607864 L 68.351036 162.005996 L 54.329147 167.230819 L 52.970916 163.050048 L 66.642257 157.955841 L 79.830978 151.717681 L 92.441535 144.380752 Z"></path>
</g>
<g id="5e264f40" stroke="none" fill-opacity="1.000000" fill="#ff4f00">
<path id="face.000" d="M 49.931549 174.879547 L 37.162811 178.030746 L 36.233741 173.579971 L 48.683261 170.507568 Z"></path>
</g>
<g id="749a113f" stroke="none" fill-opacity="1.000000" fill="#ff3500">
<path id="face.000" d="M -2.491455 187.885147 L -20.858245 186.740386 L -39.024974 183.804489 L -56.817394 179.105621 L -74.064842 172.688842 L -90.601898 164.615722 L -106.269935 154.963668 L -120.918685 143.825286 L -134.407623 131.307373 L -146.607391 117.530036 L -157.400970 102.625396 L -166.684829 86.736419 L -174.369918 70.015510 L -180.382522 52.623035 L -184.664978 34.725830 L -187.176208 16.495546 L -187.892135 -1.892954 L -186.805877 -20.263298 L -183.927871 -38.439289 L -179.285690 -56.246582 L -172.923889 -73.514389 L -164.903488 -90.077072 L -155.301391 -105.775779 L -144.209732 -120.459930 L -131.734863 -133.988677 L -117.996444 -146.232284 L -103.126258 -157.073272 L -87.266937 -166.407684 L -70.570587 -174.146011 L -53.197360 -180.213989 L -35.313884 -184.553436 L -17.091693 -187.122726 L 1.294433 -187.897216 L 19.668144 -186.869476 L 37.853206 -184.049377 L 55.675201 -179.463958 L 72.963180 -173.157180 L 89.551330 -165.189590 L 105.280540 -155.637542 L 119.999954 -144.592697 L 133.568374 -132.160995 L 145.855667 -118.461647 L 156.743972 -103.626083 L 166.128860 -87.796569 L 173.920318 -71.124954 L 180.043609 -53.771144 L 184.440002 -35.901580 L 187.067337 -17.687667 L 187.900390 0.695899 L 186.931182 19.072792 L 184.169021 37.266746 L 179.640380 55.103256 L 173.388732 72.411231 L 165.473999 89.024681 L 155.972122 104.784248 L 144.974212 119.538757 L 132.585784 133.146713 L 118.925659 145.477584 L 104.124847 156.413085 L 88.325309 165.848358 L 71.678604 173.692886 L 54.344379 179.871414 L 36.488914 184.324707 L 18.283460 187.010040 L 17.826375 182.334793 L 35.576690 179.716598 L 52.985774 175.374633 L 69.886642 169.350555 L 86.117179 161.702148 L 101.521728 152.502777 L 115.952522 141.840637 L 129.271148 129.818038 L 141.349868 116.550285 L 152.072830 102.164634 L 161.337158 86.799064 L 169.054016 70.600959 L 175.149383 53.725673 L 179.564804 36.335079 L 182.257904 18.595972 L 183.202880 0.678501 L 182.390640 -17.245475 L 179.829010 -35.004043 L 175.542526 -52.426864 L 169.572311 -69.346839 L 161.975646 -85.601661 L 152.825378 -101.035430 L 142.209289 -115.500114 L 130.229171 -128.856964 L 116.999961 -140.977890 L 102.648529 -151.746612 L 87.312553 -161.059844 L 71.139106 -168.828262 L 54.283325 -174.977355 L 36.906879 -179.448150 L 19.176441 -182.197738 L 1.262072 -183.199783 L -16.664402 -182.444656 L -34.431037 -179.939605 L -51.867427 -175.708633 L -68.806327 -169.792358 L -85.085266 -162.247512 L -100.548110 -153.146453 L -115.046531 -142.576461 L -128.441482 -130.638961 L -140.604476 -117.448432 L -151.418869 -103.131393 L -160.780899 -87.825141 L -168.600799 -71.676528 L -174.803558 -54.840419 L -179.329666 -37.478305 L -182.135742 -19.756717 L -183.194839 -1.845630 L -182.496810 16.083158 L -180.048370 33.857685 L -175.872955 51.307460 L -170.010665 68.265121 L -162.517715 84.568016 L -153.465957 100.059761 L -142.942214 114.591789 L -131.047439 128.024703 L -117.895721 140.229644 L -103.613197 151.089584 L -88.336853 160.500335 L -72.213226 168.371627 L -55.396961 174.627975 L -38.049350 179.209381 L -20.336791 182.071884 L -2.429169 183.188034 Z"></path>
</g>
<g id="4e194090" stroke="none" fill-opacity="1.000000" fill="#ff1a00">
<path id="face.000" d="M -58.170497 185.005569 L -75.743690 178.532241 L -92.610572 170.394104 L -108.613853 160.667037 L -123.604324 149.441757 L -137.442169 136.822937 L -149.998382 122.928230 L -161.155868 107.887229 L -170.810562 91.840179 L -178.872451 74.936721 L -185.266357 57.334476 L -189.932662 39.197593 L -192.827835 20.695190 L -193.924896 1.999805 L -193.213607 -16.714227 L -190.700607 -35.272399 L -186.409332 -53.501663 L -180.379776 -71.232017 L -172.668182 -88.298133 L -163.346466 -104.540878 L -152.501556 -119.808769 L -140.234558 -133.959457 L -126.659873 -146.860961 L -111.904090 -158.393005 L -96.104797 -168.448013 L -79.409332 -176.932250 L -61.973373 -183.766616 L -43.959514 -188.887344 L -25.535734 -192.246704 L -6.873832 -193.813354 L 11.852167 -193.572708 L 30.467645 -191.526992 L 48.799011 -187.695281 L 66.675331 -182.113342 L 83.929901 -174.833175 L 100.401824 -165.922683 L 115.937515 -155.464981 L 130.392074 -143.557571 L 143.630722 -130.311477 L 155.530029 -115.850227 L 165.979019 -100.308685 L 174.880249 -83.831756 L 182.150726 -66.573104 L 187.722640 -48.693656 L 191.544067 -30.360141 L 193.579330 -11.743516 L 193.809463 6.982614 L 192.232330 25.643632 L 188.862640 44.065528 L 183.731796 62.076507 L 176.887664 79.508628 L 168.394058 96.199333 L 158.330154 111.992965 L 146.789855 126.742279 L 133.880722 140.309722 L 119.723159 152.568771 L 104.449172 163.405120 L 88.201210 172.717727 L 71.130760 180.419723 L 53.397026 186.439331 L 35.165359 190.720382 L 16.605779 193.222961 L -2.108650 193.923751 L -2.055934 189.075653 L 16.190635 188.392395 L 34.286228 185.952377 L 52.062103 181.778350 L 69.352500 175.909240 L 85.996177 168.399780 L 101.837944 159.320007 L 116.730087 148.754562 L 130.533706 136.801986 L 143.120101 123.573738 L 154.371902 109.193161 L 164.184204 93.794349 L 172.465469 77.520912 L 179.138504 60.524600 L 184.141067 42.963890 L 187.426528 25.002544 L 188.964233 6.808049 L 188.739837 -11.449929 L 186.755462 -29.601137 L 183.029586 -47.476318 L 177.596954 -64.908775 L 170.508255 -81.735969 L 161.829544 -97.800971 L 151.641784 -112.953971 L 140.039962 -127.053695 L 127.132278 -139.968627 L 113.039077 -151.578369 L 97.891784 -161.774627 L 81.831657 -170.462341 L 65.008445 -177.560501 L 47.579040 -183.002914 L 29.705955 -186.738830 L 11.555863 -188.733398 L -6.701987 -188.968032 L -24.897342 -187.440521 L -42.860527 -184.165161 L -60.424037 -179.172454 L -77.424102 -172.508956 L -93.702178 -164.236816 L -109.106483 -154.433166 L -123.493385 -143.189453 L -136.728698 -130.610458 L -148.689025 -116.813552 L -159.262817 -101.927352 L -168.351486 -86.090690 L -175.870300 -69.451217 L -181.749099 -52.164119 L -185.933090 -34.390590 L -188.383285 -16.296373 L -189.076782 1.949810 L -188.007156 20.177812 L -185.184341 38.217655 L -180.634704 55.901119 L -174.400650 73.063301 L -166.540298 89.544181 L -157.126968 105.190055 L -146.248428 119.855026 L -134.006134 133.402359 L -120.514221 145.705718 L -105.898506 156.650360 L -90.295303 166.134246 L -73.850097 174.068939 L -56.716239 180.380432 Z"></path>
</g>
<g id="b5c0d3a" stroke="none" fill-opacity="1.000000" fill="#ff0000">
<path id="face.000" d="M -112.252792 165.489608 L -127.717491 153.869232 L -141.987060 140.809005 L -154.927963 126.431129 L -166.419082 110.870140 L -176.352920 94.271682 L -184.636489 76.791046 L -191.192306 58.591831 L -195.958999 39.844326 L -198.891967 20.723976 L -199.963775 1.409697 L -199.164398 -17.917774 L -196.501281 -37.077575 L -191.999374 -55.890419 L -185.700805 -74.180259 L -177.664505 -91.775939 L -167.965682 -108.512809 L -156.695083 -124.234260 L -143.958190 -138.793167 L -129.874176 -152.053283 L -114.574836 -163.890533 L -98.203353 -174.194152 L -80.912910 -182.867721 L -62.865310 -189.830062 L -44.229438 -195.016036 L -25.179679 -198.377120 L -5.894297 -199.881866 L 13.446241 -199.516159 L 32.660953 -197.283462 L 51.570037 -193.204650 L 69.996543 -187.317871 L 87.768043 -179.678237 L 104.718246 -170.357254 L 120.688522 -159.442108 L 135.529418 -147.034942 L 149.102096 -133.251876 L 161.279525 -118.221893 L 171.947738 -102.085624 L 181.006927 -84.994071 L 188.372314 -67.107162 L 193.974975 -48.592292 L 197.762466 -29.622711 L 199.699386 -10.375932 L 199.767562 8.967943 L 197.966384 28.227901 L 194.312683 47.223709 L 188.840698 65.777610 L 181.601577 83.715995 L 172.663101 100.870986 L 162.108901 117.082061 L 150.037719 132.197509 L 136.562545 146.075912 L 121.809463 158.587371 L 105.916526 169.614837 L 89.032463 179.055084 L 71.315254 186.819793 L 52.930702 192.836303 L 34.050846 197.048309 L 14.852347 199.416427 L -4.485133 199.918441 L -23.780643 198.549697 L -23.186128 193.585952 L -4.373005 194.920486 L 14.481038 194.431015 L 33.199573 192.122116 L 51.607437 188.015411 L 69.532379 182.149307 L 86.806648 174.578704 L 103.268615 165.374465 L 118.764236 154.622695 L 133.148483 142.424011 L 146.286788 128.892578 L 158.056182 114.155014 L 168.346527 98.349212 L 177.061538 81.623092 L 184.119674 64.133178 L 189.454879 46.043117 L 193.017227 27.522203 L 194.773376 8.743744 L 194.706893 -10.116534 L 192.818420 -28.882144 L 189.125610 -47.377487 L 183.663009 -65.429489 L 176.481765 -82.869216 L 167.649063 -99.533485 L 157.247543 -115.266349 L 145.374557 -129.920593 L 132.141189 -143.359069 L 117.671302 -155.456054 L 102.100280 -166.098312 L 85.573844 -175.186294 L 68.246627 -182.634918 L 50.280788 -188.374526 L 31.844430 -192.351379 L 13.110084 -194.528274 L -5.746939 -194.884811 L -24.550188 -193.417709 L -43.123703 -190.140640 L -61.293678 -185.084320 L -78.890090 -178.296020 L -95.748275 -169.839309 L -111.710472 -159.793273 L -126.627326 -148.251937 L -140.359237 -135.323333 L -152.777709 -121.128402 L -163.766540 -105.799995 L -173.222900 -89.481544 L -181.058288 -72.325752 L -187.199401 -54.493160 L -191.588745 -36.150638 L -194.185287 -17.469831 L -194.964691 1.374454 L -193.919677 20.205877 L -191.060028 38.848220 L -186.412506 57.127037 L -180.020584 74.871269 L -171.944107 91.914886 L -162.258605 108.098396 L -151.054763 123.270355 L -138.437377 137.288787 L -124.524566 150.022506 L -109.446472 161.352386 Z"></path>
</g>
</g>

</g>
</svg>
