<svg xmlns="http://www.w3.org/2000/svg" xmlns:xlink="http://www.w3.org/1999/xlink" width="720" height="405" viewBox="0 0 720 405">
<path id="background" d="M 0.0 0.0 L 720.0 0.0 L 720.0 405.0 L 0.0 405.0 Z" stroke="none" fill-opacity="1.000000" fill="#202020"></path>
<g transform="translate(360.000000, 202.500000) scale(1.000000, -1.000000) rotate(0.0) translate(0.0, 0.0)">
<g id="20e2cbe0" class="meshentity2" transform="translate(0.0, 0.0) rotate(0.0) scale(1.000000, 1.000000)">
<g id="0xffff0000" class="materialsolid" stroke="none" fill-opacity="1.000000" fill="#ff0000">
<path id="arc" class="mesh2" fill-rule="evenodd" d="M 24.996093 0.0 L 24.876672 2.440469 L 24.519548 4.857619 L 23.928133 7.228354 L 23.108081 9.530020 L 22.067226 11.740624 L 20.815511 13.839044 L 19.364902 15.805230 L 17.729255 17.620391 L 15.924201 19.267187 L 13.966988 20.729879 L 11.876318 21.994493 L 9.672166 23.048946 L 7.375595 23.883159 L 5.008548 24.489164 L 2.593643 24.861167 L 0.153955 24.995620 L -2.287202 24.891231 L -4.706506 24.549001 L -7.080838 23.972200 L -9.387512 23.166339 L -11.604485 22.139120 L -13.710575 20.900356 L -15.685658 19.461881 L -17.510858 17.837448 L -19.168741 16.042570 L -20.643461 14.094403 L -21.920928 12.011561 L -22.988935 9.813945 L -23.837278 7.522556 L -24.457851 5.159286 L -24.844722 2.746719 L -24.994197 0.307905 L -24.904848 -2.133849 L -24.577524 -4.555215 L -24.015357 -6.933054 L -23.223720 -9.244647 L -22.210174 -11.467905 L -20.984403 -13.581584 L -19.558124 -15.565489 L -17.944961 -17.400663 L -17.496337 -16.965646 L -19.069171 -15.176353 L -20.459794 -13.242047 L -21.654920 -11.181208 L -22.643129 -9.013531 L -23.414974 -6.759728 L -23.963087 -4.441335 L -24.282226 -2.080503 L -24.369342 0.300208 L -24.223606 2.678051 L -23.846405 5.030304 L -23.241346 7.334492 L -22.414213 9.568597 L -21.372905 11.711273 L -20.127376 13.742044 L -18.689523 15.641507 L -17.073087 17.391510 L -15.293516 18.975336 L -13.367811 20.377845 L -11.314373 21.585641 L -9.152824 22.587181 L -6.903818 23.372898 L -4.588844 23.935277 L -2.230022 24.268951 L 0.150107 24.370729 L 2.528802 24.239639 L 4.883334 23.876935 L 7.191205 23.286079 L 9.430362 22.472723 L 11.579410 21.444631 L 13.617815 20.211633 L 15.526097 18.785507 L 17.286026 17.179882 L 18.880779 15.410099 L 20.295124 13.493068 L 21.515544 11.447109 L 22.530380 9.291769 L 23.329931 7.047645 L 23.906560 4.736179 L 24.254756 2.379457 L 24.371192 0.0 Z "></path>
</g>
<g id="0xffe5001a" class="materialsolid" stroke="none" fill-opacity="1.000000" fill="#e5001a">
<path id="arc" class="mesh2" fill-rule="evenodd" d="M 30.756587 4.107361 L 30.212949 7.072178 L 29.384214 9.970259 L 28.278198 12.774258 L 26.905338 15.457713 L 25.278589 17.995306 L 23.413303 20.363086 L 21.327081 22.538715 L 19.039609 24.501661 L 16.572473 26.233400 L 13.948953 27.717590 L 11.193806 28.940227 L 8.333030 29.889776 L 5.393621 30.557273 L 2.403315 30.936420 L -0.609668 31.023641 L -3.616899 30.818113 L -6.589999 30.321775 L -9.500914 29.539308 L -12.322175 28.478097 L -15.027160 27.148159 L -17.590343 25.562040 L -19.987539 23.734708 L -22.196121 21.683408 L -24.195257 19.427495 L -25.966075 16.988260 L -27.491870 14.388714 L -28.758243 11.653392 L -29.753240 8.808106 L -30.467477 5.879703 L -30.894210 2.895816 L -31.029418 -0.115395 L -30.871818 -3.125519 L -30.422903 -6.106148 L -29.686906 -9.029159 L -28.670772 -11.866967 L -27.384090 -14.592793 L -25.839004 -17.180917 L -24.050090 -19.606916 L -22.034235 -21.847898 L -19.810453 -23.882715 L -19.315191 -23.285646 L -21.483377 -21.301700 L -23.448839 -19.116744 L -25.193029 -16.751394 L -26.699491 -14.227973 L -27.954004 -11.570292 L -28.944732 -8.803430 L -29.662332 -5.953495 L -30.100025 -3.047381 L -30.253683 -0.112510 L -30.121858 2.823421 L -29.705791 5.732710 L -29.009410 8.587903 L -28.039287 11.362058 L -26.804574 14.028997 L -25.316926 16.563552 L -23.590377 18.941808 L -21.641220 21.141324 L -19.487850 23.141342 L -17.150585 24.922990 L -14.651481 26.469455 L -12.014122 27.766145 L -9.263392 28.800827 L -6.425250 29.563730 L -3.526476 30.047660 L -0.594426 30.248052 L 2.343232 30.163011 L 5.258780 29.793342 L 8.124705 29.142532 L 10.913961 28.216724 L 13.600230 27.024650 L 16.158163 25.577564 L 18.563619 23.889120 L 20.793905 21.975248 L 22.827972 19.854009 L 24.646625 17.545423 L 26.232704 15.071270 L 27.571243 12.454901 L 28.649608 9.721003 L 29.457628 6.895374 L 29.987674 4.004677 Z "></path>
</g>
<g id="0xffca0035" class="materialsolid" stroke="none" fill-opacity="1.000000" fill="#ca0035">
<path id="arc" class="mesh2" fill-rule="evenodd" d="M 35.764366 9.725689 L 34.659999 13.128720 L 33.232666 16.409414 L 31.495660 19.537202 L 29.465173 22.482936 L 27.160121 25.219171 L 24.601989 27.720407 L 21.814609 29.963340 L 18.823953 31.927066 L 15.657894 33.593292 L 12.345930 34.946487 L 8.918924 35.974040 L 5.408810 36.666381 L 1.848295 37.017059 L -1.729441 37.022804 L -5.291063 36.683563 L -8.803382 36.002490 L -12.233669 34.985942 L -15.549960 33.643390 L -18.721355 31.987339 L -21.718297 30.033222 L -24.512865 27.799253 L -27.079015 25.306240 L -29.392839 22.577421 L -31.432773 19.638219 L -33.179813 16.516025 L -34.617671 13.239930 L -35.732955 9.840463 L -36.515277 6.349300 L -36.957336 2.798973 L -37.055019 -0.777434 L -36.807418 -4.346598 L -36.216838 -7.875259 L -35.288780 -11.330537 L -34.031890 -14.680235 L -32.457889 -17.893138 L -30.581436 -20.939310 L -28.420017 -23.790367 L -25.993778 -26.419736 L -23.325321 -28.802923 L -20.439514 -30.917716 L -19.928524 -30.144775 L -22.742187 -28.082851 L -25.343933 -25.759244 L -27.709516 -23.195606 L -29.816900 -20.415828 L -31.646440 -17.445812 L -33.181095 -14.313229 L -34.406558 -11.047275 L -35.311416 -7.678379 L -35.887233 -4.237933 L -36.128646 -0.757998 L -36.033405 2.728999 L -35.602394 6.190567 L -34.839633 9.594451 L -33.752231 12.908931 L -32.350315 16.103124 L -30.646957 19.147262 L -28.658020 22.012985 L -26.402042 24.673585 L -23.900043 27.104270 L -21.175338 29.282394 L -18.253320 31.187656 L -15.161211 32.802307 L -11.927827 34.111297 L -8.583297 35.102432 L -5.158787 35.766471 L -1.686205 36.097232 L 1.802088 36.091632 L 5.273590 35.749725 L 8.695951 35.074691 L 12.037282 34.072826 L 15.266447 32.753463 L 18.353355 31.128892 L 21.269243 29.214258 L 23.986940 27.027399 L 26.481122 24.588693 L 28.728546 21.920864 L 30.708271 19.048772 L 32.401847 15.999179 L 33.793502 12.800502 L 34.870258 9.482547 Z "></path>
</g>
<g id="0xffb0004f" class="materialsolid" stroke="none" fill-opacity="1.000000" fill="#b0004f">
<path id="arc" class="mesh2" fill-rule="evenodd" d="M 39.723579 16.714185 L 37.939437 20.443231 L 35.806224 23.984182 L 33.343566 27.304456 L 30.574115 30.373510 L 27.523361 33.163101 L 24.219367 35.647567 L 20.692537 37.804042 L 16.975317 39.612689 L 13.101910 41.056869 L 9.107955 42.123294 L 5.030200 42.802146 L 0.906163 43.087184 L -3.226211 42.975788 L -7.328902 42.468978 L -11.364160 41.571414 L -15.294860 40.291362 L -19.084835 38.640598 L -22.699213 36.634307 L -26.104738 34.290950 L -29.270080 31.632089 L -32.166114 28.682188 L -34.766189 25.468385 L -37.046394 22.020254 L -38.985736 18.369516 L -40.566379 14.549764 L -41.773777 10.596144 L -42.596820 6.545030 L -43.027942 2.433696 L -43.063171 -1.700029 L -42.702182 -5.818113 L -41.948295 -9.882666 L -40.808452 -13.856290 L -39.293140 -17.702426 L -37.416297 -21.385683 L -35.195194 -24.872177 L -32.650264 -28.129823 L -29.804925 -31.128652 L -26.685359 -33.841075 L -23.320264 -36.242130 L -19.740602 -38.309730 L -19.247089 -37.351985 L -22.737258 -35.336078 L -26.018224 -32.995048 L -29.059804 -30.350439 L -31.834007 -27.426578 L -34.315315 -24.250373 L -36.480888 -20.851041 L -38.310813 -17.259864 L -39.788242 -13.509883 L -40.899589 -9.635600 L -41.634628 -5.672661 L -41.986591 -1.657528 L -41.952243 2.372853 L -41.531902 6.381404 L -40.729434 10.331241 L -39.552219 14.186021 L -38.011093 17.910278 L -36.120231 21.469747 L -33.897037 24.831676 L -31.361961 27.965133 L -28.538330 30.841287 L -25.452121 33.433677 L -22.131732 35.718448 L -18.607713 37.674583 L -14.912489 39.284080 L -11.080058 40.532131 L -7.145679 41.407253 L -3.145555 41.901393 L 0.883509 42.010009 L 4.904446 41.732093 L 8.880257 41.070213 L 12.774363 40.030448 L 16.550935 38.622375 L 20.175224 36.858943 L 23.613885 34.756378 L 26.835277 32.334026 L 29.809764 29.614173 L 32.509975 26.621847 L 34.911071 23.384578 L 36.990955 19.932151 L 38.730491 16.296331 Z "></path>
</g>
<g id="0xff95006a" class="materialsolid" stroke="none" fill-opacity="1.000000" fill="#95006a">
<path id="arc" class="mesh2" fill-rule="evenodd" d="M 42.364212 24.880821 L 39.732540 28.898220 L 36.721199 32.639476 L 33.358963 36.068843 L 29.677959 39.153549 L 25.713365 41.864120 L 21.503065 44.174652 L 17.087289 46.063068 L 12.508234 47.511325 L 7.809655 48.505577 L 3.036450 49.036331 L -1.765769 49.098510 L -6.551117 48.691524 L -11.273864 47.819263 L -15.888882 46.490055 L -20.352073 44.716606 L -24.620786 42.515861 L -28.654235 39.908855 L -32.413871 36.920490 L -35.863777 33.579330 L -38.970977 29.917297 L -41.705787 25.969387 L -44.042072 21.773321 L -45.957511 17.369199 L -47.433792 12.799103 L -48.456817 8.106704 L -49.016807 3.336840 L -49.108406 -1.464909 L -48.730751 -6.252660 L -47.887435 -10.980663 L -46.586532 -15.603739 L -44.840465 -20.077713 L -42.665916 -24.359830 L -40.083671 -28.409172 L -37.118400 -32.187053 L -33.798439 -35.657360 L -30.155509 -38.786941 L -26.224431 -41.545890 L -22.042758 -43.907840 L -17.650455 -45.850227 L -17.209194 -44.703971 L -21.491689 -42.810146 L -25.568820 -40.507244 L -29.401624 -37.817268 L -32.953475 -34.765930 L -36.190437 -31.382373 L -39.081577 -27.698944 L -41.599269 -23.750835 L -43.719451 -19.575769 L -45.421871 -15.213646 L -46.690254 -10.706147 L -47.512481 -6.096343 L -47.880699 -1.428286 L -47.791385 3.253419 L -47.245395 7.904036 L -46.247947 12.479125 L -44.808574 16.934970 L -42.941020 21.228988 L -40.663143 25.320150 L -37.996704 29.169364 L -34.967182 32.739849 L -31.603527 35.997478 L -27.937881 38.911132 L -24.005270 41.452964 L -19.843273 43.598690 L -15.491661 45.327804 L -10.992018 46.623783 L -6.387339 47.474239 L -1.721625 47.871051 L 2.960539 47.810424 L 7.614414 47.292938 L 12.195529 46.323543 L 16.660108 44.911491 L 20.965488 43.070285 L 25.070531 40.817520 L 28.936010 38.174709 L 32.524990 35.167125 L 35.803169 31.823490 L 38.739227 28.175765 L 41.305107 24.258800 Z "></path>
</g>
<g id="0xff7d0380" class="materialsolid" stroke="none" fill-opacity="1.000000" fill="#7d0380">
<path id="arc" class="mesh2" fill-rule="evenodd" d="M 43.450363 33.986911 L 39.948257 38.041835 L 36.069286 41.737880 L 31.850051 45.040187 L 27.330350 47.917598 L 22.552824 50.342967 L 17.562541 52.293418 L 12.406577 53.750545 L 7.133574 54.700607 L 1.793275 55.134639 L -3.563940 55.048545 L -8.887536 54.443145 L -14.127288 53.324142 L -19.233768 51.702095 L -24.158802 49.592304 L -28.855928 47.014675 L -33.280838 43.993522 L -37.391784 40.557350 L -41.149990 36.738567 L -44.520000 32.573207 L -47.470020 28.100563 L -49.972221 23.362823 L -52.002998 18.404687 L -53.543193 13.272926 L -54.578281 8.015953 L -55.098491 2.683358 L -55.098918 -2.674549 L -54.579563 -8.007225 L -53.545318 -13.264365 L -52.005939 -18.396371 L -49.975952 -23.354833 L -47.474510 -28.092973 L -44.525207 -32.566089 L -41.155868 -36.731990 L -37.398269 -40.551372 L -33.287872 -43.988201 L -28.863449 -47.010059 L -24.166730 -49.588439 L -19.242034 -51.699016 L -14.135814 -53.321880 L -13.782420 -51.988834 L -18.760984 -50.406543 L -23.562564 -48.348728 L -28.141862 -45.834808 L -32.455677 -42.888496 L -36.463314 -39.537586 L -40.126972 -35.813690 L -43.412078 -31.751939 L -46.287647 -27.390647 L -48.726554 -22.770963 L -50.705791 -17.936464 L -52.206687 -12.932756 L -53.215076 -7.807045 L -53.721450 -2.607685 L -53.721031 2.616275 L -53.213825 7.815554 L -52.204616 12.941103 L -50.702922 17.944570 L -48.722915 22.778753 L -46.283267 27.398050 L -43.407001 31.758880 L -40.121242 35.820106 L -36.456993 39.543415 L -32.448818 42.893688 L -28.134534 45.839305 L -23.554832 48.352497 L -18.752925 50.409542 L -13.774106 51.991039 L -8.665348 53.082069 L -3.474842 53.672336 L 1.748443 53.756275 L 6.955235 53.333091 L 12.096413 52.406784 L 17.123477 50.986080 L 21.989002 49.084392 L 26.647092 46.719661 L 31.053798 43.914184 L 35.167556 40.694435 L 38.949550 37.090785 L 42.364109 33.137237 Z "></path>
</g>
<g id="0xff6b1786" class="materialsolid" stroke="none" fill-opacity="1.000000" fill="#6b1786">
<path id="arc" class="mesh2" fill-rule="evenodd" d="M 42.787719 43.752994 L 38.371173 47.673545 L 33.597286 51.150131 L 28.510526 54.150379 L 23.158260 56.646347 L 17.590330 58.614795 L 11.858591 60.037384 L 6.016416 60.900875 L 0.118213 61.197219 L -5.781090 60.923664 L -11.626556 60.082748 L -17.363750 58.682312 L -22.939243 56.735393 L -28.301113 54.260120 L -33.399429 51.279548 L -38.186706 47.821430 L -42.618370 43.917976 L -46.653144 39.605529 L -50.253459 34.924251 L -53.385787 29.917741 L -56.020957 24.632619 L -58.134429 19.118106 L -59.706516 13.425554 L -60.722587 7.607975 L -61.173171 1.719547 L -61.054077 -4.184893 L -60.366416 -10.050363 L -59.116580 -15.822237 L -57.316223 -21.446767 L -54.982109 -26.871572 L -52.135967 -32.046134 L -48.804302 -36.922264 L -45.018150 -41.454551 L -40.812759 -45.600795 L -36.227298 -49.322372 L -31.304468 -52.584636 L -26.090112 -55.357200 L -20.632789 -57.614250 L -14.983324 -59.334758 L -9.194326 -60.502712 L -8.964468 -58.990142 L -14.608741 -57.851394 L -20.116970 -56.173896 L -25.437860 -53.973274 L -30.521854 -51.270023 L -35.321617 -48.089317 L -39.792442 -44.460777 L -43.892696 -40.418190 L -47.584197 -35.999210 L -50.832569 -31.244981 L -53.607559 -26.199783 L -55.883323 -20.910598 L -57.638668 -15.426683 L -58.857254 -9.799104 L -59.527725 -4.080271 L -59.643840 1.676559 L -59.204524 7.417777 L -58.213855 13.089916 L -56.681068 18.640155 L -54.620437 24.016805 L -52.051143 29.169797 L -48.997127 34.051143 L -45.486816 38.615390 L -41.552909 42.820026 L -37.232036 46.625896 L -32.564441 49.997558 L -27.593585 52.903621 L -22.365764 55.317008 L -16.929656 57.215259 L -11.335893 58.580680 L -5.636563 59.400573 L 0.115257 59.667289 L 5.866005 59.378353 L 11.562126 58.536449 L 17.150573 57.149425 L 22.579303 55.230190 L 27.797763 52.796619 L 32.757354 49.871379 L 37.411891 46.481708 L 41.718029 42.659172 Z "></path>
</g>
<g id="0xff592b8c" class="materialsolid" stroke="none" fill-opacity="1.000000" fill="#592b8c">
<path id="arc" class="mesh2" fill-rule="evenodd" d="M 40.230056 53.865879 L 34.886646 57.470970 L 29.222555 60.547771 L 23.289840 63.068004 L 17.143041 65.008514 L 10.838658 66.351440 L 4.434646 67.084457 L -2.010130 67.200813 L -8.436429 66.699455 L -14.785180 65.584976 L -20.998020 63.867626 L -27.017845 61.563190 L -32.789314 58.692855 L -38.259376 55.283000 L -43.377754 51.364974 L -48.097389 46.974792 L -52.374908 42.152809 L -56.170986 36.943347 L -59.450725 31.394292 L -62.183982 25.556657 L -64.345626 19.484098 L -65.915802 13.232439 L -66.880058 6.859143 L -67.229545 0.422797 L -66.961036 -6.017435 L -66.077018 -12.402354 L -64.585594 -18.673267 L -62.500495 -24.772535 L -59.840873 -30.644084 L -56.631183 -36.233947 L -52.900932 -41.490745 L -48.684398 -46.366149 L -44.020351 -50.815341 L -38.951656 -54.797431 L -33.524913 -58.275814 L -27.790002 -61.218509 L -21.799636 -63.598476 L -15.608887 -65.393829 L -9.274656 -66.588073 L -2.855171 -67.170219 L -2.783792 -65.490966 L -9.042790 -64.923370 L -15.218665 -63.758983 L -21.254648 -62.008514 L -27.095251 -59.688049 L -32.686790 -56.818916 L -37.977870 -53.427497 L -42.919841 -49.544960 L -47.467288 -45.206993 L -51.578407 -40.453475 L -55.215408 -35.328102 L -58.344856 -29.877983 L -60.937984 -24.153221 L -62.970958 -18.206436 L -64.425086 -12.092295 L -65.287010 -5.866999 L -65.548805 0.412227 L -65.208061 6.687664 L -64.267906 12.901627 L -62.736988 18.996997 L -60.629383 24.917739 L -57.964458 30.609437 L -54.766708 36.019763 L -51.065536 41.098991 L -46.894954 45.800426 L -42.293308 50.080852 L -37.302894 53.900924 L -31.969581 57.225536 L -26.342399 60.024108 L -20.473072 62.270935 L -14.415551 63.945350 L -8.225519 65.031967 L -1.959877 65.520797 L 4.323780 65.407348 L 10.567692 64.692657 L 16.714464 63.383296 L 22.707593 61.491310 L 28.491991 59.034076 L 34.014480 56.034194 L 39.224308 52.519229 Z "></path>
</g>
<g id="0xff483f91" class="materialsolid" stroke="none" fill-opacity="1.000000" fill="#483f91">
<path id="arc" class="mesh2" fill-rule="evenodd" d="M 35.684612 63.986579 L 29.266578 67.165031 L 22.568872 69.701652 L 15.655499 71.572196 L 8.592520 72.758796 L 1.447432 73.250114 L -5.711487 73.041450 L -12.815828 72.134796 L -19.797702 70.538818 L -26.590385 68.268775 L -33.128971 65.346343 L -39.350975 61.799472 L -45.196945 57.662036 L -50.611003 52.973579 L -55.541423 47.778907 L -59.941093 42.127655 L -63.767959 36.073833 L -66.985458 29.675287 L -69.562843 22.993164 L -71.475479 16.091316 L -72.705093 9.035698 L -73.239929 1.893736 L -73.074890 -5.266322 L -72.211540 -12.376055 L -70.658142 -19.367523 L -68.429527 -26.173913 L -65.546997 -32.730186 L -62.038101 -38.973690 L -57.936359 -44.844753 L -53.280982 -50.287284 L -48.116447 -55.249267 L -42.492115 -59.683284 L -36.461719 -63.546970 L -30.082897 -66.803390 L -23.416599 -69.421447 L -16.526535 -71.376098 L -9.478541 -72.648681 L -2.339971 -73.227035 L 4.820960 -73.105628 L 4.700436 -71.277984 L -2.281471 -71.396362 L -9.241578 -70.832466 L -16.113372 -69.591697 L -22.831186 -67.685905 L -29.330823 -65.133308 L -35.550174 -61.958293 L -41.429809 -58.191204 L -46.913536 -53.868038 L -51.948959 -49.030101 L -56.487957 -43.723636 L -60.487148 -37.999347 L -63.908325 -31.911931 L -66.718795 -25.519567 L -68.891693 -18.883335 L -70.406257 -12.066654 L -71.248023 -5.134664 L -71.408935 1.846393 L -70.887466 8.809806 L -69.688591 15.689033 L -67.823768 22.418334 L -65.310821 28.933406 L -62.173763 35.171989 L -58.442565 41.074462 L -54.152893 46.584434 L -49.345729 51.649242 L -44.067020 56.220485 L -38.367206 60.254486 L -32.300750 63.712688 L -25.925628 66.562057 L -19.302761 68.775352 L -12.495433 70.331428 L -5.568701 71.215408 L 1.411246 71.418861 L 8.377708 70.939826 L 15.264112 69.782890 L 22.004652 67.959106 L 28.534914 65.485908 L 34.792495 62.386920 Z "></path>
</g>
<g id="0xff365396" class="materialsolid" stroke="none" fill-opacity="1.000000" fill="#365396">
<path id="arc" class="mesh2" fill-rule="evenodd" d="M 29.116128 73.759178 L 21.824316 76.235580 L 14.326678 77.993026 L 6.693927 79.014915 L -1.001954 79.291618 L -8.688385 78.820541 L -16.292877 77.606101 L -23.743713 75.659774 L -30.970624 72.999900 L -37.905452 69.651573 L -44.482799 65.646369 L -50.640636 61.022056 L -56.320880 55.822250 L -61.469966 50.095993 L -66.039337 43.897281 L -69.985893 37.284576 L -73.272422 30.320247 L -75.867919 23.069971 L -77.747917 15.602121 L -78.894683 7.987130 L -79.297393 0.296813 L -78.952262 -7.396302 L -77.862541 -15.019665 L -76.038497 -22.501379 L -73.497344 -29.770883 L -70.263046 -36.759620 L -66.366096 -43.401679 L -61.843257 -49.634422 L -56.737182 -55.399070 L -51.096019 -60.641250 L -44.972980 -65.311531 L -38.425804 -69.365859 L -31.516233 -72.766006 L -24.309436 -75.479904 L -16.873378 -77.481956 L -9.278190 -78.753288 L -1.595500 -79.281898 L 6.102235 -79.062812 L 13.742423 -78.098083 L 13.398862 -76.145629 L 5.949680 -77.086242 L -1.555613 -77.299858 L -9.046236 -76.784454 L -16.451545 -75.544914 L -23.701700 -73.592910 L -30.728326 -70.946861 L -37.465156 -67.631713 L -43.848659 -63.678741 L -49.818626 -59.125221 L -55.318756 -54.014095 L -60.297180 -48.393562 L -64.706947 -42.316642 L -68.506469 -35.840629 L -71.659912 -29.026611 L -74.137535 -21.938844 L -75.915977 -14.644173 L -76.978454 -7.211395 L -77.314956 0.289392 L -76.922317 7.787452 L -75.804222 15.212068 L -73.971229 22.493221 L -71.440612 29.562242 L -68.236251 36.352462 L -64.388351 42.799846 L -59.933216 48.843589 L -54.912857 54.426696 L -49.374614 59.496505 L -43.370731 64.005210 L -36.957817 67.910285 L -30.196359 71.174903 L -23.150121 73.768280 L -15.885557 75.665954 L -8.471176 76.850028 L -0.976905 77.309333 L 6.526578 77.039543 L 13.968511 76.043197 L 21.278707 74.329696 L 28.388227 71.915199 Z "></path>
</g>
<g id="0xff276592" class="materialsolid" stroke="none" fill-opacity="1.000000" fill="#276592">
<path id="arc" class="mesh2" fill-rule="evenodd" d="M 20.549482 82.820182 L 12.473426 84.414916 L 4.281286 85.224029 L -3.950697 85.239990 L -12.145914 84.462661 L -20.228094 82.899269 L -28.122016 80.564361 L -35.754219 77.479675 L -43.053672 73.673919 L -49.952442 69.182495 L -56.386318 64.047225 L -62.295436 58.315887 L -67.624794 52.041831 L -72.324783 45.283439 L -76.351676 38.103610 L -79.667999 30.569168 L -82.242881 22.750226 L -84.052360 14.719561 L -85.079589 6.551904 L -85.315025 -1.676728 L -84.756454 -9.889756 L -83.409095 -18.010744 L -81.285484 -25.964111 L -78.405372 -33.675842 L -74.795570 -41.074165 L -70.489677 -48.090229 L -65.527763 -54.658729 L -59.956005 -60.718544 L -53.826263 -66.213279 L -47.195579 -71.091781 L -40.125663 -75.308670 L -32.682312 -78.824684 L -24.934801 -81.607109 L -16.955230 -83.630043 L -8.817864 -84.874671 L -0.598433 -85.329399 L 7.626567 -84.989997 L 15.780590 -83.859626 L 23.787750 -81.948806 L 23.193056 -79.900093 L 15.386075 -81.763137 L 7.435903 -82.865249 L -0.583472 -83.196166 L -8.597417 -82.752807 L -16.531351 -81.539299 L -24.311431 -79.566932 L -31.865255 -76.854072 L -39.122524 -73.425956 L -46.015693 -69.314491 L -52.480606 -64.557945 L -58.457107 -59.200584 L -63.889572 -53.292263 L -68.727439 -46.887973 L -72.925682 -40.047313 L -76.445236 -32.833946 L -79.253341 -25.315010 L -81.323875 -17.560476 L -82.637550 -9.642512 L -83.182151 -1.634809 L -82.952606 6.388107 L -81.951049 14.351572 L -80.186813 22.181472 L -77.676300 29.804939 L -74.442893 37.151023 L -70.516662 44.151351 L -65.934165 50.740783 L -60.738052 56.857994 L -54.976665 62.446048 L -48.703632 67.452934 L -41.977333 71.832069 L -34.860366 75.542686 L -27.418968 78.550254 L -19.722393 80.826789 L -11.842267 82.351097 L -3.851930 83.108993 L 4.174254 83.093429 L 12.161592 82.304542 L 20.035745 80.749679 Z "></path>
</g>
<g id="0xff1e747d" class="materialsolid" stroke="none" fill-opacity="1.000000" fill="#1e747d">
<path id="arc" class="mesh2" fill-rule="evenodd" d="M 10.070890 90.808288 L 1.332602 91.355308 L -7.417923 91.063400 L -16.100328 89.935241 L -24.634883 87.981193 L -32.943210 85.219207 L -40.949020 81.674636 L -48.578788 77.380035 L -55.762447 72.374847 L -62.434028 66.705024 L -68.532279 60.422637 L -74.001182 53.585391 L -78.790512 46.256057 L -82.856315 38.501945 L -86.161224 30.394266 L -88.674911 22.007472 L -90.374275 13.418580 L -91.243728 4.706464 L -91.275268 -4.048871 L -90.468620 -12.767026 L -88.831184 -21.367940 L -86.377998 -29.772628 L -83.131591 -37.903911 L -79.121780 -45.687114 L -74.385375 -53.050773 L -68.965881 -59.927253 L -62.913059 -66.253417 L -56.282508 -71.971160 L -49.135093 -77.027992 L -41.536476 -81.377449 L -33.556419 -84.979614 L -25.268207 -87.801399 L -16.747953 -89.816894 L -8.073901 -91.007583 L 0.674293 -91.362541 L 9.416296 -90.878501 L 18.071828 -89.559913 L 26.561405 -87.418876 L 34.807064 -84.475067 L 33.936885 -82.363189 L 25.897369 -85.233406 L 17.620033 -87.320915 L 9.180889 -88.606536 L 0.657436 -89.078483 L -7.872054 -88.732398 L -16.329254 -87.571479 L -24.636501 -85.606369 L -32.717506 -82.855133 L -40.498062 -79.343017 L -47.906723 -75.102287 L -54.875442 -70.171882 L -61.340236 -64.597084 L -67.241737 -58.429077 L -72.525741 -51.724502 L -77.143730 -44.544940 L -81.053306 -36.956317 L -84.218551 -29.028314 L -86.610412 -20.833744 L -88.206909 -12.447852 L -88.993392 -3.947650 L -88.962631 4.588802 L -88.114921 13.083116 L -86.458038 21.457286 L -84.007194 29.634410 L -80.784904 37.539398 L -76.820755 45.099655 L -72.151153 52.245758 L -66.818969 58.912078 L -60.873180 65.037399 L -54.368385 70.565475 L -47.364318 75.445533 L -39.925296 79.632766 L -32.119632 83.088729 L -24.019012 85.781669 L -15.697821 87.686859 L -7.232475 88.786819 L 1.299287 89.071426 L 9.819118 88.538085 Z "></path>
</g>
<g id="0xff168368" class="materialsolid" stroke="none" fill-opacity="1.000000" fill="#168368">
<path id="arc" class="mesh2" fill-rule="evenodd" d="M -2.172497 97.374343 L -11.669783 96.696937 L -21.055547 95.095458 L -30.240095 92.585197 L -39.135654 89.190155 L -47.657215 84.942756 L -55.723335 79.883613 L -63.256942 74.061065 L -70.186035 67.530754 L -76.444396 60.355083 L -81.972229 52.602634 L -86.716682 44.347488 L -90.632431 35.668537 L -93.682060 26.648717 L -95.836418 17.374235 L -97.074913 7.933713 L -97.385719 -1.582625 L -96.765853 -11.083840 L -95.221260 -20.479133 L -92.766677 -29.678716 L -89.425575 -38.594676 L -85.229881 -47.141811 L -80.219688 -55.238430 L -74.442878 -62.807170 L -67.954658 -69.775688 L -60.817031 -76.077400 L -53.098205 -81.652084 L -44.871952 -86.446456 L -36.216876 -90.414710 L -27.215698 -93.518920 L -17.954433 -95.729415 L -8.521587 -97.025070 L 0.992694 -97.393516 L 10.497489 -96.831214 L 19.901968 -95.343559 L 29.116250 -92.944747 L 38.052288 -89.657714 L 46.624675 -85.513870 L 45.459060 -83.376022 L 37.100978 -87.416275 L 28.388343 -90.621131 L 19.404417 -92.959968 L 10.235053 -94.410438 L 0.967877 -94.958679 L -8.308547 -94.599449 L -17.505571 -93.336181 L -26.535306 -91.180946 L -35.311454 -88.154342 L -43.750152 -84.285301 L -51.770748 -79.610786 L -59.296604 -74.175468 L -66.255790 -68.031303 L -72.581802 -61.236991 L -78.214195 -53.857471 L -83.099136 -45.963264 L -87.189933 -37.629810 L -90.447509 -28.936748 L -92.840728 -19.967155 L -94.346710 -10.806744 L -94.951072 -1.543059 L -94.648040 7.735371 L -93.440505 16.939880 L -91.340011 25.982501 L -88.366622 34.776824 L -84.548767 43.238803 L -79.922920 51.287570 L -74.533294 58.846210 L -68.431388 65.842483 L -61.675521 72.209541 L -54.330253 77.886528 L -46.465785 82.819190 L -38.157260 86.960403 L -29.484094 90.270576 L -20.529159 92.718078 L -11.378039 94.279518 L -2.118185 94.939987 Z "></path>
</g>
<g id="0xff0d9253" class="materialsolid" stroke="none" fill-opacity="1.000000" fill="#0d9253">
<path id="arc" class="mesh2" fill-rule="evenodd" d="M -15.974585 102.191070 L -25.810108 100.160079 L -35.402290 97.184768 L -44.660705 93.293212 L -53.498054 88.522087 L -61.831027 82.916374 L -69.581062 76.528930 L -76.675086 69.419975 L -83.046218 61.656532 L -88.634391 53.311790 L -93.386924 44.464424 L -97.259002 35.197845 L -100.214126 25.599426 L -102.224441 15.759656 L -103.270973 5.771304 L -103.343872 -4.271460 L -102.442451 -14.273953 L -100.575202 -24.141870 L -97.759742 -33.782180 L -94.022590 -43.103992 L -89.399002 -52.019420 L -83.932563 -60.444412 L -77.674812 -68.299530 L -70.684738 -75.510726 L -63.028255 -82.010009 L -54.777538 -87.736099 L -46.010383 -92.635017 L -36.809440 -96.660575 L -27.261461 -99.774818 L -17.456460 -101.948387 L -7.486881 -103.160789 L 2.553283 -103.400588 L 12.569376 -102.665542 L 22.466966 -100.962554 L 32.152736 -98.307701 L 41.535373 -94.725997 L 50.526412 -90.251228 L 59.041091 -84.925559 L 57.565067 -82.802429 L 49.263256 -87.994949 L 40.496990 -92.357849 L 31.348918 -95.850006 L 21.905292 -98.438491 L 12.255143 -100.098899 L 2.489451 -100.815582 L -7.299709 -100.581771 L -17.020050 -99.399681 L -26.579925 -97.280448 L -35.889205 -94.244064 L -44.860122 -90.319145 L -53.408100 -85.542701 L -61.452545 -79.959762 L -68.917617 -73.622962 L -75.732940 -66.592041 L -81.834251 -58.933303 L -87.164031 -50.718936 L -91.672035 -42.026393 L -95.315750 -32.937625 L -98.060829 -23.538324 L -99.881393 -13.917104 L -100.760276 -4.164673 L -100.689201 5.627021 L -99.668830 15.365665 L -97.708778 24.959442 L -94.827529 34.317901 L -91.052246 43.352813 L -86.418533 51.978996 L -80.970062 60.115119 L -74.758209 67.684478 L -67.841537 74.615715 L -60.285259 80.843467 L -52.160606 86.309036 L -43.544185 90.960884 L -34.517234 94.755157 L -25.164855 97.656074 L -15.575221 99.636299 Z "></path>
</g>
<g id="0xff04a13e" class="materialsolid" stroke="none" fill-opacity="1.000000" fill="#04a13e">
<path id="arc" class="mesh2" fill-rule="evenodd" d="M -31.073667 104.962646 L -41.039817 101.481338 L -50.624282 97.056221 L -59.737926 91.728454 L -68.295982 85.547576 L -76.218864 78.571075 L -83.432884 70.863830 L -89.870948 62.497531 L -95.473175 53.549987 L -100.187477 44.104404 L -103.969993 34.248634 L -106.785552 24.074342 L -108.607971 13.676150 L -109.420303 3.150764 L -109.214973 -7.403924 L -107.993919 -17.889755 L -105.768470 -28.209203 L -102.559341 -38.266296 L -98.396385 -47.967498 L -93.318298 -57.222591 L -87.372314 -65.945487 L -80.613746 -74.055068 L -73.105438 -81.475914 L -64.917221 -88.138999 L -56.125255 -93.982360 L -46.811298 -98.951660 L -37.061985 -103.000671 L -26.967979 -106.091735 L -16.623163 -108.196113 L -6.123746 -109.294227 L 4.432623 -109.375869 L 14.947769 -108.440277 L 25.323896 -106.496147 L 35.464500 -103.561561 L 45.275272 -99.663833 L 54.664970 -94.839179 L 63.546260 -89.132499 L 71.836555 -82.596847 L 70.040641 -80.531921 L 61.957603 -86.904182 L 53.298347 -92.468208 L 44.143390 -97.172241 L 34.577888 -100.972534 L 24.690797 -103.833747 L 14.574075 -105.729270 L 4.321808 -106.641479 L -5.970652 -106.561874 L -16.207584 -105.491210 L -26.293781 -103.439445 L -36.135433 -100.425659 L -45.641017 -96.477867 L -54.722122 -91.632804 L -63.294292 -85.935531 L -71.277801 -79.439018 L -78.598396 -72.203697 L -85.188011 -64.296852 L -90.985336 -55.792026 L -95.936470 -46.768314 L -99.995368 -37.309642 L -103.124259 -27.503974 L -105.294067 -17.442510 L -106.484603 -7.218827 L -106.684799 3.071995 L -105.892776 13.334246 L -104.115921 23.472484 L -101.370742 33.392421 L -97.682792 43.001796 L -93.086349 52.211238 L -87.624176 60.935096 L -81.347061 69.092239 L -74.313392 76.606796 L -66.588584 83.408889 L -58.244476 89.435241 L -49.358676 94.629821 L -40.013824 98.944313 L -30.296827 102.338577 Z "></path>
</g>
<g id="0xff1bb22e" class="materialsolid" stroke="none" fill-opacity="1.000000" fill="#1bb22e">
<path id="arc" class="mesh2" fill-rule="evenodd" d="M -47.157466 105.433555 L -57.027889 100.438446 L -66.375160 94.521949 L -75.113525 87.738357 L -83.162841 80.149879 L -90.449249 71.826141 L -96.905914 62.843502 L -102.473602 53.284355 L -107.101234 43.236408 L -110.746368 32.791820 L -113.375556 22.046417 L -114.964691 11.098769 L -115.499168 0.049304 L -114.974121 -11.000612 L -113.394340 -21.949613 L -110.774322 -32.697257 L -107.138114 -43.144950 L -102.519050 -53.196849 L -96.959526 -62.760742 L -90.510543 -71.748893 L -83.231239 -80.078849 L -75.188407 -87.674194 L -66.455833 -94.465248 L -57.113616 -100.389717 L -47.247467 -105.393257 L -36.947883 -109.429954 L -26.309356 -112.462791 L -15.429478 -114.463935 L -4.408055 -115.415039 L 6.653804 -115.307365 L 17.654624 -114.141914 L 28.493488 -111.929367 L 39.070964 -108.690025 L 49.290019 -104.453605 L 59.056911 -99.258972 L 68.282035 -93.153770 L 76.880767 -86.194023 L 84.774230 -78.443557 L 82.654876 -76.482467 L 74.958747 -84.039169 L 66.574989 -90.824935 L 57.580490 -96.777496 L 48.057769 -101.842262 L 38.094192 -105.972778 L 27.781152 -109.131134 L 17.213260 -111.288368 L 6.487459 -112.424682 L -4.297854 -112.529663 L -15.043742 -111.602340 L -25.651624 -109.651222 L -36.024188 -106.694206 L -46.066280 -102.758422 L -55.685779 -97.879974 L -64.794441 -92.103622 L -73.308700 -85.482337 L -81.150466 -78.076873 L -88.247779 -69.955169 L -94.535545 -61.191730 L -99.956077 -51.866931 L -104.459655 -42.066329 L -108.004966 -31.879829 L -110.559478 -21.400873 L -112.099769 -10.725597 L -112.611701 0.048071 L -112.090576 10.821300 L -110.541168 21.495258 L -107.977714 31.972026 L -104.423706 42.155498 L -99.911758 51.952251 L -94.483261 61.272411 L -88.188026 70.030494 L -81.083778 78.146133 L -73.235694 85.544898 L -64.715782 92.158905 L -55.602191 97.927490 L -45.978534 102.797721 Z "></path>
</g>
<g id="0xff50c423" class="materialsolid" stroke="none" fill-opacity="1.000000" fill="#50c423">
<path id="arc" class="mesh2" fill-rule="evenodd" d="M -63.869491 103.396766 L -73.660240 96.666305 L -82.747009 89.012001 L -91.042984 80.507019 L -98.468856 71.232635 L -104.953674 61.277481 L -110.435455 50.736709 L -114.861816 39.711048 L -118.190444 28.305870 L -120.389541 16.630174 L -121.438079 4.795547 L -121.326042 -7.084911 L -120.054496 -18.897661 L -117.635604 -30.529806 L -114.092475 -41.870182 L -109.458969 -52.810405 L -103.779373 -63.245922 L -97.107963 -73.077003 L -89.508499 -82.209693 L -81.053611 -90.556709 L -71.824096 -98.038276 L -61.908157 -104.582901 L -51.400573 -110.128044 L -40.401756 -114.620689 L -29.016824 -118.017913 L -17.354578 -120.287254 L -5.526476 -121.407012 L 6.354442 -121.366493 L 18.174631 -120.166076 L 29.821126 -117.817253 L 41.182624 -114.342445 L 52.150543 -109.774887 L 62.620059 -104.158203 L 72.491119 -97.546096 L 81.669395 -90.001747 L 90.067153 -81.597259 L 97.604141 -72.412948 L 95.164047 -70.602622 L 87.815475 -79.557327 L 79.627655 -87.751708 L 70.678840 -95.107452 L 61.054557 -101.554260 L 50.846778 -107.030509 L 40.153057 -111.483894 L 29.075599 -114.871826 L 17.720266 -117.161933 L 6.195581 -118.332328 L -5.388314 -118.371841 L -16.920713 -117.280075 L -28.291404 -115.067474 L -39.391716 -111.755172 L -50.115558 -107.374847 L -60.360454 -101.968338 L -70.028495 -95.587318 L -79.027267 -88.292793 L -87.270782 -80.154449 L -94.680267 -71.250076 L -101.184890 -61.664775 L -106.722496 -51.490142 L -111.240165 -40.823429 L -114.694717 -29.766561 L -117.053146 -18.425220 L -118.292892 -6.907789 L -118.402130 4.675658 L -117.379806 16.214420 L -115.235687 27.598224 L -111.990280 38.718273 L -107.674575 49.468296 L -102.329833 59.745548 L -96.007141 69.451820 L -88.766906 78.494338 L -80.678337 86.786705 L -71.818733 94.249649 L -62.272758 100.811859 Z "></path>
</g>
<g id="0xff85d519" class="materialsolid" stroke="none" fill-opacity="1.000000" fill="#85d519">
<path id="arc" class="mesh2" fill-rule="evenodd" d="M -80.816390 98.700874 L -90.006324 90.399208 L -98.347938 81.245521 L -105.762649 71.326110 L -112.180557 60.734466 L -117.541175 49.570407 L -121.793975 37.939147 L -124.898895 25.950319 L -126.826652 13.716910 L -127.559082 1.354222 L -127.089286 -11.021228 L -125.421684 -23.292806 L -122.571998 -35.344852 L -118.567085 -47.063777 L -113.444694 -58.339130 L -107.253105 -69.064643 L -100.050651 -79.139244 L -91.905250 -88.467948 L -82.893646 -96.962860 L -73.100784 -104.543907 L -62.618949 -111.139648 L -51.546939 -116.687896 L -39.989109 -121.136383 L -28.054384 -124.443176 L -15.855250 -126.577110 L -3.506682 -127.518058 L 8.874935 -127.257179 L 21.172906 -125.796905 L 33.271327 -123.151016 L 45.056167 -119.344436 L 56.416362 -114.413055 L 67.244834 -108.403343 L 77.439537 -101.371948 L 86.904380 -93.385124 L 95.550163 -84.518157 L 103.295387 -74.854629 L 110.067077 -64.485595 L 107.315399 -62.873458 L 100.713005 -72.983261 L 93.161415 -82.405212 L 84.731773 -91.050498 L 75.503555 -98.837646 L 65.563713 -105.693260 L 55.005954 -111.552726 L 43.929763 -116.360832 L 32.439548 -120.072242 L 20.643585 -122.651985 L 8.653061 -124.075752 L -3.419015 -124.330108 L -15.458869 -123.412681 L -27.353023 -121.332099 L -38.989383 -118.107978 L -50.258270 -113.770706 L -61.053478 -108.361152 L -71.273262 -101.930313 L -80.821311 -94.538795 L -89.607620 -86.256256 L -97.549392 -77.160758 L -104.571777 -67.338035 L -110.608573 -56.880653 L -115.602905 -45.887184 L -119.507698 -34.461235 L -122.286140 -22.710487 L -123.912055 -10.745697 L -124.370101 1.320367 L -123.655990 13.373989 L -121.776420 25.301561 L -118.749130 36.990669 L -114.602645 48.331146 L -109.376045 59.216110 L -103.118583 69.542961 L -95.889244 79.214385 L -87.756156 88.139228 L -78.795989 96.233360 Z "></path>
</g>
<g id="0xffb9e70e" class="materialsolid" stroke="none" fill-opacity="1.000000" fill="#b9e70e">
<path id="arc" class="mesh2" fill-rule="evenodd" d="M -97.576858 91.256034 L -105.910667 81.436111 L -113.260154 70.859336 L -119.557037 59.624011 L -124.742790 47.834560 L -128.769210 35.600543 L -131.598892 23.035669 L -133.205505 10.256703 L -133.574172 -2.617585 L -132.701416 -15.467547 L -130.595352 -28.173755 L -127.275596 -40.618125 L -122.772956 -52.685005 L -117.129302 -64.262237 L -110.397079 -75.242233 L -102.638847 -85.522949 L -93.926727 -95.008834 L -84.341667 -103.611740 L -73.972763 -111.251693 L -62.916370 -117.857704 L -51.275249 -123.368377 L -39.157588 -127.732505 L -26.676010 -130.909500 L -13.946509 -132.869873 L -1.087394 -133.595382 L 11.781826 -133.079284 L 24.541551 -131.326400 L 37.073188 -128.352981 L 49.260284 -124.186691 L 60.989562 -118.866233 L 72.152023 -112.441070 L 82.643920 -104.970909 L 92.367744 -96.525169 L 101.233123 -87.182357 L 109.157669 -77.029296 L 116.067733 -66.160331 L 121.899093 -54.676502 L 118.851623 -53.309589 L 113.166046 -64.506324 L 106.428733 -75.103561 L 98.702293 -85.002799 L 90.058555 -94.112045 L 80.577819 -102.346641 L 70.348220 -109.630050 L 59.464824 -115.894584 L 48.028778 -121.082023 L 36.146362 -125.144157 L 23.928012 -128.043228 L 11.487281 -129.752304 L -1.060209 -130.255493 L -13.597846 -129.548126 L -26.009109 -127.636772 L -38.178649 -124.539192 L -49.993370 -120.284179 L -61.343460 -114.911270 L -72.123443 -108.470405 L -82.233131 -101.021446 L -91.578552 -92.633621 L -100.072883 -83.384872 L -107.637153 -73.361183 L -114.201072 -62.655685 L -119.703636 -51.367877 L -124.093704 -39.602676 L -127.330474 -27.469413 L -129.383880 -15.080858 L -130.234817 -2.552145 L -129.875381 10.000285 L -128.308914 22.459775 L -125.549980 34.710533 L -121.624221 46.638694 L -116.568115 58.133415 L -110.428657 69.087860 L -103.262893 79.400207 L -95.137443 88.974639 Z "></path>
</g>
<g id="0xffeef904" class="materialsolid" stroke="none" fill-opacity="1.000000" fill="#eef904">
<path id="arc" class="mesh2" fill-rule="evenodd" d="M -113.711166 81.038513 L -120.938796 69.794548 L -127.058204 57.911010 L -132.013305 45.496807 L -135.758697 32.665687 L -138.260070 19.535238 L -139.494476 6.225777 L -139.450637 -7.140733 L -138.128936 -20.441810 L -135.541488 -33.555568 L -131.712005 -46.361839 L -126.675567 -58.743270 L -120.478340 -70.586410 L -113.177108 -81.782722 L -104.838775 -92.229621 L -95.539741 -101.831375 L -85.365234 -110.499992 L -74.408477 -118.156036 L -62.769878 -124.729354 L -50.556087 -130.159729 L -37.879024 -134.397354 L -24.854854 -137.403442 L -11.602928 -139.150436 L 1.755322 -139.622314 L 15.097488 -138.814758 L 28.301307 -136.735168 L 41.245788 -133.402603 L 53.812309 -128.847610 L 65.885726 -123.111915 L 77.355392 -116.248069 L 88.116210 -108.318992 L 98.069580 -99.397331 L 107.124282 -89.564834 L 115.197341 -78.911613 L 122.214797 -67.535285 L 128.112335 -55.540096 L 132.835906 -43.035957 L 129.515014 -41.960063 L 124.909530 -54.151592 L 119.159423 -65.846900 L 112.317413 -76.938827 L 104.446174 -87.325721 L 95.617843 -96.912399 L 85.913307 -105.611022 L 75.421508 -113.341873 L 64.238586 -120.034118 L 52.467006 -125.626419 L 40.214641 -130.067550 L 27.593776 -133.316787 L 14.720051 -135.344390 L 1.711439 -136.131759 L -11.312854 -135.671676 L -24.233484 -133.968368 L -36.932048 -131.037429 L -49.292186 -126.905738 L -61.200637 -121.611129 L -72.548263 -115.202148 L -83.231109 -107.737495 L -93.151252 -99.285598 L -102.217803 -89.923881 L -110.347679 -79.738159 L -117.466384 -68.821746 L -123.508674 -57.274688 L -128.419204 -45.202793 L -132.152954 -32.716678 L -134.675720 -19.930765 L -135.964370 -6.962215 L -136.007125 6.070132 L -134.803573 19.046857 L -132.364730 31.849044 L -128.712966 44.359382 L -123.881744 56.463233 L -117.915336 68.049682 L -110.868392 79.012557 Z "></path>
</g>
<g id="0xffffed00" class="materialsolid" stroke="none" fill-opacity="1.000000" fill="#ffed00">
<path id="arc" class="mesh2" fill-rule="evenodd" d="M -128.771286 68.094055 L -134.804992 55.194759 L -139.550292 41.767940 L -142.961868 27.941930 L -145.007095 13.848867 L -145.666412 -0.376556 L -144.933547 -14.598381 L -142.815490 -28.680683 L -139.332489 -42.488872 L -134.517822 -55.890975 L -128.417526 -68.758903 L -121.089866 -80.969680 L -112.604919 -92.406593 L -103.043754 -102.960342 L -92.497749 -112.530044 L -81.067710 -121.024261 L -68.862884 -128.361785 L -55.999893 -134.472518 L -42.601692 -139.298034 L -28.796329 -142.792221 L -14.715746 -144.921676 L -0.494520 -145.666061 L 13.731431 -145.018249 L 27.826148 -142.984451 L 41.654918 -139.584075 L 55.085571 -134.849639 L 67.989753 -128.826400 L 80.244125 -121.571899 L 91.731582 -113.155487 L 102.342308 -103.657600 L 111.974914 -93.169013 L 120.537315 -81.789978 L 127.947708 -69.629241 L 134.135238 -56.803024 L 139.040786 -43.433921 L 142.617462 -29.649698 L 139.052032 -28.908456 L 135.564773 -42.348072 L 130.781860 -55.382949 L 124.749015 -67.888511 L 117.523895 -79.745231 L 109.175544 -90.839797 L 99.783752 -101.066169 L 89.438293 -110.326606 L 78.238021 -118.532600 L 66.290008 -125.605735 L 53.708435 -131.478408 L 40.613548 -136.094482 L 27.130495 -139.409835 L 13.388146 -141.392807 L -0.482157 -142.024414 L -14.347853 -141.298645 L -28.076421 -139.222412 L -41.536651 -135.815582 L -54.599899 -131.110702 L -67.141311 -125.152748 L -79.041030 -117.998657 L -90.185310 -109.716796 L -100.467658 -100.386329 L -109.789794 -90.096435 L -118.062629 -78.945442 L -125.207084 -67.039939 L -131.154876 -54.493705 L -135.849182 -41.426654 L -139.245117 -27.963666 L -141.310211 -14.233422 L -142.024749 -0.367142 L -141.381912 13.502646 L -139.387817 27.243383 L -136.061538 40.723747 L -131.434860 53.814891 L -125.552009 66.391708 Z "></path>
</g>
<g id="0xffffd300" class="materialsolid" stroke="none" fill-opacity="1.000000" fill="#ffd300">
<path id="arc" class="mesh2" fill-rule="evenodd" d="M -142.311813 52.539196 L -146.735107 38.494483 L -149.775939 24.087091 L -151.405624 9.452759 L -151.608840 -5.270631 L -150.383651 -19.944366 L -147.741592 -34.430191 L -143.707595 -48.591629 L -138.319625 -62.295257 L -131.628479 -75.411964 L -123.697166 -87.818168 L -114.600433 -99.396987 L -104.423973 -110.039314 L -93.263679 -119.644912 L -81.224700 -128.123245 L -68.420433 -135.394470 L -54.971553 -141.390060 L -41.004745 -146.053512 L -26.651611 -149.340911 L -12.047373 -151.221298 L 2.670368 -151.676910 L 17.362953 -150.703506 L 31.891950 -148.310226 L 46.120471 -144.519622 L 59.914466 -139.367416 L 73.143974 -132.902145 L 85.684349 -125.184715 L 97.417427 -116.287849 L 108.232688 -106.295364 L 118.028221 -95.301406 L 126.711730 -83.409553 L 134.201431 -70.731857 L 140.426727 -57.387748 L 145.328979 -43.502956 L 148.861999 -29.208295 L 150.992492 -14.638445 L 147.217697 -14.272485 L 145.140457 -28.478090 L 141.695755 -42.415382 L 136.916061 -55.953056 L 130.846389 -68.963562 L 123.543952 -81.324325 L 115.077514 -92.918869 L 105.526870 -103.637977 L 94.981994 -113.380653 L 83.542236 -122.055099 L 71.315376 -129.579589 L 58.416606 -135.883224 L 44.967460 -140.906631 L 31.094650 -144.602462 L 16.928878 -146.935928 L 2.603609 -147.884994 L -11.746190 -147.440765 L -25.985321 -145.607406 L -39.979633 -142.402175 L -53.597267 -137.855300 L -66.709930 -132.009613 L -79.194076 -124.920181 L -90.932090 -116.653793 L -101.813385 -107.288337 L -111.735420 -96.912055 L -120.604743 -85.622711 L -128.337768 -73.526664 L -134.861633 -60.737876 L -140.114913 -47.376838 L -144.048065 -33.569438 L -146.624053 -19.445755 L -147.818618 -5.138865 L -147.620483 9.216441 L -146.031539 23.484914 L -143.066741 37.532123 L -138.754013 51.225715 Z "></path>
</g>
<g id="0xffffb900" class="materialsolid" stroke="none" fill-opacity="1.000000" fill="#ffb900">
<path id="arc" class="mesh2" fill-rule="evenodd" d="M -153.901031 34.561183 L -156.513122 19.586824 L -157.671722 4.430565 L -157.366073 -10.766839 L -155.598983 -25.864255 L -152.386886 -40.721473 L -147.759613 -55.200527 L -141.760131 -69.166938 L -134.444168 -82.491020 L -125.879653 -95.049026 L -116.146118 -106.724327 L -105.333961 -117.408515 L -93.543594 -127.002365 L -80.884506 -135.416763 L -67.474273 -142.573577 L -53.437419 -148.406356 L -38.904304 -152.860916 L -24.009893 -155.895889 L -8.892510 -157.483093 L 6.307455 -157.607803 L 21.448844 -156.268844 L 36.391044 -153.478637 L 50.995292 -149.263137 L 65.125953 -143.661453 L 78.651809 -136.725631 L 91.447242 -128.520050 L 103.393440 -119.120948 L 114.379425 -108.615600 L 124.303215 -97.101562 L 133.072616 -84.685775 L 140.606216 -71.483520 L 146.834045 -57.617416 L 151.698257 -43.216236 L 155.153686 -28.413717 L 157.168228 -13.347328 L 157.723205 1.843015 L 153.780120 1.796939 L 153.239028 -13.013645 L 151.274841 -27.703376 L 147.905792 -42.135833 L 143.163192 -56.176982 L 137.091064 -69.696434 L 129.745803 -82.568626 L 121.195632 -94.674026 L 111.519943 -105.900215 L 100.808593 -116.142929 L 89.161064 -125.307052 L 76.685516 -133.307479 L 63.497806 -140.069915 L 49.720409 -145.531570 L 35.481269 -149.641693 L 20.912624 -152.362121 L 6.149768 -153.667602 L -8.670198 -153.546020 L -23.409648 -151.998504 L -37.931697 -149.039398 L -52.101482 -144.696197 L -65.787414 -139.009246 L -78.862396 -132.031341 L -91.205009 -123.827301 L -102.700607 -114.473304 L -113.242462 -104.056228 L -122.732658 -92.672798 L -131.083068 -80.428741 L -138.216140 -67.437767 L -144.065643 -53.820510 L -148.577224 -39.703437 L -151.709014 -25.217647 L -153.431915 -10.497668 L -153.729934 4.319800 L -152.600296 19.097154 L -150.053512 33.697154 Z "></path>
</g>
<g id="0xffff9e00" class="materialsolid" stroke="none" fill-opacity="1.000000" fill="#ff9e00">
<path id="arc" class="mesh2" fill-rule="evenodd" d="M -163.131729 14.416473 L -163.762817 -1.238562 L -162.895004 -16.882261 L -160.536239 -32.371437 L -156.708114 -47.564323 L -151.445632 -62.321857 L -144.796997 -76.508972 L -136.823059 -89.995803 L -127.596794 -102.658920 L -117.202644 -114.382400 L -105.735763 -125.058967 L -93.301086 -134.590866 L -80.012435 -142.890884 L -65.991447 -149.883026 L -51.366439 -155.503326 L -36.271282 -159.700302 L -20.844141 -162.435577 L -5.226214 -163.684097 L 10.439547 -163.434432 L 26.009757 -161.688858 L 41.341903 -158.463378 L 56.295650 -153.787490 L 70.734130 -147.704010 L 84.525192 -140.268630 L 97.542602 -131.549377 L 109.667213 -121.626052 L 120.788055 -110.589508 L 130.803344 -98.540748 L 139.621398 -85.590072 L 147.161514 -71.855987 L 153.354675 -57.464214 L 158.144210 -42.546478 L 161.486267 -27.239320 L 163.350250 -11.682846 L 163.719116 3.980562 L 162.589477 19.607536 L 158.524749 19.117349 L 159.626144 3.881048 L 159.266510 -11.390773 L 157.449111 -26.558338 L 154.190612 -41.482818 L 149.520812 -56.027610 L 143.482482 -70.059593 L 136.130874 -83.450325 L 127.533256 -96.077239 L 117.768356 -107.824775 L 106.925537 -118.585403 L 95.104042 -128.260635 L 82.412063 -136.761901 L 68.965774 -144.011428 L 54.888259 -149.942810 L 40.308353 -154.501800 L 25.359514 -157.646636 L 10.178559 -159.348571 L -5.095559 -159.591979 L -20.323036 -158.374694 L -35.364501 -155.707809 L -50.082279 -151.615737 L -64.341659 -146.135955 L -78.012130 -139.318618 L -90.968559 -131.226089 L -103.092369 -121.932487 L -114.272583 -111.522850 L -124.406883 -100.092445 L -133.402481 -87.745910 L -141.177078 -74.596252 L -147.659500 -60.763813 L -152.790405 -46.375217 L -156.522842 -31.562152 L -158.822647 -16.460205 L -159.668746 -1.207598 L -159.053436 14.056061 Z "></path>
</g>
<g id="0xffff8400" class="materialsolid" stroke="none" fill-opacity="1.000000" fill="#ff8400">
<path id="arc" class="mesh2" fill-rule="evenodd" d="M -169.632095 -7.573019 L -168.081939 -24.101030 L -164.925262 -40.398689 L -160.192260 -56.310218 L -153.928131 -71.683532 L -146.192779 -86.371704 L -137.060119 -100.234344 L -126.617446 -113.138946 L -114.964576 -124.962173 L -102.212875 -135.591018 L -88.484237 -144.923904 L -73.909873 -152.871612 L -58.629085 -159.358184 L -42.787918 -164.321609 L -26.537790 -167.714477 L -10.034015 -169.504333 L 6.565663 -169.674072 L 23.102586 -168.222076 L 39.418701 -165.162231 L 55.358051 -160.523788 L 70.768295 -154.351043 L 85.502136 -146.703048 L 99.418754 -137.652862 L 112.385139 -127.287002 L 124.277351 -115.704536 L 134.981735 -103.016174 L 144.395965 -89.343193 L 152.430068 -74.816276 L 159.007247 -59.574268 L 164.064651 -43.762851 L 167.553939 -27.533159 L 169.441757 -11.040302 L 169.710067 5.558075 L 168.356292 22.103330 L 165.393386 38.437324 L 161.258560 37.476394 L 164.147384 21.550746 L 165.467315 5.419124 L 165.205718 -10.764295 L 163.365097 -26.844829 L 159.963043 -42.668785 L 155.032073 -58.084911 L 148.619308 -72.945869 L 140.786071 -87.109611 L 131.607192 -100.440773 L 121.170417 -112.811920 L 109.575508 -124.104827 L 96.933296 -134.211532 L 83.364585 -143.035476 L 68.999084 -150.492279 L 53.974102 -156.510696 L 38.433235 -161.033187 L 22.525024 -164.016540 L 6.401522 -165.432220 L -9.783164 -165.266723 L -25.874345 -163.521621 L -41.718223 -160.213577 L -57.163356 -155.374221 L -72.062126 -149.049819 L -86.272140 -141.300811 L -99.657554 -132.201248 L -112.090461 -121.838119 L -123.452003 -110.310470 L -133.633605 -97.728485 L -142.537963 -84.212417 L -150.079940 -69.891448 L -156.187454 -54.902462 L -160.802139 -39.388721 L -163.879898 -23.498506 L -165.391296 -7.383694 Z "></path>
</g>
<g id="0xffff6a00" class="materialsolid" stroke="none" fill-opacity="1.000000" fill="#ff6a00">
<path id="arc" class="mesh2" fill-rule="evenodd" d="M -173.075866 -31.025033 L -169.253479 -47.655654 L -163.837066 -63.837448 L -156.877609 -79.418014 L -148.440658 -94.250602 L -138.605651 -108.195541 L -127.465263 -121.121467 L -115.124389 -132.906661 L -101.699249 -143.440124 L -87.316291 -152.622634 L -72.110977 -160.367736 L -56.226520 -166.602462 L -39.812507 -171.268127 L -23.023536 -174.320739 L -6.017725 -175.731597 L 11.044759 -175.487380 L 28.003225 -173.590393 L 44.697952 -170.058517 L 60.971706 -164.925003 L 76.671226 -158.238204 L 91.648635 -150.061080 L 105.762893 -140.470687 L 118.881057 -129.557312 L 130.879592 -117.423751 L 141.645477 -104.184280 L 151.077331 -89.963577 L 159.086318 -74.895584 L 165.597000 -59.122222 L 170.548080 -42.792037 L 173.892898 -26.058832 L 175.599990 -9.080201 L 175.653244 7.983950 L 174.052169 24.972908 L 170.811859 41.726665 L 165.962814 58.087436 L 161.813751 56.635250 L 166.541564 40.683502 L 169.700866 24.348585 L 171.261917 7.784351 L 171.209991 -8.853196 L 169.545593 -25.407363 L 166.284378 -41.722240 L 161.457077 -57.644172 L 155.109161 -73.023200 L 147.300399 -87.714485 L 138.104339 -101.579666 L 127.607604 -114.488151 L 115.909034 -126.318389 L 103.118820 -136.958923 L 89.357421 -146.309570 L 74.754447 -154.282241 L 59.447414 -160.801879 L 43.580505 -165.807052 L 27.303144 -169.250640 L 10.768641 -171.100189 L -5.867282 -171.338302 L -22.447950 -169.962722 L -38.817195 -166.986419 L -54.820858 -162.437408 L -70.308212 -156.358551 L -85.133384 -148.807083 L -99.156776 -139.854110 L -112.246276 -129.583999 L -124.278640 -118.093437 L -135.140518 -105.490646 L -144.729644 -91.894348 L -152.955673 -77.432563 L -159.741134 -62.241516 L -165.022155 -46.464263 L -168.748962 -30.249406 Z "></path>
</g>
<g id="0xffff4f00" class="materialsolid" stroke="none" fill-opacity="1.000000" fill="#ff4f00">
<path id="arc" class="mesh2" fill-rule="evenodd" d="M -173.191818 -55.503246 L -167.047882 -71.909835 L -159.353836 -87.649147 L -150.181091 -102.575134 L -139.614761 -116.549285 L -127.752899 -129.441940 L -114.705566 -141.133453 L -100.593841 -151.515335 L -85.548667 -160.491256 L -69.709663 -167.977920 L -53.223793 -173.905853 L -36.244041 -178.220046 L -18.927967 -180.880477 L -1.436255 -181.862457 L 16.068784 -181.156875 L 33.424716 -178.770263 L 50.470489 -174.724777 L 67.047927 -169.057968 L 83.003204 -161.822387 L 98.188262 -153.085220 L 112.462196 -142.927505 L 125.692558 -131.443511 L 137.756561 -118.739822 L 148.542297 -104.934295 L 157.949630 -90.155044 L 165.891311 -74.539215 L 172.293609 -58.231708 L 177.097122 -41.383846 L 180.257308 -24.151971 L 181.744827 -6.695981 L 181.545852 10.822143 L 179.662261 28.239845 L 176.111511 45.395500 L 170.926574 62.129917 L 164.155532 78.287803 L 160.051635 76.330604 L 166.653411 60.576667 L 171.708740 44.260616 L 175.170715 27.533851 L 177.007217 10.551590 L 177.201202 -6.528582 L 175.750885 -23.548171 L 172.669708 -40.349250 L 167.986267 -56.775917 L 161.744018 -72.675735 L 154.000885 -87.901168 L 144.828735 -102.310935 L 134.312667 -115.771324 L 122.550247 -128.157424 L 109.650642 -139.354324 L 95.733558 -149.258087 L 80.928123 -157.776824 L 65.371734 -164.831512 L 49.208728 -170.356658 L 32.589099 -174.301010 L 15.667065 -176.627960 L -1.400348 -177.315902 L -18.454769 -176.358474 L -35.337944 -173.764556 L -51.893199 -169.558212 L -67.966918 -163.778472 L -83.409950 -156.478973 L -98.078994 -147.727462 L -111.837936 -137.605117 L -124.559074 -126.205894 L -136.124389 -113.635559 L -146.426574 -100.010757 L -155.369995 -85.457916 L -162.871688 -70.112091 L -168.862030 -54.115665 Z "></path>
</g>
<g id="0xffff3500" class="materialsolid" stroke="none" fill-opacity="1.000000" fill="#ff3500">
<path id="arc" class="mesh2" fill-rule="evenodd" d="M -169.772323 -80.525764 L -161.305908 -96.371376 L -151.364898 -111.335990 L -140.040176 -125.282829 L -127.435264 -138.084365 L -113.665382 -149.623596 L -98.856407 -159.795013 L -83.143730 -168.505661 L -66.670989 -175.675888 L -49.588764 -181.240142 L -32.053215 -185.147598 L -14.224650 -187.362472 L 3.733950 -187.864562 L 21.658418 -186.649276 L 39.384895 -183.727706 L 56.751323 -179.126556 L 73.598953 -172.887924 L 89.773780 -165.068786 L 105.127922 -155.740676 L 119.521026 -144.988845 L 132.821502 -132.911575 L 144.907806 -119.619262 L 155.669387 -105.233451 L 165.007919 -89.885635 L 172.837997 -73.716117 L 179.088058 -56.872718 L 183.700973 -39.509407 L 186.634552 -21.784917 L 187.861984 -3.861277 L 187.372085 14.097660 L 185.169281 31.927722 L 181.273727 49.465915 L 175.721038 66.551902 L 168.561965 83.029510 L 159.861984 98.748085 L 155.865432 96.279388 L 164.347930 80.953773 L 171.328018 64.888114 L 176.741882 48.229270 L 180.540054 31.129531 L 182.687774 13.745219 L 183.165451 -3.764745 L 181.968688 -21.240295 L 179.108444 -38.521675 L 174.610870 -55.450897 L 168.517044 -71.873214 L 160.882720 -87.638496 L 151.777664 -102.602622 L 141.285110 -116.628784 L 129.500976 -129.588775 L 116.533004 -141.364120 L 102.499732 -151.847167 L 87.529434 -160.942077 L 71.758987 -168.565719 L 55.332546 -174.648406 L 38.400272 -179.134521 L 21.116958 -181.983047 L 3.640601 -183.167953 L -13.869035 -182.678421 L -31.251886 -180.518905 L -48.349048 -176.709152 L -65.004219 -171.283996 L -81.065147 -164.293029 L -96.385002 -155.800140 L -110.823745 -145.883010 L -124.249389 -134.632263 L -136.539184 -122.150756 L -147.580795 -108.552589 L -157.273269 -93.962089 L -165.528015 -78.512619 Z "></path>
</g>
<g id="0xffff1a00" class="materialsolid" stroke="none" fill-opacity="1.000000" fill="#ff1a00">
<path id="arc" class="mesh2" fill-rule="evenodd" d="M -162.680465 -105.574302 L -151.593582 -120.955581 L -139.057693 -135.180709 L -125.192634 -148.113708 L -110.130920 -159.630981 L -94.016510 -169.622406 L -77.003456 -177.992507 L -59.254364 -184.661285 L -40.938884 -189.564956 L -22.232097 -192.656692 L -3.312804 -193.906906 L 15.638154 -193.303680 L 34.439636 -190.852752 L 52.911930 -186.577575 L 70.878456 -180.518997 L 88.167503 -172.734939 L 104.613807 -163.299789 L 120.060150 -152.303726 L 134.358901 -139.851882 L 147.373382 -126.063278 L 158.979217 -111.069694 L 169.065429 -95.014450 L 177.535644 -78.051010 L 184.308898 -60.341526 L 189.320419 -42.055267 L 192.522338 -23.367021 L 193.884033 -4.455424 L 193.392486 14.498760 L 191.052398 33.314357 L 186.886154 51.811523 L 180.933547 69.813446 L 173.251495 87.148056 L 163.913421 103.649665 L 153.008590 119.160552 L 149.183380 116.181541 L 159.815597 101.058433 L 168.920211 84.969360 L 176.410217 68.068107 L 182.214004 50.516235 L 186.276092 32.481502 L 188.557678 14.136291 L 189.036926 -4.344038 L 187.709274 -22.782846 L 184.587417 -41.003887 L 179.701171 -58.832984 L 173.097259 -76.099739 L 164.838790 -92.639091 L 155.004730 -108.292953 L 143.689056 -122.911705 L 130.999938 -136.355590 L 117.058654 -148.496139 L 101.998458 -159.217285 L 85.963317 -168.416564 L 69.106498 -176.006042 L 51.589130 -181.913146 L 33.578643 -186.081451 L 15.247200 -188.471099 L -3.229984 -189.059249 L -21.676296 -187.840270 L -39.915412 -184.825836 L -57.773002 -180.044754 L -75.078369 -173.542709 L -91.666099 -165.381851 L -107.377647 -155.640197 L -122.062812 -144.410873 L -135.581253 -131.801193 L -147.803741 -117.931686 L -158.613464 -102.934944 Z "></path>
</g>
<g id="0xffff0000" class="materialsolid" stroke="none" fill-opacity="1.000000" fill="#ff0000">
<path id="arc" class="mesh2" fill-rule="evenodd" d="M -151.856063 -130.104721 L -138.532287 -144.209243 L -123.904304 -156.956115 L -108.109840 -168.225326 L -91.297576 -177.910797 L -73.625785 -185.921340 L -55.260860 -192.181518 L -36.375679 -196.632431 L -17.148042 -199.232147 L 2.241034 -199.956192 L 21.609014 -198.797760 L 40.773555 -195.767761 L 59.554233 -190.894714 L 77.774246 -184.224502 L 95.262062 -175.819915 L 111.853027 -165.760070 L 127.390960 -154.139694 L 141.729568 -141.068176 L 154.733871 -126.668563 L 166.281448 -111.076446 L 176.263580 -94.438613 L 184.586273 -76.911682 L 191.171188 -58.660675 L 195.956344 -39.857402 L 198.896667 -20.678895 L 199.964477 -1.305710 L 199.149749 18.079767 L 196.460128 37.295036 L 191.920944 56.159191 L 185.574920 74.494636 L 177.481811 92.128753 L 167.717803 108.895530 L 156.374832 124.637115 L 143.559677 139.205307 L 139.970687 135.725189 L 152.465469 121.521194 L 163.524871 106.173149 L 173.044769 89.825538 L 180.935546 72.632278 L 187.122909 54.755214 L 191.548629 36.362659 L 194.171005 17.627775 L 194.965377 -1.273067 L 193.924255 -20.161924 L 191.057434 -38.860969 L 186.391921 -57.194156 L 179.971618 -74.988891 L 171.856994 -92.077644 L 162.124420 -108.299545 L 150.865539 -123.501861 L 138.186340 -137.541473 L 124.206184 -150.286209 L 109.056701 -161.616073 L 92.880500 -171.424423 L 75.829895 -179.618896 L 58.065383 -186.122360 L 39.754219 -190.873565 L 21.068790 -193.827819 L 2.185008 -194.957290 L -16.719341 -194.251342 L -35.466289 -191.716613 L -53.879341 -187.376998 L -71.785148 -181.273315 L -89.015136 -173.463027 L -105.407096 -164.019699 L -120.806709 -153.032211 L -135.068984 -140.604019 L -148.059661 -126.852104 Z "></path>
</g>
</g>

</g>
</svg>
