<svg xmlns="http://www.w3.org/2000/svg" xmlns:xlink="http://www.w3.org/1999/xlink" width="720" height="405" viewBox="0 0 720 405">
<rect id="background" x="0" y="0" width="720.0" height="405.0" stroke="none" fill="#202020"></rect>
<g transform="translate(360.000000, 202.500000) scale(1.000000, -1.000000) rotate(0.0) translate(0.0, 0.0)">
<g id="32d2fa64" transform="translate(0.0, 0.0) rotate(0.0) scale(1.000000, 1.000000)">
<g id="5c942cba" stroke="none" fill-opacity="1.000000" fill="#ff0000">
<path id="face.000" d="M 24.996093 0.0 L 24.877717 2.429776 L 24.523714 4.836539 L 23.937435 7.197492 L 23.124431 9.490275 L 22.092407 11.693170 L 20.851133 13.785314 L 19.412370 15.746891 L 17.789741 17.559322 L 15.998618 19.205438 L 14.055964 20.669652 L 11.980179 21.938095 L 9.790925 22.998750 L 7.508935 23.841571 L 5.155825 24.458581 L 2.753882 24.843929 L 0.325855 24.993968 L -2.105257 24.907279 L -4.516430 24.584682 L -4.403519 23.970064 L -2.052625 24.284599 L 0.317709 24.369121 L 2.685035 24.222831 L 5.026930 23.847116 L 7.321212 23.245534 L 9.546152 22.423782 L 11.680676 21.389642 L 13.704566 20.152912 L 15.598653 18.725305 L 17.344999 17.120340 L 18.927061 15.353220 L 20.329856 13.440682 L 21.540098 11.400841 L 22.546321 9.253018 L 23.338998 7.017555 L 23.910623 4.715625 L 24.255777 2.369031 L 24.371192 0.0 Z"></path>
</g>
<g id="53b4cd60" stroke="none" fill-opacity="1.000000" fill="#e5001a">
<path id="face.000" d="M 31.021539 -0.708665 L 30.950700 2.211843 L 30.605522 5.112747 L 29.989061 7.968332 L 29.106782 10.753288 L 27.966510 13.442929 L 26.578350 16.013414 L 24.954601 18.441961 L 23.109663 20.707042 L 21.059885 22.788579 L 18.823436 24.668123 L 16.420141 26.329015 L 13.871299 27.756534 L 11.199507 28.938020 L 8.428445 29.863012 L 5.582674 30.523300 L 2.687421 30.913038 L -0.231653 31.028766 L -3.148675 30.869466 L -6.037786 30.436544 L -8.873382 29.733839 L -8.651547 28.990493 L -5.886842 29.675632 L -3.069958 30.097730 L -0.225862 30.253049 L 2.620235 30.140213 L 5.443108 29.760217 L 8.217734 29.116436 L 10.919520 28.214572 L 13.524518 27.062620 L 16.009637 25.670791 L 18.352849 24.051422 L 20.533388 22.218866 L 22.531921 20.189367 L 24.330738 17.980913 L 25.913890 15.613080 L 27.267349 13.106856 L 28.379116 10.484456 L 29.239334 7.769124 L 29.840385 4.984929 L 30.176935 2.156547 L 30.246000 -0.690948 Z"></path>
</g>
<g id="6111aec7" stroke="none" fill-opacity="1.000000" fill="#ca0035">
<path id="face.000" d="M 37.024509 -1.692481 L 37.016368 1.862127 L 36.667739 5.399608 L 35.981838 8.887422 L 34.964969 12.293489 L 33.626487 15.586478 L 31.978704 18.736101 L 30.036775 21.713386 L 27.818565 24.490945 L 25.344472 27.043237 L 22.637260 29.346778 L 19.721824 31.380386 L 16.624986 33.125350 L 13.375228 34.565620 L 10.002444 35.687953 L 6.537654 36.482025 L 3.012730 36.940525 L -0.539904 37.059242 L -4.087573 36.837081 L -7.597644 36.276088 L -11.037831 35.381423 L -14.376490 34.161315 L -14.017078 33.307285 L -10.761885 34.496891 L -7.407703 35.369190 L -3.985384 35.916156 L -0.526407 36.132762 L 2.937412 36.017013 L 6.374213 35.569972 L 9.752383 34.795757 L 13.040848 33.701480 L 16.209362 32.297218 L 19.228780 30.595876 L 22.071329 28.613109 L 24.710861 26.367156 L 27.123100 23.878673 L 29.285856 21.170549 L 31.179237 18.267698 L 32.785823 15.196816 L 34.090843 11.986151 L 35.082290 8.665237 L 35.751045 5.264618 L 36.090957 1.815574 L 36.098899 -1.650169 Z"></path>
</g>
<g id="7926c8ff" stroke="none" fill-opacity="1.000000" fill="#b0004f">
<path id="face.000" d="M 42.995578 -2.950739 L 43.078563 1.250644 L 42.751979 5.440137 L 42.018928 9.577909 L 40.886383 13.624619 L 39.365112 17.541791 L 37.469581 21.292188 L 35.217803 24.840148 L 32.631198 28.151941 L 29.734348 31.196079 L 26.554798 33.943622 L 23.122783 36.368446 L 19.470926 38.447494 L 15.633948 40.161006 L 11.648331 41.492687 L 7.551969 42.429878 L 3.383806 42.963668 L -0.816528 43.088977 L -5.009099 42.804622 L -9.154047 42.113300 L -13.211962 41.021587 L -17.144264 39.539863 L -20.913568 37.682216 L -20.390729 36.740161 L -16.715658 38.551368 L -12.881663 39.996051 L -8.925195 41.060470 L -4.883872 41.734508 L -0.796114 42.011756 L 3.299211 41.889575 L 7.363170 41.369132 L 11.357123 40.455371 L 15.243100 39.156982 L 18.984151 37.486309 L 22.544713 35.459232 L 25.890930 33.095027 L 28.990989 30.416177 L 31.815418 27.448143 L 34.337360 24.219144 L 36.532844 20.759883 L 38.380985 17.103248 L 39.864227 13.284004 L 40.968456 9.338461 L 41.683177 5.304134 L 42.001602 1.219378 L 41.920692 -2.876970 Z"></path>
</g>
<g id="64410a31" stroke="none" fill-opacity="1.000000" fill="#95006a">
<path id="face.000" d="M 48.925354 -4.482362 L 49.129947 0.172964 L 48.892578 4.826734 L 48.215381 9.437084 L 47.104450 13.962538 L 45.569774 18.362390 L 43.625160 22.597057 L 41.288105 26.628444 L 38.579627 30.420289 L 35.524097 33.938476 L 32.148998 37.151359 L 28.484693 40.030040 L 24.564144 42.548614 L 20.422620 44.684429 L 16.097381 46.418273 L 11.627331 47.734546 L 7.052684 48.621410 L 2.414592 49.070880 L -2.245220 49.078922 L -6.884835 48.645462 L -11.462515 47.774391 L -15.937083 46.473552 L -20.268281 44.754646 L -24.417150 42.633140 L -28.346366 40.128108 L -27.637708 39.124904 L -23.806722 41.567310 L -19.761575 43.635784 L -15.538656 45.311714 L -11.175953 46.580032 L -6.712714 47.429325 L -2.189089 47.851951 L 2.354227 47.844112 L 6.876367 47.405876 L 11.336647 46.541183 L 15.694947 45.257820 L 19.912055 43.567317 L 23.950040 41.484901 L 27.772575 39.029289 L 31.345273 36.222576 L 34.635993 33.090015 L 37.615139 29.659784 L 40.255905 25.962734 L 42.534534 22.032131 L 44.430530 17.903331 L 45.926837 13.613475 L 47.010002 9.201156 L 47.670265 4.706066 L 47.901702 0.168639 L 47.702220 -4.370303 Z"></path>
</g>
<g id="4157c739" stroke="none" fill-opacity="1.000000" fill="#7d0380">
<path id="face.000" d="M 54.804466 -6.286084 L 55.154991 -0.985603 L 54.994064 4.324016 L 54.323184 9.593540 L 53.148567 14.774102 L 51.481105 19.817667 L 49.336265 24.677463 L 46.733932 29.308425 L 43.698238 33.667613 L 40.257331 37.714603 L 36.443122 41.411869 L 32.290981 44.725124 L 27.839405 47.623649 L 23.129674 50.080558 L 18.205467 52.073078 L 13.112439 53.582721 L 7.897820 54.595500 L 2.609966 55.102016 L -2.702089 55.097579 L -7.989089 54.582221 L -13.202006 53.560726 L -18.292503 52.042564 L -23.213373 50.041820 L -27.918989 47.577037 L -32.365711 44.671073 L -36.512310 41.350883 L -35.599502 40.317111 L -31.556570 43.554298 L -27.221014 46.387611 L -22.633039 48.790775 L -17.835189 50.741500 L -12.871956 52.221710 L -7.789361 53.217666 L -2.634536 53.720138 L 2.544717 53.724468 L 7.700375 53.230613 L 12.784628 52.243156 L 17.750329 50.771247 L 22.551435 48.828548 L 27.143421 46.433055 L 31.483707 43.606998 L 35.532047 40.376575 L 39.250900 36.771739 L 42.605785 32.825923 L 45.565586 28.575717 L 48.102859 24.060527 L 50.194080 19.322225 L 51.819854 14.404750 L 52.965103 9.353701 L 53.619216 4.215915 L 53.776115 -0.960963 L 53.434356 -6.128931 Z"></path>
</g>
<g id="726df539" stroke="none" fill-opacity="1.000000" fill="#6b1786">
<path id="face.000" d="M 60.623565 -8.360433 L 61.149913 -2.408694 L 61.093349 3.566005 L 60.454414 9.506712 L 59.239196 15.356798 L 57.459285 21.060493 L 55.131637 26.563432 L 52.278453 31.813154 L 48.926929 36.759616 L 45.109004 41.355667 L 40.861080 45.557498 L 36.223648 49.325054 L 31.240915 52.622421 L 25.960378 55.418163 L 20.432373 57.685630 L 14.709597 59.403209 L 8.846604 60.554531 L 2.899279 61.128616 L -3.075682 61.119995 L -9.021325 60.528751 L -14.880971 59.360511 L -20.598768 57.626419 L -26.120204 55.343009 L -31.392650 52.532039 L -36.365844 49.220310 L -40.992389 45.439384 L -45.228168 41.225315 L -44.097465 40.194683 L -39.967578 44.303401 L -35.456703 47.989799 L -30.607833 51.218742 L -25.467199 53.959434 L -20.083799 56.185760 L -14.508948 57.876499 L -8.795792 59.015533 L -2.998790 59.591999 L 2.826797 59.600402 L 8.625439 59.040672 L 14.341858 57.918128 L 19.921564 56.243488 L 25.311368 54.032711 L 30.459892 51.306861 L 35.318058 48.091926 L 39.839553 44.418563 L 43.981281 40.321781 L 47.703758 35.840629 L 50.971496 31.017826 L 53.753349 25.899347 L 56.022804 20.533981 L 57.758216 14.972878 L 58.943054 9.269044 L 59.566017 3.476855 L 59.621170 -2.348476 L 59.107978 -8.151423 Z"></path>
</g>
<g id="4ffe13a9" stroke="none" fill-opacity="1.000000" fill="#592b8c">
<path id="face.000" d="M 66.373405 -10.703320 L 67.091064 -4.333477 L 67.198822 2.075758 L 66.695686 8.466125 L 65.586250 14.779529 L 63.880580 20.958578 L 61.594192 26.947095 L 58.747867 32.690647 L 55.367485 38.137012 L 51.483772 43.236694 L 47.132034 47.943313 L 42.351833 52.214099 L 37.186626 56.010223 L 31.683364 59.297172 L 25.892078 62.045070 L 19.865415 64.228927 L 13.658160 65.828903 L 7.326744 66.830451 L 0.928722 67.224456 L -5.477742 67.007347 L -11.834409 66.181091 L -18.083496 64.753204 L -24.168188 62.736663 L -30.033176 60.149803 L -35.625141 57.016136 L -40.893245 53.364151 L -45.789600 49.227050 L -50.269699 44.642440 L -54.292808 39.652000 L -52.935489 38.660701 L -49.012958 43.526378 L -44.644863 47.996376 L -39.870918 52.030052 L -34.734512 55.590732 L -29.282346 58.646057 L -23.563983 61.168247 L -17.631408 63.134376 L -11.538550 64.526565 L -5.340798 65.332168 L 0.905504 65.543846 L 7.143576 65.159690 L 13.316706 64.183189 L 19.368780 62.623210 L 25.244777 60.493942 L 30.891281 57.814743 L 36.256961 54.609970 L 41.293041 50.908748 L 45.953735 46.744735 L 50.196678 42.155776 L 53.983299 37.183593 L 57.279174 31.873378 L 60.054336 26.273418 L 62.283565 20.434612 L 63.946594 14.410040 L 65.028297 8.254472 L 65.518852 2.023865 L 65.413787 -4.225140 L 64.714073 -10.435737 Z"></path>
</g>
<g id="4781ef75" stroke="none" fill-opacity="1.000000" fill="#483f91">
<path id="face.000" d="M 72.044746 -13.312694 L 72.992973 -6.300796 L 73.260368 0.769870 L 72.844444 7.833356 L 71.749076 14.823779 L 69.984481 21.675935 L 67.567131 28.325914 L 64.519554 34.711688 L 60.870185 40.773700 L 56.653064 46.455402 L 51.907527 51.703800 L 46.677829 56.469940 L 41.012756 60.709369 L 34.965145 64.382553 L 28.591403 67.455215 L 21.950983 69.898704 L 15.105818 71.690223 L 8.119757 72.813072 L 1.057961 73.256774 L -6.013702 73.017181 L -13.029274 72.096542 L -19.923320 70.503440 L -26.631532 68.252731 L -33.091346 65.365409 L -39.242511 61.868404 L -45.027645 57.794334 L -50.392795 53.181205 L -55.287918 48.072032 L -59.667350 42.514480 L -63.490253 36.560386 L -61.902996 35.646377 L -58.175670 41.451622 L -53.905719 46.870231 L -49.132976 51.851676 L -43.901954 56.349475 L -38.261447 60.321697 L -32.264064 63.731273 L -25.965745 66.546417 L -19.425235 68.740859 L -12.703543 70.294136 L -5.863360 71.191757 L 1.031512 71.425354 L 7.916763 70.992744 L 14.728173 69.897972 L 21.402208 68.151237 L 27.876619 65.768836 L 34.091018 62.772987 L 39.987438 59.191638 L 45.510883 55.058193 L 50.609836 50.411205 L 55.236740 45.294017 L 59.348430 39.754356 L 62.906562 33.843898 L 65.877952 27.617767 L 68.234870 21.134037 L 69.955352 14.453184 L 71.023330 7.637522 L 71.428863 0.750623 L 71.168151 -6.143276 L 70.243637 -12.979877 Z"></path>
</g>
<g id="33dd7111" stroke="none" fill-opacity="1.000000" fill="#365396">
<path id="face.000" d="M 77.628379 -16.186418 L 78.837654 -8.531683 L 79.293960 -0.795463 L 78.992942 6.948353 L 77.937484 14.625808 L 76.137641 22.163574 L 73.610633 29.489660 L 70.380577 36.534091 L 66.478324 43.229591 L 61.941143 49.512218 L 56.812377 55.321956 L 51.141002 60.603324 L 44.981185 65.305877 L 38.391765 69.384704 L 31.435668 72.800849 L 24.179336 75.521682 L 16.692068 77.521224 L 9.045378 78.780364 L 1.312296 79.287086 L -6.433318 79.036560 L -14.117489 78.031158 L -21.666826 76.280494 L -29.009227 73.801284 L -36.074565 70.617210 L -42.795360 66.758682 L -49.107425 62.262557 L -54.950469 57.171768 L -60.268692 51.534934 L -65.011299 45.405906 L -69.132987 38.843212 L -72.594398 31.909526 L -70.779541 31.111791 L -67.404663 37.872131 L -63.386016 44.270763 L -58.761974 50.246566 L -53.576709 55.742477 L -47.879737 60.705993 L -41.725479 65.089721 L -35.172702 68.851783 L -28.283998 71.956253 L -21.125156 74.373481 L -13.764553 76.080383 L -6.272485 77.060646 L 1.279489 77.304916 L 8.819244 76.810859 L 16.274766 75.583190 L 23.574853 73.633644 L 30.649778 70.980827 L 37.431972 67.650085 L 43.856662 63.673233 L 49.862480 59.088241 L 55.392070 53.938907 L 60.392616 48.274414 L 64.816368 42.148853 L 68.621055 35.620742 L 71.770370 28.752418 L 74.234207 21.609485 L 75.989044 14.260163 L 77.018127 6.774645 L 77.311614 -0.775577 L 76.866714 -8.318391 L 75.687667 -15.781758 Z"></path>
</g>
<g id="6144a391" stroke="none" fill-opacity="1.000000" fill="#276592">
<path id="face.000" d="M 83.115386 -19.320894 L 84.581886 -11.285756 L 85.273437 -3.147215 L 85.183700 5.020160 L 84.313491 13.141541 L 82.670783 21.142515 L 80.270629 28.949781 L 77.135025 36.491802 L 73.292701 43.699478 L 68.778854 50.506771 L 63.634841 56.851310 L 57.907791 62.674972 L 51.650184 67.924392 L 44.919345 72.551475 L 37.776950 76.513832 L 30.288433 79.775154 L 22.522411 82.305564 L 14.550033 84.081871 L 6.444344 85.087806 L -1.720387 85.314155 L -9.869357 84.758834 L -17.927902 83.426940 L -25.822187 81.330680 L -33.479885 78.489250 L -40.830837 74.928680 L -47.807685 70.681602 L -54.346511 65.786933 L -60.387409 60.289508 L -65.875030 54.239704 L -70.759078 47.692943 L -74.994827 40.709209 L -78.543457 33.352493 L -81.372467 25.690195 L -79.338157 25.047941 L -76.579879 32.518680 L -73.119964 39.691478 L -68.990104 46.500621 L -64.228149 52.883712 L -58.877727 58.782272 L -52.987854 64.142257 L -46.612495 68.914566 L -39.810066 73.055465 L -32.642890 76.527015 L -25.176633 79.297409 L -17.479703 81.341270 L -9.622623 82.639869 L -1.677377 83.181297 L 6.283236 82.960609 L 14.186282 81.979820 L 21.959350 80.247924 L 29.531225 77.780776 L 36.832527 74.600990 L 43.796363 70.737686 L 50.358928 66.226280 L 56.460098 61.108100 L 62.043968 55.430030 L 67.059387 49.244102 L 71.460388 42.606990 L 75.206657 35.579505 L 78.263870 28.226036 L 80.604011 20.613954 L 82.205650 12.813002 L 83.054107 4.894656 L 83.141601 -3.068534 L 82.467346 -11.003612 L 81.037498 -18.837873 Z"></path>
</g>
<g id="3f8d9d12" stroke="none" fill-opacity="1.000000" fill="#1e747d">
<path id="face.000" d="M 88.496482 -22.714349 L 90.277908 -14.052299 L 91.213569 -5.258596 L 91.294692 3.584369 L 90.520515 12.393756 L 88.898284 21.087030 L 86.443214 29.582752 L 83.178291 37.801322 L 79.134109 45.665752 L 74.348556 53.102355 L 68.866462 60.041473 L 62.739192 66.418083 L 56.024143 72.172454 L 48.784233 77.250679 L 41.087284 81.605163 L 33.005405 85.195137 L 24.614313 87.986953 L 15.992621 89.954460 L 7.221101 91.079216 L -1.618069 91.350700 L -10.442081 90.766357 L -19.168266 89.331665 L -27.714870 87.060066 L -36.001827 83.972831 L -43.951503 80.098899 L -51.489414 75.474555 L -58.544940 70.143127 L -65.051986 64.154556 L -70.949592 57.564949 L -76.182502 50.436042 L -80.701698 42.834625 L -84.464820 34.831909 L -87.436645 26.502866 L -89.589309 17.925531 L -87.349578 17.477392 L -85.250732 25.840293 L -82.353202 33.961112 L -78.684150 41.763759 L -74.277938 49.175144 L -69.175857 56.125827 L -63.425693 62.550693 L -57.081321 68.389549 L -50.202178 73.587692 L -42.852714 78.096427 L -35.101783 81.873512 L -27.022001 84.883567 L -18.689060 87.098373 L -10.181029 88.497200 L -1.577617 89.066932 L 7.040574 88.802238 L 15.592806 87.705596 L 23.998956 85.787277 L 32.180271 83.065261 L 40.060104 79.565040 L 47.564628 75.319412 L 54.623542 70.368148 L 61.170715 64.757629 L 67.144798 58.540435 L 72.489845 51.774799 L 77.155754 44.524108 L 81.098838 36.856288 L 84.282135 28.843181 L 86.675827 20.559856 L 88.257499 12.083911 L 89.012329 3.494760 L 88.933235 -5.127132 L 88.020965 -13.700991 L 86.284065 -22.146492 Z"></path>
</g>
<g id="622224f0" stroke="none" fill-opacity="1.000000" fill="#168368">
<path id="face.000" d="M 93.762985 -26.362579 L 95.889747 -17.077430 L 97.099342 -7.628939 L 97.380187 1.892521 L 96.729606 11.395881 L 95.153816 20.790239 L 92.667884 29.985742 L 89.295608 38.894435 L 85.069221 47.431106 L 80.029159 55.514102 L 74.223625 63.066120 L 67.708152 70.014915 L 60.545063 76.294021 L 52.802864 81.843383 L 44.555610 86.609924 L 35.882190 90.548057 L 26.865558 93.620101 L 17.591962 95.796691 L 8.150102 97.056983 L -1.369713 97.388946 L -10.876428 96.789390 L -20.279111 95.264053 L -29.487827 92.827529 L -38.414497 89.503120 L -46.973735 85.322624 L -55.083675 80.326034 L -62.666744 74.561126 L -69.650413 68.083045 L -75.967887 60.953769 L -81.558738 53.241477 L -86.369483 45.019931 L -90.354118 36.367778 L -93.474533 27.367767 L -95.700866 18.105989 L -97.011833 8.671030 L -94.586540 8.454256 L -93.308349 17.653341 L -91.137672 26.683574 L -88.095268 35.458583 L -84.210250 43.894432 L -79.519775 51.910438 L -74.068695 59.429927 L -67.909156 66.380981 L -61.100078 72.697097 L -53.706584 78.317886 L -45.799388 83.189559 L -37.454135 87.265541 L -28.750633 90.506843 L -19.772132 92.882453 L -10.604517 94.369659 L -1.335470 94.954216 L 7.946350 94.630561 L 17.152166 93.401771 L 26.193922 91.279602 L 34.985134 88.284355 L 43.441722 84.444686 L 51.482795 79.797302 L 59.031436 74.386672 L 66.015457 68.264541 L 72.368034 61.489471 L 78.028434 54.126258 L 82.942497 46.245330 L 87.063217 37.922077 L 90.351196 29.236099 L 92.774971 20.270484 L 94.311363 11.110984 L 94.945686 1.845208 L 94.671859 -7.438216 L 93.492507 -16.650495 L 91.418914 -25.703514 Z"></path>
</g>
<g id="579ac559" stroke="none" fill-opacity="1.000000" fill="#0d9253">
<path id="face.000" d="M 98.905975 -30.262350 L 101.352272 -20.637817 L 102.864295 -10.823042 L 103.428123 -0.908502 L 103.038551 9.014412 L 101.699165 18.854232 L 99.422317 28.520256 L 96.228988 37.923377 L 92.148635 46.976924 L 87.218849 55.597431 L 81.485076 63.705451 L 75.000175 71.226226 L 67.823921 78.090446 L 60.022472 84.234817 L 51.667736 89.602722 L 42.836719 94.144660 L 33.610839 97.818778 L 24.075134 100.591201 L 14.317502 102.436370 L 4.427894 103.337287 L -5.502531 103.285644 L -15.382233 102.281906 L -25.120143 100.335342 L -34.626499 97.463882 L -43.813663 93.694000 L -52.596954 89.060447 L -60.895404 83.605926 L -68.632522 77.380737 L -75.736991 70.442253 L -82.143302 62.854423 L -87.792434 54.687210 L -92.632286 46.015888 L -96.618255 36.920391 L -99.713592 27.484558 L -101.889778 17.795377 L -103.126739 7.942157 L -103.413078 -1.984273 L -100.827758 -1.934667 L -100.548576 7.743603 L -99.342536 17.350494 L -97.220756 26.797447 L -94.202796 35.997379 L -90.316474 44.865493 L -85.597625 53.320034 L -80.089729 61.283069 L -73.843566 68.681198 L -66.916709 75.446220 L -59.373023 81.515785 L -51.282032 86.833938 L -42.718322 91.351646 L -33.760833 95.027282 L -24.492141 97.826957 L -14.997678 99.724861 L -5.364967 100.703506 L 4.317197 100.753860 L 13.959566 99.875465 L 23.473257 98.076423 L 32.770568 95.373313 L 41.765804 91.791046 L 50.376045 87.362655 L 58.521915 82.128952 L 66.128326 76.138183 L 73.125175 69.445571 L 79.447952 62.112815 L 85.038375 54.207500 L 89.844917 45.802501 L 93.823272 36.975296 L 96.936759 27.807252 L 99.156684 18.382877 L 100.462585 8.789052 L 100.842422 -0.885789 L 100.292694 -10.552467 L 98.818466 -20.121871 L 96.433334 -29.505792 Z"></path>
</g>
<g id="709ae735" stroke="none" fill-opacity="1.000000" fill="#04a13e">
<path id="face.000" d="M 103.916748 -34.409866 L 106.760696 -24.184352 L 108.600990 -13.731482 L 109.420333 -3.149523 L 109.211021 7.462043 L 107.975013 18.003461 L 105.723945 28.375627 L 102.478965 38.481040 L 98.270584 48.224689 L 93.138374 57.514980 L 87.130561 66.264579 L 80.303642 74.391220 L 72.721794 81.818519 L 64.456291 88.476638 L 55.584831 94.303001 L 46.190822 99.242820 L 36.362575 103.249656 L 26.192489 106.285850 L 15.776165 108.322860 L 5.211531 109.341529 L -5.402096 109.332275 L -15.964939 108.295196 L -26.377696 106.240043 L -36.542476 103.186119 L -46.363723 99.162162 L -55.749107 94.205978 L -64.610397 88.364166 L -72.864288 81.691642 L -80.433181 74.251152 L -87.245925 66.112617 L -93.238471 57.352561 L -98.354484 48.053337 L -102.545883 38.302368 L -105.773239 28.191320 L -108.006225 17.815242 L -109.223861 7.271687 L -109.414680 -3.340228 L -108.576896 -13.920742 L -105.862472 -13.572725 L -106.679313 -3.256723 L -106.493263 7.089896 L -105.306076 17.369861 L -103.128913 27.486536 L -99.982231 37.344810 L -95.895629 46.852008 L -90.907508 55.918746 L -85.064773 64.459800 L -78.422348 72.394866 L -71.042678 79.649360 L -62.995136 86.155059 L -54.355381 91.850830 L -45.204631 96.683113 L -35.628917 100.606475 L -25.718254 103.584045 L -15.565815 105.587814 L -5.267044 106.598968 L 5.081243 106.607986 L 15.381761 105.614791 L 25.537677 103.628707 L 35.453514 100.668418 L 45.036052 96.761749 L 54.195209 91.945419 L 62.844879 86.264724 L 70.903747 79.773056 L 78.296051 72.531440 L 84.952301 64.607963 L 90.809913 56.077110 L 95.813819 47.019069 L 99.916992 37.519016 L 103.080848 27.666236 L 105.275642 17.553377 L 106.480751 7.275493 L 106.684829 -3.070785 L 105.885971 -13.388195 L 104.091682 -23.579744 L 101.318832 -33.549617 Z"></path>
</g>
<g id="10882123" stroke="none" fill-opacity="1.000000" fill="#1bb22e">
<path id="face.000" d="M 108.786376 -38.801876 L 112.057998 -27.983325 L 114.256546 -16.896806 L 115.360984 -5.648482 L 115.360710 5.653931 L 114.255752 16.902202 L 112.056671 27.988616 L 108.784545 38.807014 L 104.470695 49.253795 L 99.156417 59.228923 L 92.892631 68.636863 L 85.739311 77.387542 L 77.764938 85.397163 L 69.045890 92.589019 L 59.665653 98.894241 L 49.714069 104.252449 L 39.286415 108.612335 L 28.482555 111.932144 L 17.405946 114.180099 L 6.162657 115.334655 L -5.139645 115.384773 L -16.392730 114.329963 L -27.488838 112.180320 L -38.321712 108.956443 L -48.787620 104.689208 L -58.786331 99.419456 L -68.222106 93.197669 L -77.004585 86.083412 L -85.049674 78.144828 L -92.280319 69.457923 L -98.627296 60.105892 L -104.029808 50.178287 L -108.436134 39.770172 L -111.804069 28.981220 L -114.101379 17.914739 L -115.306037 6.676709 L -115.406532 -4.625256 L -114.401893 -15.882931 L -112.301742 -26.988512 L -109.494201 -26.313798 L -111.541854 -15.485859 L -112.521377 -4.509625 L -112.423393 6.509791 L -111.248847 17.466871 L -109.008972 28.256689 L -105.725227 38.775920 L -101.429061 48.923831 L -96.161613 58.603248 L -89.973320 67.721481 L -82.923439 76.191207 L -75.079475 83.931327 L -66.516563 90.867721 L -57.316677 96.933975 L -47.567928 102.071975 L -37.363670 106.232536 L -26.801616 109.375816 L -15.982912 111.471717 L -5.011154 112.500152 L 6.008590 112.451293 L 16.970796 111.325599 L 27.770490 109.133850 L 38.304256 105.897026 L 48.471218 101.646141 L 58.174015 96.421882 L 67.319740 90.274299 L 75.820816 83.262237 L 83.595825 75.452857 L 90.570320 66.920951 L 96.677513 57.748199 L 101.858924 48.022449 L 106.064933 37.836841 L 109.255264 27.288902 L 111.399360 16.479648 L 112.476699 5.512582 L 112.476959 -5.507270 L 111.400138 -16.474386 L 109.256553 -27.283742 L 106.066719 -37.831829 Z"></path>
</g>
<g id="56b13bc4" stroke="none" fill-opacity="1.000000" fill="#50c423">
<path id="face.000" d="M 113.507286 -43.431560 L 117.156738 -32.318759 L 119.721008 -20.906600 L 121.176315 -9.300786 L 121.509201 2.391177 L 120.716583 14.060993 L 118.805786 25.600564 L 115.794525 36.903007 L 111.710693 47.863624 L 106.592102 58.380889 L 100.486175 68.357383 L 93.449478 77.700714 L 85.547172 86.324310 L 76.852462 94.148300 L 67.445892 101.100227 L 57.414588 107.115684 L 46.851459 112.138954 L 35.854362 116.123512 L 24.525154 119.032432 L 12.968773 120.838798 L 1.292268 121.525863 L -10.396206 121.087257 L -21.988386 119.527046 L -33.376888 116.859695 L -44.456233 113.109886 L -55.123790 108.312385 L -65.280746 102.511596 L -74.833030 95.761276 L -83.692138 88.123947 L -91.776039 79.670341 L -99.009841 70.478767 L -105.326538 60.634365 L -110.667610 50.228321 L -114.983596 39.357028 L -118.234535 28.121179 L -120.390274 16.624849 L -121.430877 4.974527 L -121.346702 -6.721871 L -120.138511 -18.356008 L -117.817504 -29.820116 L -114.405189 -41.008010 L -111.545066 -39.982810 L -114.872070 -29.074613 L -117.135047 -17.897108 L -118.313034 -6.553824 L -118.395111 4.850164 L -117.380523 16.209228 L -115.278663 27.418149 L -112.109008 38.373104 L -107.900917 48.972614 L -102.693374 59.118507 L -96.534591 68.716804 L -89.481643 77.678581 L -81.599845 85.920845 L -72.962196 93.367248 L -63.648735 99.948814 L -53.745697 105.604576 L -43.344829 110.282150 L -32.542469 113.938201 L -21.438676 116.538879 L -10.136302 118.060073 L 1.259961 118.487716 L 12.644555 117.817832 L 23.912025 116.056625 L 34.958003 113.220420 L 45.680175 109.335487 L 55.979225 104.437789 L 65.759750 98.572731 L 74.931152 91.794593 L 83.408500 84.166206 L 91.113243 75.758193 L 97.974021 66.648452 L 103.927299 56.921367 L 108.917922 46.667034 L 112.899673 35.980434 L 115.835647 24.960552 L 117.698669 13.709468 L 118.471481 2.331398 L 118.146911 -9.068266 L 116.727981 -20.383935 L 114.227828 -31.510791 L 110.669609 -42.345771 Z"></path>
</g>
<g id="5a774db2" stroke="none" fill-opacity="1.000000" fill="#85d519">
<path id="face.000" d="M 118.070198 -48.296802 L 122.197433 -36.618862 L 125.172698 -24.595706 L 126.967956 -12.340686 L 127.566268 0.030670 L 126.961997 12.401737 L 125.160858 24.655891 L 122.179801 36.677612 L 118.046958 48.353569 L 112.801277 59.573696 L 106.492202 70.232215 L 99.179214 80.228652 L 90.931259 89.468757 L 81.826080 97.865440 L 71.949531 105.339530 L 61.394702 111.820587 L 50.261096 117.247497 L 38.653678 121.569099 L 26.681869 124.744659 L 14.458525 126.744247 L 2.098882 127.549003 L -10.280549 127.151344 L -22.563062 125.555007 L -34.632877 122.775062 L -46.376197 118.837707 L -57.682331 113.780059 L -68.444686 107.649795 L -78.561805 100.504707 L -87.938316 92.412147 L -96.485824 83.448417 L -104.123756 73.698005 L -110.780105 63.252841 L -116.392112 52.211383 L -120.906890 40.677726 L -124.281860 28.760595 L -126.485221 16.572336 L -127.496185 4.227849 L -127.305236 -8.156494 L -125.914176 -20.463947 L -123.336105 -32.578483 L -119.595336 -44.385902 L -114.727134 -55.774887 L -111.858955 -54.380516 L -116.605461 -43.276252 L -120.252708 -31.764020 L -122.766326 -19.952348 L -124.122619 -7.952582 L -124.308792 4.122152 L -123.323089 16.158029 L -121.174812 28.041582 L -117.884223 39.660781 L -113.482315 50.906097 L -108.010604 61.671520 L -101.520660 71.855560 L -94.073684 81.362205 L -85.739860 90.101844 L -76.597763 97.992088 L -66.733566 104.958549 L -56.240272 110.935554 L -45.216793 115.866767 L -33.767051 119.705688 L -21.998989 122.416137 L -10.023534 123.972564 L 2.046410 124.360282 L 14.097064 123.575637 L 26.014823 121.626045 L 37.687335 118.529876 L 49.004570 114.316314 L 59.859836 109.025077 L 70.150794 102.706054 L 79.780433 95.418815 L 88.657981 87.232040 L 96.699737 78.222938 L 103.829895 68.476409 L 109.981246 58.084354 L 115.095787 47.144733 L 119.125320 35.760673 L 122.031837 24.039495 L 123.787956 12.091694 L 124.377113 0.029903 L 123.793754 -12.032169 L 122.043380 -23.980813 L 119.142494 -35.703392 L 115.118446 -47.089385 Z"></path>
</g>
<g id="5ae1c208" stroke="none" fill-opacity="1.000000" fill="#b9e70e">
<path id="face.000" d="M 122.466773 -53.392860 L 127.100898 -41.161506 L 130.516769 -28.535615 L 132.681640 -15.636217 L 133.574752 -2.586943 L 133.187576 10.487125 L 131.523788 23.460674 L 128.599349 36.209354 L 124.442283 48.610969 L 119.092453 60.546649 L 112.601119 71.901992 L 105.030509 82.568161 L 96.453186 92.442909 L 86.951362 101.431602 L 76.616111 109.448074 L 65.546501 116.415489 L 53.848625 122.267066 L 41.634613 126.946708 L 29.021535 130.409576 L 16.130289 132.622482 L 3.084433 133.564193 L -9.990985 133.225708 L -22.970643 131.610244 L -35.730125 128.733322 L -48.147140 124.622474 L -60.102664 119.317131 L -71.482101 112.868141 L -82.176391 105.337310 L -92.083023 96.796829 L -101.107032 87.328544 L -109.161949 77.023223 L -116.170539 65.979644 L -122.065650 54.303646 L -126.790756 42.107147 L -130.300582 29.507055 L -132.561477 16.624139 L -133.551788 3.581881 L -133.261993 -9.494709 L -131.694885 -22.480293 L -128.865509 -35.250404 L -124.800933 -47.682640 L -119.540161 -59.657840 L -113.133598 -71.061225 L -110.305259 -69.284690 L -116.551658 -58.166397 L -121.680915 -46.490577 L -125.643867 -34.369144 L -128.402526 -21.918287 L -129.930450 -9.257341 L -130.212997 3.492334 L -129.247451 16.208536 L -127.043067 28.769378 L -123.620994 41.054470 L -119.014015 52.946056 L -113.266288 64.330154 L -106.432899 75.097648 L -98.579368 85.145332 L -89.780952 94.376907 L -80.121986 102.703880 L -69.695060 110.046440 L -58.600097 116.334205 L -46.943462 121.506912 L -34.836872 125.514984 L -22.396377 128.319992 L -9.741211 129.895065 L 3.007323 130.225097 L 15.727032 129.306915 L 28.296001 127.149345 L 40.593750 123.773048 L 52.502410 119.210388 L 63.907840 113.505104 L 74.700714 106.711875 L 84.777580 98.895812 L 94.041854 90.131835 L 102.404747 80.503952 L 109.786094 70.104446 L 116.115142 59.032985 L 121.331230 47.395698 L 125.384368 35.304119 L 128.235687 22.874158 L 129.857879 10.224946 L 130.235397 -2.522270 L 129.364608 -15.245311 L 127.253852 -27.822227 L 123.923377 -40.132469 L 119.405105 -52.058040 Z"></path>
</g>
<g id="eae96b9" stroke="none" fill-opacity="1.000000" fill="#eef904">
<path id="face.000" d="M 126.690147 -58.711818 L 131.756286 -46.235832 L 135.597167 -33.329879 L 138.177062 -20.113975 L 139.471984 -6.711023 L 139.469894 6.754338 L 138.170806 20.156888 L 135.586807 33.371990 L 131.741928 46.276752 L 126.671905 58.751163 L 120.423919 70.679222 L 113.056045 81.949996 L 104.636810 92.458686 L 95.244514 102.107559 L 84.966499 110.806884 L 73.898338 118.475769 L 62.142959 125.042884 L 49.809688 130.447174 L 37.013210 134.638381 L 23.872531 137.577514 L 10.509849 139.237258 L -2.950566 139.602172 L -16.383544 138.668853 L -29.664163 136.445983 L -42.668922 132.954254 L -55.276885 128.226119 L -67.370796 122.305541 L -78.838203 115.247596 L -89.572456 107.117912 L -99.473731 97.992080 L -108.449951 87.954986 L -116.417648 77.099952 L -123.302719 65.527931 L -129.041152 53.346530 L -133.579574 40.669040 L -136.875762 27.613348 L -138.899078 14.300868 L -139.630722 0.855397 L -139.063873 -12.598028 L -137.203811 -25.934297 L -134.067810 -39.029392 L -129.685058 -51.761535 L -124.096305 -64.012329 L -117.353530 -75.667831 L -109.519424 -86.619674 L -106.781440 -84.454185 L -114.419692 -73.776145 L -120.993904 -62.412017 L -126.442939 -50.467498 L -130.716125 -38.053657 L -133.773712 -25.285940 L -135.587280 -12.283077 L -136.139953 0.834012 L -135.426620 13.943346 L -133.453872 26.923015 L -130.240081 39.652313 L -125.815124 52.012866 L -120.220161 63.889732 L -113.507217 75.172447 L -105.738708 85.756111 L -96.986892 95.542289 L -87.333145 104.439964 L -76.867248 112.366409 L -65.686531 119.247917 L -53.894966 125.020469 L -41.602199 129.630401 L -28.922561 133.034835 L -15.973956 135.202133 L -2.876802 136.112121 L 10.247104 135.756332 L 23.275718 134.138092 L 36.087879 131.272430 L 48.564441 127.186004 L 60.589385 121.916816 L 72.050880 115.513877 L 82.842338 108.036720 L 92.863403 99.554870 L 102.020889 90.147224 L 110.229652 79.901245 L 117.413322 68.912239 L 123.505119 57.282382 L 128.448379 45.119834 L 132.197143 32.537693 L 134.716537 19.652965 L 135.983139 6.585479 L 135.985183 -6.543248 L 134.722640 -19.611127 L 132.207244 -32.496635 L 128.462387 -45.079936 L 123.522895 -57.244026 Z"></path>
</g>
<g id="5261c80d" stroke="none" fill-opacity="1.000000" fill="#ffed00">
<path id="face.000" d="M 130.731170 -64.251136 L 136.351638 -51.255031 L 140.683776 -37.774642 L 143.686645 -23.937335 L 145.331878 -9.873855 L 145.603927 4.282919 L 144.500228 18.399225 L 142.031188 32.341686 L 138.220169 45.978565 L 133.103179 59.181007 L 126.728530 71.824272 L 119.156471 83.788909 L 110.458557 94.961837 L 100.716964 105.237533 L 90.023750 114.518867 L 78.479927 122.718162 L 66.194580 129.757949 L 53.283782 135.571701 L 39.869533 140.104476 L 26.078569 143.313491 L 12.041203 145.168380 L -2.109936 145.651626 L -16.241140 144.758666 L -30.218887 142.497940 L -43.911109 138.890823 L -57.188434 133.971374 L -69.925407 127.786079 L -82.001678 120.393394 L -93.303161 111.863159 L -103.723045 102.275978 L -113.162910 91.722419 L -121.533531 80.302215 L -128.755828 68.123275 L -134.761581 55.300670 L -139.494003 41.955543 L -142.908416 28.213998 L -144.972549 14.205869 L -145.666885 0.063515 L -144.984878 -14.079439 L -142.932968 -28.089363 L -139.530548 -41.833881 L -134.809753 -55.183128 L -128.815185 -68.010971 L -121.603507 -80.196205 L -113.242851 -91.623703 L -103.812202 -102.185478 L -101.216903 -99.630851 L -110.411781 -89.333114 L -118.563430 -78.191307 L -125.594810 -66.310699 L -131.439514 -53.803550 L -136.042282 -40.788036 L -139.359649 -27.387128 L -141.360260 -13.727453 L -142.025207 0.061927 L -141.348236 13.850723 L -139.335708 27.508649 L -136.006668 40.906658 L -131.392532 53.918155 L -125.536941 66.420196 L -118.495193 78.294670 L -110.333839 89.429367 L -101.129974 99.719078 L -90.970581 109.066589 L -79.951637 117.383567 L -68.177276 124.591438 L -55.758724 130.622085 L -42.813335 135.418563 L -29.463417 138.935501 L -15.835112 141.139709 L -2.057188 142.010330 L 11.740174 141.539169 L 25.426607 139.730651 L 38.872795 136.601882 L 51.951690 132.182403 L 64.539710 126.513992 L 76.517921 119.650207 L 87.773155 111.655899 L 98.199050 102.606590 L 107.697097 92.587799 L 116.177566 81.694183 L 123.560310 70.028671 L 129.775604 57.701484 L 134.764678 44.829097 L 138.480422 31.533145 L 140.887725 17.939247 L 141.963836 4.175846 L 141.698577 -9.627009 L 140.094482 -23.338905 L 137.166671 -36.830276 L 132.942840 -49.973655 L 127.462890 -62.644855 Z"></path>
</g>
<g id="64781cd5" stroke="none" fill-opacity="1.000000" fill="#ffd300">
<path id="face.000" d="M 134.581863 -70.005279 L 140.784530 -56.504283 L 145.636734 -42.461284 L 149.091934 -28.010976 L 151.116973 -13.291978 L 151.692459 1.554522 L 150.812850 16.386112 L 148.486572 31.060520 L 144.735961 45.436985 L 139.596984 59.377593 L 133.118942 72.748634 L 125.363983 85.421844 L 116.406471 97.275650 L 106.332344 108.196357 L 95.238235 118.079200 L 83.230567 126.829376 L 70.424522 134.362960 L 56.942932 140.607681 L 42.915126 145.503646 L 28.475664 149.003875 L 13.763051 151.074798 L -1.081582 151.696578 L -15.915842 150.863204 L -30.597431 148.582687 L -44.985519 144.876922 L -58.942085 139.781433 L -72.333259 133.345108 L -85.030578 125.629692 L -96.912254 116.709182 L -107.864311 106.669151 L -117.781700 95.605918 L -126.569274 83.625579 L -134.142745 70.843078 L -140.429473 57.381031 L -145.369140 43.368560 L -148.914367 28.940076 L -151.031158 14.233991 L -151.699203 -0.608632 L -150.912078 -15.445418 L -148.677352 -30.134044 L -145.016464 -44.533615 L -139.964523 -58.506000 L -133.569976 -71.917175 L -125.894180 -84.638488 L -117.010749 -96.547927 L -107.004920 -107.531234 L -95.972648 -117.483055 L -93.573341 -114.545982 L -104.329803 -104.842948 L -114.085487 -94.134223 L -122.746833 -82.522529 L -130.230728 -70.119247 L -136.465408 -57.043350 L -141.391052 -43.420276 L -144.960433 -29.380695 L -147.139282 -15.059283 L -147.906723 -0.593416 L -147.255386 13.878141 L -145.191513 28.216575 L -141.734924 42.284347 L -136.918731 55.946506 L -130.789184 69.072006 L -123.405044 81.534950 L -114.837165 93.215766 L -105.167709 104.002426 L -94.489456 113.791458 L -82.904815 122.488952 L -70.524925 130.011489 L -57.468532 136.286895 L -43.860881 141.255004 L -29.832496 144.868118 L -15.517947 147.091613 L -1.054543 147.904159 L 13.418975 147.297943 L 27.763774 145.278793 L 41.842254 141.866058 L 55.519363 137.092498 L 68.663909 131.003890 L 81.149810 123.658645 L 92.857284 115.127220 L 103.674034 105.491447 L 113.496307 94.843757 L 122.229881 83.286300 L 129.790969 70.929924 L 136.107070 57.893157 L 141.117568 44.301055 L 144.774414 30.284006 L 147.042526 15.976458 L 147.900146 1.515659 L 147.339065 -12.959678 L 145.364639 -27.310703 L 141.995819 -41.399753 L 137.264923 -55.091678 L 131.217330 -68.255149 Z"></path>
</g>
<g id="1b38c403" stroke="none" fill-opacity="1.000000" fill="#ffb900">
<path id="face.000" d="M 138.235702 -75.966400 L 144.920043 -62.275043 L 150.252273 -48.002658 L 154.182632 -33.282398 L 156.674438 -18.251609 L 157.704467 -3.050531 L 157.263076 12.179007 L 155.354400 27.294916 L 151.996246 42.156158 L 147.219970 56.624080 L 141.070083 70.563690 L 133.604003 83.844932 L 124.891387 96.343887 L 115.013511 107.943939 L 104.062545 118.536865 L 92.140663 128.023834 L 79.359092 136.316314 L 65.837097 143.336944 L 51.700832 149.020233 L 37.082191 153.313125 L 22.117565 156.175598 L 6.946580 157.580917 L -8.289215 157.516006 L -23.447671 155.981445 L -38.387359 152.991546 L -52.968887 148.574234 L -67.056213 142.770690 L -80.517890 135.635070 L -93.228324 127.233970 L -105.068931 117.645759 L -115.929222 106.959899 L -125.707885 95.276084 L -134.313674 82.703323 L -141.666305 69.358940 L -147.697158 55.367435 L -152.349990 40.859336 L -155.581359 25.970012 L -157.361145 10.838388 L -157.672744 -4.394359 L -156.513214 -19.586107 L -153.893402 -34.595115 L -149.837753 -49.281349 L -144.384094 -63.507770 L -137.583297 -77.141662 L -129.498840 -90.055824 L -120.206153 -102.129737 L -109.791915 -113.250778 L -98.353309 -123.315155 L -85.997055 -132.229003 L -83.847137 -128.923278 L -95.894477 -120.232284 L -107.047126 -110.419509 L -117.201004 -99.576499 L -126.261383 -87.804420 L -134.143722 -75.213127 L -140.774490 -61.920082 L -146.091812 -48.049312 L -150.046081 -33.730239 L -152.600387 -19.096456 L -153.730926 -4.284500 L -153.427124 10.567429 L -151.691833 25.320762 L -148.541244 39.837852 L -144.004730 53.983249 L -138.124633 67.624977 L -130.955841 80.635749 L -122.565185 92.894180 L -113.030990 104.285903 L -102.442199 114.704612 L -90.897613 124.053123 L -78.504943 132.244201 L -65.379806 139.201416 L -51.644664 144.859863 L -37.427677 149.166763 L -22.861482 152.081909 L -8.081984 153.578109 L 6.772916 153.641403 L 21.564626 152.271209 L 36.155136 149.480300 L 50.408313 145.294723 L 64.191169 139.753524 L 77.375122 132.908401 L 89.837150 124.823234 L 101.460990 115.573448 L 112.138183 105.245353 L 121.769111 93.935295 L 130.263916 81.748809 L 137.543334 68.799598 L 143.539459 55.208480 L 148.196350 41.102256 L 151.470550 26.612543 L 153.331512 11.874532 L 153.761856 -2.974268 L 152.757583 -17.795320 L 150.328079 -32.450340 L 146.495971 -46.802589 L 141.297058 -60.718166 L 134.779815 -74.067237 Z"></path>
</g>
<g id="6b18e8c2" stroke="none" fill-opacity="1.000000" fill="#ff9e00">
<path id="face.000" d="M 141.684692 -82.129417 L 148.995513 -67.971542 L 154.895843 -53.170207 L 159.329833 -37.865531 L 162.255508 -22.202394 L 163.645156 -6.329077 L 163.485641 9.604155 L 161.778457 25.446470 L 158.539779 41.047893 L 153.800277 56.260726 L 147.604797 70.940963 L 140.011978 84.949630 L 131.093734 98.154098 L 120.934463 110.429382 L 109.630355 121.659278 L 97.288414 131.737457 L 84.025482 140.568542 L 69.967102 148.068908 L 55.246372 154.167556 L 40.002643 158.806747 L 24.380228 161.942581 L 8.527011 163.545364 L -7.406926 163.599914 L -23.270746 162.105728 L -38.914268 159.076934 L -54.189403 154.542236 L -68.951553 148.544540 L -83.060951 141.140609 L -96.384048 132.400573 L -108.794715 122.407127 L -120.175460 111.254898 L -130.418548 99.049468 L -139.427001 85.906372 L -147.115554 71.950035 L -153.411422 57.312561 L -158.255004 42.132541 L -161.600418 26.553659 L -163.416046 10.723406 L -163.684661 -5.208360 L -162.403732 -21.090822 L -159.585388 -36.773624 L -155.256301 -52.108303 L -149.457458 -66.949691 L -142.243774 -81.157295 L -133.683502 -94.596611 L -123.857688 -107.140411 L -112.859375 -118.669944 L -100.792655 -129.076080 L -87.771766 -138.260299 L -73.919975 -146.135665 L -72.071975 -142.482269 L -85.577476 -134.803802 L -98.272834 -125.849189 L -110.037887 -115.703201 L -120.761245 -104.461898 L -130.341415 -92.231689 L -138.687683 -79.128364 L -145.721023 -65.275955 L -151.374908 -50.805599 L -155.595764 -35.854282 L -158.343643 -20.563552 L -159.592544 -5.078151 L -159.330642 10.455322 L -157.560409 25.889818 L -154.298629 41.079227 L -149.576141 55.879749 L -143.437667 70.151283 L -135.941329 83.758712 L -127.158081 96.573234 L -117.171081 108.473533 L -106.074851 119.346954 L -93.974456 129.090545 L -80.984436 137.612091 L -67.227760 144.830917 L -52.834671 150.678680 L -37.941413 155.100021 L -22.688976 158.053085 L -7.221753 159.509918 L 8.313837 159.456741 L 23.770721 157.894012 L 39.002578 154.836578 L 53.865211 150.313354 L 68.217926 144.367187 L 81.924842 137.054321 L 94.856201 128.444030 L 106.889595 118.617797 L 117.911102 107.668655 L 127.816398 95.700248 L 136.511688 82.825881 L 143.914672 69.167442 L 149.955276 54.854213 L 154.576293 40.021694 L 157.734008 24.810308 L 159.398513 9.364051 L 159.554031 -6.170850 L 158.199111 -21.647335 L 155.346588 -36.918891 L 151.023452 -51.840950 L 145.270629 -66.272254 L 138.142593 -80.076179 Z"></path>
</g>
<g id="5b9f738e" stroke="none" fill-opacity="1.000000" fill="#ff8400">
<path id="face.000" d="M 144.921600 -88.488021 L 152.885055 -73.882049 L 159.381042 -58.566905 L 164.347183 -42.689601 L 167.735824 -26.402542 L 169.514419 -9.862052 L 169.665924 6.773099 L 168.188858 23.343240 L 165.097412 39.689315 L 160.421264 55.654430 L 154.205291 71.085342 L 146.509170 85.833930 L 137.406753 99.758621 L 126.985412 112.725784 L 115.345199 124.610923 L 102.597839 135.299972 L 88.865669 144.690338 L 74.280509 152.691864 L 58.982360 159.227752 L 43.118068 164.235290 L 26.839899 167.666397 L 10.304101 169.488128 L -6.330598 169.682998 L -22.904533 168.249160 L -39.258617 165.200363 L -55.235874 160.565872 L -70.682945 154.390151 L -85.451553 146.732513 L -99.399932 137.666442 L -112.394233 127.278976 L -124.309684 115.669792 L -135.031936 102.950340 L -144.458084 89.242698 L -152.497619 74.678466 L -159.073394 59.397418 L -164.122283 43.546234 L -167.595825 27.277069 L -169.460678 10.746081 L -169.698928 -5.888053 L -168.308319 -22.465671 L -165.302185 -38.827651 L -160.709365 -54.816940 L -154.573974 -70.280059 L -146.954879 -85.068588 L -137.925216 -99.040573 L -127.571647 -112.061912 L -115.993591 -124.007606 L -103.302139 -134.763000 L -89.619140 -144.224853 L -75.075920 -152.302352 L -59.812068 -158.917953 L -58.316768 -154.945007 L -73.199020 -148.494796 L -87.378669 -140.619232 L -100.719596 -131.393936 L -113.093750 -120.907424 L -124.382362 -109.260368 L -134.477081 -96.564567 L -143.281005 -82.941871 L -150.709625 -68.523056 L -156.691635 -53.446514 L -161.169631 -37.856964 L -164.100616 -21.904031 L -165.456466 -5.740852 L -165.224151 10.477430 L -163.405929 26.595144 L -160.019226 42.457580 L -155.096572 57.912483 L -148.685195 72.811508 L -140.846633 87.011642 L -131.656158 100.376586 L -121.201950 112.778045 L -109.584373 124.096992 L -96.914947 134.224792 L -83.315261 143.064208 L -68.915870 150.530410 L -53.854976 156.551727 L -38.277153 161.070358 L -22.331922 164.042938 L -6.172333 165.440933 L 10.046500 165.250930 L 26.168901 163.474731 L 42.040115 160.129409 L 57.507804 155.247070 L 72.423500 148.874572 L 86.644020 141.073074 L 100.032890 131.917480 L 112.461578 121.495651 L 123.810783 109.907638 L 133.971588 97.264663 L 142.846450 83.688079 L 150.350158 69.308204 L 156.410736 54.263072 L 160.969985 38.697086 L 163.984146 22.759660 L 165.424270 6.603772 L 165.276565 -9.615501 L 163.542419 -25.742481 L 160.238510 -41.622367 L 155.396514 -57.102737 L 149.062942 -72.034996 L 141.298553 -86.275817 Z"></path>
</g>
<g id="2e4cd534" stroke="none" fill-opacity="1.000000" fill="#ff6a00">
<path id="face.000" d="M 147.939270 -95.035659 L 156.428939 -80.298133 L 163.455047 -64.809326 L 168.951873 -48.714153 L 172.867965 -32.163211 L 175.166687 -15.311347 L 175.826538 1.683772 L 174.841323 18.663137 L 172.220306 35.467887 L 167.987960 51.940799 L 162.183929 67.927749 L 154.862472 83.279159 L 146.092117 97.851409 L 135.954910 111.508140 L 124.545700 124.121612 L 111.971229 135.573776 L 98.349143 145.757507 L 83.806900 154.577514 L 68.480552 161.951278 L 52.513492 167.809829 L 36.055110 172.098327 L 19.259399 174.776657 L 2.283492 175.819763 L -14.713777 175.217880 L -31.573385 172.976669 L -48.137588 169.117050 L -64.251419 163.675170 L -79.764099 156.701919 L -94.530509 148.262557 L -108.412467 138.436050 L -121.280136 127.314315 L -133.013076 115.001419 L -143.501541 101.612556 L -152.647399 87.273002 L -160.365066 72.116920 L -166.582351 56.286094 L -171.241073 39.928661 L -174.297668 23.197647 L -175.723495 6.249595 L -175.505249 -10.756927 L -173.644958 -27.662807 L -170.160049 -44.309871 L -165.083084 -60.542373 L -158.461608 -76.208435 L -150.357543 -91.161483 L -140.846710 -105.261611 L -130.018127 -118.376914 L -117.973068 -130.384674 L -104.824249 -141.172531 L -90.694679 -150.639556 L -75.716567 -158.697219 L -60.030052 -165.270080 L -43.781879 -170.296661 L -42.687335 -166.039245 L -58.529296 -161.138320 L -73.823661 -154.729782 L -88.427314 -146.873580 L -102.203643 -137.643218 L -115.023742 -127.125045 L -126.767669 -115.417488 L -137.325546 -102.630073 L -146.598602 -88.882438 L -154.500061 -74.303222 L -160.956008 -59.028816 L -165.906051 -43.202129 L -169.303848 -26.971240 L -171.117614 -10.488004 L -171.330413 6.093356 L -169.940231 22.617708 L -166.960052 38.930446 L -162.417785 54.878944 L -156.355941 70.313995 L -148.831222 85.091186 L -139.914016 99.072250 L -129.687759 112.126388 L -118.248130 124.131462 L -105.702163 134.975158 L -92.167243 144.555999 L -77.769996 152.784378 L -62.645133 159.583297 L -46.934154 164.889129 L -30.784051 168.652252 L -14.345933 170.837448 L 2.226405 171.424285 L 18.777914 170.407241 L 35.153736 167.795867 L 51.200656 163.614593 L 66.768539 157.902511 L 81.711730 150.713088 L 95.890426 142.113571 L 109.171951 132.184432 L 121.432060 121.018569 L 132.556045 108.720443 L 142.439819 95.405120 L 150.990905 81.197181 L 158.129333 66.229560 L 163.788269 50.642284 L 167.914810 34.581192 L 170.470306 18.196559 L 171.430877 1.641678 L 170.787521 -14.928564 L 168.546264 -31.359132 L 164.728088 -47.496303 L 159.368682 -63.189094 L 152.518218 -78.290687 L 144.240798 -92.659782 Z"></path>
</g>
<g id="5d5a4e22" stroke="none" fill-opacity="1.000000" fill="#ff4f00">
<path id="face.000" d="M 150.730819 -101.765602 L 159.913909 -86.623100 L 167.580688 -70.659233 L 173.658508 -54.025386 L 178.089691 -36.879272 L 180.832229 -19.383472 L 181.860153 -1.703879 L 181.163665 15.991869 L 178.749420 33.535984 L 174.640274 50.762111 L 168.875213 67.506919 L 161.508865 83.611633 L 152.611114 98.923545 L 142.266311 113.297470 L 130.572555 126.597106 L 117.640708 138.696365 L 103.593399 149.480514 L 88.563835 158.847305 L 72.694503 166.707901 L 56.135894 172.987792 L 39.045005 177.627426 L 21.583898 180.582809 L 3.918131 181.825927 L -13.784786 181.344970 L -31.356998 179.144515 L -48.631885 175.245422 L -65.445648 169.684661 L -81.638854 162.514968 L -97.057968 153.804306 L -111.556793 143.635299 L -124.997840 132.104339 L -137.253662 119.320785 L -148.208053 105.405830 L -157.757156 90.491432 L -165.810409 74.718994 L -172.291442 58.238079 L -177.138839 41.204952 L -180.306610 23.781122 L -181.764739 6.131802 L -181.499374 -11.575659 L -179.513046 -29.173362 L -175.824584 -46.494445 L -170.468978 -63.374668 L -163.496978 -79.653984 L -154.974716 -95.178024 L -144.983001 -109.799575 L -133.616561 -123.380035 L -120.983177 -135.790603 L -107.202636 -146.913619 L -92.405624 -156.643600 L -76.732406 -164.888320 L -60.331626 -171.569549 L -43.358787 -176.623992 L -25.974821 -180.003692 L -25.325450 -175.503601 L -42.274818 -172.208389 L -58.823341 -167.280319 L -74.814102 -160.766113 L -90.095481 -152.727523 L -104.522575 -143.240783 L -117.958602 -132.395843 L -130.276153 -120.295532 L -141.358428 -107.054595 L -151.100357 -92.798568 L -159.409561 -77.662635 L -166.207260 -61.790302 L -171.428970 -45.332084 L -175.025222 -28.444028 L -176.961883 -11.286268 L -177.220626 5.978507 L -175.798950 23.186595 L -172.710372 40.174831 L -167.984161 56.782127 L -161.665145 72.851020 L -153.813217 88.229148 L -144.502853 102.770690 L -133.822326 116.337768 L -121.872901 128.801742 L -108.767875 140.044418 L -94.631523 149.959213 L -79.597885 158.452102 L -63.809505 165.442550 L -47.416088 170.864288 L -30.573074 174.665908 L -13.440167 176.811355 L 3.820178 177.280273 L 21.044301 176.068252 L 38.068881 173.186752 L 54.732498 168.663101 L 70.877143 162.540206 L 86.349739 154.876129 L 101.003570 145.743515 L 114.699691 135.228958 L 127.308235 123.432182 L 138.709655 110.465034 L 148.795837 96.450454 L 157.471145 81.521347 L 164.653320 65.819252 L 170.274276 49.493061 L 174.280685 32.697586 L 176.634582 15.592072 L 177.313644 -1.661283 L 176.311431 -18.898885 L 173.637451 -35.957294 L 169.317047 -52.674755 L 163.391189 -68.892753 L 155.916061 -84.457519 L 146.962554 -99.221466 Z"></path>
</g>
<g id="64a25fbb" stroke="none" fill-opacity="1.000000" fill="#ff3500">
<path id="face.000" d="M 153.289535 -108.670860 L 163.190368 -93.144752 L 171.523910 -76.724082 L 178.210159 -59.566566 L 183.184890 -41.836975 L 186.400344 -23.705581 L 187.825592 -5.346522 L 187.446990 13.063883 L 185.268157 31.348827 L 181.310028 49.332698 L 175.610595 66.842773 L 168.224624 83.710906 L 159.223022 99.775085 L 148.692260 114.881019 L 136.733474 128.883651 L 123.461502 141.648498 L 109.003807 153.052947 L 93.499259 162.987503 L 77.096748 171.356735 L 59.953800 178.080261 L 42.235065 183.093521 L 24.110704 186.348358 L 5.754785 187.813522 L -12.656401 187.474929 L -30.946037 185.335861 L -48.938465 181.416824 L -66.460899 175.755477 L -83.345039 168.406173 L -99.428741 159.439529 L -114.557540 148.941619 L -128.586135 137.013290 L -141.379791 123.769104 L -152.815643 109.336242 L -162.783889 93.853324 L -171.188735 77.469039 L -177.949523 60.340751 L -183.001281 42.632949 L -186.295516 24.515708 L -187.800567 6.163021 L -187.502014 -12.248858 L -185.402694 -30.543098 L -181.522781 -48.544006 L -175.899520 -66.078704 L -168.586959 -82.978775 L -159.655273 -99.081939 L -149.190292 -114.233520 L -137.292480 -128.288009 L -124.076133 -141.110427 L -109.668159 -152.577636 L -94.206939 -162.579483 L -77.840972 -171.019943 L -60.727416 -177.817947 L -43.030639 -182.908172 L -24.920602 -186.241775 L -6.571227 -187.786727 L -6.406946 -183.092071 L -24.297586 -181.585739 L -41.954875 -178.335479 L -59.209232 -173.372497 L -75.894943 -166.744461 L -91.851776 -158.515014 L -106.926460 -148.763183 L -120.974235 -137.582656 L -133.860183 -125.080802 L -145.460525 -111.377677 L -155.663894 -96.604888 L -164.372283 -80.904312 L -171.502044 -64.426734 L -176.984710 -47.330406 L -180.767623 -29.779521 L -182.814453 -11.942637 L -183.105560 6.008945 L -181.638137 23.902818 L -178.426254 41.567131 L -173.500778 58.832233 L -166.909042 75.532318 L -158.714294 91.506988 L -148.995269 106.602836 L -137.845306 120.674888 L -125.371482 133.587966 L -111.693603 145.218093 L -96.943023 155.453536 L -81.261413 164.196044 L -64.799377 171.361602 L -47.715007 176.881408 L -30.172386 180.702468 L -12.339991 182.788070 L 5.610916 183.118194 L 23.507936 181.689666 L 41.179187 178.516189 L 58.454956 173.628265 L 75.169326 167.072814 L 91.161781 158.912811 L 106.278717 149.226638 L 120.374969 138.107284 L 133.315139 125.661567 L 144.974960 112.009002 L 155.242446 97.280708 L 164.019012 81.618133 L 171.220336 65.171707 L 176.777282 48.099380 L 180.636459 30.565105 L 182.760818 12.737287 L 183.129959 -5.212859 L 181.740325 -23.112941 L 178.605285 -40.791049 L 173.754913 -58.077404 L 167.235824 -74.805992 L 159.110610 -90.816139 L 149.457290 -105.954086 Z"></path>
</g>
<g id="5cc00c7e" stroke="none" fill-opacity="1.000000" fill="#ff1a00">
<path id="face.000" d="M 155.608901 -115.744262 L 166.074981 -100.149711 L 174.983551 -83.615936 L 182.251052 -66.297973 L 187.809326 -48.358245 L 191.606277 -29.964994 L 193.606262 -11.290720 L 193.790542 7.489440 L 192.157379 26.199361 L 188.722106 44.663578 L 183.516906 62.708923 L 176.590637 80.166160 L 168.008239 96.871566 L 157.850173 112.668479 L 146.211746 127.408752 L 133.202102 140.954132 L 118.943229 153.177581 L 103.568862 163.964492 L 87.223197 173.213684 L 70.059516 180.838409 L 52.238788 186.767166 L 33.928146 190.944351 L 15.299318 193.330795 L -3.472994 193.904113 L -22.212736 192.658920 L -40.744159 189.606903 L -58.893466 184.776687 L -76.490447 178.213577 L -93.370079 169.979095 L -109.374053 160.150497 L -124.352272 148.819961 L -138.164260 136.093719 L -150.680511 122.091148 L -161.783630 106.943550 L -171.369461 90.793014 L -179.348144 73.790985 L -185.644821 56.096908 L -190.200469 37.876739 L -192.972351 19.301349 L -193.934448 0.544943 L -193.077774 -18.216573 L -190.410324 -36.807247 L -185.957153 -55.052730 L -179.760009 -72.781913 L -171.876998 -89.828514 L -162.382080 -106.032669 L -151.364273 -121.242416 L -138.926910 -135.315109 L -125.186645 -148.118759 L -110.272346 -159.533309 L -94.323860 -169.451690 L -77.490768 -177.780899 L -59.930946 -184.442810 L -41.809074 -189.374938 L -23.295095 -192.531051 L -4.562646 -193.881530 L 14.212591 -193.413711 L 13.857276 -188.578384 L -4.448580 -189.034500 L -22.712717 -187.717788 L -40.763847 -184.640563 L -58.432678 -179.831741 L -75.553504 -173.336364 L -91.965766 -165.215408 L -107.515533 -155.544982 L -122.056983 -144.415802 L -135.453735 -131.932235 L -147.580169 -118.211357 L -158.322525 -103.381858 L -167.580078 -87.582801 L -175.266006 -70.962364 L -181.308227 -53.676414 L -185.650070 -35.887069 L -188.250823 -17.761159 L -189.086090 0.531319 L -188.148040 18.818817 L -185.445465 36.929821 L -181.003707 54.694488 L -174.864440 71.946212 L -167.085235 88.523193 L -157.739028 104.269966 L -146.913497 119.038864 L -134.710174 132.691375 L -121.243469 145.099456 L -106.639701 156.146743 L -91.035835 165.729629 L -74.578193 173.758239 L -57.421134 180.157272 L -39.725555 184.866744 L -21.657417 187.842453 L -3.386169 189.056518 L 14.916836 188.497528 L 33.079944 186.170745 L 50.932819 182.097991 L 68.308029 176.317459 L 85.042617 168.883346 L 100.979644 159.865386 L 115.969650 149.348159 L 129.872039 137.430282 L 142.556457 124.223526 L 153.903930 109.851768 L 163.808029 94.449783 L 172.175872 78.162010 L 178.928985 61.141204 L 184.004043 43.546993 L 187.353454 25.544378 L 188.945785 7.302204 L 188.766113 -11.008453 L 186.816116 -29.215869 L 183.114105 -47.149288 L 177.694778 -64.640525 L 170.608963 -81.525543 L 161.923110 -97.645973 L 151.718688 -112.850654 Z"></path>
</g>
<g id="786710fa" stroke="none" fill-opacity="1.000000" fill="#ff0000">
<path id="face.000" d="M 157.682647 -122.978401 L 168.903152 -107.047760 L 178.519943 -90.100685 L 186.441635 -72.298103 L 192.593063 -53.809043 L 196.915802 -34.809055 L 199.368789 -15.478553 L 199.928756 3.998917 L 198.590377 23.438419 L 195.366363 42.655368 L 190.287338 61.467304 L 183.401504 79.695594 L 174.774246 97.167175 L 164.487503 113.716140 L 152.638931 129.185363 L 139.341033 143.427947 L 124.720069 156.308670 L 108.914894 167.705245 L 92.075546 177.509414 L 74.361938 185.628128 L 55.942256 191.984283 L 36.991390 196.517532 L 17.689292 199.184814 L -1.780767 199.960830 L -21.233921 198.838180 L -40.485454 195.827560 L -59.352577 190.957519 L -77.656135 184.274322 L -95.222343 175.841430 L -111.884407 165.738891 L -127.484115 154.062652 L -141.873352 140.923583 L -154.915481 126.446403 L -166.486679 110.768623 L -176.477050 94.039077 L -184.791778 76.416618 L -191.351867 58.068584 L -196.095062 39.169178 L -198.976318 19.897853 L -199.968276 0.437600 L -199.061508 -19.026809 L -196.264633 -38.310558 L -191.604187 -57.230541 L -185.124465 -75.607116 L -176.886947 -93.265792 L -166.969879 -110.038902 L -155.467407 -125.767189 L -142.488769 -140.301284 L -128.157180 -153.503219 L -112.608726 -165.247634 L -95.991035 -175.422988 L -78.461898 -183.932678 L -60.187767 -190.695922 L -41.342140 -195.648483 L -22.103967 -198.743331 L -2.655915 -199.951110 L 16.817356 -199.260330 L 36.130943 -196.677536 L 35.227668 -191.760620 L 16.396923 -194.278823 L -2.589517 -194.952331 L -21.551368 -193.774749 L -40.308589 -190.757278 L -58.683074 -185.928527 L -76.500358 -179.334365 L -93.591262 -171.037414 L -109.793502 -161.116424 L -124.953254 -149.665634 L -138.926544 -136.793762 L -151.580734 -122.623008 L -162.795639 -107.287940 L -172.464782 -90.934150 L -180.496337 -73.716941 L -186.814086 -55.799781 L -191.358016 -37.352790 L -194.084976 -18.551137 L -194.969070 0.426660 L -194.001922 19.400409 L -191.192687 38.189949 L -186.568084 56.616870 L -180.171997 74.506210 L -172.065139 91.688102 L -162.324508 107.999412 L -151.042602 123.285255 L -138.326522 137.400482 L -124.297019 150.211090 L -109.087303 161.595428 L -92.841789 171.445388 L -75.714736 179.667465 L -57.868759 186.183593 L -39.473320 190.931869 L -20.703071 193.867218 L -1.736248 194.961807 L 17.247062 194.205200 L 36.066608 191.604598 L 54.543697 187.184677 L 72.502891 180.987426 L 89.773658 173.071685 L 106.192024 163.512619 L 121.602081 152.400955 L 135.857513 139.842254 L 148.822967 125.955734 L 160.375335 110.873237 L 170.404907 94.737998 L 178.816467 77.703208 L 185.530166 59.930622 L 190.482223 41.588985 L 193.625625 22.852458 L 194.930541 3.898944 L 194.384567 -15.091590 L 191.992904 -33.938827 L 187.778244 -52.463813 L 181.780593 -70.490653 L 174.056945 -87.848175 L 164.680587 -104.371566 L 153.740585 -119.903938 Z"></path>
</g>
</g>

</g>
</svg>
