<svg xmlns="http://www.w3.org/2000/svg" xmlns:xlink="http://www.w3.org/1999/xlink" width="720" height="405" viewBox="0 0 720 405">
<path id="background" d="M 0.0 0.0 L 720.0 0.0 L 720.0 405.0 L 0.0 405.0 Z" stroke="none" fill-opacity="1.000000" fill="#202020"></path>
<g transform="translate(360.000000, 202.500000) scale(1.000000, -1.000000) rotate(0.0) translate(0.0, 0.0)">
<g id="9a7504c" class="meshentity2" transform="translate(0.0, 0.0) rotate(0.0) scale(1.000000, 1.000000)">
<g id="0xffff0000" class="materialsolid" stroke="none" fill-opacity="1.000000" fill="#ff0000">
<path id="arc" class="mesh2" fill-rule="evenodd" d="M 24.996093 0.0 L 24.879507 2.411387 L 24.530838 4.800282 L 23.953336 7.144397 L 23.152387 9.421867 L 22.135469 11.611446 L 20.912063 13.692710 L 19.493581 15.646245 L 17.893259 17.453826 L 16.126020 19.098592 L 14.208352 20.565198 L 12.158145 21.839967 L 9.994523 22.911006 L 7.737668 23.768321 L 5.408634 24.403921 L 3.029147 24.811870 L 0.621402 24.988368 L -1.792138 24.931764 L -4.188961 24.642591 L -6.546709 24.123542 L -8.843386 23.379461 L -11.057570 22.417289 L -13.168604 21.246000 L -15.156798 19.876522 L -17.003606 18.321630 L -18.691795 16.595827 L -20.205623 14.715211 L -21.530965 12.697329 L -22.655462 10.561001 L -23.568618 8.326157 L -24.261920 6.013644 L -24.728899 3.645033 L -24.965198 1.242421 L -24.968612 -1.171781 L -24.739112 -3.575052 L -24.278839 -5.944974 L -23.592082 -8.259440 L -22.685251 -10.496859 L -21.566804 -12.636360 L -21.027635 -12.320451 L -22.118120 -10.234437 L -23.002281 -8.052954 L -23.671867 -5.796350 L -24.120635 -3.485676 L -24.344398 -1.142486 L -24.341068 1.211360 L -24.110677 3.553908 L -23.655372 5.863303 L -22.979404 8.118003 L -22.089075 10.296977 L -20.992692 12.379897 L -19.700483 14.347332 L -18.224500 16.180931 L -16.578516 17.863588 L -14.777879 19.379610 L -12.839390 20.714851 L -10.781131 21.856857 L -8.622302 22.794975 L -6.383041 23.520454 L -4.084238 24.026527 L -1.747334 24.308471 L 0.605867 24.363660 L 2.953418 24.191574 L 5.273419 23.793823 L 7.544227 23.174116 L 9.744660 22.338232 L 11.854192 21.293970 L 13.853144 20.051069 L 15.722869 18.621128 L 17.445926 17.017480 L 19.006242 15.255089 L 20.389261 13.350392 L 21.582082 11.321160 L 22.573579 9.186321 L 23.354503 6.965787 L 23.917566 4.680274 L 24.257520 2.351103 L 24.371192 0.0 Z "></path>
</g>
<g id="0xffe5001a" class="materialsolid" stroke="none" fill-opacity="1.000000" fill="#e5001a">
<path id="arc" class="mesh2" fill-rule="evenodd" d="M 30.900171 2.831521 L 30.480298 5.812870 L 29.773468 8.739494 L 28.786329 11.583838 L 27.528181 14.319125 L 26.010864 16.919605 L 24.248668 19.360792 L 22.258178 21.619703 L 20.058137 23.675075 L 17.669256 25.507556 L 15.114027 27.099893 L 12.416506 28.437095 L 9.602087 29.506576 L 6.697270 30.298261 L 3.729400 30.804702 L 0.726419 31.021127 L -2.283400 30.945503 L -5.271722 30.578538 L -8.210412 29.923690 L -11.071806 28.987119 L -13.828964 27.777648 L -16.455926 26.306663 L -18.927963 24.588010 L -21.221801 22.637872 L -23.315845 20.474605 L -25.190378 18.118581 L -26.827754 15.591974 L -28.212558 12.918577 L -29.331752 10.123558 L -30.174800 7.233227 L -30.733762 4.274800 L -31.003379 1.276126 L -30.981113 -1.734560 L -30.667171 -4.728917 L -30.064512 -7.678753 L -29.178806 -10.556298 L -28.018392 -13.334458 L -26.594198 -15.987081 L -24.919630 -18.489191 L -24.296638 -18.026962 L -25.929344 -15.587404 L -27.317934 -13.001096 L -28.449337 -10.292389 L -29.312898 -7.486785 L -29.900493 -4.610694 L -30.206584 -1.691196 L -30.228296 1.244223 L -29.965419 4.167930 L -29.420429 7.052397 L -28.598459 9.870469 L -27.507246 12.595614 L -26.157060 15.202176 L -24.560619 17.665615 L -22.732950 19.962739 L -20.691257 22.071926 L -18.454765 23.973310 L -16.044528 25.648998 L -13.483240 27.083208 L -10.795012 28.262443 L -8.005153 29.175598 L -5.139929 29.814075 L -2.226315 30.171867 L 0.708259 30.245601 L 3.636165 30.034584 L 6.529839 29.540805 L 9.362036 28.768911 L 12.106094 27.726171 L 14.736178 26.422397 L 17.227525 24.869869 L 19.556684 23.083198 L 21.701723 21.079212 L 23.642452 18.876770 L 25.360593 16.496614 L 26.839977 13.961148 L 28.066673 11.294242 L 29.029130 8.521007 L 29.718292 5.667549 L 30.127666 2.760734 Z "></path>
</g>
<g id="0xffca0035" class="materialsolid" stroke="none" fill-opacity="1.000000" fill="#ca0035">
<path id="arc" class="mesh2" fill-rule="evenodd" d="M 36.445926 6.735970 L 35.616981 10.252293 L 34.449630 13.671208 L 32.954963 16.960229 L 31.147182 20.088106 L 29.043464 23.025119 L 26.663795 25.743368 L 24.030788 28.217018 L 21.169458 30.422574 L 18.106990 32.339076 L 14.872486 33.948314 L 11.496672 35.235004 L 8.011625 36.186912 L 4.450458 36.795005 L 0.847006 37.053493 L -2.764492 36.959930 L -6.349726 36.515201 L -9.874629 35.723529 L -13.305710 34.592441 L -16.610370 33.132678 L -19.757211 31.358118 L -22.716335 29.285614 L -25.459623 26.934856 L -27.961013 24.328187 L -30.196739 21.490367 L -32.145557 18.448362 L -33.788951 15.231075 L -35.111309 11.869074 L -36.100063 8.394301 L -36.745822 4.839772 L -37.042449 1.239258 L -36.987129 -2.373028 L -36.580383 -5.962769 L -35.826076 -9.495856 L -34.731376 -12.938722 L -33.306682 -16.258651 L -31.565536 -19.424104 L -29.524478 -22.405002 L -27.202898 -25.173027 L -26.522827 -24.543701 L -28.786365 -21.844879 L -30.776399 -18.938501 L -32.474018 -15.852185 L -33.863090 -12.615253 L -34.930423 -9.258460 L -35.665874 -5.813700 L -36.062450 -2.313703 L -36.116390 1.208277 L -35.827178 4.718777 L -35.197563 8.184444 L -34.233528 11.572347 L -32.944229 14.850299 L -31.341920 17.987154 L -29.441822 20.953109 L -27.261989 23.719984 L -24.823133 26.261486 L -22.148427 28.553472 L -19.263282 30.574165 L -16.195112 32.304363 L -12.973069 33.727630 L -9.627764 34.830444 L -6.190983 35.602321 L -2.695380 36.035934 L 0.825831 36.127159 L 4.339197 35.875129 L 7.811335 35.282245 L 11.209256 34.354129 L 14.500674 33.099609 L 17.654317 31.530599 L 20.640222 29.662010 L 23.430021 27.511594 L 25.997201 25.099782 L 28.317378 22.449493 L 30.368503 19.585903 L 32.131092 16.536222 L 33.588390 13.329428 L 34.726558 9.995987 L 35.534782 6.567571 Z "></path>
</g>
<g id="0xffb0004f" class="materialsolid" stroke="none" fill-opacity="1.000000" fill="#b0004f">
<path id="arc" class="mesh2" fill-rule="evenodd" d="M 41.487438 11.667020 L 40.147476 15.668663 L 38.422565 19.520069 L 36.329250 23.184312 L 33.887596 26.626256 L 31.121019 29.812898 L 28.056043 32.713687 L 24.722057 35.300800 L 21.151027 37.549446 L 17.377195 39.438053 L 13.436743 40.948513 L 9.367458 42.066345 L 5.208353 42.780834 L 0.999309 43.085124 L -3.219315 42.976306 L -7.407073 42.455410 L -11.523809 41.527442 L -15.530052 40.201293 L -19.387386 38.489685 L -23.058828 36.409027 L -26.509178 33.979263 L -29.705345 31.223695 L -32.616691 28.168745 L -35.215293 24.843706 L -37.476245 21.280454 L -39.377861 17.513162 L -40.901908 13.577946 L -42.033775 9.512541 L -42.762611 5.355926 L -43.081420 1.147957 L -42.987155 -3.071018 L -42.480716 -7.260548 L -41.566955 -11.380461 L -40.254642 -15.391255 L -38.556346 -19.254472 L -36.488368 -22.933073 L -34.070522 -26.391782 L -31.326002 -29.597440 L -28.281114 -32.519306 L -27.574087 -31.706325 L -30.542852 -28.857503 L -33.218761 -25.731986 L -35.576156 -22.359746 L -37.592441 -18.773111 L -39.248271 -15.006474 L -40.527782 -11.095949 L -41.418701 -7.079034 L -41.912479 -2.994242 L -42.004386 1.119258 L -41.693546 5.222028 L -40.982933 9.274727 L -39.879364 13.238497 L -38.393413 17.075332 L -36.539340 20.748445 L -34.334911 24.222612 L -31.801273 27.464527 L -28.962713 30.443103 L -25.846448 33.129783 L -22.482358 35.498798 L -18.902702 37.527446 L -15.141800 39.196266 L -11.235714 40.489257 L -7.221896 41.394027 L -3.138832 41.901897 L 0.974327 42.007999 L 5.078145 41.711315 L 9.133272 41.014690 L 13.100826 39.924800 L 16.942766 38.452098 L 20.622251 36.610710 L 24.104005 34.418281 L 27.354642 31.895843 L 30.342994 29.067577 L 33.040409 25.960599 L 35.421020 22.604703 L 37.462001 19.032068 L 39.143787 15.276947 L 40.450252 11.375345 Z "></path>
</g>
<g id="0xff95006a" class="materialsolid" stroke="none" fill-opacity="1.000000" fill="#95006a">
<path id="arc" class="mesh2" fill-rule="evenodd" d="M 45.884658 17.560745 L 43.992725 21.872861 L 41.696655 25.984046 L 39.017547 29.856533 L 35.980014 33.454750 L 32.611957 36.745639 L 28.944316 39.698970 L 25.010780 42.287616 L 20.847490 44.487796 L 16.492689 46.279293 L 11.986379 47.645656 L 7.369959 48.574329 L 2.685837 49.056781 L -2.022958 49.088588 L -6.713170 48.669448 L -11.341713 47.803215 L -15.866067 46.497844 L -20.244670 44.765335 L -24.437299 42.621593 L -28.405441 40.086315 L -32.112640 37.182792 L -35.524841 33.937698 L -38.610702 30.380838 L -41.341869 26.544895 L -43.693260 22.465097 L -45.643272 18.178930 L -47.173988 13.725765 L -48.271347 9.146512 L -48.925273 4.483234 L -49.129753 -0.221226 L -48.882915 -4.923655 L -48.187019 -9.580854 L -47.048465 -14.150040 L -45.477706 -18.589239 L -43.489177 -22.857671 L -41.101142 -26.916126 L -38.335536 -30.727319 L -35.217769 -34.256244 L -31.776483 -37.470478 L -28.043287 -40.340499 L -27.342205 -39.331989 L -30.982072 -36.533718 L -34.337329 -33.399841 L -37.377151 -29.959138 L -40.073616 -26.243223 L -42.401947 -22.286230 L -44.340766 -18.124509 L -45.872253 -13.796289 L -46.982345 -9.341333 L -47.660842 -4.800564 L -47.901512 -0.215695 L -47.702144 4.371153 L -47.064563 8.917848 L -45.994640 13.382621 L -44.502189 17.724456 L -42.600929 21.903470 L -40.308322 25.881271 L -37.645435 29.621318 L -34.636722 33.089256 L -31.309825 36.253223 L -27.695304 39.084156 L -23.826368 41.556053 L -19.738554 43.646202 L -15.469415 45.335399 L -11.058170 46.608135 L -6.545341 47.452713 L -1.972384 47.861373 L 2.618691 47.830368 L 7.185711 47.359973 L 11.686720 46.454513 L 16.080371 45.122310 L 20.326305 43.375602 L 24.385513 41.230426 L 28.220706 38.706497 L 31.796659 35.826999 L 35.080516 32.618381 L 38.042110 29.110120 L 40.654239 25.334447 L 42.892906 21.326040 L 44.737541 17.121726 Z "></path>
</g>
<g id="0xff7d0380" class="materialsolid" stroke="none" fill-opacity="1.000000" fill="#7d0380">
<path id="arc" class="mesh2" fill-rule="evenodd" d="M 49.505420 24.336343 L 46.935600 28.984375 L 43.930694 33.363731 L 40.518562 37.433815 L 36.730838 41.156894 L 32.602626 44.498458 L 28.172199 47.427539 L 23.480621 49.916980 L 18.571386 51.943702 L 13.489996 53.488918 L 8.283561 54.538307 L 3.000338 55.082141 L -2.310696 55.115379 L -7.600312 54.637714 L -12.819475 53.653568 L -17.919803 52.172069 L -22.854021 50.206954 L -27.576391 47.776428 L -32.043128 44.903030 L -36.212841 41.613391 L -40.046867 37.938011 L -43.509674 33.910953 L -46.569152 29.569551 L -49.196949 24.954046 L -51.368705 20.107223 L -53.064289 15.074014 L -54.267974 9.901072 L -54.968616 4.636350 L -55.159709 -0.671350 L -54.839492 -5.972826 L -54.010925 -11.218937 L -52.681690 -16.361051 L -50.864109 -21.351501 L -48.575035 -26.144031 L -45.835681 -30.694211 L -42.671443 -34.959865 L -39.111652 -38.901451 L -35.189311 -42.482429 L -30.940769 -45.669609 L -26.405416 -48.433441 L -25.745281 -47.222606 L -30.167249 -44.527866 L -34.309577 -41.420372 L -38.133861 -37.928916 L -41.604660 -34.085872 L -44.689788 -29.926856 L -47.360660 -25.490432 L -49.592506 -20.817714 L -51.364646 -15.952025 L -52.660648 -10.938465 L -53.468502 -5.823506 L -53.780719 -0.654566 L -53.594402 4.520441 L -52.911277 9.653545 L -51.737678 14.697164 L -50.084487 19.604545 L -47.967025 24.330196 L -45.404922 28.830312 L -42.421932 33.063179 L -39.045700 36.989559 L -35.307521 40.573059 L -31.242053 43.780456 L -26.886980 46.582019 L -22.282672 48.951778 L -17.471809 50.867767 L -12.498988 52.312232 L -7.410304 53.271770 L -2.252928 53.737495 L 2.925330 53.705089 L 8.076472 53.174850 L 13.152748 52.151695 L 18.107101 50.645107 L 22.893606 48.669055 L 27.467893 46.241851 L 31.787563 43.386001 L 35.812568 40.127971 L 39.505599 36.497966 L 42.832427 32.529640 L 45.762210 28.259765 L 48.267784 23.727935 Z "></path>
</g>
<g id="0xff6b1786" class="materialsolid" stroke="none" fill-opacity="1.000000" fill="#6b1786">
<path id="arc" class="mesh2" fill-rule="evenodd" d="M 52.227298 31.897068 L 48.901775 36.793071 L 45.118846 41.344932 L 40.913898 45.510074 L 36.326263 49.249534 L 31.398843 52.528335 L 26.177740 55.315814 L 20.711780 57.585899 L 15.052093 59.317352 L 9.251615 60.493976 L 3.364603 61.104770 L -2.553879 61.144020 L -8.448474 60.611362 L -14.264046 59.511768 L -19.946199 57.855533 L -25.441785 55.658145 L -30.699403 52.940158 L -35.669872 49.726993 L -40.306705 46.048706 L -44.566524 41.939704 L -48.409488 37.438419 L -51.799655 32.586948 L -54.705318 27.430677 L -57.099288 22.017833 L -58.959182 16.399044 L -60.267597 10.626867 L -61.012298 4.755291 L -61.186325 -1.160762 L -60.788040 -7.065959 L -59.821174 -12.905064 L -58.294773 -18.623464 L -56.223106 -24.167665 L -53.625556 -29.485816 L -50.526420 -34.528171 L -46.954685 -39.247566 L -42.943759 -43.599857 L -38.531154 -47.544334 L -33.758148 -51.044109 L -28.669387 -54.066440 L -23.312465 -56.583057 L -22.729654 -55.168483 L -27.952651 -52.714782 L -32.914196 -49.768005 L -37.567874 -46.355728 L -41.870166 -42.509860 L -45.780815 -38.266376 L -49.263259 -33.664966 L -52.284919 -28.748670 L -54.817527 -23.563474 L -56.837402 -18.157876 L -58.325649 -12.582438 L -59.268341 -6.889310 L -59.656665 -1.131743 L -59.486991 4.636409 L -58.760910 10.361195 L -57.485202 15.989068 L -55.671806 21.467386 L -53.337684 26.744911 L -50.504665 31.772275 L -47.199253 36.502456 L -43.452362 40.891212 L -39.299034 44.897491 L -34.778125 48.483821 L -29.931919 51.616653 L -24.805742 54.266693 L -19.447547 56.409145 L -13.907446 58.023979 L -8.237263 59.096080 L -2.490032 59.615425 L 3.280488 59.577156 L 9.020325 58.981632 L 14.675791 57.834419 L 20.193986 56.146255 L 25.523296 53.932926 L 30.613874 51.215129 L 35.418102 48.018295 L 39.891052 44.372322 L 43.990875 40.311309 L 47.679229 35.873245 L 50.921619 31.099641 Z "></path>
</g>
<g id="0xff592b8c" class="materialsolid" stroke="none" fill-opacity="1.000000" fill="#592b8c">
<path id="arc" class="mesh2" fill-rule="evenodd" d="M 53.939441 40.131374 L 49.790840 45.175907 L 45.172325 49.794090 L 40.127494 53.942325 L 34.703952 57.581474 L 28.952882 60.677188 L 22.928565 63.200244 L 16.687858 65.126846 L 10.289654 66.438796 L 3.794340 67.123718 L -2.736783 67.175148 L -9.242078 66.592597 L -15.660149 65.381576 L -21.930425 63.553497 L -27.993728 61.125621 L -33.792835 58.120861 L -39.273014 54.567577 L -44.382553 50.499301 L -49.073215 45.954429 L -53.300750 40.975852 L -57.025245 35.610561 L -60.211551 29.909187 L -62.829601 23.925539 L -64.854690 17.716091 L -66.267692 11.339443 L -67.055290 4.855778 L -67.210037 -1.673714 L -66.730476 -8.187411 L -65.621139 -14.623838 L -63.892486 -20.922248 L -61.560840 -27.023202 L -58.648197 -32.869121 L -55.182056 -38.404830 L -51.195125 -43.578086 L -46.725028 -48.340065 L -41.813953 -52.645832 L -36.508255 -56.454742 L -30.858003 -59.730846 L -24.916524 -62.443233 L -18.739891 -64.566299 L -18.271392 -62.952140 L -24.293611 -60.882152 L -30.086553 -58.237575 L -35.595550 -55.043373 L -40.768604 -51.329689 L -45.556903 -47.131568 L -49.915245 -42.488636 L -53.802509 -37.444709 L -57.181995 -32.047393 L -60.021820 -26.347623 L -62.295177 -20.399194 L -63.980609 -14.258242 L -65.062217 -7.982726 L -65.529785 -1.631871 L -65.378906 4.734384 L -64.611000 11.055957 L -63.233322 17.273189 L -61.258861 23.327402 L -58.706264 29.161457 L -55.599613 34.720298 L -51.968231 39.951457 L -47.846389 44.805568 L -43.272991 49.236816 L -38.291194 53.203388 L -32.948017 56.667842 L -27.293886 59.597480 L -21.382164 61.964660 L -15.268646 63.747035 L -9.011027 64.927787 L -2.668364 65.495765 L 3.699481 65.445625 L 10.032412 64.777824 L 16.270662 63.498672 L 22.355352 61.620243 L 28.229061 59.160259 L 33.836353 56.141937 L 39.124309 52.593769 L 44.043022 48.549236 L 48.546070 44.046508 L 52.590957 39.128089 Z "></path>
</g>
<g id="0xff483f91" class="materialsolid" stroke="none" fill-opacity="1.000000" fill="#483f91">
<path id="arc" class="mesh2" fill-rule="evenodd" d="M 54.544193 48.914264 L 49.517040 53.997566 L 44.018375 58.566688 L 38.100563 62.578121 L 31.819944 65.993675 L 25.236330 68.780822 L 18.412410 70.913024 L 11.413163 72.369979 L 4.305237 73.137809 L -2.843683 73.209205 L -9.965525 72.583488 L -16.992475 71.266609 L -23.857616 69.271118 L -30.495584 66.616012 L -36.843162 63.326576 L -42.839916 59.434131 L -48.428733 54.975738 L -53.556404 49.993858 L -58.174098 44.535919 L -62.237846 38.653903 L -65.708953 32.403816 L -68.554367 25.845174 L -70.746986 19.040428 L -72.265945 12.054371 L -73.096763 4.953535 L -73.231536 -2.194472 L -72.668991 -9.321582 L -71.414474 -16.359931 L -69.479927 -23.242498 L -66.883781 -29.903741 L -63.650753 -36.280239 L -59.811630 -42.311267 L -55.402965 -47.939395 L -50.466739 -53.111038 L -45.049964 -57.776943 L -39.204208 -61.892684 L -32.985141 -65.419067 L -26.451986 -68.322517 L -19.666946 -70.575386 L -12.694635 -72.156219 L -12.377269 -70.352317 L -19.175271 -68.811004 L -25.790685 -66.614456 L -32.160514 -63.783596 L -38.224102 -60.345367 L -43.923713 -56.332519 L -49.205070 -51.783264 L -54.017894 -46.740909 L -58.316341 -41.253486 L -62.059486 -35.373233 L -65.211685 -29.156148 L -67.742927 -22.661434 L -69.629112 -15.950933 L -70.852264 -9.088543 L -71.400756 -2.139610 L -71.269348 4.829696 L -70.459297 11.753013 L -68.978309 18.564414 L -66.840507 25.199045 L -64.066230 31.593721 L -60.681903 37.687557 L -56.719749 43.422523 L -52.217494 48.744010 L -47.218013 53.601348 L -41.768917 57.948276 L -35.922084 61.743412 L -29.733194 64.950614 L -23.261177 67.539344 L -16.567663 69.484947 L -9.716387 70.768898 L -2.772591 71.378974 L 4.197607 71.309364 L 11.127834 70.560729 L 17.952100 69.140205 L 24.605422 67.061302 L 31.024446 64.343833 L 37.148048 61.013671 L 42.917919 57.102516 L 48.279113 52.647624 L 53.180587 47.691410 Z "></path>
</g>
<g id="0xff365396" class="materialsolid" stroke="none" fill-opacity="1.000000" fill="#365396">
<path id="arc" class="mesh2" fill-rule="evenodd" d="M 53.958637 58.108783 L 48.010696 63.112102 L 41.601512 67.509109 L 34.792655 71.257537 L 27.649541 74.321380 L 20.240795 76.671218 L 12.637593 78.284454 L 4.912979 79.145606 L -2.858834 79.246406 L -10.603182 78.585861 L -18.245664 77.170333 L -25.712858 75.013427 L -32.933025 72.135848 L -39.836799 68.565254 L -46.357856 64.335945 L -52.433547 59.488555 L -58.005504 54.069644 L -63.020191 48.131282 L -67.429435 41.730518 L -71.190872 34.928840 L -74.268379 27.791597 L -76.632377 20.387357 L -78.260154 12.787252 L -79.136070 5.064299 L -79.251724 -2.707306 L -78.605995 -10.452903 L -77.205085 -18.098079 L -75.062454 -25.569381 L -72.198692 -32.795036 L -68.641304 -39.705627 L -64.424468 -46.234760 L -59.588699 -52.319709 L -54.180454 -57.902015 L -48.251693 -62.928047 L -41.859367 -67.349525 L -35.064895 -71.123962 L -27.933549 -74.215103 L -20.533843 -76.593254 L -12.936865 -78.235557 L -5.215601 -79.126243 L -5.085211 -77.148086 L -12.613445 -76.279670 L -20.020498 -74.678421 L -27.235212 -72.359725 L -34.188274 -69.345863 L -40.812885 -65.665786 L -47.045402 -61.354846 L -52.825942 -56.454463 L -58.098983 -51.011714 L -62.813854 -45.078895 L -66.925270 -38.712989 L -70.393722 -31.975162 L -73.185890 -24.930149 L -75.274955 -17.645627 L -76.640846 -10.191581 L -77.270431 -2.639624 L -77.157669 4.937692 L -76.303649 12.467571 L -74.716567 19.877672 L -72.411674 27.096807 L -69.411109 34.055622 L -65.743698 40.687255 L -61.444690 46.928001 L -56.555366 52.717906 L -51.122711 58.001338 L -45.198909 62.727550 L -38.840881 66.851127 L -32.109699 70.332450 L -25.070037 73.138092 L -17.789524 75.241081 L -10.338104 76.621215 L -2.787363 77.265243 L 4.790154 77.166969 L 12.321654 76.327346 L 19.734777 74.754432 L 26.958305 72.463348 L 33.922840 69.476097 L 40.561477 65.821372 L 46.810432 61.534305 L 52.609672 56.656059 Z "></path>
</g>
<g id="0xff276592" class="materialsolid" stroke="none" fill-opacity="1.000000" fill="#276592">
<path id="arc" class="mesh2" fill-rule="evenodd" d="M 52.115924 67.567703 L 45.397415 72.253295 L 38.260608 76.273132 L 30.771255 79.590164 L 22.998369 82.173835 L 15.013569 84.000335 L 6.890432 85.052841 L -1.296193 85.321647 L -9.470877 84.804283 L -17.558294 83.505508 L -25.483922 81.437301 L -33.174739 78.618705 L -40.559875 75.075698 L -47.571281 70.840927 L -54.144359 65.953414 L -60.218532 60.458187 L -65.737846 54.405887 L -70.651420 47.852275 L -74.914009 40.857746 L -78.486320 33.486740 L -81.335441 25.807178 L -83.435111 17.889825 L -84.765998 9.807631 L -85.315834 1.635067 L -85.079536 -6.552562 L -84.059310 -14.679815 L -82.264533 -22.671806 L -79.711753 -30.454893 L -76.424491 -37.957363 L -72.433036 -45.110084 L -67.774169 -51.847145 L -62.490814 -58.106483 L -56.631649 -63.830410 L -50.250667 -68.966178 L -43.406669 -73.466491 L -36.162708 -77.289863 L -28.585536 -80.401069 L -20.744970 -82.771438 L -12.713256 -84.379127 L -4.564399 -85.209335 L 3.626515 -85.254402 L 3.535852 -83.123046 L -4.450289 -83.079101 L -12.395425 -82.269653 L -20.226346 -80.702148 L -27.870899 -78.391044 L -35.258640 -75.357612 L -42.321502 -71.629829 L -48.994403 -67.242034 L -55.215858 -62.234649 L -60.928543 -56.653820 L -66.079818 -50.550971 L -70.622215 -43.982330 L -74.513885 -37.008426 L -77.718963 -29.693521 L -80.207923 -22.105010 L -81.957824 -14.312821 L -82.952552 -6.388748 L -83.182937 1.594190 L -82.646850 9.562440 L -81.349243 17.442581 L -79.302055 25.162000 L -76.524169 32.649570 L -73.041160 39.836299 L -68.885139 46.655971 L -64.094398 53.045742 L -58.713069 58.946735 L -52.790748 64.304580 L -46.382003 69.069908 L -39.545879 73.198806 L -32.345375 76.653244 L -24.846826 79.401374 L -17.119337 81.417877 L -9.234106 82.684181 L -1.263789 83.188613 L 6.718172 82.926521 L 14.638231 81.900329 L 22.423408 80.119491 L 30.001974 77.600410 L 37.304092 74.366302 L 44.262481 70.446968 L 50.813030 65.878517 Z "></path>
</g>
<g id="0xff1e747d" class="materialsolid" stroke="none" fill-opacity="1.000000" fill="#1e747d">
<path id="arc" class="mesh2" fill-rule="evenodd" d="M 48.966411 77.135330 L 41.310539 81.492378 L 33.270656 85.091903 L 24.921501 87.900436 L 16.340682 89.891876 L 7.607968 91.047721 L -1.195467 91.357208 L -9.987791 90.817466 L -18.687271 89.433517 L -27.213041 87.218223 L -35.485847 84.192176 L -43.428787 80.383506 L -50.968029 75.827621 L -58.033489 70.566864 L -64.559486 64.650146 L -70.485366 58.132453 L -75.756027 51.074386 L -80.322486 43.541542 L -84.142303 35.603954 L -87.179954 27.335403 L -89.407211 18.812751 L -90.803359 10.115221 L -91.355438 1.323663 L -91.058303 -7.480198 L -89.914726 -16.214527 L -87.935325 -24.798130 L -85.138504 -33.151218 L -81.550270 -41.196144 L -77.203964 -48.858123 L -72.139999 -56.065933 L -66.405441 -62.752574 L -60.053607 -68.855880 L -53.143527 -74.319129 L -45.739448 -79.091537 L -37.910186 -83.128730 L -29.728525 -86.393188 L -21.270515 -88.854560 L -12.614783 -90.489974 L -3.841788 -91.284225 L 4.966918 -91.229919 L 13.729455 -90.327575 L 13.386219 -88.069381 L 4.842746 -88.949172 L -3.745743 -89.002113 L -12.299413 -88.227729 L -20.738752 -86.633201 L -28.985311 -84.233360 L -36.962432 -81.050514 L -44.595962 -77.114250 L -51.814941 -72.461158 L -58.552268 -67.134490 L -64.745307 -61.183757 L -70.336502 -54.664283 L -75.273872 -47.636672 L -79.511512 -40.166240 L -83.010047 -32.322437 L -85.736946 -24.178176 L -87.666862 -15.809163 L -88.781852 -7.293193 L -89.071556 1.290571 L -88.533279 9.862339 L -87.172027 18.342432 L -85.000457 26.652017 L -82.038742 34.713855 L -78.314430 42.453006 L -73.862129 49.797523 L -68.723228 56.679145 L -62.945499 63.033889 L -56.582653 68.802696 L -49.693832 73.931930 L -42.343070 78.373924 L -34.598701 82.087379 L -26.532714 85.037773 L -18.220090 87.197685 L -9.738097 88.547035 L -1.165581 89.073280 L 7.417768 88.771530 L 15.932166 87.644584 L 24.298463 85.702934 L 32.438888 82.964607 L 40.277774 79.455070 L 47.742248 75.206947 Z "></path>
</g>
<g id="0xff168368" class="materialsolid" stroke="none" fill-opacity="1.000000" fill="#168368">
<path id="arc" class="mesh2" fill-rule="evenodd" d="M 44.478664 86.649467 L 35.889049 90.545341 L 26.962886 93.592117 L 17.783876 95.761245 L 8.438100 97.032371 L -0.986803 97.393577 L -10.402454 96.841476 L -19.720556 95.381248 L -28.853729 93.026580 L -37.716327 89.799560 L -46.225238 85.730445 L -54.300674 80.857398 L -61.866909 75.226112 L -68.852989 68.889389 L -75.193405 61.906665 L -80.828689 54.343410 L -85.706001 46.270545 L -89.779617 37.763782 L -93.011314 28.902894 L -95.370811 19.770965 L -96.835960 10.453637 L -97.393043 1.038279 L -97.036819 -8.386815 L -95.770629 -17.733261 L -93.606361 -26.913415 L -90.564292 -35.841190 L -86.672966 -44.432865 L -81.968864 -52.607872 L -76.496101 -60.289546 L -70.305992 -67.405853 L -63.456600 -73.890068 L -56.012138 -79.681381 L -48.042423 -84.725486 L -39.622192 -88.975082 L -30.830406 -92.390304 L -21.749507 -94.939140 L -12.464653 -96.597694 L -3.062912 -97.350402 L 6.367550 -97.190208 L 15.738301 -96.118614 L 24.961467 -94.145668 L 24.337432 -91.792030 L 15.344843 -93.715652 L 6.208361 -94.760459 L -2.986340 -94.916648 L -12.153038 -94.182754 L -21.205770 -92.565673 L -30.059644 -90.080551 L -38.631637 -86.750701 L -46.841361 -82.607345 L -54.611835 -77.689346 L -61.870182 -72.042816 L -68.548347 -65.720710 L -74.583702 -58.782306 L -79.919639 -51.292675 L -84.506149 -43.322044 L -88.300186 -34.945159 L -91.266204 -26.240581 L -93.376365 -17.289932 L -94.610900 -8.177145 L -94.958221 1.012322 L -94.415061 10.192296 L -92.986541 19.276691 L -90.686035 28.180320 L -87.535125 36.819690 L -83.563354 45.113784 L -78.807968 52.984821 L -73.313568 60.358997 L -67.131668 67.167160 L -60.320240 73.345458 L -52.943161 78.835968 L -45.069610 83.587188 L -36.773418 87.554573 L -28.132387 90.700920 L -19.227542 92.996719 L -10.142394 94.420440 L -0.962133 94.958732 L 8.227148 94.606559 L 17.339281 93.367218 L 26.288814 91.252319 L 34.991825 88.281707 L 43.366703 84.483230 Z "></path>
</g>
<g id="0xff0d9253" class="materialsolid" stroke="none" fill-opacity="1.000000" fill="#0d9253">
<path id="arc" class="mesh2" fill-rule="evenodd" d="M 38.640148 95.943428 L 29.136907 99.243347 L 19.358039 101.604469 L 9.396052 103.004447 L -0.654818 103.430038 L -10.699494 102.877220 L -20.642955 101.351226 L -30.391143 98.866477 L -39.851840 95.446487 L -48.935558 91.123619 L -57.556362 85.938743 L -65.632698 79.940925 L -73.088180 73.186889 L -79.852272 65.740531 L -85.860984 57.672294 L -91.057487 49.058494 L -95.392616 39.980625 L -98.825370 30.524549 L -101.323272 20.779724 L -102.862686 10.838331 L -103.429061 0.794409 L -103.017036 -9.257026 L -101.630508 -19.220893 L -99.282585 -29.002939 L -95.995483 -38.510627 L -91.800308 -47.654018 L -86.736732 -56.346618 L -80.852653 -64.506202 L -74.203750 -72.055580 L -66.852890 -78.923332 L -58.869636 -85.044509 L -50.329490 -90.361183 L -41.313251 -94.823089 L -31.906202 -98.387985 L -22.197330 -101.022178 L -12.278480 -102.700736 L -2.243481 -103.407783 L 7.812740 -103.136627 L 17.795057 -101.889831 L 27.609039 -99.679199 L 37.161849 -96.525642 L 36.232803 -94.112495 L 26.918815 -97.187225 L 17.350181 -99.342590 L 7.617422 -100.558212 L -2.187394 -100.822593 L -11.971518 -100.133224 L -21.642398 -98.496627 L -31.108547 -95.928291 L -40.280422 -92.452507 L -49.071258 -88.102165 L -57.397895 -82.918395 L -65.181571 -76.950256 L -72.348648 -70.254188 L -78.831336 -62.893547 L -84.568313 -54.937953 L -89.505302 -46.462669 L -93.595603 -37.547863 L -96.800521 -28.277866 L -99.089744 -18.740373 L -100.441612 -9.025601 L -100.843338 0.774549 L -100.291122 10.567372 L -98.790191 20.260232 L -96.354743 29.761438 L -93.007804 38.981109 L -88.781051 47.832035 L -83.714462 56.230487 L -77.855964 64.097015 L -71.260971 71.357215 L -63.991886 77.942398 L -56.117454 83.790275 L -47.712173 88.845527 L -38.855548 93.060333 L -29.631368 96.394821 L -20.126884 98.817443 L -10.432006 100.305297 L -0.638447 100.844291 L 9.161151 100.429344 L 18.874090 99.064361 L 28.408485 96.762268 L 37.674144 93.544837 Z "></path>
</g>
<g id="0xff04a13e" class="materialsolid" stroke="none" fill-opacity="1.000000" fill="#04a13e">
<path id="arc" class="mesh2" fill-rule="evenodd" d="M 31.457782 104.848159 L 21.077936 107.417175 L 10.496960 108.961196 L -0.184179 109.465492 L -10.863561 108.925262 L -21.439281 107.345642 L -31.810424 104.741714 L -41.878028 101.138320 L -51.546024 96.569847 L -60.722164 91.079902 L -69.318878 84.720848 L -77.254142 77.553375 L -84.452239 69.645881 L -90.844474 61.073810 L -96.369857 51.918964 L -100.975669 42.268703 L -104.617950 32.215103 L -107.261955 21.854104 L -108.882446 11.284569 L -109.463966 0.607355 L -109.000968 -10.075654 L -107.497863 -20.662519 L -104.968986 -31.052221 L -101.438491 -41.145618 L -96.940048 -50.846393 L -91.516586 -60.061985 L -85.219863 -68.704460 L -78.109962 -76.691345 L -70.254722 -83.946426 L -61.729095 -90.400482 L -52.614448 -95.991920 L -42.997741 -100.667388 L -32.970741 -104.382278 L -22.629131 -107.101127 L -12.071589 -108.798004 L -1.398859 -109.456710 L 9.287218 -109.070968 L 19.884677 -107.644454 L 30.292390 -105.190780 L 40.411052 -101.733352 L 50.144104 -97.305175 L 48.890502 -94.872550 L 39.400779 -99.190025 L 29.535083 -102.561012 L 19.387559 -104.953346 L 9.055038 -106.344192 L -1.363888 -106.720298 L -11.769800 -106.078056 L -22.063404 -104.423599 L -32.146472 -101.772720 L -41.922794 -98.150711 L -51.299087 -93.592124 L -60.185871 -88.140472 L -68.498352 -81.847770 L -76.157218 -74.774070 L -83.089378 -66.986854 L -89.228675 -58.560440 L -94.516548 -49.575233 L -98.902534 -40.116977 L -102.344764 -30.275917 L -104.810409 -20.145957 L -106.275939 -9.823762 L -106.727371 0.592172 L -106.160392 11.002455 L -104.580413 21.307752 L -102.002510 31.409727 L -98.451278 41.211986 L -93.960617 50.620994 L -88.573364 59.546970 L -82.340934 67.904731 L -75.322792 75.614540 L -67.585906 82.602828 L -59.204113 88.802902 L -50.257377 94.155609 L -40.831077 98.609863 L -31.015167 102.123168 L -20.903301 104.662002 L -10.591973 106.202125 L -0.179574 106.728866 L 10.234536 106.237174 L 20.550989 104.731750 L 30.671340 102.226959 Z "></path>
</g>
<g id="0xff1bb22e" class="materialsolid" stroke="none" fill-opacity="1.000000" fill="#1bb22e">
<path id="arc" class="mesh2" fill-rule="evenodd" d="M 22.958223 113.194442 L 11.755911 114.899345 L 0.440449 115.498344 L -10.879253 114.985664 L -22.094240 113.366249 L -33.096572 110.655677 L -43.780345 106.880043 L -54.042736 102.075675 L -63.784965 96.288841 L -72.913253 89.575210 L -81.339752 81.999427 L -88.983360 73.634391 L -95.770492 64.560623 L -101.635841 54.865455 L -106.522933 44.642208 L -110.384735 33.989276 L -113.184089 23.009199 L -114.894042 11.807656 L -115.498130 0.492464 L -114.990554 -10.827467 L -113.376182 -22.043184 L -110.670570 -33.046737 L -106.899742 -43.732208 L -102.100006 -53.996761 L -96.317558 -63.741592 L -89.608039 -72.872909 L -82.036048 -81.302818 L -73.674453 -88.950187 L -64.603744 -95.741409 L -54.911220 -101.611114 L -44.690174 -106.502815 L -34.038986 -110.369415 L -23.060167 -113.173721 L -11.859396 -114.888710 L -0.544479 -115.497901 L 10.775679 -114.995422 L 21.992122 -113.386100 L 32.996891 -110.685440 L 43.684062 -106.919425 L 53.950771 -102.124313 L 63.698207 -96.346244 L 62.105754 -93.937591 L 52.602005 -99.571205 L 42.591964 -104.246444 L 32.171970 -107.918312 L 21.442321 -110.551452 L 10.506287 -112.120536 L -0.530867 -112.610450 L -11.562912 -112.016494 L -22.483665 -110.344375 L -33.188011 -107.610191 L -43.572921 -103.840248 L -53.538440 -99.070846 L -62.988651 -93.347877 L -71.832595 -86.726432 L -79.985145 -79.270248 L -87.367843 -71.051078 L -93.909614 -62.148052 L -99.547508 -52.646842 L -104.227249 -42.638904 L -107.903800 -32.220565 L -110.541778 -21.492105 L -112.115791 -10.556780 L -112.610679 0.480152 L -112.021697 11.512464 L -110.354492 22.433967 L -107.625122 33.139545 L -103.859863 43.526153 L -99.094947 53.493816 L -93.376235 62.946609 L -86.758773 71.793533 L -79.306266 79.949447 L -71.090423 87.335838 L -62.190334 93.881614 L -52.691669 99.523788 L -42.685840 104.208045 L -32.269161 107.889282 L -21.541885 110.532096 L -10.607271 112.111022 L 0.429438 112.610885 L 11.462014 112.026863 L 22.384267 110.364585 Z "></path>
</g>
<g id="0xff50c423" class="materialsolid" stroke="none" fill-opacity="1.000000" fill="#50c423">
<path id="arc" class="mesh2" fill-rule="evenodd" d="M 13.187905 120.815086 L 1.526537 121.523139 L -10.148936 121.108230 L -21.730627 119.574180 L -33.111503 116.935165 L -44.186408 113.215568 L -54.852993 108.449775 L -65.012687 102.681808 L -74.571617 95.964981 L -83.441444 88.361366 L -91.540199 79.941207 L -98.793045 70.782333 L -105.132972 60.969367 L -110.501373 50.592994 L -114.848655 39.749103 L -118.134635 28.537900 L -120.328964 17.062980 L -121.411354 5.430384 L -121.371795 -6.252392 L -120.210662 -17.877391 L -117.938682 -29.337190 L -114.576858 -40.525886 L -110.156250 -51.340095 L -104.717704 -61.679874 L -98.311485 -71.449684 L -90.996780 -80.559242 L -82.841186 -88.924354 L -73.920082 -96.467750 L -64.315887 -103.119689 L -54.117370 -108.818725 L -43.418758 -113.512176 L -32.318923 -117.156692 L -20.920434 -119.718582 L -9.328623 -121.174179 L 2.349392 -121.510017 L 14.005698 -120.723014 L 25.532579 -118.820419 L 36.823520 -115.819831 L 47.774177 -111.748970 L 58.283363 -106.645454 L 68.253967 -100.556449 L 77.593841 -93.538230 L 75.653999 -91.199775 L 66.547615 -98.042549 L 56.826282 -103.979324 L 46.579822 -108.955253 L 35.902931 -112.924339 L 24.894264 -115.849906 L 13.655555 -117.704933 L 2.290657 -118.472267 L -9.095408 -118.144821 L -20.397422 -116.725624 L -31.510951 -114.227783 L -42.333290 -110.674385 L -52.764438 -106.098258 L -62.707996 -100.541694 L -72.072082 -94.056053 L -80.770164 -86.701248 L -88.721855 -78.545257 L -95.853698 -69.663444 L -102.099761 -60.137878 L -107.402343 -50.056591 L -111.712440 -39.512744 L -114.990219 -28.603761 L -117.205398 -17.430458 L -118.337501 -6.096082 L -118.376060 5.294624 L -117.320739 16.636405 L -115.181274 27.824451 L -111.977439 38.755382 L -107.738838 49.328170 L -102.504646 59.445137 L -96.323226 69.012771 L -89.251693 77.942680 L -81.355407 86.152336 L -72.707328 93.565864 L -63.387371 100.114768 L -53.481670 105.738533 L -43.081752 110.385185 L -32.283718 114.011787 L -21.187360 116.584823 L -9.895213 118.080528 L 1.488374 118.485069 L 12.858207 117.794700 Z "></path>
</g>
<g id="0xff85d519" class="materialsolid" stroke="none" fill-opacity="1.000000" fill="#85d519">
<path id="arc" class="mesh2" fill-rule="evenodd" d="M 2.212909 127.547073 L -10.096719 127.166069 L -22.312242 125.599822 L -34.319808 122.862945 L -46.007499 118.980934 L -57.266380 113.989974 L -67.991523 107.936584 L -78.082946 100.877182 L -87.446617 92.877563 L -95.995254 84.012290 L -103.649169 74.363990 L -110.337028 64.022590 L -115.996513 53.084476 L -120.574867 41.651588 L -124.029411 29.830495 L -126.327949 17.731369 L -127.449066 5.466980 L -127.382308 -6.848362 L -126.128303 -19.099878 L -123.698722 -31.173372 L -120.116226 -42.956317 L -115.414199 -54.338897 L -109.636459 -65.215019 L -102.836883 -75.483306 L -95.078811 -85.048057 L -86.434570 -93.820137 L -76.984733 -101.717765 L -66.817359 -108.667350 L -56.027229 -114.604118 L -44.714900 -119.472717 L -32.985809 -123.227790 L -20.949277 -125.834342 L -8.717491 -127.268058 L 3.595545 -127.515586 L 15.875069 -126.574623 L 28.006631 -124.453933 L 39.877159 -121.173286 L 51.376018 -116.763252 L 62.396034 -111.264945 L 72.834495 -104.729598 L 82.594108 -97.218139 L 91.583915 -88.800559 L 89.294319 -86.580551 L 80.529258 -94.787689 L 71.013633 -102.111366 L 60.836139 -108.483322 L 50.091621 -113.844169 L 38.880233 -118.143951 L 27.306467 -121.342590 L 15.478193 -123.410255 L 3.505656 -124.327697 L -8.499553 -124.086357 L -20.425544 -122.688484 L -32.161163 -120.147102 L -43.597026 -116.485908 L -54.626548 -111.739006 L -65.146926 -105.950668 L -75.060111 -99.174827 L -84.273712 -91.474632 L -92.701843 -82.921859 L -100.265953 -73.596221 L -106.895561 -63.584640 L -112.528839 -52.980422 L -117.113319 -41.882411 L -120.606262 -30.394037 L -122.975090 -18.622381 L -124.197753 -6.677153 L -124.262840 5.330306 L -123.169754 17.288085 L -120.928680 29.084732 L -117.560493 40.610301 L -113.096603 51.757366 L -107.578613 62.422027 L -101.057937 72.504890 L -93.595367 81.911987 L -85.260459 90.555625 L -76.130874 98.355255 L -66.291732 105.238174 L -55.834724 111.140228 L -44.857315 116.006416 L -33.461811 119.791374 L -21.754436 122.459838 L -9.844302 123.986923 L 2.157586 124.358406 Z "></path>
</g>
<g id="0xffb9e70e" class="materialsolid" stroke="none" fill-opacity="1.000000" fill="#b9e70e">
<path id="arc" class="mesh2" fill-rule="evenodd" d="M -9.881532 133.233871 L -22.737606 131.650711 L -35.379943 128.830001 L -47.689697 124.798240 L -59.551151 119.593353 L -70.852806 113.264236 L -81.488433 105.870414 L -91.358032 97.481376 L -100.368843 88.175979 L -108.436164 78.041709 L -115.484138 67.173820 L -121.446540 55.674476 L -126.267295 43.651775 L -129.901107 31.218738 L -132.313812 18.492235 L -133.482727 5.591896 L -133.396865 -7.361006 L -132.057037 -20.244712 L -129.475830 -32.938114 L -125.677505 -45.321887 L -120.697776 -57.279621 L -114.583457 -68.698905 L -107.392013 -79.472404 L -99.191055 -89.498840 L -90.057678 -98.683952 L -80.077720 -106.941421 L -69.345024 -114.193595 L -57.960453 -120.372314 L -46.031036 -125.419509 L -33.668914 -129.287704 L -20.990297 -131.940582 L -8.114361 -133.353164 L 4.837849 -133.512191 L 17.744583 -132.416152 L 30.484512 -130.075378 L 42.937877 -126.511848 L 54.987617 -121.759071 L 66.520454 -115.861724 L 77.427978 -108.875236 L 87.607658 -100.865287 L 96.963798 -91.907188 L 105.408454 -82.085121 L 102.773239 -80.032997 L 94.539703 -89.609512 L 85.417465 -98.343666 L 75.492286 -106.153358 L 64.857444 -112.965179 L 53.612926 -118.715095 L 41.864433 -123.349052 L 29.722400 -126.823493 L 17.300968 -129.105758 L 4.716903 -130.174392 L -7.911502 -130.019332 L -20.465539 -128.642059 L -32.827194 -126.055526 L -44.880260 -122.284027 L -56.511440 -117.363006 L -67.611396 -111.338752 L -78.075782 -104.267883 L -87.806236 -96.216865 L -96.711288 -87.261367 L -104.707214 -77.485603 L -111.718872 -66.981437 L -117.680335 -55.847633 L -122.535575 -44.188838 L -126.238929 -32.114662 L -128.755615 -19.738595 L -130.061950 -7.176981 L -130.145660 5.452099 L -129.005981 18.029928 L -126.653587 30.438270 L -123.110618 42.560482 L -118.410369 54.282619 L -112.597038 65.494476 L -105.725257 76.090667 L -97.859626 85.971580 L -89.074081 95.044342 L -79.451225 103.223655 L -69.081489 110.432640 L -58.062374 116.603515 L -46.497455 121.678291 L -34.495445 125.609252 L -22.169168 128.359451 L -9.634493 129.903030 Z "></path>
</g>
<g id="0xffeef904" class="materialsolid" stroke="none" fill-opacity="1.000000" fill="#eef904">
<path id="arc" class="mesh2" fill-rule="evenodd" d="M -22.991651 137.727462 L -36.277023 134.838607 L -49.218467 130.671386 L -61.693298 125.265357 L -73.583244 118.671722 L -84.775573 110.953025 L -95.164192 102.182426 L -104.650596 92.443084 L -113.144859 81.827331 L -120.566444 70.435813 L -126.844993 58.376525 L -131.920989 45.763790 L -135.746292 32.717193 L -138.284652 19.360420 L -139.511993 5.820098 L -139.416702 -7.775400 L -137.999633 -21.297183 L -135.274276 -34.617057 L -131.266433 -47.608745 L -126.014122 -60.149074 L -119.567123 -72.119155 L -111.986564 -83.405509 L -103.344314 -93.901138 L -93.722297 -103.506530 L -83.211746 -112.130615 L -71.912300 -119.691650 L -59.931095 -126.117942 L -47.381698 -131.348571 L -34.383102 -135.333938 L -21.058534 -138.036254 L -7.534320 -139.429931 L 6.061323 -139.501724 L 19.599502 -138.250976 L 32.951866 -135.689529 L 45.991828 -131.841659 L 58.595767 -126.743865 L 70.644180 -120.444473 L 82.022850 -113.003204 L 92.623893 -104.490600 L 102.346824 -94.987365 L 111.099449 -84.583595 L 118.798782 -73.377929 L 115.828811 -71.543487 L 108.321960 -82.469009 L 99.788154 -92.612678 L 90.308303 -101.878334 L 79.972282 -110.178123 L 68.878074 -117.433364 L 57.130870 -123.575271 L 44.842033 -128.545623 L 32.128070 -132.297286 L 19.109514 -134.794692 L 5.909790 -136.014190 L -7.345962 -135.944183 L -20.532072 -134.585357 L -33.523525 -131.950592 L -46.197154 -128.064865 L -58.432815 -122.964996 L -70.114494 -116.699363 L -81.131454 -109.327354 L -91.379249 -100.918869 L -100.760711 -91.553611 L -109.186912 -81.320373 L -116.577949 -70.316184 L -122.863777 -58.645351 L -127.984786 -46.418529 L -131.892425 -33.751632 L -134.549652 -20.764755 L -135.931289 -7.581016 L -136.024200 5.674595 L -134.827545 18.876409 L -132.352645 31.899265 L -128.622970 44.619693 L -123.673873 56.917110 L -117.552284 68.674919 L -110.316238 79.781646 L -102.034332 90.132011 L -92.785087 99.627868 L -82.656188 108.179206 L -71.743667 115.704933 L -60.150970 122.133720 L -47.988010 127.404609 L -35.370098 131.467636 L -22.416860 134.284286 Z "></path>
</g>
<g id="0xffffed00" class="materialsolid" stroke="none" fill-opacity="1.000000" fill="#ffed00">
<path id="arc" class="mesh2" fill-rule="evenodd" d="M -36.996055 140.890518 L -50.579143 136.603790 L -63.678634 131.010986 L -76.169288 124.165557 L -87.931671 116.132965 L -98.853340 106.990020 L -108.829841 96.824127 L -117.765815 85.732475 L -125.575813 73.821136 L -132.185165 61.203971 L -137.530685 48.001636 L -141.561248 34.340351 L -144.238327 20.350728 L -145.536315 6.166532 L -145.442825 -8.076623 L -143.958724 -22.242557 L -141.098220 -36.195827 L -136.888656 -49.803024 L -131.370285 -62.934051 L -124.595863 -75.463348 L -116.630157 -87.271141 L -107.549339 -98.244514 L -97.440231 -108.278556 L -86.399482 -117.277343 L -74.532653 -125.154823 L -61.953212 -131.835678 L -48.781425 -137.256027 L -35.143234 -141.364059 L -21.169033 -144.120498 L -6.992431 -145.498977 L 7.251025 -145.486312 L 21.425155 -144.082641 L 35.394435 -141.301376 L 49.025302 -137.169113 L 62.187435 -131.725357 L 74.754981 -125.022155 L 86.607795 -117.123596 L 97.632530 -108.105209 L 107.723785 -98.053207 L 116.785087 -87.063705 L 124.729789 -75.241783 L 131.481933 -62.700454 L 128.194885 -61.132946 L 121.611549 -73.360733 L 113.865463 -84.887115 L 105.030700 -95.601875 L 95.191719 -105.402580 L 84.442596 -114.195510 L 72.886108 -121.896606 L 60.632751 -128.432220 L 47.799674 -133.739883 L 34.509574 -137.768844 L 20.889526 -140.480590 L 7.069749 -141.849166 L -6.817621 -141.861511 L -20.639808 -140.517486 L -34.264652 -137.829971 L -47.561893 -133.824645 L -60.404380 -128.539779 L -72.669342 -122.025955 L -84.239501 -114.345413 L -95.004226 -105.571594 L -104.860610 -95.788406 L -113.714408 -85.089363 L -121.480964 -73.576766 L -128.086029 -61.360698 L -133.466445 -48.557949 L -137.570770 -35.290935 L -140.359756 -21.686492 L -141.806762 -7.874708 L -141.897918 6.012368 L -140.632369 19.841960 L -138.022216 33.481842 L -134.092422 46.801597 L -128.880538 59.673877 L -122.436424 71.975608 L -114.821678 83.589164 L -106.109100 94.403526 L -96.382003 104.315269 L -85.733375 113.229652 L -74.265052 121.061424 L -62.086666 127.735710 L -49.314666 133.188705 L -36.071155 137.368255 Z "></path>
</g>
<g id="0xffffd300" class="materialsolid" stroke="none" fill-opacity="1.000000" fill="#ffd300">
<path id="arc" class="mesh2" fill-rule="evenodd" d="M -51.756752 142.598236 L -65.172416 136.987503 L -77.989227 130.118011 L -90.089416 122.052917 L -101.361801 112.866310 L -111.702796 102.642601 L -121.017387 91.475730 L -129.219985 79.468322 L -136.235214 66.730705 L -141.998596 53.379909 L -146.457214 39.538623 L -149.570068 25.334026 L -151.308563 10.896641 L -151.656723 -3.640868 L -150.611358 -18.144924 L -148.182052 -32.482250 L -144.391159 -46.521106 L -139.273483 -60.132492 L -132.876068 -73.191337 L -125.257675 -85.577651 L -116.488334 -97.177604 L -106.648612 -107.884628 L -95.828918 -117.600318 L -84.128684 -126.235427 L -71.655418 -133.710571 L -58.523723 -139.957107 L -44.854274 -144.917617 L -30.772668 -148.546493 L -16.408300 -150.810440 L -1.893162 -151.688613 L 12.639371 -151.172958 L 27.055767 -149.268234 L 41.223552 -145.991912 L 55.012546 -141.374099 L 68.296043 -135.457260 L 80.951988 -128.295730 L 92.864082 -119.955322 L 103.922882 -110.512687 L 114.026756 -100.054565 L 123.082870 -88.677085 L 131.008010 -76.484764 L 137.729354 -63.589649 L 143.185134 -50.110225 L 139.605514 -48.857471 L 134.286117 -61.999912 L 127.732818 -74.572647 L 120.005805 -86.460159 L 111.176094 -97.553215 L 101.324813 -107.749870 L 90.542488 -116.956443 L 78.928192 -125.088340 L 66.588645 -132.070831 L 53.637233 -137.839752 L 40.192966 -142.342117 L 26.379371 -145.536529 L 12.323387 -147.393646 L -1.845833 -147.896392 L -15.998093 -147.040176 L -30.003353 -144.832839 L -43.732917 -141.294677 L -57.060634 -136.458190 L -69.864028 -130.367828 L -82.025474 -123.079544 L -93.433204 -114.660316 L -103.982398 -105.187515 L -113.576118 -94.748168 L -122.126235 -83.438209 L -129.554153 -71.361557 L -135.791641 -58.629180 L -140.781387 -45.358081 L -144.477508 -31.670196 L -146.846069 -17.691301 L -147.865310 -3.549846 L -147.525848 10.624226 L -145.830825 24.700675 L -142.795791 38.550159 L -138.448638 52.045413 L -132.829330 65.062438 L -125.989479 77.481620 L -117.991958 89.188842 L -108.910232 100.076538 L -98.827758 110.044662 L -87.837188 119.001594 L -76.039497 126.865066 L -63.543106 133.562820 L -50.462833 139.033279 Z "></path>
</g>
<g id="0xffffb900" class="materialsolid" stroke="none" fill-opacity="1.000000" fill="#ffb900">
<path id="arc" class="mesh2" fill-rule="evenodd" d="M -67.120697 142.740371 L -80.534133 135.625427 L -93.201324 127.253753 L -105.004882 117.702919 L -115.835456 107.061424 L -125.592674 95.427886 L -134.186141 82.910095 L -141.536193 69.624046 L -147.574768 55.692844 L -152.245864 41.245582 L -155.506240 26.416133 L -157.325668 11.341906 L -157.687271 -3.837415 L -156.587722 -18.981180 L -154.037216 -33.949062 L -150.059371 -48.602363 L -144.691040 -62.805313 L -137.981964 -76.426284 L -129.994338 -89.339088 L -120.802162 -101.424057 L -110.490615 -112.569213 L -99.155235 -122.671272 L -86.901062 -131.636642 L -73.841651 -139.382263 L -60.098014 -145.836318 L -45.797489 -150.939025 L -31.072605 -154.643127 L -16.059791 -156.914260 L -0.898166 -157.731399 L 14.271780 -157.086975 L 29.309482 -154.986968 L 44.075603 -151.450805 L 58.433300 -146.511260 L 72.249557 -140.214141 L 85.396324 -132.617752 L 97.751800 -123.792518 L 109.201492 -113.820198 L 119.639297 -102.793197 L 128.968505 -90.813690 L 137.102676 -77.992698 L 143.966415 -64.449005 L 149.496139 -50.308120 L 153.640609 -35.701065 L 149.799591 -34.808540 L 145.758743 -49.050415 L 140.367263 -62.837779 L 133.675109 -76.042884 L 125.744293 -88.543357 L 116.648315 -100.223373 L 106.471450 -110.974693 L 95.308006 -120.697708 L 83.261421 -129.302322 L 70.443313 -136.708786 L 56.972473 -142.848495 L 42.973709 -147.664535 L 28.576747 -151.112289 L 13.914986 -153.159805 L -0.875712 -153.788131 L -15.658297 -152.991409 L -30.295789 -150.777053 L -44.652553 -147.165573 L -58.595565 -142.190414 L -71.995613 -135.897705 L -84.728538 -128.345733 L -96.676353 -119.604507 L -107.728355 -109.754989 L -117.782119 -98.888450 L -126.744491 -87.105613 L -134.532424 -74.515632 L -141.073760 -61.235179 L -146.307891 -47.387306 L -150.186294 -33.100334 L -152.673034 -18.506650 L -153.745101 -3.741480 L -153.392517 11.058359 L -151.618591 25.755731 L -148.439727 40.214447 L -143.885391 54.300521 L -137.997787 67.883445 L -130.831481 80.837348 L -122.452865 93.042190 L -112.939582 104.384902 L -102.379768 114.760345 L -90.871284 124.072402 L -78.520782 132.234786 L -65.442687 139.171859 Z "></path>
</g>
<g id="0xffff9e00" class="materialsolid" stroke="none" fill-opacity="1.000000" fill="#ff9e00">
<path id="arc" class="mesh2" fill-rule="evenodd" d="M -82.920997 141.222885 L -96.168830 132.556976 L -108.518066 122.652450 L -119.853309 111.601875 L -130.068649 99.508483 L -139.068634 86.485305 L -146.769180 72.654006 L -153.098297 58.143825 L -157.996887 43.090358 L -161.419158 27.634252 L -163.333129 11.919933 L -163.720916 -3.905764 L -162.578918 -19.694967 L -159.917770 -35.300140 L -155.762374 -50.575473 L -150.151535 -65.378227 L -143.137680 -79.570091 L -134.786361 -93.018447 L -125.175590 -105.597656 L -114.395195 -117.190162 L -102.545890 -127.687644 L -89.738410 -136.992019 L -76.092407 -145.016342 L -61.735404 -151.685638 L -46.801548 -156.937591 L -31.430377 -160.723129 L -15.765526 -163.006881 L 0.046638 -163.767486 L 15.858367 -162.997879 L 31.521917 -160.705200 L 46.890926 -156.910919 L 61.821792 -151.650451 L 76.174995 -144.972976 L 89.816421 -136.940887 L 102.618606 -127.629211 L 114.461929 -117.124984 L 125.235717 -105.526344 L 134.839309 -92.941665 L 143.182983 -79.488548 L 150.188751 -65.292694 L 155.791152 -50.486747 L 159.937866 -35.209049 L 162.590103 -19.602363 L 158.525360 -19.112304 L 155.939407 -34.328823 L 151.896377 -49.224575 L 146.434036 -63.660377 L 139.603408 -77.501342 L 131.468338 -90.618125 L 122.104835 -102.888191 L 111.600379 -114.196868 L 100.053138 -124.438484 L 87.571006 -133.517364 L 74.270614 -141.348663 L 60.276245 -147.859207 L 45.718658 -152.988143 L 30.733869 -156.687576 L 15.461909 -158.922927 L 0.045472 -159.673309 L -15.371388 -158.931716 L -30.644620 -156.705062 L -45.631507 -153.014160 L -60.192020 -147.893508 L -74.190101 -141.390945 L -87.494949 -133.567214 L -99.982254 -124.495452 L -111.535324 -114.260414 L -122.046203 -102.957725 L -131.416702 -90.692993 L -139.559249 -77.580841 L -146.397750 -63.743774 L -151.868316 -49.311084 L -155.919830 -34.417636 L -158.514450 -19.202592 L -159.627899 -3.808120 L -159.249801 11.621934 L -157.383682 26.943397 L -154.046966 42.013099 L -149.270843 56.690235 L -143.099945 70.837654 L -135.591934 84.323181 L -126.816947 97.020782 L -116.856979 108.811828 L -105.805114 119.586143 L -93.764617 129.243041 L -80.847976 137.692321 Z "></path>
</g>
<g id="0xffff8400" class="materialsolid" stroke="none" fill-opacity="1.000000" fill="#ff8400">
<path id="arc" class="mesh2" fill-rule="evenodd" d="M -98.978973 137.969421 L -111.889213 127.723152 L -123.745231 116.273460 L -134.435302 103.728233 L -143.858734 90.205680 L -151.926712 75.833198 L -158.563232 60.746215 L -163.705749 45.086872 L -167.305831 29.002725 L -169.329544 12.645310 L -169.757827 -3.831249 L -168.586639 -20.271709 L -165.827026 -36.521171 L -161.504974 -52.426525 L -155.661224 -67.837921 L -148.350814 -82.610137 L -139.642639 -96.603996 L -129.618743 -109.687652 L -118.373573 -121.737815 L -106.013084 -132.640960 L -92.653724 -142.294372 L -78.421379 -150.607055 L -63.450149 -157.500717 L -47.881084 -162.910400 L -31.860881 -166.785140 L -15.540485 -169.088409 L 0.926334 -169.798522 L 17.384426 -168.908798 L 33.678722 -166.427581 L 49.655693 -162.378295 L 65.164810 -156.799057 L 80.059936 -149.742462 L 94.200729 -141.274978 L 107.453971 -131.476394 L 119.694763 -120.439033 L 130.807785 -108.266891 L 140.688339 -95.074653 L 149.243316 -80.986610 L 156.392105 -66.135513 L 162.067367 -50.661277 L 166.215621 -34.709712 L 168.797790 -18.431112 L 169.789535 -1.978851 L 165.544784 -1.929379 L 164.577850 -17.970335 L 162.060241 -33.841972 L 158.015701 -49.394752 L 152.482315 -64.482124 L 145.512237 -78.961952 L 137.171127 -92.697784 L 127.537605 -105.560226 L 116.702400 -117.428054 L 104.767623 -128.189498 L 91.845726 -137.743103 L 78.058441 -145.998901 L 63.535690 -152.879089 L 48.414306 -158.318832 L 32.836753 -162.266906 L 16.949815 -164.686080 L 0.903176 -165.553573 L -15.151974 -164.861206 L -31.064363 -162.615524 L -46.684062 -158.837646 L -61.863895 -153.563201 L -76.460853 -146.841888 L -90.337379 -138.737014 L -103.362754 -129.324935 L -115.414237 -118.694366 L -126.378280 -106.945457 L -136.151580 -94.188903 L -144.642044 -80.544883 L -151.769699 -66.141967 L -157.467361 -51.115867 L -161.681350 -35.608142 L -164.371978 -19.764917 L -165.513885 -3.735467 L -165.096313 12.329178 L -163.123184 28.277658 L -159.613113 43.959705 L -154.599136 59.227561 L -148.128555 73.937370 L -140.262268 87.950538 L -131.074417 101.135025 L -120.651596 113.366630 L -109.091979 124.530067 L -96.504501 134.520187 Z "></path>
</g>
<g id="0xffff6a00" class="materialsolid" stroke="none" fill-opacity="1.000000" fill="#ff6a00">
<path id="arc" class="mesh2" fill-rule="evenodd" d="M -115.105712 132.922821 L -127.499580 121.085342 L -138.682144 108.097488 L -148.547164 94.082656 L -157.000900 79.173988 L -163.963073 63.513134 L -169.367492 47.248874 L -173.162857 30.535722 L -175.313079 13.532470 L -175.797760 -3.599347 L -174.612258 -20.696969 L -171.767868 -37.597961 L -167.291580 -54.141754 L -161.225967 -70.171173 L -153.628616 -85.533935 L -144.571716 -100.084083 L -134.141311 -113.683372 L -122.436515 -126.202629 L -109.568504 -137.522888 L -95.659545 -147.536621 L -80.841766 -156.148681 L -65.255958 -163.277267 L -49.050182 -168.854629 L -32.378406 -172.827789 L -15.399022 -175.158996 L 1.726662 -175.826110 L 18.835941 -174.822799 L 35.766269 -172.158584 L 52.356803 -167.858779 L 68.449920 -161.964233 L 83.892730 -154.530944 L 98.538513 -145.629547 L 112.248146 -135.344589 L 124.891357 -123.773803 L 136.348037 -111.027099 L 146.509353 -97.225585 L 155.278762 -82.500373 L 162.572937 -66.991378 L 168.322586 -50.845928 L 172.473114 -34.217418 L 174.985046 -17.263826 L 175.834533 -0.146218 L 175.013519 16.972776 L 170.638183 16.548458 L 171.438674 -0.142563 L 170.610427 -16.832229 L 168.161285 -33.361984 L 164.114532 -49.574783 L 158.508621 -65.316596 L 151.396789 -80.437866 L 142.846633 -94.794944 L 132.939346 -108.251426 L 121.769073 -120.679458 L 109.441940 -131.960983 L 96.075057 -141.988815 L 81.795417 -150.667678 L 66.738670 -157.915130 L 51.047885 -163.662322 L 34.872116 -167.854629 L 18.365043 -170.452239 L 1.683495 -171.430465 L -15.014045 -170.780029 L -31.568948 -168.507095 L -47.823932 -164.633270 L -63.624557 -159.195327 L -78.820724 -152.244979 L -93.268066 -143.848205 L -106.829299 -134.084823 L -119.375602 -123.047561 L -130.787796 -110.841300 L -140.957427 -97.581977 L -149.787902 -83.395584 L -157.195312 -68.416900 L -163.109298 -52.788211 L -167.473663 -36.658016 L -170.246963 -20.179546 L -171.402801 -3.509364 L -170.930252 13.194158 L -168.833786 29.772333 L -165.133316 46.067649 L -159.863998 61.925308 L -153.075881 77.194641 L -144.833480 91.730598 L -135.215087 105.395057 L -124.312095 118.058219 L -112.228073 129.599761 Z "></path>
</g>
<g id="0xffff4f00" class="materialsolid" stroke="none" fill-opacity="1.000000" fill="#ff4f00">
<path id="arc" class="mesh2" fill-rule="evenodd" d="M -131.104415 126.046218 L -142.798278 112.626228 L -153.124252 98.127365 L -161.983413 82.688522 L -169.290893 66.457580 L -174.976699 49.590034 L -178.986373 32.247447 L -181.281478 14.595958 L -181.840057 -3.195350 L -180.656753 -20.956050 L -177.742889 -38.516006 L -173.126388 -55.707008 L -166.851470 -72.364387 L -158.978240 -88.328559 L -149.582138 -103.446624 L -138.753143 -117.573738 L -126.594993 -130.574600 L -113.224174 -142.324645 L -98.768745 -152.711334 L -83.367195 -161.635177 L -67.167045 -169.010665 L -50.323490 -174.767166 L -32.997875 -178.849548 L -15.356168 -181.218658 L 2.432640 -181.851867 L 20.198146 -180.743057 L 37.770172 -177.902862 L 54.980384 -173.358505 L 71.663932 -167.153518 L 87.660995 -159.347320 L 102.818321 -150.014709 L 116.990737 -139.245056 L 130.042480 -127.141540 L 141.848510 -113.820114 L 152.295745 -99.408378 L 161.284088 -84.044395 L 168.727462 -67.875328 L 174.554565 -51.056064 L 178.709564 -33.747726 L 181.152664 -16.116109 L 181.860473 1.669888 L 180.826187 19.439888 L 178.059722 37.023670 L 173.608230 36.098079 L 176.305541 18.953891 L 177.313949 1.628141 L 176.623855 -15.713206 L 174.241836 -32.904033 L 170.190704 -49.779666 L 164.509277 -66.178451 L 157.251983 -81.943290 L 148.488342 -96.923179 L 138.302291 -110.974624 L 126.791419 -123.963005 L 114.065971 -135.763931 L 100.247863 -146.264328 L 85.469467 -155.363647 L 69.872337 -162.974685 L 53.605876 -169.024566 L 36.825916 -173.455307 L 19.693193 -176.224487 L 2.371824 -177.305572 L -14.972265 -176.688201 L -32.172931 -174.378295 L -49.065406 -170.397994 L -65.487876 -164.785415 L -81.283020 -157.594299 L -96.299522 -148.893554 L -110.393562 -138.766540 L -123.430122 -127.310241 L -135.284317 -114.634399 L -145.842590 -100.860458 L -155.003784 -86.120346 L -162.680191 -70.555274 L -168.798233 -54.314338 L -173.299331 -37.553108 L -176.140335 -20.432149 L -177.294067 -3.115466 L -176.749450 14.231059 L -174.511718 31.441265 L -170.602279 48.350284 L -165.058624 64.796150 L -157.933822 80.621307 L -149.296157 95.674186 L -139.228332 109.810577 L -127.826805 122.895065 Z "></path>
</g>
<g id="0xffff3500" class="materialsolid" stroke="none" fill-opacity="1.000000" fill="#ff3500">
<path id="arc" class="mesh2" fill-rule="evenodd" d="M -146.772293 117.324035 L -157.345367 102.710624 L -166.468566 87.150764 L -174.057815 70.787841 L -180.043167 53.772640 L -184.369491 36.261936 L -186.996917 18.417093 L -187.901245 0.402544 L -187.074111 -17.615715 L -184.523178 -35.471652 L -180.271911 -53.000728 L -174.359512 -70.041419 L -166.840454 -86.436714 L -157.783996 -102.035507 L -147.273651 -116.694107 L -135.406204 -130.277389 L -122.291053 -142.660217 L -108.049026 -153.728485 L -92.811370 -163.380203 L -76.718482 -171.526412 L -59.918670 -178.092086 L -42.566726 -183.016693 L -24.822544 -186.254867 L -6.849630 -187.776779 L 11.186398 -187.568405 L 29.119350 -185.631622 L 46.783973 -181.984329 L 64.017509 -176.660125 L 80.661132 -169.708053 L 96.561500 -161.192169 L 111.572082 -151.190963 L 125.554580 -139.796585 L 138.380126 -127.114044 L 149.930557 -113.260177 L 160.099411 -98.362663 L 168.793029 -82.558776 L 175.931274 -65.994140 L 181.448379 -48.821380 L 185.293487 -31.198760 L 187.431198 -13.288651 L 187.841781 4.743907 L 186.521469 22.732753 L 183.482437 40.512126 L 178.752685 57.918193 L 174.283859 56.470237 L 178.895385 39.499320 L 181.858444 22.164436 L 183.145736 4.625310 L 182.745407 -12.956436 L 180.661148 -30.418790 L 176.912170 -47.600849 L 171.532989 -64.344284 L 164.573211 -80.494812 L 156.096939 -95.903602 L 146.182296 -110.428672 L 134.920623 -123.936195 L 122.415718 -136.301681 L 108.782791 -147.411193 L 94.147460 -157.162368 L 78.644607 -165.465347 L 62.417068 -172.243621 L 45.614376 -177.434738 L 28.391365 -180.990844 L 10.906738 -182.879196 L -6.678390 -183.082366 L -24.201980 -181.598510 L -41.502555 -178.441284 L -58.420703 -173.639785 L -74.800521 -167.238265 L -90.491088 -159.295700 L -105.347801 -149.885269 L -119.233772 -139.093719 L -132.021057 -127.020454 L -143.591812 -113.776741 L -153.839401 -99.484626 L -162.669433 -84.275794 L -170.000518 -68.290390 L -175.765121 -51.675708 L -179.910095 -34.584861 L -182.397262 -17.175323 L -183.203704 0.392480 L -182.322006 17.956666 L -179.760253 35.355388 L -175.542098 52.428321 L -169.706359 69.018150 L -162.306854 84.972000 L -153.411743 100.142868 L -143.102996 114.390945 Z "></path>
</g>
<g id="0xffff1a00" class="materialsolid" stroke="none" fill-opacity="1.000000" fill="#ff1a00">
<path id="arc" class="mesh2" fill-rule="evenodd" d="M -161.902969 106.762771 L -171.429473 90.679679 L -179.363296 73.754135 L -185.630783 56.143386 L -190.173675 38.011039 L -192.949783 19.525556 L -193.933319 0.858673 L -193.115112 -17.816186 L -190.502807 -36.325531 L -186.120666 -54.497394 L -180.009368 -72.162948 L -172.225723 -89.158088 L -162.842041 -105.324920 L -151.945480 -120.513221 L -139.637283 -134.581924 L -126.031806 -147.400314 L -111.255439 -158.849273 L -95.445472 -168.822463 L -78.748779 -177.227249 L -61.320472 -183.985504 L -43.322479 -189.034454 L -24.921998 -192.327224 L -6.289985 -193.833175 L 12.400465 -193.538345 L 30.975711 -191.445480 L 49.263179 -187.574005 L 67.092971 -181.959884 L 84.299446 -174.655288 L 100.722747 -165.728073 L 116.210289 -155.261184 L 130.618194 -143.351852 L 143.812606 -130.110733 L 155.670928 -115.660827 L 166.083038 -100.136383 L 174.952133 -83.681632 L 182.195877 -66.449447 L 187.746932 -48.599922 L 191.553756 -30.298889 L 193.580978 -11.716361 L 193.809738 6.975013 L 192.237945 25.601589 L 188.880157 43.990314 L 183.767639 61.970352 L 176.947814 79.374664 L 172.524124 77.390296 L 179.173431 60.421096 L 184.158172 42.890556 L 187.431991 24.961547 L 188.964508 6.800637 L 188.741455 -11.423453 L 186.764923 -29.541416 L 183.053268 -47.384929 L 177.640975 -64.788215 L 170.578338 -81.589591 L 161.930953 -97.632980 L 151.779174 -112.769302 L 140.217300 -126.857955 L 127.352737 -139.768066 L 113.305038 -151.379653 L 98.204673 -161.584869 L 82.191963 -170.288909 L 65.415649 -177.410888 L 48.031600 -182.884658 L 30.201318 -186.659347 L 12.090453 -188.699890 L -6.132735 -188.987350 L -24.298950 -187.519042 L -42.239418 -184.308609 L -59.787460 -179.385864 L -76.780059 -172.796569 L -93.059341 -164.601913 L -108.474060 -154.878051 L -122.881011 -143.715301 L -136.146362 -131.217376 L -148.146850 -117.500396 L -158.770996 -102.691795 L -167.920089 -86.929138 L -175.509140 -70.358879 L -181.467651 -53.134956 L -185.740249 -35.417392 L -188.287246 -17.370782 L -189.084991 0.837206 L -188.126037 19.037418 L -185.419342 37.060764 L -180.990020 54.739799 L -174.879226 71.910285 L -167.143737 88.412689 L -157.855407 104.093711 Z "></path>
</g>
<g id="0xffff0000" class="materialsolid" stroke="none" fill-opacity="1.000000" fill="#ff0000">
<path id="arc" class="mesh2" fill-rule="evenodd" d="M -176.288909 94.391342 L -184.587844 76.907951 L -191.157836 58.704208 L -195.937362 39.950611 L -198.881652 20.822820 L -199.963119 1.499993 L -199.171646 -17.836883 L -196.514633 -37.006690 L -192.016998 -55.829879 L -185.720809 -74.130134 L -177.685104 -91.736061 L -167.985107 -108.482742 L -156.711685 -124.213325 L -143.970428 -138.780456 L -129.880676 -152.047714 L -114.574409 -163.890838 L -98.194984 -174.198867 L -80.895820 -182.875289 L -62.838943 -189.838790 L -44.193496 -195.024200 L -25.134107 -198.382904 L -5.839301 -199.883468 L 13.510197 -199.511840 L 32.733154 -197.271484 L 51.649517 -193.183410 L 70.082107 -187.285873 L 87.858276 -179.634140 L 104.811523 -170.299865 L 120.783065 -159.370498 L 135.623291 -146.948379 L 149.193191 -133.149887 L 161.365707 -118.104240 L 172.026794 -101.952377 L 181.076583 -84.845581 L 188.430328 -66.944084 L 194.019149 -48.415561 L 197.790725 -29.433553 L 199.709671 -10.175858 L 199.758056 9.177148 L 197.935409 28.444198 L 194.258819 47.444828 L 188.762710 66.001068 L 181.498565 83.939109 L 172.534408 101.090942 L 168.221054 98.563667 L 176.961105 81.840629 L 184.043655 64.351036 L 189.402359 46.258705 L 192.987045 27.733093 L 194.764114 8.947719 L 194.716934 -9.921463 L 192.845947 -28.697713 L 189.168685 -47.205173 L 183.719589 -65.270484 L 176.549667 -82.724449 L 167.726119 -99.403572 L 157.331573 -115.151634 L 145.463378 -129.821136 L 132.232711 -143.274673 L 117.763488 -155.386230 L 102.191238 -166.042373 L 85.661819 -175.143295 L 68.330055 -182.603729 L 50.358280 -188.353820 L 31.914825 -192.339706 L 13.172442 -194.524047 L -5.693318 -194.886383 L -24.505754 -193.423339 L -43.088657 -190.148590 L -61.267974 -185.092819 L -78.873428 -178.303405 L -95.740112 -169.843902 L -111.710052 -159.793563 L -126.633666 -148.246536 L -140.371170 -135.310943 L -152.793899 -121.107986 L -163.785476 -105.770675 L -173.242980 -89.442657 L -181.077804 -72.276885 L -187.216583 -54.434131 L -191.601776 -36.081523 L -194.192367 -17.390960 L -194.964050 1.462493 L -193.909606 20.302249 L -191.038940 38.951847 L -186.378890 57.236602 L -179.973144 74.985252 L -171.881683 92.031555 Z "></path>
</g>
</g>

</g>
</svg>
