<svg xmlns="http://www.w3.org/2000/svg" xmlns:xlink="http://www.w3.org/1999/xlink" width="720" height="405" viewBox="0 0 720 405">
<path id="background" d="M 0.0 0.0 L 720.0 0.0 L 720.0 405.0 L 0.0 405.0 Z" stroke="none" fill-opacity="1.000000" fill="#202020"></path>
<g transform="translate(360.000000, 202.500000) scale(1.000000, -1.000000) rotate(0.0) translate(0.0, 0.0)">
<g id="32d2fa64" transform="translate(0.0, 0.0) rotate(0.0) scale(1.000000, 1.000000)">
<g id="24e0e1ca" stroke="none" fill-opacity="1.000000" fill="#ff0000">
<path id="face.000" d="M 24.996093 0.0 L 24.876785 2.439313 L 24.519998 4.855340 L 23.929140 7.225018 L 23.109851 9.525725 L 22.069952 11.735497 L 20.819370 13.833241 L 19.370040 15.798929 L 17.735805 17.613800 L 15.932257 19.260526 L 13.976618 20.723388 L 11.887557 21.988422 L 9.685016 23.043550 L 7.390019 23.878698 L 5.024477 24.485900 L 4.898865 23.873754 L 7.205269 23.281732 L 9.442891 22.467460 L 11.590370 21.438711 L 13.627203 20.205303 L 15.533952 18.779012 L 17.292409 17.173456 L 18.885789 15.403957 L 20.298885 13.487409 L 21.518203 11.442111 L 22.532106 9.287582 L 23.330913 7.044393 L 23.906999 4.733957 L 24.254865 2.378330 L 24.371192 0.0 Z"></path>
</g>
<g id="1ede9f16" stroke="none" fill-opacity="1.000000" fill="#e5001a">
<path id="face.000" d="M 22.111997 21.769191 L 20.127531 23.616107 L 17.989437 25.282766 L 15.714030 26.756444 L 13.318682 28.025894 L 10.821675 29.081428 L 8.242066 29.914985 L 5.599547 30.520208 L 2.914289 30.892475 L 2.841431 30.120162 L 5.459559 29.757204 L 8.036015 29.167112 L 10.551133 28.354393 L 12.985716 27.325248 L 15.321181 26.087533 L 17.539701 24.650697 L 19.624343 23.025705 L 21.559196 21.224962 Z"></path>
</g>
<g id="528e1c4a" stroke="none" fill-opacity="1.000000" fill="#ca0035">
<path id="face.000" d="M 0.579047 37.058650 L -0.528968 37.059398 L -0.515743 36.132915 L 0.564570 36.132186 Z"></path>
</g>
<g id="6c008794" stroke="none" fill-opacity="1.000000" fill="#b0004f">
<path id="face.000" d="M -29.751493 31.179727 L -32.639980 28.141756 L -35.219650 24.837528 L -37.466102 21.298305 L -39.358078 17.557575 L -40.877677 13.650728 L -42.010520 9.614728 L -42.745891 5.487761 L -43.076835 1.308872 L -43.000217 -2.882399 L -42.516761 -7.046400 L -41.631046 -11.143733 L -40.351448 -15.135633 L -38.690074 -18.984331 L -36.662643 -22.653413 L -34.288345 -26.108165 L -31.589628 -29.315902 L -28.592037 -32.246273 L -25.323928 -34.871555 L -21.816225 -37.166908 L -18.102113 -39.110614 L -14.216732 -40.684288 L -10.196842 -41.873035 L -6.080478 -42.665615 L -1.906585 -43.054519 L 2.285346 -43.036079 L 6.455656 -42.610458 L 10.564887 -41.781692 L 14.574160 -40.557621 L 18.445545 -38.949821 L 22.142412 -36.973510 L 25.629781 -34.647380 L 28.874662 -31.993446 L 31.846355 -29.036811 L 34.516738 -25.805452 L 36.860553 -22.329942 L 38.855621 -18.643163 L 40.483062 -14.779996 L 41.727489 -10.776992 L 42.577117 -6.672024 L 43.023914 -2.503930 L 43.063648 1.687853 L 42.695949 5.863668 L 41.924293 9.984004 L 40.755981 14.009881 L 39.202068 17.903205 L 37.277252 21.627143 L 34.999744 25.146463 L 32.391098 28.427864 L 29.475992 31.440303 L 26.282007 34.155277 L 22.839359 36.547100 L 19.180622 38.593139 L 15.340414 40.274044 L 11.355066 41.573902 L 7.262285 42.480419 L 3.100793 42.985019 L -1.090034 43.082927 L -5.270550 42.773216 L -5.138787 41.703887 L -1.062784 42.005855 L 3.023274 41.910392 L 7.080728 41.418407 L 11.071190 40.534553 L 14.956903 39.267192 L 18.701107 37.628314 L 22.268377 35.633422 L 25.624954 33.301395 L 28.739093 30.654294 L 31.581321 27.717166 L 34.124752 24.517803 L 36.345321 21.086465 L 38.222015 17.455627 L 39.737083 13.659634 L 40.876186 9.734404 L 41.628551 5.717076 L 41.987060 1.645656 L 41.948318 -2.441332 L 41.512691 -6.505224 L 40.684299 -10.507567 L 39.470989 -14.410496 L 37.884231 -18.177085 L 35.939041 -21.771696 L 33.653823 -25.160316 L 31.050197 -28.310890 L 28.152799 -31.193609 L 24.989040 -33.781196 L 21.588851 -36.049171 L 17.984407 -37.976078 L 14.209807 -39.543682 L 10.300765 -40.737152 L 6.294264 -41.545196 L 2.228212 -41.960178 L -1.858920 -41.978157 L -5.928466 -41.598972 L -9.941922 -40.826210 L -13.861314 -39.667182 L -17.649560 -38.132850 L -21.270820 -36.237735 L -24.690832 -33.999767 L -27.877237 -31.440118 L -30.799886 -28.583005 L -33.431133 -25.455463 L -35.746082 -22.087078 L -37.722824 -18.509723 L -39.342662 -14.757243 L -40.590270 -10.865140 L -41.453842 -6.870240 L -41.925212 -2.810339 L -41.999912 1.276150 L -41.677246 5.350567 L -40.960258 9.374361 L -39.855735 13.309460 L -38.374126 17.118637 L -36.529453 20.765850 L -34.339160 24.216590 L -31.823982 27.438213 L -29.007707 30.400234 Z"></path>
</g>
<g id="250e04e6" stroke="none" fill-opacity="1.000000" fill="#95006a">
<path id="face.000" d="M -49.106269 1.534960 L -49.022335 -3.254598 L -48.472362 -8.013216 L -47.461585 -12.695656 L -45.999607 -17.257404 L -44.100326 -21.655092 L -41.781799 -25.846912 L -39.066070 -29.793016 L -35.978954 -33.455890 L -32.549800 -36.800708 L -28.811206 -39.795680 L -24.798715 -42.412326 L -20.550474 -44.625774 L -16.106864 -46.414985 L -11.510134 -47.762939 L -6.803982 -48.656833 L -2.033146 -49.088165 L 2.757017 -49.052833 L 7.520972 -48.551174 L 12.213427 -47.587959 L 16.789773 -46.172344 L 21.206506 -44.317783 L 25.421636 -42.041908 L 29.395092 -39.366359 L 33.089103 -36.316566 L 36.468544 -32.921527 L 39.501293 -29.213516 L 42.158515 -25.227783 L 44.414958 -21.002218 L 46.249164 -16.576993 L 47.643692 -11.994176 L 48.585292 -7.297335 L 49.065010 -2.531122 L 49.078281 2.259153 L 48.624988 7.027953 L 47.709434 11.729939 L 46.340324 16.320415 L 44.530673 20.755737 L 42.297687 24.993743 L 39.662593 28.994142 L 36.650440 32.718906 L 33.289867 36.132621 L 29.612817 39.202838 L 25.654253 41.900371 L 21.451799 44.199569 L 17.045413 46.078582 L 12.476983 47.519538 L 7.789938 48.508747 L 3.028837 49.036800 L -1.761057 49.098682 L -6.534210 48.693798 L -11.245244 47.826000 L -10.964114 46.630348 L -6.370854 47.476451 L -1.717030 47.871215 L 2.953116 47.810882 L 7.595189 47.296031 L 12.165058 46.331550 L 16.619279 44.926616 L 20.915506 43.094581 L 25.012897 40.852863 L 28.872499 38.222770 L 32.457622 35.229309 L 35.734184 31.900934 L 38.671031 28.269289 L 41.240245 24.368900 L 43.417407 20.236845 L 45.181816 15.912405 L 46.516700 11.436692 L 47.409366 6.852254 L 47.851325 2.202675 L 47.838382 -2.467844 L 47.370662 -7.114902 L 46.452602 -11.694322 L 45.092933 -16.162569 L 43.304588 -20.477163 L 41.104557 -24.597089 L 38.513763 -28.483179 L 35.556831 -32.098491 L 32.261875 -35.408653 L 28.660217 -38.382202 L 24.786096 -40.990863 L 20.676343 -43.209838 L 16.370031 -45.018035 L 11.908092 -46.398262 L 7.332948 -47.337398 L 2.688092 -47.826515 L -1.982317 -47.860961 L -6.633882 -47.440414 L -11.222381 -46.568866 L -15.704194 -45.254608 L -20.036712 -43.510131 L -24.178749 -41.352016 L -28.090927 -38.800788 L -31.736057 -35.880695 L -35.079483 -32.619495 L -38.089420 -29.048191 L -40.737255 -25.200738 L -42.997817 -21.113716 L -44.849617 -16.825969 L -46.275043 -12.378266 L -47.260555 -7.812887 L -47.796775 -3.173233 L -47.878616 1.496586 Z"></path>
</g>
<g id="2f8702c4" stroke="none" fill-opacity="1.000000" fill="#7d0380">
<path id="face.000" d="M -40.500137 -37.453750 L -36.647476 -41.231136 L -32.444229 -44.614078 L -27.930599 -47.570220 L -23.149768 -50.071273 L -18.147472 -52.093315 L -12.971566 -53.617000 L -7.671566 -54.627754 L -2.298175 -55.115901 L 3.097201 -55.076782 L 8.462947 -54.510757 L 13.747733 -53.423252 L 18.900999 -51.824672 L 23.873447 -49.730300 L 28.617506 -47.160179 L 33.087791 -44.138896 L 37.241542 -40.695354 L 41.039012 -36.862495 L 44.443885 -32.676986 L 47.423576 -28.178871 L 49.949584 -23.411176 L 51.997745 -18.419517 L 53.548465 -13.251646 L 54.586906 -7.957002 L 55.103137 -2.586236 L 55.092216 2.809270 L 54.554248 8.177903 L 53.494384 13.468300 L 51.922760 18.629852 L 49.854408 23.613178 L 47.309120 28.370607 L 44.311244 32.856624 L 40.889461 37.028320 L 37.076503 40.845775 L 32.908847 44.272476 L 28.426368 47.275638 L 23.671943 49.826534 L 18.691059 51.900756 L 13.531365 53.478469 L 8.242220 54.544570 L 2.874227 55.088863 L -2.521263 55.106147 L -7.892634 54.596252 L -13.188499 53.564052 L -18.358196 52.019432 L -17.899240 50.718944 L -12.858787 52.224956 L -7.695318 53.231346 L -2.458232 53.728496 L 2.802371 53.711647 L 8.036166 53.180957 L 13.193081 52.141510 L 18.223785 50.603237 L 23.080146 48.580871 L 27.715709 46.093746 L 32.086128 43.165660 L 36.149593 39.824630 L 39.867225 36.102611 L 43.203464 32.035209 L 46.126392 27.661342 L 48.608047 23.022850 L 50.624691 18.164106 L 52.157028 13.131593 L 53.190395 7.973455 L 53.714912 2.739038 L 53.725559 -2.521580 L 53.222236 -7.758077 L 52.209754 -12.920355 L 50.697803 -17.959030 L 48.700847 -22.825897 L 46.237987 -27.474397 L 43.332786 -31.860063 L 40.013042 -35.940933 L 36.310504 -39.677970 L 32.260601 -43.035427 L 27.902069 -45.981178 L 23.276611 -48.487045 L 18.428474 -50.529056 L 13.404040 -52.087673 L 8.251374 -53.147991 L 3.019771 -53.699859 L -2.240720 -53.738006 L -7.479777 -53.262062 L -12.647277 -52.276576 L -17.693784 -50.790985 L -22.571025 -48.819496 L -27.232336 -46.380966 L -31.633125 -43.498729 L -35.731292 -40.200359 L -39.487636 -36.517406 Z"></path>
</g>
<g id="7c1d9b26" stroke="none" fill-opacity="1.000000" fill="#6b1786">
<path id="face.000" d="M -2.867369 -61.130123 L 2.986107 -61.124435 L 8.812266 -60.559539 L 14.557803 -59.440589 L 20.170154 -57.777839 L 25.597970 -55.586486 L 30.791601 -52.886585 L 35.703521 -49.702838 L 40.288803 -46.064369 L 44.505485 -42.004467 L 48.314998 -37.560279 L 51.682491 -32.772457 L 54.577148 -27.684804 L 56.972492 -22.343872 L 58.846611 -16.798521 L 60.182346 -11.099483 L 60.967494 -5.298898 L 61.194862 0.550164 L 60.862369 6.394193 L 59.973060 12.179723 L 58.535072 17.853824 L 56.561561 23.364585 L 54.070575 28.661588 L 51.084911 33.696372 L 47.631881 38.422874 L 43.743080 42.797855 L 39.454086 46.781288 L 34.804130 50.336730 L 29.835760 53.431652 L 24.594429 56.037734 L 19.128089 58.131145 L 13.486751 59.692726 L 7.722024 60.708187 L 1.886651 61.168243 L -3.965981 61.068687 L -9.782332 60.410427 L -15.509184 59.199481 L -21.094148 57.446937 L -26.486125 55.168819 L -25.823974 53.789600 L -20.566793 56.010765 L -15.121456 57.719497 L -9.537774 58.900169 L -3.866832 59.541973 L 1.839485 59.639041 L 7.528974 59.190483 L 13.149582 58.200405 L 18.649887 56.677864 L 23.979570 54.636791 L 29.089868 52.095859 L 33.934024 49.078308 L 38.467731 45.611755 L 42.649505 41.727909 L 46.441085 37.462303 L 49.807792 32.853961 L 52.718814 27.945049 L 55.147521 22.780471 L 57.071697 17.407478 L 58.473735 11.875231 L 59.340808 6.234339 L 59.664989 0.536410 L 59.443309 -5.166426 L 58.677791 -10.821996 L 57.375446 -16.378559 L 55.548183 -21.785276 L 53.212722 -26.992685 L 50.390430 -31.953144 L 47.107124 -36.621273 L 43.392848 -40.954357 L 39.281581 -44.912761 L 34.810935 -48.460266 L 30.021810 -51.564422 L 24.958023 -54.196823 L 19.665901 -56.333393 L 14.193858 -57.954582 L 8.591958 -59.045551 L 2.911455 -59.596328 L -2.795685 -59.601871 Z"></path>
</g>
<g id="349b9554" stroke="none" fill-opacity="1.000000" fill="#592b8c">
<path id="face.000" d="M 44.870029 -50.066665 L 49.448936 -45.549896 L 53.575283 -40.616245 L 57.211296 -35.310874 L 60.323707 -29.682327 L 62.884029 -23.782125 L 64.868820 -17.664266 L 66.259925 -11.384740 L 67.044609 -5.001020 L 67.215698 1.428469 L 66.771614 7.844886 L 65.716423 14.189504 L 64.059791 20.404258 L 61.816867 26.432270 L 59.008193 32.218372 L 55.659465 37.709602 L 51.801330 42.855712 L 47.469108 47.609600 L 42.702438 51.927757 L 37.544952 55.770664 L 32.043846 59.103145 L 26.249471 61.894714 L 20.214857 64.119804 L 13.995234 65.758071 L 7.647524 66.794502 L 1.229823 67.219627 L -5.199132 67.029541 L -11.580506 66.225990 L -17.855892 64.816337 L -23.967861 62.813468 L -29.860469 60.235725 L -35.479793 57.106697 L -34.592800 55.679027 L -29.113960 58.729835 L -23.368665 61.243133 L -17.409496 63.195930 L -11.290993 64.570343 L -5.069154 65.353805 L 1.199078 65.539131 L 7.456336 65.124641 L 13.645354 64.114120 L 19.709486 62.516815 L 25.593236 60.347343 L 31.242750 57.625568 L 36.606327 54.376396 L 41.634876 50.629566 L 46.282379 46.419361 L 50.506301 41.784320 L 54.267978 36.766864 L 57.532989 31.412914 L 60.271446 25.771465 L 62.458297 19.894153 L 64.073516 13.834768 L 65.102325 7.648764 L 65.535301 1.392757 L 65.368499 -4.875995 L 64.603431 -11.100122 L 63.247104 -17.222660 L 61.311927 -23.187572 L 58.815616 -28.940269 L 55.781017 -34.428100 L 52.235900 -39.600841 L 48.212715 -44.411148 L 43.748275 -48.814998 Z"></path>
</g>
<g id="11542f9" stroke="none" fill-opacity="1.000000" fill="#483f91">
<path id="face.000" d="M 73.121383 -4.575718 L 73.223953 2.434541 L 72.655975 9.422507 L 71.422653 16.324188 L 69.535278 23.076379 L 67.011138 29.617250 L 63.873348 35.886901 L 60.150634 41.827919 L 55.877101 47.385902 L 51.091869 52.509948 L 45.838768 57.153137 L 40.165904 61.272949 L 34.125217 64.831657 L 27.772031 67.796669 L 21.164524 70.140830 L 14.363205 71.842697 L 7.430354 72.886650 L 0.429460 73.263153 L -6.575366 72.968750 L -13.519979 72.006141 L -20.340782 70.384132 L -26.975318 68.117591 L -33.362827 65.227264 L -39.444816 61.739620 L -45.165596 57.686595 L -44.036453 56.244430 L -38.458698 60.196128 L -32.528759 63.596580 L -26.300937 66.414657 L -19.832263 68.624534 L -13.181980 70.205986 L -6.410982 71.144538 L 0.418723 71.431579 L 7.244596 71.064483 L 14.004125 70.046630 L 20.635414 68.387321 L 27.077732 66.101753 L 33.272087 63.210865 L 39.161758 59.741123 L 44.692802 55.724311 L 49.814579 51.197204 L 54.480171 46.201255 L 58.646873 40.782222 L 62.276512 34.989730 L 65.335861 28.876819 L 67.796897 22.499469 L 69.637084 15.916083 L 70.839576 9.186944 L 71.393356 2.373678 L 71.293350 -4.461325 Z"></path>
</g>
<g id="238d7eab" stroke="none" fill-opacity="1.000000" fill="#365396">
<path id="face.000" d="M 59.872642 51.994533 L 54.625682 57.482166 L 48.877956 62.442855 L 42.682163 66.831115 L 36.095088 70.606727 L 29.177127 73.735069 L 21.991691 76.187469 L 14.604656 77.941444 L 7.083736 78.980918 L -0.502120 79.296363 L -8.083374 78.884880 L -15.590528 77.750244 L -22.954759 75.902854 L -30.108560 73.359657 L -36.986351 70.143959 L -43.525081 66.285232 L -49.664810 61.818859 L -55.349250 56.785785 L -53.965518 55.366138 L -48.423191 60.273387 L -42.436954 64.628105 L -36.061695 68.390365 L -29.355846 71.525672 L -22.380889 74.005287 L -15.200764 75.806488 L -7.881290 76.912757 L -0.489567 77.313957 L 6.906643 77.006401 L 14.239540 75.992912 L 21.441900 74.282783 L 28.447698 71.891693 L 35.192714 68.841552 L 41.615112 65.160339 L 47.656013 60.881782 L 53.260044 56.045116 L 58.375831 50.694671 Z"></path>
</g>
<g id="108701cf" stroke="none" fill-opacity="1.000000" fill="#276592">
<path id="face.000" d="M 6.659228 85.071258 L -1.517526 85.318000 L -9.680335 84.780632 L -17.754177 83.464088 L -25.664848 81.380462 L -33.339649 78.548919 L -40.708038 74.995468 L -47.702301 70.752769 L -54.258159 65.859825 L -60.315357 60.361591 L -65.818229 54.308605 L -64.172775 52.950893 L -58.807476 58.852554 L -52.901710 64.213333 L -46.509746 68.983955 L -39.690338 73.120582 L -32.506156 76.585197 L -25.023227 79.345954 L -17.310321 81.377487 L -9.438326 82.661117 L -1.479588 83.185050 L 6.492747 82.944480 Z"></path>
</g>
<g id="3016f815" stroke="none" fill-opacity="1.000000" fill="#1e747d">
<path id="face.000" d="M -58.821716 69.911186 L -65.290031 63.912284 L -71.149635 57.317520 L -76.345893 50.188369 L -74.437248 48.933662 L -69.370895 55.884582 L -63.657783 62.314483 L -57.351177 68.163406 Z"></path>
</g>
<g id="57201fde" stroke="none" fill-opacity="1.000000" fill="#168368">
<path id="face.000" d="M -96.970932 9.117096 L -97.398124 -0.295981 L -96.913726 -9.706289 L -95.522270 -19.025751 L -93.236763 -28.167142 L -90.078620 -37.044906 L -86.077377 -45.575942 L -81.270507 -53.680419 L -75.702980 -61.282474 L -69.426910 -68.310951 L -62.501045 -74.700073 L -54.990207 -80.390045 L -46.964679 -85.327613 L -38.499591 -89.466545 L -29.674169 -92.768127 L -20.571010 -95.201446 L -11.275318 -96.743728 L -1.874094 -97.380546 L 7.544670 -97.105926 L 16.892822 -95.922439 L 26.082862 -93.841178 L 35.028781 -90.881607 L 43.646854 -87.071434 L 51.856407 -82.446319 L 59.580619 -77.049545 L 66.747184 -70.931632 L 73.289031 -64.149826 L 79.144927 -56.767620 L 84.260070 -48.854099 L 88.586578 -40.483325 L 92.083976 -31.733652 L 94.719497 -22.686964 L 96.468505 -13.427940 L 97.314613 -4.043239 L 97.249908 5.379306 L 96.275001 14.751503 L 94.399002 23.985633 L 91.639480 32.995273 L 88.022262 41.696090 L 83.581199 50.006660 L 78.357856 57.849189 L 72.401130 65.150276 L 65.766769 71.841598 L 58.516857 77.860519 L 50.719261 83.150703 L 42.446960 87.662635 L 33.777378 91.354095 L 24.791656 94.190528 L 15.573898 96.145393 L 6.210376 97.200378 L -3.211271 97.345626 L -12.602863 96.579765 L -21.876497 94.909965 L -30.945381 92.351860 L -39.724632 88.929382 L -48.132080 84.674583 L -56.089038 79.627273 L -63.521034 73.834686 L -70.358505 67.351051 L -76.537452 60.237041 L -82.000053 52.559246 L -86.695167 44.389522 L -84.527793 43.279785 L -79.950050 51.245265 L -74.624015 58.731117 L -68.599540 65.667274 L -61.933002 71.988822 L -54.686809 77.636589 L -46.928779 82.557723 L -38.731517 86.706161 L -30.171747 90.043067 L -21.329586 92.537216 L -12.287792 94.165267 L -3.130989 94.911987 L 6.055117 94.770370 L 15.184551 93.741760 L 24.171865 91.835769 L 32.932945 89.070243 L 41.385787 85.471076 L 49.451278 81.071937 L 57.053936 75.914001 L 64.122596 70.045555 L 70.591102 63.521526 L 76.398910 56.402957 L 81.491668 48.756492 L 85.821701 40.653690 L 89.348495 32.170391 L 92.039031 23.385993 L 93.868125 14.382717 L 94.818672 5.244823 L 94.881752 -3.942157 L 94.056793 -13.092243 L 92.351516 -22.119791 L 89.781875 -30.940311 L 86.371925 -39.471244 L 82.153572 -47.632747 L 77.166305 -55.348434 L 71.456802 -62.546085 L 65.078506 -69.158340 L 58.091102 -75.123306 L 50.560001 -80.385162 L 42.555683 -84.894653 L 34.153064 -88.609573 L 25.430793 -91.495147 L 16.470500 -93.524383 L 7.356054 -94.678276 L -1.827241 -94.946037 L -10.993434 -94.325141 L -20.056735 -92.821418 L -28.932315 -90.448928 L -37.537105 -87.229888 L -45.790565 -83.194419 L -53.615451 -78.380294 L -60.938526 -72.832572 L -67.691246 -66.603179 L -73.810409 -59.750408 L -79.238746 -52.338405 L -83.925445 -44.436546 L -87.826652 -36.118782 L -90.905845 -27.462965 L -93.134216 -18.550107 L -94.490882 -9.463632 L -94.963172 -0.288581 L -94.546653 8.889169 Z"></path>
</g>
<g id="1d56b3ea" stroke="none" fill-opacity="1.000000" fill="#0d9253">
<path id="face.000" d="M -80.175415 -65.346038 L -73.474678 -72.798866 L -66.084083 -79.568183 L -58.073032 -85.590446 L -49.516742 -90.809104 L -40.495544 -95.175170 L -31.094133 -98.647636 L -21.400783 -101.193916 L -11.506504 -102.790084 L -1.504190 -103.421173 L 8.512245 -103.081245 L 18.448760 -101.773498 L 28.212062 -99.510208 L 37.710483 -96.312629 L 46.854843 -92.210769 L 55.559291 -87.243148 L 63.742092 -81.456413 L 71.326423 -74.904899 L 78.241081 -67.650100 L 84.421134 -59.760139 L 89.808563 -51.309097 L 94.352790 -42.376319 L 98.011146 -33.045673 L 100.749290 -23.404762 L 102.541503 -13.544107 L 103.370956 -3.556287 L 103.229873 6.464922 L 102.119567 16.425434 L 100.050483 26.231727 L 97.042015 35.791732 L 93.122444 45.015693 L 88.328544 53.817008 L 82.705337 62.113037 L 76.305618 69.825889 L 69.189468 76.883148 L 61.423706 83.218566 L 53.081241 88.772651 L 44.240402 93.493255 L 34.984191 97.336059 L 25.399520 100.264984 L 15.576374 102.252525 L 5.606982 103.280029 L -4.415053 103.337844 L -14.395637 102.425422 L -24.241060 100.551345 L -33.858886 97.733200 L -43.158817 93.997444 L -52.053531 89.379142 L -60.459518 83.921684 L -68.297851 77.676284 L -75.494949 70.701591 L -81.983222 63.063087 L -87.701774 54.832481 L -92.596893 46.087062 L -96.622627 36.908939 L -94.207061 35.986213 L -90.281974 44.934890 L -85.509231 53.461673 L -79.933647 61.486507 L -73.607574 68.934051 L -66.590408 75.734375 L -58.948032 81.823646 L -50.752189 87.144668 L -42.079845 91.647506 L -33.012416 95.289871 L -23.635036 98.037567 L -14.035745 99.864791 L -4.304677 100.754402 L 5.466807 100.698028 L 15.186965 99.696212 L 24.764533 97.758361 L 34.109592 94.902656 L 43.134391 91.155929 L 51.754211 86.553337 L 59.888118 81.138107 L 67.459739 74.961074 L 74.397979 68.080245 L 80.637702 60.560211 L 86.120330 52.471580 L 90.794387 43.890304 L 94.615974 34.896938 L 97.549224 25.575935 L 99.566589 16.014799 L 100.649131 6.303299 L 100.786682 -3.467379 L 99.977966 -13.205503 L 98.230560 -22.819643 L 95.560874 -32.219532 L 91.993980 -41.316909 L 87.563354 -50.026371 L 82.310607 -58.266139 L 76.285049 -65.958847 L 69.543266 -73.032272 L 62.148540 -79.420005 L 54.170307 -85.062072 L 45.683471 -89.905502 L 36.767723 -93.904808 L 27.506761 -97.022453 L 17.987541 -99.229164 L 8.299439 -100.504219 L -1.466586 -100.835647 L -11.218842 -100.220336 L -20.865764 -98.664070 L -30.316781 -96.181449 L -39.483154 -92.795799 L -48.278823 -88.538879 L -56.621212 -83.450691 L -64.431983 -77.578979 L -71.637809 -70.978889 L -78.171035 -63.712387 Z"></path>
</g>
<g id="3a2a29fd" stroke="none" fill-opacity="1.000000" fill="#04a13e">
<path id="face.000" d="M -11.948046 -108.811637 L -1.339253 -109.457458 L 9.282164 -109.071403 L 19.816078 -107.657104 L 30.163179 -105.227905 L 40.225929 -101.806701 L 49.909461 -97.425743 L 59.122486 -92.126335 L 67.778152 -85.958427 L 75.794860 -78.980178 L 83.097030 -71.257369 L 89.615829 -62.862796 L 95.289810 -53.875610 L 100.065467 -44.380523 L 103.897796 -34.467056 L 106.750648 -24.228658 L 108.597145 -13.761855 L 109.419883 -3.165313 L 109.211090 7.461066 L 107.972740 18.017110 L 105.716514 28.403303 L 102.463676 38.521732 L 98.244895 48.277008 L 93.099937 57.577167 L 87.077308 66.334541 L 80.233787 74.466560 L 72.633888 81.896568 L 64.349243 88.554527 L 55.457977 94.377655 L 46.043891 99.311073 L 36.195743 103.308265 L 26.006372 106.331542 L 15.571831 108.352424 L 4.990493 109.351837 L -5.637891 109.320365 L -16.213127 108.258316 L -26.635519 106.175697 L -36.806812 103.092132 L -46.631118 99.036697 L -56.015830 94.047630 L -64.872459 88.171951 L -73.117530 81.465065 L -80.673309 73.990180 L -87.468559 65.817779 L -93.439224 57.024906 L -98.529029 47.694442 L -102.689971 37.914356 L -105.882843 27.776844 L -103.235778 27.082424 L -100.122726 36.966499 L -96.065803 46.502082 L -91.103256 55.599281 L -85.281845 64.172340 L -78.656478 72.140426 L -71.289588 79.428436 L -63.250652 85.967651 L -54.615432 91.696441 L -45.465339 96.560783 L -35.886642 100.514831 L -25.969631 103.521308 L -15.807799 105.551856 L -5.496944 106.587364 L 4.865731 106.618041 L 15.182536 105.643608 L 25.356214 103.673263 L 35.290851 100.725555 L 44.892799 96.828300 L 54.071529 92.018218 L 62.740516 86.340660 L 70.818038 79.849159 L 78.227943 72.604896 L 84.900382 64.676177 L 90.772438 56.137741 L 95.788772 47.070083 L 99.902091 37.558689 L 103.073608 27.693220 L 105.273429 17.566682 L 106.480812 7.274539 L 106.684387 -3.086181 L 105.882225 -13.417808 L 104.081886 -23.622943 L 101.300354 -33.605381 L 97.563835 -43.271011 L 92.907569 -52.528720 L 87.375442 -61.291233 L 81.019607 -69.475936 L 73.899993 -77.005676 L 66.083702 -83.809471 L 57.644424 -89.823173 L 48.661727 -94.990097 L 39.220279 -99.261535 L 29.409101 -102.597206 L 19.320674 -104.965675 L 9.050110 -106.344619 L -1.305772 -106.721031 L -11.649344 -106.091354 Z"></path>
</g>
<g id="31d87937" stroke="none" fill-opacity="1.000000" fill="#1bb22e">
<path id="face.000" d="M 71.562049 -90.658340 L 80.038925 -83.269630 L 87.757118 -75.091606 L 94.643455 -66.201797 L 100.632667 -56.684459 L 105.667976 -46.629806 L 109.701667 -36.133152 L 112.695503 -25.293989 L 114.621086 -14.215065 L 115.460174 -3.001397 L 115.204826 8.240721 L 113.857444 19.404724 L 111.430809 30.384792 L 107.947921 41.076843 L 103.441802 51.379524 L 97.955146 61.195178 L 91.539985 70.430763 L 84.257110 78.998741 L 76.175559 86.817886 L 67.371948 93.814086 L 57.929714 99.921020 L 47.938362 105.080802 L 37.492603 109.244529 L 26.691453 112.372718 L 15.637296 114.435729 L 4.434912 115.414001 L -6.809510 115.298271 L -17.989385 114.089622 L -28.998741 111.799522 L -39.733215 108.449676 L -50.091060 104.071838 L -59.974090 98.707496 L -69.288619 92.407516 L -77.946372 85.231590 L -85.865272 77.247756 L -92.970245 68.531700 L -99.193962 59.166027 L -104.477416 49.239524 L -108.770530 38.846275 L -112.032608 28.084802 L -114.232727 17.057115 L -111.376914 16.630687 L -109.231796 27.382682 L -106.051269 37.875122 L -101.865486 48.008537 L -96.714118 57.686882 L -90.645996 66.818405 L -83.718643 75.316574 L -75.997718 83.100799 L -67.556411 90.097328 L -58.474735 96.239807 L -48.838783 101.470046 L -38.739883 105.738441 L -28.273771 109.004539 L -17.539649 111.237388 L -6.639273 112.415824 L 4.324039 112.528663 L 15.246363 111.574836 L 26.024168 109.563400 L 36.555290 106.513412 L 46.739906 102.453781 L 56.481468 97.422996 L 65.687652 91.468734 L 74.271171 84.647438 L 82.150680 77.023773 L 89.251487 68.669998 L 95.506278 59.665302 L 100.855758 50.095039 L 105.249229 40.049922 L 108.645042 29.625173 L 111.011016 18.919607 L 112.324707 8.034703 L 112.573677 -2.926362 L 111.755561 -13.859688 L 109.878112 -24.661640 L 106.959136 -35.229824 L 103.026283 -45.464065 L 98.116851 -55.267349 L 92.277374 -64.546752 L 85.563186 -73.214324 L 78.037956 -81.187896 L 69.773002 -88.391883 Z"></path>
</g>
<g id="2fab0e89" stroke="none" fill-opacity="1.000000" fill="#50c423">
<path id="face.000" d="M 120.584625 -15.150983 L 121.487731 -3.306805 L 121.230270 8.568962 L 119.814682 20.362869 L 117.254501 31.962251 L 113.574195 43.256298 L 108.808898 54.137115 L 103.004158 64.500755 L 96.215415 74.248222 L 88.507514 83.286392 L 79.954109 91.528923 L 70.636901 98.897079 L 60.644893 105.320472 L 50.073539 110.737731 L 39.023838 115.097114 L 27.601333 118.356964 L 15.915159 120.486152 L 4.076944 121.464324 L -7.800217 121.282157 L -19.602863 119.941375 L -31.218242 117.454780 L -42.535392 113.846145 L -53.446201 109.149932 L -63.846435 103.411010 L -73.636741 96.684196 L -82.723602 89.033760 L -91.020202 80.532775 L -98.447273 71.262466 L -104.933876 61.311382 L -110.418052 50.774585 L -114.847396 39.752742 L -118.179603 28.351137 L -120.382827 16.678693 L -121.436035 4.846919 L -118.400138 4.725746 L -117.373260 16.261728 L -115.225112 27.642360 L -111.976211 38.758922 L -107.657608 49.505226 L -102.310539 59.778594 L -95.986091 69.480903 L -88.744689 78.519462 L -80.655509 86.807914 L -71.795829 94.267097 L -62.250282 100.825736 L -52.110050 106.421180 L -41.472007 111.000000 L -30.437788 114.518417 L -19.112792 116.942840 L -7.605211 118.250106 L 3.975020 118.427719 L 15.517279 117.473999 L 26.911302 115.398040 L 38.048240 112.219688 L 48.821704 107.969291 L 59.128768 102.687461 L 68.870979 96.424659 L 77.955261 89.240699 L 86.294837 81.204238 L 93.810028 72.392021 L 100.429061 62.888236 L 106.088684 52.783687 L 110.734840 42.174892 L 114.323143 31.163196 L 116.819320 19.853799 L 118.199516 8.354739 L 118.450546 -3.224135 L 117.570014 -14.772209 Z"></path>
</g>
<g id="e22e513" stroke="none" fill-opacity="1.000000" fill="#85d519">
<path id="face.000" d="M 101.352691 77.464729 L 93.571899 86.703247 L 84.952217 95.164459 L 75.570930 102.772506 L 65.512130 109.459182 L 54.866016 115.164550 L 43.728015 119.837440 L 32.197994 123.435989 L 20.379306 125.927902 L 8.377918 127.290863 L -3.698579 127.512641 L -15.741919 126.591255 L -27.644128 124.534957 L -39.298507 121.362190 L -50.600570 117.101394 L -61.448989 111.790756 L -71.746513 105.477920 L -81.400817 98.219444 L -90.325347 90.080429 L -98.440109 81.133827 L -105.672340 71.459846 L -111.957199 61.145221 L -117.238357 50.282421 L -121.468444 38.968833 L -124.609558 27.305881 L -126.633529 15.398131 L -127.522216 3.352335 L -127.267646 -8.723515 L -124.085952 -8.505427 L -124.334159 3.268526 L -123.467697 15.013178 L -121.494323 26.623235 L -118.431739 37.994609 L -114.307395 49.025363 L -109.158279 59.616592 L -103.030532 69.673355 L -95.979110 79.105484 L -88.067222 87.828414 L -79.365798 95.763969 L -69.952850 102.840972 L -59.912769 108.995994 L -49.335556 114.173851 L -38.316047 118.328132 L -26.953027 121.421577 L -15.348371 123.426475 L -3.606115 124.324829 L 8.168470 124.108596 L 19.869823 122.779708 L 31.393043 120.350090 L 42.634819 116.841506 L 53.494365 112.285438 L 63.874332 106.722709 L 73.681655 100.203193 L 82.828407 92.785346 L 91.232597 84.535667 L 98.818878 75.528114 Z"></path>
</g>
<g id="10d7effc" stroke="none" fill-opacity="1.000000" fill="#b9e70e">
<path id="face.000" d="M 18.724346 132.281173 L 6.170966 133.457214 L -6.437374 133.444625 L -18.988382 132.243530 L -31.370269 129.864608 L -43.472759 126.329040 L -55.188060 121.668342 L -66.411834 115.924018 L -77.044113 109.147209 L -86.990203 101.398292 L -96.161514 92.746276 L -104.476371 83.268218 L -111.860717 73.048530 L -118.248779 62.178249 L -123.583663 50.754177 L -127.817855 38.878063 L -130.913650 26.655687 L -132.843460 14.195901 L -133.590103 1.609681 L -133.146942 -10.990875 L -131.517913 -23.493541 L -128.229965 -22.906204 L -129.818267 -10.716103 L -130.250366 1.569439 L -129.522384 13.841004 L -127.640808 25.989295 L -124.622421 37.906112 L -120.494079 49.485321 L -115.292564 60.623794 L -109.064201 71.222320 L -101.864471 81.186515 L -93.757484 90.427619 L -84.815452 98.863334 L -75.118011 106.418533 L -64.751541 113.025917 L -53.808364 118.626640 L -42.385940 123.170822 L -30.586013 126.617988 L -18.513673 128.937438 L -6.276440 130.108520 L 6.016692 130.120788 L 18.256238 128.974151 Z"></path>
</g>
<g id="7ca3d601" stroke="none" fill-opacity="1.000000" fill="#eef904">
<path id="face.000" d="M -83.048828 112.251342 L -93.193679 103.982734 L -102.519813 94.800636 L -110.945289 84.785690 L -118.396110 74.025894 L -124.806800 62.615768 L -130.121032 50.655559 L -134.292160 38.250331 L -137.283493 25.509067 L -139.068786 12.543706 L -139.632324 -0.531852 L -138.969192 -13.602739 L -137.085189 -26.554124 L -133.996887 -39.272228 L -130.646957 -38.290424 L -133.658065 -25.890272 L -135.494964 -13.262670 L -136.141525 -0.518555 L -135.592071 12.230114 L -133.851409 24.871341 L -130.934860 37.294075 L -126.868019 49.389167 L -121.686637 61.050376 L -115.436210 72.175247 L -108.171661 82.666046 L -99.956825 92.430618 L -90.863845 101.383171 L -80.972610 109.445060 Z"></path>
</g>
<g id="4f915132" stroke="none" fill-opacity="1.000000" fill="#ffed00">
<path id="face.000" d="M -143.892623 22.666210 L -145.362823 9.407382 L -145.613861 -3.930343 L -144.643692 -17.235105 L -142.460418 -30.395320 L -139.082351 -43.300617 L -134.537841 -55.842758 L -131.174407 -54.446689 L -135.605300 -42.218105 L -138.898910 -29.635437 L -141.027603 -16.804227 L -141.973526 -3.832084 L -141.728744 9.172198 L -140.295318 22.099555 Z"></path>
</g>
<g id="4d5ebbc6" stroke="none" fill-opacity="1.000000" fill="#ffd300">
<path id="face.000" d="M -123.346771 -88.309638 L -114.130935 -99.935722 L -103.823547 -110.606010 L -92.523193 -120.218460 L -80.337936 -128.681137 L -67.384330 -135.913101 L -53.786258 -141.845184 L -39.673770 -146.420669 L -25.181844 -149.595764 L -10.449077 -151.340133 L 4.383625 -151.637069 L 19.174404 -150.483749 L 33.781795 -147.891204 L 48.066101 -143.884216 L 61.890697 -138.501113 L 75.123374 -131.793395 L 87.637565 -123.825187 L 99.313583 -114.672714 L 110.039764 -104.423507 L 119.713523 -93.175590 L 128.242340 -81.036544 L 135.544647 -68.122451 L 141.550582 -54.556838 L 146.202743 -40.469444 L 149.456619 -25.994995 L 151.281066 -11.271933 L 151.658660 3.558935 L 150.585800 18.355766 L 148.072723 32.977043 L 144.143478 47.282928 L 138.835632 61.136589 L 132.199981 74.405548 L 124.299942 86.962882 L 115.211097 98.688507 L 105.020370 109.470268 L 93.825225 119.205047 L 81.732742 127.799751 L 68.858558 135.172180 L 55.325809 141.251815 L 41.263919 145.980499 L 26.807380 149.313034 L 12.094455 151.217529 L -2.734140 151.675781 L -17.536586 150.683395 L -32.171314 148.249877 L -46.498352 144.398483 L -60.380680 139.166061 L -73.685523 132.602645 L -86.285629 124.771018 L -98.060516 115.746078 L -108.897529 105.614135 L -118.693054 94.472099 L -127.353393 82.426528 L -134.795715 69.592628 L -140.948852 56.093139 L -145.753952 42.057174 L -149.165039 27.618970 L -151.149520 12.916620 L -151.688400 -1.909263 L -150.776535 -16.716888 L -148.422637 -31.364633 L -144.649215 -45.712402 L -139.492370 -59.622978 L -133.001403 -72.963317 L -129.676361 -71.139244 L -136.005050 -58.132404 L -141.032989 -44.569591 L -144.712081 -30.580518 L -147.007125 -16.298965 L -147.896194 -1.861532 L -147.370788 12.593706 L -145.435913 26.928497 L -142.110107 41.005741 L -137.425140 54.690811 L -131.425827 67.852813 L -124.169563 80.365867 L -115.725730 92.110298 L -106.175094 102.973785 L -95.609001 112.852432 L -84.128501 121.651748 L -71.843383 129.287582 L -58.871162 135.686904 L -45.335891 140.788528 L -31.367031 144.543640 L -17.098173 146.916320 L -2.665786 147.883895 L 11.792094 147.437103 L 26.137195 145.580215 L 40.232318 142.330993 L 53.942665 137.720520 L 67.137092 131.792877 L 79.689422 124.604766 L 91.479606 116.224929 L 102.394866 106.733512 L 112.330825 96.221298 L 121.192451 84.788810 L 128.894989 72.545410 L 135.364761 59.608177 L 140.539901 46.100856 L 144.370910 32.152618 L 146.821166 17.896873 L 147.867202 3.469962 L 147.499038 -10.990134 L 145.720199 -25.345123 L 142.547683 -39.457706 L 138.011825 -53.192920 L 132.156036 -66.419387 L 125.036285 -79.010627 L 116.720695 -90.846199 L 107.288780 -101.812919 L 96.830741 -111.805892 L 85.446624 -120.729560 L 73.245285 -128.498565 L 60.343429 -135.038589 L 46.864448 -140.287109 L 32.937252 -144.193923 L 18.695043 -146.721664 L 4.274035 -147.846145 L -10.187850 -147.556640 L -24.552297 -145.855880 L -38.681930 -142.760147 L -52.441600 -138.299057 L -65.699722 -132.515274 L -78.329498 -125.464111 L -90.210121 -117.212997 L -101.227966 -107.840858 L -111.277656 -97.437332 L -120.263107 -86.101905 Z"></path>
</g>
<g id="5f14da66" stroke="none" fill-opacity="1.000000" fill="#ffb900">
<path id="face.000" d="M -26.975259 -155.410232 L -11.622174 -157.305206 L 3.842698 -157.687149 L 19.270610 -156.552383 L 34.513168 -153.911804 L 49.423763 -149.790832 L 63.858978 -144.229095 L 77.679962 -137.280105 L 90.753776 -129.010681 L 102.954681 -119.500358 L 114.165321 -108.840629 L 124.277854 -97.134017 L 133.195037 -84.493125 L 140.831069 -71.039527 L 147.112518 -56.902641 L 151.978973 -42.218441 L 155.383605 -27.128160 L 157.293685 -11.776946 L 157.690856 3.687544 L 156.571258 19.116565 L 153.945693 34.361717 L 149.839401 49.276355 L 144.291870 63.717033 L 137.356460 77.544845 L 129.099899 90.626792 L 119.601600 102.837051 L 108.952911 114.058174 L 97.256248 124.182228 L 84.624137 133.111831 L 71.178062 140.761093 L 57.047363 147.056457 L 42.367958 151.937347 L 27.281030 155.356842 L 11.931704 157.282028 L -3.532387 157.694396 L -18.962503 156.589996 L -34.210227 153.979415 L -49.128902 149.887802 L -63.575031 144.354492 L -77.409660 137.432708 L -90.499732 129.189010 L -102.719329 119.702735 L -113.950920 109.065086 L -124.086471 97.378395 L -133.028503 84.755065 L -140.690994 71.316528 L -147.000259 57.192031 L -151.895599 42.517429 L -155.329925 27.433876 L -157.270217 12.086452 L -157.697799 -3.377225 L -156.608566 -18.808422 L -154.013015 -34.058708 L -149.936065 -48.981399 L -144.416976 -63.432964 L -137.508804 -77.274398 L -129.277999 -90.372573 L -126.046051 -88.113258 L -134.071075 -75.342544 L -140.806549 -61.847145 L -146.187667 -47.756866 L -150.162689 -33.207241 L -152.693359 -18.338211 L -153.755355 -3.292795 L -153.338470 11.784292 L -151.446670 26.748031 L -148.098205 41.454494 L -143.325256 55.762229 L -137.173721 69.533615 L -129.702789 82.636192 L -120.984313 94.943931 L -111.102142 106.338455 L -100.151344 116.710159 L -88.237236 125.959297 L -75.474426 133.996887 L -61.985656 140.745635 L -47.900676 146.140609 L -33.354972 150.129943 L -18.488441 152.675247 L -3.444077 153.752044 L 11.633412 153.349990 L 26.599004 151.472930 L 41.308757 148.138916 L 55.621181 143.380050 L 69.398612 137.242065 L 82.508529 129.784042 L 94.824851 121.077674 L 106.229087 111.206718 L 116.611564 100.266128 L 125.872413 88.361129 L 133.922561 75.606224 L 140.684570 62.124107 L 146.093414 48.044448 L 150.097061 33.502674 L 152.656982 18.638652 L 153.748580 3.595356 L 153.361358 -11.482522 L 151.499023 -26.449956 L 148.179504 -41.162979 L 143.434707 -55.480079 L 137.310287 -69.263542 L 129.865158 -82.380790 L 121.170913 -94.705665 L 111.311187 -106.119621 L 100.380821 -116.512855 L 88.484931 -125.785408 L 75.737960 -133.848114 L 62.262500 -140.623382 L 48.188171 -146.046066 L 33.650341 -150.064025 L 18.788846 -152.638580 L 3.746631 -153.744979 L -11.331620 -153.372589 L -26.300878 -151.524978 Z"></path>
</g>
<g id="33c8f8d8" stroke="none" fill-opacity="1.000000" fill="#ff9e00">
<path id="face.000" d="M 93.242210 -134.631668 L 105.780418 -125.021186 L 117.334304 -114.247344 L 127.796356 -102.410385 L 137.069198 -89.620460 L 145.066574 -75.996589 L 151.714065 -61.665538 L 156.949783 -46.760665 L 160.725036 -31.420669 L 163.004669 -15.788292 L 163.767501 -0.008999 L 163.006408 15.770377 L 160.728485 31.403005 L 156.954925 46.743412 L 151.720825 61.648860 L 145.074935 75.980644 L 137.079055 89.605400 L 127.807609 102.396339 L 117.346862 114.234451 L 105.794158 125.009559 L 93.257003 134.621414 L 79.852058 142.980575 L 65.704063 150.009231 L 50.944664 155.642013 L 35.711208 159.826477 L 20.145444 162.523712 L 4.392220 163.708587 L -11.401873 163.370101 L -27.089870 161.511398 L -42.525783 158.149780 L -57.565982 153.316513 L -72.070510 147.056579 L -85.904380 139.428222 L -98.938896 130.502456 L -111.052742 120.362289 L -122.133209 109.102134 L -132.077178 96.826728 L -140.792114 83.650314 L -148.196929 69.695510 L -154.222717 55.092159 L -158.813415 39.976154 L -161.926300 24.488161 L -163.532394 8.772294 L -163.616744 -7.025200 L -162.178604 -22.757326 L -159.231323 -38.277683 L -154.802337 -53.441856 L -148.932861 -68.108734 L -141.677505 -82.141830 L -133.103790 -95.410568 L -123.291496 -107.791473 L -120.209213 -105.096687 L -129.776199 -93.025306 L -138.135574 -80.088279 L -145.209533 -66.406013 L -150.932281 -52.105812 L -155.250534 -37.320743 L -158.124145 -22.188392 L -159.526336 -6.849570 L -159.444076 8.552988 L -157.878143 23.875959 L -154.843078 38.976753 L -150.367156 53.714855 L -144.492004 67.953117 L -137.272323 81.559059 L -128.775253 94.406059 L -119.079879 106.374580 L -108.276435 117.353240 L -96.465431 127.239891 L -83.756782 135.942520 L -70.268745 143.380172 L -56.126831 149.483596 L -41.462642 154.196029 L -26.412624 157.473617 L -11.116827 159.285858 L 4.282415 159.615875 L 19.641809 158.460617 L 34.818428 155.830825 L 49.671047 151.750961 L 64.061462 146.259017 L 77.855758 139.406066 L 90.925575 131.255889 L 103.149307 121.884323 L 114.413185 111.378593 L 124.612426 99.836441 L 133.652084 87.365272 L 141.448059 74.081130 L 147.927825 60.107643 L 153.031051 45.574829 L 156.710281 30.617929 L 158.931259 15.376117 L 159.673324 -0.008774 L 158.929565 -15.393586 L 156.706909 -30.635154 L 153.026046 -45.591651 L 147.921218 -60.123901 L 141.439926 -74.096672 L 133.642471 -87.379951 L 124.601440 -99.850135 L 114.400947 -111.391166 L 103.135917 -121.895668 L 90.911148 -131.265869 Z"></path>
</g>
<g id="18eb70ab" stroke="none" fill-opacity="1.000000" fill="#ff8400">
<path id="face.000" d="M 166.825424 -31.649240 L 169.100967 -15.403409 L 169.798187 0.986190 L 168.910629 17.366586 L 166.446548 33.584888 L 162.428955 49.489734 L 156.895339 64.932670 L 149.897354 79.769561 L 141.500305 93.861923 L 131.782592 107.078231 L 120.834877 119.295150 L 108.759368 130.398620 L 95.668754 140.285018 L 81.685226 148.862091 L 66.939300 156.049758 L 51.568595 161.780960 L 35.716579 166.002182 L 19.531208 168.674041 L 3.163541 169.771591 L -13.233652 169.284591 L -29.507328 167.217559 L -45.505599 163.589843 L -61.079151 158.435272 L -76.082626 151.801956 L -90.375984 143.751800 L -103.825828 134.359954 L -116.306617 123.714057 L -127.701866 111.913497 L -137.905227 99.068397 L -146.821456 85.298645 L -154.367340 70.732765 L -160.472442 55.506710 L -165.079788 39.762588 L -168.146377 23.647340 L -169.643569 7.311384 L -169.557418 -9.092812 L -167.888717 -25.412143 L -164.653030 -41.494293 L -159.880584 -57.189155 L -153.615890 -72.350250 L -145.917434 -86.836067 L -136.857070 -100.511405 L -126.519355 -113.248626 L -115.000785 -124.928855 L -112.125770 -121.805633 L -123.356376 -110.417411 L -133.435638 -97.998619 L -142.269500 -84.665168 L -149.775497 -70.541488 L -155.883575 -55.759426 L -160.536712 -40.456932 L -163.691497 -24.776840 L -165.318496 -8.865492 L -165.402496 7.128599 L -163.942718 23.056158 L -160.952789 38.768524 L -156.460632 54.119045 L -150.508148 68.964454 L -143.150924 83.166183 L -134.457595 96.591690 L -124.509330 109.115669 L -113.398956 120.621215 L -101.230186 131.000961 L -88.116584 140.158004 L -74.180557 148.006912 L -59.552173 154.474395 L -44.367961 159.500106 L -28.769645 163.037139 L -12.902810 165.052459 L 3.084452 165.527297 L 19.042926 164.457199 L 34.823665 161.852127 L 50.279380 157.736434 L 65.265815 152.148529 L 79.643096 145.140548 L 93.277038 136.777908 L 106.040382 127.138656 L 117.814010 116.312759 L 128.488021 104.401283 L 137.962799 91.515373 L 146.149932 77.775321 L 152.972961 63.309352 L 158.368225 48.252490 L 162.285400 32.745269 L 164.687866 16.932420 L 165.553237 0.961536 L 164.873443 -15.018323 L 162.654800 -30.858011 Z"></path>
</g>
<g id="607a1a87" stroke="none" fill-opacity="1.000000" fill="#ff6a00">
<path id="face.000" d="M 146.098403 97.842033 L 135.952606 111.510955 L 124.532615 124.134735 L 111.945434 135.595077 L 98.309051 145.784545 L 83.751274 154.607666 L 68.408538 161.981719 L 52.424644 167.837600 L 35.949401 172.120437 L 19.137224 174.790084 L 2.145683 175.821502 L -14.865967 175.205047 L -31.738285 172.946472 L -48.313140 169.066986 L -64.435180 163.602920 L -79.953308 156.605468 L -94.722061 148.140258 L -108.603050 138.286605 L -121.466156 127.136848 L -133.190811 114.795516 L -143.667160 101.378265 L -152.796981 87.010848 L -160.494720 71.827926 L -166.688217 55.971801 L -171.319442 39.591075 L -174.344985 22.839288 L -175.736480 5.873439 L -175.480880 -11.147459 L -173.580596 -28.063875 L -170.053436 -44.717269 L -164.932449 -60.951549 L -158.265640 -76.614562 L -150.115493 -91.559501 L -140.558395 -105.646301 L -129.683914 -118.742950 L -117.593971 -130.726669 L -104.401885 -141.485168 L -101.791839 -137.948028 L -114.654121 -127.458503 L -126.441818 -115.774383 L -137.044433 -103.005149 L -146.362609 -89.270515 L -154.309005 -74.699195 L -160.809143 -59.427761 L -165.802093 -43.599334 L -169.241088 -27.362279 L -171.093856 -10.868772 L -171.343063 5.726603 L -169.986358 22.268306 L -167.036453 38.601303 L -162.521011 54.572505 L -156.482345 70.032226 L -148.977066 84.835578 L -140.075485 98.843811 L -129.861053 111.925628 L -118.429504 123.958427 L -105.887977 134.829437 L -92.354019 144.436752 L -77.954475 152.690338 L -62.824302 159.512847 L -47.105312 164.840316 L -30.944831 168.622833 L -14.494318 170.824920 L 2.092041 171.425964 L 18.658794 170.420333 L 35.050666 167.817428 L 51.114028 163.641662 L 66.698326 157.932174 L 81.657493 150.742477 L 95.851333 142.139938 L 109.146797 132.205200 L 121.419303 121.031379 L 132.553802 108.723190 L 142.445938 95.395980 Z"></path>
</g>
<g id="6841a152" stroke="none" fill-opacity="1.000000" fill="#ff4f00">
<path id="face.000" d="M 36.685611 178.129684 L 19.234720 180.848129 L 1.602435 181.861083 L -16.044961 181.158981 L -33.541042 178.748474 L -50.720821 174.652282 L -67.422271 168.909011 L -83.487899 161.572860 L -98.766189 152.712982 L -113.113075 142.412963 L -126.393234 130.769912 L -138.481445 117.893615 L -149.263702 103.905540 L -158.638336 88.937583 L -166.516937 73.130897 L -172.825180 56.634555 L -177.503616 39.604114 L -180.508087 22.200187 L -181.810272 4.586902 L -181.397903 -13.069640 L -179.274871 -30.602928 L -175.461166 -47.847614 L -169.992782 -64.641075 L -162.921295 -80.824935 L -154.313354 -96.246582 L -144.250167 -110.760574 L -132.826644 -124.230033 L -120.150489 -136.527938 L -106.341247 -147.538314 L -91.529159 -157.157348 L -89.240936 -153.228424 L -103.682723 -143.849868 L -117.146728 -133.114746 L -129.505981 -121.124290 L -140.643920 -107.991561 L -150.455535 -93.840415 L -158.848266 -78.804313 L -165.742980 -63.025051 L -171.074645 -46.651428 L -174.792999 -29.837856 L -176.862976 -12.742899 L -177.265029 4.472229 L -175.995391 21.645183 L -173.066024 38.614009 L -168.504562 55.218688 L -162.354003 71.302635 L -154.672378 86.714149 L -145.532119 101.307907 L -135.019409 114.946281 L -123.233406 127.500656 L -110.285247 138.852645 L -96.297042 148.895172 L -81.400703 157.533538 L -65.736717 164.686294 L -49.452800 170.285964 L -32.702518 174.279769 L -15.643836 176.630020 L 1.562374 177.314544 L 18.753852 176.326919 L 35.768470 173.676437 Z"></path>
</g>
<g id="4d3d4eaa" stroke="none" fill-opacity="1.000000" fill="#ff3500">
<path id="face.000" d="M -102.104972 157.739059 L -116.995727 147.034133 L -130.772003 134.928588 L -143.302551 121.537712 L -154.468032 106.989097 L -164.162063 91.421310 L -172.292297 74.982658 L -178.781311 57.829734 L -183.567291 40.125930 L -186.604614 22.039890 L -187.864364 3.743903 L -187.334564 -14.587748 L -185.020217 -32.780441 L -180.943405 -50.660865 L -175.142944 -68.058708 L -167.674087 -84.808227 L -158.608016 -100.749885 L -148.031051 -115.731796 L -136.043960 -129.611267 L -122.760917 -142.256088 L -108.308494 -153.545791 L -92.824325 -163.372833 L -76.455924 -171.643615 L -74.544532 -167.352523 L -90.503715 -159.288513 L -105.600776 -149.707138 L -119.691902 -138.699691 L -132.642852 -126.370986 L -144.330276 -112.838500 L -154.642807 -98.231132 L -163.482254 -82.688026 L -170.764373 -66.357238 L -176.419830 -49.394348 L -180.394714 -31.960929 L -182.651199 -14.223054 L -183.167770 3.650305 L -181.939498 21.488893 L -178.978103 39.122779 L -174.311782 56.383987 L -167.985000 73.108100 L -160.058013 89.135780 L -150.606323 104.314369 L -139.720001 118.499282 L -127.502708 131.555374 L -114.070838 143.358291 L -99.552352 153.795593 Z"></path>
</g>
<g id="64a6c6e1" stroke="none" fill-opacity="1.000000" fill="#ff1a00">
<path id="face.000" d="M -189.314331 42.082660 L -192.390274 24.430446 L -193.823898 6.569688 L -193.602966 -11.347152 L -191.729354 -29.167129 L -188.219055 -46.738124 L -183.102050 -63.910140 L -176.421997 -80.536598 L -168.235946 -96.475555 L -158.613754 -111.590965 L -147.637573 -125.753776 L -135.401092 -138.843109 L -122.008773 -150.747222 L -107.574943 -161.364486 L -92.222793 -170.604278 L -76.083404 -178.387725 L -59.294532 -184.648376 L -57.812171 -180.032180 L -74.181320 -173.928039 L -89.917228 -166.339172 L -104.885566 -157.330383 L -118.958557 -146.978546 L -132.016067 -135.372039 L -143.946640 -122.609947 L -154.648406 -108.801185 L -164.030044 -94.063674 L -172.011444 -78.523185 L -178.524505 -62.312389 L -183.513595 -45.569671 L -186.936126 -28.437952 L -188.762893 -11.063474 L -188.978317 6.405446 L -187.580520 23.819686 L -184.581481 41.030593 Z"></path>
</g>
<g id="2064c71e" stroke="none" fill-opacity="1.000000" fill="#ff0000">
<path id="face.000" d="M -169.546310 -106.026161 L -159.336624 -120.827743 L -147.838577 -134.652343 L -135.145172 -147.388198 L -121.359024 -158.932327 L -106.591613 -169.191390 L -90.962341 -178.082443 L -74.597587 -185.533554 L -57.629657 -191.484527 L -40.195758 -195.887222 L -39.190864 -190.990051 L -56.188915 -186.697418 L -72.732650 -180.895233 L -88.688285 -173.630371 L -103.926834 -164.961624 L -118.325050 -154.959030 L -131.766540 -143.703506 L -144.142623 -131.286041 L -155.353210 -117.807052 L -165.307662 -103.375518 Z"></path>
</g>
</g>

</g>
</svg>
