# g: 1, v: 54, vt: 70, vn: 54, f: 108
o 44c8afef

# v: 54, vt: 70, vn: 54, f: 108
g Torus

v 0.312500 0.0 0.0
v 0.239388 0.0 0.200871
v 0.054265 0.0 0.307752
v -0.156250 0.0 0.270632
v -0.293653 0.0 0.106881
v -0.293653 0.0 -0.106881
v -0.156249 0.0 -0.270632
v 0.054265 0.0 -0.307752
v 0.239388 0.0 -0.200871
v 0.406250 0.162379 0.0
v 0.311205 0.162379 0.261132
v 0.070544 0.162379 0.400078
v -0.203125 0.162379 0.351822
v -0.381750 0.162379 0.138945
v -0.381750 0.162379 -0.138945
v -0.203124 0.162379 -0.351822
v 0.070544 0.162379 -0.400078
v 0.311205 0.162379 -0.261132
v 0.593750 0.162379 0.0
v 0.454838 0.162379 0.381655
v 0.103103 0.162379 0.584729
v -0.296875 0.162379 0.514202
v -0.557942 0.162379 0.203074
v -0.557942 0.162379 -0.203074
v -0.296874 0.162379 -0.514202
v 0.103103 0.162379 -0.584729
v 0.454838 0.162379 -0.381655
v 0.687500 0.0 0.0
v 0.526655 0.0 0.441916
v 0.119383 0.0 0.677055
v -0.343750 0.0 0.595392
v -0.646038 0.0 0.235138
v -0.646038 0.0 -0.235138
v -0.343749 0.0 -0.595392
v 0.119383 0.0 -0.677055
v 0.526655 0.0 -0.441916
v 0.593750 -0.162379 0.0
v 0.454838 -0.162379 0.381655
v 0.103103 -0.162379 0.584729
v -0.296875 -0.162379 0.514202
v -0.557942 -0.162379 0.203074
v -0.557942 -0.162379 -0.203074
v -0.296874 -0.162379 -0.514202
v 0.103103 -0.162379 -0.584729
v 0.454838 -0.162379 -0.381655
v 0.406249 -0.162379 0.0
v 0.311205 -0.162379 0.261132
v 0.070544 -0.162379 0.400078
v -0.203125 -0.162379 0.351822
v -0.381750 -0.162379 0.138945
v -0.381750 -0.162379 -0.138945
v -0.203124 -0.162379 -0.351822
v 0.070544 -0.162379 -0.400078
v 0.311205 -0.162379 -0.261132

vt 0.0 1.000000
vt 0.111111 1.000000
vt 0.222222 1.000000
vt 0.333333 1.000000
vt 0.444444 1.000000
vt 0.555555 1.000000
vt 0.666666 1.000000
vt 0.777777 1.000000
vt 0.888888 1.000000
vt 1.000000 1.000000
vt 0.0 0.833333
vt 0.111111 0.833333
vt 0.222222 0.833333
vt 0.333333 0.833333
vt 0.444444 0.833333
vt 0.555555 0.833333
vt 0.666666 0.833333
vt 0.777777 0.833333
vt 0.888888 0.833333
vt 1.000000 0.833333
vt 0.0 0.666666
vt 0.111111 0.666666
vt 0.222222 0.666666
vt 0.333333 0.666666
vt 0.444444 0.666666
vt 0.555555 0.666666
vt 0.666666 0.666666
vt 0.777777 0.666666
vt 0.888888 0.666666
vt 1.000000 0.666666
vt 0.0 0.500000
vt 0.111111 0.500000
vt 0.222222 0.500000
vt 0.333333 0.500000
vt 0.444444 0.500000
vt 0.555555 0.500000
vt 0.666666 0.500000
vt 0.777777 0.500000
vt 0.888888 0.500000
vt 1.000000 0.500000
vt 0.0 0.333333
vt 0.111111 0.333333
vt 0.222222 0.333333
vt 0.333333 0.333333
vt 0.444444 0.333333
vt 0.555555 0.333333
vt 0.666666 0.333333
vt 0.777777 0.333333
vt 0.888888 0.333333
vt 1.000000 0.333333
vt 0.0 0.166666
vt 0.111111 0.166666
vt 0.222222 0.166666
vt 0.333333 0.166666
vt 0.444444 0.166666
vt 0.555555 0.166666
vt 0.666666 0.166666
vt 0.777777 0.166666
vt 0.888888 0.166666
vt 1.000000 0.166666
vt 0.0 0.0
vt 0.111111 0.0
vt 0.222222 0.0
vt 0.333333 0.0
vt 0.444444 0.0
vt 0.555555 0.0
vt 0.666666 0.0
vt 0.777777 0.0
vt 0.888888 0.0
vt 1.000000 0.0

vn -1.000000 0.0 0.0
vn -0.766044 0.0 -0.642787
vn -0.173648 0.0 -0.984807
vn 0.500000 0.0 -0.866025
vn 0.939692 0.0 -0.342020
vn 0.939692 0.0 0.342020
vn 0.499999 0.0 0.866025
vn -0.173648 0.0 0.984807
vn -0.766044 0.0 0.642787
vn -0.499999 0.866025 0.0
vn -0.383022 0.866025 -0.321393
vn -0.086824 0.866025 -0.492403
vn 0.249999 0.866025 -0.433012
vn 0.469846 0.866025 -0.171010
vn 0.469846 0.866025 0.171010
vn 0.249999 0.866025 0.433012
vn -0.086824 0.866025 0.492403
vn -0.383022 0.866025 0.321393
vn 0.500000 0.866025 0.0
vn 0.383022 0.866025 0.321393
vn 0.086824 0.866025 0.492404
vn -0.250000 0.866025 0.433012
vn -0.469846 0.866025 0.171010
vn -0.469846 0.866025 -0.171010
vn -0.250000 0.866025 -0.433012
vn 0.086824 0.866025 -0.492404
vn 0.383022 0.866025 -0.321393
vn 1.000000 0.0 0.0
vn 0.766044 0.0 0.642787
vn 0.173648 0.0 0.984807
vn -0.500000 0.0 0.866025
vn -0.939692 0.0 0.342020
vn -0.939692 0.0 -0.342020
vn -0.499999 0.0 -0.866025
vn 0.173648 0.0 -0.984807
vn 0.766044 0.0 -0.642787
vn 0.499999 -0.866025 0.0
vn 0.383022 -0.866025 0.321393
vn 0.086824 -0.866025 0.492403
vn -0.249999 -0.866025 0.433012
vn -0.469846 -0.866025 0.171010
vn -0.469846 -0.866025 -0.171010
vn -0.249999 -0.866025 -0.433012
vn 0.086824 -0.866025 -0.492403
vn 0.383022 -0.866025 -0.321393
vn -0.500000 -0.866025 0.0
vn -0.383022 -0.866025 -0.321393
vn -0.086824 -0.866025 -0.492404
vn 0.250000 -0.866025 -0.433012
vn 0.469846 -0.866025 -0.171010
vn 0.469846 -0.866025 0.171010
vn 0.250000 -0.866025 0.433012
vn -0.086824 -0.866025 0.492404
vn -0.383022 -0.866025 0.321393

s off
f 1/1/1 2/2/2 11/12/11 
f 1/1/1 11/12/11 10/11/10 
f 2/2/2 3/3/3 12/13/12 
f 2/2/2 12/13/12 11/12/11 
f 3/3/3 4/4/4 13/14/13 
f 3/3/3 13/14/13 12/13/12 
f 4/4/4 5/5/5 14/15/14 
f 4/4/4 14/15/14 13/14/13 
f 5/5/5 6/6/6 15/16/15 
f 5/5/5 15/16/15 14/15/14 
f 6/6/6 7/7/7 16/17/16 
f 6/6/6 16/17/16 15/16/15 
f 7/7/7 8/8/8 17/18/17 
f 7/7/7 17/18/17 16/17/16 
f 8/8/8 9/9/9 18/19/18 
f 8/8/8 18/19/18 17/18/17 
f 9/9/9 1/10/1 10/20/10 
f 9/9/9 10/20/10 18/19/18 
f 10/11/10 11/12/11 20/22/20 
f 10/11/10 20/22/20 19/21/19 
f 11/12/11 12/13/12 21/23/21 
f 11/12/11 21/23/21 20/22/20 
f 12/13/12 13/14/13 22/24/22 
f 12/13/12 22/24/22 21/23/21 
f 13/14/13 14/15/14 23/25/23 
f 13/14/13 23/25/23 22/24/22 
f 14/15/14 15/16/15 24/26/24 
f 14/15/14 24/26/24 23/25/23 
f 15/16/15 16/17/16 25/27/25 
f 15/16/15 25/27/25 24/26/24 
f 16/17/16 17/18/17 26/28/26 
f 16/17/16 26/28/26 25/27/25 
f 17/18/17 18/19/18 27/29/27 
f 17/18/17 27/29/27 26/28/26 
f 18/19/18 10/20/10 19/30/19 
f 18/19/18 19/30/19 27/29/27 
f 19/21/19 20/22/20 29/32/29 
f 19/21/19 29/32/29 28/31/28 
f 20/22/20 21/23/21 30/33/30 
f 20/22/20 30/33/30 29/32/29 
f 21/23/21 22/24/22 31/34/31 
f 21/23/21 31/34/31 30/33/30 
f 22/24/22 23/25/23 32/35/32 
f 22/24/22 32/35/32 31/34/31 
f 23/25/23 24/26/24 33/36/33 
f 23/25/23 33/36/33 32/35/32 
f 24/26/24 25/27/25 34/37/34 
f 24/26/24 34/37/34 33/36/33 
f 25/27/25 26/28/26 35/38/35 
f 25/27/25 35/38/35 34/37/34 
f 26/28/26 27/29/27 36/39/36 
f 26/28/26 36/39/36 35/38/35 
f 27/29/27 19/30/19 28/40/28 
f 27/29/27 28/40/28 36/39/36 
f 28/31/28 29/32/29 38/42/38 
f 28/31/28 38/42/38 37/41/37 
f 29/32/29 30/33/30 39/43/39 
f 29/32/29 39/43/39 38/42/38 
f 30/33/30 31/34/31 40/44/40 
f 30/33/30 40/44/40 39/43/39 
f 31/34/31 32/35/32 41/45/41 
f 31/34/31 41/45/41 40/44/40 
f 32/35/32 33/36/33 42/46/42 
f 32/35/32 42/46/42 41/45/41 
f 33/36/33 34/37/34 43/47/43 
f 33/36/33 43/47/43 42/46/42 
f 34/37/34 35/38/35 44/48/44 
f 34/37/34 44/48/44 43/47/43 
f 35/38/35 36/39/36 45/49/45 
f 35/38/35 45/49/45 44/48/44 
f 36/39/36 28/40/28 37/50/37 
f 36/39/36 37/50/37 45/49/45 
f 37/41/37 38/42/38 47/52/47 
f 37/41/37 47/52/47 46/51/46 
f 38/42/38 39/43/39 48/53/48 
f 38/42/38 48/53/48 47/52/47 
f 39/43/39 40/44/40 49/54/49 
f 39/43/39 49/54/49 48/53/48 
f 40/44/40 41/45/41 50/55/50 
f 40/44/40 50/55/50 49/54/49 
f 41/45/41 42/46/42 51/56/51 
f 41/45/41 51/56/51 50/55/50 
f 42/46/42 43/47/43 52/57/52 
f 42/46/42 52/57/52 51/56/51 
f 43/47/43 44/48/44 53/58/53 
f 43/47/43 53/58/53 52/57/52 
f 44/48/44 45/49/45 54/59/54 
f 44/48/44 54/59/54 53/58/53 
f 45/49/45 37/50/37 46/60/46 
f 45/49/45 46/60/46 54/59/54 
f 46/51/46 47/52/47 2/62/2 
f 46/51/46 2/62/2 1/61/1 
f 47/52/47 48/53/48 3/63/3 
f 47/52/47 3/63/3 2/62/2 
f 48/53/48 49/54/49 4/64/4 
f 48/53/48 4/64/4 3/63/3 
f 49/54/49 50/55/50 5/65/5 
f 49/54/49 5/65/5 4/64/4 
f 50/55/50 51/56/51 6/66/6 
f 50/55/50 6/66/6 5/65/5 
f 51/56/51 52/57/52 7/67/7 
f 51/56/51 7/67/7 6/66/6 
f 52/57/52 53/58/53 8/68/8 
f 52/57/52 8/68/8 7/67/7 
f 53/58/53 54/59/54 9/69/9 
f 53/58/53 9/69/9 8/68/8 
f 54/59/54 46/60/46 1/70/1 
f 54/59/54 1/70/1 9/69/9 

