<svg xmlns="http://www.w3.org/2000/svg" xmlns:xlink="http://www.w3.org/1999/xlink" width="720" height="405" viewBox="0 0 720 405">
<rect id="background" x="0" y="0" width="720.0" height="405.0" stroke="none" fill="#fff7d5"></rect>
<g id="camera" transform="translate(360.000000, 202.500000) scale(1.000000, -1.000000) rotate(0.0) translate(0.0, 0.0)">
<g id="example" transform="translate(0.0, 0.0) rotate(159.0) scale(200.000000, 200.000000)">
<g id="b7dd107" stroke-width="0.037500" stroke-opacity="0.498039" stroke="#404040" stroke-linejoin="round" stroke-linecap="round" fill="none">
<path id="curve.0000" d="M 0.038529 0.017791 C 0.268340 0.111491,0.518681 0.379553,0.740017 0.267289 C 1.052639 0.108723,0.416194 -0.467071,0.074967 -0.547321 C -0.261705 -0.626500,-0.653437 -0.193095,-0.692886 0.150506 C -0.740152 0.562190,0.549161 0.056314,0.508857 0.468737 C 0.471689 0.849077,-0.288493 0.745362,-0.632324 0.578568 C -1.034114 0.383658,0.638884 0.328236,0.521305 -0.102576 C 0.431593 -0.431284,-0.031722 -0.633764,-0.370911 -0.601395"></path>
</g>
</g>

</g>
</svg>
