<svg xmlns="http://www.w3.org/2000/svg" xmlns:xlink="http://www.w3.org/1999/xlink" width="720" height="405" viewBox="0 0 720 405">
<path id="background" d="M 0.0 0.0 L 720.0 0.0 L 720.0 405.0 L 0.0 405.0 Z" stroke="none" fill-opacity="1.000000" fill="#fff7d5"></path>
<g id="camera" transform="translate(360.000000, 202.500000) scale(1.000000, -1.000000) rotate(0.0) translate(0.0, 0.0)">
<g id="7b69c6ba" class="materialsolid" stroke-width="0.029296" stroke-opacity="0.498039" stroke="#404040" stroke-linejoin="round" stroke-linecap="round" fill="none">
<path id="example" class="curveentity2" fill-rule="evenodd" transform="translate(0.0, 0.0) rotate(128.0) scale(256.000000, 256.000000)" d="M 0.258291 0.114000 C 0.450224 -0.150196,-0.594156 -0.357338,-0.394942 -0.616088 C -0.159883 -0.921394,0.404238 -0.361132,0.601462 -0.030123 C 0.799974 0.303046,-0.380506 -0.517822,-0.553490 -0.170711 C -0.631466 -0.014244,-0.561972 0.236624,-0.418129 0.335979 C -0.127591 0.536660,-0.245404 -0.904948,-0.010143 -0.641627 C 0.262959 -0.335949,-0.957701 -0.009630,-0.747671 0.342381 C -0.575444 0.631035,0.012523 0.563277,0.260702 0.336582 "></path>
</g>

</g>
</svg>
