# g: 1, v: 64, vt: 96, vn: 33, f: 124
o 12bb4df8

# v: 64, vt: 96, vn: 33, f: 124
g Cylinder

v 0.249999 0.0 -0.500000
v 0.244882 -0.050324 -0.500000
v 0.229739 -0.098588 -0.500000
v 0.205190 -0.142817 -0.500000
v 0.172241 -0.181198 -0.500000
v 0.132240 -0.212160 -0.500000
v 0.086826 -0.234437 -0.500000
v 0.037856 -0.247117 -0.500000
v -0.012662 -0.249679 -0.500000
v -0.062663 -0.242019 -0.500000
v -0.110098 -0.224451 -0.500000
v -0.153026 -0.197693 -0.500000
v -0.189689 -0.162843 -0.500000
v -0.218586 -0.121325 -0.500000
v -0.238534 -0.074840 -0.500000
v -0.248717 -0.025292 -0.500000
v -0.248717 0.025292 -0.500000
v -0.238534 0.074840 -0.500000
v -0.218586 0.121325 -0.500000
v -0.189689 0.162843 -0.500000
v -0.153026 0.197693 -0.500000
v -0.110098 0.224451 -0.500000
v -0.062663 0.242019 -0.500000
v -0.012662 0.249679 -0.500000
v 0.037856 0.247117 -0.500000
v 0.086826 0.234438 -0.500000
v 0.132240 0.212161 -0.500000
v 0.172241 0.181198 -0.500000
v 0.205190 0.142817 -0.500000
v 0.229739 0.098589 -0.500000
v 0.244882 0.050324 -0.500000
v 0.249999 0.0 0.500000
v 0.244882 -0.050324 0.500000
v 0.229739 -0.098588 0.500000
v 0.205190 -0.142817 0.500000
v 0.172241 -0.181198 0.500000
v 0.132240 -0.212160 0.500000
v 0.086826 -0.234437 0.500000
v 0.037856 -0.247117 0.500000
v -0.012662 -0.249679 0.500000
v -0.062663 -0.242019 0.500000
v -0.110098 -0.224451 0.500000
v -0.153026 -0.197693 0.500000
v -0.189689 -0.162843 0.500000
v -0.218586 -0.121325 0.500000
v -0.238534 -0.074840 0.500000
v -0.248717 -0.025292 0.500000
v -0.248717 0.025292 0.500000
v -0.238534 0.074840 0.500000
v -0.218586 0.121325 0.500000
v -0.189689 0.162843 0.500000
v -0.153026 0.197693 0.500000
v -0.110098 0.224451 0.500000
v -0.062663 0.242019 0.500000
v -0.012662 0.249679 0.500000
v 0.037856 0.247117 0.500000
v 0.086826 0.234438 0.500000
v 0.132240 0.212161 0.500000
v 0.172241 0.181198 0.500000
v 0.205190 0.142817 0.500000
v 0.229739 0.098589 0.500000
v 0.244882 0.050324 0.500000
v 0.0 0.0 -0.500000
v 0.0 0.0 0.500000

vt 1.000000 1.000000
vt 0.967741 1.000000
vt 0.935483 1.000000
vt 0.903225 1.000000
vt 0.870967 1.000000
vt 0.838709 1.000000
vt 0.806451 1.000000
vt 0.774193 1.000000
vt 0.741935 1.000000
vt 0.709677 1.000000
vt 0.677419 1.000000
vt 0.645161 1.000000
vt 0.612903 1.000000
vt 0.580645 1.000000
vt 0.548387 1.000000
vt 0.516129 1.000000
vt 0.483870 1.000000
vt 0.451612 1.000000
vt 0.419354 1.000000
vt 0.387096 1.000000
vt 0.354838 1.000000
vt 0.322580 1.000000
vt 0.290322 1.000000
vt 0.258064 1.000000
vt 0.225806 1.000000
vt 0.193548 1.000000
vt 0.161290 1.000000
vt 0.129032 1.000000
vt 0.096774 1.000000
vt 0.064516 1.000000
vt 0.032258 1.000000
vt 0.0 1.000000
vt 1.000000 0.0
vt 0.967741 0.0
vt 0.935483 0.0
vt 0.903225 0.0
vt 0.870967 0.0
vt 0.838709 0.0
vt 0.806451 0.0
vt 0.774193 0.0
vt 0.741935 0.0
vt 0.709677 0.0
vt 0.677419 0.0
vt 0.645161 0.0
vt 0.612903 0.0
vt 0.580645 0.0
vt 0.548387 0.0
vt 0.516129 0.0
vt 0.483870 0.0
vt 0.451612 0.0
vt 0.419354 0.0
vt 0.387096 0.0
vt 0.354838 0.0
vt 0.322580 0.0
vt 0.290322 0.0
vt 0.258064 0.0
vt 0.225806 0.0
vt 0.193548 0.0
vt 0.161290 0.0
vt 0.129032 0.0
vt 0.096774 0.0
vt 0.064516 0.0
vt 0.032258 0.0
vt 0.0 0.0
vt 0.0 0.500000
vt 0.010235 0.600649
vt 0.040521 0.697177
vt 0.089618 0.785634
vt 0.155516 0.862396
vt 0.235517 0.924322
vt 0.326347 0.968876
vt 0.424286 0.994234
vt 0.525324 0.999358
vt 0.625326 0.984038
vt 0.720197 0.948902
vt 0.806052 0.895387
vt 0.879379 0.825686
vt 0.937173 0.742650
vt 0.977069 0.649681
vt 0.997434 0.550584
vt 0.997434 0.449415
vt 0.977069 0.350318
vt 0.937173 0.257349
vt 0.879379 0.174313
vt 0.806053 0.104612
vt 0.720197 0.051097
vt 0.625326 0.015961
vt 0.525324 0.000641
vt 0.424286 0.005765
vt 0.326347 0.031123
vt 0.235518 0.075677
vt 0.155516 0.137603
vt 0.089618 0.214365
vt 0.040521 0.302821
vt 0.010235 0.399350
vt 0.500000 0.500000

vn 0.999999 0.0 0.0
vn 0.979529 -0.201298 0.0
vn 0.918957 -0.394355 0.0
vn 0.820763 -0.571268 0.0
vn 0.688966 -0.724792 0.0
vn 0.528963 -0.848644 0.0
vn 0.347305 -0.937751 0.0
vn 0.151427 -0.988468 0.0
vn -0.050649 -0.998716 0.0
vn -0.250652 -0.968076 0.0
vn -0.440394 -0.897804 0.0
vn -0.612105 -0.790775 0.0
vn -0.758758 -0.651372 0.0
vn -0.874346 -0.485301 0.0
vn -0.954139 -0.299363 0.0
vn -0.994869 -0.101168 0.0
vn -0.994869 0.101168 0.0
vn -0.954139 0.299362 0.0
vn -0.874346 0.485301 0.0
vn -0.758758 0.651372 0.0
vn -0.612106 0.790775 0.0
vn -0.440394 0.897804 0.0
vn -0.250652 0.968076 0.0
vn -0.050649 0.998716 0.0
vn 0.151427 0.988468 0.0
vn 0.347304 0.937752 0.0
vn 0.528963 0.848644 0.0
vn 0.688966 0.724792 0.0
vn 0.820763 0.571268 0.0
vn 0.918957 0.394356 0.0
vn 0.979529 0.201298 0.0
vn 0.0 0.0 -0.999999
vn 0.0 0.0 0.999999

s off

f 1/1/1 32/33/1 33/34/2 
f 2/2/2 33/34/2 34/35/3 
f 3/3/3 34/35/3 35/36/4 
f 4/4/4 35/36/4 36/37/5 
f 5/5/5 36/37/5 37/38/6 
f 6/6/6 37/38/6 38/39/7 
f 7/7/7 38/39/7 39/40/8 
f 8/8/8 39/40/8 40/41/9 
f 9/9/9 40/41/9 41/42/10 
f 10/10/10 41/42/10 42/43/11 
f 11/11/11 42/43/11 43/44/12 
f 12/12/12 43/44/12 44/45/13 
f 13/13/13 44/45/13 45/46/14 
f 14/14/14 45/46/14 46/47/15 
f 15/15/15 46/47/15 47/48/16 
f 16/16/16 47/48/16 48/49/17 
f 17/17/17 48/49/17 49/50/18 
f 18/18/18 49/50/18 50/51/19 
f 19/19/19 50/51/19 51/52/20 
f 20/20/20 51/52/20 52/53/21 
f 21/21/21 52/53/21 53/54/22 
f 22/22/22 53/54/22 54/55/23 
f 23/23/23 54/55/23 55/56/24 
f 24/24/24 55/56/24 56/57/25 
f 25/25/25 56/57/25 57/58/26 
f 26/26/26 57/58/26 58/59/27 
f 27/27/27 58/59/27 59/60/28 
f 28/28/28 59/60/28 60/61/29 
f 29/29/29 60/61/29 61/62/30 
f 30/30/30 61/62/30 62/63/31 
f 31/31/31 62/63/31 32/64/1 
f 33/34/2 2/2/2 1/1/1 
f 34/35/3 3/3/3 2/2/2 
f 35/36/4 4/4/4 3/3/3 
f 36/37/5 5/5/5 4/4/4 
f 37/38/6 6/6/6 5/5/5 
f 38/39/7 7/7/7 6/6/6 
f 39/40/8 8/8/8 7/7/7 
f 40/41/9 9/9/9 8/8/8 
f 41/42/10 10/10/10 9/9/9 
f 42/43/11 11/11/11 10/10/10 
f 43/44/12 12/12/12 11/11/11 
f 44/45/13 13/13/13 12/12/12 
f 45/46/14 14/14/14 13/13/13 
f 46/47/15 15/15/15 14/14/14 
f 47/48/16 16/16/16 15/15/15 
f 48/49/17 17/17/17 16/16/16 
f 49/50/18 18/18/18 17/17/17 
f 50/51/19 19/19/19 18/18/18 
f 51/52/20 20/20/20 19/19/19 
f 52/53/21 21/21/21 20/20/20 
f 53/54/22 22/22/22 21/21/21 
f 54/55/23 23/23/23 22/22/22 
f 55/56/24 24/24/24 23/23/23 
f 56/57/25 25/25/25 24/24/24 
f 57/58/26 26/26/26 25/25/25 
f 58/59/27 27/27/27 26/26/26 
f 59/60/28 28/28/28 27/27/27 
f 60/61/29 29/29/29 28/28/28 
f 61/62/30 30/30/30 29/29/29 
f 62/63/31 31/31/31 30/30/30 
f 32/64/1 1/32/1 31/31/31 
f 63/96/32 1/65/32 2/66/32 
f 63/96/32 2/66/32 3/67/32 
f 63/96/32 3/67/32 4/68/32 
f 63/96/32 4/68/32 5/69/32 
f 63/96/32 5/69/32 6/70/32 
f 63/96/32 6/70/32 7/71/32 
f 63/96/32 7/71/32 8/72/32 
f 63/96/32 8/72/32 9/73/32 
f 63/96/32 9/73/32 10/74/32 
f 63/96/32 10/74/32 11/75/32 
f 63/96/32 11/75/32 12/76/32 
f 63/96/32 12/76/32 13/77/32 
f 63/96/32 13/77/32 14/78/32 
f 63/96/32 14/78/32 15/79/32 
f 63/96/32 15/79/32 16/80/32 
f 63/96/32 16/80/32 17/81/32 
f 63/96/32 17/81/32 18/82/32 
f 63/96/32 18/82/32 19/83/32 
f 63/96/32 19/83/32 20/84/32 
f 63/96/32 20/84/32 21/85/32 
f 63/96/32 21/85/32 22/86/32 
f 63/96/32 22/86/32 23/87/32 
f 63/96/32 23/87/32 24/88/32 
f 63/96/32 24/88/32 25/89/32 
f 63/96/32 25/89/32 26/90/32 
f 63/96/32 26/90/32 27/91/32 
f 63/96/32 27/91/32 28/92/32 
f 63/96/32 28/92/32 29/93/32 
f 63/96/32 29/93/32 30/94/32 
f 63/96/32 30/94/32 31/95/32 
f 63/96/32 31/95/32 1/65/32 
f 64/96/33 33/66/33 32/65/33 
f 64/96/33 34/67/33 33/66/33 
f 64/96/33 35/68/33 34/67/33 
f 64/96/33 36/69/33 35/68/33 
f 64/96/33 37/70/33 36/69/33 
f 64/96/33 38/71/33 37/70/33 
f 64/96/33 39/72/33 38/71/33 
f 64/96/33 40/73/33 39/72/33 
f 64/96/33 41/74/33 40/73/33 
f 64/96/33 42/75/33 41/74/33 
f 64/96/33 43/76/33 42/75/33 
f 64/96/33 44/77/33 43/76/33 
f 64/96/33 45/78/33 44/77/33 
f 64/96/33 46/79/33 45/78/33 
f 64/96/33 47/80/33 46/79/33 
f 64/96/33 48/81/33 47/80/33 
f 64/96/33 49/82/33 48/81/33 
f 64/96/33 50/83/33 49/82/33 
f 64/96/33 51/84/33 50/83/33 
f 64/96/33 52/85/33 51/84/33 
f 64/96/33 53/86/33 52/85/33 
f 64/96/33 54/87/33 53/86/33 
f 64/96/33 55/88/33 54/87/33 
f 64/96/33 56/89/33 55/88/33 
f 64/96/33 57/90/33 56/89/33 
f 64/96/33 58/91/33 57/90/33 
f 64/96/33 59/92/33 58/91/33 
f 64/96/33 60/93/33 59/92/33 
f 64/96/33 61/94/33 60/93/33 
f 64/96/33 62/95/33 61/94/33 
f 64/96/33 32/65/33 62/95/33 
