<svg xmlns="http://www.w3.org/2000/svg" xmlns:xlink="http://www.w3.org/1999/xlink" viewBox="0 0 720 405">
<rect x="0" y="0" width="720.0" height="405.0" stroke="none" fill="#FFF7D5"></rect>
<g transform="translate(360.0000, 202.5000) scale(1.0000, -1.0000) rotate(-0.0) translate(-0.0000, -0.0000)">
<g id="example" transform="translate(-100.0, -50.0) rotate(49.0) scale(150.0, 150.0)">
<g stroke-width="0.0099" stroke-opacity="1.00" stroke="#3772FF" stroke-linejoin="round" stroke-linecap="round" fill-opacity="1.00" fill="#080708">
<path d="M 0.5000 -0.0000 L 0.2499 0.4330 L 0.1249 0.2165 L 0.2500 -0.0000 Z"></path>
<path d="M 0.2499 0.4330 L -0.2500 0.4330 L -0.1250 0.2165 L 0.1249 0.2165 Z"></path>
<path d="M -0.2500 0.4330 L -0.5000 -0.0000 L -0.2500 -0.0000 L -0.1250 0.2165 Z"></path>
<path d="M -0.5000 -0.0000 L -0.2499 -0.4330 L -0.1249 -0.2165 L -0.2500 -0.0000 Z"></path>
<path d="M -0.2499 -0.4330 L 0.2499 -0.4330 L 0.1249 -0.2165 L -0.1249 -0.2165 Z"></path>
<path d="M 0.2499 -0.4330 L 0.5000 -0.0000 L 0.2500 -0.0000 L 0.1249 -0.2165 Z"></path>

</g>
</g>
</g>
</svg>
