# g: 5, v: 50, vt: 80, vn: 50, f: 50
o Platonic Solids

# v: 4, vt: 3, vn: 4, f: 4
g Tetrahedron

v 2.500000 0.471404 -0.166666
v 2.091751 -0.235702 -0.166666
v 2.908248 -0.235702 -0.166666
v 2.500000 0.0 0.500000

vt 0.500000 1.000000
vt 1.000000 0.0
vt 0.0 0.0

vn 0.0 0.0 -1.000000
vn -0.816496 0.471404 0.333333
vn 0.0 -0.942809 0.333333
vn 0.816496 0.471404 0.333333

s off

f 1/1/1 3/3/1 2/2/1 
f 1/3/2 2/2/2 4/1/2 
f 1/2/4 4/1/4 3/3/4 
f 2/3/3 3/2/3 4/1/3 

# v: 8, vt: 4, vn: 6, f: 6
g Cube

v 0.896446 -0.353553 -0.353553
v 0.896446 -0.353553 0.353553
v 0.896446 0.353553 -0.353553
v 0.896446 0.353553 0.353553
v 1.603553 -0.353553 -0.353553
v 1.603553 -0.353553 0.353553
v 1.603553 0.353553 -0.353553
v 1.603553 0.353553 0.353553

vt 0.0 1.000000
vt 0.0 0.0
vt 1.000000 0.0
vt 1.000000 1.000000

vn 1.000000 0.0 0.0
vn 0.0 0.0 1.000000
vn 0.0 0.0 -1.000000
vn 0.0 -1.000000 0.0
vn -1.000000 0.0 0.0
vn 0.0 1.000000 0.0

s off

f 11/6/5 12/7/5 10/4/5 9/5/5 
f 12/5/6 8/6/6 6/7/6 10/4/6 
f 7/5/7 11/6/7 9/7/7 5/4/7 
f 9/6/8 10/7/8 6/4/8 5/5/8 
f 5/6/9 6/7/9 8/4/9 7/5/9 
f 7/6/10 8/7/10 12/4/10 11/5/10 

# v: 6, vt: 13, vn: 8, f: 8
g Octahedron

v 0.0 0.0 -0.500000
v 0.0 -0.500000 0.0
v -0.500000 0.0 0.0
v 0.500000 0.0 0.0
v 0.0 0.500000 0.0
v 0.0 0.0 0.500000

vt 0.125000 0.716506
vt 0.375000 0.716506
vt 0.625000 0.716506
vt 0.875000 0.716506
vt 0.0 0.500000
vt 0.250000 0.500000
vt 0.500000 0.500000
vt 0.750000 0.500000
vt 1.000000 0.500000
vt 0.125000 0.283493
vt 0.375000 0.283493
vt 0.625000 0.283493
vt 0.875000 0.283493

vn -0.577350 -0.577350 -0.577350
vn 0.577350 -0.577350 -0.577350
vn -0.577350 0.577350 -0.577350
vn 0.577350 0.577350 -0.577350
vn -0.577350 -0.577350 0.577350
vn 0.577350 -0.577350 0.577350
vn -0.577350 0.577350 0.577350
vn 0.577350 0.577350 0.577350

s off

f 13/17/11 14/13/11 15/12/11 
f 13/18/12 16/14/12 14/13/12 
f 13/19/13 17/15/13 16/14/13 
f 13/20/14 15/16/14 17/15/14 
f 15/12/15 14/13/15 18/8/15 
f 14/13/16 16/14/16 18/9/16 
f 17/15/17 15/16/17 18/11/17 
f 16/14/18 17/15/18 18/10/18 

# v: 20, vt: 38, vn: 12, f: 12
g Dodecahedron

v -1.250000 -0.027127 -0.534545
v -1.250000 0.336144 -0.416511
v -1.559016 -0.198401 -0.389384
v -0.940983 -0.198401 -0.389384
v -1.559016 0.389384 -0.198401
v -0.940983 0.389384 -0.198401
v -1.750000 0.059016 -0.181635
v -0.750000 0.059016 -0.181635
v -1.440983 -0.475528 -0.154508
v -1.059016 -0.475528 -0.154508
v -1.440983 0.475528 0.154508
v -1.059016 0.475528 0.154508
v -1.750000 -0.059016 0.181635
v -0.750000 -0.059016 0.181635
v -1.559016 -0.389384 0.198401
v -0.940983 -0.389384 0.198401
v -1.559016 0.198401 0.389384
v -0.940983 0.198401 0.389384
v -1.250000 -0.336144 0.416511
v -1.250000 0.027127 0.534545

vt 0.099106 0.746764
vt 0.221608 0.746764
vt 0.297319 0.746764
vt 0.419821 0.746764
vt 0.740536 0.746764
vt 0.641429 0.674759
vt 0.839642 0.674759
vt 0.061251 0.630258
vt 0.259463 0.630258
vt 0.457676 0.630258
vt 0.580178 0.630258
vt 0.900893 0.630258
vt 0.037855 0.558253
vt 0.160357 0.558253
vt 0.358570 0.558253
vt 0.481072 0.558253
vt 0.679285 0.558253
vt 0.801787 0.558253
vt 1.000000 0.558253
vt 0.0 0.441746
vt 0.198212 0.441746
vt 0.320714 0.441746
vt 0.518927 0.441746
vt 0.641429 0.441746
vt 0.839642 0.441746
vt 0.962144 0.441746
vt 0.099106 0.369741
vt 0.419821 0.369741
vt 0.542323 0.369741
vt 0.740536 0.369741
vt 0.938748 0.369741
vt 0.160357 0.325240
vt 0.358570 0.325240
vt 0.259463 0.253235
vt 0.580178 0.253235
vt 0.702680 0.253235
vt 0.778391 0.253235
vt 0.900893 0.253235

vn -0.525731 0.262865 -0.809016
vn 0.525731 0.262865 -0.809016
vn 0.0 -0.646557 -0.762865
vn 0.0 0.971476 -0.237134
vn -0.850650 -0.500000 -0.162459
vn 0.850650 -0.500000 -0.162459
vn -0.850650 0.500000 0.162459
vn 0.850650 0.500000 0.162459
vn 0.0 -0.971476 0.237134
vn 0.0 0.646557 0.762865
vn -0.525731 -0.262865 0.809016
vn 0.525731 -0.262865 0.809016

s off

f 19/57/19 21/58/19 25/51/19 23/45/19 20/50/19 
f 19/56/20 20/50/20 24/44/20 26/49/20 22/55/20 
f 19/54/21 22/53/21 28/42/21 27/41/21 21/52/21 
f 20/50/22 23/45/22 29/38/22 30/37/22 24/44/22 
f 22/48/24 26/43/24 32/36/24 34/35/24 28/42/24 
f 21/47/23 27/41/23 33/34/23 31/33/23 25/40/23 
f 23/45/25 25/46/25 31/39/25 35/32/25 29/38/25 
f 24/44/26 30/37/26 36/31/26 32/36/26 26/43/26 
f 27/41/27 28/42/27 34/35/27 37/29/27 33/34/27 
f 36/26/28 30/37/28 29/38/28 35/27/28 38/25/28 
f 35/21/29 31/28/29 33/34/29 37/29/29 38/22/29 
f 37/29/30 34/35/30 32/30/30 36/24/30 38/23/30 

# v: 12, vt: 22, vn: 20, f: 20
g Icosahedron

v -2.500000 0.0 -0.500000
v -2.500000 -0.447212 -0.223609
v -2.925325 -0.138194 -0.223609
v -2.074674 -0.138194 -0.223609
v -2.762865 0.361801 -0.223609
v -2.237134 0.361801 -0.223609
v -2.762865 -0.361801 0.223609
v -2.237134 -0.361801 0.223609
v -2.925325 0.138194 0.223609
v -2.074674 0.138194 0.223609
v -2.500000 0.447212 0.223609
v -2.500000 0.0 0.500000

vt 0.0 0.421387
vt 0.090908 0.578613
vt 0.090908 0.264160
vt 0.181817 0.735838
vt 0.181817 0.421387
vt 0.272727 0.578613
vt 0.272727 0.264160
vt 0.363635 0.735838
vt 0.363635 0.421387
vt 0.454544 0.578613
vt 0.454544 0.264160
vt 0.545454 0.735838
vt 0.545454 0.421387
vt 0.636363 0.578613
vt 0.636363 0.264160
vt 0.727272 0.735838
vt 0.727272 0.421387
vt 0.818181 0.578613
vt 0.818181 0.264160
vt 0.909090 0.735838
vt 0.909090 0.421387
vt 1.000000 0.578613

vn 0.0 -0.607061 0.794654
vn 0.577352 -0.794653 -0.187589
vn 0.934171 -0.303534 0.187589
vn 0.934171 0.303534 -0.187589
vn 0.577352 0.794653 0.187589
vn 0.356822 0.491121 0.794655
vn -0.356822 0.491121 0.794655
vn 0.0 0.607061 -0.794654
vn -0.356822 -0.491121 -0.794655
vn 0.356822 -0.491121 -0.794655
vn -0.577347 0.187593 -0.794656
vn 0.577347 0.187593 -0.794656
vn 0.0 0.982246 -0.187592
vn -0.577352 0.794653 0.187589
vn -0.934171 0.303534 -0.187589
vn -0.934171 -0.303534 0.187589
vn -0.577352 -0.794653 -0.187589
vn 0.0 -0.982246 0.187592
vn -0.577347 -0.187593 0.794656
vn 0.577347 -0.187593 0.794656

s off

f 39/61/38 43/63/38 44/59/38 
f 39/65/41 41/67/41 43/63/41 
f 39/69/39 40/71/39 41/67/39 
f 39/73/40 42/75/40 40/71/40 
f 39/77/42 44/79/42 42/75/42 
f 49/60/43 44/59/43 43/63/43 
f 47/64/44 49/60/44 43/63/44 
f 47/64/45 43/63/45 41/67/45 
f 45/68/46 47/64/46 41/67/46 
f 45/68/47 41/67/47 40/71/47 
f 46/72/48 45/68/48 40/71/48 
f 46/72/32 40/71/32 42/75/32 
f 48/76/33 46/72/33 42/75/33 
f 48/76/34 42/75/34 44/79/34 
f 49/80/35 48/76/35 44/79/35 
f 50/78/36 48/76/36 49/80/36 
f 50/62/37 49/60/37 47/64/37 
f 50/66/49 47/64/49 45/68/49 
f 50/70/31 45/68/31 46/72/31 
f 50/74/50 46/72/50 48/76/50 
