# g: 1, v: 20, vt: 19, vn: 20, f: 36
o 467aecef

# v: 20, vt: 19, vn: 20, f: 36
g Cone

v 0.0 0.0 -0.500000
v 0.0 0.0 0.500000
v 0.500000 0.0 -0.500000
v 0.469846 0.171010 -0.500000
v 0.383022 0.321393 -0.500000
v 0.249999 0.433012 -0.500000
v 0.086824 0.492403 -0.500000
v -0.086824 0.492403 -0.500000
v -0.250000 0.433012 -0.500000
v -0.383022 0.321393 -0.500000
v -0.469846 0.171010 -0.500000
v -0.500000 0.0 -0.500000
v -0.469846 -0.171010 -0.500000
v -0.383022 -0.321393 -0.500000
v -0.249999 -0.433012 -0.500000
v -0.086824 -0.492403 -0.500000
v 0.086824 -0.492403 -0.500000
v 0.249999 -0.433012 -0.500000
v 0.383022 -0.321393 -0.500000
v 0.469846 -0.171009 -0.500000

vt 0.500000 0.500000
vt 1.000000 0.500000
vt 0.969846 0.671010
vt 0.883022 0.821393
vt 0.750000 0.933012
vt 0.586824 0.992403
vt 0.413175 0.992403
vt 0.249999 0.933012
vt 0.116977 0.821393
vt 0.030153 0.671010
vt 0.0 0.500000
vt 0.030153 0.328989
vt 0.116977 0.178606
vt 0.250000 0.066987
vt 0.413175 0.007596
vt 0.586824 0.007596
vt 0.749999 0.066987
vt 0.883022 0.178606
vt 0.969846 0.328990

vn 0.0 0.0 -1.000000
vn 0.0 0.0 1.000000
vn 0.999999 0.0 0.0
vn 0.939692 0.342020 0.0
vn 0.766044 0.642787 0.0
vn 0.499999 0.866025 0.0
vn 0.173648 0.984807 0.0
vn -0.173648 0.984807 0.0
vn -0.500000 0.866025 0.0
vn -0.766044 0.642787 0.0
vn -0.939692 0.342020 0.0
vn -0.999999 0.0 0.0
vn -0.939692 -0.342020 0.0
vn -0.766044 -0.642787 0.0
vn -0.499999 -0.866025 0.0
vn -0.173648 -0.984807 0.0
vn 0.173648 -0.984807 0.0
vn 0.499999 -0.866025 0.0
vn 0.766044 -0.642787 0.0
vn 0.939692 -0.342019 0.0

s off

f 1/1/1 4/3/1 3/2/1 
f 1/1/1 5/4/1 4/3/1 
f 1/1/1 6/5/1 5/4/1 
f 1/1/1 7/6/1 6/5/1 
f 1/1/1 8/7/1 7/6/1 
f 1/1/1 9/8/1 8/7/1 
f 1/1/1 10/9/1 9/8/1 
f 1/1/1 11/10/1 10/9/1 
f 1/1/1 12/11/1 11/10/1 
f 1/1/1 13/12/1 12/11/1 
f 1/1/1 14/13/1 13/12/1 
f 1/1/1 15/14/1 14/13/1 
f 1/1/1 16/15/1 15/14/1 
f 1/1/1 17/16/1 16/15/1 
f 1/1/1 18/17/1 17/16/1 
f 1/1/1 19/18/1 18/17/1 
f 1/1/1 20/19/1 19/18/1 
f 1/1/1 3/2/1 20/19/1 
f 2/1/2 3/2/3 4/3/4 
f 2/1/2 4/3/4 5/4/5 
f 2/1/2 5/4/5 6/5/6 
f 2/1/2 6/5/6 7/6/7 
f 2/1/2 7/6/7 8/7/8 
f 2/1/2 8/7/8 9/8/9 
f 2/1/2 9/8/9 10/9/10 
f 2/1/2 10/9/10 11/10/11 
f 2/1/2 11/10/11 12/11/12 
f 2/1/2 12/11/12 13/12/13 
f 2/1/2 13/12/13 14/13/14 
f 2/1/2 14/13/14 15/14/15 
f 2/1/2 15/14/15 16/15/16 
f 2/1/2 16/15/16 17/16/17 
f 2/1/2 17/16/17 18/17/18 
f 2/1/2 18/17/18 19/18/19 
f 2/1/2 19/18/19 20/19/20 
f 2/1/2 20/19/20 3/2/3 
