<svg xmlns="http://www.w3.org/2000/svg" xmlns:xlink="http://www.w3.org/1999/xlink" width="720" height="405" viewBox="0 0 720 405">
<rect id="background" x="0" y="0" width="720.0" height="405.0" stroke="none" fill="#fff7d5"></rect>
<g transform="translate(360.000000, 202.500000) scale(1.000000, -1.000000) rotate(0.0) translate(0.0, 0.0)">
<g id="example" transform="translate(-50.080760, -30.638181) rotate(41.0) scale(150.000000, 150.000000)">
<g id="2353b3e6" stroke-width="0.006666" stroke-opacity="1.000000" stroke="#817d6c" stroke-linejoin="round" stroke-linecap="round" fill-opacity="1.000000" fill="#202020">
<path id="face.0000" d="M 0.500000 0.0 L 0.250000 0.433012 L 0.250000 0.0 Z"></path>
<path id="face.0001" d="M 0.250000 0.433012 L 0.125000 0.216506 L 0.250000 0.0 Z"></path>
<path id="face.0002" d="M 0.250000 0.433012 L -0.250000 0.433012 L 0.125000 0.216506 Z"></path>
<path id="face.0003" d="M -0.250000 0.433012 L -0.125000 0.216506 L 0.125000 0.216506 Z"></path>
<path id="face.0004" d="M -0.250000 0.433012 L -0.500000 0.000000 L -0.125000 0.216506 Z"></path>
<path id="face.0005" d="M -0.500000 0.000000 L -0.250000 0.000000 L -0.125000 0.216506 Z"></path>
<path id="face.0006" d="M -0.500000 0.000000 L -0.250000 -0.433012 L -0.250000 0.000000 Z"></path>
<path id="face.0007" d="M -0.250000 -0.433012 L -0.125000 -0.216506 L -0.250000 0.000000 Z"></path>
<path id="face.0008" d="M -0.250000 -0.433012 L 0.250000 -0.433012 L -0.125000 -0.216506 Z"></path>
<path id="face.0009" d="M 0.250000 -0.433012 L 0.125000 -0.216506 L -0.125000 -0.216506 Z"></path>
<path id="face.0010" d="M 0.250000 -0.433012 L 0.500000 0.0 L 0.125000 -0.216506 Z"></path>
<path id="face.0011" d="M 0.500000 0.0 L 0.250000 0.0 L 0.125000 -0.216506 Z"></path>
</g>
</g>

</g>
</svg>
