<svg xmlns="http://www.w3.org/2000/svg" xmlns:xlink="http://www.w3.org/1999/xlink" width="720" height="405" viewBox="0 0 720 405">
<rect id="background" x="0" y="0" width="720.0" height="405.0" stroke="none" fill="#fff7d5"></rect>
<g transform="translate(360.000000, 202.500000) scale(1.000000, -1.000000) rotate(0.0) translate(0.0, 0.0)">
<g id="example" transform="translate(-129.289657, -4.989430) rotate(64.0) scale(150.000000, 150.000000)">
<g id="2353b3e6" stroke="none" fill-opacity="1.000000" fill="#303030">
<path id="face.000" d="M 0.500000 0.0 L 0.250000 0.433012 L 0.250000 0.0 Z"></path>
<path id="face.001" d="M 0.250000 0.433012 L 0.125000 0.216506 L 0.250000 0.0 Z"></path>
<path id="face.002" d="M 0.250000 0.433012 L -0.250000 0.433012 L 0.125000 0.216506 Z"></path>
<path id="face.003" d="M -0.250000 0.433012 L -0.125000 0.216506 L 0.125000 0.216506 Z"></path>
<path id="face.004" d="M -0.250000 0.433012 L -0.500000 0.000000 L -0.125000 0.216506 Z"></path>
<path id="face.005" d="M -0.500000 0.000000 L -0.250000 0.000000 L -0.125000 0.216506 Z"></path>
<path id="face.006" d="M -0.500000 0.000000 L -0.250000 -0.433012 L -0.250000 0.000000 Z"></path>
<path id="face.007" d="M -0.250000 -0.433012 L -0.125000 -0.216506 L -0.250000 0.000000 Z"></path>
<path id="face.008" d="M -0.250000 -0.433012 L 0.250000 -0.433012 L -0.125000 -0.216506 Z"></path>
<path id="face.009" d="M 0.250000 -0.433012 L 0.125000 -0.216506 L -0.125000 -0.216506 Z"></path>
<path id="face.010" d="M 0.250000 -0.433012 L 0.500000 0.0 L 0.125000 -0.216506 Z"></path>
<path id="face.011" d="M 0.500000 0.0 L 0.250000 0.0 L 0.125000 -0.216506 Z"></path>
</g>
</g>

</g>
</svg>
