<svg xmlns="http://www.w3.org/2000/svg" xmlns:xlink="http://www.w3.org/1999/xlink" shape-rendering="geometricPrecision" width="720" height="405" viewBox="0 0 720 405">
<path id="background" d="M 0.0 0.0 L 720.0 0.0 L 720.0 405.0 L 0.0 405.0 Z" stroke="none" fill-opacity="1.000000" fill="#202020"></path>
<g transform="translate(360.000000, 202.500000) scale(1.000000, -1.000000) rotate(0.0) translate(0.0, 0.0)">
<g id="ea1a8d5" class="meshentity2" transform="translate(0.0, 0.0) rotate(0.0) scale(1.000000, 1.000000)">
<g id="0xffff0000" class="materialsolid" stroke="none" fill-opacity="1.000000" fill="#ff0000">
<path id="arc" class="mesh2" fill-rule="evenodd" d="M 24.996093 0.0 L 24.879100 2.415591 L 24.529212 4.808571 L 23.949710 7.156537 L 23.146017 9.437512 L 22.125652 11.630142 L 20.898170 13.713903 L 19.475063 15.669288 L 17.869649 17.477994 L 16.096960 19.123090 L 14.173585 20.589176 L 12.117534 21.862525 L 9.948050 22.931222 L 7.685443 23.785261 L 5.350894 24.416646 L 2.966254 24.819469 L 0.553848 24.989957 L -1.863742 24.926515 L -4.263886 24.629737 L -6.624117 24.102401 L -8.922338 23.349445 L -11.137040 22.377914 L -13.247488 21.196905 L -15.233925 19.817472 L -17.077758 18.252531 L -18.761730 16.516725 L -20.270071 14.626309 L -21.588666 12.598976 L -22.705169 10.453704 L -23.609130 8.210577 L -24.292089 5.890590 L -24.747652 3.515461 L -24.971549 1.107425 L -24.961690 -1.310977 L -24.718168 -3.717108 L -24.243257 -6.088443 L -23.541406 -8.402785 L -22.619188 -10.638468 L -21.485231 -12.774566 L -20.150152 -14.791081 L -18.626447 -16.669137 L -18.160785 -16.252408 L -19.646398 -14.421304 L -20.948101 -12.455202 L -22.053709 -10.372508 L -22.952873 -8.192716 L -23.637176 -5.936233 L -24.100214 -3.624181 L -24.337650 -1.278203 L -24.347261 1.079739 L -24.128961 3.427575 L -23.684787 5.743325 L -23.018903 8.005312 L -22.137540 10.192362 L -21.048950 12.284002 L -19.763319 14.260651 L -18.292686 16.103807 L -16.650815 17.796216 L -14.853076 19.322034 L -12.916300 20.666982 L -10.858613 21.818466 L -8.699280 22.765708 L -6.458514 23.499843 L -4.157289 24.013996 L -1.817148 24.303352 L 0.540002 24.365209 L 2.892098 24.198982 L 5.217122 23.806230 L 7.493308 23.190629 L 9.699349 22.357942 L 11.814596 21.315963 L 13.819247 20.074447 L 15.694536 18.645015 L 17.422908 17.041046 L 18.988187 15.277556 L 20.375717 13.371055 L 21.572511 11.339388 L 22.567365 9.201574 L 23.350969 6.977623 L 23.915985 4.688356 L 24.257123 2.355201 L 24.371192 0.0 Z "></path>
</g>
<g id="0xffdc0023" class="materialsolid" stroke="none" fill-opacity="1.000000" fill="#dc0023">
<path id="arc" class="mesh2" fill-rule="evenodd" d="M 30.784181 3.895150 L 30.266675 6.838600 L 29.468400 9.718611 L 28.396766 12.508469 L 27.061708 15.182293 L 25.475614 17.715280 L 23.653200 20.083930 L 21.611366 22.266273 L 19.369054 24.242067 L 16.947069 25.992977 L 14.367875 27.502767 L 11.655397 28.757429 L 8.834799 29.745325 L 5.932246 30.457290 L 2.974662 30.886720 L -0.010514 31.029630 L -2.995594 30.884696 L -5.952886 30.453262 L -8.854956 29.739330 L -11.674884 28.749525 L -14.386510 27.493024 L -16.964681 25.981487 L -19.385480 24.228933 L -21.626451 22.251621 L -23.666805 20.067895 L -25.487615 17.698009 L -27.071990 15.163949 L -28.405237 12.489221 L -29.474981 9.698637 L -30.271303 6.818086 L -30.786815 3.874286 L -31.016735 0.894547 L -30.958930 -2.093490 L -30.613937 -5.062107 L -29.984954 -7.983767 L -29.077819 -10.831364 L -27.900945 -13.578486 L -26.465250 -16.199647 L -24.784053 -18.670534 L -22.872943 -20.968225 L -20.749658 -23.071405 L -20.230918 -22.494619 L -22.301122 -20.444019 L -24.164451 -18.203771 L -25.803619 -15.794656 L -27.203422 -13.239024 L -28.350875 -10.560581 L -29.235332 -7.784172 L -29.848588 -4.935554 L -30.184957 -2.041152 L -30.241317 0.872183 L -30.017145 3.777429 L -29.514520 6.647634 L -28.738107 9.456171 L -27.695106 12.176991 L -26.395193 14.784851 L -24.850425 17.255559 L -23.075134 19.566198 L -21.085790 21.695331 L -18.900844 23.623210 L -16.540565 25.331949 L -14.026848 26.805698 L -11.383012 28.030786 L -8.633583 28.995847 L -5.804065 29.691932 L -2.920705 30.112581 L -0.010252 30.253890 L 2.900296 30.114551 L 5.783939 29.695858 L 8.613929 29.001691 L 11.364012 28.038496 L 14.008677 26.815200 L 16.523393 25.343154 L 18.884828 23.636014 L 21.071081 21.709617 L 23.061870 19.581832 L 24.838726 17.272397 L 26.385166 14.802736 L 27.686845 12.195757 L 28.731691 9.475647 L 29.510007 6.667635 L 30.014577 3.797772 Z "></path>
</g>
<g id="0xffb90046" class="materialsolid" stroke="none" fill-opacity="1.000000" fill="#b90046">
<path id="arc" class="mesh2" fill-rule="evenodd" d="M 35.895107 9.231478 L 34.846065 12.626589 L 33.476703 15.905633 L 31.799617 19.038467 L 29.830219 21.996294 L 27.586612 24.751926 L 25.089420 27.280027 L 22.361597 29.557365 L 19.428222 31.563001 L 16.316257 33.278503 L 13.054306 34.688095 L 9.672356 35.778827 L 6.201497 36.540668 L 2.673630 36.966617 L -0.878812 37.052753 L -4.423177 36.798294 L -7.926883 36.205574 L -11.357723 35.280040 L -14.684158 34.030200 L -17.875612 32.467544 L -20.902750 30.606435 L -23.737741 28.463987 L -26.354530 26.059888 L -28.729059 23.416236 L -30.839500 20.557338 L -32.666458 17.509469 L -34.193134 14.300648 L -35.405494 10.960371 L -36.292404 7.519344 L -36.845695 4.009196 L -37.060291 0.462194 L -36.934219 -3.089055 L -36.468639 -6.611910 L -35.667823 -10.073987 L -34.539142 -13.443459 L -33.092964 -16.689355 L -31.342586 -19.781839 L -29.304100 -22.692481 L -26.996240 -25.394527 L -24.440221 -27.863138 L -21.659540 -30.075624 L -21.118051 -29.323736 L -23.829216 -27.166563 L -26.321332 -24.759664 L -28.571498 -22.125169 L -30.559024 -19.287294 L -32.265644 -16.272123 L -33.675662 -13.107373 L -34.776130 -9.822137 L -35.556922 -6.446612 L -36.010864 -3.011829 L -36.133785 0.450639 L -35.924556 3.908966 L -35.385093 7.331360 L -34.520359 10.686363 L -33.338306 13.943133 L -31.849796 17.071733 L -30.068513 20.043405 L -28.010831 22.830831 L -25.695667 25.408391 L -23.144300 27.752388 L -20.380180 29.841278 L -17.428722 31.655857 L -14.317054 33.179447 L -11.073779 34.398036 L -7.728711 35.300434 L -4.312598 35.878337 L -0.856842 36.126438 L 2.606789 36.042449 L 6.046459 35.627151 L 9.430548 34.884357 L 12.727949 33.820896 L 15.908350 32.446540 L 18.942518 30.773929 L 21.802556 28.818431 L 24.462184 26.598030 L 26.896945 24.133127 L 29.084465 21.446388 L 31.004627 18.562507 L 32.639789 15.507992 L 33.974914 12.310925 L 34.997730 9.000691 Z "></path>
</g>
<g id="0xff9a0361" class="materialsolid" stroke="none" fill-opacity="1.000000" fill="#9a0361">
<path id="arc" class="mesh2" fill-rule="evenodd" d="M 40.060863 15.888801 L 38.315551 19.729299 L 36.203128 23.380764 L 33.743835 26.808216 L 30.961231 29.978805 L 27.881982 32.862163 L 24.535589 35.430660 L 20.954111 37.659687 L 17.171867 39.527885 L 13.225095 41.017356 L 9.151610 42.113830 L 4.990441 42.806800 L 0.781458 43.089630 L -3.435012 42.959602 L -7.618572 42.417968 L -11.729135 41.469917 L -15.727318 40.124534 L -19.574815 38.394702 L -23.234760 36.297008 L -26.672086 33.851535 L -29.853860 31.081727 L -32.749599 28.014114 L -35.331550 24.678092 L -37.574985 21.105623 L -39.458400 17.330934 L -40.963760 13.390193 L -42.076629 9.321158 L -42.786354 5.162814 L -43.086132 0.955004 L -42.973091 -3.261956 L -42.448310 -7.447662 L -41.516822 -11.562011 L -40.187553 -15.565581 L -38.473236 -19.420013 L -36.390293 -23.088376 L -33.958690 -26.535526 L -31.201717 -29.728429 L -28.145793 -32.636497 L -24.820198 -35.231868 L -21.256792 -37.489673 L -20.725374 -36.552433 L -24.199693 -34.351074 L -27.442150 -31.820585 L -30.421674 -28.985219 L -33.109722 -25.872138 L -35.480537 -22.511167 L -37.511405 -18.934514 L -39.182865 -15.176442 L -40.478904 -11.272961 L -41.387104 -7.261471 L -41.898761 -3.180407 L -42.008979 0.931128 L -41.716697 5.033744 L -41.024715 9.088129 L -39.939662 13.055438 L -38.471942 16.897661 L -36.635612 20.577983 L -34.448261 24.061140 L -31.930858 27.313762 L -29.107513 30.304683 L -26.005283 33.005249 L -22.653890 35.389579 L -19.085445 37.434837 L -15.334136 39.121421 L -11.435907 40.433174 L -7.428108 41.357521 L -3.349137 41.885612 L 0.761921 42.012390 L 4.865680 41.736633 L 8.922821 41.060985 L 12.894468 39.991924 L 16.742570 38.539691 L 20.430257 36.718193 L 23.922199 34.544895 L 27.184932 32.040611 L 30.187200 29.229337 L 32.900241 26.138010 L 35.298049 22.796247 L 37.357662 19.236066 L 39.059345 15.491581 Z "></path>
</g>
<g id="0xff7f0874" class="materialsolid" stroke="none" fill-opacity="1.000000" fill="#7f0874">
<path id="arc" class="mesh2" fill-rule="evenodd" d="M 43.034374 23.702833 L 40.523357 27.778394 L 37.627628 31.590240 L 34.374679 35.102180 L 30.795392 38.280876 L 26.923749 41.096149 L 22.796501 43.521274 L 18.452833 45.533226 L 13.933980 47.112903 L 9.282847 48.245315 L 4.543585 48.919704 L -0.238810 49.129673 L -5.018939 48.873226 L -9.751421 48.152793 L -14.391328 46.975219 L -18.894609 45.351688 L -23.218511 43.297603 L -27.321990 40.832469 L -31.166084 37.979690 L -34.714302 34.766349 L -37.932952 31.222951 L -40.791488 27.383138 L -43.262767 23.283359 L -45.323326 18.962537 L -46.953605 14.461694 L -48.138130 9.823557 L -48.865650 5.092161 L -49.129261 0.312421 L -48.926456 -4.470284 L -48.259170 -9.210551 L -47.133731 -13.863376 L -45.560821 -18.384590 L -43.555381 -22.731266 L -41.136444 -26.862144 L -38.326976 -30.738002 L -35.153644 -34.322048 L -31.646583 -37.580257 L -27.839078 -40.481693 L -23.767286 -42.998813 L -19.469856 -45.107719 L -18.983108 -43.980030 L -23.173103 -41.923843 L -27.143102 -39.469650 L -30.855419 -36.640750 L -34.274803 -33.463996 L -37.368801 -29.969554 L -40.108036 -26.190591 L -42.466495 -22.162986 L -44.421802 -17.924976 L -45.955387 -13.516792 L -47.052692 -8.980287 L -47.703296 -4.358527 L -47.901027 0.304610 L -47.644008 4.964857 L -46.934677 9.577969 L -45.779766 14.100152 L -44.190242 18.488473 L -42.181198 22.701274 L -39.771701 26.698558 L -36.984630 30.442378 L -33.846443 33.897190 L -30.386932 37.030200 L -26.638940 39.811660 L -22.638050 42.215164 L -18.422245 44.217895 L -14.031544 45.800842 L -9.507636 46.948974 L -4.893466 47.651393 L -0.232840 47.901432 L 4.429996 47.696716 L 9.050775 47.039184 L 13.585633 45.935085 L 17.991512 44.394897 L 22.226587 42.433242 L 26.250656 40.068748 L 30.025510 37.323856 L 33.515316 34.224628 L 36.686939 30.800485 L 39.510272 27.083934 L 41.958518 23.110263 Z "></path>
</g>
<g id="0xff660e86" class="materialsolid" stroke="none" fill-opacity="1.000000" fill="#660e86">
<path id="arc" class="mesh2" fill-rule="evenodd" d="M 44.596263 32.468715 L 41.241222 36.636131 L 37.498245 40.458942 L 33.402553 43.901180 L 28.992668 46.930477 L 24.310070 49.518325 L 19.398803 51.640396 L 14.305068 53.276721 L 9.076774 54.411914 L 3.763101 55.035293 L -1.585967 55.140991 L -6.920118 54.728019 L -12.189176 53.800262 L -17.343580 52.366443 L -22.334846 50.440052 L -27.116024 48.039207 L -31.642139 45.186492 L -35.870624 41.908744 L -39.761695 38.236785 L -43.278759 34.205162 L -46.388732 29.851800 L -49.062358 25.217639 L -51.274490 20.346275 L -53.004322 15.283530 L -54.235576 10.077023 L -54.956680 4.775728 L -55.160846 -0.570487 L -54.846153 -5.911337 L -54.015560 -11.196584 L -52.676883 -16.376512 L -50.842716 -21.402399 L -48.530303 -26.226968 L -45.761405 -30.804840 L -42.562061 -35.092952 L -38.962364 -39.050971 L -34.996177 -42.641666 L -30.700809 -45.831260 L -26.116661 -48.589756 L -21.286851 -50.891201 L -16.256811 -52.713947 L -15.850392 -51.396102 L -20.754680 -49.618919 L -25.463747 -47.375011 L -29.933290 -44.685482 L -34.121276 -41.575626 L -37.988307 -38.074699 L -41.498008 -34.215629 L -44.617370 -30.034719 L -47.317047 -25.571296 L -49.571647 -20.867340 L -51.359962 -15.967101 L -52.665172 -10.916669 L -53.474998 -5.763554 L -53.781826 -0.556225 L -53.582763 4.656335 L -52.879692 9.825098 L -51.679214 14.901442 L -49.992630 19.837619 L -47.835800 24.587200 L -45.229015 29.105506 L -42.196792 33.350036 L -38.767654 37.280868 L -34.973857 40.861026 L -30.851089 44.056831 L -26.438123 46.838230 L -21.776475 49.179054 L -16.909990 51.057285 L -11.884448 52.455257 L -6.747115 53.359821 L -1.546318 53.762466 L 3.669024 53.659412 L 8.849855 53.051616 L 13.947442 51.944808 L 18.913833 50.349391 L 23.702318 48.280372 L 28.267854 45.757213 L 32.567489 42.803653 L 36.560791 39.447467 L 40.210189 35.720230 L 43.481361 31.656995 Z "></path>
</g>
<g id="0xff531a8b" class="materialsolid" stroke="none" fill-opacity="1.000000" fill="#531a8b">
<path id="arc" class="mesh2" fill-rule="evenodd" d="M 44.561042 41.945526 L 40.308830 46.046844 L 35.680965 49.719036 L 30.720571 52.927879 L 25.473882 55.643463 L 19.989791 57.840484 L 14.319408 59.498474 L 8.515577 60.601970 L 2.632387 61.140693 L -3.275335 61.109622 L -9.152534 60.509048 L -14.944437 59.344566 L -20.597068 57.627029 L -26.057744 55.372444 L -31.275579 52.601821 L -36.201946 49.340984 L -40.790931 45.620319 L -44.999774 41.474498 L -48.789245 36.942161 L -52.124027 32.065547 L -54.973049 26.890102 L -57.309753 21.464056 L -59.112369 15.837981 L -60.364089 10.064304 L -61.053260 4.196834 L -61.173446 -1.709747 L -60.723533 -7.600396 L -59.707721 -13.420213 L -58.135459 -19.114961 L -56.021419 -24.631570 L -53.385292 -29.918628 L -50.251644 -34.926864 L -46.649684 -39.609603 L -42.612979 -43.923202 L -38.179145 -47.827465 L -33.389507 -51.286006 L -28.288696 -54.266597 L -22.924253 -56.741451 L -17.346170 -58.687515 L -11.606432 -60.086639 L -11.316271 -58.584476 L -16.912517 -57.220325 L -22.351146 -55.322917 L -27.581478 -52.909931 L -32.554767 -50.003860 L -37.224666 -46.631782 L -41.547653 -42.825126 L -45.483440 -38.619365 L -48.995353 -34.053695 L -52.050659 -29.170665 L -54.620883 -24.015783 L -56.682079 -18.637086 L -58.215026 -13.084708 L -59.205448 -7.410386 L -59.644111 -1.667004 L -59.526927 4.091913 L -58.854991 9.812696 L -57.634559 15.442030 L -55.877014 20.927457 L -53.598724 26.217849 L -50.820926 31.263910 L -47.569515 36.018608 L -43.874778 40.437637 L -39.771160 44.479812 L -35.296901 48.107460 L -30.493692 51.286781 L -25.406301 53.988136 L -20.082139 56.186355 L -14.570826 57.860954 L -8.923721 58.996322 L -3.193452 59.581882 L 2.566577 59.612178 L 8.302688 59.086917 L 13.961423 58.011013 L 19.490047 56.394477 L 24.837034 54.252376 L 29.952558 51.604682 L 34.788940 48.476062 L 39.301109 44.895675 L 43.447021 40.896884 Z "></path>
</g>
<g id="0xff412791" class="materialsolid" stroke="none" fill-opacity="1.000000" fill="#412791">
<path id="arc" class="mesh2" fill-rule="evenodd" d="M 42.782600 51.861732 L 37.607563 55.728462 L 32.085300 59.080654 L 26.266794 61.887363 L 20.205770 64.122673 L 13.958190 65.765945 L 7.581736 66.802001 L 1.135279 67.221290 L -5.321658 67.019920 L -11.729463 66.199775 L -18.028970 64.768409 L -24.162015 62.739040 L -30.071979 60.130413 L -35.704292 56.966602 L -41.006946 53.276828 L -45.930992 49.095157 L -50.430957 44.460193 L -54.465301 39.414733 L -57.996776 34.005359 L -60.992767 28.282018 L -63.425621 22.297554 L -65.272872 16.107217 L -66.517463 9.768164 L -67.147911 3.338923 L -67.158386 -3.121145 L -66.548797 -9.552396 L -65.324768 -15.895451 L -63.497596 -22.091745 L -61.084167 -28.084070 L -58.106750 -33.817092 L -54.592838 -39.237892 L -50.574878 -44.296413 L -46.089965 -48.945941 L -41.179508 -53.143562 L -35.888847 -56.850513 L -30.266824 -60.032569 L -24.365354 -62.660354 L -18.238920 -64.709594 L -11.944087 -66.161384 L -5.538977 -67.002311 L -5.400503 -65.327255 L -11.645485 -64.507354 L -17.782947 -63.091861 L -23.756219 -61.093845 L -29.510156 -58.531757 L -34.991626 -55.429252 L -40.150024 -51.814975 L -44.937717 -47.722297 L -49.310508 -43.189002 L -53.228019 -38.256946 L -56.654083 -32.971672 L -59.557064 -27.381967 L -61.910160 -21.539453 L -63.691646 -15.498066 L -64.885078 -9.313587 L -65.479423 -3.043116 L -65.469215 3.255450 L -64.854530 9.523961 L -63.641052 15.704537 L -61.839981 21.740116 L -59.467948 27.574968 L -56.546855 33.155223 L -53.103672 38.429363 L -49.170185 43.348690 L -44.782718 47.867778 L -39.981773 51.944908 L -34.811683 55.542442 L -29.320180 58.627151 L -23.557968 61.170566 L -17.578247 63.149196 L -11.436225 64.544784 L -5.188617 65.344429 L 1.106897 65.540756 L 7.392192 65.131958 L 13.609236 64.121795 L 19.700628 62.519607 L 25.610124 60.340179 L 31.283168 57.603641 L 36.667373 54.335250 L 41.713035 50.565193 Z "></path>
</g>
<g id="0xff2f3998" class="materialsolid" stroke="none" fill-opacity="1.000000" fill="#2f3998">
<path id="arc" class="mesh2" fill-rule="evenodd" d="M 39.158813 61.921409 L 33.064403 65.379043 L 26.667556 68.238662 L 20.026786 70.474121 L 13.202836 72.064964 L 6.258121 72.996643 L -0.743835 73.260635 L -7.738988 72.854522 L -14.663355 71.782035 L -21.453598 70.052955 L -28.047609 67.683128 L -34.385074 64.694213 L -40.408027 61.113544 L -46.061370 56.973892 L -51.293407 52.313102 L -56.056266 47.173816 L -60.306388 41.603042 L -64.004905 35.651733 L -67.117980 29.374324 L -69.617141 22.828233 L -71.479522 16.073337 L -72.688095 9.171422 L -73.231803 2.185617 L -73.105674 -4.820178 L -72.310867 -11.781886 L -70.854637 -18.635828 L -68.750320 -25.319307 L -66.017150 -31.771200 L -62.680145 -37.932483 L -58.769809 -43.746810 L -54.321922 -49.160991 L -49.377155 -54.125507 L -43.980751 -58.594944 L -38.182056 -62.528430 L -32.034126 -65.889976 L -25.593179 -68.648841 L -18.918140 -70.779785 L -12.070059 -72.263320 L -5.111576 -73.085876 L 1.893661 -73.239936 L 1.846320 -71.408935 L -4.983787 -71.258735 L -11.768308 -70.456741 L -18.445186 -69.010292 L -24.953350 -66.932624 L -31.233272 -64.242729 L -37.227508 -60.965217 L -42.881229 -57.130073 L -48.142726 -52.772369 L -52.963871 -47.931968 L -57.300563 -42.653141 L -61.113143 -36.984172 L -64.366729 -30.976921 L -67.031562 -24.686325 L -69.083274 -18.169931 L -70.503097 -11.487339 L -71.278038 -4.699674 L -71.401008 2.130977 L -70.870895 8.942137 L -69.692535 15.671505 L -67.876708 22.257528 L -65.440025 28.639968 L -62.404785 34.760440 L -58.798736 40.562969 L -54.654861 45.994476 L -50.011070 51.005275 L -44.909839 55.549545 L -39.397823 59.585708 L -33.525447 63.076854 L -27.346420 65.991050 L -20.917259 68.301635 L -14.296772 69.987480 L -7.545514 71.033164 L -0.725240 71.429122 L 6.101667 71.171730 L 12.872765 70.263343 L 19.526119 68.712265 L 26.000869 66.532699 L 32.237796 63.744567 L 38.179847 60.373378 Z "></path>
</g>
<g id="0xff1d4ca0" class="materialsolid" stroke="none" fill-opacity="1.000000" fill="#1d4ca0">
<path id="arc" class="mesh2" fill-rule="evenodd" d="M 33.635276 71.811096 L 26.467704 74.750419 L 19.047529 76.976341 L 11.445564 78.467597 L 3.734364 79.209968 L -4.012476 79.196365 L -11.721022 78.426925 L -19.317705 76.908981 L -26.730020 74.657020 L -33.887226 71.692543 L -40.721012 68.043838 L -47.166164 63.745727 L -53.161167 58.839233 L -58.648803 53.371181 L -63.576698 47.393760 L -67.897827 40.964015 L -71.570938 34.143314 L -74.560981 26.996751 L -76.839424 19.592536 L -78.384521 12.001330 L -79.181518 4.295584 L -79.222816 -3.451158 L -78.508018 -11.164963 L -77.043937 -18.772211 L -74.844566 -26.200298 L -71.930885 -33.378330 L -68.330696 -40.237804 L -64.078369 -46.713249 L -59.214477 -52.742870 L -53.785453 -58.269119 L -47.843097 -63.239250 L -41.444137 -67.605827 L -34.649639 -71.327186 L -27.524444 -74.367797 L -20.136558 -76.698654 L -12.556492 -78.297508 L -4.856588 -79.149085 L 2.889666 -79.245285 L 10.608343 -78.585159 L 10.343134 -76.620536 L 2.817424 -77.264152 L -4.735174 -77.170364 L -12.242582 -76.340072 L -19.633146 -74.781188 L -26.836334 -72.508605 L -33.783397 -69.544006 L -40.408035 -65.915687 L -46.647022 -61.658271 L -52.440818 -56.812389 L -57.734115 -51.424301 L -62.476409 -45.545421 L -66.622428 -39.231861 L -70.132614 -32.543872 L -72.973457 -25.545289 L -75.117843 -18.302906 L -76.545318 -10.885839 L -77.242248 -3.364879 L -77.201980 4.188194 L -76.424911 11.701297 L -74.918441 19.102724 L -72.696960 26.321834 L -69.781669 33.289733 L -66.200378 39.939918 L -61.987281 46.208915 L -57.182582 52.036903 L -51.832141 57.368255 L -45.987010 62.152084 L -39.702991 66.342742 L -33.040046 69.900230 L -26.061769 72.790596 L -18.834762 74.986259 L -11.427996 76.466255 L -3.912164 77.216461 L 3.641005 77.229721 L 11.159424 76.505912 L 18.571340 75.051933 L 25.806015 72.881660 L 32.794395 70.015815 Z "></path>
</g>
<g id="0xff125f9d" class="materialsolid" stroke="none" fill-opacity="1.000000" fill="#125f9d">
<path id="arc" class="mesh2" fill-rule="evenodd" d="M 26.207845 81.207221 L 18.197340 83.368591 L 10.014796 84.741775 L 1.737571 85.313804 L -6.556081 85.079269 L -14.787751 84.040390 L -22.879617 82.206977 L -30.755176 79.596382 L -38.339973 76.233261 L -45.562301 72.149436 L -52.353878 67.383499 L -58.650497 61.980514 L -64.392623 55.991550 L -69.525985 49.473243 L -74.002037 42.487213 L -77.778465 35.099506 L -80.819564 27.379959 L -83.096595 19.401561 L -84.588020 11.239742 L -85.279731 2.971658 L -85.165214 -5.324519 L -84.245529 -13.570357 L -82.529380 -21.687900 L -80.032997 -29.600404 L -76.779968 -37.233066 L -72.801048 -44.513717 L -68.133872 -51.373535 L -62.822547 -57.747657 L -56.917289 -63.575836 L -50.473930 -68.802955 L -43.553382 -73.379608 L -36.221084 -77.262519 L -28.546344 -80.414993 L -20.601724 -82.807205 L -12.462333 -84.416557 L -4.205123 -85.227821 L 4.091842 -85.233337 L 12.350124 -84.433044 L 20.491645 -82.834518 L 19.979354 -80.763656 L 12.041370 -82.322219 L 3.989546 -83.102500 L -4.099995 -83.097122 L -12.150774 -82.306144 L -20.086681 -80.737030 L -27.832685 -78.404617 L -35.315555 -75.330963 L -42.464550 -71.545120 L -49.212081 -67.082885 L -55.494354 -61.986438 L -61.251983 -56.303970 L -66.430526 -50.089199 L -70.981025 -43.400875 L -74.860473 -36.302238 L -78.032173 -28.860397 L -80.466156 -21.145704 L -82.139396 -13.231099 L -83.036087 -5.191406 L -83.147743 2.897366 L -82.473320 10.958748 L -81.019180 18.916524 L -78.799079 26.695463 L -75.833999 34.222015 L -72.151985 41.425033 L -67.787834 48.236415 L -62.782814 54.591766 L -57.184234 60.430999 L -51.045032 65.698913 L -44.423244 70.345703 L -37.381473 74.327438 L -29.986297 77.606468 L -22.307628 80.151809 L -14.418057 81.939376 L -6.392179 82.952293 L 1.694131 83.180961 L 9.764427 82.623229 L 17.742406 81.284370 L 25.552650 79.177047 Z "></path>
</g>
<g id="0xff137183" class="materialsolid" stroke="none" fill-opacity="1.000000" fill="#137183">
<path id="arc" class="mesh2" fill-rule="evenodd" d="M 16.924232 89.783843 L 8.166660 90.999305 L -0.667392 91.362586 L -9.495194 90.870292 L -18.234077 89.527015 L -26.802202 87.345352 L -35.119335 84.345726 L -43.107582 80.556221 L -50.692142 76.012336 L -57.801990 70.756614 L -64.370529 64.838287 L -70.336265 58.312759 L -75.643325 51.241153 L -80.242004 43.689693 L -84.089241 35.729087 L -87.149009 27.433893 L -89.392654 18.881786 L -90.799163 10.152858 L -91.355361 1.328853 L -91.056053 -7.507597 L -89.904022 -16.273740 L -87.910072 -24.887487 L -85.092872 -33.268169 L -81.478805 -41.337303 L -77.101707 -49.019329 L -72.002586 -56.242301 L -66.229171 -62.938583 L -59.835548 -69.045463 L -52.881572 -74.505752 L -45.432388 -79.268325 L -37.557739 -83.288558 L -29.331371 -86.528831 L -20.830326 -88.958786 L -12.134212 -90.555671 L -3.324463 -91.304527 L 5.516417 -91.198341 L 14.305638 -90.238113 L 22.960893 -88.432838 L 31.401121 -85.799400 L 30.616096 -83.654418 L 22.386869 -86.222015 L 13.947997 -87.982162 L 5.378506 -88.918388 L -3.241352 -89.021919 L -11.830858 -88.291778 L -20.309570 -86.734817 L -28.598089 -84.365615 L -36.618793 -81.206352 L -44.296581 -77.286613 L -51.559539 -72.643112 L -58.339656 -67.319328 L -64.573448 -61.365119 L -70.202522 -54.836242 L -75.174171 -47.793849 L -79.441833 -40.303871 L -82.965553 -32.436466 L -85.712326 -24.265300 L -87.656425 -15.866898 L -88.779647 -7.319907 L -89.071487 1.295631 L -88.529190 9.899038 L -87.157844 18.409742 L -84.970291 26.748046 L -81.987014 34.835861 L -78.235954 42.597450 L -73.752243 49.960124 L -68.577865 56.854942 L -62.761268 63.217327 L -56.356941 68.987701 L -49.424842 74.112030 L -42.029895 78.542320 L -34.241352 82.237075 L -26.132146 85.161720 L -17.778224 87.288848 L -9.257814 88.598533 L -0.650707 89.078529 L 7.962493 88.724327 L 16.501127 87.539245 Z "></path>
</g>
<g id="0xff158368" class="materialsolid" stroke="none" fill-opacity="1.000000" fill="#158368">
<path id="arc" class="mesh2" fill-rule="evenodd" d="M 5.884301 97.220664 L -3.495503 97.335830 L -12.842885 96.548133 L -22.071138 94.864891 L -31.094667 92.301696 L -39.829772 88.882347 L -48.195423 84.638542 L -56.114028 79.609664 L -63.512134 73.842338 L -70.321121 67.390075 L -76.477828 60.312721 L -81.925148 52.675922 L -86.612548 44.550514 L -90.496559 36.011867 L -93.541145 27.139184 L -95.718078 18.014770 L -97.007148 8.723253 L -97.396408 -0.649178 L -96.882247 -10.015588 L -95.469436 -19.289096 L -93.171073 -28.383684 L -90.008483 -37.214992 L -86.010993 -45.701103 L -81.215690 -53.763309 L -75.667060 -61.326816 L -69.416557 -68.321472 L -62.522171 -74.682395 L -55.047843 -80.350585 L -47.062904 -85.273475 L -38.641426 -89.405380 L -29.861518 -92.707992 L -20.804624 -95.150665 L -11.554751 -96.710754 L -2.197700 -97.373779 L 7.179735 -97.133590 L 16.490573 -95.992408 L 25.648448 -93.960838 L 34.568420 -91.057708 L 43.167739 -87.309951 L 42.088546 -85.127212 L 33.704208 -88.781272 L 25.007240 -91.611816 L 16.078310 -93.592605 L 7.000242 -94.705245 L -2.142758 -94.939430 L -11.265883 -94.292991 L -20.284509 -92.771903 L -29.114980 -90.390296 L -37.675392 -87.170257 L -45.886333 -83.141639 L -53.671646 -78.341835 L -60.959117 -72.815338 L -67.681144 -66.613441 L -73.775382 -59.793647 L -79.185302 -52.419223 L -83.860725 -44.558578 L -87.758270 -36.284618 L -90.841796 -27.674093 L -93.082702 -18.806869 L -94.460197 -9.765198 L -94.961502 -0.632949 L -94.581977 8.505171 L -93.325126 17.564401 L -91.202629 26.460706 L -88.234153 35.111572 L -84.447242 43.436752 L -79.877021 51.359024 L -74.565887 58.804904 L -68.563095 65.705322 L -61.924331 71.996284 L -54.711181 77.619422 L -46.990539 82.522583 L -38.834026 86.660285 L -30.317300 89.994163 L -21.519361 92.493263 L -12.521812 94.134437 L -3.408115 94.902435 L 5.737193 94.790145 Z "></path>
</g>
<g id="0xff0d9253" class="materialsolid" stroke="none" fill-opacity="1.000000" fill="#0d9253">
<path id="arc" class="mesh2" fill-rule="evenodd" d="M -6.760739 103.210922 L -16.611057 102.089538 L -26.308763 100.030250 L -35.764770 97.051963 L -44.892200 93.182037 L -53.607192 88.456039 L -61.829692 82.917373 L -69.484146 76.616935 L -76.500244 69.612609 L -82.813514 61.968730 L -88.365966 53.755542 L -93.106582 45.048488 L -96.991813 35.927566 L -99.985961 26.476572 L -102.061531 16.782331 L -103.199432 6.933910 L -103.389228 -2.978214 L -102.629165 -12.862977 L -100.926239 -22.629566 L -98.296073 -32.188255 L -94.762855 -41.451221 L -90.359031 -50.333370 L -85.125053 -58.753097 L -79.109031 -66.633049 L -72.366218 -73.900833 L -64.958557 -80.489677 L -56.954116 -86.339042 L -48.426425 -91.395202 L -39.453834 -95.611701 L -30.118772 -98.949790 L -20.507005 -101.378814 L -10.706836 -102.876457 L -0.808302 -103.428955 L 9.097658 -103.031234 L 18.920036 -101.686943 L 28.568593 -99.408439 L 37.954685 -96.216651 L 46.992080 -92.140899 L 55.597755 -87.218643 L 54.207809 -85.038177 L 45.817279 -89.837387 L 37.005817 -93.811241 L 27.854379 -96.923233 L 18.447036 -99.144767 L 8.870216 -100.455459 L -0.788094 -100.843231 L -10.439166 -100.304550 L -19.994331 -98.844345 L -29.365802 -96.476051 L -38.467491 -93.221412 L -47.215766 -89.110328 L -55.530265 -84.180572 L -63.334594 -78.477432 L -70.557060 -72.053314 L -77.131309 -64.967224 L -82.996932 -57.284271 L -88.100051 -49.075035 L -92.393783 -40.414939 L -95.838676 -31.383548 L -98.403076 -22.063827 L -100.063438 -12.541402 L -100.804504 -2.903759 L -100.619453 6.760562 L -99.509994 16.362773 L -97.486320 25.814657 L -94.567024 35.029376 L -90.778923 43.922275 L -86.156814 52.411651 L -80.743179 60.419513 L -74.587738 67.872291 L -67.747047 74.701515 L -60.283950 80.844444 L -52.267013 86.244636 L -43.769893 90.852493 L -34.870651 94.625663 L -25.651046 97.529495 L -16.195779 99.537307 L -6.591721 100.630653 Z "></path>
</g>
<g id="0xff04a13e" class="materialsolid" stroke="none" fill-opacity="1.000000" fill="#04a13e">
<path id="arc" class="mesh2" fill-rule="evenodd" d="M -20.810350 107.469337 L -31.226083 104.917404 L -41.342132 101.358558 L -51.061420 96.826957 L -60.290664 91.366104 L -68.941284 85.028396 L -76.930274 77.874656 L -84.180946 69.973548 L -90.623725 61.400894 L -96.196777 52.238960 L -100.846611 42.575687 L -104.528617 32.503807 L -107.207443 22.119987 L -108.857376 11.523876 L -109.462608 0.817169 L -109.017295 -9.897379 L -107.525741 -20.516942 L -105.002235 -30.939601 L -101.471015 -41.065326 L -96.965965 -50.796943 L -91.530326 -60.041057 L -85.216255 -68.708953 L -78.084350 -76.717430 L -70.203056 -83.989639 L -61.648014 -90.455795 L -52.501331 -96.053840 L -42.850780 -100.730033 L -32.788990 -104.439506 L -22.412519 -107.146667 L -11.820953 -108.825523 L -1.115938 -109.459960 L 9.599786 -109.043907 L 20.223381 -107.581336 L 30.652887 -105.086296 L 40.788215 -101.582725 L 50.532093 -97.104255 L 59.791004 -91.693862 L 68.476097 -85.403472 L 66.764198 -83.268386 L 58.296230 -89.401519 L 49.268791 -94.676651 L 39.768512 -99.043167 L 29.886566 -102.459136 L 19.717796 -104.891807 L 9.359791 -106.317810 L -1.088039 -106.723464 L -11.525429 -106.104881 L -21.852209 -104.468002 L -31.969268 -101.828521 L -41.779514 -98.211784 L -51.188796 -93.652488 L -60.106819 -88.194404 L -68.447975 -81.889900 L -76.132240 -74.799491 L -83.085845 -66.991226 L -89.242065 -58.540031 L -94.541824 -49.527023 L -98.934249 -40.038696 L -102.377189 -30.166112 L -104.837600 -20.004018 L -106.291870 -9.649945 L -106.726036 0.796740 L -106.135948 11.235778 L -104.527252 21.566987 L -101.915405 31.691213 L -98.325454 41.511295 L -93.791862 50.932987 L -88.358139 59.865867 L -82.076423 68.224205 L -75.007019 75.927795 L -67.217750 82.902687 L -58.783393 89.081954 L -49.784885 94.406288 L -40.308582 98.824592 L -30.445430 102.294471 L -20.290092 104.782600 Z "></path>
</g>
<g id="0xff1bb22e" class="materialsolid" stroke="none" fill-opacity="1.000000" fill="#1bb22e">
<path id="arc" class="mesh2" fill-rule="evenodd" d="M -36.017887 109.739570 L -46.532703 105.710777 L -56.605232 100.677253 L -66.139755 94.686820 L -75.045646 87.796424 L -83.238250 80.071556 L -90.639709 71.585639 L -97.179672 62.419326 L -102.795982 52.659736 L -107.435249 42.399639 L -111.053382 31.736549 L -113.615989 20.771816 L -115.098724 9.609650 L -115.487487 -1.643848 L -114.778579 -12.881724 L -112.978752 -23.997163 L -110.105094 -34.884521 L -106.184928 -45.440311 L -101.255516 -55.564208 L -95.363708 -65.159988 L -88.565505 -74.136451 L -80.925521 -82.408264 L -72.516365 -89.896820 L -63.417961 -96.530944 L -53.716804 -102.247573 L -43.505084 -106.992378 L -32.879863 -110.720260 L -21.942132 -113.395782 L -10.795848 -114.993522 L 0.453044 -115.498298 L 11.697631 -114.905296 L 22.831037 -113.220161 L 33.747444 -110.458915 L 44.343090 -106.647796 L 54.517272 -101.823020 L 64.173294 -96.030464 L 73.219367 -89.325172 L 81.569519 -81.770874 L 79.530281 -79.726608 L 71.388877 -87.092041 L 62.568958 -93.629707 L 53.154342 -99.277450 L 43.234516 -103.981597 L 32.903755 -107.697441 L 22.260261 -110.389656 L 11.405191 -112.032661 L 0.441718 -112.610839 L -10.525953 -112.118690 L -21.393579 -110.560890 L -32.057865 -107.952255 L -42.417457 -104.317573 L -52.373886 -99.691383 L -61.832519 -94.117675 L -70.703453 -87.649406 L -78.902381 -80.348060 L -86.351371 -72.283042 L -92.979614 -63.530990 L -98.724136 -54.175106 L -103.530311 -44.304302 L -107.352470 -34.012409 L -110.154281 -23.397235 L -111.909118 -12.559681 L -112.600296 -1.602752 L -112.221260 9.369409 L -110.775588 20.252519 L -108.277046 30.943138 L -104.749366 41.339653 L -100.226081 51.343246 L -94.750190 60.858844 L -88.373718 69.795997 L -81.157302 78.069770 L -73.169509 85.601516 L -64.486267 92.319648 L -55.190105 98.160316 L -45.369384 103.068008 L -35.117439 106.996086 Z "></path>
</g>
<g id="0xff50c423" class="materialsolid" stroke="none" fill-opacity="1.000000" fill="#50c423">
<path id="arc" class="mesh2" fill-rule="evenodd" d="M -52.094882 109.801307 L -62.489925 104.236343 L -72.296775 97.690231 L -81.423118 90.224609 L -89.783065 81.909736 L -97.297920 72.823890 L -103.896957 63.052581 L -109.518043 52.687778 L -114.108291 41.827049 L -117.624488 30.572622 L -120.033523 19.030427 L -121.312736 7.309107 L -121.450088 -4.481010 L -120.444282 -16.228950 L -118.304786 -27.824134 L -115.051727 -39.157421 L -110.715744 -50.122138 L -105.337631 -60.615074 L -98.968025 -70.537467 L -91.666877 -79.795921 L -83.502899 -88.303283 L -74.552947 -95.979484 L -64.901268 -102.752281 L -54.638687 -108.557899 L -43.861820 -113.341712 L -32.672100 -117.058700 L -21.174852 -119.673851 L -9.478291 -121.162559 L 2.307482 -121.510826 L 14.071537 -120.715354 L 25.703142 -118.783645 L 37.092815 -115.733863 L 48.133346 -111.594734 L 58.720821 -106.405212 L 68.755577 -100.214141 L 78.143173 -93.079795 L 86.795234 -85.069328 L 94.630325 -76.258140 L 92.264572 -74.351692 L 84.625358 -82.942604 L 76.189598 -90.752807 L 67.036689 -97.708786 L 57.252799 -103.745086 L 46.930015 -108.804870 L 36.165493 -112.840522 L 25.060564 -115.814048 L 13.719749 -117.697471 L 2.249794 -118.473052 L -9.241334 -118.133499 L -20.645481 -116.682006 L -31.855298 -114.132232 L -42.765274 -110.508178 L -53.272720 -105.843963 L -63.278736 -100.183471 L -72.689125 -93.580001 L -81.415336 -86.095710 L -89.375205 -77.801017 L -96.493835 -68.774024 L -102.704193 -59.099700 L -107.947853 -48.869087 L -112.175437 -38.178485 L -115.347167 -27.128532 L -117.433181 -15.823227 L -118.413841 -4.368986 L -118.279930 7.126379 L -117.032684 18.554668 L -114.683876 29.808309 L -111.255584 40.781375 L -106.780097 51.370586 L -101.299530 61.476261 L -94.865470 71.003295 L -87.538490 79.861999 L -79.387542 87.968994 L -70.489349 95.247978 L -60.927673 101.630424 L -50.792510 107.056282 Z "></path>
</g>
<g id="0xff85d519" class="materialsolid" stroke="none" fill-opacity="1.000000" fill="#85d519">
<path id="arc" class="mesh2" fill-rule="evenodd" d="M -68.716270 107.476638 L -78.760261 100.349250 L -88.070144 92.286514 L -96.559127 83.363578 L -104.148086 73.663612 L -110.766288 63.277030 L -116.352035 52.300640 L -120.853271 40.836761 L -124.228027 28.992242 L -126.444862 16.877489 L -127.483108 4.605419 L -127.333091 -7.709577 L -125.996200 -19.952713 L -123.484901 -32.009872 L -119.822608 -43.768665 L -115.043449 -55.119491 L -109.191970 -65.956550 L -102.322723 -76.178833 L -94.499717 -85.691055 L -85.795890 -94.404548 L -76.292358 -102.238105 L -66.077705 -109.118690 L -55.247150 -114.982192 L -43.901634 -119.773956 L -32.146915 -123.449295 L -20.092554 -125.973976 L -7.850909 -127.324455 L 4.463912 -127.488143 L 16.737127 -126.463516 L 28.854333 -124.260131 L 40.702594 -120.898513 L 52.171463 -116.410018 L 63.154045 -110.836456 L 73.547966 -104.229789 L 83.256355 -96.651603 L 92.188705 -88.172531 L 100.261772 -78.871604 L 107.400299 -68.835517 L 104.715301 -67.114631 L 97.755226 -76.899818 L 89.883987 -85.968223 L 81.174942 -94.235321 L 71.709274 -101.624046 L 61.575195 -108.065551 L 50.867176 -113.499771 L 39.685028 -117.876052 L 28.132976 -121.153633 L 16.318698 -123.301933 L 4.352314 -124.300941 L -7.654636 -124.141342 L -19.590238 -122.824630 L -31.343242 -120.363067 L -42.804100 -116.779602 L -53.865974 -112.107643 L -64.425773 -106.390731 L -74.385047 -99.682151 L -83.650993 -92.044433 L -92.137229 -83.548774 L -99.764656 -74.274368 L -106.462173 -64.307632 L -112.167366 -53.741504 L -116.827041 -42.674446 L -120.397789 -31.209625 L -122.846290 -19.453895 L -124.149765 -7.516838 L -124.296028 4.490283 L -123.283744 16.455551 L -121.122329 28.267436 L -117.831939 39.815845 L -113.443237 50.993129 L -107.997131 61.695106 L -101.544395 71.822021 L -94.145156 81.279495 L -85.868400 89.979362 L -76.791267 97.840522 L -66.998359 104.789726 Z "></path>
</g>
<g id="0xffb9e70e" class="materialsolid" stroke="none" fill-opacity="1.000000" fill="#b9e70e">
<path id="arc" class="mesh2" fill-rule="evenodd" d="M -85.526725 102.635704 L -94.981056 93.954811 L -103.558731 84.406738 L -111.180572 74.079612 L -117.776245 63.068737 L -123.284851 51.475753 L -127.655570 39.407657 L -130.848052 26.975833 L -132.832824 14.295030 L -133.591583 1.482285 L -133.117309 -11.344139 L -131.414398 -24.065860 L -128.498550 -36.565460 L -124.396675 -48.727561 L -119.146644 -60.439922 L -112.796920 -71.594429 L -105.406097 -82.088134 L -97.042396 -91.824188 L -87.783012 -100.712715 L -77.713409 -108.671676 L -66.926521 -115.627632 L -55.521915 -121.516357 L -43.604850 -126.283508 L -31.285326 -129.885086 L -18.677042 -132.287857 L -5.896369 -133.469619 L 6.938723 -133.419494 L 19.709774 -132.137939 L 32.298908 -129.636764 L 44.589923 -125.939064 L 56.469387 -121.078964 L 67.827644 -115.101341 L 78.559875 -108.061347 L 88.567001 -100.023963 L 97.756675 -91.063385 L 106.044075 -81.262306 L 113.352706 -70.711189 L 119.615112 -59.507423 L 116.624732 -58.019741 L 110.518890 -68.943412 L 103.392974 -79.230751 L 95.312767 -88.786804 L 86.352828 -97.523368 L 76.595878 -105.359817 L 66.131958 -112.223808 L 55.057655 -118.052001 L 43.475177 -122.790588 L 31.491432 -126.395835 L 19.217029 -128.834487 L 6.765254 -130.084014 L -5.748960 -130.132888 L -18.210115 -128.980667 L -30.503194 -126.637969 L -42.514736 -123.126426 L -54.133869 -118.478446 L -65.253364 -112.736938 L -75.770576 -105.954895 L -85.588447 -98.194900 L -94.616340 -89.528587 L -102.770950 -80.035942 L -109.977005 -69.804573 L -116.167984 -58.928928 L -121.286766 -47.509376 L -125.286087 -35.651321 L -128.129043 -23.464216 L -129.789382 -11.060536 L -130.251800 1.445228 L -129.512008 13.937655 L -127.576858 26.301439 L -124.464187 38.422466 L -120.202735 50.188861 L -114.831832 61.492023 L -108.401062 72.227622 L -100.969764 82.296569 L -92.606536 91.605949 L -83.388565 100.069808 Z "></path>
</g>
<g id="0xffeef904" class="materialsolid" stroke="none" fill-opacity="1.000000" fill="#eef904">
<path id="arc" class="mesh2" fill-rule="evenodd" d="M -102.147865 95.201293 L -110.771804 85.012229 L -118.383392 74.046226 L -124.913055 62.403518 L -130.301132 50.190486 L -134.498382 37.518764 L -137.466430 24.504156 L -139.178146 11.265600 L -139.617919 -2.075913 L -138.781692 -15.398455 L -136.677139 -28.580268 L -133.323471 -41.500885 L -128.751342 -54.042221 L -123.002555 -66.089660 L -116.129631 -77.533096 L -108.195381 -88.267944 L -99.272323 -98.196121 L -89.442008 -107.226852 L -78.794273 -115.277641 L -67.426429 -122.274887 L -55.442367 -128.154647 L -42.951614 -132.863204 L -30.068321 -136.357498 L -16.910228 -138.605621 L -3.597592 -139.586990 L 9.747921 -139.292678 L 23.004348 -137.725341 L 36.050537 -134.899337 L 48.767257 -130.840469 L 61.038288 -125.585823 L 72.751480 -119.183448 L 83.799797 -111.691841 L 94.082252 -103.179466 L 103.504882 -93.724128 L 111.981567 -83.412231 L 119.434844 -72.338020 L 125.796592 -60.602714 L 131.008666 -48.313549 L 127.733459 -47.105709 L 122.651679 -59.087650 L 116.448974 -70.529579 L 109.182022 -81.326927 L 100.917259 -91.381019 L 91.730194 -100.599983 L 81.704795 -108.899543 L 70.932693 -116.203857 L 59.512332 -122.446182 L 47.548076 -127.569450 L 35.149272 -131.526855 L 22.429241 -134.282211 L 9.504223 -135.810363 L -3.507652 -136.097320 L -16.487472 -135.140472 L -29.316612 -132.948562 L -41.877826 -129.541625 L -54.056308 -124.950790 L -65.740768 -119.218017 L -76.824417 -112.395698 L -87.205963 -104.546188 L -96.790519 -95.741218 L -105.490501 -86.061256 L -113.226387 -75.594764 L -119.927497 -64.437416 L -125.532562 -52.691162 L -129.990386 -40.463363 L -133.260208 -27.865762 L -135.312164 -15.013494 L -136.127471 -2.024015 L -135.698699 10.983960 L -134.029769 23.891553 L -131.135925 36.580799 L -127.043609 48.935726 L -121.790237 60.843429 L -115.423805 72.195075 L -108.002510 82.886924 L -99.594161 92.821266 Z "></path>
</g>
<g id="0xfffff200" class="materialsolid" stroke="none" fill-opacity="1.000000" fill="#fff200">
<path id="arc" class="mesh2" fill-rule="evenodd" d="M -118.185760 85.152648 L -125.935997 73.204994 L -132.482513 60.557647 L -137.762756 47.331481 L -141.726242 33.652919 L -144.335083 19.652694 L -145.564361 5.464626 L -145.402313 -8.775672 L -143.850494 -22.932092 L -140.923736 -36.869327 L -136.650009 -50.454154 L -131.070159 -63.556739 L -124.237533 -76.051841 L -116.217422 -87.820022 L -107.086486 -98.748817 L -96.932014 -108.733757 L -85.851051 -117.679405 L -73.949516 -125.500259 L -61.341159 -132.121566 L -48.146492 -137.480041 L -34.491641 -141.524459 L -20.507110 -144.216171 L -6.326572 -145.529449 L 7.914436 -145.451736 L 22.079799 -143.983779 L 36.034118 -141.139602 L 49.644020 -136.946411 L 62.779415 -131.444244 L 75.314765 -124.685737 L 87.130241 -116.735458 L 98.112915 -107.669410 L 108.157814 -97.574241 L 117.168930 -86.546455 L 125.060119 -74.691436 L 131.755981 -62.122512 L 137.192504 -48.959815 L 141.317718 -35.329151 L 137.784774 -34.445926 L 133.762695 -47.735824 L 128.462081 -60.569454 L 121.933624 -72.824157 L 114.239700 -84.382789 L 105.453872 -95.134887 L 95.660087 -104.977676 L 84.951988 -113.817077 L 73.431892 -121.568595 L 61.209934 -128.158142 L 48.402919 -133.522735 L 35.133266 -137.611114 L 21.527803 -140.384185 L 7.716575 -141.815444 L -6.168407 -141.891220 L -19.994432 -140.610763 L -33.629348 -137.986343 L -46.942832 -134.043045 L -59.807632 -128.818527 L -72.100776 -122.362754 L -83.704780 -114.737426 L -94.508720 -106.015419 L -104.409332 -96.280097 L -113.311988 -85.624526 L -121.131591 -74.150550 L -127.793411 -61.967823 L -133.233749 -49.192802 L -137.400650 -35.947593 L -140.254226 -22.358791 L -141.767257 -8.556281 L -141.925247 5.328010 L -140.726715 19.161375 L -138.183090 32.811595 L -134.318679 46.148197 L -129.170455 59.043708 L -122.787590 71.374870 L -115.231117 83.023826 Z "></path>
</g>
<g id="0xffffde00" class="materialsolid" stroke="none" fill-opacity="1.000000" fill="#ffde00">
<path id="arc" class="mesh2" fill-rule="evenodd" d="M -133.239364 72.527854 L -139.656036 59.238590 L -144.751098 45.388744 L -148.476348 31.109367 L -150.796524 16.535593 L -151.689682 1.805340 L -151.147354 -12.941995 L -149.174697 -27.566858 L -145.790344 -41.930850 L -141.026336 -55.898036 L -134.927764 -69.336250 L -127.552345 -82.118316 L -118.969856 -94.123275 L -109.261535 -105.237525 L -98.519233 -115.355880 L -86.844627 -124.382591 L -74.348190 -132.232238 L -61.148170 -138.830551 L -47.369491 -144.115051 L -33.142543 -148.035766 L -18.601955 -150.555587 L -3.885336 -151.650650 L 10.868049 -151.310623 L 25.518590 -149.538681 L 39.927642 -146.351638 L 53.958847 -141.779617 L 67.479423 -135.865921 L 80.361434 -128.666458 L 92.482955 -120.249420 L 103.729293 -110.694412 L 113.994010 -100.091880 L 123.179969 -88.542160 L 131.200256 -76.154533 L 137.978958 -63.046245 L 143.451919 -49.341327 L 147.567352 -35.169483 L 150.286331 -20.664819 L 146.529190 -20.148200 L 143.878189 -34.290248 L 139.865615 -48.107795 L 134.529479 -61.470088 L 127.920249 -74.250671 L 120.100479 -86.328613 L 111.144165 -97.589584 L 101.136062 -107.927055 L 90.170883 -117.243179 L 78.352401 -125.449806 L 65.792442 -132.469268 L 52.609878 -138.235137 L 38.929450 -142.692855 L 24.880626 -145.800231 L 10.596349 -147.527862 L -3.788203 -147.859390 L -18.136907 -146.791702 L -32.313980 -144.334884 L -46.185253 -140.512191 L -59.619464 -135.359786 L -72.489479 -128.926437 L -84.673515 -121.273033 L -96.056251 -112.471984 L -106.529998 -102.606590 L -115.995620 -91.770195 L -124.363540 -80.065361 L -131.554580 -67.602851 L -137.500686 -54.500591 L -142.145584 -40.882579 L -145.445327 -26.877689 L -147.368682 -12.618446 L -147.897445 1.760207 L -147.026611 16.122203 L -144.764434 30.331632 L -141.132324 44.254024 L -136.164642 57.757629 L -129.908386 70.714660 Z "></path>
</g>
<g id="0xffffcb00" class="materialsolid" stroke="none" fill-opacity="1.000000" fill="#ffcb00">
<path id="arc" class="mesh2" fill-rule="evenodd" d="M -146.909332 57.425189 L -151.772979 42.953075 L -155.214691 28.078538 L -157.202209 12.940937 L -157.716934 -2.317903 L -156.754028 -17.555028 L -154.322509 -32.627681 L -150.445175 -47.394657 L -145.158340 -61.717590 L -138.511535 -75.462303 L -130.567031 -88.500022 L -121.399261 -100.708602 L -111.094123 -111.973648 L -99.748161 -122.189636 L -87.467681 -131.260848 L -74.367721 -139.102279 L -60.571018 -145.640502 L -46.206840 -150.814224 L -31.409751 -154.574996 L -16.318389 -156.887573 L -1.074146 -157.730300 L 14.180162 -157.095275 L 29.301618 -154.988449 L 44.148555 -151.429550 L 58.581863 -146.451934 L 72.466331 -140.102233 L 85.671867 -132.439926 L 98.074768 -123.536811 L 109.558815 -113.476303 L 120.016410 -102.352645 L 129.349609 -90.270057 L 137.470932 -77.341751 L 144.304321 -63.688838 L 149.785736 -49.439231 L 153.863830 -34.726436 L 156.500396 -19.688297 L 157.670730 -4.465698 L 153.728973 -4.354056 L 152.587890 -19.196090 L 150.017242 -33.858276 L 146.041091 -48.203250 L 140.696716 -62.096618 L 134.034164 -75.408210 L 126.115859 -88.013305 L 117.016006 -99.793823 L 106.819839 -110.639396 L 95.622894 -120.448387 L 83.530082 -129.128921 L 70.654670 -136.599670 L 57.117321 -142.790634 L 43.044837 -147.643814 L 28.569080 -151.113739 L 13.825657 -153.167892 L -1.047292 -153.787048 L -15.910431 -152.965393 L -30.624507 -150.710632 L -45.051670 -147.043869 L -59.056747 -141.999481 L -72.508529 -135.624725 L -85.280990 -127.979316 L -97.254463 -119.134902 L -108.316772 -109.174308 L -118.364280 -98.190887 L -127.302856 -86.287528 L -135.048736 -73.575752 L -141.529388 -60.174652 L -146.684051 -46.209793 L -150.464462 -31.811992 L -152.835174 -17.116153 L -153.774017 -2.259955 L -153.272155 12.617414 L -151.334320 27.376575 L -147.978652 41.879249 L -143.236602 55.989562 Z "></path>
</g>
<g id="0xffffb800" class="materialsolid" stroke="none" fill-opacity="1.000000" fill="#ffb800">
<path id="arc" class="mesh2" fill-rule="evenodd" d="M -158.806594 40.003208 L -161.918243 24.541336 L -163.528091 8.851842 L -163.621246 -6.919749 L -162.196807 -22.627161 L -159.268020 -38.124706 L -154.862014 -53.268650 L -149.019699 -67.918525 L -141.795211 -81.938476 L -133.255584 -95.198432 L -123.480033 -107.575447 L -112.559211 -118.954696 L -100.594406 -129.230636 L -87.696594 -138.307998 L -73.985404 -146.102554 L -59.588005 -152.542007 L -44.637928 -157.566650 L -29.273839 -161.129882 L -13.638236 -163.198638 L 2.123857 -163.753723 L 17.866254 -162.790023 L 33.442943 -160.316452 L 48.709453 -156.355941 L 63.524181 -150.945266 L 77.749732 -144.134567 L 91.254150 -135.987030 L 103.912200 -126.578231 L 115.606468 -115.995429 L 126.228507 -104.336761 L 135.679763 -91.710388 L 143.872619 -78.233406 L 150.731048 -64.030815 L 156.191467 -49.234336 L 160.203216 -33.981220 L 162.729095 -18.412927 L 163.745681 -2.673856 L 163.243515 13.090014 L 159.162429 12.762763 L 159.652038 -2.607010 L 158.660873 -17.952606 L 156.198135 -33.131690 L 152.286682 -48.003479 L 146.962768 -62.430042 L 140.275802 -76.277572 L 132.287780 -89.417633 L 123.072792 -101.728347 L 112.716316 -113.095542 L 101.314399 -123.413772 L 88.972801 -132.587356 L 75.805984 -140.531204 L 61.936077 -147.171630 L 47.491714 -152.447052 L 32.606872 -156.308532 L 17.419599 -158.720275 L 2.070761 -159.659881 L -13.297282 -159.118667 L -28.541994 -157.101638 L -43.521984 -153.627487 L -58.098304 -148.728469 L -72.135772 -142.449981 L -85.504180 -134.850296 L -98.079551 -125.999885 L -109.745231 -115.980827 L -120.393043 -104.886054 L -129.924209 -92.818481 L -138.250335 -79.890007 L -145.294204 -66.220565 L -150.990478 -51.936935 L -155.286331 -37.171592 L -158.141891 -22.061483 L -159.530715 -6.746755 L -159.439910 8.630546 L -157.870285 23.927801 L -154.836441 39.003128 Z "></path>
</g>
<g id="0xffffa500" class="materialsolid" stroke="none" fill-opacity="1.000000" fill="#ffa500">
<path id="arc" class="mesh2" fill-rule="evenodd" d="M -168.561538 20.479465 L -169.747802 4.252429 L -169.375534 -12.013651 L -167.448135 -28.169429 L -163.983337 -44.066570 L -159.012924 -59.559116 L -152.582534 -74.504821 L -144.751220 -88.766464 L -135.590866 -102.213088 L -125.185592 -114.721252 L -113.630928 -126.176116 L -101.032958 -136.472488 L -87.507369 -145.515838 L -73.178321 -153.223144 L -58.177398 -159.523635 L -42.642314 -164.359451 L -26.715715 -167.686233 L -10.543824 -169.473373 L 5.724874 -169.704528 L 21.941011 -168.377532 L 37.955696 -165.504562 L 53.621891 -161.112045 L 68.795761 -155.240280 L 83.337974 -147.943161 L 97.115036 -139.287719 L 110.000427 -129.353408 L 121.875854 -118.231437 L 132.632293 -106.023933 L 142.170959 -92.842971 L 150.404296 -78.809577 L 157.256683 -64.052589 L 162.665237 -48.707504 L 166.580276 -32.915218 L 168.965850 -16.820716 L 169.800094 -0.571777 L 169.075317 15.682411 L 166.798171 31.792613 L 162.628219 30.997798 L 164.848434 15.290351 L 165.555099 -0.557482 L 164.741714 -16.400199 L 162.415771 -32.092338 L 158.598602 -47.489818 L 153.325271 -62.451274 L 146.644180 -76.839340 L 138.616683 -90.521903 L 129.316482 -103.373344 L 118.828964 -115.275657 L 107.250419 -126.119583 L 94.687156 -135.805541 L 81.254531 -144.244583 L 67.075866 -151.359268 L 52.281341 -157.084243 L 37.006805 -161.366958 L 21.392484 -164.168090 L 5.581752 -165.461914 L -10.280228 -165.236541 L -26.047821 -163.494079 L -41.576259 -160.250473 L -56.722965 -155.535537 L -71.348869 -149.392578 L -85.319686 -141.877944 L -98.507141 -133.060684 L -110.790153 -123.021713 L -122.055953 -111.853225 L -132.201095 -99.657768 L -141.132431 -86.547302 L -148.767974 -72.642204 L -155.037597 -58.070140 L -159.883758 -42.964908 L -163.261947 -27.465194 L -165.141143 -11.713311 L -165.504119 4.146118 L -164.347488 19.967479 Z "></path>
</g>
<g id="0xffff8f00" class="materialsolid" stroke="none" fill-opacity="1.000000" fill="#ff8f00">
<path id="arc" class="mesh2" fill-rule="evenodd" d="M -175.832443 -0.871994 L -174.901733 -18.088363 L -172.289382 -35.130817 L -168.020492 -51.835494 L -162.136123 -68.041786 L -154.692840 -83.593856 L -145.762191 -98.342193 L -135.430084 -112.144981 L -123.795837 -124.869514 L -110.971305 -136.393447 L -97.079811 -146.605987 L -82.254898 -155.408935 L -66.639129 -162.717636 L -50.382633 -168.461853 L -33.641712 -172.586318 L -16.577337 -175.051406 L 0.646428 -175.833404 L 17.863979 -174.924789 L 34.909767 -172.334304 L 51.619907 -168.086853 L 67.833724 -162.223266 L 83.395339 -154.799942 L 98.155128 -145.888229 L 111.971153 -135.573837 L 124.710609 -123.955917 L 136.250976 -111.146186 L 146.481323 -97.267799 L 155.303283 -82.454193 L 162.632019 -66.847816 L 168.397079 -50.598701 L 172.543029 -33.863086 L 175.029998 -16.801885 L 175.834091 0.420861 L 174.947555 17.639562 L 172.378952 34.688663 L 168.152938 51.404235 L 163.949111 50.119132 L 168.069473 33.821445 L 170.573883 17.198574 L 171.438247 0.410339 L 170.654251 -16.381839 L 168.229446 -33.016510 L 164.187149 -49.333732 L 158.566223 -65.176620 L 151.420715 -80.392845 L 142.819305 -94.836097 L 132.844711 -108.367530 L 121.592842 -120.857025 L 109.171882 -132.184494 L 95.701248 -142.241027 L 81.310455 -150.929946 L 66.137886 -158.167694 L 50.329414 -163.884689 L 34.037025 -168.025955 L 17.417379 -170.551681 L 0.630267 -171.437576 L -16.162904 -170.675125 L -32.800670 -168.271667 L -49.123065 -164.250305 L -64.973152 -158.649703 L -80.198532 -151.523712 L -94.652816 -142.940841 L -108.197021 -132.983627 L -120.700935 -121.747787 L -132.044342 -109.341361 L -142.118148 -95.883644 L -150.825515 -81.504013 L -158.082717 -66.340744 L -163.819992 -50.539608 L -167.982147 -34.252548 L -170.529190 -17.636156 L -171.436630 -0.850194 Z "></path>
</g>
<g id="0xffff7800" class="materialsolid" stroke="none" fill-opacity="1.000000" fill="#ff7800">
<path id="arc" class="mesh2" fill-rule="evenodd" d="M -180.314086 -23.724424 L -177.144378 -41.181125 L -172.288803 -58.245903 L -165.793563 -74.756362 L -157.720458 -90.555366 L -148.146347 -105.492553 L -137.162322 -119.425781 L -124.872917 -132.222442 L -111.395111 -143.760726 L -96.857162 -153.930847 L -81.397430 -162.636032 L -65.163040 -169.793395 L -48.308490 -175.334838 L -30.994194 -179.207641 L -13.384922 -181.374908 L 4.351728 -181.816055 L 22.046966 -180.526870 L 39.532382 -177.519607 L 56.641574 -172.822891 L 73.211700 -166.481430 L 89.085083 -158.555557 L 104.110633 -149.120727 L 118.145385 -138.266723 L 131.055740 -126.096832 L 142.718841 -112.726882 L 153.023696 -98.284111 L 161.872222 -82.905982 L 169.180221 -66.738838 L 174.878128 -49.936538 L 178.911727 -32.658996 L 181.242630 -15.070638 L 181.848663 2.661146 L 180.724044 20.367605 L 177.879470 37.880226 L 173.342041 55.032341 L 167.154907 71.660713 L 162.976028 69.869201 L 169.008483 53.656532 L 173.432479 36.933223 L 176.205947 19.858415 L 177.302459 2.594618 L 176.711578 -14.693872 L 174.438949 -31.842521 L 170.506179 -48.688129 L 164.950714 -65.070373 L 157.825408 -80.833335 L 149.198104 -95.827026 L 139.150878 -109.908714 L 127.779350 -122.944419 L 115.191757 -134.810058 L 101.507873 -145.392715 L 86.857955 -154.591674 L 71.381416 -162.319381 L 55.225536 -168.502319 L 38.544075 -173.081604 L 21.495792 -176.013702 L 4.242936 -177.270675 L -13.050300 -176.840545 L -30.219337 -174.727447 L -47.100780 -170.951477 L -63.533962 -165.548553 L -79.362503 -158.570129 L -94.435737 -150.082580 L -108.610237 -140.166702 L -121.751098 -128.916870 L -133.733261 -116.440147 L -144.442687 -102.855247 L -153.777450 -88.291481 L -161.648727 -72.887458 L -167.981582 -56.789760 L -172.715774 -40.151596 L -175.806243 -23.131313 Z "></path>
</g>
<g id="0xffff5800" class="materialsolid" stroke="none" fill-opacity="1.000000" fill="#ff5800">
<path id="arc" class="mesh2" fill-rule="evenodd" d="M -181.745498 -47.703361 L -176.265136 -65.097152 L -169.124420 -81.877754 L -160.390625 -97.887100 L -150.146011 -112.974388 L -138.487075 -126.997505 L -125.523658 -139.824356 L -111.377845 -151.334121 L -96.182891 -161.418365 L -80.081947 -169.982116 L -63.226654 -176.944702 L -45.775791 -182.240554 L -27.893739 -185.819747 L -9.748940 -187.648605 L 8.487690 -187.709869 L 26.644371 -186.003005 L 44.550071 -182.544052 L 62.036128 -177.365600 L 78.937828 -170.516433 L 95.095962 -162.061080 L 110.358337 -152.079177 L 124.581169 -140.664733 L 137.630508 -127.925300 L 149.383407 -113.980850 L 159.729187 -98.962738 L 168.570373 -83.012451 L 175.823699 -66.280212 L 181.420822 -48.923641 L 185.309036 -31.106227 L 187.451721 -12.995804 L 187.828674 5.237033 L 186.436355 23.420539 L 183.287887 41.383434 L 178.412918 58.956512 L 171.857360 75.974243 L 163.682968 92.276329 L 159.590911 89.969429 L 167.560928 74.074890 L 173.952590 57.482601 L 178.705703 40.348850 L 181.775451 22.835027 L 183.132965 5.106107 L 182.765426 -12.670908 L 180.676330 -30.328571 L 176.885314 -47.700550 L 171.428100 -64.623207 L 164.356109 -80.937141 L 155.735961 -96.488677 L 145.648834 -111.131324 L 134.189743 -124.727172 L 121.466644 -137.148117 L 107.599372 -148.277191 L 92.718574 -158.009567 L 76.964385 -166.253540 L 60.485225 -172.931472 L 43.436321 -177.980453 L 25.978261 -181.352935 L 8.275498 -183.017135 L -9.505217 -182.957397 L -27.196397 -181.174255 L -44.631397 -177.684524 L -61.645992 -172.521087 L -78.079895 -165.732574 L -93.778327 -157.382904 L -108.593406 -147.550765 L -122.385559 -136.328750 L -135.024902 -123.822570 L -146.392364 -110.150039 L -156.380859 -95.439926 L -164.896316 -79.830810 L -171.858505 -63.469722 L -177.201873 -46.510776 Z "></path>
</g>
<g id="0xffff2c00" class="materialsolid" stroke="none" fill-opacity="1.000000" fill="#ff2c00">
<path id="arc" class="mesh2" fill-rule="evenodd" d="M -179.917083 -72.392723 L -172.096755 -89.406799 L -162.671997 -105.587348 L -151.730682 -120.783554 L -139.374832 -134.853698 L -125.719619 -147.666656 L -110.892356 -159.102951 L -95.031280 -169.055969 L -78.284248 -177.432922 L -60.807384 -184.155715 L -42.763633 -189.161666 L -24.321207 -192.404113 L -5.652043 -193.852828 L 13.069814 -193.494293 L 31.669826 -191.331878 L 49.974590 -187.385711 L 67.813453 -181.692611 L 85.020103 -174.305618 L 101.434135 -165.293624 L 116.902526 -154.740646 L 131.281066 -142.745040 L 144.435699 -129.418685 L 156.243804 -114.885780 L 166.595275 -99.281814 L 175.393630 -82.752288 L 182.556823 -65.451271 L 188.018112 -47.540077 L 191.726531 -29.185674 L 193.647537 -10.559181 L 193.763214 8.165751 L 192.072494 26.814558 L 188.591125 45.213378 L 183.351577 63.190685 L 176.402679 80.578887 L 167.809234 97.215866 L 157.651351 112.946533 L 153.710067 110.122871 L 163.614013 94.785469 L 171.992630 78.564414 L 178.767791 61.610919 L 183.876358 44.083045 L 187.270690 26.144195 L 188.919143 7.961607 L 188.806350 -10.295202 L 186.933364 -28.456033 L 183.317657 -46.351577 L 177.992919 -63.814994 L 171.008804 -80.683479 L 162.430404 -96.799781 L 152.337707 -112.013641 L 140.824813 -126.183219 L 127.999038 -139.176422 L 113.979965 -150.872131 L 98.898284 -161.161285 L 82.894599 -169.947982 L 66.118118 -177.150299 L 48.725227 -182.701080 L 30.878082 -186.548583 L 12.743069 -188.656951 L -5.510742 -189.006515 L -23.713178 -187.594009 L -41.694545 -184.432632 L -59.287200 -179.551818 L -76.327140 -172.997116 L -92.655502 -164.829589 L -108.120063 -155.125381 L -122.576629 -143.975006 L -135.890472 -131.482376 L -147.937423 -117.763961 L -158.605194 -102.947669 L -167.794342 -87.171630 L -175.419174 -70.582901 Z "></path>
</g>
<g id="0xffff0000" class="materialsolid" stroke="none" fill-opacity="1.000000" fill="#ff0000">
<path id="arc" class="mesh2" fill-rule="evenodd" d="M -174.676879 -97.342132 L -164.531738 -113.652137 L -152.868576 -128.913528 L -139.794982 -142.985534 L -125.431594 -155.738296 L -109.910919 -167.054153 L -93.376167 -176.828704 L -75.979896 -184.971771 L -57.882602 -191.408218 L -39.251262 -196.078659 L -20.257772 -198.940002 L -1.077377 -199.965835 L 18.112957 -199.146743 L 37.136173 -196.490219 L 55.816761 -192.020812 L 73.982353 -185.779739 L 91.465362 -177.824600 L 108.104476 -168.228775 L 123.746177 -157.080810 L 138.246154 -144.483566 L 151.470611 -130.553268 L 163.297546 -115.418418 L 173.617843 -99.218681 L 182.336273 -82.103507 L 189.372390 -64.230827 L 194.661285 -45.765525 L 198.154174 -26.877973 L 199.818801 -7.742434 L 199.639846 11.464540 L 197.618911 30.565736 L 193.774688 49.384922 L 188.142623 67.748466 L 180.774673 85.486930 L 171.738845 102.436676 L 161.118469 118.441284 L 149.011566 133.353118 L 145.286285 130.019287 L 157.090515 115.480255 L 167.445373 99.875755 L 176.255310 83.349761 L 183.439056 66.054756 L 188.930328 48.150302 L 192.678451 29.801595 L 194.648849 11.177927 L 194.823333 -7.548872 L 193.200317 -26.206024 L 189.794769 -44.621387 L 184.638092 -62.625057 L 177.777862 -80.050926 L 169.277404 -96.738220 L 159.215118 -112.532958 L 147.683853 -127.289428 L 134.790008 -140.871475 L 120.652526 -153.153808 L 105.401863 -164.023056 L 89.178733 -173.378997 L 72.132797 -181.135253 L 54.421340 -187.220291 L 36.207771 -191.577972 L 17.660133 -194.168075 L -1.050443 -194.966705 L -19.751327 -193.966506 L -38.269977 -191.176696 L -56.435539 -186.623016 L -74.080398 -180.347488 L -91.041770 -172.407989 L -107.163146 -162.877807 L -122.295806 -151.844833 L -136.300109 -139.410903 L -149.046859 -125.690704 L -160.418457 -110.810829 L -170.309951 -94.908584 Z "></path>
</g>
</g>

</g>
</svg>
