o Debug
v 0.260981 0.728845 -0.249928
v 0.760981 -0.271155 -0.249928
v 0.260981 -0.271155 0.750072
v -0.239019 0.728845 0.250072
v 0.260981 0.228845 0.750072
v -0.239019 0.228845 0.750072
v -0.239019 0.228845 0.250072
v 0.260981 0.228845 0.250072
v 0.260981 0.728845 0.250072
v 0.260981 -0.271155 -0.249928
v 0.260981 0.228845 -0.249928
v 0.760981 0.228845 -0.249928
v -0.239019 -0.271155 -0.249928
v 0.260981 -0.271155 0.250072
v -0.239019 -0.271155 0.250072
v -0.239019 0.228845 -0.249928
v -0.239019 0.728845 -0.249928
v 0.760981 -0.271155 0.250072
v -0.239019 -0.271155 0.750072
v 0.760981 0.228845 0.250072
v 0.164537 -0.191655 1.218822
v -0.142963 -0.191655 1.218822
v -0.052463 -0.147655 1.218822
v 0.074037 0.105345 1.218822
v -0.129463 0.105345 1.218822
v -0.129463 0.149345 1.218822
v 0.164537 -0.147655 1.250072
v 0.260981 -0.271155 1.250072
v 0.164537 -0.191655 1.250072
v -0.129463 0.149345 1.250072
v -0.239019 0.228845 1.250072
v 0.260981 0.228845 1.250072
v 0.164537 -0.147655 1.218822
v 0.164537 0.149345 1.218822
v 0.164537 0.149345 1.250072
v -0.129463 0.105345 1.250072
v 0.074037 0.105345 1.250072
v -0.052463 -0.147655 1.250072
v -0.239019 -0.271155 1.250072
v -0.142963 -0.191655 1.250072
v 1.260981 0.087397 -0.179495
v 1.260981 -0.271155 -0.249928
v 1.260981 -0.146103 -0.179495
v 1.260981 0.136897 0.161505
v 1.260981 0.146397 -0.179495
v 1.260981 0.000897 -0.002995
v 1.225798 0.000897 -0.002995
v 1.225798 -0.028603 -0.038495
v 1.225799 -0.028603 0.031505
v 1.225799 -0.058603 -0.002995
v 1.260981 -0.195103 0.161505
v 1.225798 -0.195103 0.161505
v 1.260981 -0.058603 -0.002995
v 1.225798 -0.205603 -0.179495
v 1.225798 -0.146103 -0.179495
v 1.225798 -0.135603 0.161505
v 1.225798 0.077897 0.161505
v 1.225798 0.136897 0.161505
v 1.225798 0.146397 -0.179495
v 1.225798 0.087397 -0.179495
v 1.260981 0.228845 -0.249928
v 1.260981 -0.028603 -0.038495
v 1.260981 -0.205603 -0.179495
v 1.260981 -0.271155 0.250072
v 1.260981 -0.135603 0.161505
v 1.260981 -0.028603 0.031505
v 1.260981 0.077897 0.161505
v 1.260981 0.228845 0.250072
v -0.002602 1.197595 -0.005862
v 0.046398 1.197595 -0.006362
v 0.021398 1.197595 0.037138
v -0.002602 1.228845 -0.186362
v 0.260981 1.228845 -0.249928
v 0.046398 1.228845 -0.186362
v -0.070102 1.228845 0.154638
v -0.239019 1.228845 0.250072
v -0.129102 1.228845 0.154638
v -0.070102 1.197595 0.154638
v -0.129102 1.197596 0.154638
v 0.046398 1.197595 -0.186362
v -0.002602 1.197595 -0.186362
v 0.113898 1.197595 0.154638
v 0.113898 1.228845 0.154638
v 0.021398 1.228845 0.037138
v 0.172898 1.197595 0.154638
v 0.172898 1.228845 0.154638
v 0.046398 1.228845 -0.006362
v -0.002602 1.228845 -0.005862
v 0.260981 1.228845 0.250072
v -0.239019 1.228845 -0.249928
vt 0.000000 0.667768
vt 0.000000 0.335536
vt 0.315742 0.335536
vt 0.315742 0.667768
vt 0.631484 0.003304
vt 0.315742 0.003304
vt 0.315742 0.335536
vt 0.631484 0.335536
vt 0.000000 0.000000
vt 0.315742 0.000000
vt 0.315742 0.332232
vt 0.000000 0.332232
vt 0.000000 0.003304
vt 0.000000 0.335536
vt 0.315742 0.664464
vt 0.315742 0.332232
vt 0.000000 0.332232
vt 0.000000 0.664464
vt 0.684258 0.000000
vt 0.368516 0.000000
vt 0.368516 0.332232
vt 0.684258 0.332232
vt 0.684258 0.332232
vt 0.368516 0.332232
vt 0.368516 0.000000
vt 0.684258 0.000000
vt 0.315742 0.667768
vt 0.000000 0.667768
vt 0.631484 0.332232
vt 0.631484 0.000000
vt 0.052774 0.664464
vt 0.052774 0.332232
vt 0.368516 0.664464
vt 0.368516 0.664464
vt 0.052774 0.332232
vt 0.052774 0.664464
vt 0.000000 0.664464
vt 0.315742 0.664464
vt 0.052774 0.000000
vt 0.631484 0.335536
vt 0.631484 0.003304
vt 0.947226 0.003304
vt 0.947226 0.335536
vt 0.631484 0.000000
vt 0.631484 0.332232
vt 0.947226 0.332232
vt 0.947226 0.000000
vt 0.000000 1.000000
vt 0.315742 1.000000
vt 1.000000 0.332232
vt 1.000000 0.000000
vt 0.315742 1.000000
vt 0.000000 1.000000
vt 0.947226 0.000000
vt 0.947226 0.332232
vt 0.315742 0.996696
vt 0.000000 0.996696
vt 1.000000 0.000000
vt 1.000000 0.332232
vt 0.368516 0.996696
vt 0.052774 0.996696
vt 0.000000 0.996696
vt 0.315742 0.996696
vt 0.052774 0.996696
vt 0.368516 0.996696
vt 0.947226 0.335536
vt 0.947226 0.003304
vt 0.315742 0.000000
vt 0.315742 0.003304
vt 0.254839 0.056129
vt 0.117807 0.085365
vt 0.060658 0.056129
vt 0.197690 0.253475
vt 0.069183 0.282711
vt 0.069183 0.253475
vt 0.254839 0.085365
vt 0.254839 0.056129
vt 0.315742 0.003304
vt 0.069183 0.282711
vt 0.315742 0.335536
vt 0.000000 0.335536
vt 0.254839 0.085365
vt 0.254839 0.282711
vt 0.254839 0.996696
vt 0.069183 0.996696
vt 0.069183 0.975932
vt 0.254839 0.975932
vt 0.102977 0.996696
vt 0.130762 0.996696
vt 0.130762 0.975932
vt 0.102977 0.975932
vt 0.069183 0.996696
vt 0.197690 0.996696
vt 0.197690 0.975932
vt 0.069183 0.975932
vt 0.254839 0.282711
vt 0.117807 0.085365
vt 0.060658 0.056129
vt 0.000000 0.003304
vt 0.290528 0.996696
vt 0.102977 0.996696
vt 0.102977 0.975932
vt 0.290528 0.975932
vt 0.069183 0.253475
vt 0.197690 0.253475
vt 0.060658 0.996696
vt 0.254839 0.996696
vt 0.254839 0.975932
vt 0.060658 0.975932
vt 0.130762 0.996696
vt 0.318313 0.996696
vt 0.318313 0.975932
vt 0.130762 0.975932
vt 0.318313 0.996696
vt 0.290528 0.996696
vt 0.290528 0.975932
vt 0.318313 0.975932
vt 0.254839 0.996696
vt 0.117807 0.996696
vt 0.117807 0.975932
vt 0.254839 0.975932
vt 0.279194 0.046800
vt 0.131743 0.046800
vt 0.052774 0.000000
vt 0.310452 0.273382
vt 0.224571 0.164078
vt 0.316452 0.046800
vt 0.224571 0.164078
vt 0.205942 0.187002
vt 0.186997 0.164078
vt 0.205942 0.140490
vt 0.947226 0.273382
vt 0.947226 0.164078
vt 0.925009 0.164078
vt 0.925008 0.273382
vt 0.094169 0.046800
vt 0.131743 0.046800
vt 0.138373 0.273382
vt 0.100800 0.273382
vt 0.273195 0.273382
vt 0.310452 0.273382
vt 0.279194 0.046800
vt 0.316452 0.046800
vt 0.368516 0.000000
vt 0.205942 0.140490
vt 0.094169 0.046800
vt 0.947226 0.140490
vt 0.947226 0.046800
vt 0.925008 0.046800
vt 0.925008 0.140490
vt 0.947226 0.093373
vt 0.947226 0.053838
vt 0.925008 0.053838
vt 0.925008 0.093373
vt 0.925009 0.187002
vt 0.947226 0.187002
vt 0.947226 0.273382
vt 0.925008 0.273382
vt 0.947226 0.164078
vt 0.947226 0.273382
vt 0.925008 0.273382
vt 0.925008 0.164078
vt 0.947226 0.274440
vt 0.947226 0.235236
vt 0.925008 0.235236
vt 0.925008 0.274440
vt 0.947226 0.046800
vt 0.925008 0.046800
vt 0.947226 0.046800
vt 0.925008 0.046800
vt 0.947226 0.046861
vt 0.947226 0.086397
vt 0.925008 0.086397
vt 0.925008 0.046861
vt 0.052774 0.332232
vt 0.100800 0.273382
vt 0.186997 0.164078
vt 0.138373 0.273382
vt 0.205942 0.187002
vt 0.273195 0.273382
vt 0.368516 0.332232
vt 0.947226 0.273382
vt 0.925008 0.273382
vt 0.947226 0.241549
vt 0.947226 0.280752
vt 0.925008 0.280752
vt 0.925008 0.241549
vt 0.947226 0.046800
vt 0.925008 0.046800
vt 0.149293 0.162173
vt 0.164449 0.190745
vt 0.180236 0.161841
vt 0.149293 0.042237
vt 0.180236 0.042237
vt 0.315742 0.000000
vt 0.106668 0.268820
vt 0.069411 0.268820
vt 0.000000 0.332232
vt 0.106668 0.268820
vt 0.069411 0.268820
vt 0.180236 0.042237
vt 0.149293 0.042237
vt 0.980266 0.268820
vt 0.980266 0.190745
vt 1.000000 0.190745
vt 1.000000 0.268820
vt 0.260119 0.979235
vt 0.222861 0.979235
vt 0.222861 1.000000
vt 0.260119 1.000000
vt 0.980266 0.161841
vt 0.980266 0.268820
vt 1.000000 0.268820
vt 1.000000 0.161841
vt 0.980266 0.162173
vt 0.980266 0.042237
vt 1.000000 0.042237
vt 1.000000 0.162173
vt 0.149293 0.979235
vt 0.180236 0.979235
vt 0.180236 1.000000
vt 0.149293 1.000000
vt 0.980266 0.042237
vt 1.000000 0.042237
vt 0.222861 0.268820
vt 0.260119 0.268820
vt 0.000000 0.000000
vt 0.149293 0.162173
vt 0.180236 0.161841
vt 0.260119 0.268820
vt 0.315742 0.332232
vt 0.980267 0.268820
vt 1.000000 0.268820
vt 0.106668 1.000000
vt 0.106668 0.979235
vt 0.069411 0.979236
vt 0.069411 1.000000
vt 0.222861 0.268820
vt 0.164449 0.190745
vt 0.980266 0.268820
vt 1.000000 0.268820
vn 0.0000 0.0000 1.0000
vn 0.0000 0.0000 -1.0000
vn 0.0000 -1.0000 0.0000
vn 0.0000 1.0000 0.0000
vn -1.0000 0.0000 0.0000
vn 1.0000 0.0000 0.0000
vn 0.8074 -0.5899 0.0000
vn -0.8074 0.5899 0.0000
vn 0.0000 0.7696 0.6386
vn 0.0000 0.7722 0.6353
vn 0.0000 -0.7721 -0.6355
vn 0.0000 -0.7707 0.6372
vn 0.0000 -0.7716 -0.6361
vn 0.0000 -0.7682 0.6402
vn 0.0000 0.7736 -0.6337
vn 0.0000 0.7684 -0.6400
vn 0.7857 0.0000 -0.6186
vn -0.7863 0.0000 0.6178
vn 0.7854 0.0000 0.6190
vn -0.7890 0.0000 -0.6144
s 1
f 4/1/1 7/2/1 8/3/1 9/4/1
f 2/5/2 10/6/2 11/7/2 12/8/2
f 13/9/3 10/10/3 14/11/3 15/12/3
f 13/13/2 16/14/2 11/7/2 10/6/2
f 5/15/4 8/16/4 7/17/4 6/18/4
f 17/19/5 16/20/5 7/21/5 4/22/5
f 9/23/6 8/24/6 11/25/6 1/26/6
f 1/27/2 11/7/2 16/14/2 17/28/2
f 18/29/3 14/11/3 10/10/3 2/30/3
f 3/31/6 14/32/6 8/24/6 5/33/6
f 6/34/5 7/21/5 15/35/5 19/36/5
f 19/37/3 15/12/3 14/11/3 3/38/3
f 16/20/5 13/39/5 15/35/5 7/21/5
f 20/40/1 18/41/1 64/42/1 68/43/1
f 12/44/4 20/45/4 68/46/4 61/47/4
f 1/27/2 17/28/2 90/48/2 73/49/2
f 17/19/5 4/22/5 76/50/5 90/51/5
f 4/1/1 9/4/1 89/52/1 76/53/1
f 18/29/3 2/30/3 42/54/3 64/55/3
f 19/37/3 3/38/3 28/56/3 39/57/3
f 9/23/6 1/26/6 73/58/6 89/59/6
f 3/31/6 5/33/6 32/60/6 28/61/6
f 5/15/4 6/18/4 31/62/4 32/63/4
f 6/34/5 19/36/5 39/64/5 31/65/5
f 2/5/2 12/8/2 61/66/2 42/67/2
f 12/44/4 11/68/4 8/16/4 20/45/4
f 20/40/1 8/3/1 14/69/1 18/41/1
f 21/70/1 23/71/1 22/72/1
f 23/71/1 24/73/1 22/72/1
f 24/73/1 26/74/1 25/75/1
f 27/76/1 29/77/1 28/78/1
f 30/79/1 32/80/1 31/81/1
f 21/70/1 33/82/1 23/71/1
f 23/71/1 34/83/1 24/73/1
f 24/73/1 34/83/1 26/74/1
f 35/84/3 30/85/3 26/86/3 34/87/3
f 29/88/5 27/89/5 33/90/5 21/91/5
f 36/92/4 37/93/4 24/94/4 25/95/4
f 28/78/1 32/80/1 27/76/1
f 32/80/1 35/96/1 27/76/1
f 35/96/1 38/97/1 27/76/1
f 29/77/1 40/98/1 39/99/1
f 29/77/1 39/99/1 28/78/1
f 37/100/7 40/101/7 22/102/7 24/103/7
f 31/81/1 39/99/1 36/104/1
f 39/99/1 40/98/1 36/104/1
f 40/98/1 37/105/1 36/104/1
f 30/79/1 35/96/1 32/80/1
f 36/104/1 30/79/1 31/81/1
f 40/106/4 29/107/4 21/108/4 22/109/4
f 38/110/8 35/111/8 34/112/8 23/113/8
f 30/114/6 36/115/6 25/116/6 26/117/6
f 27/118/3 38/119/3 23/120/3 33/121/3
f 41/122/6 43/123/6 42/124/6
f 44/125/6 46/126/6 45/127/6
f 47/128/6 49/129/6 50/130/6 48/131/6
f 51/132/9 53/133/9 50/134/9 52/135/9
f 50/130/6 54/136/6 55/137/6 48/131/6
f 56/138/6 52/139/6 50/130/6 49/129/6
f 57/140/6 49/129/6 47/128/6 58/141/6
f 47/128/6 48/131/6 60/142/6 59/143/6
f 42/124/6 61/144/6 41/122/6
f 61/144/6 45/127/6 41/122/6
f 41/122/6 62/145/6 43/123/6
f 43/123/6 63/146/6 42/124/6
f 62/147/10 41/148/10 60/149/10 48/150/10
f 65/151/2 51/152/2 52/153/2 56/154/2
f 49/155/11 66/156/11 65/157/11 56/158/11
f 46/159/12 44/160/12 58/161/12 47/162/12
f 44/163/2 67/164/2 57/165/2 58/166/2
f 45/167/13 46/159/13 47/162/13 59/168/13
f 43/169/14 62/147/14 48/150/14 55/170/14
f 63/171/1 43/172/1 55/173/1 54/174/1
f 64/175/6 42/124/6 51/176/6
f 42/124/6 63/146/6 51/176/6
f 63/146/6 53/177/6 51/176/6
f 65/178/6 66/179/6 67/180/6
f 65/178/6 67/180/6 64/175/6
f 67/180/6 44/125/6 68/181/6
f 64/175/6 67/180/6 68/181/6
f 64/175/6 51/176/6 65/178/6
f 45/127/6 61/144/6 44/125/6
f 61/144/6 68/181/6 44/125/6
f 67/182/15 66/156/15 49/155/15 57/183/15
f 41/184/1 45/185/1 59/186/1 60/187/1
f 50/134/16 53/133/16 63/188/16 54/189/16
f 69/190/4 71/191/4 70/192/4
f 72/193/4 74/194/4 73/195/4
f 75/196/4 77/197/4 76/198/4
f 78/199/4 71/191/4 69/190/4 79/200/4
f 70/192/4 80/201/4 81/202/4 69/190/4
f 82/203/17 71/204/17 84/205/17 83/206/17
f 85/207/2 82/208/2 83/209/2 86/210/2
f 70/211/18 85/212/18 86/213/18 87/214/18
f 69/215/6 81/216/6 72/217/6 88/218/6
f 81/219/1 80/220/1 74/221/1 72/222/1
f 80/223/5 70/211/5 87/214/5 74/224/5
f 70/192/4 71/191/4 82/225/4 85/226/4
f 90/227/4 76/198/4 77/197/4
f 77/197/4 88/228/4 90/227/4
f 88/228/4 72/193/4 90/227/4
f 74/194/4 87/229/4 73/195/4
f 87/229/4 86/230/4 73/195/4
f 86/230/4 89/231/4 73/195/4
f 90/227/4 72/193/4 73/195/4
f 79/232/19 69/215/19 88/218/19 77/233/19
f 75/234/2 78/235/2 79/236/2 77/237/2
f 76/198/4 89/231/4 75/196/4
f 89/231/4 86/230/4 83/238/4
f 83/238/4 84/239/4 75/196/4
f 89/231/4 83/238/4 75/196/4
f 71/204/20 78/240/20 75/241/20 84/205/20
