<svg xmlns="http://www.w3.org/2000/svg" xmlns:xlink="http://www.w3.org/1999/xlink" viewBox="0 0 720 405">
<rect x="0" y="0" width="720.0" height="405.0" stroke="none" fill="#fff7d5"></rect>
<g transform="translate(360.0000, 202.5000) scale(1.0000, -1.0000) rotate(-0.0) translate(-0.0000, -0.0000)">
<g id="example" transform="translate(0.0, 0.0) rotate(0.0) scale(200.0, 200.0)">
<g stroke-width="0.00625" stroke-opacity="1.00" stroke="#808080" fill="none">
<path d="M -0.4166 0.5000 C -0.1388 0.5000,0.1388 0.5000,0.4166 0.5000 C 0.4166 0.3333,0.5833 0.1666,0.7500 0.1666 C 0.7500 0.0555,0.7500 -0.0555,0.7500 -0.1666 C 0.5833 -0.1666,0.4166 -0.3333,0.4166 -0.5000 C 0.1388 -0.5000,-0.1388 -0.5000,-0.4166 -0.5000 C -0.4166 -0.3333,-0.5833 -0.1666,-0.7500 -0.1666 C -0.7500 -0.0555,-0.7500 0.0555,-0.7500 0.1666 C -0.5833 0.1666,-0.4166 0.3333,-0.4166 0.5000 Z"></path></g>
</g>
</g>
</svg>
