<svg xmlns="http://www.w3.org/2000/svg" xmlns:xlink="http://www.w3.org/1999/xlink" viewBox="0 0 720 405">
<rect id="background" x="0" y="0" width="720.0" height="405.0" stroke="none" fill="#fff7d5"></rect>
<g id="camera" transform="translate(360.000000, 202.500000) scale(1.000000, -1.000000) rotate(0.0) translate(0.0, 0.0)">
<g id="example" transform="translate(0.0, 0.0) rotate(3221.0) scale(200.000000, 200.000000)">
<g id="6950e31" stroke-width="0.037500" stroke-opacity="0.498039" stroke="#404040" stroke-linejoin="round" stroke-linecap="round" fill="none">
<path id="curve.0000" d="M 0.269008 0.289529 C 0.167396 0.610365,-0.659179 0.167472,-0.718712 0.498707 C -0.785380 0.869641,0.116987 0.656103,0.409029 0.417883 C 0.492021 0.350186,0.329014 0.176750,0.400168 0.096701 C 0.473984 0.013659,0.681851 0.143948,0.729207 0.043438 C 0.870359 -0.256147,-0.178973 0.328690,-0.263699 0.008538 C -0.339243 -0.276915,0.368499 -0.477745,0.220502 -0.733260 C 0.108669 -0.926339,-0.298315 -0.709538,-0.413467 -0.518420"></path>
</g>
</g>

</g>
</svg>
