# g: 1, v: 90, vt: 135, vn: 46, f: 176
o 4ac68d3e

# v: 90, vt: 135, vn: 46, f: 176
g Cylinder

v 0.249999 0.0 -0.500000
v 0.247455 -0.035578 -0.500000
v 0.239873 -0.070433 -0.500000
v 0.227407 -0.103853 -0.500000
v 0.210313 -0.135160 -0.500000
v 0.188937 -0.163715 -0.500000
v 0.163715 -0.188937 -0.500000
v 0.135160 -0.210313 -0.500000
v 0.103853 -0.227407 -0.500000
v 0.070433 -0.239873 -0.500000
v 0.035578 -0.247455 -0.500000
v 0.0 -0.249999 -0.500000
v -0.035578 -0.247455 -0.500000
v -0.070433 -0.239873 -0.500000
v -0.103853 -0.227407 -0.500000
v -0.135160 -0.210313 -0.500000
v -0.163715 -0.188937 -0.500000
v -0.188937 -0.163715 -0.500000
v -0.210313 -0.135160 -0.500000
v -0.227407 -0.103853 -0.500000
v -0.239873 -0.070433 -0.500000
v -0.247455 -0.035578 -0.500000
v -0.249999 0.0 -0.500000
v -0.247455 0.035578 -0.500000
v -0.239873 0.070433 -0.500000
v -0.227407 0.103853 -0.500000
v -0.210313 0.135160 -0.500000
v -0.188937 0.163715 -0.500000
v -0.163715 0.188937 -0.500000
v -0.135160 0.210313 -0.500000
v -0.103853 0.227407 -0.500000
v -0.070433 0.239873 -0.500000
v -0.035578 0.247455 -0.500000
v 0.0 0.249999 -0.500000
v 0.035578 0.247455 -0.500000
v 0.070433 0.239873 -0.500000
v 0.103853 0.227407 -0.500000
v 0.135160 0.210313 -0.500000
v 0.163715 0.188937 -0.500000
v 0.188937 0.163715 -0.500000
v 0.210313 0.135160 -0.500000
v 0.227407 0.103853 -0.500000
v 0.239873 0.070433 -0.500000
v 0.247455 0.035578 -0.500000
v 0.249999 0.0 0.500000
v 0.247455 -0.035578 0.500000
v 0.239873 -0.070433 0.500000
v 0.227407 -0.103853 0.500000
v 0.210313 -0.135160 0.500000
v 0.188937 -0.163715 0.500000
v 0.163715 -0.188937 0.500000
v 0.135160 -0.210313 0.500000
v 0.103853 -0.227407 0.500000
v 0.070433 -0.239873 0.500000
v 0.035578 -0.247455 0.500000
v 0.0 -0.249999 0.500000
v -0.035578 -0.247455 0.500000
v -0.070433 -0.239873 0.500000
v -0.103853 -0.227407 0.500000
v -0.135160 -0.210313 0.500000
v -0.163715 -0.188937 0.500000
v -0.188937 -0.163715 0.500000
v -0.210313 -0.135160 0.500000
v -0.227407 -0.103853 0.500000
v -0.239873 -0.070433 0.500000
v -0.247455 -0.035578 0.500000
v -0.249999 0.0 0.500000
v -0.247455 0.035578 0.500000
v -0.239873 0.070433 0.500000
v -0.227407 0.103853 0.500000
v -0.210313 0.135160 0.500000
v -0.188937 0.163715 0.500000
v -0.163715 0.188937 0.500000
v -0.135160 0.210313 0.500000
v -0.103853 0.227407 0.500000
v -0.070433 0.239873 0.500000
v -0.035578 0.247455 0.500000
v 0.0 0.249999 0.500000
v 0.035578 0.247455 0.500000
v 0.070433 0.239873 0.500000
v 0.103853 0.227407 0.500000
v 0.135160 0.210313 0.500000
v 0.163715 0.188937 0.500000
v 0.188937 0.163715 0.500000
v 0.210313 0.135160 0.500000
v 0.227407 0.103853 0.500000
v 0.239873 0.070433 0.500000
v 0.247455 0.035578 0.500000
v 0.0 0.0 -0.500000
v 0.0 0.0 0.500000

vt 1.000000 1.000000
vt 0.977272 1.000000
vt 0.954545 1.000000
vt 0.931818 1.000000
vt 0.909090 1.000000
vt 0.886363 1.000000
vt 0.863636 1.000000
vt 0.840909 1.000000
vt 0.818181 1.000000
vt 0.795454 1.000000
vt 0.772727 1.000000
vt 0.750000 1.000000
vt 0.727272 1.000000
vt 0.704545 1.000000
vt 0.681818 1.000000
vt 0.659090 1.000000
vt 0.636363 1.000000
vt 0.613636 1.000000
vt 0.590909 1.000000
vt 0.568181 1.000000
vt 0.545454 1.000000
vt 0.522727 1.000000
vt 0.500000 1.000000
vt 0.477272 1.000000
vt 0.454545 1.000000
vt 0.431818 1.000000
vt 0.409090 1.000000
vt 0.386363 1.000000
vt 0.363636 1.000000
vt 0.340909 1.000000
vt 0.318181 1.000000
vt 0.295454 1.000000
vt 0.272727 1.000000
vt 0.250000 1.000000
vt 0.227272 1.000000
vt 0.204545 1.000000
vt 0.181818 1.000000
vt 0.159090 1.000000
vt 0.136363 1.000000
vt 0.113636 1.000000
vt 0.090909 1.000000
vt 0.068181 1.000000
vt 0.045454 1.000000
vt 0.022727 1.000000
vt 0.0 1.000000
vt 1.000000 0.0
vt 0.977272 0.0
vt 0.954545 0.0
vt 0.931818 0.0
vt 0.909090 0.0
vt 0.886363 0.0
vt 0.863636 0.0
vt 0.840909 0.0
vt 0.818181 0.0
vt 0.795454 0.0
vt 0.772727 0.0
vt 0.750000 0.0
vt 0.727272 0.0
vt 0.704545 0.0
vt 0.681818 0.0
vt 0.659090 0.0
vt 0.636363 0.0
vt 0.613636 0.0
vt 0.590909 0.0
vt 0.568181 0.0
vt 0.545454 0.0
vt 0.522727 0.0
vt 0.500000 0.0
vt 0.477272 0.0
vt 0.454545 0.0
vt 0.431818 0.0
vt 0.409090 0.0
vt 0.386363 0.0
vt 0.363636 0.0
vt 0.340909 0.0
vt 0.318181 0.0
vt 0.295454 0.0
vt 0.272727 0.0
vt 0.250000 0.0
vt 0.227272 0.0
vt 0.204545 0.0
vt 0.181818 0.0
vt 0.159090 0.0
vt 0.136363 0.0
vt 0.113636 0.0
vt 0.090909 0.0
vt 0.068181 0.0
vt 0.045454 0.0
vt 0.022727 0.0
vt 0.0 0.0
vt 0.0 0.500000
vt 0.005089 0.571157
vt 0.020253 0.640866
vt 0.045184 0.707707
vt 0.079373 0.770320
vt 0.122125 0.827430
vt 0.172569 0.877874
vt 0.229679 0.920626
vt 0.292292 0.954815
vt 0.359133 0.979746
vt 0.428842 0.994910
vt 0.500000 1.000000
vt 0.571157 0.994910
vt 0.640866 0.979746
vt 0.707707 0.954815
vt 0.770320 0.920626
vt 0.827430 0.877874
vt 0.877874 0.827430
vt 0.920626 0.770320
vt 0.954815 0.707707
vt 0.979746 0.640866
vt 0.994910 0.571157
vt 1.000000 0.500000
vt 0.994910 0.428842
vt 0.979746 0.359133
vt 0.954815 0.292292
vt 0.920626 0.229679
vt 0.877874 0.172569
vt 0.827430 0.122125
vt 0.770320 0.079373
vt 0.707707 0.045184
vt 0.640866 0.020253
vt 0.571157 0.005089
vt 0.500000 0.0
vt 0.428842 0.005089
vt 0.359133 0.020253
vt 0.292292 0.045184
vt 0.229679 0.079373
vt 0.172569 0.122125
vt 0.122125 0.172569
vt 0.079373 0.229679
vt 0.045183 0.292292
vt 0.020253 0.359133
vt 0.005089 0.428842
vt 0.500000 0.500000

vn 0.999999 0.0 0.0
vn 0.989821 -0.142314 0.0
vn 0.959492 -0.281732 0.0
vn 0.909631 -0.415414 0.0
vn 0.841253 -0.540640 0.0
vn 0.755749 -0.654860 0.0
vn 0.654860 -0.755749 0.0
vn 0.540640 -0.841253 0.0
vn 0.415414 -0.909631 0.0
vn 0.281732 -0.959492 0.0
vn 0.142314 -0.989821 0.0
vn 0.0 -0.999999 0.0
vn -0.142314 -0.989821 0.0
vn -0.281732 -0.959492 0.0
vn -0.415414 -0.909631 0.0
vn -0.540640 -0.841253 0.0
vn -0.654860 -0.755749 0.0
vn -0.755749 -0.654860 0.0
vn -0.841253 -0.540640 0.0
vn -0.909631 -0.415414 0.0
vn -0.959492 -0.281732 0.0
vn -0.989821 -0.142314 0.0
vn -0.999999 0.0 0.0
vn -0.989821 0.142315 0.0
vn -0.959492 0.281732 0.0
vn -0.909631 0.415414 0.0
vn -0.841253 0.540640 0.0
vn -0.755749 0.654860 0.0
vn -0.654860 0.755749 0.0
vn -0.540640 0.841253 0.0
vn -0.415414 0.909631 0.0
vn -0.281732 0.959492 0.0
vn -0.142314 0.989821 0.0
vn 0.0 0.999999 0.0
vn 0.142315 0.989821 0.0
vn 0.281732 0.959492 0.0
vn 0.415415 0.909631 0.0
vn 0.540640 0.841253 0.0
vn 0.654860 0.755749 0.0
vn 0.755749 0.654860 0.0
vn 0.841253 0.540640 0.0
vn 0.909631 0.415414 0.0
vn 0.959492 0.281732 0.0
vn 0.989821 0.142314 0.0
vn 0.0 0.0 -0.999999
vn 0.0 0.0 0.999999

s off

f 1/1/1 45/46/1 46/47/2 
f 2/2/2 46/47/2 47/48/3 
f 3/3/3 47/48/3 48/49/4 
f 4/4/4 48/49/4 49/50/5 
f 5/5/5 49/50/5 50/51/6 
f 6/6/6 50/51/6 51/52/7 
f 7/7/7 51/52/7 52/53/8 
f 8/8/8 52/53/8 53/54/9 
f 9/9/9 53/54/9 54/55/10 
f 10/10/10 54/55/10 55/56/11 
f 11/11/11 55/56/11 56/57/12 
f 12/12/12 56/57/12 57/58/13 
f 13/13/13 57/58/13 58/59/14 
f 14/14/14 58/59/14 59/60/15 
f 15/15/15 59/60/15 60/61/16 
f 16/16/16 60/61/16 61/62/17 
f 17/17/17 61/62/17 62/63/18 
f 18/18/18 62/63/18 63/64/19 
f 19/19/19 63/64/19 64/65/20 
f 20/20/20 64/65/20 65/66/21 
f 21/21/21 65/66/21 66/67/22 
f 22/22/22 66/67/22 67/68/23 
f 23/23/23 67/68/23 68/69/24 
f 24/24/24 68/69/24 69/70/25 
f 25/25/25 69/70/25 70/71/26 
f 26/26/26 70/71/26 71/72/27 
f 27/27/27 71/72/27 72/73/28 
f 28/28/28 72/73/28 73/74/29 
f 29/29/29 73/74/29 74/75/30 
f 30/30/30 74/75/30 75/76/31 
f 31/31/31 75/76/31 76/77/32 
f 32/32/32 76/77/32 77/78/33 
f 33/33/33 77/78/33 78/79/34 
f 34/34/34 78/79/34 79/80/35 
f 35/35/35 79/80/35 80/81/36 
f 36/36/36 80/81/36 81/82/37 
f 37/37/37 81/82/37 82/83/38 
f 38/38/38 82/83/38 83/84/39 
f 39/39/39 83/84/39 84/85/40 
f 40/40/40 84/85/40 85/86/41 
f 41/41/41 85/86/41 86/87/42 
f 42/42/42 86/87/42 87/88/43 
f 43/43/43 87/88/43 88/89/44 
f 44/44/44 88/89/44 45/90/1 
f 46/47/2 2/2/2 1/1/1 
f 47/48/3 3/3/3 2/2/2 
f 48/49/4 4/4/4 3/3/3 
f 49/50/5 5/5/5 4/4/4 
f 50/51/6 6/6/6 5/5/5 
f 51/52/7 7/7/7 6/6/6 
f 52/53/8 8/8/8 7/7/7 
f 53/54/9 9/9/9 8/8/8 
f 54/55/10 10/10/10 9/9/9 
f 55/56/11 11/11/11 10/10/10 
f 56/57/12 12/12/12 11/11/11 
f 57/58/13 13/13/13 12/12/12 
f 58/59/14 14/14/14 13/13/13 
f 59/60/15 15/15/15 14/14/14 
f 60/61/16 16/16/16 15/15/15 
f 61/62/17 17/17/17 16/16/16 
f 62/63/18 18/18/18 17/17/17 
f 63/64/19 19/19/19 18/18/18 
f 64/65/20 20/20/20 19/19/19 
f 65/66/21 21/21/21 20/20/20 
f 66/67/22 22/22/22 21/21/21 
f 67/68/23 23/23/23 22/22/22 
f 68/69/24 24/24/24 23/23/23 
f 69/70/25 25/25/25 24/24/24 
f 70/71/26 26/26/26 25/25/25 
f 71/72/27 27/27/27 26/26/26 
f 72/73/28 28/28/28 27/27/27 
f 73/74/29 29/29/29 28/28/28 
f 74/75/30 30/30/30 29/29/29 
f 75/76/31 31/31/31 30/30/30 
f 76/77/32 32/32/32 31/31/31 
f 77/78/33 33/33/33 32/32/32 
f 78/79/34 34/34/34 33/33/33 
f 79/80/35 35/35/35 34/34/34 
f 80/81/36 36/36/36 35/35/35 
f 81/82/37 37/37/37 36/36/36 
f 82/83/38 38/38/38 37/37/37 
f 83/84/39 39/39/39 38/38/38 
f 84/85/40 40/40/40 39/39/39 
f 85/86/41 41/41/41 40/40/40 
f 86/87/42 42/42/42 41/41/41 
f 87/88/43 43/43/43 42/42/42 
f 88/89/44 44/44/44 43/43/43 
f 45/90/1 1/45/1 44/44/44 
f 89/135/45 1/91/45 2/92/45 
f 89/135/45 2/92/45 3/93/45 
f 89/135/45 3/93/45 4/94/45 
f 89/135/45 4/94/45 5/95/45 
f 89/135/45 5/95/45 6/96/45 
f 89/135/45 6/96/45 7/97/45 
f 89/135/45 7/97/45 8/98/45 
f 89/135/45 8/98/45 9/99/45 
f 89/135/45 9/99/45 10/100/45 
f 89/135/45 10/100/45 11/101/45 
f 89/135/45 11/101/45 12/102/45 
f 89/135/45 12/102/45 13/103/45 
f 89/135/45 13/103/45 14/104/45 
f 89/135/45 14/104/45 15/105/45 
f 89/135/45 15/105/45 16/106/45 
f 89/135/45 16/106/45 17/107/45 
f 89/135/45 17/107/45 18/108/45 
f 89/135/45 18/108/45 19/109/45 
f 89/135/45 19/109/45 20/110/45 
f 89/135/45 20/110/45 21/111/45 
f 89/135/45 21/111/45 22/112/45 
f 89/135/45 22/112/45 23/113/45 
f 89/135/45 23/113/45 24/114/45 
f 89/135/45 24/114/45 25/115/45 
f 89/135/45 25/115/45 26/116/45 
f 89/135/45 26/116/45 27/117/45 
f 89/135/45 27/117/45 28/118/45 
f 89/135/45 28/118/45 29/119/45 
f 89/135/45 29/119/45 30/120/45 
f 89/135/45 30/120/45 31/121/45 
f 89/135/45 31/121/45 32/122/45 
f 89/135/45 32/122/45 33/123/45 
f 89/135/45 33/123/45 34/124/45 
f 89/135/45 34/124/45 35/125/45 
f 89/135/45 35/125/45 36/126/45 
f 89/135/45 36/126/45 37/127/45 
f 89/135/45 37/127/45 38/128/45 
f 89/135/45 38/128/45 39/129/45 
f 89/135/45 39/129/45 40/130/45 
f 89/135/45 40/130/45 41/131/45 
f 89/135/45 41/131/45 42/132/45 
f 89/135/45 42/132/45 43/133/45 
f 89/135/45 43/133/45 44/134/45 
f 89/135/45 44/134/45 1/91/45 
f 90/135/46 46/92/46 45/91/46 
f 90/135/46 47/93/46 46/92/46 
f 90/135/46 48/94/46 47/93/46 
f 90/135/46 49/95/46 48/94/46 
f 90/135/46 50/96/46 49/95/46 
f 90/135/46 51/97/46 50/96/46 
f 90/135/46 52/98/46 51/97/46 
f 90/135/46 53/99/46 52/98/46 
f 90/135/46 54/100/46 53/99/46 
f 90/135/46 55/101/46 54/100/46 
f 90/135/46 56/102/46 55/101/46 
f 90/135/46 57/103/46 56/102/46 
f 90/135/46 58/104/46 57/103/46 
f 90/135/46 59/105/46 58/104/46 
f 90/135/46 60/106/46 59/105/46 
f 90/135/46 61/107/46 60/106/46 
f 90/135/46 62/108/46 61/107/46 
f 90/135/46 63/109/46 62/108/46 
f 90/135/46 64/110/46 63/109/46 
f 90/135/46 65/111/46 64/110/46 
f 90/135/46 66/112/46 65/111/46 
f 90/135/46 67/113/46 66/112/46 
f 90/135/46 68/114/46 67/113/46 
f 90/135/46 69/115/46 68/114/46 
f 90/135/46 70/116/46 69/115/46 
f 90/135/46 71/117/46 70/116/46 
f 90/135/46 72/118/46 71/117/46 
f 90/135/46 73/119/46 72/118/46 
f 90/135/46 74/120/46 73/119/46 
f 90/135/46 75/121/46 74/120/46 
f 90/135/46 76/122/46 75/121/46 
f 90/135/46 77/123/46 76/122/46 
f 90/135/46 78/124/46 77/123/46 
f 90/135/46 79/125/46 78/124/46 
f 90/135/46 80/126/46 79/125/46 
f 90/135/46 81/127/46 80/126/46 
f 90/135/46 82/128/46 81/127/46 
f 90/135/46 83/129/46 82/128/46 
f 90/135/46 84/130/46 83/129/46 
f 90/135/46 85/131/46 84/130/46 
f 90/135/46 86/132/46 85/131/46 
f 90/135/46 87/133/46 86/132/46 
f 90/135/46 88/134/46 87/133/46 
f 90/135/46 45/91/46 88/134/46 
