# g: 1, v: 162, vt: 205, vn: 162, f: 320
o 27f723

# v: 162, vt: 205, vn: 162, f: 320
g Icosphere

v 0.0 0.0 -0.499999
v 0.0 -0.125573 -0.483974
v -0.119427 -0.038803 -0.483974
v 0.119427 -0.038803 -0.483974
v -0.073810 0.101590 -0.483974
v 0.073810 0.101590 -0.483974
v 0.0 -0.262864 -0.425326
v -0.131432 -0.180900 -0.447214
v 0.131432 -0.180900 -0.447214
v -0.249999 -0.081228 -0.425325
v 0.249999 -0.081228 -0.425325
v -0.212662 0.069098 -0.447213
v 0.212662 0.069098 -0.447213
v -0.154508 0.212661 -0.425326
v 0.0 0.223605 -0.447214
v 0.154508 0.212661 -0.425326
v 0.0 -0.376719 -0.328758
v -0.131432 -0.319096 -0.361805
v 0.131432 -0.319096 -0.361805
v -0.262864 -0.223604 -0.361805
v 0.262864 -0.223604 -0.361805
v -0.358282 -0.116411 -0.328758
v 0.358282 -0.116411 -0.328758
v -0.344094 0.026393 -0.361804
v 0.344094 0.026393 -0.361804
v -0.293891 0.180900 -0.361804
v 0.293891 0.180900 -0.361804
v -0.221431 0.304772 -0.328758
v -0.081229 0.335408 -0.361805
v 0.081229 0.335408 -0.361805
v 0.221431 0.304772 -0.328758
v 0.0 -0.447212 -0.223609
v -0.119427 -0.415524 -0.251150
v 0.119427 -0.415524 -0.251150
v -0.249999 -0.344093 -0.262868
v 0.249999 -0.344093 -0.262868
v -0.358282 -0.241984 -0.251150
v 0.358282 -0.241984 -0.251150
v -0.425324 -0.138194 -0.223609
v 0.425324 -0.138194 -0.223609
v -0.432092 -0.014820 -0.251150
v 0.432092 -0.014820 -0.251150
v -0.404507 0.131432 -0.262867
v 0.404507 0.131432 -0.262867
v -0.340858 0.265968 -0.251150
v 0.340858 0.265968 -0.251150
v -0.262865 0.361801 -0.223609
v -0.147620 0.406363 -0.251150
v 0.0 0.425323 -0.262868
v 0.147620 0.406363 -0.251150
v 0.262865 0.361801 -0.223609
v -0.073810 -0.478312 -0.125575
v 0.073810 -0.478312 -0.125575
v -0.212663 -0.430900 -0.138198
v 0.212663 -0.430900 -0.138198
v -0.344096 -0.335408 -0.138198
v 0.344096 -0.335408 -0.138198
v -0.432094 -0.218002 -0.125575
v 0.432094 -0.218002 -0.125575
v -0.477711 -0.077607 -0.125575
v 0.477711 -0.077607 -0.125575
v -0.475527 0.069098 -0.138198
v 0.475527 0.069098 -0.138198
v -0.425325 0.223605 -0.138198
v 0.425325 0.223605 -0.138198
v -0.340859 0.343577 -0.125575
v 0.340859 0.343577 -0.125575
v -0.221431 0.430347 -0.125575
v -0.081230 0.473606 -0.138198
v 0.081230 0.473606 -0.138198
v 0.221431 0.430347 -0.125575
v -0.154509 -0.475528 0.0
v 0.0 -0.500000 0.0
v 0.154509 -0.475528 0.0
v -0.293893 -0.404507 0.0
v 0.293893 -0.404507 0.0
v -0.404509 -0.293891 0.0
v 0.404509 -0.293891 0.0
v -0.475528 -0.154507 0.0
v 0.475528 -0.154507 0.0
v -0.499999 0.0 0.0
v 0.499999 0.0 0.0
v -0.475528 0.154507 0.0
v 0.475528 0.154507 0.0
v -0.404509 0.293891 0.0
v 0.404509 0.293891 0.0
v -0.293893 0.404507 0.0
v 0.293893 0.404507 0.0
v -0.154509 0.475528 0.0
v 0.0 0.500000 0.0
v 0.154509 0.475528 0.0
v -0.221431 -0.430347 0.125575
v -0.081230 -0.473606 0.138198
v 0.081230 -0.473606 0.138198
v 0.221431 -0.430347 0.125575
v -0.340859 -0.343577 0.125575
v 0.340859 -0.343577 0.125575
v -0.425325 -0.223605 0.138198
v 0.425325 -0.223605 0.138198
v -0.475527 -0.069098 0.138198
v 0.475527 -0.069098 0.138198
v -0.477711 0.077607 0.125575
v 0.477711 0.077607 0.125575
v -0.432094 0.218002 0.125575
v 0.432094 0.218002 0.125575
v -0.344096 0.335408 0.138198
v 0.344096 0.335408 0.138198
v -0.212663 0.430900 0.138198
v 0.212663 0.430900 0.138198
v -0.073810 0.478312 0.125575
v 0.073810 0.478312 0.125575
v -0.262865 -0.361801 0.223609
v -0.147620 -0.406363 0.251150
v 0.0 -0.425323 0.262868
v 0.147620 -0.406363 0.251150
v 0.262865 -0.361801 0.223609
v -0.340858 -0.265968 0.251150
v 0.340858 -0.265968 0.251150
v -0.404507 -0.131432 0.262867
v 0.404507 -0.131432 0.262867
v -0.432092 0.014820 0.251150
v 0.432092 0.014820 0.251150
v -0.425324 0.138194 0.223609
v 0.425324 0.138194 0.223609
v -0.358282 0.241984 0.251150
v 0.358282 0.241984 0.251150
v -0.249999 0.344093 0.262868
v 0.249999 0.344093 0.262868
v -0.119427 0.415524 0.251150
v 0.119427 0.415524 0.251150
v 0.0 0.447212 0.223609
v -0.221431 -0.304772 0.328758
v -0.081229 -0.335408 0.361805
v 0.081229 -0.335408 0.361805
v 0.221431 -0.304772 0.328758
v -0.293891 -0.180900 0.361804
v 0.293891 -0.180900 0.361804
v -0.344094 -0.026393 0.361804
v 0.344094 -0.026393 0.361804
v -0.358282 0.116411 0.328758
v 0.358282 0.116411 0.328758
v -0.262864 0.223604 0.361805
v 0.262864 0.223604 0.361805
v -0.131432 0.319096 0.361805
v 0.131432 0.319096 0.361805
v 0.0 0.376719 0.328758
v -0.154508 -0.212661 0.425326
v 0.0 -0.223605 0.447214
v 0.154508 -0.212661 0.425326
v -0.212662 -0.069098 0.447213
v 0.212662 -0.069098 0.447213
v -0.249999 0.081228 0.425325
v 0.249999 0.081228 0.425325
v -0.131432 0.180900 0.447214
v 0.131432 0.180900 0.447214
v 0.0 0.262864 0.425326
v -0.073810 -0.101590 0.483974
v 0.073810 -0.101590 0.483974
v -0.119427 0.038803 0.483974
v 0.119427 0.038803 0.483974
v 0.0 0.125573 0.483974
v 0.0 0.0 0.499999

vt 0.181817 0.264160
vt 0.363635 0.264160
vt 0.545454 0.264160
vt 0.727272 0.264160
vt 0.909090 0.264160
vt 0.159090 0.303467
vt 0.204545 0.303467
vt 0.340908 0.303467
vt 0.386363 0.303467
vt 0.522727 0.303467
vt 0.568182 0.303467
vt 0.704545 0.303467
vt 0.750000 0.303467
vt 0.886363 0.303467
vt 0.931818 0.303467
vt 0.136363 0.342773
vt 0.181818 0.342773
vt 0.227272 0.342773
vt 0.318181 0.342773
vt 0.363636 0.342773
vt 0.409090 0.342773
vt 0.500000 0.342773
vt 0.545454 0.342773
vt 0.590909 0.342773
vt 0.681818 0.342773
vt 0.727272 0.342773
vt 0.772727 0.342773
vt 0.863636 0.342773
vt 0.909090 0.342773
vt 0.954545 0.342773
vt 0.113636 0.382080
vt 0.159090 0.382080
vt 0.204545 0.382080
vt 0.249999 0.382080
vt 0.295454 0.382080
vt 0.340908 0.382080
vt 0.386363 0.382080
vt 0.431817 0.382080
vt 0.477272 0.382080
vt 0.522727 0.382080
vt 0.568181 0.382080
vt 0.613636 0.382080
vt 0.659091 0.382080
vt 0.704545 0.382080
vt 0.750000 0.382080
vt 0.795454 0.382080
vt 0.840909 0.382080
vt 0.886363 0.382080
vt 0.931818 0.382080
vt 0.977272 0.382080
vt 0.090908 0.421387
vt 0.136363 0.421387
vt 0.181818 0.421387
vt 0.227272 0.421387
vt 0.272727 0.421387
vt 0.318181 0.421387
vt 0.363636 0.421387
vt 0.409090 0.421387
vt 0.454544 0.421387
vt 0.499999 0.421387
vt 0.545454 0.421387
vt 0.590909 0.421387
vt 0.636363 0.421387
vt 0.681818 0.421387
vt 0.727272 0.421387
vt 0.772727 0.421387
vt 0.818181 0.421387
vt 0.863636 0.421387
vt 0.909090 0.421387
vt 0.954545 0.421387
vt 1.000000 0.421387
vt 0.068181 0.460693
vt 0.113636 0.460693
vt 0.159090 0.460693
vt 0.204545 0.460693
vt 0.249999 0.460693
vt 0.295454 0.460693
vt 0.340908 0.460693
vt 0.386363 0.460693
vt 0.431817 0.460693
vt 0.477272 0.460693
vt 0.522727 0.460693
vt 0.568181 0.460693
vt 0.613636 0.460693
vt 0.659091 0.460693
vt 0.704545 0.460693
vt 0.750000 0.460693
vt 0.795454 0.460693
vt 0.840909 0.460693
vt 0.886363 0.460693
vt 0.931818 0.460693
vt 0.977272 0.460693
vt 0.045454 0.500000
vt 0.090908 0.500000
vt 0.136363 0.500000
vt 0.181818 0.500000
vt 0.227272 0.500000
vt 0.272727 0.500000
vt 0.318181 0.500000
vt 0.363636 0.500000
vt 0.409090 0.500000
vt 0.454545 0.500000
vt 0.500000 0.500000
vt 0.545454 0.500000
vt 0.590909 0.500000
vt 0.636363 0.500000
vt 0.681818 0.500000
vt 0.727272 0.500000
vt 0.772727 0.500000
vt 0.818181 0.500000
vt 0.863636 0.500000
vt 0.909090 0.500000
vt 0.954545 0.500000
vt 0.022727 0.539306
vt 0.068181 0.539306
vt 0.113636 0.539306
vt 0.159090 0.539306
vt 0.204545 0.539306
vt 0.249999 0.539306
vt 0.295454 0.539306
vt 0.340908 0.539306
vt 0.386363 0.539306
vt 0.431818 0.539306
vt 0.477272 0.539306
vt 0.522727 0.539306
vt 0.568182 0.539306
vt 0.613636 0.539306
vt 0.659091 0.539306
vt 0.704545 0.539306
vt 0.750000 0.539306
vt 0.795454 0.539306
vt 0.840909 0.539306
vt 0.886363 0.539306
vt 0.931818 0.539306
vt 0.0 0.578612
vt 0.045454 0.578612
vt 0.090908 0.578612
vt 0.136363 0.578612
vt 0.181817 0.578612
vt 0.227272 0.578612
vt 0.272726 0.578612
vt 0.318181 0.578612
vt 0.363635 0.578612
vt 0.409090 0.578612
vt 0.454545 0.578612
vt 0.500000 0.578612
vt 0.545454 0.578612
vt 0.590909 0.578612
vt 0.636363 0.578612
vt 0.681818 0.578612
vt 0.727272 0.578612
vt 0.772727 0.578612
vt 0.818181 0.578612
vt 0.863636 0.578612
vt 0.909090 0.578612
vt 0.022727 0.617919
vt 0.068181 0.617919
vt 0.113636 0.617919
vt 0.159090 0.617919
vt 0.204545 0.617919
vt 0.249999 0.617919
vt 0.295454 0.617919
vt 0.340908 0.617919
vt 0.386363 0.617919
vt 0.431818 0.617919
vt 0.477272 0.617919
vt 0.522727 0.617919
vt 0.568182 0.617919
vt 0.613636 0.617919
vt 0.659091 0.617919
vt 0.704545 0.617919
vt 0.750000 0.617919
vt 0.795454 0.617919
vt 0.840909 0.617919
vt 0.886363 0.617919
vt 0.045454 0.657225
vt 0.090908 0.657225
vt 0.136363 0.657225
vt 0.227272 0.657225
vt 0.272727 0.657225
vt 0.318181 0.657225
vt 0.409090 0.657225
vt 0.454545 0.657225
vt 0.500000 0.657225
vt 0.590909 0.657225
vt 0.636363 0.657225
vt 0.681818 0.657225
vt 0.772727 0.657225
vt 0.818181 0.657225
vt 0.863636 0.657225
vt 0.068181 0.696532
vt 0.113636 0.696532
vt 0.249999 0.696532
vt 0.295454 0.696532
vt 0.431817 0.696532
vt 0.477272 0.696532
vt 0.613636 0.696532
vt 0.659091 0.696532
vt 0.795454 0.696532
vt 0.840909 0.696532
vt 0.090908 0.735838
vt 0.272727 0.735838
vt 0.454544 0.735838
vt 0.636363 0.735838
vt 0.818181 0.735838

vn 0.0 0.0 -0.999999
vn 0.0 -0.251146 -0.967949
vn -0.238855 -0.077607 -0.967949
vn 0.238855 -0.077607 -0.967949
vn -0.147620 0.203181 -0.967949
vn 0.147620 0.203181 -0.967949
vn 0.0 -0.525728 -0.850652
vn -0.262864 -0.361800 -0.894428
vn 0.262864 -0.361800 -0.894428
vn -0.499998 -0.162457 -0.850651
vn 0.499998 -0.162457 -0.850651
vn -0.425324 0.138196 -0.894427
vn 0.425324 0.138196 -0.894427
vn -0.309016 0.425322 -0.850652
vn 0.0 0.447210 -0.894428
vn 0.309016 0.425322 -0.850652
vn 0.0 -0.753439 -0.657516
vn -0.262865 -0.638192 -0.723610
vn 0.262865 -0.638192 -0.723610
vn -0.525729 -0.447209 -0.723610
vn 0.525729 -0.447209 -0.723610
vn -0.716565 -0.232823 -0.657516
vn 0.716565 -0.232823 -0.657516
vn -0.688188 0.052787 -0.723609
vn 0.688188 0.052787 -0.723609
vn -0.587783 0.361801 -0.723609
vn 0.587783 0.361801 -0.723609
vn -0.442862 0.609544 -0.657516
vn -0.162459 0.670816 -0.723610
vn 0.162459 0.670816 -0.723610
vn 0.442862 0.609544 -0.657516
vn 0.0 -0.894424 -0.447219
vn -0.238855 -0.831048 -0.502301
vn 0.238855 -0.831048 -0.502301
vn -0.499999 -0.688186 -0.525737
vn 0.499999 -0.688186 -0.525737
vn -0.716565 -0.483969 -0.502300
vn 0.716565 -0.483969 -0.502300
vn -0.850649 -0.276389 -0.447218
vn 0.850649 -0.276389 -0.447218
vn -0.864185 -0.029641 -0.502300
vn 0.864185 -0.029641 -0.502300
vn -0.809014 0.262864 -0.525735
vn 0.809014 0.262864 -0.525735
vn -0.681716 0.531936 -0.502300
vn 0.681716 0.531936 -0.502300
vn -0.525731 0.723603 -0.447219
vn -0.295241 0.812727 -0.502301
vn 0.0 0.850646 -0.525737
vn 0.295241 0.812727 -0.502301
vn 0.525731 0.723603 -0.447219
vn -0.147621 -0.956624 -0.251151
vn 0.147621 -0.956624 -0.251151
vn -0.425326 -0.861801 -0.276397
vn 0.425326 -0.861801 -0.276397
vn -0.688192 -0.670817 -0.276397
vn 0.688192 -0.670817 -0.276397
vn -0.864188 -0.436005 -0.251151
vn 0.864188 -0.436005 -0.251151
vn -0.955422 -0.155215 -0.251150
vn 0.955422 -0.155215 -0.251150
vn -0.951055 0.138196 -0.276396
vn 0.951055 0.138196 -0.276396
vn -0.850650 0.447211 -0.276396
vn 0.850650 0.447211 -0.276396
vn -0.681719 0.687154 -0.251151
vn 0.681719 0.687154 -0.251151
vn -0.442863 0.860694 -0.251151
vn -0.162460 0.947212 -0.276397
vn 0.162460 0.947212 -0.276397
vn 0.442863 0.860694 -0.251151
vn -0.309018 -0.951056 0.0
vn 0.0 -1.000000 0.0
vn 0.309018 -0.951056 0.0
vn -0.587787 -0.809015 0.0
vn 0.587787 -0.809015 0.0
vn -0.809018 -0.587782 0.0
vn 0.809018 -0.587782 0.0
vn -0.951057 -0.309015 0.0
vn 0.951057 -0.309015 0.0
vn -0.999999 0.0 0.0
vn 0.999999 0.0 0.0
vn -0.951057 0.309015 0.0
vn 0.951057 0.309015 0.0
vn -0.809018 0.587782 0.0
vn 0.809018 0.587782 0.0
vn -0.587787 0.809015 0.0
vn 0.587787 0.809015 0.0
vn -0.309018 0.951056 0.0
vn 0.0 1.000000 0.0
vn 0.309018 0.951056 0.0
vn -0.442863 -0.860694 0.251151
vn -0.162460 -0.947212 0.276397
vn 0.162460 -0.947212 0.276397
vn 0.442863 -0.860694 0.251151
vn -0.681719 -0.687154 0.251151
vn 0.681719 -0.687154 0.251151
vn -0.850650 -0.447211 0.276396
vn 0.850650 -0.447211 0.276396
vn -0.951055 -0.138196 0.276396
vn 0.951055 -0.138196 0.276396
vn -0.955422 0.155215 0.251150
vn 0.955422 0.155215 0.251150
vn -0.864188 0.436005 0.251151
vn 0.864188 0.436005 0.251151
vn -0.688192 0.670817 0.276397
vn 0.688192 0.670817 0.276397
vn -0.425326 0.861801 0.276397
vn 0.425326 0.861801 0.276397
vn -0.147621 0.956624 0.251151
vn 0.147621 0.956624 0.251151
vn -0.525731 -0.723603 0.447219
vn -0.295241 -0.812727 0.502301
vn 0.0 -0.850646 0.525737
vn 0.295241 -0.812727 0.502301
vn 0.525731 -0.723603 0.447219
vn -0.681716 -0.531936 0.502300
vn 0.681716 -0.531936 0.502300
vn -0.809014 -0.262864 0.525735
vn 0.809014 -0.262864 0.525735
vn -0.864185 0.029641 0.502300
vn 0.864185 0.029641 0.502300
vn -0.850649 0.276389 0.447218
vn 0.850649 0.276389 0.447218
vn -0.716565 0.483969 0.502300
vn 0.716565 0.483969 0.502300
vn -0.499999 0.688186 0.525737
vn 0.499999 0.688186 0.525737
vn -0.238855 0.831048 0.502301
vn 0.238855 0.831048 0.502301
vn 0.0 0.894424 0.447219
vn -0.442862 -0.609544 0.657516
vn -0.162459 -0.670816 0.723610
vn 0.162459 -0.670816 0.723610
vn 0.442862 -0.609544 0.657516
vn -0.587783 -0.361801 0.723609
vn 0.587783 -0.361801 0.723609
vn -0.688188 -0.052787 0.723609
vn 0.688188 -0.052787 0.723609
vn -0.716565 0.232823 0.657516
vn 0.716565 0.232823 0.657516
vn -0.525729 0.447209 0.723610
vn 0.525729 0.447209 0.723610
vn -0.262865 0.638192 0.723610
vn 0.262865 0.638192 0.723610
vn 0.0 0.753439 0.657516
vn -0.309016 -0.425322 0.850652
vn 0.0 -0.447210 0.894428
vn 0.309016 -0.425322 0.850652
vn -0.425324 -0.138196 0.894427
vn 0.425324 -0.138196 0.894427
vn -0.499998 0.162457 0.850651
vn 0.499998 0.162457 0.850651
vn -0.262864 0.361800 0.894428
vn 0.262864 0.361800 0.894428
vn 0.0 0.525728 0.850652
vn -0.147620 -0.203181 0.967949
vn 0.147620 -0.203181 0.967949
vn -0.238855 0.077607 0.967949
vn 0.238855 0.077607 0.967949
vn 0.0 0.251146 0.967949
vn 0.0 0.0 0.999999

f 3/195/3 1/203/1 2/196/2 
f 2/197/2 1/204/1 4/198/4 
f 5/193/5 1/202/1 3/194/3 
f 4/199/4 1/205/1 6/200/6 
f 6/191/6 1/201/1 5/192/5 
f 3/195/3 2/196/2 8/183/8 
f 2/197/2 4/198/4 9/186/9 
f 5/193/5 3/194/3 12/180/12 
f 4/199/4 6/200/6 13/189/13 
f 6/191/6 5/192/5 15/177/15 
f 9/186/9 7/185/7 2/197/2 
f 2/196/2 7/184/7 8/183/8 
f 8/183/8 10/182/10 3/195/3 
f 4/198/4 11/187/11 9/186/9 
f 13/189/13 11/188/11 4/199/4 
f 3/194/3 10/181/10 12/180/12 
f 12/180/12 14/179/14 5/193/5 
f 6/200/6 16/190/16 13/189/13 
f 5/192/5 14/178/14 15/177/15 
f 15/177/15 16/176/16 6/191/6 
f 8/183/8 7/184/7 18/166/18 
f 9/186/9 11/187/11 21/170/21 
f 12/180/12 10/181/10 24/162/24 
f 13/189/13 16/190/16 27/174/27 
f 15/177/15 14/178/14 29/158/29 
f 19/169/19 7/185/7 9/186/9 
f 20/165/20 10/182/10 8/183/8 
f 25/173/25 11/188/11 13/189/13 
f 26/161/26 14/179/14 12/180/12 
f 30/157/30 16/176/16 15/177/15 
f 18/166/18 7/184/7 17/167/17 
f 17/168/17 7/185/7 19/169/19 
f 18/166/18 20/165/20 8/183/8 
f 21/170/21 19/169/19 9/186/9 
f 22/164/22 10/182/10 20/165/20 
f 21/170/21 11/187/11 23/171/23 
f 24/162/24 10/181/10 22/163/22 
f 23/172/23 11/188/11 25/173/25 
f 24/162/24 26/161/26 12/180/12 
f 27/174/27 25/173/25 13/189/13 
f 28/160/28 14/179/14 26/161/26 
f 27/174/27 16/190/16 31/175/31 
f 29/158/29 14/178/14 28/159/28 
f 29/158/29 30/157/30 15/177/15 
f 31/156/31 16/176/16 30/157/30 
f 17/167/17 33/146/33 18/166/18 
f 34/148/34 17/168/17 19/169/19 
f 18/166/18 35/145/35 20/165/20 
f 21/170/21 36/149/36 19/169/19 
f 37/144/37 22/164/22 20/165/20 
f 23/171/23 38/150/38 21/170/21 
f 22/163/22 41/142/41 24/162/24 
f 42/152/42 23/172/23 25/173/25 
f 24/162/24 43/141/43 26/161/26 
f 27/174/27 44/153/44 25/173/25 
f 45/140/45 28/160/28 26/161/26 
f 31/175/31 46/154/46 27/174/27 
f 28/159/28 48/138/48 29/158/29 
f 29/158/29 49/137/49 30/157/30 
f 50/136/50 31/156/31 30/157/30 
f 17/167/17 32/147/32 33/146/33 
f 34/148/34 32/147/32 17/168/17 
f 33/146/33 35/145/35 18/166/18 
f 19/169/19 36/149/36 34/148/34 
f 20/165/20 35/145/35 37/144/37 
f 38/150/38 36/149/36 21/170/21 
f 37/144/37 39/143/39 22/164/22 
f 23/171/23 40/151/40 38/150/38 
f 22/163/22 39/143/39 41/142/41 
f 42/152/42 40/151/40 23/172/23 
f 41/142/41 43/141/43 24/162/24 
f 25/173/25 44/153/44 42/152/42 
f 26/161/26 43/141/43 45/140/45 
f 46/154/46 44/153/44 27/174/27 
f 45/140/45 47/139/47 28/160/28 
f 31/175/31 51/155/51 46/154/46 
f 28/159/28 47/139/47 48/138/48 
f 48/138/48 49/137/49 29/158/29 
f 30/157/30 49/137/49 50/136/50 
f 50/136/50 51/135/51 31/156/31 
f 33/146/33 32/147/32 52/125/52 
f 53/126/53 32/147/32 34/148/34 
f 54/124/54 35/145/35 33/146/33 
f 34/148/34 36/149/36 55/127/55 
f 37/144/37 35/145/35 56/123/56 
f 57/128/57 36/149/36 38/150/38 
f 58/122/58 39/143/39 37/144/37 
f 38/150/38 40/151/40 59/129/59 
f 41/142/41 39/143/39 60/121/60 
f 61/130/61 40/151/40 42/152/42 
f 42/152/42 44/153/44 63/131/63 
f 62/120/62 43/141/43 41/142/41 
f 45/140/45 43/141/43 64/119/64 
f 65/132/65 44/153/44 46/154/46 
f 66/118/66 47/139/47 45/140/45 
f 46/154/46 51/155/51 67/133/67 
f 48/138/48 47/139/47 68/117/68 
f 69/116/69 49/137/49 48/138/48 
f 50/136/50 49/137/49 70/115/70 
f 71/114/71 51/135/51 50/136/50 
f 52/125/52 32/147/32 53/126/53 
f 33/146/33 52/125/52 54/124/54 
f 53/126/53 34/148/34 55/127/55 
f 56/123/56 35/145/35 54/124/54 
f 55/127/55 36/149/36 57/128/57 
f 58/122/58 37/144/37 56/123/56 
f 38/150/38 59/129/59 57/128/57 
f 60/121/60 39/143/39 58/122/58 
f 59/129/59 40/151/40 61/130/61 
f 41/142/41 60/121/60 62/120/62 
f 61/130/61 42/152/42 63/131/63 
f 64/119/64 43/141/43 62/120/62 
f 63/131/63 44/153/44 65/132/65 
f 66/118/66 45/140/45 64/119/64 
f 46/154/46 67/133/67 65/132/65 
f 68/117/68 47/139/47 66/118/66 
f 67/133/67 51/155/51 71/134/71 
f 48/138/48 68/117/68 69/116/69 
f 70/115/70 49/137/49 69/116/69 
f 71/114/71 50/136/50 70/115/70 
f 52/125/52 53/126/53 73/104/73 
f 52/125/52 72/103/72 54/124/54 
f 55/127/55 74/105/74 53/126/53 
f 56/123/56 54/124/54 75/102/75 
f 55/127/55 57/128/57 76/106/76 
f 56/123/56 77/101/77 58/122/58 
f 59/129/59 78/107/78 57/128/57 
f 60/121/60 58/122/58 79/100/79 
f 59/129/59 61/130/61 80/108/80 
f 60/121/60 81/99/81 62/120/62 
f 63/131/63 82/109/82 61/130/61 
f 64/119/64 62/120/62 83/98/83 
f 63/131/63 65/132/65 84/110/84 
f 64/119/64 85/97/85 66/118/66 
f 67/133/67 86/111/86 65/132/65 
f 68/117/68 66/118/66 87/96/87 
f 67/133/67 71/134/71 88/112/88 
f 68/117/68 89/95/89 69/116/69 
f 70/115/70 69/116/69 90/94/90 
f 70/115/70 91/93/91 71/114/71 
f 73/104/73 72/103/72 52/125/52 
f 53/126/53 74/105/74 73/104/73 
f 54/124/54 72/103/72 75/102/75 
f 76/106/76 74/105/74 55/127/55 
f 75/102/75 77/101/77 56/123/56 
f 57/128/57 78/107/78 76/106/76 
f 58/122/58 77/101/77 79/100/79 
f 80/108/80 78/107/78 59/129/59 
f 79/100/79 81/99/81 60/121/60 
f 61/130/61 82/109/82 80/108/80 
f 62/120/62 81/99/81 83/98/83 
f 84/110/84 82/109/82 63/131/63 
f 83/98/83 85/97/85 64/119/64 
f 65/132/65 86/111/86 84/110/84 
f 66/118/66 85/97/85 87/96/87 
f 88/112/88 86/111/86 67/133/67 
f 87/96/87 89/95/89 68/117/68 
f 71/134/71 91/113/91 88/112/88 
f 69/116/69 89/95/89 90/94/90 
f 90/94/90 91/93/91 70/115/70 
f 93/82/93 72/103/72 73/104/73 
f 73/104/73 74/105/74 94/83/94 
f 75/102/75 72/103/72 92/81/92 
f 95/84/95 74/105/74 76/106/76 
f 76/106/76 78/107/78 97/85/97 
f 96/80/96 77/101/77 75/102/75 
f 99/86/99 78/107/78 80/108/80 
f 79/100/79 77/101/77 98/79/98 
f 100/78/100 81/99/81 79/100/79 
f 80/108/80 82/109/82 101/87/101 
f 83/98/83 81/99/81 102/77/102 
f 103/88/103 82/109/82 84/110/84 
f 84/110/84 86/111/86 105/89/105 
f 104/76/104 85/97/85 83/98/83 
f 87/96/87 85/97/85 106/75/106 
f 107/90/107 86/111/86 88/112/88 
f 108/74/108 89/95/89 87/96/87 
f 88/112/88 91/113/91 109/91/109 
f 90/94/90 89/95/89 110/73/110 
f 111/72/111 91/93/91 90/94/90 
f 92/81/92 72/103/72 93/82/93 
f 93/82/93 73/104/73 94/83/94 
f 94/83/94 74/105/74 95/84/95 
f 92/81/92 96/80/96 75/102/75 
f 97/85/97 95/84/95 76/106/76 
f 98/79/98 77/101/77 96/80/96 
f 97/85/97 78/107/78 99/86/99 
f 100/78/100 79/100/79 98/79/98 
f 99/86/99 80/108/80 101/87/101 
f 102/77/102 81/99/81 100/78/100 
f 101/87/101 82/109/82 103/88/103 
f 102/77/102 104/76/104 83/98/83 
f 105/89/105 103/88/103 84/110/84 
f 106/75/106 85/97/85 104/76/104 
f 105/89/105 86/111/86 107/90/107 
f 107/90/107 88/112/88 109/91/109 
f 108/74/108 87/96/87 106/75/106 
f 110/73/110 89/95/89 108/74/108 
f 109/91/109 91/113/91 111/92/111 
f 110/73/110 111/72/111 90/94/90 
f 113/60/113 92/81/92 93/82/93 
f 94/83/94 114/61/114 93/82/93 
f 95/84/95 115/62/115 94/83/94 
f 92/81/92 112/59/112 96/80/96 
f 97/85/97 116/63/116 95/84/95 
f 96/80/96 117/58/117 98/79/98 
f 118/64/118 97/85/97 99/86/99 
f 98/79/98 119/57/119 100/78/100 
f 101/87/101 120/65/120 99/86/99 
f 121/56/121 102/77/102 100/78/100 
f 103/88/103 122/66/122 101/87/101 
f 102/77/102 123/55/123 104/76/104 
f 105/89/105 124/67/124 103/88/103 
f 104/76/104 125/54/125 106/75/106 
f 126/68/126 105/89/105 107/90/107 
f 109/91/109 128/69/128 107/90/107 
f 106/75/106 127/53/127 108/74/108 
f 129/52/129 110/73/110 108/74/108 
f 111/92/111 130/70/130 109/91/109 
f 110/73/110 131/51/131 111/72/111 
f 113/60/113 112/59/112 92/81/92 
f 93/82/93 114/61/114 113/60/113 
f 115/62/115 114/61/114 94/83/94 
f 95/84/95 116/63/116 115/62/115 
f 96/80/96 112/59/112 117/58/117 
f 118/64/118 116/63/116 97/85/97 
f 117/58/117 119/57/119 98/79/98 
f 99/86/99 120/65/120 118/64/118 
f 100/78/100 119/57/119 121/56/121 
f 122/66/122 120/65/120 101/87/101 
f 121/56/121 123/55/123 102/77/102 
f 103/88/103 124/67/124 122/66/122 
f 104/76/104 123/55/123 125/54/125 
f 126/68/126 124/67/124 105/89/105 
f 125/54/125 127/53/127 106/75/106 
f 107/90/107 128/69/128 126/68/126 
f 108/74/108 127/53/127 129/52/129 
f 130/70/130 128/69/128 109/91/109 
f 129/52/129 131/51/131 110/73/110 
f 111/92/111 131/71/131 130/70/130 
f 132/39/132 112/59/112 113/60/113 
f 113/60/113 114/61/114 133/40/133 
f 134/41/134 114/61/114 115/62/115 
f 115/62/115 116/63/116 135/42/135 
f 117/58/117 112/59/112 132/38/132 
f 135/43/135 116/63/116 118/64/118 
f 118/64/118 120/65/120 137/44/137 
f 136/37/136 119/57/119 117/58/117 
f 139/45/139 120/65/120 122/66/122 
f 121/56/121 119/57/119 138/36/138 
f 140/35/140 123/55/123 121/56/121 
f 122/66/122 124/67/124 141/46/141 
f 125/54/125 123/55/123 140/34/140 
f 141/47/141 124/67/124 126/68/126 
f 142/33/142 127/53/127 125/54/125 
f 126/68/126 128/69/128 143/48/143 
f 129/52/129 127/53/127 144/32/144 
f 145/49/145 128/69/128 130/70/130 
f 146/31/146 131/51/131 129/52/129 
f 130/70/130 131/71/131 146/50/146 
f 132/39/132 113/60/113 133/40/133 
f 133/40/133 114/61/114 134/41/134 
f 115/62/115 135/42/135 134/41/134 
f 117/58/117 132/38/132 136/37/136 
f 135/43/135 118/64/118 137/44/137 
f 138/36/138 119/57/119 136/37/136 
f 137/44/137 120/65/120 139/45/139 
f 140/35/140 121/56/121 138/36/138 
f 122/66/122 141/46/141 139/45/139 
f 125/54/125 140/34/140 142/33/142 
f 141/47/141 126/68/126 143/48/143 
f 144/32/144 127/53/127 142/33/142 
f 143/48/143 128/69/128 145/49/145 
f 146/31/146 129/52/129 144/32/144 
f 130/70/130 146/50/146 145/49/145 
f 133/40/133 147/22/147 132/39/132 
f 133/40/133 134/41/134 148/23/148 
f 135/42/135 149/24/149 134/41/134 
f 132/38/132 147/21/147 136/37/136 
f 137/44/137 149/25/149 135/43/135 
f 138/36/138 136/37/136 150/20/150 
f 137/44/137 139/45/139 151/26/151 
f 141/46/141 153/27/153 139/45/139 
f 138/36/138 152/19/152 140/35/140 
f 140/34/140 152/18/152 142/33/142 
f 143/48/143 153/28/153 141/47/141 
f 144/32/144 142/33/142 154/17/154 
f 143/48/143 145/49/145 155/29/155 
f 144/32/144 156/16/156 146/31/146 
f 146/50/146 156/30/156 145/49/145 
f 134/41/134 149/24/149 148/23/148 
f 136/37/136 147/21/147 150/20/150 
f 139/45/139 153/27/153 151/26/151 
f 142/33/142 152/18/152 154/17/154 
f 145/49/145 156/30/156 155/29/155 
f 148/23/148 147/22/147 133/40/133 
f 151/26/151 149/25/149 137/44/137 
f 150/20/150 152/19/152 138/36/138 
f 155/29/155 153/28/153 143/48/143 
f 154/17/154 156/16/156 144/32/144 
f 157/10/157 147/22/147 148/23/148 
f 148/23/148 149/24/149 158/11/158 
f 150/20/150 147/21/147 157/9/157 
f 158/12/158 149/25/149 151/26/151 
f 159/8/159 152/19/152 150/20/150 
f 151/26/151 153/27/153 160/13/160 
f 154/17/154 152/18/152 159/7/159 
f 160/14/160 153/28/153 155/29/155 
f 161/6/161 156/16/156 154/17/154 
f 155/29/155 156/30/156 161/15/161 
f 158/11/158 157/10/157 148/23/148 
f 157/9/157 159/8/159 150/20/150 
f 160/13/160 158/12/158 151/26/151 
f 159/7/159 161/6/161 154/17/154 
f 161/15/161 160/14/160 155/29/155 
f 158/11/158 162/3/162 157/10/157 
f 157/9/157 162/2/162 159/8/159 
f 160/13/160 162/4/162 158/12/158 
f 159/7/159 162/1/162 161/6/161 
f 161/15/161 162/5/162 160/14/160 

