# g: 1, v: 8, vt: 4, vn: 6, f: 6
o 52701bab

# v: 8, vt: 4, vn: 6, f: 6
g Cube

v -0.353553 -0.353553 -0.353553
v -0.353553 -0.353553 0.353553
v -0.353553 0.353553 -0.353553
v -0.353553 0.353553 0.353553
v 0.353553 -0.353553 -0.353553
v 0.353553 -0.353553 0.353553
v 0.353553 0.353553 -0.353553
v 0.353553 0.353553 0.353553

vt 0.0 0.0
vt 0.0 1.000000
vt 1.000000 1.000000
vt 1.000000 0.0

vn 1.000000 0.0 0.0
vn 0.0 0.0 1.000000
vn 0.0 0.0 -1.000000
vn 0.0 -1.000000 0.0
vn -1.000000 0.0 0.0
vn 0.0 1.000000 0.0

s off
f 7/3/1 8/4/1 6/1/1 5/2/1 
f 8/2/2 4/3/2 2/4/2 6/1/2 
f 3/2/3 7/3/3 5/4/3 1/1/3 
f 5/3/4 6/4/4 2/1/4 1/2/4 
f 1/3/5 2/4/5 4/1/5 3/2/5 
f 3/3/6 4/4/6 8/1/6 7/2/6 

