# g: 1, v: 98, vt: 125, vn: 98, f: 96
o 27f723

# v: 98, vt: 125, vn: 98, f: 96
g Sphere

v -0.288675 -0.288675 -0.288675
v -0.166666 -0.333333 -0.333333
v 0.0 -0.353553 -0.353553
v 0.166666 -0.333333 -0.333333
v 0.288675 -0.288675 -0.288675
v -0.333333 -0.166666 -0.333333
v -0.204124 -0.204124 -0.408248
v 0.0 -0.223606 -0.447213
v 0.204124 -0.204124 -0.408248
v 0.333333 -0.166666 -0.333333
v -0.353553 0.0 -0.353553
v -0.223606 0.0 -0.447213
v 0.0 0.0 -0.499999
v 0.223606 0.0 -0.447213
v 0.353553 0.0 -0.353553
v -0.333333 0.166666 -0.333333
v -0.204124 0.204124 -0.408248
v 0.0 0.223606 -0.447213
v 0.204124 0.204124 -0.408248
v 0.333333 0.166666 -0.333333
v -0.288675 0.288675 -0.288675
v -0.166666 0.333333 -0.333333
v 0.0 0.353553 -0.353553
v 0.166666 0.333333 -0.333333
v 0.288675 0.288675 -0.288675
v -0.333333 -0.333333 -0.166666
v -0.204124 -0.408248 -0.204124
v 0.0 -0.447213 -0.223606
v 0.204124 -0.408248 -0.204124
v 0.333333 -0.333333 -0.166666
v -0.408248 -0.204124 -0.204124
v 0.408248 -0.204124 -0.204124
v -0.447213 0.0 -0.223606
v 0.447213 0.0 -0.223606
v -0.408248 0.204124 -0.204124
v 0.408248 0.204124 -0.204124
v -0.333333 0.333333 -0.166666
v -0.204124 0.408248 -0.204124
v 0.0 0.447213 -0.223606
v 0.204124 0.408248 -0.204124
v 0.333333 0.333333 -0.166666
v -0.353553 -0.353553 0.0
v -0.223606 -0.447213 0.0
v 0.0 -0.499999 0.0
v 0.223606 -0.447213 0.0
v 0.353553 -0.353553 0.0
v -0.447213 -0.223606 0.0
v 0.447213 -0.223606 0.0
v -0.499999 0.0 0.0
v 0.499999 0.0 0.0
v -0.447213 0.223606 0.0
v 0.447213 0.223606 0.0
v -0.353553 0.353553 0.0
v -0.223606 0.447213 0.0
v 0.0 0.499999 0.0
v 0.223606 0.447213 0.0
v 0.353553 0.353553 0.0
v -0.333333 -0.333333 0.166666
v -0.204124 -0.408248 0.204124
v 0.0 -0.447213 0.223606
v 0.204124 -0.408248 0.204124
v 0.333333 -0.333333 0.166666
v -0.408248 -0.204124 0.204124
v 0.408248 -0.204124 0.204124
v -0.447213 0.0 0.223606
v 0.447213 0.0 0.223606
v -0.408248 0.204124 0.204124
v 0.408248 0.204124 0.204124
v -0.333333 0.333333 0.166666
v -0.204124 0.408248 0.204124
v 0.0 0.447213 0.223606
v 0.204124 0.408248 0.204124
v 0.333333 0.333333 0.166666
v -0.288675 -0.288675 0.288675
v -0.166666 -0.333333 0.333333
v 0.0 -0.353553 0.353553
v 0.166666 -0.333333 0.333333
v 0.288675 -0.288675 0.288675
v -0.333333 -0.166666 0.333333
v -0.204124 -0.204124 0.408248
v 0.0 -0.223606 0.447213
v 0.204124 -0.204124 0.408248
v 0.333333 -0.166666 0.333333
v -0.353553 0.0 0.353553
v -0.223606 0.0 0.447213
v 0.0 0.0 0.499999
v 0.223606 0.0 0.447213
v 0.353553 0.0 0.353553
v -0.333333 0.166666 0.333333
v -0.204124 0.204124 0.408248
v 0.0 0.223606 0.447213
v 0.204124 0.204124 0.408248
v 0.333333 0.166666 0.333333
v -0.288675 0.288675 0.288675
v -0.166666 0.333333 0.333333
v 0.0 0.353553 0.353553
v 0.166666 0.333333 0.333333
v 0.288675 0.288675 0.288675

vt 0.375000 0.0
vt 0.437500 0.0
vt 0.500000 0.0
vt 0.562500 0.0
vt 0.625000 0.0
vt 0.375000 0.062500
vt 0.437500 0.062500
vt 0.500000 0.062500
vt 0.562500 0.062500
vt 0.625000 0.062500
vt 0.375000 0.125000
vt 0.437500 0.125000
vt 0.500000 0.125000
vt 0.562500 0.125000
vt 0.625000 0.125000
vt 0.375000 0.187500
vt 0.437500 0.187500
vt 0.500000 0.187500
vt 0.562500 0.187500
vt 0.625000 0.187500
vt 0.125000 0.250000
vt 0.187500 0.250000
vt 0.250000 0.250000
vt 0.312500 0.250000
vt 0.375000 0.250000
vt 0.437500 0.250000
vt 0.500000 0.250000
vt 0.562500 0.250000
vt 0.625000 0.250000
vt 0.687500 0.250000
vt 0.750000 0.250000
vt 0.812500 0.250000
vt 0.875000 0.250000
vt 0.125000 0.312500
vt 0.187500 0.312500
vt 0.250000 0.312500
vt 0.312500 0.312500
vt 0.375000 0.312500
vt 0.437500 0.312500
vt 0.500000 0.312500
vt 0.562500 0.312500
vt 0.625000 0.312500
vt 0.687500 0.312500
vt 0.750000 0.312500
vt 0.812500 0.312500
vt 0.875000 0.312500
vt 0.125000 0.375000
vt 0.187500 0.375000
vt 0.250000 0.375000
vt 0.312500 0.375000
vt 0.375000 0.375000
vt 0.437500 0.375000
vt 0.500000 0.375000
vt 0.562500 0.375000
vt 0.625000 0.375000
vt 0.687500 0.375000
vt 0.750000 0.375000
vt 0.812500 0.375000
vt 0.875000 0.375000
vt 0.125000 0.437500
vt 0.187500 0.437500
vt 0.250000 0.437500
vt 0.312500 0.437500
vt 0.375000 0.437500
vt 0.437500 0.437500
vt 0.500000 0.437500
vt 0.562500 0.437500
vt 0.625000 0.437500
vt 0.687500 0.437500
vt 0.750000 0.437500
vt 0.812500 0.437500
vt 0.875000 0.437500
vt 0.125000 0.500000
vt 0.187500 0.500000
vt 0.250000 0.500000
vt 0.312500 0.500000
vt 0.375000 0.500000
vt 0.437500 0.500000
vt 0.500000 0.500000
vt 0.562500 0.500000
vt 0.625000 0.500000
vt 0.687500 0.500000
vt 0.750000 0.500000
vt 0.812500 0.500000
vt 0.875000 0.500000
vt 0.375000 0.562500
vt 0.437500 0.562500
vt 0.500000 0.562500
vt 0.562500 0.562500
vt 0.625000 0.562500
vt 0.375000 0.625000
vt 0.437500 0.625000
vt 0.500000 0.625000
vt 0.562500 0.625000
vt 0.625000 0.625000
vt 0.375000 0.687500
vt 0.437500 0.687500
vt 0.500000 0.687500
vt 0.562500 0.687500
vt 0.625000 0.687500
vt 0.375000 0.750000
vt 0.437500 0.750000
vt 0.500000 0.750000
vt 0.562500 0.750000
vt 0.625000 0.750000
vt 0.375000 0.812500
vt 0.437500 0.812500
vt 0.500000 0.812500
vt 0.562500 0.812500
vt 0.625000 0.812500
vt 0.375000 0.875000
vt 0.437500 0.875000
vt 0.500000 0.875000
vt 0.562500 0.875000
vt 0.625000 0.875000
vt 0.375000 0.937500
vt 0.437500 0.937500
vt 0.500000 0.937500
vt 0.562500 0.937500
vt 0.625000 0.937500
vt 0.375000 1.000000
vt 0.437500 1.000000
vt 0.500000 1.000000
vt 0.562500 1.000000
vt 0.625000 1.000000

vn -0.577350 -0.577350 -0.577350
vn -0.333333 -0.666666 -0.666666
vn 0.0 -0.707106 -0.707106
vn 0.333333 -0.666666 -0.666666
vn 0.577350 -0.577350 -0.577350
vn -0.666666 -0.333333 -0.666666
vn -0.408248 -0.408248 -0.816496
vn 0.0 -0.447213 -0.894427
vn 0.408248 -0.408248 -0.816496
vn 0.666666 -0.333333 -0.666666
vn -0.707106 0.0 -0.707106
vn -0.447213 0.0 -0.894427
vn 0.0 0.0 -0.999999
vn 0.447213 0.0 -0.894427
vn 0.707106 0.0 -0.707106
vn -0.666666 0.333333 -0.666666
vn -0.408248 0.408248 -0.816496
vn 0.0 0.447213 -0.894427
vn 0.408248 0.408248 -0.816496
vn 0.666666 0.333333 -0.666666
vn -0.577350 0.577350 -0.577350
vn -0.333333 0.666666 -0.666666
vn 0.0 0.707106 -0.707106
vn 0.333333 0.666666 -0.666666
vn 0.577350 0.577350 -0.577350
vn -0.666666 -0.666666 -0.333333
vn -0.408248 -0.816496 -0.408248
vn 0.0 -0.894427 -0.447213
vn 0.408248 -0.816496 -0.408248
vn 0.666666 -0.666666 -0.333333
vn -0.816496 -0.408248 -0.408248
vn 0.816496 -0.408248 -0.408248
vn -0.894427 0.0 -0.447213
vn 0.894427 0.0 -0.447213
vn -0.816496 0.408248 -0.408248
vn 0.816496 0.408248 -0.408248
vn -0.666666 0.666666 -0.333333
vn -0.408248 0.816496 -0.408248
vn 0.0 0.894427 -0.447213
vn 0.408248 0.816496 -0.408248
vn 0.666666 0.666666 -0.333333
vn -0.707106 -0.707106 0.0
vn -0.447213 -0.894427 0.0
vn 0.0 -0.999999 0.0
vn 0.447213 -0.894427 0.0
vn 0.707106 -0.707106 0.0
vn -0.894427 -0.447213 0.0
vn 0.894427 -0.447213 0.0
vn -0.999999 0.0 0.0
vn 0.999999 0.0 0.0
vn -0.894427 0.447213 0.0
vn 0.894427 0.447213 0.0
vn -0.707106 0.707106 0.0
vn -0.447213 0.894427 0.0
vn 0.0 0.999999 0.0
vn 0.447213 0.894427 0.0
vn 0.707106 0.707106 0.0
vn -0.666666 -0.666666 0.333333
vn -0.408248 -0.816496 0.408248
vn 0.0 -0.894427 0.447213
vn 0.408248 -0.816496 0.408248
vn 0.666666 -0.666666 0.333333
vn -0.816496 -0.408248 0.408248
vn 0.816496 -0.408248 0.408248
vn -0.894427 0.0 0.447213
vn 0.894427 0.0 0.447213
vn -0.816496 0.408248 0.408248
vn 0.816496 0.408248 0.408248
vn -0.666666 0.666666 0.333333
vn -0.408248 0.816496 0.408248
vn 0.0 0.894427 0.447213
vn 0.408248 0.816496 0.408248
vn 0.666666 0.666666 0.333333
vn -0.577350 -0.577350 0.577350
vn -0.333333 -0.666666 0.666666
vn 0.0 -0.707106 0.707106
vn 0.333333 -0.666666 0.666666
vn 0.577350 -0.577350 0.577350
vn -0.666666 -0.333333 0.666666
vn -0.408248 -0.408248 0.816496
vn 0.0 -0.447213 0.894427
vn 0.408248 -0.408248 0.816496
vn 0.666666 -0.333333 0.666666
vn -0.707106 0.0 0.707106
vn -0.447213 0.0 0.894427
vn 0.0 0.0 0.999999
vn 0.447213 0.0 0.894427
vn 0.707106 0.0 0.707106
vn -0.666666 0.333333 0.666666
vn -0.408248 0.408248 0.816496
vn 0.0 0.447213 0.894427
vn 0.408248 0.408248 0.816496
vn 0.666666 0.333333 0.666666
vn -0.577350 0.577350 0.577350
vn -0.333333 0.666666 0.666666
vn 0.0 0.707106 0.707106
vn 0.333333 0.666666 0.666666
vn 0.577350 0.577350 0.577350

f 7/35/7 2/22/2 1/21/1 6/34/6 
f 7/35/7 8/36/8 3/23/3 2/22/2 
f 9/37/9 4/24/4 3/23/3 8/36/8 
f 9/37/9 10/38/10 5/25/5 4/24/4 
f 7/35/7 6/34/6 11/47/11 12/48/12 
f 7/35/7 12/48/12 13/49/13 8/36/8 
f 9/37/9 8/36/8 13/49/13 14/50/14 
f 9/37/9 14/50/14 15/51/15 10/38/10 
f 17/61/17 12/48/12 11/47/11 16/60/16 
f 17/61/17 18/62/18 13/49/13 12/48/12 
f 19/63/19 14/50/14 13/49/13 18/62/18 
f 19/63/19 20/64/20 15/51/15 14/50/14 
f 17/61/17 16/60/16 21/73/21 22/74/22 
f 17/61/17 22/74/22 23/75/23 18/62/18 
f 19/63/19 18/62/18 23/75/23 24/76/24 
f 19/63/19 24/76/24 25/77/25 20/64/20 
f 27/7/27 26/2/26 1/1/1 2/6/2 
f 27/7/27 2/6/2 3/11/3 28/12/28 
f 29/17/29 28/12/28 3/11/3 4/16/4 
f 29/17/29 4/16/4 5/25/5 30/26/30 
f 31/117/31 6/116/6 1/121/1 26/122/26 
f 32/39/32 30/26/30 5/25/5 10/38/10 
f 31/117/31 33/112/33 11/111/11 6/116/6 
f 32/39/32 10/38/10 15/51/15 34/52/34 
f 35/107/35 16/106/16 11/111/11 33/112/33 
f 36/65/36 34/52/34 15/51/15 20/64/20 
f 35/107/35 37/102/37 21/101/21 16/106/16 
f 36/65/36 20/64/20 25/77/25 41/78/41 
f 38/97/38 22/96/22 21/101/21 37/102/37 
f 38/97/38 39/92/39 23/91/23 22/96/22 
f 40/87/40 24/86/24 23/91/23 39/92/39 
f 40/87/40 41/78/41 25/77/25 24/86/24 
f 27/7/27 43/8/43 42/3/42 26/2/26 
f 27/7/27 28/12/28 44/13/44 43/8/43 
f 29/17/29 45/18/45 44/13/44 28/12/28 
f 29/17/29 30/26/30 46/27/46 45/18/45 
f 31/117/31 26/122/26 42/123/42 47/118/47 
f 32/39/32 48/40/48 46/27/46 30/26/30 
f 31/117/31 47/118/47 49/113/49 33/112/33 
f 32/39/32 34/52/34 50/53/50 48/40/48 
f 35/107/35 33/112/33 49/113/49 51/108/51 
f 36/65/36 52/66/52 50/53/50 34/52/34 
f 35/107/35 51/108/51 53/103/53 37/102/37 
f 36/65/36 41/78/41 57/79/57 52/66/52 
f 38/97/38 37/102/37 53/103/53 54/98/54 
f 38/97/38 54/98/54 55/93/55 39/92/39 
f 40/87/40 39/92/39 55/93/55 56/88/56 
f 40/87/40 56/88/56 57/79/57 41/78/41 
f 59/9/59 58/4/58 42/3/42 43/8/43 
f 59/9/59 43/8/43 44/13/44 60/14/60 
f 61/19/61 60/14/60 44/13/44 45/18/45 
f 61/19/61 45/18/45 46/27/46 62/28/62 
f 63/119/63 47/118/47 42/123/42 58/124/58 
f 64/41/64 62/28/62 46/27/46 48/40/48 
f 63/119/63 65/114/65 49/113/49 47/118/47 
f 64/41/64 48/40/48 50/53/50 66/54/66 
f 67/109/67 51/108/51 49/113/49 65/114/65 
f 68/67/68 66/54/66 50/53/50 52/66/52 
f 67/109/67 69/104/69 53/103/53 51/108/51 
f 68/67/68 52/66/52 57/79/57 73/80/73 
f 70/99/70 54/98/54 53/103/53 69/104/69 
f 70/99/70 71/94/71 55/93/55 54/98/54 
f 72/89/72 56/88/56 55/93/55 71/94/71 
f 72/89/72 73/80/73 57/79/57 56/88/56 
f 59/9/59 75/10/75 74/5/74 58/4/58 
f 59/9/59 60/14/60 76/15/76 75/10/75 
f 61/19/61 77/20/77 76/15/76 60/14/60 
f 61/19/61 62/28/62 78/29/78 77/20/77 
f 63/119/63 58/124/58 74/125/74 79/120/79 
f 64/41/64 83/42/83 78/29/78 62/28/62 
f 63/119/63 79/120/79 84/115/84 65/114/65 
f 64/41/64 66/54/66 88/55/88 83/42/83 
f 67/109/67 65/114/65 84/115/84 89/110/89 
f 68/67/68 93/68/93 88/55/88 66/54/66 
f 67/109/67 89/110/89 94/105/94 69/104/69 
f 68/67/68 73/80/73 98/81/98 93/68/93 
f 70/99/70 69/104/69 94/105/94 95/100/95 
f 70/99/70 95/100/95 96/95/96 71/94/71 
f 72/89/72 71/94/71 96/95/96 97/90/97 
f 72/89/72 97/90/97 98/81/98 73/80/73 
f 80/45/80 79/46/79 74/33/74 75/32/75 
f 80/45/80 75/32/75 76/31/76 81/44/81 
f 82/43/82 81/44/81 76/31/76 77/30/77 
f 82/43/82 77/30/77 78/29/78 83/42/83 
f 80/45/80 85/58/85 84/59/84 79/46/79 
f 80/45/80 81/44/81 86/57/86 85/58/85 
f 82/43/82 87/56/87 86/57/86 81/44/81 
f 82/43/82 83/42/83 88/55/88 87/56/87 
f 90/71/90 89/72/89 84/59/84 85/58/85 
f 90/71/90 85/58/85 86/57/86 91/70/91 
f 92/69/92 91/70/91 86/57/86 87/56/87 
f 92/69/92 87/56/87 88/55/88 93/68/93 
f 90/71/90 95/84/95 94/85/94 89/72/89 
f 90/71/90 91/70/91 96/83/96 95/84/95 
f 92/69/92 97/82/97 96/83/96 91/70/91 
f 92/69/92 93/68/93 98/81/98 97/82/97 

