<svg xmlns="http://www.w3.org/2000/svg" xmlns:xlink="http://www.w3.org/1999/xlink" width="720" height="405" viewBox="0 0 720 405">
<path id="background" d="M 0.0 0.0 L 720.0 0.0 L 720.0 405.0 L 0.0 405.0 Z" stroke="none" fill-opacity="1.000000" fill="#101010"></path>
<g id="camera" transform="translate(360.000000, 202.500000) scale(1.000000, -1.000000) rotate(0.0) translate(0.0, 0.0)">
<g id="4713754e" transform="translate(-150.466369, 52.097106) rotate(0.0) scale(10.000000, 10.000000)">
<g id="62e7f75" stroke="none" fill-opacity="1.000000" fill="#ff0000">
<path id="curve.0000" d="M 0.500000 0.0 C 0.500000 0.276142,0.276142 0.500000,0.0 0.500000 C -0.276142 0.500000,-0.500000 0.276142,-0.500000 0.0 C -0.500000 -0.276142,-0.276142 -0.500000,0.0 -0.500000 C 0.276142 -0.500000,0.500000 -0.276142,0.500000 0.0 Z"></path>
</g>
</g>

<g id="6b078906" transform="translate(-165.791076, 51.255840) rotate(0.0) scale(10.023708, 10.023708)">
<g id="13a190ec" stroke="none" fill-opacity="1.000000" fill="#ff0a00">
<path id="curve.0000" d="M 0.500000 0.0 C 0.500000 0.276142,0.276142 0.500000,0.0 0.500000 C -0.276142 0.500000,-0.500000 0.276142,-0.500000 0.0 C -0.500000 -0.276142,-0.276142 -0.500000,0.0 -0.500000 C 0.276142 -0.500000,0.500000 -0.276142,0.500000 0.0 Z"></path>
</g>
</g>

<g id="6601803a" transform="translate(-180.188827, 48.846813) rotate(0.0) scale(10.094684, 10.094684)">
<g id="171c8f1b" stroke="none" fill-opacity="1.000000" fill="#ff1300">
<path id="curve.0000" d="M 0.500000 0.0 C 0.500000 0.276142,0.276142 0.500000,0.0 0.500000 C -0.276142 0.500000,-0.500000 0.276142,-0.500000 0.0 C -0.500000 -0.276142,-0.276142 -0.500000,0.0 -0.500000 C 0.276142 -0.500000,0.500000 -0.276142,0.500000 0.0 Z"></path>
</g>
</g>

<g id="8a55be4" transform="translate(-194.030487, 44.962234) rotate(0.0) scale(10.212480, 10.212480)">
<g id="187e1fd4" stroke="none" fill-opacity="1.000000" fill="#ff1d00">
<path id="curve.0000" d="M 0.500000 0.0 C 0.500000 0.276142,0.276142 0.500000,0.0 0.500000 C -0.276142 0.500000,-0.500000 0.276142,-0.500000 0.0 C -0.500000 -0.276142,-0.276142 -0.500000,0.0 -0.500000 C 0.276142 -0.500000,0.500000 -0.276142,0.500000 0.0 Z"></path>
</g>
</g>

<g id="6be92f97" transform="translate(-207.175659, 39.696022) rotate(0.0) scale(10.376349, 10.376349)">
<g id="53b06b03" stroke="none" fill-opacity="1.000000" fill="#ff2700">
<path id="curve.0000" d="M 0.500000 0.0 C 0.500000 0.276142,0.276142 0.500000,0.0 0.500000 C -0.276142 0.500000,-0.500000 0.276142,-0.500000 0.0 C -0.500000 -0.276142,-0.276142 -0.500000,0.0 -0.500000 C 0.276142 -0.500000,0.500000 -0.276142,0.500000 0.0 Z"></path>
</g>
</g>

<g id="3bd85e1e" transform="translate(-219.485458, 33.141342) rotate(0.0) scale(10.585255, 10.585255)">
<g id="598579b6" stroke="none" fill-opacity="1.000000" fill="#ff3000">
<path id="curve.0000" d="M 0.500000 0.0 C 0.500000 0.276142,0.276142 0.500000,0.0 0.500000 C -0.276142 0.500000,-0.500000 0.276142,-0.500000 0.0 C -0.500000 -0.276142,-0.276142 -0.500000,0.0 -0.500000 C 0.276142 -0.500000,0.500000 -0.276142,0.500000 0.0 Z"></path>
</g>
</g>

<g id="9bdf9f6" transform="translate(-230.818954, 25.392416) rotate(0.0) scale(10.837880, 10.837880)">
<g id="133ba76a" stroke="none" fill-opacity="1.000000" fill="#ff3a00">
<path id="curve.0000" d="M 0.500000 0.0 C 0.500000 0.276142,0.276142 0.500000,0.0 0.500000 C -0.276142 0.500000,-0.500000 0.276142,-0.500000 0.0 C -0.500000 -0.276142,-0.276142 -0.500000,0.0 -0.500000 C 0.276142 -0.500000,0.500000 -0.276142,0.500000 0.0 Z"></path>
</g>
</g>

<g id="61812472" transform="translate(-241.037170, 16.542201) rotate(0.0) scale(11.132625, 11.132625)">
<g id="1419ea98" stroke="none" fill-opacity="1.000000" fill="#ff4400">
<path id="curve.0000" d="M 0.500000 0.0 C 0.500000 0.276142,0.276142 0.500000,0.0 0.500000 C -0.276142 0.500000,-0.500000 0.276142,-0.500000 0.0 C -0.500000 -0.276142,-0.276142 -0.500000,0.0 -0.500000 C 0.276142 -0.500000,0.500000 -0.276142,0.500000 0.0 Z"></path>
</g>
</g>

<g id="5ad71f86" transform="translate(-249.999664, 6.684679) rotate(0.0) scale(11.467624, 11.467624)">
<g id="1d38f55f" stroke="none" fill-opacity="1.000000" fill="#ff4d00">
<path id="curve.0000" d="M 0.500000 0.0 C 0.500000 0.276142,0.276142 0.500000,0.0 0.500000 C -0.276142 0.500000,-0.500000 0.276142,-0.500000 0.0 C -0.500000 -0.276142,-0.276142 -0.500000,0.0 -0.500000 C 0.276142 -0.500000,0.500000 -0.276142,0.500000 0.0 Z"></path>
</g>
</g>

<g id="46ae814a" transform="translate(-257.566284, -4.086092) rotate(0.0) scale(11.840764, 11.840764)">
<g id="7e304672" stroke="none" fill-opacity="1.000000" fill="#ff5700">
<path id="curve.0000" d="M 0.500000 0.0 C 0.500000 0.276142,0.276142 0.500000,0.0 0.500000 C -0.276142 0.500000,-0.500000 0.276142,-0.500000 0.0 C -0.500000 -0.276142,-0.276142 -0.500000,0.0 -0.500000 C 0.276142 -0.500000,0.500000 -0.276142,0.500000 0.0 Z"></path>
</g>
</g>

<g id="24f8c6e6" transform="translate(-263.597625, -15.677321) rotate(0.0) scale(12.249684, 12.249684)">
<g id="ef80624" stroke="none" fill-opacity="1.000000" fill="#ff6100">
<path id="curve.0000" d="M 0.500000 0.0 C 0.500000 0.276142,0.276142 0.500000,0.0 0.500000 C -0.276142 0.500000,-0.500000 0.276142,-0.500000 0.0 C -0.500000 -0.276142,-0.276142 -0.500000,0.0 -0.500000 C 0.276142 -0.500000,0.500000 -0.276142,0.500000 0.0 Z"></path>
</g>
</g>

<g id="7287c25f" transform="translate(-267.953338, -27.994424) rotate(0.0) scale(12.691798, 12.691798)">
<g id="7398114f" stroke="none" fill-opacity="1.000000" fill="#ff6b00">
<path id="curve.0000" d="M 0.500000 0.0 C 0.500000 0.276142,0.276142 0.500000,0.0 0.500000 C -0.276142 0.500000,-0.500000 0.276142,-0.500000 0.0 C -0.500000 -0.276142,-0.276142 -0.500000,0.0 -0.500000 C 0.276142 -0.500000,0.500000 -0.276142,0.500000 0.0 Z"></path>
</g>
</g>

<g id="3d1ff03e" transform="translate(-270.493804, -40.944786) rotate(0.0) scale(13.164310, 13.164310)">
<g id="368359d2" stroke="none" fill-opacity="1.000000" fill="#ff7400">
<path id="curve.0000" d="M 0.500000 0.0 C 0.500000 0.276142,0.276142 0.500000,0.0 0.500000 C -0.276142 0.500000,-0.500000 0.276142,-0.500000 0.0 C -0.500000 -0.276142,-0.276142 -0.500000,0.0 -0.500000 C 0.276142 -0.500000,0.500000 -0.276142,0.500000 0.0 Z"></path>
</g>
</g>

<g id="5222424" transform="translate(-271.078918, -54.434268) rotate(0.0) scale(13.664234, 13.664234)">
<g id="43cbb31" stroke="none" fill-opacity="1.000000" fill="#ff7e00">
<path id="curve.0000" d="M 0.500000 0.0 C 0.500000 0.276142,0.276142 0.500000,0.0 0.500000 C -0.276142 0.500000,-0.500000 0.276142,-0.500000 0.0 C -0.500000 -0.276142,-0.276142 -0.500000,0.0 -0.500000 C 0.276142 -0.500000,0.500000 -0.276142,0.500000 0.0 Z"></path>
</g>
</g>

<g id="285d2fad" transform="translate(-269.568878, -68.368637) rotate(0.0) scale(14.188409, 14.188409)">
<g id="e534bfb" stroke="none" fill-opacity="1.000000" fill="#ff8800">
<path id="curve.0000" d="M 0.500000 0.0 C 0.500000 0.276142,0.276142 0.500000,0.0 0.500000 C -0.276142 0.500000,-0.500000 0.276142,-0.500000 0.0 C -0.500000 -0.276142,-0.276142 -0.500000,0.0 -0.500000 C 0.276142 -0.500000,0.500000 -0.276142,0.500000 0.0 Z"></path>
</g>
</g>

<g id="6fd78c33" transform="translate(-265.848083, -82.576866) rotate(0.0) scale(14.733522, 14.733522)">
<g id="43fdc87e" stroke="none" fill-opacity="1.000000" fill="#ff9100">
<path id="curve.0000" d="M 0.500000 0.0 C 0.500000 0.276142,0.276142 0.500000,0.0 0.500000 C -0.276142 0.500000,-0.500000 0.276142,-0.500000 0.0 C -0.500000 -0.276142,-0.276142 -0.500000,0.0 -0.500000 C 0.276142 -0.500000,0.500000 -0.276142,0.500000 0.0 Z"></path>
</g>
</g>

<g id="57e54f69" transform="translate(-260.256683, -95.728912) rotate(0.0) scale(15.296122, 15.296122)">
<g id="1d1e0eff" stroke="none" fill-opacity="1.000000" fill="#ff9b00">
<path id="curve.0000" d="M 0.500000 0.0 C 0.500000 0.276142,0.276142 0.500000,0.0 0.500000 C -0.276142 0.500000,-0.500000 0.276142,-0.500000 0.0 C -0.500000 -0.276142,-0.276142 -0.500000,0.0 -0.500000 C 0.276142 -0.500000,0.500000 -0.276142,0.500000 0.0 Z"></path>
</g>
</g>

<g id="308d9b1a" transform="translate(-253.074234, -107.376045) rotate(0.0) scale(15.872658, 15.872658)">
<g id="4ed0c70d" stroke="none" fill-opacity="1.000000" fill="#ffa500">
<path id="curve.0000" d="M 0.500000 0.0 C 0.500000 0.276142,0.276142 0.500000,0.0 0.500000 C -0.276142 0.500000,-0.500000 0.276142,-0.500000 0.0 C -0.500000 -0.276142,-0.276142 -0.500000,0.0 -0.500000 C 0.276142 -0.500000,0.500000 -0.276142,0.500000 0.0 Z"></path>
</g>
</g>

<g id="23d441de" transform="translate(-244.469268, -117.514472) rotate(0.0) scale(16.459484, 16.459484)">
<g id="422d3547" stroke="none" fill-opacity="1.000000" fill="#ffae00">
<path id="curve.0000" d="M 0.500000 0.0 C 0.500000 0.276142,0.276142 0.500000,0.0 0.500000 C -0.276142 0.500000,-0.500000 0.276142,-0.500000 0.0 C -0.500000 -0.276142,-0.276142 -0.500000,0.0 -0.500000 C 0.276142 -0.500000,0.500000 -0.276142,0.500000 0.0 Z"></path>
</g>
</g>

<g id="a8d7aa0" transform="translate(-234.610565, -126.140670) rotate(0.0) scale(17.052886, 17.052886)">
<g id="1ec1f0e2" stroke="none" fill-opacity="1.000000" fill="#ffb800">
<path id="curve.0000" d="M 0.500000 0.0 C 0.500000 0.276142,0.276142 0.500000,0.0 0.500000 C -0.276142 0.500000,-0.500000 0.276142,-0.500000 0.0 C -0.500000 -0.276142,-0.276142 -0.500000,0.0 -0.500000 C 0.276142 -0.500000,0.500000 -0.276142,0.500000 0.0 Z"></path>
</g>
</g>

<g id="356d6970" transform="translate(-223.665649, -133.252136) rotate(0.0) scale(17.649114, 17.649114)">
<g id="6f3d75f3" stroke="none" fill-opacity="1.000000" fill="#ffc200">
<path id="curve.0000" d="M 0.500000 0.0 C 0.500000 0.276142,0.276142 0.500000,0.0 0.500000 C -0.276142 0.500000,-0.500000 0.276142,-0.500000 0.0 C -0.500000 -0.276142,-0.276142 -0.500000,0.0 -0.500000 C 0.276142 -0.500000,0.500000 -0.276142,0.500000 0.0 Z"></path>
</g>
</g>

<g id="7eeade16" transform="translate(-211.803741, -138.845046) rotate(0.0) scale(18.244403, 18.244403)">
<g id="56d8d332" stroke="none" fill-opacity="1.000000" fill="#ffcb00">
<path id="curve.0000" d="M 0.500000 0.0 C 0.500000 0.276142,0.276142 0.500000,0.0 0.500000 C -0.276142 0.500000,-0.500000 0.276142,-0.500000 0.0 C -0.500000 -0.276142,-0.276142 -0.500000,0.0 -0.500000 C 0.276142 -0.500000,0.500000 -0.276142,0.500000 0.0 Z"></path>
</g>
</g>

<g id="52cea6f7" transform="translate(-199.192184, -142.916702) rotate(0.0) scale(18.834983, 18.834983)">
<g id="4aac3955" stroke="none" fill-opacity="1.000000" fill="#ffd500">
<path id="curve.0000" d="M 0.500000 0.0 C 0.500000 0.276142,0.276142 0.500000,0.0 0.500000 C -0.276142 0.500000,-0.500000 0.276142,-0.500000 0.0 C -0.500000 -0.276142,-0.276142 -0.500000,0.0 -0.500000 C 0.276142 -0.500000,0.500000 -0.276142,0.500000 0.0 Z"></path>
</g>
</g>

<g id="5a7d2271" transform="translate(-185.999816, -145.463607) rotate(0.0) scale(19.417125, 19.417125)">
<g id="618593dd" stroke="none" fill-opacity="1.000000" fill="#ffdf00">
<path id="curve.0000" d="M 0.500000 0.0 C 0.500000 0.276142,0.276142 0.500000,0.0 0.500000 C -0.276142 0.500000,-0.500000 0.276142,-0.500000 0.0 C -0.500000 -0.276142,-0.276142 -0.500000,0.0 -0.500000 C 0.276142 -0.500000,0.500000 -0.276142,0.500000 0.0 Z"></path>
</g>
</g>

<g id="4a486829" transform="translate(-172.395584, -146.482528) rotate(0.0) scale(19.987144, 19.987144)">
<g id="1a239928" stroke="none" fill-opacity="1.000000" fill="#ffe800">
<path id="curve.0000" d="M 0.500000 0.0 C 0.500000 0.276142,0.276142 0.500000,0.0 0.500000 C -0.276142 0.500000,-0.500000 0.276142,-0.500000 0.0 C -0.500000 -0.276142,-0.276142 -0.500000,0.0 -0.500000 C 0.276142 -0.500000,0.500000 -0.276142,0.500000 0.0 Z"></path>
</g>
</g>

<g id="5775eaca" transform="translate(-158.546661, -145.970367) rotate(0.0) scale(20.541440, 20.541440)">
<g id="a198725" stroke="none" fill-opacity="1.000000" fill="#fff200">
<path id="curve.0000" d="M 0.500000 0.0 C 0.500000 0.276142,0.276142 0.500000,0.0 0.500000 C -0.276142 0.500000,-0.500000 0.276142,-0.500000 0.0 C -0.500000 -0.276142,-0.276142 -0.500000,0.0 -0.500000 C 0.276142 -0.500000,0.500000 -0.276142,0.500000 0.0 Z"></path>
</g>
</g>

<g id="c75a597" transform="translate(-144.622512, -143.923950) rotate(0.0) scale(21.076507, 21.076507)">
<g id="4e2be70" stroke="none" fill-opacity="1.000000" fill="#fffc00">
<path id="curve.0000" d="M 0.500000 0.0 C 0.500000 0.276142,0.276142 0.500000,0.0 0.500000 C -0.276142 0.500000,-0.500000 0.276142,-0.500000 0.0 C -0.500000 -0.276142,-0.276142 -0.500000,0.0 -0.500000 C 0.276142 -0.500000,0.500000 -0.276142,0.500000 0.0 Z"></path>
</g>
</g>

<g id="42842166" transform="translate(-130.790374, -140.339889) rotate(0.0) scale(21.588964, 21.588964)">
<g id="66bcc1cf" stroke="none" fill-opacity="1.000000" fill="#f2fb03">
<path id="curve.0000" d="M 0.500000 0.0 C 0.500000 0.276142,0.276142 0.500000,0.0 0.500000 C -0.276142 0.500000,-0.500000 0.276142,-0.500000 0.0 C -0.500000 -0.276142,-0.276142 -0.500000,0.0 -0.500000 C 0.276142 -0.500000,0.500000 -0.276142,0.500000 0.0 Z"></path>
</g>
</g>

<g id="773ce256" transform="translate(-117.219116, -135.215026) rotate(0.0) scale(22.075563, 22.075563)">
<g id="14416c6d" stroke="none" fill-opacity="1.000000" fill="#dff407">
<path id="curve.0000" d="M 0.500000 0.0 C 0.500000 0.276142,0.276142 0.500000,0.0 0.500000 C -0.276142 0.500000,-0.500000 0.276142,-0.500000 0.0 C -0.500000 -0.276142,-0.276142 -0.500000,0.0 -0.500000 C 0.276142 -0.500000,0.500000 -0.276142,0.500000 0.0 Z"></path>
</g>
</g>

<g id="14737593" transform="translate(-104.077659, -128.546478) rotate(0.0) scale(22.533239, 22.533239)">
<g id="139c1f04" stroke="none" fill-opacity="1.000000" fill="#ccee0b">
<path id="curve.0000" d="M 0.500000 0.0 C 0.500000 0.276142,0.276142 0.500000,0.0 0.500000 C -0.276142 0.500000,-0.500000 0.276142,-0.500000 0.0 C -0.500000 -0.276142,-0.276142 -0.500000,0.0 -0.500000 C 0.276142 -0.500000,0.500000 -0.276142,0.500000 0.0 Z"></path>
</g>
</g>

<g id="c212b1e" transform="translate(-87.850326, -117.692070) rotate(0.0) scale(22.959091, 22.959091)">
<g id="6f08de50" stroke="none" fill-opacity="1.000000" fill="#b9e70e">
<path id="curve.0000" d="M 0.500000 0.0 C 0.500000 0.276142,0.276142 0.500000,0.0 0.500000 C -0.276142 0.500000,-0.500000 0.276142,-0.500000 0.0 C -0.500000 -0.276142,-0.276142 -0.500000,0.0 -0.500000 C 0.276142 -0.500000,0.500000 -0.276142,0.500000 0.0 Z"></path>
</g>
</g>

<g id="1c1f988a" transform="translate(-71.416954, -103.576454) rotate(0.0) scale(23.350429, 23.350429)">
<g id="12deb43c" stroke="none" fill-opacity="1.000000" fill="#a6e112">
<path id="curve.0000" d="M 0.500000 0.0 C 0.500000 0.276142,0.276142 0.500000,0.0 0.500000 C -0.276142 0.500000,-0.500000 0.276142,-0.500000 0.0 C -0.500000 -0.276142,-0.276142 -0.500000,0.0 -0.500000 C 0.276142 -0.500000,0.500000 -0.276142,0.500000 0.0 Z"></path>
</g>
</g>

<g id="3b8d0269" transform="translate(-56.553234, -87.708496) rotate(0.0) scale(23.704780, 23.704780)">
<g id="5b9b79b9" stroke="none" fill-opacity="1.000000" fill="#93da16">
<path id="curve.0000" d="M 0.500000 0.0 C 0.500000 0.276142,0.276142 0.500000,0.0 0.500000 C -0.276142 0.500000,-0.500000 0.276142,-0.500000 0.0 C -0.500000 -0.276142,-0.276142 -0.500000,0.0 -0.500000 C 0.276142 -0.500000,0.500000 -0.276142,0.500000 0.0 Z"></path>
</g>
</g>

<g id="3c8349a2" transform="translate(-42.981788, -70.398925) rotate(0.0) scale(24.019901, 24.019901)">
<g id="421d564" stroke="none" fill-opacity="1.000000" fill="#7fd31a">
<path id="curve.0000" d="M 0.500000 0.0 C 0.500000 0.276142,0.276142 0.500000,0.0 0.500000 C -0.276142 0.500000,-0.500000 0.276142,-0.500000 0.0 C -0.500000 -0.276142,-0.276142 -0.500000,0.0 -0.500000 C 0.276142 -0.500000,0.500000 -0.276142,0.500000 0.0 Z"></path>
</g>
</g>

<g id="47732e8" transform="translate(-30.425069, -51.958793) rotate(0.0) scale(24.293804, 24.293804)">
<g id="399aadcd" stroke="none" fill-opacity="1.000000" fill="#6ccd1e">
<path id="curve.0000" d="M 0.500000 0.0 C 0.500000 0.276142,0.276142 0.500000,0.0 0.500000 C -0.276142 0.500000,-0.500000 0.276142,-0.500000 0.0 C -0.500000 -0.276142,-0.276142 -0.500000,0.0 -0.500000 C 0.276142 -0.500000,0.500000 -0.276142,0.500000 0.0 Z"></path>
</g>
</g>

<g id="331ad56f" transform="translate(-18.603939, -32.696716) rotate(0.0) scale(24.524751, 24.524751)">
<g id="512b2e8e" stroke="none" fill-opacity="1.000000" fill="#58c622">
<path id="curve.0000" d="M 0.500000 0.0 C 0.500000 0.276142,0.276142 0.500000,0.0 0.500000 C -0.276142 0.500000,-0.500000 0.276142,-0.500000 0.0 C -0.500000 -0.276142,-0.276142 -0.500000,0.0 -0.500000 C 0.276142 -0.500000,0.500000 -0.276142,0.500000 0.0 Z"></path>
</g>
</g>

<g id="3d3305a3" transform="translate(-7.241333, -12.924497) rotate(0.0) scale(24.711288, 24.711288)">
<g id="6c98bfac" stroke="none" fill-opacity="1.000000" fill="#45c026">
<path id="curve.0000" d="M 0.500000 0.0 C 0.500000 0.276142,0.276142 0.500000,0.0 0.500000 C -0.276142 0.500000,-0.500000 0.276142,-0.500000 0.0 C -0.500000 -0.276142,-0.276142 -0.500000,0.0 -0.500000 C 0.276142 -0.500000,0.500000 -0.276142,0.500000 0.0 Z"></path>
</g>
</g>

<g id="644fb3ef" transform="translate(3.941767, 7.049317) rotate(0.0) scale(24.852230, 24.852230)">
<g id="21851307" stroke="none" fill-opacity="1.000000" fill="#31b92a">
<path id="curve.0000" d="M 0.500000 0.0 C 0.500000 0.276142,0.276142 0.500000,0.0 0.500000 C -0.276142 0.500000,-0.500000 0.276142,-0.500000 0.0 C -0.500000 -0.276142,-0.276142 -0.500000,0.0 -0.500000 C 0.276142 -0.500000,0.500000 -0.276142,0.500000 0.0 Z"></path>
</g>
</g>

<g id="849bd44" transform="translate(15.222966, 26.913715) rotate(0.0) scale(24.946689, 24.946689)">
<g id="75764bfd" stroke="none" fill-opacity="1.000000" fill="#1db32d">
<path id="curve.0000" d="M 0.500000 0.0 C 0.500000 0.276142,0.276142 0.500000,0.0 0.500000 C -0.276142 0.500000,-0.500000 0.276142,-0.500000 0.0 C -0.500000 -0.276142,-0.276142 -0.500000,0.0 -0.500000 C 0.276142 -0.500000,0.500000 -0.276142,0.500000 0.0 Z"></path>
</g>
</g>

<g id="7ce2737f" transform="translate(26.879837, 46.357669) rotate(0.0) scale(24.994071, 24.994071)">
<g id="2dab919c" stroke="none" fill-opacity="1.000000" fill="#0aac31">
<path id="curve.0000" d="M 0.500000 0.0 C 0.500000 0.276142,0.276142 0.500000,0.0 0.500000 C -0.276142 0.500000,-0.500000 0.276142,-0.500000 0.0 C -0.500000 -0.276142,-0.276142 -0.500000,0.0 -0.500000 C 0.276142 -0.500000,0.500000 -0.276142,0.500000 0.0 Z"></path>
</g>
</g>

<g id="6a451e77" transform="translate(39.191429, 65.072616) rotate(0.0) scale(24.994071, 24.994071)">
<g id="1edde6c9" stroke="none" fill-opacity="1.000000" fill="#02a637">
<path id="curve.0000" d="M 0.500000 0.0 C 0.500000 0.276142,0.276142 0.500000,0.0 0.500000 C -0.276142 0.500000,-0.500000 0.276142,-0.500000 0.0 C -0.500000 -0.276142,-0.276142 -0.500000,0.0 -0.500000 C 0.276142 -0.500000,0.500000 -0.276142,0.500000 0.0 Z"></path>
</g>
</g>

<g id="6f8ba3ff" transform="translate(52.434772, 82.746810) rotate(0.0) scale(24.946689, 24.946689)">
<g id="37385f02" stroke="none" fill-opacity="1.000000" fill="#05a13f">
<path id="curve.0000" d="M 0.500000 0.0 C 0.500000 0.276142,0.276142 0.500000,0.0 0.500000 C -0.276142 0.500000,-0.500000 0.276142,-0.500000 0.0 C -0.500000 -0.276142,-0.276142 -0.500000,0.0 -0.500000 C 0.276142 -0.500000,0.500000 -0.276142,0.500000 0.0 Z"></path>
</g>
</g>

<g id="46a20c82" transform="translate(66.889030, 99.071533) rotate(0.0) scale(24.852230, 24.852230)">
<g id="24dd0aeb" stroke="none" fill-opacity="1.000000" fill="#089b46">
<path id="curve.0000" d="M 0.500000 0.0 C 0.500000 0.276142,0.276142 0.500000,0.0 0.500000 C -0.276142 0.500000,-0.500000 0.276142,-0.500000 0.0 C -0.500000 -0.276142,-0.276142 -0.500000,0.0 -0.500000 C 0.276142 -0.500000,0.500000 -0.276142,0.500000 0.0 Z"></path>
</g>
</g>

<g id="5168913d" transform="translate(82.831779, 113.735824) rotate(0.0) scale(24.711286, 24.711286)">
<g id="557141d8" stroke="none" fill-opacity="1.000000" fill="#0b954e">
<path id="curve.0000" d="M 0.500000 0.0 C 0.500000 0.276142,0.276142 0.500000,0.0 0.500000 C -0.276142 0.500000,-0.500000 0.276142,-0.500000 0.0 C -0.500000 -0.276142,-0.276142 -0.500000,0.0 -0.500000 C 0.276142 -0.500000,0.500000 -0.276142,0.500000 0.0 Z"></path>
</g>
</g>

<g id="19b793cf" transform="translate(100.313796, 126.287796) rotate(0.0) scale(24.524751, 24.524751)">
<g id="49f2cc8a" stroke="none" fill-opacity="1.000000" fill="#0e9056">
<path id="curve.0000" d="M 0.500000 0.0 C 0.500000 0.276142,0.276142 0.500000,0.0 0.500000 C -0.276142 0.500000,-0.500000 0.276142,-0.500000 0.0 C -0.500000 -0.276142,-0.276142 -0.500000,0.0 -0.500000 C 0.276142 -0.500000,0.500000 -0.276142,0.500000 0.0 Z"></path>
</g>
</g>

<g id="16523bed" transform="translate(113.297325, 133.411911) rotate(0.0) scale(24.293804, 24.293804)">
<g id="27cc8b25" stroke="none" fill-opacity="1.000000" fill="#128a5e">
<path id="curve.0000" d="M 0.500000 0.0 C 0.500000 0.276142,0.276142 0.500000,0.0 0.500000 C -0.276142 0.500000,-0.500000 0.276142,-0.500000 0.0 C -0.500000 -0.276142,-0.276142 -0.500000,0.0 -0.500000 C 0.276142 -0.500000,0.500000 -0.276142,0.500000 0.0 Z"></path>
</g>
</g>

<g id="788595ca" transform="translate(126.759109, 138.990844) rotate(0.0) scale(24.019901, 24.019901)">
<g id="3b4d3e75" stroke="none" fill-opacity="1.000000" fill="#158465">
<path id="curve.0000" d="M 0.500000 0.0 C 0.500000 0.276142,0.276142 0.500000,0.0 0.500000 C -0.276142 0.500000,-0.500000 0.276142,-0.500000 0.0 C -0.500000 -0.276142,-0.276142 -0.500000,0.0 -0.500000 C 0.276142 -0.500000,0.500000 -0.276142,0.500000 0.0 Z"></path>
</g>
</g>

<g id="781b1f9a" transform="translate(140.531906, 143.028335) rotate(0.0) scale(23.704780, 23.704780)">
<g id="294db31a" stroke="none" fill-opacity="1.000000" fill="#187f6d">
<path id="curve.0000" d="M 0.500000 0.0 C 0.500000 0.276142,0.276142 0.500000,0.0 0.500000 C -0.276142 0.500000,-0.500000 0.276142,-0.500000 0.0 C -0.500000 -0.276142,-0.276142 -0.500000,0.0 -0.500000 C 0.276142 -0.500000,0.500000 -0.276142,0.500000 0.0 Z"></path>
</g>
</g>

<g id="7b219ed0" transform="translate(154.446853, 145.527282) rotate(0.0) scale(23.350429, 23.350429)">
<g id="50fd7c55" stroke="none" fill-opacity="1.000000" fill="#1b7a75">
<path id="curve.0000" d="M 0.500000 0.0 C 0.500000 0.276142,0.276142 0.500000,0.0 0.500000 C -0.276142 0.500000,-0.500000 0.276142,-0.500000 0.0 C -0.500000 -0.276142,-0.276142 -0.500000,0.0 -0.500000 C 0.276142 -0.500000,0.500000 -0.276142,0.500000 0.0 Z"></path>
</g>
</g>

<g id="146cc033" transform="translate(168.335006, 146.490905) rotate(0.0) scale(22.959089, 22.959089)">
<g id="d0b9f59" stroke="none" fill-opacity="1.000000" fill="#1e747d">
<path id="curve.0000" d="M 0.500000 0.0 C 0.500000 0.276142,0.276142 0.500000,0.0 0.500000 C -0.276142 0.500000,-0.500000 0.276142,-0.500000 0.0 C -0.500000 -0.276142,-0.276142 -0.500000,0.0 -0.500000 C 0.276142 -0.500000,0.500000 -0.276142,0.500000 0.0 Z"></path>
</g>
</g>

<g id="36af4579" transform="translate(182.029190, 145.922500) rotate(0.0) scale(22.533239, 22.533239)">
<g id="4724e2aa" stroke="none" fill-opacity="1.000000" fill="#216f84">
<path id="curve.0000" d="M 0.500000 0.0 C 0.500000 0.276142,0.276142 0.500000,0.0 0.500000 C -0.276142 0.500000,-0.500000 0.276142,-0.500000 0.0 C -0.500000 -0.276142,-0.276142 -0.500000,0.0 -0.500000 C 0.276142 -0.500000,0.500000 -0.276142,0.500000 0.0 Z"></path>
</g>
</g>

<g id="16045c40" transform="translate(195.359924, 143.825286) rotate(0.0) scale(22.075563, 22.075563)">
<g id="1d0d14a4" stroke="none" fill-opacity="1.000000" fill="#25698c">
<path id="curve.0000" d="M 0.500000 0.0 C 0.500000 0.276142,0.276142 0.500000,0.0 0.500000 C -0.276142 0.500000,-0.500000 0.276142,-0.500000 0.0 C -0.500000 -0.276142,-0.276142 -0.500000,0.0 -0.500000 C 0.276142 -0.500000,0.500000 -0.276142,0.500000 0.0 Z"></path>
</g>
</g>

<g id="7ddc841d" transform="translate(208.160018, 140.202331) rotate(0.0) scale(21.588960, 21.588960)">
<g id="7141b818" stroke="none" fill-opacity="1.000000" fill="#286494">
<path id="curve.0000" d="M 0.500000 0.0 C 0.500000 0.276142,0.276142 0.500000,0.0 0.500000 C -0.276142 0.500000,-0.500000 0.276142,-0.500000 0.0 C -0.500000 -0.276142,-0.276142 -0.500000,0.0 -0.500000 C 0.276142 -0.500000,0.500000 -0.276142,0.500000 0.0 Z"></path>
</g>
</g>

<g id="41c2aa0" transform="translate(220.260498, 135.056884) rotate(0.0) scale(21.076505, 21.076505)">
<g id="25c2cba6" stroke="none" fill-opacity="1.000000" fill="#2c5e98">
<path id="curve.0000" d="M 0.500000 0.0 C 0.500000 0.276142,0.276142 0.500000,0.0 0.500000 C -0.276142 0.500000,-0.500000 0.276142,-0.500000 0.0 C -0.500000 -0.276142,-0.276142 -0.500000,0.0 -0.500000 C 0.276142 -0.500000,0.500000 -0.276142,0.500000 0.0 Z"></path>
</g>
</g>

<g id="593f367e" transform="translate(231.492614, 128.392471) rotate(0.0) scale(20.541439, 20.541439)">
<g id="6ce84839" stroke="none" fill-opacity="1.000000" fill="#335697">
<path id="curve.0000" d="M 0.500000 0.0 C 0.500000 0.276142,0.276142 0.500000,0.0 0.500000 C -0.276142 0.500000,-0.500000 0.276142,-0.500000 0.0 C -0.500000 -0.276142,-0.276142 -0.500000,0.0 -0.500000 C 0.276142 -0.500000,0.500000 -0.276142,0.500000 0.0 Z"></path>
</g>
</g>

<g id="5f4431f9" transform="translate(241.688980, 120.211753) rotate(0.0) scale(19.987142, 19.987142)">
<g id="592b4c51" stroke="none" fill-opacity="1.000000" fill="#394f95">
<path id="curve.0000" d="M 0.500000 0.0 C 0.500000 0.276142,0.276142 0.500000,0.0 0.500000 C -0.276142 0.500000,-0.500000 0.276142,-0.500000 0.0 C -0.500000 -0.276142,-0.276142 -0.500000,0.0 -0.500000 C 0.276142 -0.500000,0.500000 -0.276142,0.500000 0.0 Z"></path>
</g>
</g>

<g id="772c7ecd" transform="translate(250.680374, 110.518608) rotate(0.0) scale(19.417125, 19.417125)">
<g id="3548168a" stroke="none" fill-opacity="1.000000" fill="#404893">
<path id="curve.0000" d="M 0.500000 0.0 C 0.500000 0.276142,0.276142 0.500000,0.0 0.500000 C -0.276142 0.500000,-0.500000 0.276142,-0.500000 0.0 C -0.500000 -0.276142,-0.276142 -0.500000,0.0 -0.500000 C 0.276142 -0.500000,0.500000 -0.276142,0.500000 0.0 Z"></path>
</g>
</g>

<g id="36828db6" transform="translate(258.299255, 99.315437) rotate(0.0) scale(18.834983, 18.834983)">
<g id="610749de" stroke="none" fill-opacity="1.000000" fill="#464091">
<path id="curve.0000" d="M 0.500000 0.0 C 0.500000 0.276142,0.276142 0.500000,0.0 0.500000 C -0.276142 0.500000,-0.500000 0.276142,-0.500000 0.0 C -0.500000 -0.276142,-0.276142 -0.500000,0.0 -0.500000 C 0.276142 -0.500000,0.500000 -0.276142,0.500000 0.0 Z"></path>
</g>
</g>

<g id="140eff32" transform="translate(264.376800, 86.605834) rotate(0.0) scale(18.244403, 18.244403)">
<g id="76f2f7f2" stroke="none" fill-opacity="1.000000" fill="#4d398f">
<path id="curve.0000" d="M 0.500000 0.0 C 0.500000 0.276142,0.276142 0.500000,0.0 0.500000 C -0.276142 0.500000,-0.500000 0.276142,-0.500000 0.0 C -0.500000 -0.276142,-0.276142 -0.500000,0.0 -0.500000 C 0.276142 -0.500000,0.500000 -0.276142,0.500000 0.0 Z"></path>
</g>
</g>

<g id="2de0194b" transform="translate(268.704406, 72.543624) rotate(0.0) scale(17.649114, 17.649114)">
<g id="616158b3" stroke="none" fill-opacity="1.000000" fill="#53328d">
<path id="curve.0000" d="M 0.500000 0.0 C 0.500000 0.276142,0.276142 0.500000,0.0 0.500000 C -0.276142 0.500000,-0.500000 0.276142,-0.500000 0.0 C -0.500000 -0.276142,-0.276142 -0.500000,0.0 -0.500000 C 0.276142 -0.500000,0.500000 -0.276142,0.500000 0.0 Z"></path>
</g>
</g>

<g id="4d6e0a" transform="translate(270.858184, 58.495346) rotate(0.0) scale(17.052883, 17.052883)">
<g id="477185de" stroke="none" fill-opacity="1.000000" fill="#5a2b8b">
<path id="curve.0000" d="M 0.500000 0.0 C 0.500000 0.276142,0.276142 0.500000,0.0 0.500000 C -0.276142 0.500000,-0.500000 0.276142,-0.500000 0.0 C -0.500000 -0.276142,-0.276142 -0.500000,0.0 -0.500000 C 0.276142 -0.500000,0.500000 -0.276142,0.500000 0.0 Z"></path>
</g>
</g>

<g id="2c3ef943" transform="translate(270.875457, 44.864959) rotate(0.0) scale(16.459480, 16.459480)">
<g id="3af7d859" stroke="none" fill-opacity="1.000000" fill="#602389">
<path id="curve.0000" d="M 0.500000 0.0 C 0.500000 0.276142,0.276142 0.500000,0.0 0.500000 C -0.276142 0.500000,-0.500000 0.276142,-0.500000 0.0 C -0.500000 -0.276142,-0.276142 -0.500000,0.0 -0.500000 C 0.276142 -0.500000,0.500000 -0.276142,0.500000 0.0 Z"></path>
</g>
</g>

<g id="71e3e5ac" transform="translate(268.896331, 31.746656) rotate(0.0) scale(15.872658, 15.872658)">
<g id="2a5b83e4" stroke="none" fill-opacity="1.000000" fill="#671c87">
<path id="curve.0000" d="M 0.500000 0.0 C 0.500000 0.276142,0.276142 0.500000,0.0 0.500000 C -0.276142 0.500000,-0.500000 0.276142,-0.500000 0.0 C -0.500000 -0.276142,-0.276142 -0.500000,0.0 -0.500000 C 0.276142 -0.500000,0.500000 -0.276142,0.500000 0.0 Z"></path>
</g>
</g>

<g id="2e6ab3e6" transform="translate(265.060516, 19.232988) rotate(0.0) scale(15.296122, 15.296122)">
<g id="dba2647" stroke="none" fill-opacity="1.000000" fill="#6d1585">
<path id="curve.0000" d="M 0.500000 0.0 C 0.500000 0.276142,0.276142 0.500000,0.0 0.500000 C -0.276142 0.500000,-0.500000 0.276142,-0.500000 0.0 C -0.500000 -0.276142,-0.276142 -0.500000,0.0 -0.500000 C 0.276142 -0.500000,0.500000 -0.276142,0.500000 0.0 Z"></path>
</g>
</g>

<g id="7b88c0b7" transform="translate(259.508270, 7.418620) rotate(0.0) scale(14.733520, 14.733520)">
<g id="17b3764c" stroke="none" fill-opacity="1.000000" fill="#740d83">
<path id="curve.0000" d="M 0.500000 0.0 C 0.500000 0.276142,0.276142 0.500000,0.0 0.500000 C -0.276142 0.500000,-0.500000 0.276142,-0.500000 0.0 C -0.500000 -0.276142,-0.276142 -0.500000,0.0 -0.500000 C 0.276142 -0.500000,0.500000 -0.276142,0.500000 0.0 Z"></path>
</g>
</g>

<g id="4be7f2e3" transform="translate(252.378997, -3.603787) rotate(0.0) scale(14.188407, 14.188407)">
<g id="43a9ea98" stroke="none" fill-opacity="1.000000" fill="#7a0681">
<path id="curve.0000" d="M 0.500000 0.0 C 0.500000 0.276142,0.276142 0.500000,0.0 0.500000 C -0.276142 0.500000,-0.500000 0.276142,-0.500000 0.0 C -0.500000 -0.276142,-0.276142 -0.500000,0.0 -0.500000 C 0.276142 -0.500000,0.500000 -0.276142,0.500000 0.0 Z"></path>
</g>
</g>

<g id="4fa4e5b7" transform="translate(243.812881, -13.740092) rotate(0.0) scale(13.664232, 13.664232)">
<g id="754bdae0" stroke="none" fill-opacity="1.000000" fill="#81007e">
<path id="curve.0000" d="M 0.500000 0.0 C 0.500000 0.276142,0.276142 0.500000,0.0 0.500000 C -0.276142 0.500000,-0.500000 0.276142,-0.500000 0.0 C -0.500000 -0.276142,-0.276142 -0.500000,0.0 -0.500000 C 0.276142 -0.500000,0.500000 -0.276142,0.500000 0.0 Z"></path>
</g>
</g>

<g id="793a03fb" transform="translate(233.950302, -22.896268) rotate(0.0) scale(13.164310, 13.164310)">
<g id="29716e61" stroke="none" fill-opacity="1.000000" fill="#8b0074">
<path id="curve.0000" d="M 0.500000 0.0 C 0.500000 0.276142,0.276142 0.500000,0.0 0.500000 C -0.276142 0.500000,-0.500000 0.276142,-0.500000 0.0 C -0.500000 -0.276142,-0.276142 -0.500000,0.0 -0.500000 C 0.276142 -0.500000,0.500000 -0.276142,0.500000 0.0 Z"></path>
</g>
</g>

<g id="2c63d75" transform="translate(222.930389, -30.979454) rotate(0.0) scale(12.691798, 12.691798)">
<g id="641fa43a" stroke="none" fill-opacity="1.000000" fill="#94006b">
<path id="curve.0000" d="M 0.500000 0.0 C 0.500000 0.276142,0.276142 0.500000,0.0 0.500000 C -0.276142 0.500000,-0.500000 0.276142,-0.500000 0.0 C -0.500000 -0.276142,-0.276142 -0.500000,0.0 -0.500000 C 0.276142 -0.500000,0.500000 -0.276142,0.500000 0.0 Z"></path>
</g>
</g>

<g id="463fccbe" transform="translate(210.893905, -37.895351) rotate(0.0) scale(12.249684, 12.249684)">
<g id="80e8b9b" stroke="none" fill-opacity="1.000000" fill="#9e0061">
<path id="curve.0000" d="M 0.500000 0.0 C 0.500000 0.276142,0.276142 0.500000,0.0 0.500000 C -0.276142 0.500000,-0.500000 0.276142,-0.500000 0.0 C -0.500000 -0.276142,-0.276142 -0.500000,0.0 -0.500000 C 0.276142 -0.500000,0.500000 -0.276142,0.500000 0.0 Z"></path>
</g>
</g>

<g id="11a9c0d4" transform="translate(197.979827, -43.550880) rotate(0.0) scale(11.840764, 11.840764)">
<g id="57f04067" stroke="none" fill-opacity="1.000000" fill="#a80057">
<path id="curve.0000" d="M 0.500000 0.0 C 0.500000 0.276142,0.276142 0.500000,0.0 0.500000 C -0.276142 0.500000,-0.500000 0.276142,-0.500000 0.0 C -0.500000 -0.276142,-0.276142 -0.500000,0.0 -0.500000 C 0.276142 -0.500000,0.500000 -0.276142,0.500000 0.0 Z"></path>
</g>
</g>

<g id="2bde5b51" transform="translate(184.328536, -47.852085) rotate(0.0) scale(11.467624, 11.467624)">
<g id="32cbc4" stroke="none" fill-opacity="1.000000" fill="#b2004d">
<path id="curve.0000" d="M 0.500000 0.0 C 0.500000 0.276142,0.276142 0.500000,0.0 0.500000 C -0.276142 0.500000,-0.500000 0.276142,-0.500000 0.0 C -0.500000 -0.276142,-0.276142 -0.500000,0.0 -0.500000 C 0.276142 -0.500000,0.500000 -0.276142,0.500000 0.0 Z"></path>
</g>
</g>

<g id="559440dd" transform="translate(170.080612, -50.705226) rotate(0.0) scale(11.132623, 11.132623)">
<g id="c6b4f9b" stroke="none" fill-opacity="1.000000" fill="#bb0044">
<path id="curve.0000" d="M 0.500000 0.0 C 0.500000 0.276142,0.276142 0.500000,0.0 0.500000 C -0.276142 0.500000,-0.500000 0.276142,-0.500000 0.0 C -0.500000 -0.276142,-0.276142 -0.500000,0.0 -0.500000 C 0.276142 -0.500000,0.500000 -0.276142,0.500000 0.0 Z"></path>
</g>
</g>

<g id="1a91c939" transform="translate(155.374740, -52.016914) rotate(0.0) scale(10.837880, 10.837880)">
<g id="2d923eb8" stroke="none" fill-opacity="1.000000" fill="#c5003a">
<path id="curve.0000" d="M 0.500000 0.0 C 0.500000 0.276142,0.276142 0.500000,0.0 0.500000 C -0.276142 0.500000,-0.500000 0.276142,-0.500000 0.0 C -0.500000 -0.276142,-0.276142 -0.500000,0.0 -0.500000 C 0.276142 -0.500000,0.500000 -0.276142,0.500000 0.0 Z"></path>
</g>
</g>

<g id="7bd3bb06" transform="translate(135.103759, -51.376338) rotate(0.0) scale(10.585255, 10.585255)">
<g id="252184a9" stroke="none" fill-opacity="1.000000" fill="#cf0030">
<path id="curve.0000" d="M 0.500000 0.0 C 0.500000 0.276142,0.276142 0.500000,0.0 0.500000 C -0.276142 0.500000,-0.500000 0.276142,-0.500000 0.0 C -0.500000 -0.276142,-0.276142 -0.500000,0.0 -0.500000 C 0.276142 -0.500000,0.500000 -0.276142,0.500000 0.0 Z"></path>
</g>
</g>

<g id="19fa094b" transform="translate(113.693229, -48.096847) rotate(0.0) scale(10.376348, 10.376348)">
<g id="6bf6ad12" stroke="none" fill-opacity="1.000000" fill="#d80027">
<path id="curve.0000" d="M 0.500000 0.0 C 0.500000 0.276142,0.276142 0.500000,0.0 0.500000 C -0.276142 0.500000,-0.500000 0.276142,-0.500000 0.0 C -0.500000 -0.276142,-0.276142 -0.500000,0.0 -0.500000 C 0.276142 -0.500000,0.500000 -0.276142,0.500000 0.0 Z"></path>
</g>
</g>

<g id="425b6809" transform="translate(92.650459, -42.540550) rotate(0.0) scale(10.212479, 10.212479)">
<g id="48219287" stroke="none" fill-opacity="1.000000" fill="#e2001d">
<path id="curve.0000" d="M 0.500000 0.0 C 0.500000 0.276142,0.276142 0.500000,0.0 0.500000 C -0.276142 0.500000,-0.500000 0.276142,-0.500000 0.0 C -0.500000 -0.276142,-0.276142 -0.500000,0.0 -0.500000 C 0.276142 -0.500000,0.500000 -0.276142,0.500000 0.0 Z"></path>
</g>
</g>

<g id="166138ac" transform="translate(71.909889, -35.119041) rotate(0.0) scale(10.094684, 10.094684)">
<g id="10d4f9ac" stroke="none" fill-opacity="1.000000" fill="#ec0013">
<path id="curve.0000" d="M 0.500000 0.0 C 0.500000 0.276142,0.276142 0.500000,0.0 0.500000 C -0.276142 0.500000,-0.500000 0.276142,-0.500000 0.0 C -0.500000 -0.276142,-0.276142 -0.500000,0.0 -0.500000 C 0.276142 -0.500000,0.500000 -0.276142,0.500000 0.0 Z"></path>
</g>
</g>

<g id="5425f49b" transform="translate(51.403331, -26.242973) rotate(0.0) scale(10.023708, 10.023708)">
<g id="5c60ab98" stroke="none" fill-opacity="1.000000" fill="#f5000a">
<path id="curve.0000" d="M 0.500000 0.0 C 0.500000 0.276142,0.276142 0.500000,0.0 0.500000 C -0.276142 0.500000,-0.500000 0.276142,-0.500000 0.0 C -0.500000 -0.276142,-0.276142 -0.500000,0.0 -0.500000 C 0.276142 -0.500000,0.500000 -0.276142,0.500000 0.0 Z"></path>
</g>
</g>

<g id="6b4e3021" transform="translate(31.066099, -16.324316) rotate(0.0) scale(10.000000, 10.000000)">
<g id="2b064158" stroke="none" fill-opacity="1.000000" fill="#ff0000">
<path id="curve.0000" d="M 0.500000 0.0 C 0.500000 0.276142,0.276142 0.500000,0.0 0.500000 C -0.276142 0.500000,-0.500000 0.276142,-0.500000 0.0 C -0.500000 -0.276142,-0.276142 -0.500000,0.0 -0.500000 C 0.276142 -0.500000,0.500000 -0.276142,0.500000 0.0 Z"></path>
</g>
</g>

</g>
</svg>
