<svg xmlns="http://www.w3.org/2000/svg" xmlns:xlink="http://www.w3.org/1999/xlink" width="720" height="405" viewBox="0 0 720 405">
<path id="background" d="M 0.0 0.0 L 720.0 0.0 L 720.0 405.0 L 0.0 405.0 Z" stroke="none" fill-opacity="1.000000" fill="#101010"></path>
<g id="camera" transform="translate(360.000000, 202.500000) scale(1.000000, -1.000000) rotate(0.0) translate(0.0, 0.0)">
<g id="1a433c80" transform="translate(186.469314, 147.569412) rotate(0.0) scale(25.000000, 25.000000)">
<g id="5b7e36bb" stroke="none" fill-opacity="1.000000" fill="#ff0000">
<path id="curve.0000" d="M 0.500000 0.0 C 0.500000 0.276142,0.276142 0.500000,0.0 0.500000 C -0.276142 0.500000,-0.500000 0.276142,-0.500000 0.0 C -0.500000 -0.276142,-0.276142 -0.500000,0.0 -0.500000 C 0.276142 -0.500000,0.500000 -0.276142,0.500000 0.0 Z"></path>
</g>
</g>

<g id="69cb6a74" transform="translate(198.702011, 145.158172) rotate(0.0) scale(24.957509, 24.957509)">
<g id="11b0ee97" stroke="none" fill-opacity="1.000000" fill="#ff0d00">
<path id="curve.0000" d="M 0.500000 0.0 C 0.500000 0.276142,0.276142 0.500000,0.0 0.500000 C -0.276142 0.500000,-0.500000 0.276142,-0.500000 0.0 C -0.500000 -0.276142,-0.276142 -0.500000,0.0 -0.500000 C 0.276142 -0.500000,0.500000 -0.276142,0.500000 0.0 Z"></path>
</g>
</g>

<g id="3b51c9f4" transform="translate(210.434005, 141.422378) rotate(0.0) scale(24.830526, 24.830526)">
<g id="1ce6619a" stroke="none" fill-opacity="1.000000" fill="#ff1a00">
<path id="curve.0000" d="M 0.500000 0.0 C 0.500000 0.276142,0.276142 0.500000,0.0 0.500000 C -0.276142 0.500000,-0.500000 0.276142,-0.500000 0.0 C -0.500000 -0.276142,-0.276142 -0.500000,0.0 -0.500000 C 0.276142 -0.500000,0.500000 -0.276142,0.500000 0.0 Z"></path>
</g>
</g>

<g id="ab4e0c7" transform="translate(221.530075, 136.362731) rotate(0.0) scale(24.620481, 24.620481)">
<g id="6ad08753" stroke="none" fill-opacity="1.000000" fill="#ff2700">
<path id="curve.0000" d="M 0.500000 0.0 C 0.500000 0.276142,0.276142 0.500000,0.0 0.500000 C -0.276142 0.500000,-0.500000 0.276142,-0.500000 0.0 C -0.500000 -0.276142,-0.276142 -0.500000,0.0 -0.500000 C 0.276142 -0.500000,0.500000 -0.276142,0.500000 0.0 Z"></path>
</g>
</g>

<g id="4595c122" transform="translate(231.854858, 129.980117) rotate(0.0) scale(24.329759, 24.329759)">
<g id="2b66e764" stroke="none" fill-opacity="1.000000" fill="#ff3400">
<path id="curve.0000" d="M 0.500000 0.0 C 0.500000 0.276142,0.276142 0.500000,0.0 0.500000 C -0.276142 0.500000,-0.500000 0.276142,-0.500000 0.0 C -0.500000 -0.276142,-0.276142 -0.500000,0.0 -0.500000 C 0.276142 -0.500000,0.500000 -0.276142,0.500000 0.0 Z"></path>
</g>
</g>

<g id="45e20744" transform="translate(241.273101, 122.275215) rotate(0.0) scale(23.961656, 23.961656)">
<g id="13be1a8d" stroke="none" fill-opacity="1.000000" fill="#ff4100">
<path id="curve.0000" d="M 0.500000 0.0 C 0.500000 0.276142,0.276142 0.500000,0.0 0.500000 C -0.276142 0.500000,-0.500000 0.276142,-0.500000 0.0 C -0.500000 -0.276142,-0.276142 -0.500000,0.0 -0.500000 C 0.276142 -0.500000,0.500000 -0.276142,0.500000 0.0 Z"></path>
</g>
</g>

<g id="f7f9259" transform="translate(249.649215, 113.249000) rotate(0.0) scale(23.520336, 23.520336)">
<g id="5ef3789a" stroke="none" fill-opacity="1.000000" fill="#ff4e00">
<path id="curve.0000" d="M 0.500000 0.0 C 0.500000 0.276142,0.276142 0.500000,0.0 0.500000 C -0.276142 0.500000,-0.500000 0.276142,-0.500000 0.0 C -0.500000 -0.276142,-0.276142 -0.500000,0.0 -0.500000 C 0.276142 -0.500000,0.500000 -0.276142,0.500000 0.0 Z"></path>
</g>
</g>

<g id="3dfa6bbb" transform="translate(256.848052, 102.902114) rotate(0.0) scale(23.010805, 23.010805)">
<g id="7b912ca" stroke="none" fill-opacity="1.000000" fill="#ff5b00">
<path id="curve.0000" d="M 0.500000 0.0 C 0.500000 0.276142,0.276142 0.500000,0.0 0.500000 C -0.276142 0.500000,-0.500000 0.276142,-0.500000 0.0 C -0.500000 -0.276142,-0.276142 -0.500000,0.0 -0.500000 C 0.276142 -0.500000,0.500000 -0.276142,0.500000 0.0 Z"></path>
</g>
</g>

<g id="424b9d0f" transform="translate(262.734100, 91.235603) rotate(0.0) scale(22.438835, 22.438835)">
<g id="44d64b2a" stroke="none" fill-opacity="1.000000" fill="#ff6800">
<path id="curve.0000" d="M 0.500000 0.0 C 0.500000 0.276142,0.276142 0.500000,0.0 0.500000 C -0.276142 0.500000,-0.500000 0.276142,-0.500000 0.0 C -0.500000 -0.276142,-0.276142 -0.500000,0.0 -0.500000 C 0.276142 -0.500000,0.500000 -0.276142,0.500000 0.0 Z"></path>
</g>
</g>

<g id="bb62e38" transform="translate(267.155853, 78.305656) rotate(0.0) scale(21.810907, 21.810907)">
<g id="2dbb92ba" stroke="none" fill-opacity="1.000000" fill="#ff7500">
<path id="curve.0000" d="M 0.500000 0.0 C 0.500000 0.276142,0.276142 0.500000,0.0 0.500000 C -0.276142 0.500000,-0.500000 0.276142,-0.500000 0.0 C -0.500000 -0.276142,-0.276142 -0.500000,0.0 -0.500000 C 0.276142 -0.500000,0.500000 -0.276142,0.500000 0.0 Z"></path>
</g>
</g>

<g id="5bc2133c" transform="translate(269.729858, 65.209640) rotate(0.0) scale(21.134132, 21.134132)">
<g id="2fb72248" stroke="none" fill-opacity="1.000000" fill="#ff8200">
<path id="curve.0000" d="M 0.500000 0.0 C 0.500000 0.276142,0.276142 0.500000,0.0 0.500000 C -0.276142 0.500000,-0.500000 0.276142,-0.500000 0.0 C -0.500000 -0.276142,-0.276142 -0.500000,0.0 -0.500000 C 0.276142 -0.500000,0.500000 -0.276142,0.500000 0.0 Z"></path>
</g>
</g>

<g id="5ee85b46" transform="translate(270.424591, 52.431999) rotate(0.0) scale(20.416179, 20.416179)">
<g id="dd368d8" stroke="none" fill-opacity="1.000000" fill="#ff8f00">
<path id="curve.0000" d="M 0.500000 0.0 C 0.500000 0.276142,0.276142 0.500000,0.0 0.500000 C -0.276142 0.500000,-0.500000 0.276142,-0.500000 0.0 C -0.500000 -0.276142,-0.276142 -0.500000,0.0 -0.500000 C 0.276142 -0.500000,0.500000 -0.276142,0.500000 0.0 Z"></path>
</g>
</g>

<g id="1b60be48" transform="translate(269.351623, 40.049213) rotate(0.0) scale(19.665189, 19.665189)">
<g id="552606ec" stroke="none" fill-opacity="1.000000" fill="#ff9c00">
<path id="curve.0000" d="M 0.500000 0.0 C 0.500000 0.276142,0.276142 0.500000,0.0 0.500000 C -0.276142 0.500000,-0.500000 0.276142,-0.500000 0.0 C -0.500000 -0.276142,-0.276142 -0.500000,0.0 -0.500000 C 0.276142 -0.500000,0.500000 -0.276142,0.500000 0.0 Z"></path>
</g>
</g>

<g id="43a53138" transform="translate(266.622344, 28.138301) rotate(0.0) scale(18.889663, 18.889663)">
<g id="2db79cfa" stroke="none" fill-opacity="1.000000" fill="#ffa900">
<path id="curve.0000" d="M 0.500000 0.0 C 0.500000 0.276142,0.276142 0.500000,0.0 0.500000 C -0.276142 0.500000,-0.500000 0.276142,-0.500000 0.0 C -0.500000 -0.276142,-0.276142 -0.500000,0.0 -0.500000 C 0.276142 -0.500000,0.500000 -0.276142,0.500000 0.0 Z"></path>
</g>
</g>

<g id="48c3fec6" transform="translate(262.348358, 16.775850) rotate(0.0) scale(18.098396, 18.098396)">
<g id="3514ad38" stroke="none" fill-opacity="1.000000" fill="#ffb600">
<path id="curve.0000" d="M 0.500000 0.0 C 0.500000 0.276142,0.276142 0.500000,0.0 0.500000 C -0.276142 0.500000,-0.500000 0.276142,-0.500000 0.0 C -0.500000 -0.276142,-0.276142 -0.500000,0.0 -0.500000 C 0.276142 -0.500000,0.500000 -0.276142,0.500000 0.0 Z"></path>
</g>
</g>

<g id="2455b72c" transform="translate(256.641143, 6.038615) rotate(0.0) scale(17.300346, 17.300346)">
<g id="7869814d" stroke="none" fill-opacity="1.000000" fill="#ffc200">
<path id="curve.0000" d="M 0.500000 0.0 C 0.500000 0.276142,0.276142 0.500000,0.0 0.500000 C -0.276142 0.500000,-0.500000 0.276142,-0.500000 0.0 C -0.500000 -0.276142,-0.276142 -0.500000,0.0 -0.500000 C 0.276142 -0.500000,0.500000 -0.276142,0.500000 0.0 Z"></path>
</g>
</g>

<g id="68849e15" transform="translate(249.612136, -3.996747) rotate(0.0) scale(16.504558, 16.504558)">
<g id="285a7e54" stroke="none" fill-opacity="1.000000" fill="#ffcf00">
<path id="curve.0000" d="M 0.500000 0.0 C 0.500000 0.276142,0.276142 0.500000,0.0 0.500000 C -0.276142 0.500000,-0.500000 0.276142,-0.500000 0.0 C -0.500000 -0.276142,-0.276142 -0.500000,0.0 -0.500000 C 0.276142 -0.500000,0.500000 -0.276142,0.500000 0.0 Z"></path>
</g>
</g>

<g id="1c0df1fb" transform="translate(241.372985, -13.253310) rotate(0.0) scale(15.720049, 15.720049)">
<g id="3cffc4f9" stroke="none" fill-opacity="1.000000" fill="#ffdc00">
<path id="curve.0000" d="M 0.500000 0.0 C 0.500000 0.276142,0.276142 0.500000,0.0 0.500000 C -0.276142 0.500000,-0.500000 0.276142,-0.500000 0.0 C -0.500000 -0.276142,-0.276142 -0.500000,0.0 -0.500000 C 0.276142 -0.500000,0.500000 -0.276142,0.500000 0.0 Z"></path>
</g>
</g>

<g id="47aca5ec" transform="translate(232.034957, -21.654497) rotate(0.0) scale(14.955709, 14.955709)">
<g id="49174f61" stroke="none" fill-opacity="1.000000" fill="#ffe900">
<path id="curve.0000" d="M 0.500000 0.0 C 0.500000 0.276142,0.276142 0.500000,0.0 0.500000 C -0.276142 0.500000,-0.500000 0.276142,-0.500000 0.0 C -0.500000 -0.276142,-0.276142 -0.500000,0.0 -0.500000 C 0.276142 -0.500000,0.500000 -0.276142,0.500000 0.0 Z"></path>
</g>
</g>

<g id="b8d92b6" transform="translate(221.709854, -29.123388) rotate(0.0) scale(14.220194, 14.220194)">
<g id="759be55e" stroke="none" fill-opacity="1.000000" fill="#fff600">
<path id="curve.0000" d="M 0.500000 0.0 C 0.500000 0.276142,0.276142 0.500000,0.0 0.500000 C -0.276142 0.500000,-0.500000 0.276142,-0.500000 0.0 C -0.500000 -0.276142,-0.276142 -0.500000,0.0 -0.500000 C 0.276142 -0.500000,0.500000 -0.276142,0.500000 0.0 Z"></path>
</g>
</g>

<g id="604d0cb" transform="translate(210.509033, -35.583324) rotate(0.0) scale(13.521842, 13.521842)">
<g id="2eb7c0fb" stroke="none" fill-opacity="1.000000" fill="#f6fc02">
<path id="curve.0000" d="M 0.500000 0.0 C 0.500000 0.276142,0.276142 0.500000,0.0 0.500000 C -0.276142 0.500000,-0.500000 0.276142,-0.500000 0.0 C -0.500000 -0.276142,-0.276142 -0.500000,0.0 -0.500000 C 0.276142 -0.500000,0.500000 -0.276142,0.500000 0.0 Z"></path>
</g>
</g>

<g id="42c6166" transform="translate(198.543838, -40.957664) rotate(0.0) scale(12.868563, 12.868563)">
<g id="1a1f52bc" stroke="none" fill-opacity="1.000000" fill="#ddf307">
<path id="curve.0000" d="M 0.500000 0.0 C 0.500000 0.276142,0.276142 0.500000,0.0 0.500000 C -0.276142 0.500000,-0.500000 0.276142,-0.500000 0.0 C -0.500000 -0.276142,-0.276142 -0.500000,0.0 -0.500000 C 0.276142 -0.500000,0.500000 -0.276142,0.500000 0.0 Z"></path>
</g>
</g>

<g id="a3fe91c" transform="translate(185.926071, -45.169498) rotate(0.0) scale(12.267764, 12.267764)">
<g id="3afb2b08" stroke="none" fill-opacity="1.000000" fill="#c3eb0c">
<path id="curve.0000" d="M 0.500000 0.0 C 0.500000 0.276142,0.276142 0.500000,0.0 0.500000 C -0.276142 0.500000,-0.500000 0.276142,-0.500000 0.0 C -0.500000 -0.276142,-0.276142 -0.500000,0.0 -0.500000 C 0.276142 -0.500000,0.500000 -0.276142,0.500000 0.0 Z"></path>
</g>
</g>

<g id="5a111459" transform="translate(172.766952, -48.142177) rotate(0.0) scale(11.726245, 11.726245)">
<g id="3e8e066e" stroke="none" fill-opacity="1.000000" fill="#aae212">
<path id="curve.0000" d="M 0.500000 0.0 C 0.500000 0.276142,0.276142 0.500000,0.0 0.500000 C -0.276142 0.500000,-0.500000 0.276142,-0.500000 0.0 C -0.500000 -0.276142,-0.276142 -0.500000,0.0 -0.500000 C 0.276142 -0.500000,0.500000 -0.276142,0.500000 0.0 Z"></path>
</g>
</g>

<g id="5dcec9dc" transform="translate(159.178268, -49.798912) rotate(0.0) scale(11.250144, 11.250144)">
<g id="3b00360a" stroke="none" fill-opacity="1.000000" fill="#90d917">
<path id="curve.0000" d="M 0.500000 0.0 C 0.500000 0.276142,0.276142 0.500000,0.0 0.500000 C -0.276142 0.500000,-0.500000 0.276142,-0.500000 0.0 C -0.500000 -0.276142,-0.276142 -0.500000,0.0 -0.500000 C 0.276142 -0.500000,0.500000 -0.276142,0.500000 0.0 Z"></path>
</g>
</g>

<g id="75f3fa72" transform="translate(141.871322, -49.984527) rotate(0.0) scale(10.844860, 10.844860)">
<g id="2ceabbbf" stroke="none" fill-opacity="1.000000" fill="#76d01c">
<path id="curve.0000" d="M 0.500000 0.0 C 0.500000 0.276142,0.276142 0.500000,0.0 0.500000 C -0.276142 0.500000,-0.500000 0.276142,-0.500000 0.0 C -0.500000 -0.276142,-0.276142 -0.500000,0.0 -0.500000 C 0.276142 -0.500000,0.500000 -0.276142,0.500000 0.0 Z"></path>
</g>
</g>

<g id="1660784e" transform="translate(121.813858, -47.944629) rotate(0.0) scale(10.514977, 10.514977)">
<g id="60878ba3" stroke="none" fill-opacity="1.000000" fill="#5cc821">
<path id="curve.0000" d="M 0.500000 0.0 C 0.500000 0.276142,0.276142 0.500000,0.0 0.500000 C -0.276142 0.500000,-0.500000 0.276142,-0.500000 0.0 C -0.500000 -0.276142,-0.276142 -0.500000,0.0 -0.500000 C 0.276142 -0.500000,0.500000 -0.276142,0.500000 0.0 Z"></path>
</g>
</g>

<g id="1949f34f" transform="translate(102.067222, -43.806922) rotate(0.0) scale(10.264240, 10.264240)">
<g id="21fd15c5" stroke="none" fill-opacity="1.000000" fill="#42bf26">
<path id="curve.0000" d="M 0.500000 0.0 C 0.500000 0.276142,0.276142 0.500000,0.0 0.500000 C -0.276142 0.500000,-0.500000 0.276142,-0.500000 0.0 C -0.500000 -0.276142,-0.276142 -0.500000,0.0 -0.500000 C 0.276142 -0.500000,0.500000 -0.276142,0.500000 0.0 Z"></path>
</g>
</g>

<g id="7d7b58ca" transform="translate(82.582603, -37.902786) rotate(0.0) scale(10.095487, 10.095487)">
<g id="55af7fa4" stroke="none" fill-opacity="1.000000" fill="#27b62b">
<path id="curve.0000" d="M 0.500000 0.0 C 0.500000 0.276142,0.276142 0.500000,0.0 0.500000 C -0.276142 0.500000,-0.500000 0.276142,-0.500000 0.0 C -0.500000 -0.276142,-0.276142 -0.500000,0.0 -0.500000 C 0.276142 -0.500000,0.500000 -0.276142,0.500000 0.0 Z"></path>
</g>
</g>

<g id="1c351be9" transform="translate(63.310169, -30.563308) rotate(0.0) scale(10.010629, 10.010629)">
<g id="6077be6e" stroke="none" fill-opacity="1.000000" fill="#0dad30">
<path id="curve.0000" d="M 0.500000 0.0 C 0.500000 0.276142,0.276142 0.500000,0.0 0.500000 C -0.276142 0.500000,-0.500000 0.276142,-0.500000 0.0 C -0.500000 -0.276142,-0.276142 -0.500000,0.0 -0.500000 C 0.276142 -0.500000,0.500000 -0.276142,0.500000 0.0 Z"></path>
</g>
</g>

<g id="4e0bbf9b" transform="translate(44.201572, -22.120031) rotate(0.0) scale(10.010629, 10.010629)">
<g id="3c5117c2" stroke="none" fill-opacity="1.000000" fill="#02a538">
<path id="curve.0000" d="M 0.500000 0.0 C 0.500000 0.276142,0.276142 0.500000,0.0 0.500000 C -0.276142 0.500000,-0.500000 0.276142,-0.500000 0.0 C -0.500000 -0.276142,-0.276142 -0.500000,0.0 -0.500000 C 0.276142 -0.500000,0.500000 -0.276142,0.500000 0.0 Z"></path>
</g>
</g>

<g id="61085ae8" transform="translate(25.207448, -12.904168) rotate(0.0) scale(10.095486, 10.095486)">
<g id="20946d87" stroke="none" fill-opacity="1.000000" fill="#069e43">
<path id="curve.0000" d="M 0.500000 0.0 C 0.500000 0.276142,0.276142 0.500000,0.0 0.500000 C -0.276142 0.500000,-0.500000 0.276142,-0.500000 0.0 C -0.500000 -0.276142,-0.276142 -0.500000,0.0 -0.500000 C 0.276142 -0.500000,0.500000 -0.276142,0.500000 0.0 Z"></path>
</g>
</g>

<g id="14cf8150" transform="translate(6.278425, -3.246866) rotate(0.0) scale(10.264240, 10.264240)">
<g id="237a7386" stroke="none" fill-opacity="1.000000" fill="#0b964d">
<path id="curve.0000" d="M 0.500000 0.0 C 0.500000 0.276142,0.276142 0.500000,0.0 0.500000 C -0.276142 0.500000,-0.500000 0.276142,-0.500000 0.0 C -0.500000 -0.276142,-0.276142 -0.500000,0.0 -0.500000 C 0.276142 -0.500000,0.500000 -0.276142,0.500000 0.0 Z"></path>
</g>
</g>

<g id="2001ca3b" transform="translate(-12.634162, 6.520364) rotate(0.0) scale(10.514979, 10.514979)">
<g id="65839fda" stroke="none" fill-opacity="1.000000" fill="#0f8f57">
<path id="curve.0000" d="M 0.500000 0.0 C 0.500000 0.276142,0.276142 0.500000,0.0 0.500000 C -0.276142 0.500000,-0.500000 0.276142,-0.500000 0.0 C -0.500000 -0.276142,-0.276142 -0.500000,0.0 -0.500000 C 0.276142 -0.500000,0.500000 -0.276142,0.500000 0.0 Z"></path>
</g>
</g>

<g id="151536af" transform="translate(-31.579399, 16.066213) rotate(0.0) scale(10.844860, 10.844860)">
<g id="13bc5479" stroke="none" fill-opacity="1.000000" fill="#138762">
<path id="curve.0000" d="M 0.500000 0.0 C 0.500000 0.276142,0.276142 0.500000,0.0 0.500000 C -0.276142 0.500000,-0.500000 0.276142,-0.500000 0.0 C -0.500000 -0.276142,-0.276142 -0.500000,0.0 -0.500000 C 0.276142 -0.500000,0.500000 -0.276142,0.500000 0.0 Z"></path>
</g>
</g>

<g id="6ab8749b" transform="translate(-50.606506, 25.059459) rotate(0.0) scale(11.250144, 11.250144)">
<g id="361e018b" stroke="none" fill-opacity="1.000000" fill="#17806c">
<path id="curve.0000" d="M 0.500000 0.0 C 0.500000 0.276142,0.276142 0.500000,0.0 0.500000 C -0.276142 0.500000,-0.500000 0.276142,-0.500000 0.0 C -0.500000 -0.276142,-0.276142 -0.500000,0.0 -0.500000 C 0.276142 -0.500000,0.500000 -0.276142,0.500000 0.0 Z"></path>
</g>
</g>

<g id="477084ad" transform="translate(-69.764564, 33.168800) rotate(0.0) scale(11.726244, 11.726244)">
<g id="1caa437e" stroke="none" fill-opacity="1.000000" fill="#1c7876">
<path id="curve.0000" d="M 0.500000 0.0 C 0.500000 0.276142,0.276142 0.500000,0.0 0.500000 C -0.276142 0.500000,-0.500000 0.276142,-0.500000 0.0 C -0.500000 -0.276142,-0.276142 -0.500000,0.0 -0.500000 C 0.276142 -0.500000,0.500000 -0.276142,0.500000 0.0 Z"></path>
</g>
</g>

<g id="5a7e0b39" transform="translate(-89.102958, 40.063030) rotate(0.0) scale(12.267764, 12.267764)">
<g id="5e0990e2" stroke="none" fill-opacity="1.000000" fill="#207181">
<path id="curve.0000" d="M 0.500000 0.0 C 0.500000 0.276142,0.276142 0.500000,0.0 0.500000 C -0.276142 0.500000,-0.500000 0.276142,-0.500000 0.0 C -0.500000 -0.276142,-0.276142 -0.500000,0.0 -0.500000 C 0.276142 -0.500000,0.500000 -0.276142,0.500000 0.0 Z"></path>
</g>
</g>

<g id="10f699ee" transform="translate(-108.670051, 45.410617) rotate(0.0) scale(12.868566, 12.868566)">
<g id="6606c873" stroke="none" fill-opacity="1.000000" fill="#246a8b">
<path id="curve.0000" d="M 0.500000 0.0 C 0.500000 0.276142,0.276142 0.500000,0.0 0.500000 C -0.276142 0.500000,-0.500000 0.276142,-0.500000 0.0 C -0.500000 -0.276142,-0.276142 -0.500000,0.0 -0.500000 C 0.276142 -0.500000,0.500000 -0.276142,0.500000 0.0 Z"></path>
</g>
</g>

<g id="749acad1" transform="translate(-128.515792, 48.880496) rotate(0.0) scale(13.521842, 13.521842)">
<g id="31e52260" stroke="none" fill-opacity="1.000000" fill="#296296">
<path id="curve.0000" d="M 0.500000 0.0 C 0.500000 0.276142,0.276142 0.500000,0.0 0.500000 C -0.276142 0.500000,-0.500000 0.276142,-0.500000 0.0 C -0.500000 -0.276142,-0.276142 -0.500000,0.0 -0.500000 C 0.276142 -0.500000,0.500000 -0.276142,0.500000 0.0 Z"></path>
</g>
</g>

<g id="61f0317f" transform="translate(-148.688522, 50.141185) rotate(0.0) scale(14.220194, 14.220194)">
<g id="2bd332d8" stroke="none" fill-opacity="1.000000" fill="#305997">
<path id="curve.0000" d="M 0.500000 0.0 C 0.500000 0.276142,0.276142 0.500000,0.0 0.500000 C -0.276142 0.500000,-0.500000 0.276142,-0.500000 0.0 C -0.500000 -0.276142,-0.276142 -0.500000,0.0 -0.500000 C 0.276142 -0.500000,0.500000 -0.276142,0.500000 0.0 Z"></path>
</g>
</g>

<g id="333de3e0" transform="translate(-163.784851, 49.393814) rotate(0.0) scale(14.955707, 14.955707)">
<g id="65906eb4" stroke="none" fill-opacity="1.000000" fill="#395095">
<path id="curve.0000" d="M 0.500000 0.0 C 0.500000 0.276142,0.276142 0.500000,0.0 0.500000 C -0.276142 0.500000,-0.500000 0.276142,-0.500000 0.0 C -0.500000 -0.276142,-0.276142 -0.500000,0.0 -0.500000 C 0.276142 -0.500000,0.500000 -0.276142,0.500000 0.0 Z"></path>
</g>
</g>

<g id="5767c52c" transform="translate(-177.241806, 47.286361) rotate(0.0) scale(15.720049, 15.720049)">
<g id="6a67df5e" stroke="none" fill-opacity="1.000000" fill="#414692">
<path id="curve.0000" d="M 0.500000 0.0 C 0.500000 0.276142,0.276142 0.500000,0.0 0.500000 C -0.276142 0.500000,-0.500000 0.276142,-0.500000 0.0 C -0.500000 -0.276142,-0.276142 -0.500000,0.0 -0.500000 C 0.276142 -0.500000,0.500000 -0.276142,0.500000 0.0 Z"></path>
</g>
</g>

<g id="ce4f968" transform="translate(-190.231292, 43.888835) rotate(0.0) scale(16.504558, 16.504558)">
<g id="266fe610" stroke="none" fill-opacity="1.000000" fill="#4a3c90">
<path id="curve.0000" d="M 0.500000 0.0 C 0.500000 0.276142,0.276142 0.500000,0.0 0.500000 C -0.276142 0.500000,-0.500000 0.276142,-0.500000 0.0 C -0.500000 -0.276142,-0.276142 -0.500000,0.0 -0.500000 C 0.276142 -0.500000,0.500000 -0.276142,0.500000 0.0 Z"></path>
</g>
</g>

<g id="72a650ac" transform="translate(-202.642349, 39.277816) rotate(0.0) scale(17.300346, 17.300346)">
<g id="2487609b" stroke="none" fill-opacity="1.000000" fill="#53328e">
<path id="curve.0000" d="M 0.500000 0.0 C 0.500000 0.276142,0.276142 0.500000,0.0 0.500000 C -0.276142 0.500000,-0.500000 0.276142,-0.500000 0.0 C -0.500000 -0.276142,-0.276142 -0.500000,0.0 -0.500000 C 0.276142 -0.500000,0.500000 -0.276142,0.500000 0.0 Z"></path>
</g>
</g>

<g id="7d815d7d" transform="translate(-214.363082, 33.530208) rotate(0.0) scale(18.098396, 18.098396)">
<g id="724e2544" stroke="none" fill-opacity="1.000000" fill="#5b298b">
<path id="curve.0000" d="M 0.500000 0.0 C 0.500000 0.276142,0.276142 0.500000,0.0 0.500000 C -0.276142 0.500000,-0.500000 0.276142,-0.500000 0.0 C -0.500000 -0.276142,-0.276142 -0.500000,0.0 -0.500000 C 0.276142 -0.500000,0.500000 -0.276142,0.500000 0.0 Z"></path>
</g>
</g>

<g id="6dd2102e" transform="translate(-225.282119, 26.722715) rotate(0.0) scale(18.889663, 18.889663)">
<g id="3508e09d" stroke="none" fill-opacity="1.000000" fill="#641f88">
<path id="curve.0000" d="M 0.500000 0.0 C 0.500000 0.276142,0.276142 0.500000,0.0 0.500000 C -0.276142 0.500000,-0.500000 0.276142,-0.500000 0.0 C -0.500000 -0.276142,-0.276142 -0.500000,0.0 -0.500000 C 0.276142 -0.500000,0.500000 -0.276142,0.500000 0.0 Z"></path>
</g>
</g>

<g id="366f877d" transform="translate(-235.287994, 18.932054) rotate(0.0) scale(19.665189, 19.665189)">
<g id="2f7854f8" stroke="none" fill-opacity="1.000000" fill="#6d1585">
<path id="curve.0000" d="M 0.500000 0.0 C 0.500000 0.276142,0.276142 0.500000,0.0 0.500000 C -0.276142 0.500000,-0.500000 0.276142,-0.500000 0.0 C -0.500000 -0.276142,-0.276142 -0.500000,0.0 -0.500000 C 0.276142 -0.500000,0.500000 -0.276142,0.500000 0.0 Z"></path>
</g>
</g>

<g id="5d064582" transform="translate(-244.269256, 10.234923) rotate(0.0) scale(20.416179, 20.416179)">
<g id="5188636f" stroke="none" fill-opacity="1.000000" fill="#750b83">
<path id="curve.0000" d="M 0.500000 0.0 C 0.500000 0.276142,0.276142 0.500000,0.0 0.500000 C -0.276142 0.500000,-0.500000 0.276142,-0.500000 0.0 C -0.500000 -0.276142,-0.276142 -0.500000,0.0 -0.500000 C 0.276142 -0.500000,0.500000 -0.276142,0.500000 0.0 Z"></path>
</g>
</g>

<g id="3c3a2232" transform="translate(-252.114288, 0.708108) rotate(0.0) scale(21.134132, 21.134132)">
<g id="79a94c8" stroke="none" fill-opacity="1.000000" fill="#7e0280">
<path id="curve.0000" d="M 0.500000 0.0 C 0.500000 0.276142,0.276142 0.500000,0.0 0.500000 C -0.276142 0.500000,-0.500000 0.276142,-0.500000 0.0 C -0.500000 -0.276142,-0.276142 -0.500000,0.0 -0.500000 C 0.276142 -0.500000,0.500000 -0.276142,0.500000 0.0 Z"></path>
</g>
</g>

<g id="151b0c4f" transform="translate(-258.711669, -9.571644) rotate(0.0) scale(21.810907, 21.810907)">
<g id="51d8ee5f" stroke="none" fill-opacity="1.000000" fill="#8a0075">
<path id="curve.0000" d="M 0.500000 0.0 C 0.500000 0.276142,0.276142 0.500000,0.0 0.500000 C -0.276142 0.500000,-0.500000 0.276142,-0.500000 0.0 C -0.500000 -0.276142,-0.276142 -0.500000,0.0 -0.500000 C 0.276142 -0.500000,0.500000 -0.276142,0.500000 0.0 Z"></path>
</g>
</g>

<g id="2b70c78" transform="translate(-263.949768, -20.527494) rotate(0.0) scale(22.438835, 22.438835)">
<g id="5bf1096e" stroke="none" fill-opacity="1.000000" fill="#970068">
<path id="curve.0000" d="M 0.500000 0.0 C 0.500000 0.276142,0.276142 0.500000,0.0 0.500000 C -0.276142 0.500000,-0.500000 0.276142,-0.500000 0.0 C -0.500000 -0.276142,-0.276142 -0.500000,0.0 -0.500000 C 0.276142 -0.500000,0.500000 -0.276142,0.500000 0.0 Z"></path>
</g>
</g>

<g id="4dcdae59" transform="translate(-267.717163, -32.082771) rotate(0.0) scale(23.010805, 23.010805)">
<g id="207f831c" stroke="none" fill-opacity="1.000000" fill="#a4005b">
<path id="curve.0000" d="M 0.500000 0.0 C 0.500000 0.276142,0.276142 0.500000,0.0 0.500000 C -0.276142 0.500000,-0.500000 0.276142,-0.500000 0.0 C -0.500000 -0.276142,-0.276142 -0.500000,0.0 -0.500000 C 0.276142 -0.500000,0.500000 -0.276142,0.500000 0.0 Z"></path>
</g>
</g>

<g id="73965404" transform="translate(-269.902404, -44.160743) rotate(0.0) scale(23.520336, 23.520336)">
<g id="39bacf63" stroke="none" fill-opacity="1.000000" fill="#b1004e">
<path id="curve.0000" d="M 0.500000 0.0 C 0.500000 0.276142,0.276142 0.500000,0.0 0.500000 C -0.276142 0.500000,-0.500000 0.276142,-0.500000 0.0 C -0.500000 -0.276142,-0.276142 -0.500000,0.0 -0.500000 C 0.276142 -0.500000,0.500000 -0.276142,0.500000 0.0 Z"></path>
</g>
</g>

<g id="6581cc2b" transform="translate(-270.393890, -56.684848) rotate(0.0) scale(23.961656, 23.961656)">
<g id="3bfacee7" stroke="none" fill-opacity="1.000000" fill="#be0041">
<path id="curve.0000" d="M 0.500000 0.0 C 0.500000 0.276142,0.276142 0.500000,0.0 0.500000 C -0.276142 0.500000,-0.500000 0.276142,-0.500000 0.0 C -0.500000 -0.276142,-0.276142 -0.500000,0.0 -0.500000 C 0.276142 -0.500000,0.500000 -0.276142,0.500000 0.0 Z"></path>
</g>
</g>

<g id="54d4cf2c" transform="translate(-269.080200, -69.578071) rotate(0.0) scale(24.329759, 24.329759)">
<g id="2f2e8dd3" stroke="none" fill-opacity="1.000000" fill="#cb0034">
<path id="curve.0000" d="M 0.500000 0.0 C 0.500000 0.276142,0.276142 0.500000,0.0 0.500000 C -0.276142 0.500000,-0.500000 0.276142,-0.500000 0.0 C -0.500000 -0.276142,-0.276142 -0.500000,0.0 -0.500000 C 0.276142 -0.500000,0.500000 -0.276142,0.500000 0.0 Z"></path>
</g>
</g>

<g id="42cee327" transform="translate(-265.850891, -82.760093) rotate(0.0) scale(24.620481, 24.620481)">
<g id="7284d11f" stroke="none" fill-opacity="1.000000" fill="#d80027">
<path id="curve.0000" d="M 0.500000 0.0 C 0.500000 0.276142,0.276142 0.500000,0.0 0.500000 C -0.276142 0.500000,-0.500000 0.276142,-0.500000 0.0 C -0.500000 -0.276142,-0.276142 -0.500000,0.0 -0.500000 C 0.276142 -0.500000,0.500000 -0.276142,0.500000 0.0 Z"></path>
</g>
</g>

<g id="291f9a89" transform="translate(-260.911346, -95.302505) rotate(0.0) scale(24.830526, 24.830526)">
<g id="239ccf35" stroke="none" fill-opacity="1.000000" fill="#e5001a">
<path id="curve.0000" d="M 0.500000 0.0 C 0.500000 0.276142,0.276142 0.500000,0.0 0.500000 C -0.276142 0.500000,-0.500000 0.276142,-0.500000 0.0 C -0.500000 -0.276142,-0.276142 -0.500000,0.0 -0.500000 C 0.276142 -0.500000,0.500000 -0.276142,0.500000 0.0 Z"></path>
</g>
</g>

<g id="7744ee70" transform="translate(-254.569137, -106.525711) rotate(0.0) scale(24.957509, 24.957509)">
<g id="52cd29fd" stroke="none" fill-opacity="1.000000" fill="#f2000d">
<path id="curve.0000" d="M 0.500000 0.0 C 0.500000 0.276142,0.276142 0.500000,0.0 0.500000 C -0.276142 0.500000,-0.500000 0.276142,-0.500000 0.0 C -0.500000 -0.276142,-0.276142 -0.500000,0.0 -0.500000 C 0.276142 -0.500000,0.500000 -0.276142,0.500000 0.0 Z"></path>
</g>
</g>

<g id="17eda1f6" transform="translate(-246.959701, -116.428886) rotate(0.0) scale(25.000000, 25.000000)">
<g id="32eb07c6" stroke="none" fill-opacity="1.000000" fill="#ff0000">
<path id="curve.0000" d="M 0.500000 0.0 C 0.500000 0.276142,0.276142 0.500000,0.0 0.500000 C -0.276142 0.500000,-0.500000 0.276142,-0.500000 0.0 C -0.500000 -0.276142,-0.276142 -0.500000,0.0 -0.500000 C 0.276142 -0.500000,0.500000 -0.276142,0.500000 0.0 Z"></path>
</g>
</g>

</g>
</svg>
