<svg id="Layer_1" data-name="Layer 1" xmlns="http://www.w3.org/2000/svg" viewBox="0 0 117.85 93.91"><path d="M82,328l-.09-.55L79,331.77c-4.29-3.1-8.31-6.44-11.27-10.8-2.41-3.56-4.54-7.32-6.74-11-.8-1.33-1.46-2.75-2.21-4.11-.57-1-.73-1.86.36-2.81s1.48-2.07,2.34-3a29,29,0,0,1,7.87-6.17,8.48,8.48,0,0,0,4.6-6.82,85.42,85.42,0,0,0,.92-8.56A38.85,38.85,0,0,1,78,263.32a2.11,2.11,0,0,1,.2-.43c2.27-3.1,2-7,3.08-10.42a1.28,1.28,0,0,0-.3-.95c-1.34-1.78-2.76-3.53-3.24-5.77a38,38,0,0,1-.87-5.49c-.1-1.49,1.89-2.64,3.41-2.36a13.87,13.87,0,0,1,4.59,1.52A8.51,8.51,0,0,1,88,242.1a43.84,43.84,0,0,1,3.4,6,12.29,12.29,0,0,1,.72,4.3c.17,3.53.11,7.07.31,10.59a14.58,14.58,0,0,0,1.71,6.62,1.28,1.28,0,0,0,1.16.38,27.77,27.77,0,0,0,5.86-2.65c3.39-2.46,7.38-2.87,11.19-3.92,3.13-.86,6.21-1.89,9.34-2.76q8.25-2.28,16.54-4.44a10.15,10.15,0,0,1,2.47-.1c6.22,0,12.22-1.53,18.25-2.78a9.15,9.15,0,0,1,9.27,4c.63,1.05,1.5.77,2.27.54a5.2,5.2,0,0,1,4.11.35,2.06,2.06,0,0,1,.81.63,5,5,0,0,1-1.33,6.72,26,26,0,0,1-5.94,2.9c-5.49,1.78-11,3.31-16.15,6.16-2.6,1.45-5.75,1.9-8.65,2.81-.87.28-1.71.61-2.57.91l.1.5c1.14-.1,2.27-.17,3.4-.3.83-.09,1.65-.28,2.48-.37a5.86,5.86,0,0,1,5.87,4c.68,1.9,1.14,3.87,1.67,5.82a1.86,1.86,0,0,1-.73,2.11c-.39.32-.63.82-1,1.15-.53.47-1.13.88-1.71,1.3-.28.19-.6.33-1,.53a29.25,29.25,0,0,1,2.2,3.22,11.24,11.24,0,0,1,.8,2.81c.16.73.15,1.51.35,2.23a4.41,4.41,0,0,1-2.19,5.25c-3.14,1.5-6.29,3-9.52,4.31-1.94.77-4.08,1-6.05,1.73a102.26,102.26,0,0,1-16.72,4c-2.49.46-5.05.61-7.59.82-4.22.34-8.43.62-12.65.92a3.77,3.77,0,0,1-1.54,0c-1.77-.65-3.44,0-5.13.3-2.67.48-4.07,2.69-5.75,4.44C84.63,324.64,83.34,326.33,82,328Zm25.3-21-.14.36c-.69-.12-1.38-.22-2.07-.38-2.5-.6-4.42-1.82-5.24-4.48a27.42,27.42,0,0,1-1.44-7.07c-.15-3.61-1.15-7.18-1.59-10.79-.49-4-2.14-7.65-3.36-11.43a4.73,4.73,0,0,0-.58-1.17c-.71-1.08-1.49-2.12-2.18-3.22-.8-1.28-1.5-2.62-2.3-3.91a6.24,6.24,0,0,1-.47-5.41l1.71,4.26.39-.11c0-.22,0-.44,0-.66.21-3.26.42-6.52.61-9.79a5,5,0,0,0,0-1.89c-1.42-4-3.29-7.71-6.63-10.58a6.09,6.09,0,0,0-4.93-1.48c-.77.08-1.18.36-1.19,1.28a14.75,14.75,0,0,0,3.52,9.85,5.7,5.7,0,0,0,1.22.88,5.22,5.22,0,0,0-1,1.61c-.5,2.41-.83,4.86-1.26,7.29-.17,1-.43,1.9-.66,2.85a.85.85,0,0,1-.23-.65c0-.16,0-.33-.07-.49-2,4.32-3.92,8.62-3.89,13.51,0,2.7-.24,5.41-.43,8.11-.13,1.75-.54,3.5-.5,5.23a4.29,4.29,0,0,1-1,3,9.23,9.23,0,0,1-2.49,2.22c-4.47,2.49-8,6-11.66,9.71,5.11,9.6,9.77,19.48,19,25.63l11.07-12.1h2c-2-1.8-4.31-2.77-5.63-4.88,1.63.38,2.35,2.19,4.13,2.57L86,310.74l.18-.18,3.47,3.09C89.32,310,87,307.5,85,304.78l.39-.24,6.24,9.09-.33.23-1.09-1.29a7,7,0,0,0,2.47,3.86,1,1,0,0,0,.86,0c4.75-2.52,10-3.43,15.17-4.38,1.65-.31,3.32-.52,5.16-.79-1.1-3.36-3.94-5.24-5.37-8.1a102.36,102.36,0,0,1,7.39,7.49,1.74,1.74,0,0,0,1.67.68c2.07-.13,4.14-.23,6.21-.35l5.81-.39-1.64-5-12.56-2.43,2.13,4.4-.35.18-.94-1.62c-.91-1.56-1.37-3.42-3.1-4.42a3.56,3.56,0,0,1-.8-.88c-.55-.66-1.4-1.26-1.54-2a5.79,5.79,0,0,1,.48-2.86,20.94,20.94,0,0,1,1.48-2.75,14.33,14.33,0,0,1-1.39-1.3,2.44,2.44,0,0,1-.65-1.34,14.82,14.82,0,0,1,.34-3.33,2.94,2.94,0,0,1,1-1.74c1.43-.87,3-1.52,4.42-2.23l-2.83-7.81.41-.16c1,2.68,2,5.36,3.07,8.1,1-.13,2.11-.32,3.18-.35a1.11,1.11,0,0,0,1.21-1c.89-4.65,4-7.54,7.76-9.93a1.54,1.54,0,0,0,.55-1.34,2.55,2.55,0,0,0-1-1.22,8.27,8.27,0,0,0-1.53-.73l.16-.33a16.08,16.08,0,0,1,2.57,1.25,1.44,1.44,0,0,0,1.93.05,8.5,8.5,0,0,1,1.41-1.17,35,35,0,0,1,4.2-1.62c1.71-.54,3.48-.9,5.21-1.4,7.12-2.06,14.23-4.15,21.35-6.2,1.4-.41,2.84-.72,4.34-1.09-2.39-3.71-6-5.17-10-4.19-1.22.3-2.42.73-3.64,1-1.67.36-3.36.62-5,.92a90.54,90.54,0,0,1-9.18,1.52,28,28,0,0,0-6.29,1.06,40,40,0,0,1-6.5,1.73,47.54,47.54,0,0,0-13.39,3.82c-.28.12-.54.28-.81.42l.08.36c3.9-1.28,7.61-.63,11.23.87a.52.52,0,0,1-.48.14,1,1,0,0,1-.45-.15c-1.73-1.23-3.65-.8-5.54-.63-3,.27-6,.66-9,.69a7.66,7.66,0,0,0-3.39.76,9,9,0,0,0-1.64,1.33l.15.75-4.94.53c3.42,1.23,5.12,2.86,4.56,4.74-2-2.81-4.86-3.13-7.92-3l.87.39-.08.25-2.45-.43a1.36,1.36,0,0,0,.16.42,38.69,38.69,0,0,0,2.67,2.9,13.2,13.2,0,0,1,4.39,8.47,25,25,0,0,1-.65,6.85c-.33,1.91-1.16,3.74-1.4,5.64-.59,4.57.47,8.26,5.19,10.27A20.12,20.12,0,0,1,107.27,307Zm27-26.28-.11-.55c.41-.19.82-.36,1.22-.57a5.13,5.13,0,0,0,.73-.52c.52-.41,1-1.06,1.57-1.23,2.44-.69,4.91-1.32,7.39-1.82a23.86,23.86,0,0,0,7.87-2.94,30.33,30.33,0,0,1,5.43-2.73c2.42-.86,5-1.35,7.47-2,2.83-.78,5.72-1.44,8-3.44,1.53-1.31,1.45-2.91.15-5.43-.42-.81-2.17-1-3.61-.57-3,.8-6,1.5-9,2.22-1.58.39-3.2.64-4.75,1.11-.95.29-1.78,1-2.72,1.28q-3.1,1.08-6.26,2c-3.22.9-6.5,1.63-9.68,2.64a25.35,25.35,0,0,0-5.35,2.45,7.11,7.11,0,0,0-2.16,2.47c-.3.49-.14,1.26-.19,1.9l-.23,0-.77-2.13c-.68.47-1.37,1-2.11,1.42a11.56,11.56,0,0,0-5.18,6.78c-.51,1.5-.2,2.05,1.43,2,3-.05,6-.19,9-.4s6-.58,9-.82c.34,0,.7.34,1.06.52a5.51,5.51,0,0,1-1,1c-.38.23-.91.19-1.32.38-1.42.67-2.69,1.7-4.4,1.66-.83,0-1.66.26-2.48.25-3.14,0-6.28-.13-9.42-.22-1,0-2-.09-2.94-.14a3.19,3.19,0,0,0,1.06,1,4.9,4.9,0,0,1,1.16.81c.48.6-.07,4.09-.61,4.68s-.92,1.1-1.47,1.76c.42.11.6.18.8.21a73.19,73.19,0,0,0,18.47-.11,26.76,26.76,0,0,0,12.29-4.56c.59-.41,1.08-.75.83-1.62-.36-1.22-.63-2.48-.9-3.73a4.19,4.19,0,0,0-2.6-3.3c-1.36-.53-2.78-.93-4.18-1.34-.2-.06-.45.13-.69.17-1.69.27-3.38.56-5.08.78C138.17,280.32,136.14,279.17,134.25,280.71Zm15,22.24.12.14a2.89,2.89,0,0,1-.8.47c-1.86.28-3.72.57-5.58.77-2.81.3-5.62.51-8.43.78-1.67.16-3.34.37-5,.55a4.54,4.54,0,0,0,2.42,4.78,4,4,0,0,0,5.19-1.86,1.36,1.36,0,0,0,2.27.31c-.44-1.19-.87-2.34-1.29-3.5l.41-.2,1.74,3.35,3.19-1.93-.3-.83c.61,0,1.29.22,1.61,0,1.61-1.23,3.49-1.27,5.35-1.39.63,0,1-.24,1.06-.84.7-4,.44-6-2.74-8.78a5.92,5.92,0,0,0-1.41-.57,17.46,17.46,0,0,1-7.68,1.12c-1.27-.05-2.56-.07-3.83,0-4.94.17-9.88.66-14.76-.61a3.38,3.38,0,0,0-1,0,1.49,1.49,0,0,0,.07.28,1.4,1.4,0,0,0,.35.3,2.42,2.42,0,0,1,1.52,3.35,4.5,4.5,0,0,0-.07.83c-.25,1.55-.73,2.13-2.26,2.26s-2.93,0-4.4,0a9.78,9.78,0,0,0,3.38,1.13c1.29.16,2.62-.08,3.9.08,2.51.31,5,.79,7.51,1.18a2,2,0,0,0,2.6-1.47,14.88,14.88,0,0,0,.6-2.56c.15-1,.18-2.09.26-3.13l.36,0c.11,2.24.25,4.49-1.14,6.53a2.68,2.68,0,0,0-.24.83,2.59,2.59,0,0,0,.75.19c1.27,0,2.55-.1,3.82-.17,2.5-.14,5-.19,7.51-.45A48.48,48.48,0,0,0,149.21,303ZM110.9,290.32c.9.65,1.77,1.29,2.65,1.9,1.93,1.33,4.19,1.14,6.34,1.21,1.27,0,2.92-2.41,3-3.95a3.23,3.23,0,0,0-2.06-3.09c-2.87-1.53-5.74-.6-8.62-.27-.3,0-.69.62-.79,1C111.19,288.13,111.08,289.17,110.9,290.32ZM118,301.27c2.16-.26,2.19-.28,2.75-2.31a2.76,2.76,0,0,0,.24-1.15c-.17-.69-.32-1.64-.81-1.95a12,12,0,0,0-3.36-1.36c-.79-.21-1.68,0-2.5-.18a1.73,1.73,0,0,0-2.19,1.14c-.8,2.15-.69,3.55.3,4.21a1.31,1.31,0,0,0,.33.12Zm-3.58-16.43,4.14-.26C117.7,284,116.29,284.07,114.41,284.84Z" transform="translate(-58.31 -237.86)"/></svg>