<svg xmlns="http://www.w3.org/2000/svg" xmlns:xlink="http://www.w3.org/1999/xlink" viewBox="0 0 512 512">
<g transform="translate(256.0, 256.0) rotate(0.0) scale(128.0, 128.0)">
<g stroke-width="0.0078125" stroke-opacity="1.00" stroke="#202020" fill-opacity="1.00" fill="#9ad8e2">
<path d="M -1.0000 0.0000 C -0.9166 0.0833,-0.8333 0.1666,-0.7500 0.2500 C -0.7500 0.4166,-0.7500 0.5833,-0.7500 0.7500 C -0.5833 0.7500,-0.4166 0.7500,-0.2500 0.7500 C -0.1666 0.8333,-0.0833 0.9166,0.0000 1.0000 C 0.0833 0.9166,0.1666 0.8333,0.2500 0.7500 C 0.4166 0.7500,0.5833 0.7500,0.7500 0.7500 C 0.7500 0.5833,0.7500 0.4166,0.7500 0.2500 C 0.8333 0.1666,0.9166 0.0833,1.0000 0.0000 C 0.9166 -0.0833,0.8333 -0.1666,0.7500 -0.2500 C 0.7500 -0.4166,0.7500 -0.5833,0.7500 -0.7500 C 0.5833 -0.7500,0.4166 -0.7500,0.2500 -0.7500 C 0.1666 -0.8333,0.0833 -0.9166,0.0000 -1.0000 C -0.0833 -0.9166,-0.1666 -0.8333,-0.2500 -0.7500 C -0.4166 -0.7500,-0.5833 -0.7500,-0.7500 -0.7500 C -0.7500 -0.5833,-0.7500 -0.4166,-0.7500 -0.2500 C -0.8333 -0.1666,-0.9166 -0.0833,-1.0000 0.0000 Z"></path>
</g>
</g>
</svg>