<svg xmlns="http://www.w3.org/2000/svg" xmlns:xlink="http://www.w3.org/1999/xlink" width="720" height="405" viewBox="0 0 720 405">
<path id="background" d="M 0.0 0.0 L 720.0 0.0 L 720.0 405.0 L 0.0 405.0 Z" stroke="none" fill-opacity="1.000000" fill="#202020"></path>
<g id="camera" transform="translate(360.000000, 202.500000) scale(0.749999, -0.749999) rotate(0.0) translate(-465.735961, -86.299400)">
<g id="2353b3e6" class="materialsolid" stroke-width="0.004629" stroke-opacity="1.000000" stroke="#fff7d5" stroke-linejoin="round" stroke-linecap="round" fill-opacity="1.000000" fill="#4f4f4f">
<path id="quigley" class="curveentity2" fill-rule="evenodd" transform="translate(0.0, 0.0) rotate(0.0) scale(288.000000, 288.000000)" d="M 0.406250 0.004394 C 0.467773 0.023274,0.514648 0.061604,0.546875 0.119384 C 0.579101 0.177164,0.595214 0.251302,0.595214 0.341796 C 0.595214 0.413085,0.585205 0.473551,0.565185 0.523193 C 0.545166 0.572835,0.515380 0.610433,0.475830 0.635986 C 0.436279 0.661539,0.387532 0.674316,0.329589 0.674316 C 0.275227 0.674316,0.227457 0.660725,0.186279 0.633544 C 0.145100 0.606363,0.113444 0.566731,0.091308 0.514648 C 0.069173 0.462565,0.058105 0.400227,0.058105 0.327636 C 0.058105 0.222167,0.078857 0.140950,0.120361 0.083984 C 0.161865 0.027018,0.223144 -0.003417,0.304199 -0.007324 C 0.315755 -0.024414,0.327311 -0.041503,0.338867 -0.058593 C 0.358072 -0.087239,0.375000 -0.109863,0.389648 -0.126464 C 0.404296 -0.143066,0.417561 -0.155436,0.429443 -0.163574 C 0.441324 -0.171712,0.453287 -0.177571,0.465332 -0.181152 C 0.477376 -0.184733,0.492675 -0.186523,0.511230 -0.186523 C 0.534342 -0.186523,0.556803 -0.180989,0.578613 -0.169921 C 0.600423 -0.158854,0.624023 -0.140625,0.649414 -0.115234 C 0.641601 -0.105143,0.633789 -0.095052,0.625976 -0.084960 C 0.613932 -0.096679,0.601399 -0.105875,0.588378 -0.112548 C 0.575358 -0.119222,0.559895 -0.122558,0.541992 -0.122558 C 0.535481 -0.122558,0.528645 -0.121337,0.521484 -0.118896 C 0.514322 -0.116455,0.506754 -0.112386,0.498779 -0.106689 C 0.490804 -0.100992,0.482340 -0.093505,0.473388 -0.084228 C 0.464436 -0.074951,0.456054 -0.065185,0.448242 -0.054931 C 0.440429 -0.044677,0.432128 -0.033203,0.423339 -0.020507 C 0.417643 -0.012207,0.411946 -0.003906,0.406250 0.004394 Z M 0.158691 0.341308 C 0.158691 0.385253,0.161865 0.425130,0.168212 0.460937 C 0.174560 0.496744,0.184651 0.527262,0.198486 0.552490 C 0.212320 0.577718,0.229736 0.597167,0.250732 0.610839 C 0.271728 0.624511,0.296875 0.631347,0.326171 0.631347 C 0.359375 0.631347,0.388509 0.620768,0.413574 0.599609 C 0.438639 0.578450,0.458414 0.544515,0.472900 0.497802 C 0.487386 0.451090,0.494628 0.392252,0.494628 0.321289 C 0.494628 0.263020,0.488444 0.212076,0.476074 0.168457 C 0.463704 0.124837,0.445149 0.091715,0.420410 0.069091 C 0.395670 0.046468,0.365559 0.035156,0.330078 0.035156 C 0.274088 0.035156,0.231526 0.061197,0.202392 0.113281 C 0.173258 0.165364,0.158691 0.241373,0.158691 0.341308 Z M 0.691894 0.466796 C 0.691894 0.458821,0.691894 0.450846,0.691894 0.442871 C 0.712076 0.437662,0.725179 0.432047,0.731201 0.426025 C 0.737223 0.420003,0.741292 0.411865,0.743408 0.401611 C 0.745524 0.391357,0.746582 0.372558,0.746582 0.345214 C 0.746582 0.283691,0.746582 0.222167,0.746582 0.160644 C 0.746582 0.118326,0.751302 0.085530,0.760742 0.062255 C 0.770182 0.038981,0.784505 0.021484,0.803710 0.009765 C 0.822916 -0.001953,0.847330 -0.007812,0.876953 -0.007812 C 0.901692 -0.007812,0.926350 -0.000976,0.950927 0.012695 C 0.975504 0.026367,1.001302 0.047851,1.028320 0.077148 C 1.030761 0.076497,1.033203 0.075846,1.035644 0.075195 C 1.034667 0.048502,1.033691 0.021809,1.032714 -0.004882 C 1.042643 -0.004882,1.052571 -0.004882,1.062500 -0.004882 C 1.099772 -0.003255,1.137044 -0.001627,1.174316 0.0 C 1.174316 0.008463,1.174316 0.016927,1.174316 0.025390 C 1.156738 0.028971,1.144531 0.032796,1.137695 0.036865 C 1.130859 0.040934,1.125813 0.046223,1.122558 0.052734 C 1.119303 0.059244,1.117187 0.068033,1.116210 0.079101 C 1.115234 0.090169,1.114746 0.108235,1.114746 0.133300 C 1.114746 0.244466,1.114746 0.355631,1.114746 0.466796 C 1.068359 0.466796,1.021972 0.466796,0.975585 0.466796 C 0.975585 0.458821,0.975585 0.450846,0.975585 0.442871 C 0.988281 0.439615,0.997477 0.436523,1.003173 0.433593 C 1.008870 0.430664,1.013265 0.427408,1.016357 0.423828 C 1.019449 0.420247,1.022135 0.415608,1.024414 0.409912 C 1.026692 0.404215,1.028320 0.396647,1.029296 0.387207 C 1.030273 0.377766,1.030761 0.363769,1.030761 0.345214 C 1.030761 0.284179,1.030761 0.223144,1.030761 0.162109 C 1.030761 0.146158,1.027750 0.132161,1.021728 0.120117 C 1.015706 0.108072,1.005696 0.095947,0.991699 0.083740 C 0.977701 0.071533,0.965006 0.062988,0.953613 0.058105 C 0.942220 0.053222,0.930338 0.050781,0.917968 0.050781 C 0.899088 0.050781,0.884277 0.054199,0.873535 0.061035 C 0.862793 0.067871,0.854492 0.076334,0.848632 0.086425 C 0.842773 0.096516,0.838379 0.111490,0.835449 0.131347 C 0.832519 0.151204,0.831054 0.180175,0.831054 0.218261 C 0.831054 0.301106,0.831054 0.383951,0.831054 0.466796 C 0.784668 0.466796,0.738281 0.466796,0.691894 0.466796 Z M 1.390136 0.658203 C 1.360188 0.658203,1.330240 0.658203,1.300292 0.658203 C 1.300292 0.626627,1.300292 0.595052,1.300292 0.563476 C 1.330240 0.563476,1.360188 0.563476,1.390136 0.563476 C 1.390136 0.595052,1.390136 0.626627,1.390136 0.658203 Z M 1.250488 0.023925 C 1.250488 0.015950,1.250488 0.007975,1.250488 0.0 C 1.314290 0.0,1.378092 0.0,1.441894 0.0 C 1.441894 0.007975,1.441894 0.015950,1.441894 0.023925 C 1.425292 0.028157,1.413330 0.033121,1.406005 0.038818 C 1.398681 0.044514,1.393717 0.052815,1.391113 0.063720 C 1.388509 0.074625,1.387207 0.094075,1.387207 0.122070 C 1.387207 0.238444,1.387207 0.354817,1.387207 0.471191 C 1.377278 0.471191,1.367350 0.471191,1.357421 0.471191 C 1.319498 0.469726,1.281575 0.468261,1.243652 0.466796 C 1.243652 0.458170,1.243652 0.449544,1.243652 0.440917 C 1.258300 0.438313,1.269612 0.435139,1.277587 0.431396 C 1.285563 0.427653,1.291503 0.421956,1.295410 0.414306 C 1.299316 0.406656,1.301595 0.396484,1.302246 0.383789 C 1.302897 0.371093,1.303222 0.354329,1.303222 0.333496 C 1.303222 0.262532,1.303222 0.191569,1.303222 0.120605 C 1.303222 0.097819,1.302164 0.081054,1.300048 0.070312 C 1.297932 0.059570,1.295003 0.051595,1.291259 0.046386 C 1.287516 0.041178,1.282958 0.037109,1.277587 0.034179 C 1.272216 0.031250,1.263183 0.027832,1.250488 0.023925 Z M 1.969726 0.417480 C 1.969726 0.433919,1.969726 0.450358,1.969726 0.466796 C 1.912109 0.466796,1.854492 0.466796,1.796875 0.466796 C 1.773763 0.472330,1.750488 0.475097,1.727050 0.475097 C 1.701009 0.475097,1.676757 0.471761,1.654296 0.465087 C 1.631835 0.458414,1.612386 0.448323,1.595947 0.434814 C 1.579508 0.421305,1.566650 0.404215,1.557373 0.383544 C 1.548095 0.362874,1.543457 0.338541,1.543457 0.310546 C 1.543457 0.280598,1.549560 0.253906,1.561767 0.230468 C 1.573974 0.207031,1.591796 0.188476,1.615234 0.174804 C 1.588867 0.154947,1.570475 0.137288,1.560058 0.121826 C 1.549641 0.106363,1.544433 0.089355,1.544433 0.070800 C 1.544433 0.054524,1.548828 0.040364,1.557617 0.028320 C 1.566406 0.016276,1.578450 0.007161,1.593750 0.000976 C 1.568684 -0.011718,1.549316 -0.026448,1.535644 -0.043212 C 1.521972 -0.059977,1.515136 -0.078613,1.515136 -0.099121 C 1.515136 -0.121907,1.520426 -0.140869,1.531005 -0.156005 C 1.541585 -0.171142,1.556559 -0.183349,1.575927 -0.192626 C 1.595296 -0.201904,1.618571 -0.208496,1.645751 -0.212402 C 1.672933 -0.216308,1.702962 -0.218261,1.735839 -0.218261 C 1.780110 -0.218261,1.818847 -0.211588,1.852050 -0.198242 C 1.885253 -0.184895,1.910644 -0.166259,1.928222 -0.142333 C 1.945800 -0.118408,1.954589 -0.091145,1.954589 -0.060546 C 1.954589 -0.036458,1.949951 -0.015380,1.940673 0.002685 C 1.931396 0.020751,1.915852 0.035156,1.894042 0.045898 C 1.872233 0.056640,1.844075 0.062011,1.809570 0.062011 C 1.770507 0.062011,1.731445 0.062011,1.692382 0.062011 C 1.670247 0.062011,1.653727 0.063313,1.642822 0.065917 C 1.631917 0.068522,1.624104 0.072916,1.619384 0.079101 C 1.614664 0.085286,1.612304 0.094401,1.612304 0.106445 C 1.612304 0.124674,1.624674 0.143229,1.649414 0.162109 C 1.668945 0.155273,1.692220 0.151855,1.719238 0.151855 C 1.779459 0.151855,1.825927 0.166259,1.858642 0.195068 C 1.891357 0.223876,1.907714 0.264811,1.907714 0.317871 C 1.907714 0.338053,1.904785 0.356852,1.898925 0.374267 C 1.893066 0.391682,1.885091 0.405436,1.875000 0.415527 C 1.876464 0.417317,1.877929 0.419108,1.879394 0.420898 C 1.909505 0.419759,1.939616 0.418619,1.969726 0.417480 Z M 1.630859 0.318359 C 1.630859 0.357096,1.638997 0.386718,1.655273 0.407226 C 1.671549 0.427734,1.695149 0.437988,1.726074 0.437988 C 1.744303 0.437988,1.760416 0.433512,1.774414 0.424560 C 1.788411 0.415608,1.799479 0.401529,1.807617 0.382324 C 1.815755 0.363118,1.819824 0.339192,1.819824 0.310546 C 1.819824 0.294596,1.818115 0.279378,1.814697 0.264892 C 1.811279 0.250406,1.805908 0.237630,1.798583 0.226562 C 1.791259 0.215494,1.781738 0.206787,1.770019 0.200439 C 1.758300 0.194091,1.744140 0.190917,1.727539 0.190917 C 1.696289 0.190917,1.672363 0.201985,1.655761 0.224121 C 1.639160 0.246256,1.630859 0.277669,1.630859 0.318359 Z M 1.643066 -0.007812 C 1.663248 -0.009765,1.686523 -0.010742,1.712890 -0.010742 C 1.737141 -0.010742,1.761393 -0.010742,1.785644 -0.010742 C 1.804524 -0.010742,1.819824 -0.012776,1.831542 -0.016845 C 1.843261 -0.020914,1.852294 -0.026367,1.858642 -0.033203 C 1.864990 -0.040039,1.869303 -0.047770,1.871582 -0.056396 C 1.873860 -0.065022,1.875000 -0.073893,1.875000 -0.083007 C 1.875000 -0.102539,1.869466 -0.119628,1.858398 -0.134277 C 1.847330 -0.148925,1.831298 -0.160156,1.810302 -0.167968 C 1.789306 -0.175781,1.764160 -0.179687,1.734863 -0.179687 C 1.687011 -0.179687,1.651448 -0.172770,1.628173 -0.158935 C 1.604899 -0.145100,1.593261 -0.123535,1.593261 -0.094238 C 1.593261 -0.076660,1.597412 -0.060953,1.605712 -0.047119 C 1.614013 -0.033284,1.626464 -0.020182,1.643066 -0.007812 Z M 2.162109 0.122070 C 2.162109 0.314290,2.162109 0.506510,2.162109 0.698730 C 2.152343 0.698730,2.142578 0.698730,2.132812 0.698730 C 2.093587 0.697102,2.054362 0.695475,2.015136 0.693847 C 2.015136 0.685384,2.015136 0.676920,2.015136 0.668457 C 2.031738 0.665527,2.043212 0.662597,2.049560 0.659667 C 2.055908 0.656738,2.060953 0.652832,2.064697 0.647949 C 2.068440 0.643066,2.071370 0.636311,2.073486 0.627685 C 2.075602 0.619059,2.076904 0.608561,2.077392 0.596191 C 2.077880 0.583821,2.078125 0.562011,2.078125 0.530761 C 2.078125 0.394531,2.078125 0.258300,2.078125 0.122070 C 2.078125 0.104492,2.077555 0.090250,2.076416 0.079345 C 2.075276 0.068440,2.073323 0.059814,2.070556 0.053466 C 2.067789 0.047119,2.063232 0.041666,2.056884 0.037109 C 2.050537 0.032552,2.039225 0.028157,2.022949 0.023925 C 2.022949 0.015950,2.022949 0.007975,2.022949 0.0 C 2.087565 0.0,2.152181 0.0,2.216796 0.0 C 2.216796 0.007975,2.216796 0.015950,2.216796 0.023925 C 2.200195 0.028157,2.188232 0.033121,2.180908 0.038818 C 2.173583 0.044514,2.168619 0.052815,2.166015 0.063720 C 2.163411 0.074625,2.162109 0.094075,2.162109 0.122070 Z M 2.687500 0.083007 C 2.677571 0.093587,2.667643 0.104166,2.657714 0.114746 C 2.636556 0.092285,2.615315 0.076090,2.593994 0.066162 C 2.572672 0.056233,2.548665 0.051269,2.521972 0.051269 C 2.490397 0.051269,2.464762 0.058675,2.445068 0.073486 C 2.425374 0.088297,2.411214 0.108805,2.402587 0.135009 C 2.393961 0.161214,2.389648 0.193522,2.389648 0.231933 C 2.389648 0.234863,2.389648 0.237792,2.389648 0.240722 C 2.492187 0.240722,2.594726 0.240722,2.697265 0.240722 C 2.696289 0.284993,2.691976 0.320882,2.684326 0.348388 C 2.676676 0.375895,2.665934 0.398681,2.652099 0.416748 C 2.638265 0.434814,2.619791 0.449056,2.596679 0.459472 C 2.573567 0.469889,2.545572 0.475097,2.512695 0.475097 C 2.470703 0.475097,2.433593 0.465006,2.401367 0.444824 C 2.369140 0.424641,2.344319 0.395996,2.326904 0.358886 C 2.309489 0.321777,2.300781 0.278971,2.300781 0.230468 C 2.300781 0.152018,2.317871 0.092692,2.352050 0.052490 C 2.386230 0.012288,2.436849 -0.007812,2.503906 -0.007812 C 2.528971 -0.007812,2.551920 -0.004313,2.572753 0.002685 C 2.593587 0.009684,2.612711 0.019368,2.630126 0.031738 C 2.647542 0.044108,2.666666 0.061197,2.687500 0.083007 Z M 2.605468 0.281250 C 2.534342 0.281250,2.463216 0.281250,2.392089 0.281250 C 2.395670 0.331054,2.407470 0.369384,2.427490 0.396240 C 2.447509 0.423095,2.474283 0.436523,2.507812 0.436523 C 2.529947 0.436523,2.547851 0.430582,2.561523 0.418701 C 2.575195 0.406819,2.585449 0.389729,2.592285 0.367431 C 2.599121 0.345133,2.603515 0.316406,2.605468 0.281250 Z M 2.988281 -0.040039 C 3.047200 0.092285,3.106119 0.224609,3.165039 0.356933 C 3.174479 0.377766,3.182617 0.393961,3.189453 0.405517 C 3.196289 0.417073,3.203125 0.425537,3.209960 0.430908 C 3.216797 0.436279,3.226562 0.440266,3.239257 0.442871 C 3.239258 0.450846,3.239258 0.458821,3.239257 0.466796 C 3.178385 0.466796,3.117513 0.466796,3.056640 0.466796 C 3.056640 0.458821,3.056640 0.450846,3.056640 0.442871 C 3.075520 0.438639,3.088785 0.432942,3.096435 0.425781 C 3.104085 0.418619,3.107910 0.408040,3.107910 0.394042 C 3.107910 0.384602,3.106364 0.374430,3.103271 0.363525 C 3.100179 0.352620,3.095866 0.340657,3.090332 0.327636 C 3.057780 0.249511,3.025228 0.171386,2.992675 0.093261 C 2.963704 0.174804,2.934733 0.256347,2.905761 0.337890 C 2.901204 0.350585,2.897867 0.361653,2.895751 0.371093 C 2.893636 0.380533,2.892578 0.389648,2.892578 0.398437 C 2.892578 0.406901,2.894042 0.413818,2.896972 0.419189 C 2.899902 0.424560,2.904459 0.428955,2.910644 0.432373 C 2.916829 0.435791,2.927571 0.439290,2.942871 0.442871 C 2.942871 0.450846,2.942871 0.458821,2.942871 0.466796 C 2.876627 0.466796,2.810384 0.466796,2.744140 0.466796 C 2.744140 0.458821,2.744140 0.450846,2.744140 0.442871 C 2.756835 0.439941,2.766276 0.436035,2.772460 0.431152 C 2.778645 0.426269,2.784423 0.419108,2.789794 0.409667 C 2.795166 0.400227,2.802246 0.383626,2.811035 0.359863 C 2.856608 0.237304,2.902181 0.114746,2.947753 -0.007812 C 2.933756 -0.036783,2.921142 -0.060709,2.909912 -0.079589 C 2.898681 -0.098470,2.888916 -0.112467,2.880615 -0.121582 C 2.872314 -0.130696,2.864339 -0.137125,2.856689 -0.140869 C 2.849039 -0.144612,2.840332 -0.146484,2.830566 -0.146484 C 2.819498 -0.146484,2.811035 -0.143880,2.805175 -0.138671 C 2.799316 -0.133463,2.794433 -0.124186,2.790527 -0.110839 C 2.776041 -0.110839,2.761556 -0.110839,2.747070 -0.110839 C 2.747070 -0.143066,2.747070 -0.175292,2.747070 -0.207519 C 2.769531 -0.211751,2.789713 -0.213867,2.807617 -0.213867 C 2.835612 -0.213867,2.859782 -0.207519,2.880126 -0.194824 C 2.900472 -0.182128,2.919108 -0.163248,2.936035 -0.138183 C 2.952962 -0.113118,2.970377 -0.080403,2.988281 -0.040039 Z "></path>
</g>

</g>
</svg>
