<svg xmlns="http://www.w3.org/2000/svg" xmlns:xlink="http://www.w3.org/1999/xlink" width="720" height="405" viewBox="0 0 720 405">
<rect id="background" x="0" y="0" width="720.0" height="405.0" stroke="none" fill="#fff7d5"></rect>
<g id="camera" transform="translate(360.000000, 202.500000) scale(1.000000, -1.000000) rotate(0.0) translate(0.0, 0.0)">
<g id="example" transform="translate(0.0, 0.0) rotate(567.0) scale(200.000000, 200.000000)">
<g id="b7dd107" stroke-width="0.037500" stroke-opacity="0.498039" stroke="#404040" stroke-linejoin="round" stroke-linecap="round" fill="none">
<path id="curve.0000" d="M -0.500000 0.500000 C -0.166666 0.500000,0.166666 0.500000,0.500000 0.500000 C 0.500000 0.375000,0.625000 0.250000,0.750000 0.250000 C 0.750000 0.083333,0.750000 -0.083333,0.750000 -0.250000 C 0.625000 -0.250000,0.500000 -0.375000,0.500000 -0.500000 C 0.166666 -0.500000,-0.166666 -0.500000,-0.500000 -0.500000 C -0.500000 -0.375000,-0.625000 -0.250000,-0.750000 -0.250000 C -0.750000 -0.083333,-0.750000 0.083333,-0.750000 0.250000 C -0.625000 0.250000,-0.500000 0.375000,-0.500000 0.500000 Z"></path>
</g>
</g>

</g>
</svg>
