<svg xmlns="http://www.w3.org/2000/svg" xmlns:xlink="http://www.w3.org/1999/xlink" viewBox="0 0 720 405">
<rect x="0" y="0" width="720.0" height="405.0" stroke="none" fill="#FFF7D5"></rect>
<g transform="translate(360.000000, 202.500000) scale(1.000000, -1.000000) rotate(-0.00) translate(-0.000000, -0.000000)">
<g id="example" transform="translate(0.000000, 0.000000) rotate(747.0) scale(200.000000, 200.000000)">
<g stroke-width="0.004999" stroke-opacity="1.000000" stroke="#202020" stroke-linejoin="round" stroke-linecap="round" fill="none">
<path d="M 0.743351 0.693024 C 1.084172 0.486704,0.646308 -0.127137,0.426527 -0.459437 C 0.320949 -0.619068,0.054975 -0.689263,-0.124165 -0.621905 C -0.475806 -0.489685,0.898125 -0.063374,0.638353 0.208014 C 0.353498 0.505609,-0.318478 0.270604,-0.568859 -0.056526 C -0.745861 -0.287783,0.102802 -0.460185,-0.010486 -0.728467 C -0.111227 -0.967033,-0.440336 -0.316856,-0.406537 -0.060107 C -0.383043 0.118366,-0.158035 0.282626,0.021477 0.269206"></path>
</g>
</g>

</g>
</svg>
