<svg xmlns="http://www.w3.org/2000/svg" xmlns:xlink="http://www.w3.org/1999/xlink" viewBox="0 0 720 405">
<rect id="background" x="0" y="0" width="720.0" height="405.0" stroke="none" fill="#FFF7D5"></rect>
<g id="camera" transform="translate(360.000000, 202.500000) scale(1.000000, -1.0) rotate(-0.0) translate(-0.0, -0.0)">
<g id="example" transform="translate(0.0, 0.0) rotate(2629.0) scale(200.000000, 200.000000)">
<g id="6950e31" stroke-width="0.037500" stroke-opacity="0.498039" stroke="#404040" stroke-linejoin="round" stroke-linecap="round" fill="none">
<path id="curve.0000" d="M -0.7230879 0.331138 C -0.6413455 0.686038,0.011451 0.237431,0.369192 0.305674 C 0.485662 0.327892,0.624702 0.404680,0.723347 0.338892 C 1.022420 0.139436,0.011748 0.116428,-0.2456212 -0.13454586 C -0.39575458 -0.28094894,-0.49210656 -0.5741748,-0.70171046 -0.56784415 C -1.0245003 -0.5580949,-0.5794567 0.095652,-0.37199286 0.343133 C -0.16440114 0.590767,0.290067 0.713258,0.573349 0.557797 C 0.881364 0.388761,0.527175 -0.3000946,0.199884 -0.42787135"></path>
</g>
</g>

</g>
</svg>
