# g: 1, v: 20, vt: 30, vn: 11, f: 36
o 12bb4df8

# v: 20, vt: 30, vn: 11, f: 36
g Cylinder

v 0.249999 0.0 -0.500000
v 0.191511 -0.160696 -0.500000
v 0.043412 -0.246201 -0.500000
v -0.124999 -0.216506 -0.500000
v -0.234923 -0.085505 -0.500000
v -0.234923 0.085505 -0.500000
v -0.124999 0.216506 -0.500000
v 0.043412 0.246201 -0.500000
v 0.191511 0.160696 -0.500000
v 0.249999 0.0 0.500000
v 0.191511 -0.160696 0.500000
v 0.043412 -0.246201 0.500000
v -0.124999 -0.216506 0.500000
v -0.234923 -0.085505 0.500000
v -0.234923 0.085505 0.500000
v -0.124999 0.216506 0.500000
v 0.043412 0.246201 0.500000
v 0.191511 0.160696 0.500000
v 0.0 0.0 -0.500000
v 0.0 0.0 0.500000

vt 1.000000 1.000000
vt 0.888888 1.000000
vt 0.777777 1.000000
vt 0.666666 1.000000
vt 0.555555 1.000000
vt 0.444444 1.000000
vt 0.333333 1.000000
vt 0.222222 1.000000
vt 0.111111 1.000000
vt 0.0 1.000000
vt 1.000000 0.0
vt 0.888888 0.0
vt 0.777777 0.0
vt 0.666666 0.0
vt 0.555555 0.0
vt 0.444444 0.0
vt 0.333333 0.0
vt 0.222222 0.0
vt 0.111111 0.0
vt 0.0 0.0
vt 0.0 0.500000
vt 0.116977 0.821393
vt 0.413175 0.992403
vt 0.750000 0.933012
vt 0.969846 0.671010
vt 0.969846 0.328989
vt 0.749999 0.066987
vt 0.413175 0.007596
vt 0.116977 0.178606
vt 0.500000 0.500000

vn 0.999999 0.0 0.0
vn 0.766044 -0.642787 0.0
vn 0.173648 -0.984807 0.0
vn -0.500000 -0.866025 0.0
vn -0.939692 -0.342020 0.0
vn -0.939692 0.342020 0.0
vn -0.499999 0.866025 0.0
vn 0.173648 0.984807 0.0
vn 0.766044 0.642787 0.0
vn 0.0 0.0 -0.999999
vn 0.0 0.0 0.999999

s off

f 1/1/1 10/11/1 11/12/2 
f 2/2/2 11/12/2 12/13/3 
f 3/3/3 12/13/3 13/14/4 
f 4/4/4 13/14/4 14/15/5 
f 5/5/5 14/15/5 15/16/6 
f 6/6/6 15/16/6 16/17/7 
f 7/7/7 16/17/7 17/18/8 
f 8/8/8 17/18/8 18/19/9 
f 9/9/9 18/19/9 10/20/1 
f 11/12/2 2/2/2 1/1/1 
f 12/13/3 3/3/3 2/2/2 
f 13/14/4 4/4/4 3/3/3 
f 14/15/5 5/5/5 4/4/4 
f 15/16/6 6/6/6 5/5/5 
f 16/17/7 7/7/7 6/6/6 
f 17/18/8 8/8/8 7/7/7 
f 18/19/9 9/9/9 8/8/8 
f 10/20/1 1/10/1 9/9/9 
f 19/30/10 1/21/10 2/22/10 
f 19/30/10 2/22/10 3/23/10 
f 19/30/10 3/23/10 4/24/10 
f 19/30/10 4/24/10 5/25/10 
f 19/30/10 5/25/10 6/26/10 
f 19/30/10 6/26/10 7/27/10 
f 19/30/10 7/27/10 8/28/10 
f 19/30/10 8/28/10 9/29/10 
f 19/30/10 9/29/10 1/21/10 
f 20/30/11 11/22/11 10/21/11 
f 20/30/11 12/23/11 11/22/11 
f 20/30/11 13/24/11 12/23/11 
f 20/30/11 14/25/11 13/24/11 
f 20/30/11 15/26/11 14/25/11 
f 20/30/11 16/27/11 15/26/11 
f 20/30/11 17/28/11 16/27/11 
f 20/30/11 18/29/11 17/28/11 
f 20/30/11 10/21/11 18/29/11 
