<svg xmlns="http://www.w3.org/2000/svg" xmlns:xlink="http://www.w3.org/1999/xlink" shape-rendering="geometricPrecision" width="720" height="405" viewBox="0 0 720 405">
<path id="background" d="M 0.0 0.0 L 720.0 0.0 L 720.0 405.0 L 0.0 405.0 Z" stroke="none" fill="#202020" />
<g id="camera" transform="translate(360.000000, 202.500000) scale(1.000000, -1.000000) rotate(0.0) translate(-332.497894, -93.230232)">
<g id="5c8da962" class="materialsolid" stroke-width="1.000000" stroke="#ffffe6" stroke-linejoin="round" stroke-linecap="round" fill="#333333">
<path id="4c024211" class="curveentity2" fill-rule="evenodd" transform="translate(0.0, 0.0) rotate(0.0) scale(1.000000, 1.000000)" d="M 117.000000 1.265625 C 134.718750 6.703125,148.218750 17.742187,157.500000 34.382812 C 166.781250 51.023437,171.421875 72.375000,171.421875 98.437500 C 171.421875 118.968750,168.539062 136.382812,162.773437 150.679687 C 157.007812 164.976562,148.429687 175.804687,137.039062 183.164062 C 125.648437 190.523437,111.609375 194.203125,94.921875 194.203125 C 79.265625 194.203125,65.507812 190.289062,53.648437 182.460937 C 41.789062 174.632812,32.671875 163.218750,26.296875 148.218750 C 19.921875 133.218750,16.734375 115.265625,16.734375 94.359375 C 16.734375 63.984375,22.710937 40.593750,34.664062 24.187500 C 46.617187 7.781250,64.265625 -0.984375,87.609375 -2.109375 C 90.937500 -7.031250,94.265625 -11.953125,97.593750 -16.875000 C 103.125000 -25.125000,108.000000 -31.640625,112.218750 -36.421875 C 116.437500 -41.203125,120.257812 -44.765625,123.679687 -47.109375 C 127.101562 -49.453125,130.546875 -51.140625,134.015625 -52.171875 C 137.484375 -53.203125,141.890625 -53.718750,147.234375 -53.718750 C 153.890625 -53.718750,160.359375 -52.125000,166.640625 -48.937500 C 172.921875 -45.750000,179.718750 -40.500000,187.031250 -33.187500 C 184.781250 -30.281250,182.531250 -27.375000,180.281250 -24.468750 C 176.812500 -27.843750,173.203125 -30.492187,169.453125 -32.414062 C 165.703125 -34.335937,161.250000 -35.296875,156.093750 -35.296875 C 154.218750 -35.296875,152.250000 -34.945312,150.187500 -34.242187 C 148.125000 -33.539062,145.945312 -32.367187,143.648437 -30.726562 C 141.351562 -29.085937,138.914062 -26.929687,136.335937 -24.257812 C 133.757812 -21.585937,131.343750 -18.773437,129.093750 -15.820312 C 126.843750 -12.867187,124.453125 -9.562500,121.921875 -5.906250 C 120.281250 -3.515625,118.640625 -1.125000,117.000000 1.265625 Z M 45.703125 98.296875 C 45.703125 110.953125,46.617187 122.437500,48.445312 132.750000 C 50.273437 143.062500,53.179687 151.851562,57.164062 159.117187 C 61.148437 166.382812,66.164062 171.984375,72.210937 175.921875 C 78.257812 179.859375,85.500000 181.828125,93.937500 181.828125 C 103.500000 181.828125,111.890625 178.781250,119.109375 172.687500 C 126.328125 166.593750,132.023437 156.820312,136.195312 143.367187 C 140.367187 129.914062,142.453125 112.968750,142.453125 92.531250 C 142.453125 75.750000,140.671875 61.078125,137.109375 48.515625 C 133.546875 35.953125,128.203125 26.414062,121.078125 19.898437 C 113.953125 13.382812,105.281250 10.125000,95.062500 10.125000 C 78.937500 10.125000,66.679687 17.625000,58.289062 32.625000 C 49.898437 47.625000,45.703125 69.515625,45.703125 98.296875 Z " />
</g>

<g id="5c8da962" class="materialsolid" stroke-width="1.000000" stroke="#ffffe6" stroke-linejoin="round" stroke-linecap="round" fill="#333333">
<path id="513ce1bd" class="curveentity2" fill-rule="evenodd" transform="translate(190.125000, 0.0) rotate(0.0) scale(1.000000, 1.000000)" d="M 10.265625 134.437500 C 10.265625 132.140625,10.265625 129.843750,10.265625 127.546875 C 16.078125 126.046875,19.851562 124.429687,21.585937 122.695312 C 23.320312 120.960937,24.492187 118.617187,25.101562 115.664062 C 25.710937 112.710937,26.015625 107.296875,26.015625 99.421875 C 26.015625 81.703125,26.015625 63.984375,26.015625 46.265625 C 26.015625 34.078125,27.375000 24.632812,30.093750 17.929687 C 32.812500 11.226562,36.937500 6.187500,42.468750 2.812500 C 48.000000 -0.562500,55.031250 -2.250000,63.562500 -2.250000 C 70.687500 -2.250000,77.789062 -0.281250,84.867187 3.656250 C 91.945312 7.593750,99.375000 13.781250,107.156250 22.218750 C 107.859375 22.031250,108.562500 21.843750,109.265625 21.656250 C 108.984375 13.968750,108.703125 6.281250,108.421875 -1.406250 C 111.281250 -1.406250,114.140625 -1.406250,117.000000 -1.406250 C 127.734375 -0.937500,138.468750 -0.468750,149.203125 0.0 C 149.203125 2.437500,149.203125 4.875000,149.203125 7.312500 C 144.140625 8.343750,140.625000 9.445312,138.656250 10.617187 C 136.687500 11.789062,135.234375 13.312500,134.296875 15.187500 C 133.359375 17.062500,132.750000 19.593750,132.468750 22.781250 C 132.187500 25.968750,132.046875 31.171875,132.046875 38.390625 C 132.046875 70.406250,132.046875 102.421875,132.046875 134.437500 C 118.687500 134.437500,105.328125 134.437500,91.968750 134.437500 C 91.968750 132.140625,91.968750 129.843750,91.968750 127.546875 C 95.625000 126.609375,98.273437 125.718750,99.914062 124.875000 C 101.554687 124.031250,102.820312 123.093750,103.710937 122.062500 C 104.601562 121.031250,105.375000 119.695312,106.031250 118.054687 C 106.687500 116.414062,107.156250 114.234375,107.437500 111.515625 C 107.718750 108.796875,107.859375 104.765625,107.859375 99.421875 C 107.859375 81.843750,107.859375 64.265625,107.859375 46.687500 C 107.859375 42.093750,106.992187 38.062500,105.257812 34.593750 C 103.523437 31.125000,100.640625 27.632812,96.609375 24.117187 C 92.578125 20.601562,88.921875 18.140625,85.640625 16.734375 C 82.359375 15.328125,78.937500 14.625000,75.375000 14.625000 C 69.937500 14.625000,65.671875 15.609375,62.578125 17.578125 C 59.484375 19.546875,57.093750 21.984375,55.406250 24.890625 C 53.718750 27.796875,52.453125 32.109375,51.609375 37.828125 C 50.765625 43.546875,50.343750 51.890625,50.343750 62.859375 C 50.343750 86.718750,50.343750 110.578125,50.343750 134.437500 C 36.984375 134.437500,23.625000 134.437500,10.265625 134.437500 Z " />
</g>

<g id="5c8da962" class="materialsolid" stroke-width="1.000000" stroke="#ffffe6" stroke-linejoin="round" stroke-linecap="round" fill="#333333">
<path id="5bf7799f" class="curveentity2" fill-rule="evenodd" transform="translate(344.250000, 0.0) rotate(0.0) scale(1.000000, 1.000000)" d="M 53.859375 189.562500 C 45.234375 189.562500,36.609375 189.562500,27.984375 189.562500 C 27.984375 180.468750,27.984375 171.375000,27.984375 162.281250 C 36.609375 162.281250,45.234375 162.281250,53.859375 162.281250 C 53.859375 171.375000,53.859375 180.468750,53.859375 189.562500 Z M 13.640625 6.890625 C 13.640625 4.593750,13.640625 2.296875,13.640625 0.0 C 32.015625 0.0,50.390625 0.0,68.765625 0.0 C 68.765625 2.296875,68.765625 4.593750,68.765625 6.890625 C 63.984375 8.109375,60.539062 9.539062,58.429687 11.179687 C 56.320312 12.820312,54.890625 15.210937,54.140625 18.351562 C 53.390625 21.492187,53.015625 27.093750,53.015625 35.156250 C 53.015625 68.671875,53.015625 102.187500,53.015625 135.703125 C 50.156250 135.703125,47.296875 135.703125,44.437500 135.703125 C 33.515625 135.281250,22.593750 134.859375,11.671875 134.437500 C 11.671875 131.953125,11.671875 129.468750,11.671875 126.984375 C 15.890625 126.234375,19.148437 125.320312,21.445312 124.242187 C 23.742187 123.164062,25.453125 121.523437,26.578125 119.320312 C 27.703125 117.117187,28.359375 114.187500,28.546875 110.531250 C 28.734375 106.875000,28.828125 102.046875,28.828125 96.046875 C 28.828125 75.609375,28.828125 55.171875,28.828125 34.734375 C 28.828125 28.171875,28.523437 23.343750,27.914062 20.250000 C 27.304687 17.156250,26.460937 14.859375,25.382812 13.359375 C 24.304687 11.859375,22.992187 10.687500,21.445312 9.843750 C 19.898437 9.000000,17.296875 8.015625,13.640625 6.890625 Z " />
</g>

<g id="5c8da962" class="materialsolid" stroke-width="1.000000" stroke="#ffffe6" stroke-linejoin="round" stroke-linecap="round" fill="#333333">
<path id="30aa27d9" class="curveentity2" fill-rule="evenodd" transform="translate(412.875000, 0.0) rotate(0.0) scale(1.000000, 1.000000)" d="M 139.781250 120.234375 C 139.781250 124.968750,139.781250 129.703125,139.781250 134.437500 C 123.187500 134.437500,106.593750 134.437500,90.000000 134.437500 C 83.343750 136.031250,76.640625 136.828125,69.890625 136.828125 C 62.390625 136.828125,55.406250 135.867187,48.937500 133.945312 C 42.468750 132.023437,36.867187 129.117187,32.132812 125.226562 C 27.398437 121.335937,23.695312 116.414062,21.023437 110.460937 C 18.351562 104.507812,17.015625 97.500000,17.015625 89.437500 C 17.015625 80.812500,18.773437 73.125000,22.289062 66.375000 C 25.804687 59.625000,30.937500 54.281250,37.687500 50.343750 C 30.093750 44.625000,24.796875 39.539062,21.796875 35.085937 C 18.796875 30.632812,17.296875 25.734375,17.296875 20.390625 C 17.296875 15.703125,18.562500 11.625000,21.093750 8.156250 C 23.625000 4.687500,27.093750 2.062500,31.500000 0.281250 C 24.281250 -3.375000,18.703125 -7.617187,14.765625 -12.445312 C 10.828125 -17.273437,8.859375 -22.640625,8.859375 -28.546875 C 8.859375 -35.109375,10.382812 -40.570312,13.429687 -44.929687 C 16.476562 -49.289062,20.789062 -52.804687,26.367187 -55.476562 C 31.945312 -58.148437,38.648437 -60.046875,46.476562 -61.171875 C 54.304687 -62.296875,62.953125 -62.859375,72.421875 -62.859375 C 85.171875 -62.859375,96.328125 -60.937500,105.890625 -57.093750 C 115.453125 -53.250000,122.765625 -47.882812,127.828125 -40.992187 C 132.890625 -34.101562,135.421875 -26.250000,135.421875 -17.437500 C 135.421875 -10.500000,134.085937 -4.429687,131.414062 0.773437 C 128.742187 5.976562,124.265625 10.125000,117.984375 13.218750 C 111.703125 16.312500,103.593750 17.859375,93.656250 17.859375 C 82.406250 17.859375,71.156250 17.859375,59.906250 17.859375 C 53.531250 17.859375,48.773437 18.234375,45.632812 18.984375 C 42.492187 19.734375,40.242187 21.000000,38.882812 22.781250 C 37.523437 24.562500,36.843750 27.187500,36.843750 30.656250 C 36.843750 35.906250,40.406250 41.250000,47.531250 46.687500 C 53.156250 44.718750,59.859375 43.734375,67.640625 43.734375 C 84.984375 43.734375,98.367187 47.882812,107.789062 56.179687 C 117.210937 64.476562,121.921875 76.265625,121.921875 91.546875 C 121.921875 97.359375,121.078125 102.773437,119.390625 107.789062 C 117.703125 112.804687,115.406250 116.765625,112.500000 119.671875 C 112.921875 120.187500,113.343750 120.703125,113.765625 121.218750 C 122.437500 120.890625,131.109375 120.562500,139.781250 120.234375 Z M 42.187500 91.687500 C 42.187500 102.843750,44.531250 111.375000,49.218750 117.281250 C 53.906250 123.187500,60.703125 126.140625,69.609375 126.140625 C 74.859375 126.140625,79.500000 124.851562,83.531250 122.273437 C 87.562500 119.695312,90.750000 115.640625,93.093750 110.109375 C 95.437500 104.578125,96.609375 97.687500,96.609375 89.437500 C 96.609375 84.843750,96.117187 80.460937,95.132812 76.289062 C 94.148437 72.117187,92.601562 68.437500,90.492187 65.250000 C 88.382812 62.062500,85.640625 59.554687,82.265625 57.726562 C 78.890625 55.898437,74.812500 54.984375,70.031250 54.984375 C 61.031250 54.984375,54.140625 58.171875,49.359375 64.546875 C 44.578125 70.921875,42.187500 79.968750,42.187500 91.687500 Z M 45.703125 -2.250000 C 51.515625 -2.812500,58.218750 -3.093750,65.812500 -3.093750 C 72.796875 -3.093750,79.781250 -3.093750,86.765625 -3.093750 C 92.203125 -3.093750,96.609375 -3.679687,99.984375 -4.851562 C 103.359375 -6.023437,105.960937 -7.593750,107.789062 -9.562500 C 109.617187 -11.531250,110.859375 -13.757812,111.515625 -16.242187 C 112.171875 -18.726562,112.500000 -21.281250,112.500000 -23.906250 C 112.500000 -29.531250,110.906250 -34.453125,107.718750 -38.671875 C 104.531250 -42.890625,99.914062 -46.125000,93.867187 -48.375000 C 87.820312 -50.625000,80.578125 -51.750000,72.140625 -51.750000 C 58.359375 -51.750000,48.117187 -49.757812,41.414062 -45.773437 C 34.710937 -41.789062,31.359375 -35.578125,31.359375 -27.140625 C 31.359375 -22.078125,32.554687 -17.554687,34.945312 -13.570312 C 37.335937 -9.585937,40.921875 -5.812500,45.703125 -2.250000 Z " />
</g>

<g id="5c8da962" class="materialsolid" stroke-width="1.000000" stroke="#ffffe6" stroke-linejoin="round" stroke-linecap="round" fill="#333333">
<path id="790da98b" class="curveentity2" fill-rule="evenodd" transform="translate(553.500000, 0.0) rotate(0.0) scale(1.000000, 1.000000)" d="M 51.187500 35.156250 C 51.187500 90.515625,51.187500 145.875000,51.187500 201.234375 C 48.375000 201.234375,45.562500 201.234375,42.750000 201.234375 C 31.453125 200.765625,20.156250 200.296875,8.859375 199.828125 C 8.859375 197.390625,8.859375 194.953125,8.859375 192.515625 C 13.640625 191.671875,16.945312 190.828125,18.773437 189.984375 C 20.601562 189.140625,22.054687 188.015625,23.132812 186.609375 C 24.210937 185.203125,25.054687 183.257812,25.664062 180.773437 C 26.273437 178.289062,26.648437 175.265625,26.789062 171.703125 C 26.929687 168.140625,27.000000 161.859375,27.000000 152.859375 C 27.000000 113.625000,27.000000 74.390625,27.000000 35.156250 C 27.000000 30.093750,26.835937 25.992187,26.507812 22.851562 C 26.179687 19.710937,25.617187 17.226562,24.820312 15.398437 C 24.023437 13.570312,22.710937 12.000000,20.882812 10.687500 C 19.054687 9.375000,15.796875 8.109375,11.109375 6.890625 C 11.109375 4.593750,11.109375 2.296875,11.109375 0.0 C 29.718750 0.0,48.328125 0.0,66.937500 0.0 C 66.937500 2.296875,66.937500 4.593750,66.937500 6.890625 C 62.156250 8.109375,58.710937 9.539062,56.601562 11.179687 C 54.492187 12.820312,53.062500 15.210937,52.312500 18.351562 C 51.562500 21.492187,51.187500 27.093750,51.187500 35.156250 Z " />
</g>

<g id="5c8da962" class="materialsolid" stroke-width="1.000000" stroke="#ffffe6" stroke-linejoin="round" stroke-linecap="round" fill="#333333">
<path id="4f8a8e1e" class="curveentity2" fill-rule="evenodd" transform="translate(622.125000, 0.0) rotate(0.0) scale(1.000000, 1.000000)" d="M 126.000000 23.906250 C 123.140625 26.953125,120.281250 30.000000,117.421875 33.046875 C 111.328125 26.578125,105.210937 21.914062,99.070312 19.054687 C 92.929687 16.195312,86.015625 14.765625,78.328125 14.765625 C 69.234375 14.765625,61.851562 16.898437,56.179687 21.164062 C 50.507812 25.429687,46.429687 31.335937,43.945312 38.882812 C 41.460937 46.429687,40.218750 55.734375,40.218750 66.796875 C 40.218750 67.640625,40.218750 68.484375,40.218750 69.328125 C 69.750000 69.328125,99.281250 69.328125,128.812500 69.328125 C 128.531250 82.078125,127.289062 92.414062,125.085937 100.335937 C 122.882812 108.257812,119.789062 114.820312,115.804687 120.023437 C 111.820312 125.226562,106.500000 129.328125,99.843750 132.328125 C 93.187500 135.328125,85.125000 136.828125,75.656250 136.828125 C 63.562500 136.828125,52.875000 133.921875,43.593750 128.109375 C 34.312500 122.296875,27.164062 114.046875,22.148437 103.359375 C 17.132812 92.671875,14.625000 80.343750,14.625000 66.375000 C 14.625000 43.781250,19.546875 26.695312,29.390625 15.117187 C 39.234375 3.539062,53.812500 -2.250000,73.125000 -2.250000 C 80.343750 -2.250000,86.953125 -1.242187,92.953125 0.773437 C 98.953125 2.789062,104.460937 5.578125,109.476562 9.140625 C 114.492187 12.703125,120.000000 17.625000,126.000000 23.906250 Z M 102.375000 81.000000 C 81.890625 81.000000,61.406250 81.000000,40.921875 81.000000 C 41.953125 95.343750,45.351562 106.382812,51.117187 114.117187 C 56.882812 121.851562,64.593750 125.718750,74.250000 125.718750 C 80.625000 125.718750,85.781250 124.007812,89.718750 120.585937 C 93.656250 117.164062,96.609375 112.242187,98.578125 105.820312 C 100.546875 99.398437,101.812500 91.125000,102.375000 81.000000 Z " />
</g>

<g id="5c8da962" class="materialsolid" stroke-width="1.000000" stroke="#ffffe6" stroke-linejoin="round" stroke-linecap="round" fill="#333333">
<path id="2fd13df1" class="curveentity2" fill-rule="evenodd" transform="translate(753.750000, 0.0) rotate(0.0) scale(1.000000, 1.000000)" d="M 73.125000 -11.531250 C 90.093750 26.578125,107.062500 64.687500,124.031250 102.796875 C 126.750000 108.796875,129.093750 113.460937,131.062500 116.789062 C 133.031250 120.117187,135.000000 122.554687,136.968750 124.101562 C 138.937500 125.648437,141.750000 126.796875,145.406250 127.546875 C 145.406250 129.843750,145.406250 132.140625,145.406250 134.437500 C 127.875000 134.437500,110.343750 134.437500,92.812500 134.437500 C 92.812500 132.140625,92.812500 129.843750,92.812500 127.546875 C 98.250000 126.328125,102.070312 124.687500,104.273437 122.625000 C 106.476562 120.562500,107.578125 117.515625,107.578125 113.484375 C 107.578125 110.765625,107.132812 107.835937,106.242187 104.695312 C 105.351562 101.554687,104.109375 98.109375,102.515625 94.359375 C 93.140625 71.859375,83.765625 49.359375,74.390625 26.859375 C 66.046875 50.343750,57.703125 73.828125,49.359375 97.312500 C 48.046875 100.968750,47.085937 104.156250,46.476562 106.875000 C 45.867187 109.593750,45.562500 112.218750,45.562500 114.750000 C 45.562500 117.187500,45.984375 119.179687,46.828125 120.726562 C 47.671875 122.273437,48.984375 123.539062,50.765625 124.523437 C 52.546875 125.507812,55.640625 126.515625,60.046875 127.546875 C 60.046875 129.843750,60.046875 132.140625,60.046875 134.437500 C 40.968750 134.437500,21.890625 134.437500,2.812500 134.437500 C 2.812500 132.140625,2.812500 129.843750,2.812500 127.546875 C 6.468750 126.703125,9.187500 125.578125,10.968750 124.171875 C 12.750000 122.765625,14.414062 120.703125,15.960937 117.984375 C 17.507812 115.265625,19.546875 110.484375,22.078125 103.640625 C 35.203125 68.343750,48.328125 33.046875,61.453125 -2.250000 C 57.421875 -10.593750,53.789062 -17.484375,50.554687 -22.921875 C 47.320312 -28.359375,44.507812 -32.390625,42.117187 -35.015625 C 39.726562 -37.640625,37.429687 -39.492187,35.226562 -40.570312 C 33.023437 -41.648437,30.515625 -42.187500,27.703125 -42.187500 C 24.515625 -42.187500,22.078125 -41.437500,20.390625 -39.937500 C 18.703125 -38.437500,17.296875 -35.765625,16.171875 -31.921875 C 12.000000 -31.921875,7.828125 -31.921875,3.656250 -31.921875 C 3.656250 -41.203125,3.656250 -50.484375,3.656250 -59.765625 C 10.125000 -60.984375,15.937500 -61.593750,21.093750 -61.593750 C 29.156250 -61.593750,36.117187 -59.765625,41.976562 -56.109375 C 47.835937 -52.453125,53.203125 -47.015625,58.078125 -39.796875 C 62.953125 -32.578125,67.968750 -23.156250,73.125000 -11.531250 Z " />
</g>

</g>
</svg>
