# g: 1, v: 13, vt: 12, vn: 13, f: 22
o 4ac68d3e

# v: 13, vt: 12, vn: 13, f: 22
g Cone

v 0.0 0.0 -0.500000
v 0.0 0.0 0.500000
v 0.500000 0.0 -0.500000
v 0.420626 0.270320 -0.500000
v 0.207707 0.454816 -0.500000
v -0.071157 0.494910 -0.500000
v -0.327430 0.377874 -0.500000
v -0.479746 0.140866 -0.500000
v -0.479746 -0.140866 -0.500000
v -0.327430 -0.377874 -0.500000
v -0.071157 -0.494910 -0.500000
v 0.207707 -0.454815 -0.500000
v 0.420626 -0.270320 -0.500000

vt 0.500000 0.500000
vt 1.000000 0.500000
vt 0.920626 0.229679
vt 0.707707 0.045184
vt 0.428842 0.005089
vt 0.172569 0.122125
vt 0.020253 0.359133
vt 0.020253 0.640866
vt 0.172569 0.877874
vt 0.428842 0.994910
vt 0.707707 0.954815
vt 0.920626 0.770320

vn 0.0 0.0 -1.000000
vn 0.0 0.0 1.000000
vn 0.999999 0.0 0.0
vn 0.841253 0.540640 0.0
vn 0.415414 0.909631 0.0
vn -0.142314 0.989821 0.0
vn -0.654860 0.755749 0.0
vn -0.959492 0.281732 0.0
vn -0.959492 -0.281732 0.0
vn -0.654860 -0.755749 0.0
vn -0.142314 -0.989821 0.0
vn 0.415415 -0.909631 0.0
vn 0.841253 -0.540640 0.0

s off

f 1/1/1 4/3/1 3/2/1 
f 1/1/1 5/4/1 4/3/1 
f 1/1/1 6/5/1 5/4/1 
f 1/1/1 7/6/1 6/5/1 
f 1/1/1 8/7/1 7/6/1 
f 1/1/1 9/8/1 8/7/1 
f 1/1/1 10/9/1 9/8/1 
f 1/1/1 11/10/1 10/9/1 
f 1/1/1 12/11/1 11/10/1 
f 1/1/1 13/12/1 12/11/1 
f 1/1/1 3/2/1 13/12/1 
f 2/1/2 3/2/3 4/3/4 
f 2/1/2 4/3/4 5/4/5 
f 2/1/2 5/4/5 6/5/6 
f 2/1/2 6/5/6 7/6/7 
f 2/1/2 7/6/7 8/7/8 
f 2/1/2 8/7/8 9/8/9 
f 2/1/2 9/8/9 10/9/10 
f 2/1/2 10/9/10 11/10/11 
f 2/1/2 11/10/11 12/11/12 
f 2/1/2 12/11/12 13/12/13 
f 2/1/2 13/12/13 3/2/3 
